<?xml version="1.0" encoding="utf-8"?>
<!-- Generator: Adobe Illustrator 15.0.0, SVG Export Plug-In . SVG Version: 6.00 Build 0)  -->
<!DOCTYPE svg PUBLIC "-//W3C//DTD SVG 1.1//EN" "http://www.w3.org/Graphics/SVG/1.1/DTD/svg11.dtd">
<svg version="1.1" id="Layer_1" xmlns="http://www.w3.org/2000/svg" xmlns:xlink="http://www.w3.org/1999/xlink" x="0px" y="0px"
	 width="17.5px" height="17px" viewBox="0 0 17.5 17" enable-background="new 0 0 17.5 17" xml:space="preserve">
<g>
	<g>
		<path fill="#E9E9EA" d="M-270.226,46.746h2.438c5.94,0,10.801,4.86,10.801,10.8v32.733c0,5.939-4.86,10.8-10.801,10.8h-2.438
			V46.746z"/>
		<path fill="#E9E9EA" d="M-349.133,46.746h-2.438c-5.939,0-10.8,4.86-10.8,10.8v32.733c0,5.939,4.86,10.8,10.8,10.8h2.438V46.746z"
			/>
		<path fill="#5B5C5C" d="M-267.789,46.746h-2.438h-78.907h-2.438c-5.939,0-10.8,4.86-10.8,10.8v5.699h13.237v54.5h78.907v-54.5
			h13.238v-5.699C-256.988,51.606-261.848,46.746-267.789,46.746z"/>
		<polygon fill="#604E75" points="-349.133,117.745 -349.133,134.412 -349.133,174.079 -320.343,174.079 -320.343,134.412 
			-299.015,134.412 -299.015,174.079 -270.226,174.079 -270.226,134.412 -270.226,117.745 		"/>
		<path d="M-334.739,188.473c7.95,0,14.396-6.444,14.396-14.395h-28.79C-349.133,182.029-342.688,188.473-334.739,188.473z"/>
		<path d="M-284.621,188.473c7.95,0,14.395-6.444,14.395-14.395h-28.789C-299.015,182.029-292.57,188.473-284.621,188.473z"/>
		<path fill="#604E75" d="M-334.739,159.684c-7.949,0-14.395,6.444-14.395,14.395h28.79
			C-320.343,166.128-326.789,159.684-334.739,159.684z"/>
		<path fill="#604E75" d="M-284.621,159.684c-7.949,0-14.395,6.444-14.395,14.395h28.789
			C-270.226,166.128-276.67,159.684-284.621,159.684z"/>
		<g>
			<g>
				<path fill="#E9E9EA" d="M-343.019,68.829c1.461-0.578,2.197-0.853,3.675-1.365c0.197,0.566,0.295,0.849,0.492,1.415
					c-0.319,0.11-0.48,0.166-0.798,0.28c0.727,2.033,1.089,3.051,1.816,5.083c0.299-0.107,0.45-0.157,0.75-0.262
					c0.195,0.562,0.292,0.841,0.487,1.402c-1.343,0.466-2.011,0.716-3.338,1.241c-0.219-0.553-0.329-0.83-0.548-1.383
					c0.296-0.117,0.445-0.175,0.743-0.289c-0.776-2.015-1.162-3.023-1.938-5.038c-0.316,0.122-0.475,0.185-0.791,0.31
					C-342.688,69.666-342.798,69.386-343.019,68.829z"/>
				<path fill="#E9E9EA" d="M-331.367,65.071c1.383-0.343,2.079-0.499,3.472-0.787c0.122,0.587,0.182,0.881,0.304,1.468
					c-0.328,0.067-0.493,0.102-0.82,0.173c0.584,2.7,0.877,4.051,1.461,6.752c-0.48,0.104-0.72,0.157-1.199,0.269
					c-2.036-1.685-3.1-2.495-5.318-4.05c0.41,1.444,0.615,2.163,1.024,3.607c0.157-0.045,0.917-0.254,0.917-0.254
					c0.157,0.579,0.237,0.868,0.394,1.447c-1.25,0.34-1.874,0.521-3.113,0.91c-0.18-0.572-0.27-0.857-0.449-1.43
					c0.36-0.113,0.54-0.168,0.9-0.277c-0.625-2.071-0.935-3.107-1.56-5.179c-0.384,0.116-0.577,0.177-0.96,0.297
					c-0.18-0.572-0.27-0.858-0.449-1.431c1.163-0.365,1.747-0.54,2.918-0.865c1.862,1.35,2.763,2.049,4.499,3.487
					c-0.275-1.167-0.414-1.749-0.689-2.916c-0.389,0.092-0.582,0.138-0.97,0.233C-331.149,65.944-331.223,65.653-331.367,65.071z"/>
				<path fill="#E9E9EA" d="M-316.542,66.881c0.198,2.402-1.544,4.33-3.813,4.632c-1.451,0.193-2.176,0.305-3.619,0.563
					c-0.106-0.596-0.158-0.893-0.265-1.488c0.295-0.053,0.442-0.076,0.738-0.126c-0.359-2.119-0.538-3.18-0.897-5.299
					c-0.314,0.053-0.471,0.08-0.785,0.136c-0.107-0.6-0.161-0.897-0.268-1.497c1.59-0.283,2.387-0.407,3.985-0.62
					C-318.779,62.824-316.739,64.48-316.542,66.881z M-321.48,70.142c0.257-0.037,0.384-0.055,0.641-0.09
					c1.84-0.251,2.344-1.638,2.202-2.974c-0.144-1.347-1.154-2.591-2.928-2.349c-0.273,0.037-0.41,0.057-0.683,0.096
					C-321.941,66.953-321.788,68.014-321.48,70.142z"/>
				<path fill="#E9E9EA" d="M-314.986,62.586c1.541-0.095,2.313-0.125,3.856-0.154c0.011,0.6,0.018,0.9,0.029,1.5
					c-0.333,0.006-0.5,0.01-0.833,0.02c0.061,2.158,0.091,3.234,0.152,5.392c0.313-0.009,0.47-0.012,0.783-0.018
					c0.011,0.595,0.017,0.893,0.028,1.487c-1.401,0.026-2.103,0.055-3.502,0.141c-0.037-0.594-0.054-0.892-0.091-1.485
					c0.313-0.02,0.469-0.026,0.782-0.043c-0.112-2.155-0.166-3.231-0.278-5.388c-0.333,0.018-0.501,0.026-0.834,0.047
					C-314.931,63.486-314.95,63.185-314.986,62.586z"/>
				<path fill="#E9E9EA" d="M-303.198,62.616c0,0,2.488,6.83,2.62,7.134c0.372,0.039,0.556,0.059,0.927,0.102
					c-0.069,0.596-0.103,0.894-0.172,1.489c-1.399-0.163-2.102-0.229-3.505-0.332c0.043-0.594,0.066-0.891,0.11-1.483
					c0.184,0.014,0.275,0.019,0.459,0.033c-0.125-0.311-0.229-0.617-0.369-0.94c-0.993-0.073-1.488-0.103-2.482-0.146
					c-0.157,0.358-0.236,0.537-0.39,0.896c0.184,0.008,0.276,0.011,0.46,0.02c-0.027,0.594-0.041,0.893-0.068,1.487
					c-1.215-0.056-1.823-0.073-3.039-0.084c0.005-0.6,0.008-0.899,0.014-1.499c0.373,0.003,0.559,0.006,0.932,0.014
					c0.316-0.894,3.296-6.763,3.296-6.763c0.494,0.027,0.743,0.04,1.237,0.074C-303.181,62.615-303.187,62.617-303.198,62.616z
					 M-303.578,67.083c-0.256-0.686-0.389-1.027-0.657-1.711c-0.325,0.648-0.484,0.974-0.798,1.625
					C-304.451,67.026-304.16,67.043-303.578,67.083z"/>
				<path fill="#E9E9EA" d="M-291.097,64.246c1.393,0.285,2.087,0.44,3.471,0.78c-0.143,0.582-0.214,0.872-0.357,1.454
					c-0.326-0.08-0.489-0.117-0.816-0.194c-0.634,2.689-0.951,4.033-1.584,6.723c-0.479-0.112-0.717-0.168-1.197-0.273
					c-1.113-2.396-1.722-3.587-3.045-5.943c-0.251,1.48-0.378,2.219-0.629,3.699c0.16,0.027,0.935,0.166,0.935,0.166
					c-0.107,0.59-0.161,0.885-0.268,1.475c-1.269-0.23-1.905-0.334-3.18-0.515c0.084-0.594,0.125-0.89,0.209-1.483
					c0.37,0.053,0.557,0.08,0.926,0.137c0.327-2.139,0.491-3.208,0.818-5.347c-0.394-0.061-0.59-0.089-0.984-0.145
					c0.084-0.594,0.126-0.892,0.21-1.485c1.196,0.17,1.793,0.265,2.984,0.474c1.093,2.019,1.603,3.035,2.55,5.08
					c0.253-1.172,0.38-1.758,0.634-2.93c-0.39-0.084-0.586-0.125-0.977-0.205C-291.278,65.125-291.217,64.833-291.097,64.246z"/>
				<path fill="#E9E9EA" d="M-279.933,67.287c0,0,0.684,7.262,0.734,7.59c0.354,0.136,0.531,0.203,0.884,0.343
					c-0.221,0.558-0.331,0.834-0.552,1.392c-1.332-0.527-2.002-0.774-3.35-1.242c0.195-0.562,0.292-0.844,0.487-1.405
					c0.176,0.062,0.265,0.092,0.441,0.154c-0.043-0.333-0.064-0.656-0.118-1.006c-0.954-0.331-1.432-0.491-2.393-0.793
					c-0.245,0.306-0.368,0.459-0.61,0.766c0.178,0.055,0.267,0.083,0.444,0.139c-0.179,0.567-0.268,0.853-0.447,1.42
					c-1.173-0.371-1.764-0.548-2.947-0.874c0.159-0.578,0.24-0.866,0.399-1.444c0.363,0.1,0.544,0.15,0.906,0.255
					c0.538-0.782,4.958-5.681,4.958-5.681c0.477,0.155,0.713,0.236,1.188,0.398C-279.918,67.293-279.923,67.291-279.933,67.287z
					 M-281.454,71.508c-0.075-0.729-0.114-1.095-0.201-1.825c-0.485,0.542-0.725,0.813-1.2,1.361
					C-282.293,71.225-282.014,71.318-281.454,71.508z"/>
			</g>
		</g>
	</g>
	<g>
		<path fill="#E9E9EA" d="M-232.654-16.886c-0.893,0-1.756,0.118-2.586,0.318c-8.77-28.624-38.908-49.725-74.753-49.725
			c-35.846,0-65.984,21.101-74.752,49.725c-0.831-0.201-1.693-0.318-2.586-0.318c-6.076,0-11,4.925-11,11c0,6.075,4.924,11,11,11
			c0.066,0,0.132-0.009,0.199-0.01c2.713,33.829,36.201,49.417,77.139,49.417s74.425-15.588,77.14-49.417
			c0.066,0.001,0.131,0.01,0.199,0.01c6.074,0,11-4.925,11-11C-221.654-11.961-226.58-16.886-232.654-16.886z"/>
		<g>
			<circle cx="-350.735" cy="-9.178" r="7.5"/>
			<circle fill="#FFFFFF" cx="-353.229" cy="-11.221" r="3.029"/>
		</g>
		<g>
			<circle cx="-270.235" cy="-9.178" r="7.5"/>
			<circle fill="#FFFFFF" cx="-272.729" cy="-11.221" r="3.03"/>
		</g>
		<path fill="none" stroke="#000000" stroke-width="3" stroke-linecap="round" stroke-miterlimit="10" d="M-309.993-14.251
			c0,0,0.812,8.268,4.312,12.573l-4.312,3.555"/>
		<path fill="none" stroke="#000000" stroke-width="3" stroke-linecap="round" stroke-miterlimit="10" d="M-322.261,8.584
			c0,5.106,3.842,12.917,12.318,12.917s12.827-6.482,12.827-12.827"/>
		<path fill="#B69FCC" d="M-258.178-54.622L-258.178-54.622C-258.178-54.622-258.178-54.623-258.178-54.622
			c-1.28-0.946-2.444-1.776-3.42-2.501c-1.853-1.379-4.369-2.847-7.429-4.276c-16.112-12.402-23.727-29.564-23.727-29.564
			c-3,9.667-8.751,6.667-8.751,6.667c-2.751-1-3.083-6-3.083-6c-0.5,3.5-4,6.5-6.666,4.167c-2.667-2.333-4-11.5-4-11.5
			s-1.5,18-8.334,16.833c-6.833-1.167-6.166-5.167-6.166-5.167c-0.968,10.89-16.194,21.368-24.47,26.295
			c-1.881,0.93-3.637,1.909-5.25,2.928c-0.002,0-0.012,0.005-0.012,0.005h0.002c-2.631,1.663-4.881,3.431-6.615,5.279
			c-10.324,11.001-19.127,25.778-18.646,34.889c0,0,2.813,3.335,2.813,7.39h5.5c0,0,0.5-26.445,16-36.445
			c0,0,25.348-10.674,48.515-9.841c23.166,0.833,50.819,8.674,50.819,8.674c19.667,12.667,17.667,37.612,17.667,37.612h5.332
			c0.166-4.055,2.859-7.39,2.859-7.39C-237.036-37.754-250.047-48.618-258.178-54.622z"/>
	</g>
</g>
<g>
	<circle fill="#604E75" cx="8.833" cy="8.584" r="7.704"/>
	<circle fill="#B69FCC" cx="8.832" cy="8.584" r="5.436"/>
</g>
</svg>
