<?xml version="1.0" encoding="utf-8"?>
<!-- Generator: Adobe Illustrator 15.0.0, SVG Export Plug-In . SVG Version: 6.00 Build 0)  -->
<!DOCTYPE svg PUBLIC "-//W3C//DTD SVG 1.1//EN" "http://www.w3.org/Graphics/SVG/1.1/DTD/svg11.dtd">
<svg version="1.1" id="Layer_1" xmlns="http://www.w3.org/2000/svg" xmlns:xlink="http://www.w3.org/1999/xlink" x="0px" y="0px"
	 width="182.5px" height="294.334px" viewBox="0 0 182.5 294.334" enable-background="new 0 0 182.5 294.334" xml:space="preserve">
<g>
	<g>
		<path fill="#E9E9EA" d="M-867.443-27.167h2.438c5.94,0,10.8,4.86,10.8,10.8v32.733c0,5.939-4.86,10.8-10.8,10.8h-2.438V-27.167z"
			/>
		<path fill="#E9E9EA" d="M-946.351-27.167h-2.438c-5.94,0-10.8,4.86-10.8,10.8v32.733c0,5.939,4.86,10.8,10.8,10.8h2.438V-27.167z"
			/>
		<path fill="#5B5C5C" d="M-865.006-27.167h-2.438h-78.908h-2.438c-5.94,0-10.8,4.86-10.8,10.8v5.699h13.237v54.5h78.908v-54.5
			h13.237v-5.699C-854.206-22.306-859.066-27.167-865.006-27.167z"/>
		<polygon fill="#B69FCC" points="-946.351,43.833 -946.351,60.5 -946.351,100.167 -917.562,100.167 -917.562,60.5 -896.233,60.5 
			-896.233,100.167 -867.443,100.167 -867.443,60.5 -867.443,43.833 		"/>
		<path d="M-931.957,114.561c7.95,0,14.395-6.444,14.395-14.395h-28.79C-946.351,108.117-939.906,114.561-931.957,114.561z"/>
		<path d="M-881.838,114.561c7.95,0,14.395-6.444,14.395-14.395h-28.79C-896.233,108.117-889.788,114.561-881.838,114.561z"/>
		<path fill="#B69FCC" d="M-931.957,85.772c-7.95,0-14.395,6.444-14.395,14.395h28.79
			C-917.562,92.216-924.006,85.772-931.957,85.772z"/>
		<path fill="#B69FCC" d="M-881.838,85.772c-7.95,0-14.395,6.444-14.395,14.395h28.79
			C-867.443,92.216-873.888,85.772-881.838,85.772z"/>
		<text transform="matrix(1 0 0 1 -925.2217 4.8335)" fill="#FFFFFF" font-family="'Cubano-Regular'" font-size="25.3327">IUP</text>
	</g>
	<g>
		<path fill="#E9E9EA" d="M-829.863-90.548c-0.893,0-1.755,0.118-2.586,0.318c-8.769-28.624-38.907-49.725-74.752-49.725
			s-65.984,21.101-74.752,49.725c-0.831-0.201-1.693-0.318-2.586-0.318c-6.075,0-11,4.925-11,11c0,6.075,4.925,11,11,11
			c0.067,0,0.132-0.009,0.199-0.01c2.714,33.829,36.201,49.417,77.139,49.417c40.938,0,74.425-15.588,77.139-49.417
			c0.067,0.001,0.132,0.01,0.199,0.01c6.075,0,11-4.925,11-11C-818.863-85.624-823.788-90.548-829.863-90.548z"/>
		<g>
			<circle cx="-947.943" cy="-82.84" r="7.5"/>
			<circle fill="#FFFFFF" cx="-950.438" cy="-84.883" r="3.03"/>
		</g>
		<g>
			<circle cx="-867.443" cy="-82.84" r="7.5"/>
			<circle fill="#FFFFFF" cx="-869.938" cy="-84.883" r="3.03"/>
		</g>
		<path fill="#B69FCC" d="M-858.807-130.786c-7.167-5.333-24.171-11.994-44.658-12.637c-22.176-0.696-49.676,7.471-59.842,18.304
			c-10.324,11.001-19.127,25.778-18.647,34.889c0,0,2.813,3.335,2.813,7.39h5.5c0,0,0.5-26.445,16-36.445
			c0,0,7.5-0.833,10.167,4.833c0,0,4.227-3.333,2.03-6.5c0,0,24.428-4.833,39.928,10.792c0,0,3.125-5.542,0.875-7.542
			c0,0,16.125,0.667,22.375,7.917c0,0,0.875-2.417,0-5c-0.445-1.313,23.625-1.875,29.75,7.25c0,0,0.667-8.583-5.792-12.917
			c19.667,12.667,17.667,37.612,17.667,37.612h5.333c0.166-4.055,2.858-7.39,2.858-7.39
			C-834.527-114.754-851.64-125.452-858.807-130.786z"/>
		<path fill="none" stroke="#000000" stroke-width="3" stroke-linecap="round" stroke-miterlimit="10" d="M-907.201-87.913
			c0,0,0.811,8.268,4.311,12.573l-4.311,3.555"/>
		<path fill="none" stroke="#000000" stroke-width="3" stroke-linecap="round" stroke-miterlimit="10" d="M-919.47-65.078
			c0,5.106,3.842,12.917,12.319,12.917s12.827-6.482,12.827-12.827"/>
	</g>
</g>
<g>
	<g>
		<path fill="#E9E9EA" d="M-648.495-27.167h2.438c5.94,0,10.8,4.86,10.8,10.8v32.733c0,5.939-4.859,10.8-10.8,10.8h-2.438V-27.167z"
			/>
		<path fill="#E9E9EA" d="M-727.402-27.167h-2.438c-5.94,0-10.801,4.86-10.801,10.8v32.733c0,5.939,4.86,10.8,10.801,10.8h2.438
			V-27.167z"/>
		<path fill="#333333" d="M-646.058-27.167h-2.438h-78.907h-2.438c-5.94,0-10.801,4.86-10.801,10.8v5.699h13.238v54.5h78.907v-54.5
			h13.237v-5.699C-635.258-22.306-640.117-27.167-646.058-27.167z"/>
		<polygon fill="#B69FCC" points="-727.402,43.833 -727.402,60.5 -727.402,100.167 -698.613,100.167 -698.613,60.5 -677.285,60.5 
			-677.285,100.167 -648.495,100.167 -648.495,60.5 -648.495,43.833 		"/>
		<path d="M-713.008,114.561c7.949,0,14.395-6.444,14.395-14.395h-28.789C-727.402,108.117-720.958,114.561-713.008,114.561z"/>
		<path d="M-662.891,114.561c7.951,0,14.396-6.444,14.396-14.395h-28.79C-677.285,108.117-670.84,114.561-662.891,114.561z"/>
		<path fill="#B69FCC" d="M-713.008,85.772c-7.95,0-14.395,6.444-14.395,14.395h28.789
			C-698.613,92.216-705.059,85.772-713.008,85.772z"/>
		<path fill="#B69FCC" d="M-662.891,85.772c-7.949,0-14.395,6.444-14.395,14.395h28.79
			C-648.495,92.216-654.939,85.772-662.891,85.772z"/>
		<g>
			<g>
				<path fill="#604E75" d="M-706.905-8.305c0.692-0.213,1.111-0.069,1.252,0.418c1.805,6.229,2.707,9.342,4.512,15.571
					c0.134,0.461-0.041,0.801-0.544,0.956c-1.107,0.341-1.656,0.528-2.746,0.938c-0.471,0.177-0.845,0.027-1.022-0.419
					c-2.388-6.03-3.581-9.044-5.968-15.074c-0.187-0.472,0.092-0.855,0.739-1.099C-709.184-7.578-708.428-7.836-706.905-8.305z"/>
				<path fill="#604E75" d="M-697.566-10.442c0.71-0.108,1.1,0.097,1.168,0.6c0.533,3.935,0.799,5.903,1.332,9.838
					c0.262,1.934,0.558,3.053,2.638,2.864s2.166-1.344,2.073-3.293c-0.188-3.967-0.281-5.95-0.469-9.917
					c-0.024-0.507,0.357-0.78,1.037-0.801c1.604-0.05,2.407-0.049,4.01,0c0.715,0.022,1.061,0.294,1.037,0.802
					c-0.214,4.504-0.32,6.754-0.533,11.258c-0.079,1.67-0.666,5.735-6.759,6.289c-6.093,0.554-7.426-3.328-7.807-4.956
					c-1.027-4.391-1.541-6.586-2.567-10.977c-0.116-0.495,0.212-0.832,0.881-0.977C-699.95-10.054-699.157-10.2-697.566-10.442z"/>
				<path fill="#604E75" d="M-672.491-9.359c6.239,1.51,7.921,4.528,6.392,8.391s-4.182,4.656-9.254,3.428
					c-0.547-0.132-0.821-0.195-1.371-0.313c-0.543-0.116-0.908,0.069-1.006,0.567c-0.313,1.591-0.47,2.388-0.783,3.979
					c-0.098,0.497-0.402,0.692-0.917,0.6c-1.153-0.207-1.731-0.293-2.892-0.428c-0.492-0.057-0.751-0.362-0.704-0.84
					c0.641-6.443,0.96-9.663,1.604-16.106c0.05-0.505,0.432-0.725,1.148-0.667C-677.139-10.384-675.575-10.105-672.491-9.359z
					 M-674.142-1.731c1.479,0.363,2.251,0.444,2.687-1.064s-0.296-1.896-1.865-2.281c-0.706-0.173-1.061-0.255-1.771-0.407
					c-0.624-0.134-1.035,0.045-1.132,0.542c-0.149,0.756-0.224,1.135-0.373,1.891c-0.093,0.472,0.196,0.811,0.784,0.937
					C-675.143-1.971-674.808-1.895-674.142-1.731z"/>
			</g>
		</g>
	</g>
	<g>
		<path fill="#E9E9EA" d="M-610.914-90.798c-0.893,0-1.756,0.118-2.586,0.318c-8.77-28.624-38.908-49.725-74.753-49.725
			s-65.983,21.101-74.753,49.725c-0.83-0.201-1.693-0.318-2.586-0.318c-6.074,0-11,4.925-11,11c0,6.075,4.926,11,11,11
			c0.068,0,0.133-0.009,0.199-0.01c2.715,33.829,36.201,49.417,77.14,49.417c40.938,0,74.425-15.588,77.14-49.417
			c0.066,0.001,0.131,0.01,0.199,0.01c6.074,0,11-4.925,11-11C-599.914-85.874-604.84-90.798-610.914-90.798z"/>
		<path fill="none" stroke="#000000" stroke-width="3" stroke-linecap="round" stroke-miterlimit="10" d="M-743.715-85.815
			c0,2.075,1.561,5.25,5.006,5.25s5.214-2.635,5.214-5.213"/>
		<path fill="none" stroke="#000000" stroke-width="3" stroke-linecap="round" stroke-miterlimit="10" d="M-738.605-90.605
			c0,2.075,1.561,5.25,5.006,5.25c1.54,0,2.744-0.526,3.605-1.338"/>
		<path fill="none" stroke="#000000" stroke-width="3" stroke-linecap="round" stroke-miterlimit="10" d="M-638.689-90.605
			c0,2.075-1.561,5.25-5.006,5.25c-1.539,0-2.744-0.526-3.605-1.338"/>
		<path fill="none" stroke="#000000" stroke-width="3" stroke-linecap="round" stroke-miterlimit="10" d="M-643.877-85.815
			c0,2.075,1.561,5.25,5.006,5.25s5.214-2.635,5.214-5.213"/>
		<g>
			<circle cx="-728.995" cy="-83.09" r="7.5"/>
			<circle fill="#FFFFFF" cx="-731.489" cy="-85.133" r="3.03"/>
		</g>
		<g>
			<circle cx="-648.495" cy="-83.09" r="7.5"/>
			<circle fill="#FFFFFF" cx="-650.989" cy="-85.133" r="3.03"/>
		</g>
		<path fill="none" stroke="#000000" stroke-width="3" stroke-linecap="round" stroke-miterlimit="10" d="M-688.253-88.163
			c0,0,0.812,8.268,4.312,12.573l-4.312,3.555"/>
		<path fill="none" stroke="#000000" stroke-width="3" stroke-linecap="round" stroke-miterlimit="10" d="M-700.521-65.328
			c0,5.106,3.842,12.917,12.318,12.917s12.827-6.482,12.827-12.827"/>
		<path fill="#604E75" d="M-695.652-151.804c0,0-24.965,11-16.982,23.333s22.943-1.667,44.315,0
			c12.527,0.977,45.949,10.863,55.192,37.99c8.352,24.51-6.813,49.14-15.473,54.742c-8.66,5.604-22.548,31.751-16.387,45.648
			s28.668,28.953,52.334,20.286s18.666-23.333,18.666-23.333s-4,8.999-16,8.999s-31.332-16.667-16.666-52.333
			c14.666-35.667,12.495-75.284-14.373-98C-638.768-149.47-665.652-161.471-695.652-151.804z"/>
		<path fill="#E9E9EA" d="M-611.113-68.809c0.066,0.001,0.131,0.01,0.199,0.01c6.074,0,11-4.925,11-11c0-6.075-4.926-11-11-11
			c-0.893,0-1.756,0.118-2.586,0.318l-5.525,12.451L-611.113-68.809z"/>
		<path fill="#604E75" d="M-703.691-137.803c0,0-7.667,13-17.804,17.667c-10.418,4.796-31.542,3.521-41.511,29.657
			c-10.853,28.453,10.73,54.01,22.365,59.361c11.635,5.35,16.652,32.315,1.801,44.315S-795.692,26.53-799.025-2.47
			c0,0,9.001,11,19.334,9.334c10.333-1.667,26.334-16.667,8-38c-18.334-21.334-16.223-70.518,6-91.667
			C-742.853-144.538-717.358-152.47-703.691-137.803z"/>
		<path fill="#E9E9EA" d="M-765.392-68.809c-0.066,0.001-0.131,0.01-0.199,0.01c-6.074,0-11-4.925-11-11c0-6.075,4.926-11,11-11
			c0.893,0,1.756,0.118,2.586,0.318l5.525,12.451L-765.392-68.809z"/>
		<circle fill="#C4C4C3" cx="-734.12" cy="-56.432" r="9.595"/>
		<circle fill="#C4C4C3" cx="-641.876" cy="-56.432" r="9.595"/>
	</g>
</g>
<g>
	<g>
		<path fill="#E9E9EA" d="M-664.525,265.752h2.438c5.94,0,10.8,4.86,10.8,10.8v32.733c0,5.939-4.859,10.8-10.8,10.8h-2.438V265.752z
			"/>
		<path fill="#E9E9EA" d="M-743.433,265.752h-2.438c-5.94,0-10.801,4.86-10.801,10.8v32.733c0,5.939,4.86,10.8,10.801,10.8h2.438
			V265.752z"/>
		<path fill="#604E75" d="M-662.088,265.752h-2.438h-78.907h-2.438c-5.94,0-10.801,4.86-10.801,10.8v5.699h13.238v54.5h78.907v-54.5
			h13.237v-5.699C-651.288,270.613-656.147,265.752-662.088,265.752z"/>
		<polygon fill="#5B5C5C" points="-743.433,336.751 -743.433,353.418 -743.433,393.085 -714.644,393.085 -714.644,353.418 
			-693.315,353.418 -693.315,393.085 -664.525,393.085 -664.525,353.418 -664.525,336.751 		"/>
		<path d="M-729.038,407.48c7.949,0,14.395-6.444,14.395-14.395h-28.789C-743.433,401.036-736.988,407.48-729.038,407.48z"/>
		<path d="M-678.921,407.48c7.951,0,14.396-6.444,14.396-14.395h-28.79C-693.315,401.036-686.87,407.48-678.921,407.48z"/>
		<path fill="#5B5C5C" d="M-729.038,378.691c-7.95,0-14.395,6.444-14.395,14.395h28.789
			C-714.644,385.135-721.089,378.691-729.038,378.691z"/>
		<path fill="#5B5C5C" d="M-678.921,378.691c-7.949,0-14.395,6.444-14.395,14.395h28.79
			C-664.525,385.135-670.97,378.691-678.921,378.691z"/>
		<g>
			<g>
				<path fill="#B69FCC" d="M-722.936,284.614c0.692-0.213,1.112-0.066,1.253,0.42c1.805,6.228,2.706,9.34,4.51,15.567
					c0.134,0.462-0.042,0.803-0.545,0.958c-1.107,0.341-1.657,0.527-2.747,0.938c-0.471,0.178-0.845,0.029-1.022-0.418
					c-2.387-6.029-3.579-9.044-5.967-15.073c-0.187-0.472,0.093-0.854,0.74-1.098C-725.213,285.343-724.458,285.083-722.936,284.614
					z"/>
				<path fill="#B69FCC" d="M-713.597,282.478c0.71-0.108,1.1,0.096,1.168,0.598c0.533,3.936,0.799,5.906,1.332,9.842
					c0.262,1.934,0.558,3.05,2.637,2.86s2.167-1.344,2.074-3.293c-0.188-3.967-0.282-5.953-0.47-9.92
					c-0.024-0.506,0.357-0.776,1.037-0.798c1.604-0.05,2.407-0.05,4.01,0c0.715,0.022,1.061,0.294,1.037,0.8
					c-0.214,4.504-0.321,6.754-0.534,11.258c-0.079,1.67-0.668,5.736-6.759,6.291c-6.091,0.555-7.426-3.33-7.807-4.958
					c-1.027-4.39-1.541-6.584-2.567-10.974c-0.115-0.493,0.212-0.833,0.881-0.978C-715.98,282.866-715.187,282.72-713.597,282.478z"
					/>
				<path fill="#B69FCC" d="M-688.522,283.56c6.239,1.512,7.922,4.529,6.393,8.392s-4.181,4.655-9.253,3.426
					c-0.547-0.133-0.822-0.194-1.372-0.313c-0.543-0.116-0.907,0.072-1.005,0.569c-0.313,1.591-0.471,2.386-0.784,3.977
					c-0.098,0.497-0.401,0.695-0.917,0.603c-1.153-0.207-1.733-0.296-2.893-0.431c-0.492-0.058-0.75-0.36-0.702-0.84
					c0.641-6.443,0.961-9.663,1.604-16.106c0.05-0.504,0.431-0.724,1.147-0.666C-693.169,282.535-691.606,282.813-688.522,283.56z
					 M-690.172,291.189c1.479,0.363,2.252,0.444,2.687-1.064s-0.297-1.895-1.865-2.28c-0.706-0.174-1.061-0.256-1.771-0.408
					c-0.624-0.134-1.034,0.048-1.131,0.545c-0.149,0.756-0.224,1.131-0.373,1.887c-0.093,0.473,0.195,0.813,0.784,0.938
					C-691.172,290.95-690.838,291.025-690.172,291.189z"/>
			</g>
		</g>
	</g>
	<g>
		<path fill="#E9E9EA" d="M-626.944,201.121c-0.893,0-1.756,0.118-2.586,0.318c-8.77-28.624-38.908-49.726-74.753-49.726
			s-65.983,21.102-74.753,49.726c-0.83-0.2-1.693-0.318-2.586-0.318c-6.074,0-11,4.925-11,11s4.926,11,11,11
			c0.068,0,0.133-0.009,0.199-0.011c2.715,33.829,36.201,49.417,77.14,49.417c40.938,0,74.425-15.588,77.14-49.417
			c0.066,0.002,0.131,0.011,0.199,0.011c6.074,0,11-4.925,11-11S-620.87,201.121-626.944,201.121z"/>
		<path fill="none" stroke="#000000" stroke-width="3" stroke-linecap="round" stroke-miterlimit="10" d="M-704.283,203.756
			c0,0,0.812,8.268,4.312,12.572l-4.312,3.555"/>
		<path fill="none" stroke="#000000" stroke-width="3" stroke-linecap="round" stroke-miterlimit="10" d="M-716.552,226.591
			c0,5.106,3.842,12.917,12.318,12.917s12.827-6.482,12.827-12.827"/>
		<path fill="#604E75" d="M-753.614,280.83c4.591-11.506-4.857-20.418-10.387-24.648c-8.191-6.268-23.824-30.232-15.473-54.742
			c9.243-27.128,42.665-37.013,55.192-37.99c21.372-1.667,36.333,12.333,44.315,0s-16.982-23.333-16.982-23.333
			c-30-9.668-56.885,2.333-74.627,17.333c-26.868,22.716-31.902,63.65-14.373,98c5.55,10.875,8.467,16.334-1.2,21.167
			c0,0-5.5,3.833-7.5,0.667c0,0-0.167,4.333,7,5c0,0-1.333,3.05-4.333,2.107c0,0,3.812,1.742,6.771,0.434
			c0,0-0.375,1.813-2.75,1.875C-790.547,286.767-760.347,297.703-753.614,280.83z"/>
		<path fill="#604E75" d="M-653.761,284.116c-10.229-10.833-3.265-19.167,1.801-23.315c9.908-8.114,33.218-30.908,22.365-59.361
			c-9.969-26.136-31.093-24.86-41.511-29.657c-10.137-4.666-17.804-17.666-17.804-17.666c13.667-14.666,39.161-6.734,62,15
			c22.223,21.148,20.735,67.705,6,91.667c-5.739,9.333-2.333,15.333,8,17c0,0,5.095,1.76,7.095-0.537s-1.333,4.37-5.5,4.37
			s-1.499,1.499,2.167,1.833c0,0-2.927,1.5-6.797,1.334c0,0-1.037,0.666,0.963,1.5
			C-614.981,286.283-644.546,293.875-653.761,284.116z"/>
		<path fill="#E9E9EA" d="M-627.144,223.11c0.066,0.002,0.131,0.01,0.199,0.01c6.074,0,11-4.925,11-11c0-6.074-4.926-11-11-11
			c-0.893,0-1.756,0.118-2.586,0.318l-5.525,12.451L-627.144,223.11z"/>
		<path fill="#E9E9EA" d="M-781.422,223.11c-0.066,0.002-0.131,0.01-0.199,0.01c-6.074,0-11-4.925-11-11c0-6.074,4.926-11,11-11
			c0.893,0,1.756,0.118,2.586,0.318l5.525,12.451L-781.422,223.11z"/>
		<circle fill="#C4C4C3" cx="-750.15" cy="235.487" r="9.595"/>
		<circle fill="#C4C4C3" cx="-657.906" cy="235.487" r="9.595"/>
		<path fill="none" stroke="#000000" stroke-width="3" stroke-linecap="round" stroke-miterlimit="10" d="M-757.156,204.542
			c0,2.075,1.561,5.25,5.006,5.25s5.214-2.635,5.214-5.213"/>
		<path fill="none" stroke="#000000" stroke-width="3" stroke-linecap="round" stroke-miterlimit="10" d="M-752.046,199.752
			c0,2.075,1.561,5.25,5.006,5.25c1.54,0,2.744-0.526,3.605-1.338"/>
		<path fill="none" stroke="#000000" stroke-width="3" stroke-linecap="round" stroke-miterlimit="10" d="M-652.131,199.752
			c0,2.075-1.561,5.25-5.006,5.25c-1.539,0-2.744-0.526-3.605-1.338"/>
		<path fill="none" stroke="#000000" stroke-width="3" stroke-linecap="round" stroke-miterlimit="10" d="M-657.318,204.542
			c0,2.075,1.561,5.25,5.006,5.25s5.214-2.635,5.214-5.213"/>
		<g>
			<circle cx="-742.437" cy="207.267" r="7.5"/>
			<circle fill="#FFFFFF" cx="-744.931" cy="205.224" r="3.03"/>
		</g>
		<g>
			<circle cx="-661.937" cy="207.267" r="7.5"/>
			<circle fill="#FFFFFF" cx="-664.431" cy="205.224" r="3.03"/>
		</g>
	</g>
</g>
<g>
	<g>
		<path fill="#E9E9EA" d="M130.87,147.968h2.438c5.94,0,10.801,4.86,10.801,10.8v32.733c0,5.939-4.86,10.8-10.801,10.8h-2.438
			V147.968z"/>
		<path fill="#E9E9EA" d="M51.963,147.968h-2.438c-5.939,0-10.8,4.86-10.8,10.8v32.733c0,5.939,4.86,10.8,10.8,10.8h2.438V147.968z"
			/>
		<path fill="#5B5C5C" d="M133.308,147.968h-2.438H51.963h-2.438c-5.939,0-10.8,4.86-10.8,10.8v5.699h13.237v54.5h78.907v-54.5
			h13.238v-5.699C144.108,152.829,139.248,147.968,133.308,147.968z"/>
		<polygon fill="#604E75" points="51.963,218.967 51.963,235.634 51.963,275.301 80.753,275.301 80.753,235.634 102.081,235.634 
			102.081,275.301 130.87,275.301 130.87,235.634 130.87,218.967 		"/>
		<path d="M66.357,289.696c7.95,0,14.396-6.444,14.396-14.395h-28.79C51.963,283.251,58.408,289.696,66.357,289.696z"/>
		<path d="M116.476,289.696c7.95,0,14.395-6.444,14.395-14.395h-28.789C102.081,283.251,108.526,289.696,116.476,289.696z"/>
		<path fill="#604E75" d="M66.357,260.907c-7.949,0-14.395,6.444-14.395,14.395h28.79C80.753,267.351,74.308,260.907,66.357,260.907
			z"/>
		<path fill="#604E75" d="M116.476,260.907c-7.949,0-14.395,6.444-14.395,14.395h28.789
			C130.87,267.351,124.426,260.907,116.476,260.907z"/>
		<g>
			<g>
				<path fill="#E9E9EA" d="M58.077,170.05c1.461-0.578,2.197-0.851,3.675-1.364c0.197,0.567,0.295,0.85,0.492,1.417
					c-0.319,0.111-0.479,0.167-0.797,0.281c0.727,2.033,1.089,3.049,1.816,5.082c0.299-0.107,0.45-0.158,0.75-0.263
					c0.195,0.562,0.292,0.842,0.487,1.403c-1.343,0.466-2.011,0.715-3.338,1.24c-0.219-0.553-0.329-0.83-0.548-1.383
					c0.296-0.117,0.446-0.175,0.743-0.289c-0.776-2.015-1.163-3.022-1.938-5.037c-0.316,0.122-0.475,0.183-0.79,0.308
					C58.408,170.887,58.297,170.608,58.077,170.05z"/>
				<path fill="#E9E9EA" d="M69.729,166.294c1.383-0.343,2.078-0.5,3.471-0.789c0.122,0.587,0.182,0.88,0.304,1.468
					c-0.328,0.068-0.491,0.103-0.819,0.173c0.585,2.701,0.875,4.051,1.46,6.752c-0.48,0.104-0.719,0.157-1.198,0.269
					c-2.036-1.685-3.1-2.497-5.317-4.052c0.41,1.444,0.613,2.166,1.022,3.61c0.157-0.045,0.919-0.255,0.919-0.255
					c0.157,0.579,0.235,0.868,0.393,1.447c-1.25,0.34-1.873,0.521-3.112,0.91c-0.18-0.572-0.27-0.857-0.45-1.43
					c0.36-0.113,0.541-0.168,0.902-0.276c-0.625-2.071-0.937-3.108-1.562-5.18c-0.384,0.116-0.576,0.176-0.959,0.296
					c-0.18-0.572-0.27-0.859-0.449-1.432c1.163-0.365,1.746-0.538,2.917-0.863c1.862,1.35,2.763,2.05,4.5,3.488
					c-0.275-1.167-0.413-1.75-0.688-2.917c-0.389,0.092-0.583,0.139-0.972,0.235C69.946,167.167,69.873,166.876,69.729,166.294z"/>
				<path fill="#E9E9EA" d="M84.555,168.104c0.198,2.402-1.544,4.33-3.814,4.632c-1.451,0.193-2.176,0.305-3.619,0.563
					c-0.106-0.596-0.158-0.893-0.265-1.487c0.295-0.053,0.442-0.078,0.738-0.128c-0.359-2.119-0.539-3.178-0.898-5.298
					c-0.314,0.053-0.47,0.08-0.784,0.136c-0.107-0.6-0.161-0.898-0.268-1.498c1.59-0.284,2.386-0.408,3.984-0.621
					C82.316,164.045,84.357,165.703,84.555,168.104z M79.614,171.365c0.257-0.037,0.387-0.055,0.644-0.09
					c1.84-0.251,2.342-1.637,2.199-2.973c-0.144-1.347-1.153-2.593-2.927-2.351c-0.273,0.037-0.41,0.057-0.683,0.096
					C79.155,168.175,79.306,169.238,79.614,171.365z"/>
				<path fill="#E9E9EA" d="M86.109,163.808c1.542-0.094,2.313-0.124,3.857-0.153c0.011,0.6,0.018,0.899,0.029,1.5
					c-0.333,0.006-0.5,0.01-0.833,0.019c0.061,2.158,0.09,3.237,0.151,5.395c0.313-0.009,0.469-0.013,0.782-0.019
					c0.011,0.595,0.018,0.892,0.029,1.486c-1.401,0.026-2.103,0.055-3.502,0.141c-0.036-0.594-0.055-0.89-0.091-1.483
					c0.313-0.019,0.47-0.029,0.783-0.045c-0.112-2.155-0.167-3.233-0.279-5.389c-0.333,0.017-0.5,0.026-0.833,0.047
					C86.165,164.707,86.146,164.407,86.109,163.808z"/>
				<path fill="#E9E9EA" d="M97.897,163.837c0,0,2.487,6.832,2.619,7.136c0.372,0.039,0.557,0.06,0.928,0.103
					c-0.069,0.596-0.104,0.892-0.173,1.487c-1.399-0.162-2.101-0.229-3.505-0.332c0.043-0.593,0.064-0.888,0.108-1.481
					c0.184,0.014,0.276,0.021,0.46,0.035c-0.125-0.311-0.226-0.619-0.366-0.943c-0.993-0.073-1.492-0.104-2.486-0.147
					c-0.157,0.358-0.234,0.539-0.388,0.897c0.184,0.007,0.275,0.011,0.459,0.019c-0.027,0.594-0.04,0.891-0.067,1.485
					c-1.215-0.056-1.823-0.073-3.04-0.084c0.005-0.6,0.008-0.897,0.013-1.497c0.373,0.003,0.559,0.005,0.932,0.013
					c0.316-0.895,3.296-6.764,3.296-6.764c0.494,0.027,0.741,0.042,1.235,0.076C97.913,163.839,97.908,163.838,97.897,163.837z
					 M97.515,168.308c-0.256-0.686-0.387-1.029-0.655-1.712c-0.325,0.649-0.486,0.975-0.8,1.626
					C96.642,168.251,96.933,168.269,97.515,168.308z"/>
				<path fill="#E9E9EA" d="M109.999,165.466c1.393,0.285,2.088,0.44,3.472,0.78c-0.143,0.583-0.217,0.874-0.359,1.457
					c-0.326-0.08-0.487-0.119-0.814-0.196c-0.634,2.689-0.952,4.035-1.586,6.725c-0.479-0.112-0.718-0.167-1.197-0.272
					c-1.113-2.396-1.721-3.587-3.044-5.943c-0.251,1.48-0.378,2.22-0.63,3.701c0.16,0.027,0.934,0.164,0.934,0.164
					c-0.107,0.59-0.158,0.884-0.266,1.474c-1.269-0.23-1.905-0.333-3.181-0.514c0.084-0.594,0.124-0.89,0.208-1.483
					c0.37,0.052,0.558,0.081,0.928,0.137c0.327-2.139,0.491-3.209,0.818-5.348c-0.394-0.06-0.593-0.089-0.986-0.145
					c0.084-0.594,0.128-0.891,0.212-1.484c1.196,0.169,1.795,0.264,2.986,0.473c1.093,2.019,1.599,3.037,2.546,5.082
					c0.253-1.172,0.383-1.758,0.637-2.93c-0.391-0.084-0.586-0.126-0.978-0.206C109.818,166.348,109.879,166.054,109.999,165.466z"
					/>
				<path fill="#E9E9EA" d="M121.163,168.511c0,0,0.683,7.258,0.733,7.586c0.354,0.136,0.531,0.205,0.885,0.345
					c-0.221,0.558-0.332,0.834-0.553,1.392c-1.332-0.527-2.002-0.773-3.35-1.241c0.195-0.563,0.291-0.844,0.486-1.406
					c0.177,0.062,0.265,0.092,0.44,0.154c-0.042-0.333-0.062-0.656-0.115-1.006c-0.953-0.331-1.433-0.491-2.394-0.793
					c-0.245,0.306-0.368,0.459-0.61,0.766c0.178,0.055,0.266,0.084,0.443,0.14c-0.18,0.567-0.269,0.85-0.448,1.417
					c-1.173-0.371-1.76-0.545-2.943-0.871c0.159-0.578,0.239-0.867,0.398-1.445c0.363,0.1,0.543,0.152,0.905,0.257
					c0.539-0.782,4.958-5.681,4.958-5.681c0.477,0.155,0.714,0.235,1.188,0.397C121.178,168.517,121.174,168.515,121.163,168.511z
					 M119.64,172.732c-0.075-0.729-0.114-1.095-0.201-1.826c-0.485,0.542-0.725,0.814-1.199,1.362
					C118.801,172.449,119.08,172.542,119.64,172.732z"/>
			</g>
		</g>
	</g>
	<g>
		<path fill="#E9E9EA" d="M168.442,84.336c-0.893,0-1.756,0.118-2.586,0.318c-8.77-28.624-38.908-49.725-74.753-49.725
			c-35.846,0-65.984,21.101-74.752,49.725c-0.831-0.201-1.693-0.318-2.586-0.318c-6.076,0-11,4.925-11,11c0,6.075,4.924,11,11,11
			c0.066,0,0.132-0.009,0.199-0.01c2.713,33.829,36.201,49.417,77.139,49.417s74.425-15.588,77.14-49.417
			c0.066,0.001,0.131,0.01,0.199,0.01c6.074,0,11-4.925,11-11C179.442,89.261,174.517,84.336,168.442,84.336z"/>
		<g>
			<circle cx="50.361" cy="92.044" r="7.5"/>
			<circle fill="#FFFFFF" cx="47.867" cy="90.001" r="3.029"/>
		</g>
		<g>
			<circle cx="130.861" cy="92.044" r="7.5"/>
			<circle fill="#FFFFFF" cx="128.367" cy="90.001" r="3.03"/>
		</g>
		<path fill="none" stroke="#000000" stroke-width="3" stroke-linecap="round" stroke-miterlimit="10" d="M91.104,86.972
			c0,0,0.812,8.268,4.312,12.573l-4.312,3.555"/>
		<path fill="none" stroke="#000000" stroke-width="3" stroke-linecap="round" stroke-miterlimit="10" d="M78.835,109.807
			c0,5.106,3.842,12.917,12.318,12.917s12.827-6.482,12.827-12.827"/>
		<path fill="#B69FCC" d="M142.918,46.601L142.918,46.601C142.918,46.601,142.918,46.6,142.918,46.601
			c-1.28-0.946-2.444-1.776-3.42-2.501c-1.853-1.379-4.369-2.847-7.429-4.276c-16.112-12.402-23.727-29.564-23.727-29.564
			c-3,9.667-8.751,6.667-8.751,6.667c-2.751-1-3.083-6-3.083-6c-0.5,3.5-4,6.5-6.666,4.167c-2.667-2.333-4-11.5-4-11.5
			s-1.5,18-8.334,16.833c-6.833-1.167-6.166-5.167-6.166-5.167c-0.968,10.89-16.194,21.368-24.47,26.295
			c-1.881,0.93-3.637,1.909-5.25,2.928c-0.002,0-0.012,0.005-0.012,0.005h0.002c-2.631,1.663-4.881,3.431-6.615,5.279
			C24.674,60.767,15.871,75.544,16.352,84.655c0,0,2.813,3.335,2.813,7.39h5.5c0,0,0.5-26.445,16-36.445
			c0,0,25.348-10.674,48.515-9.841c23.166,0.833,50.819,8.674,50.819,8.674c19.667,12.667,17.667,37.612,17.667,37.612h5.332
			c0.166-4.055,2.859-7.39,2.859-7.39C164.061,63.468,151.049,52.605,142.918,46.601z"/>
	</g>
</g>
<g>
	<g>
		<path fill="#E9E9EA" d="M-887.217,265.752h2.438c5.939,0,10.8,4.86,10.8,10.8v32.733c0,5.939-4.86,10.8-10.8,10.8h-2.438V265.752z
			"/>
		<path fill="#E9E9EA" d="M-966.125,265.752h-2.438c-5.94,0-10.8,4.86-10.8,10.8v32.733c0,5.939,4.859,10.8,10.8,10.8h2.438V265.752
			z"/>
		<path fill="#B69FCC" d="M-884.779,265.752h-2.438h-78.908h-2.438c-5.94,0-10.8,4.86-10.8,10.8v5.699h13.237v54.5h78.908v-54.5
			h13.237v-5.699C-873.979,270.613-878.84,265.752-884.779,265.752z"/>
		<polygon fill="#C4C4C3" points="-966.125,336.751 -966.125,353.418 -966.125,393.085 -937.335,393.085 -937.335,353.418 
			-916.007,353.418 -916.007,393.085 -887.217,393.085 -887.217,353.418 -887.217,336.751 		"/>
		<path d="M-951.73,407.48c7.95,0,14.396-6.444,14.396-14.395h-28.79C-966.125,401.036-959.681,407.48-951.73,407.48z"/>
		<path d="M-901.612,407.48c7.95,0,14.396-6.444,14.396-14.395h-28.79C-916.007,401.036-909.562,407.48-901.612,407.48z"/>
		<path fill="#C4C4C3" d="M-951.73,378.691c-7.95,0-14.395,6.444-14.395,14.395h28.79
			C-937.335,385.135-943.78,378.691-951.73,378.691z"/>
		<path fill="#C4C4C3" d="M-901.612,378.691c-7.949,0-14.395,6.444-14.395,14.395h28.79
			C-887.217,385.135-893.662,378.691-901.612,378.691z"/>
		<g>
			<g>
				<path fill="#5B5C5C" d="M-952.825,289.978c0.005,1.075-0.328,2.528-2.474,3.264c-2.124,0.728-4.295-0.307-5.158-2.483
					c-0.926-2.339,0.15-4.517,2.485-5.316c0.799-0.273,1.464-0.331,1.833-0.279c-0.054-0.168-0.081-0.252-0.135-0.42
					c0.628-0.201,0.943-0.298,1.574-0.487c0.373,1.24,0.559,1.859,0.932,3.099c-0.608,0.183-0.912,0.276-1.518,0.471
					c-0.055-0.172-0.083-0.257-0.138-0.429c-0.177-0.552-0.979-0.921-2.067-0.548c-0.762,0.261-1.617,1.201-0.91,3.127
					c0.659,1.795,1.907,2.118,2.624,1.873c1.172-0.401,1.433-1.561,1.387-1.704C-953.764,290.071-953.449,290.039-952.825,289.978z"
					/>
				<path fill="#5B5C5C" d="M-943.529,288.61c0.104,0.575,0.155,0.86,0.26,1.436c-0.802,0.146-1.202,0.223-2.001,0.389
					c-0.327-0.074-1.008-0.378-1.226-1.375c-0.124-0.566-0.823-1.606-2.049-1.469c0.189,0.789,0.285,1.186,0.474,1.976
					c0.297-0.071,0.446-0.109,0.744-0.178c0.131,0.569,0.197,0.855,0.328,1.425c-1.323,0.304-1.983,0.469-3.295,0.827
					c-0.154-0.563-0.231-0.844-0.385-1.407c0.347-0.095,0.521-0.142,0.869-0.232c-0.53-2.023-0.797-3.035-1.327-5.059
					c-0.369,0.097-0.552,0.146-0.92,0.246c-0.153-0.56-0.229-0.841-0.381-1.4c1.506-0.412,2.261-0.601,3.779-0.946
					c2.023-0.461,2.908,0.712,3.107,1.725c0.168,0.854-0.406,1.816-0.383,1.992c0.032,0.243,1.002,1.147,1.168,1.989
					c0.056,0.284,0.36,0.227,0.36,0.227C-944.059,288.707-943.881,288.674-943.529,288.61z M-948.266,286.037
					c0.715-0.166,0.962-0.657,0.868-1.088s-0.498-0.795-1.104-0.655c-0.316,0.073-0.474,0.109-0.79,0.186
					c0.163,0.681,0.244,1.021,0.407,1.701C-948.637,286.122-948.513,286.094-948.266,286.037z"/>
				<path fill="#5B5C5C" d="M-942.307,281.666c1.458-0.225,2.188-0.323,3.651-0.489c0.065,0.576,0.096,0.866,0.162,1.442
					c-0.316,0.036-0.474,0.051-0.79,0.09c0.253,2.072,0.381,3.108,0.635,5.18c0.297-0.036,0.445-0.054,0.743-0.088
					c0.065,0.571,0.097,0.857,0.162,1.429c-1.333,0.151-1.998,0.24-3.326,0.445c-0.088-0.568-0.131-0.851-0.219-1.419
					c0.297-0.046,0.445-0.069,0.742-0.112c-0.3-2.065-0.451-3.099-0.751-5.164c-0.315,0.046-0.473,0.069-0.788,0.118
					C-942.175,282.524-942.219,282.239-942.307,281.666z"/>
				<path fill="#5B5C5C" d="M-927.62,280.576c1.024,0.009,1.536,0.021,2.561,0.059c-0.021,0.579-0.031,0.869-0.053,1.448
					c-0.378-0.014-0.567-0.021-0.946-0.031c-0.055,2.092-0.082,3.138-0.136,5.229c0.356,0.009,0.535,0.017,0.891,0.029
					c-0.021,0.579-0.031,0.867-0.053,1.446c-1.339-0.049-2.008-0.06-3.348-0.055c-0.002-0.58-0.004-0.868-0.006-1.448
					c0.233-0.001,0.35-0.001,0.583,0c0.003-1.049,0.004-1.574,0.007-2.622c-0.798,1.625-1.178,2.443-1.902,4.086
					c-0.354,0.007-0.533,0.011-0.887,0.021c0,0-1.74-2.984-2.417-4.097c0.062,1.098,0.094,1.648,0.156,2.746
					c0.237-0.014,0.354-0.02,0.591-0.031c0.029,0.579,0.042,0.867,0.071,1.446c-1.166,0.058-1.747,0.097-2.91,0.195
					c-0.049-0.577-0.073-0.866-0.123-1.444c0.36-0.03,0.54-0.044,0.899-0.07c-0.155-2.087-0.231-3.129-0.386-5.216
					c-0.382,0.028-0.575,0.044-0.957,0.076c-0.049-0.578-0.072-0.866-0.122-1.444c0.96-0.082,1.442-0.116,2.404-0.172
					c1.404,2.069,2.069,3.118,3.323,5.237C-929.343,283.792-928.791,282.713-927.62,280.576z"/>
				<path fill="#5B5C5C" d="M-916.291,287.245c-0.329,2.295-2.646,1.993-3.378,1.916c-0.731-0.077-1.565-0.441-1.824-1.045
					c-0.029,0.347-0.042,0.521-0.071,0.867c-0.582-0.048-0.873-0.069-1.455-0.107c0.086-1.333,0.129-1.999,0.216-3.332
					c0.605,0.039,0.909,0.063,1.514,0.113c-0.024,0.291-0.037,0.437-0.061,0.728c-0.048,0.578,0.652,1.216,1.539,1.307
					c0.745,0.076,1.655-0.121,1.707-0.548c0.088-0.726-0.487-0.963-1.804-1.502c-1.006-0.412-2.678-0.955-2.572-2.552
					c0.086-1.295,1.588-2.237,3.349-2.058c1.123,0.115,1.542,0.615,1.64,1.071c0.042-0.35,0.064-0.526,0.107-0.876
					c0.642,0.078,0.962,0.118,1.603,0.208c-0.153,1.094-0.228,1.644-0.381,2.736c-0.622-0.087-0.934-0.125-1.556-0.201
					c0.007-0.056,0.011-0.085,0.018-0.141c0.052-0.426-0.323-1.217-1.579-1.345c-0.477-0.049-1.13,0.184-1.17,0.623
					c-0.038,0.427,0.438,0.637,1.464,1.021C-917.82,284.565-916.001,285.224-916.291,287.245z"/>
				<path fill="#5B5C5C" d="M-906.103,287.555c-0.795,3.004-3.098,3.481-4.874,3.1c-1.901-0.408-3.645-1.896-3.158-4.824
					c0.465-2.803,2.817-3.775,4.91-3.326C-907.27,282.924-905.336,284.663-906.103,287.555z M-908.242,287.018
					c0.381-1.602-0.181-2.813-1.297-3.053c-1.265-0.271-2.257,0.609-2.565,2.227c-0.304,1.594,0.25,2.756,1.439,3.012
					C-909.616,289.429-908.618,288.597-908.242,287.018z"/>
				<path fill="#5B5C5C" d="M-898.039,285.775c1.289,0.455,1.932,0.694,3.208,1.199c-0.213,0.539-0.32,0.809-0.534,1.348
					c-0.3-0.119-0.451-0.178-0.752-0.294c-0.961,2.494-1.442,3.739-2.403,6.231c-0.443-0.171-0.665-0.254-1.109-0.418
					c-0.746-2.441-1.168-3.66-2.111-6.091c-0.439,1.384-0.659,2.076-1.098,3.46c0.149,0.047,0.869,0.28,0.869,0.28
					c-0.181,0.551-0.272,0.825-0.454,1.376c-1.181-0.389-1.773-0.573-2.964-0.917c0.161-0.557,0.241-0.834,0.401-1.391
					c0.346,0.1,0.518,0.151,0.863,0.255c0.601-2.004,0.901-3.007,1.502-5.011c-0.366-0.109-0.549-0.164-0.916-0.27
					c0.161-0.558,0.241-0.833,0.401-1.391c1.113,0.321,1.668,0.488,2.774,0.846c0.768,2.077,1.118,3.118,1.75,5.2
					c0.398-1.089,0.597-1.633,0.995-2.723c-0.361-0.132-0.543-0.198-0.905-0.326C-898.328,286.593-898.231,286.322-898.039,285.775z
					"/>
			</g>
		</g>
		<g>
			<g>
				<path fill="#5B5C5C" d="M-948.493,303.135c1.414,0.45,2.125,0.654,3.555,1.025c-0.15,0.58-0.226,0.872-0.376,1.452
					c-0.307-0.079-0.46-0.118-0.767-0.201c-0.565,2.084-0.848,3.123-1.413,5.207c0.331,0.09,0.496,0.136,0.827,0.222
					c-0.15,0.581-0.226,0.87-0.376,1.451c-1.608-0.417-2.409-0.648-3.998-1.154c0.182-0.571,0.273-0.857,0.455-1.429
					c0.395,0.126,0.594,0.187,0.99,0.307c0.244-0.804,0.363-1.204,0.606-2.008c-1.149-0.349-1.721-0.534-2.858-0.932
					c-0.277,0.793-0.415,1.188-0.691,1.98c0.392,0.137,0.587,0.206,0.981,0.337c-0.189,0.569-0.284,0.851-0.474,1.42
					c-1.583-0.528-2.371-0.814-3.931-1.432c0.221-0.558,0.333-0.836,0.553-1.394c0.321,0.127,0.481,0.19,0.804,0.313
					c0.771-2.017,1.157-3.023,1.928-5.04c-0.299-0.114-0.448-0.174-0.746-0.292c0.221-0.558,0.331-0.837,0.551-1.395
					c1.388,0.55,2.087,0.804,3.496,1.273c-0.189,0.569-0.284,0.854-0.474,1.423c-0.365-0.122-0.547-0.183-0.911-0.31
					c-0.237,0.68-0.354,1.02-0.592,1.699c1.114,0.389,1.673,0.569,2.798,0.91c0.209-0.688,0.314-1.031,0.523-1.72
					c-0.367-0.111-0.551-0.168-0.917-0.284C-948.765,303.996-948.674,303.707-948.493,303.135z"/>
				<path fill="#5B5C5C" d="M-937.835,305.602c0,0,2.185,6.918,2.33,7.223c0.402,0.041,0.602,0.061,1.004,0.096
					c-0.053,0.598-0.079,0.897-0.131,1.495c-1.577-0.139-2.363-0.229-3.933-0.45c0.083-0.589,0.123-0.884,0.206-1.473
					c0.198,0.027,0.297,0.042,0.495,0.068c-0.121-0.318-0.213-0.633-0.341-0.967c-1.045-0.146-1.566-0.229-2.607-0.414
					c-0.211,0.333-0.319,0.497-0.533,0.829c0.197,0.036,0.296,0.055,0.493,0.089c-0.103,0.586-0.153,0.881-0.256,1.467
					c-1.353-0.237-2.027-0.371-3.37-0.67c0.13-0.585,0.194-0.879,0.325-1.464c0.396,0.088,0.595,0.132,0.993,0.215
					c0.501-0.815,4.236-6.215,4.236-6.215c0.445,0.073,0.668,0.106,1.114,0.172C-937.821,305.602-937.826,305.603-937.835,305.602z
					 M-938.566,310.027c-0.207-0.705-0.306-1.057-0.499-1.763c-0.382,0.614-0.578,0.919-0.973,1.528
					C-939.449,309.892-939.155,309.94-938.566,310.027z"/>
				<path fill="#5B5C5C" d="M-925.534,306.265c1.221-0.045,1.831-0.08,3.049-0.18c0.049,0.603,0.074,0.902,0.123,1.505
					c-0.314,0.025-0.472,0.04-0.786,0.063c-0.149,0.011-0.14,0.139-0.14,0.139c-0.755,2.768-1.179,4.148-2.119,6.894
					c-0.555,0.019-0.832,0.026-1.387,0.035c-0.648-1.736-0.955-2.608-1.532-4.356c-0.655,1.743-1.003,2.609-1.736,4.337
					c-0.483-0.013-0.725-0.022-1.208-0.043c-0.847-2.683-1.229-4.031-1.907-6.732c0.013-0.167-0.126-0.309-0.288-0.321
					c-0.314-0.025-0.471-0.038-0.785-0.066c0.055-0.602,0.082-0.905,0.137-1.507c1.466,0.133,2.201,0.181,3.671,0.234
					c-0.022,0.604-0.033,0.907-0.055,1.511c-0.25-0.009-0.374-0.014-0.623-0.025c0.32,1.215,0.487,1.82,0.84,3.032
					c0.714-1.782,1.049-2.677,1.681-4.475c0.425,0.004,0.639,0.003,1.063,0c0.627,1.8,0.961,2.696,1.671,4.48
					c0.355-1.211,0.525-1.815,0.848-3.03c-0.185,0.008-0.276,0.009-0.461,0.016C-925.5,307.17-925.512,306.869-925.534,306.265z"/>
				<path fill="#5B5C5C" d="M-910.891,311.239c0.333-0.078,0.5-0.119,0.832-0.201c0.143,0.577,0.215,0.866,0.358,1.443
					c-1.611,0.399-2.422,0.578-4.048,0.889c-0.111-0.584-0.167-0.879-0.278-1.463c-1.127-0.825-1.675-1.246-2.742-2.112
					c0.16,1.01,0.239,1.515,0.398,2.524c0.336-0.053,0.505-0.083,0.841-0.14c0.1,0.587,0.148,0.88,0.248,1.467
					c-1.56,0.265-2.343,0.378-3.911,0.561c-0.069-0.591-0.103-0.889-0.172-1.479c0.338-0.039,0.505-0.059,0.843-0.102
					c-0.275-2.151-0.412-3.225-0.688-5.375c-0.313,0.04-0.47,0.06-0.783,0.096c-0.069-0.591-0.103-0.889-0.172-1.479
					c1.395-0.162,2.091-0.262,3.479-0.497c0.1,0.587,0.149,0.879,0.249,1.466c-0.312,0.053-0.466,0.079-0.778,0.128
					c0.084,0.535,0.126,0.805,0.211,1.34c0.842-0.856,1.25-1.292,2.04-2.173c-0.08-0.415-0.121-0.621-0.201-1.036
					c1.205-0.233,1.806-0.365,3.001-0.653c0.139,0.578,0.209,0.87,0.349,1.448c-0.372,0.09-0.559,0.135-0.931,0.219
					c-0.221,0.05-0.331,0.221-0.662,0.621c-0.242,0.292-1.032,1.281-1.584,1.836c1.238,0.989,1.877,1.471,3.196,2.404
					C-911.535,311.157-911.221,311.317-910.891,311.239z"/>
				<path fill="#5B5C5C" d="M-900.909,307.153c0.883,2.23-1.729,3.215-2.56,3.498c-0.83,0.283-1.902,0.308-2.42-0.16
					c0.106,0.344,0.16,0.515,0.266,0.858c-0.664,0.204-0.997,0.303-1.664,0.491c-0.376-1.329-0.564-1.993-0.941-3.322
					c0.637-0.181,0.953-0.274,1.586-0.47c0.089,0.289,0.134,0.433,0.223,0.722c0.177,0.573,1.173,0.895,2.143,0.569
					c0.814-0.273,1.659-0.908,1.507-1.326c-0.259-0.71-0.948-0.622-2.49-0.556c-1.179,0.051-3.052,0.147-3.506-1.444
					c-0.369-1.291,0.667-2.688,2.286-3.232c1.032-0.347,1.615-0.081,1.913,0.296c-0.125-0.343-0.188-0.514-0.312-0.856
					c0.587-0.214,0.88-0.325,1.464-0.553c0.416,1.063,0.623,1.596,1.038,2.659c-0.608,0.237-0.913,0.353-1.525,0.575
					c-0.02-0.055-0.03-0.079-0.05-0.134c-0.152-0.417-0.848-0.956-2.046-0.554c-0.456,0.153-0.966,0.63-0.828,1.064
					c0.134,0.423,0.667,0.442,1.809,0.349C-903.72,305.52-901.687,305.19-900.909,307.153z"/>
			</g>
		</g>
	</g>
	<g>
		<path fill="#E9E9EA" d="M-849.646,200.92c-0.893,0-1.755,0.117-2.586,0.318c-8.769-28.625-38.907-49.726-74.753-49.726
			c-35.845,0-65.983,21.101-74.753,49.726c-0.83-0.201-1.693-0.318-2.586-0.318c-6.074,0-11,4.924-11,11c0,6.074,4.926,11,11,11
			c0.068,0,0.133-0.01,0.199-0.011c2.715,33.828,36.201,49.416,77.14,49.416c40.938,0,74.426-15.588,77.14-49.416
			c0.067,0.001,0.132,0.011,0.199,0.011c6.075,0,11-4.926,11-11C-838.646,205.844-843.57,200.92-849.646,200.92z"/>
		<g>
			<circle cx="-967.727" cy="208.627" r="7.5"/>
			<circle fill="#FFFFFF" cx="-970.221" cy="206.584" r="3.03"/>
		</g>
		<g>
			<circle cx="-887.227" cy="208.627" r="7.5"/>
			<circle fill="#FFFFFF" cx="-889.72" cy="206.584" r="3.03"/>
		</g>
		<path fill="none" stroke="#000000" stroke-width="3" stroke-linecap="round" stroke-miterlimit="10" d="M-926.984,203.555
			c0,0,0.812,8.268,4.312,12.572l-4.312,3.555"/>
		<path fill="none" stroke="#000000" stroke-width="3" stroke-linecap="round" stroke-miterlimit="10" d="M-939.253,226.391
			c0,5.105,3.842,12.916,12.318,12.916s12.827-6.481,12.827-12.826"/>
		<path fill="#604E75" d="M-926.681,127.915c-11.729,23.599-36.259,25.295-44.533,30.223c-1.883,0.93-3.639,1.908-5.252,2.928
			l-0.01,0.005h0.002c-2.632,1.663-4.881,3.431-6.616,5.279c-10.324,11.001-19.127,25.778-18.647,34.89c0,0,2.814,3.334,2.814,7.389
			h5.5c0,0,0.5-26.445,16-36.445c0,0,25.348-10.674,48.514-9.84c23.167,0.833,50.819,8.674,50.819,8.674
			c19.667,12.667,17.667,37.611,17.667,37.611h5.333c0.166-4.055,2.858-7.389,2.858-7.389
			c-1.796-21.188-14.808-32.051-22.938-38.055h0.001c-0.001,0-0.001,0-0.001,0c-1.28-0.946-2.444-1.775-3.42-2.502
			c-1.853-1.379-4.369-2.846-7.428-4.275C-917.242,149.082-926.681,127.915-926.681,127.915z"/>
	</g>
</g>
<g>
	<g>
		<path fill="#E9E9EA" d="M-435.186,268.257h2.438c5.94,0,10.8,4.86,10.8,10.8v32.733c0,5.939-4.859,10.8-10.8,10.8h-2.438V268.257z
			"/>
		<path fill="#E9E9EA" d="M-514.093,268.257h-2.438c-5.94,0-10.801,4.86-10.801,10.8v32.733c0,5.939,4.86,10.8,10.801,10.8h2.438
			V268.257z"/>
		<path fill="#333333" d="M-432.748,268.257h-2.438h-78.907h-2.438c-5.94,0-10.801,4.86-10.801,10.8v5.699h13.238v54.5h78.907v-54.5
			h13.237v-5.699C-421.948,273.118-426.808,268.257-432.748,268.257z"/>
		<polygon fill="#B69FCC" points="-514.093,339.256 -514.093,355.923 -514.093,395.59 -485.304,395.59 -485.304,355.923 
			-463.976,355.923 -463.976,395.59 -435.186,395.59 -435.186,355.923 -435.186,339.256 		"/>
		<path d="M-499.698,409.985c7.949,0,14.395-6.444,14.395-14.395h-28.789C-514.093,403.541-507.648,409.985-499.698,409.985z"/>
		<path d="M-449.581,409.985c7.951,0,14.396-6.444,14.396-14.395h-28.79C-463.976,403.541-457.53,409.985-449.581,409.985z"/>
		<path fill="#B69FCC" d="M-499.698,381.196c-7.95,0-14.395,6.444-14.395,14.395h28.789
			C-485.304,387.64-491.749,381.196-499.698,381.196z"/>
		<path fill="#B69FCC" d="M-449.581,381.196c-7.949,0-14.395,6.444-14.395,14.395h28.79
			C-435.186,387.64-441.63,381.196-449.581,381.196z"/>
		<g>
			<g>
				<path fill="#B69FCC" d="M-498.361,286.773c1.531-0.451,2.301-0.657,3.847-1.034c0.162,0.665,0.244,0.995,0.406,1.66
					c-0.458,0.111-0.689,0.171-1.146,0.289c-0.075,1.263-1.269,7.85-1.242,8.558c-0.533,0.164-0.797,0.249-1.328,0.423
					c-0.389-0.593-5.555-5.69-5.988-6.258c-0.439,0.167-0.659,0.253-1.097,0.426c-0.252-0.637-0.378-0.954-0.63-1.591
					c1.645-0.651,2.473-0.953,4.142-1.515c0.218,0.648,0.328,0.973,0.546,1.621c-0.148,0.05-0.223,0.072-0.371,0.123
					c0.648,0.689,3.131,3.496,3.131,3.496c0.152-0.039,0.69-3.63,0.782-4.724c-0.228,0.065-0.342,0.099-0.569,0.166
					C-498.071,287.757-498.167,287.429-498.361,286.773z"/>
				<path fill="#B69FCC" d="M-479.862,289.176c-0.112,1.588-0.161,2.383-0.25,3.971c-3.276,0.242-4.913,0.452-8.154,1.057
					c-0.125-0.673-0.189-1.006-0.314-1.679c0.355-0.066,0.533-0.101,0.889-0.162c-0.424-2.433-0.636-3.648-1.06-6.081
					c-0.384,0.067-0.576,0.103-0.96,0.174c-0.125-0.673-0.188-1.009-0.314-1.682c3.424-0.639,5.151-0.868,8.61-1.148
					c0.5,1.267,0.743,1.902,1.213,3.176c-0.761,0.053-1.141,0.082-1.901,0.152c-0.244-0.665-0.527-1.512-1.677-1.383
					c-1,0.112-1.5,0.177-2.498,0.319c0.117,0.818,0.176,1.226,0.293,2.044c0.525-0.075,0.788-0.108,1.314-0.175
					c-0.035-0.276-0.054-0.413-0.088-0.689c0.753-0.095,1.13-0.14,1.885-0.217c0.126,1.23,0.19,1.846,0.316,3.076
					c-0.726,0.074-1.088,0.118-1.813,0.209c-0.034-0.271-0.052-0.408-0.086-0.68c-0.515,0.064-0.773,0.099-1.287,0.172
					c0.136,0.948,0.205,1.423,0.34,2.371c1.138-0.163,1.708-0.233,2.849-0.353c0.525-0.055,0.766-1.288,0.864-2.328
					C-480.961,289.254-480.595,289.225-479.862,289.176z"/>
				<path fill="#B69FCC" d="M-466.951,291.625c-0.069,0.687-0.104,1.028-0.173,1.715c-0.966-0.099-1.449-0.141-2.417-0.207
					c-0.351-0.188-1.036-0.748-0.971-1.95c0.037-0.684-0.443-2.094-1.908-2.313c-0.027,0.958-0.04,1.438-0.067,2.396
					c0.365,0.011,0.547,0.017,0.912,0.031c-0.027,0.689-0.042,1.033-0.069,1.723c-1.61-0.065-2.415-0.077-4.025-0.055
					c-0.01-0.689-0.014-1.033-0.023-1.723c0.428-0.006,0.64-0.008,1.067-0.008c0-2.469,0.002-3.703,0.003-6.172
					c-0.462,0-0.693-0.001-1.156,0.006c-0.009-0.685-0.015-1.026-0.024-1.711c1.901-0.026,2.851-0.011,4.751,0.07
					c2.531,0.108,3.188,1.734,3.087,2.948c-0.084,1.022-1.068,1.939-1.098,2.142c-0.041,0.281,0.788,1.624,0.705,2.635
					c-0.028,0.341,0.34,0.371,0.34,0.371C-467.591,291.561-467.377,291.583-466.951,291.625z M-471.605,287.184
					c0.886,0.033,1.334-0.442,1.362-0.962c0.028-0.519-0.328-1.064-1.083-1.095c-0.394-0.016-0.59-0.022-0.985-0.033
					c-0.023,0.826-0.037,1.24-0.061,2.066C-472.064,287.169-471.912,287.172-471.605,287.184z"/>
				<path fill="#B69FCC" d="M-453.026,291.166c-0.751,2.646-3.405,3.996-5.967,3.444c-1.638-0.353-2.461-0.508-4.112-0.767
					c0.106-0.682,0.16-1.02,0.267-1.701c0.339,0.053,0.509,0.081,0.848,0.138c0.407-2.419,0.609-3.628,1.018-6.047
					c-0.366-0.062-0.548-0.09-0.915-0.147c0.108-0.687,0.162-1.031,0.27-1.718c1.865,0.293,2.795,0.465,4.645,0.863
					C-453.862,285.901-452.274,288.519-453.026,291.166z M-459.682,292.704c0.292,0.059,0.438,0.089,0.729,0.15
					c2.09,0.44,3.183-0.838,3.556-2.324c0.376-1.5-0.245-3.241-2.292-3.673c-0.315-0.066-0.474-0.098-0.79-0.161
					C-458.96,289.1-459.2,290.298-459.682,292.704z"/>
				<path fill="#B69FCC" d="M-448.06,287.712c1.735,0.579,2.597,0.895,4.306,1.571c-0.252,0.637-0.378,0.954-0.63,1.591
					c-0.368-0.146-0.552-0.217-0.921-0.357c-0.879,2.301-1.319,3.451-2.198,5.752c0.341,0.131,0.511,0.195,0.852,0.33
					c-0.25,0.631-0.375,0.949-0.625,1.58c-1.514-0.6-2.278-0.878-3.815-1.392c0.215-0.644,0.324-0.966,0.539-1.609
					c0.345,0.115,0.516,0.174,0.86,0.293c0.808-2.327,1.213-3.491,2.022-5.818c-0.372-0.129-0.559-0.191-0.932-0.316
					C-448.386,288.687-448.276,288.362-448.06,287.712z"/>
			</g>
		</g>
	</g>
	<g>
		<path fill="#E9E9EA" d="M-397.604,202.625c-0.893,0-1.756,0.117-2.586,0.318c-8.77-28.624-38.908-49.725-74.753-49.725
			s-65.983,21.101-74.753,49.725c-0.83-0.201-1.693-0.318-2.586-0.318c-6.074,0-11,4.925-11,11c0,6.074,4.926,11,11,11
			c0.068,0,0.133-0.009,0.199-0.01c2.715,33.828,36.201,49.416,77.14,49.416c40.938,0,74.425-15.588,77.14-49.416
			c0.066,0.001,0.131,0.01,0.199,0.01c6.074,0,11-4.926,11-11C-386.604,207.55-391.53,202.625-397.604,202.625z"/>
		<path fill="none" stroke="#000000" stroke-width="3" stroke-linecap="round" stroke-miterlimit="10" d="M-474.943,205.26
			c0,0,0.812,8.269,4.312,12.573l-4.312,3.555"/>
		<g>
			<path fill="#FFFFFF" d="M-462.371,241.103c0,6.346-4.351,12.827-12.827,12.827s-12.318-7.812-12.318-12.917
				c2.218,2.538,6.267,4.654,12.506,4.654C-469.006,245.667-464.816,243.426-462.371,241.103z"/>
			<path fill="none" stroke="#000000" stroke-width="3" stroke-linecap="round" stroke-miterlimit="10" d="M-487.517,241.013
				c2.218,2.538,6.267,4.654,12.506,4.654c6.005,0,10.194-2.241,12.64-4.564"/>
			<path fill="none" stroke="#000000" stroke-width="3" stroke-linecap="round" stroke-miterlimit="10" d="M-487.517,241.013
				c0,5.105,3.842,12.917,12.318,12.917s12.827-6.481,12.827-12.827"/>
		</g>
		<path fill="#E9E9EA" d="M-397.804,224.615c0.066,0.001,0.131,0.011,0.199,0.011c6.074,0,11-4.926,11-11c0-6.076-4.926-11-11-11
			c-0.893,0-1.756,0.117-2.586,0.318l-5.525,12.45L-397.804,224.615z"/>
		<path fill="#E9E9EA" d="M-552.082,224.615c-0.066,0.001-0.131,0.011-0.199,0.011c-6.074,0-11-4.926-11-11c0-6.076,4.926-11,11-11
			c0.893,0,1.756,0.117,2.586,0.318l5.525,12.45L-552.082,224.615z"/>
		<circle fill="#C4C4C3" cx="-520.811" cy="236.992" r="9.595"/>
		<circle fill="#C4C4C3" cx="-428.566" cy="236.992" r="9.595"/>
		<path fill="#604E75" d="M-552.382,170.621c-22.223,21.149-24.334,70.333-6,91.667c18.334,21.333,2.333,36.333-8,38
			c-10.333,1.666-19.334-9.334-19.334-9.334c0.396,3.443,1.352,6.446,2.728,9.068c-2.298-1.246-4.663-2.779-5.65-4.242
			c0,0,4.06,8.138,10.563,10.582c1.052,0.96,2.184,1.832,3.389,2.613c-4.779,3.223-11.028,3.232-11.028,3.232
			c21.871,4.82,29.543,3.684,32.228,2.422c0.044,0.001,0.088,0.002,0.131,0.003c-6.029,5.187-15.043,5.575-15.043,5.575
			c15.602-0.252,24.275-3.078,29.048-5.824c-3.5,4.729-7.381,7.491-7.381,7.491c6.907-1.829,11.89-7.023,15.076-11.569
			c0.249-0.113,0.495-0.229,0.737-0.348c-1.121,7.074-2.813,8.917-2.813,8.917c7.493-7.067,11.745-14.213,14.116-19.517
			c1.328-2.516,2.225-5.242,2.737-8.047c0.056-0.271,0.08-0.419,0.08-0.419s-0.004,0.002-0.005,0.002
			c2.012-11.918-2.79-25.031-10.526-28.589c-11.635-5.352-33.218-30.908-22.365-59.361c9.969-26.136,31.093-24.861,41.511-29.656
			c10.137-4.667,17.804-17.667,17.804-17.667C-504.049,140.954-529.543,148.885-552.382,170.621z"/>
		<path fill="#604E75" d="M-433.097,297.43c-0.075,12.131,5.55,21.568,17.363,32.11c0,0-1.79-4.335,3.293-7.784
			c0.05,0.024,0.098,0.05,0.147,0.074c2.565,4.865,9.68,11.211,29.393,10.377c0,0-5.979-0.935-10.978-5.67
			c5.228,1.792,15.366,3.506,31.978-0.363c0,0-9.593,0.265-8.694-6.748c13.529-8.509,9.918-19.139,9.918-19.139s-4,8.999-16,8.999
			s-31.332-16.667-16.666-52.333s12.495-75.284-14.373-98c-17.742-15-44.627-27-74.627-17.334c0,0-24.965,11-16.982,23.334
			s22.943-1.666,44.315,0c12.527,0.977,45.949,10.863,55.192,37.99c8.352,24.51-6.813,49.141-15.473,54.742
			C-422.18,262.144-433.047,285.311-433.097,297.43z"/>
		<path fill="none" stroke="#000000" stroke-width="3" stroke-linecap="round" stroke-miterlimit="10" d="M-527.816,203.868
			c0,2.075,1.561,5.25,5.006,5.25s5.214-2.635,5.214-5.213"/>
		<path fill="none" stroke="#000000" stroke-width="3" stroke-linecap="round" stroke-miterlimit="10" d="M-522.707,199.078
			c0,2.075,1.561,5.25,5.006,5.25c1.54,0,2.744-0.526,3.605-1.338"/>
		<path fill="none" stroke="#000000" stroke-width="3" stroke-linecap="round" stroke-miterlimit="10" d="M-422.791,199.078
			c0,2.075-1.561,5.25-5.006,5.25c-1.539,0-2.744-0.526-3.605-1.338"/>
		<path fill="none" stroke="#000000" stroke-width="3" stroke-linecap="round" stroke-miterlimit="10" d="M-427.979,203.868
			c0,2.075,1.561,5.25,5.006,5.25s5.214-2.635,5.214-5.213"/>
		<g>
			<circle cx="-513.097" cy="206.592" r="7.5"/>
			<circle fill="#FFFFFF" cx="-515.591" cy="204.549" r="3.03"/>
		</g>
		<g>
			<circle cx="-432.597" cy="206.592" r="7.5"/>
			<circle fill="#FFFFFF" cx="-435.091" cy="204.549" r="3.03"/>
		</g>
	</g>
</g>
</svg>
