<?xml version="1.0" encoding="utf-8"?>
<!-- Generator: Adobe Illustrator 16.0.0, SVG Export Plug-In . SVG Version: 6.00 Build 0)  -->
<!DOCTYPE svg PUBLIC "-//W3C//DTD SVG 1.1//EN" "http://www.w3.org/Graphics/SVG/1.1/DTD/svg11.dtd">
<svg version="1.1" id="Layer_1" xmlns="http://www.w3.org/2000/svg" xmlns:xlink="http://www.w3.org/1999/xlink" x="0px" y="0px"
	 width="242px" height="294.334px" viewBox="0 0 242 294.334" enable-background="new 0 0 242 294.334" xml:space="preserve">
<g>
	<g>
		<path fill="#E9E9EA" d="M163.966,142.312h2.438c5.939,0,10.8,4.86,10.8,10.801v32.732c0,5.939-4.858,10.801-10.8,10.801h-2.438
			V142.312z"/>
		<path fill="#E9E9EA" d="M85.059,142.312h-2.437c-5.94,0-10.801,4.86-10.801,10.801v32.732c0,5.939,4.86,10.801,10.801,10.801
			h2.438L85.059,142.312L85.059,142.312z"/>
		<path fill="#BABABA" d="M166.403,142.312h-2.438H85.059h-2.437c-5.94,0-10.801,4.86-10.801,10.801v5.698h13.238v54.5h78.907v-54.5
			h13.236v-5.698C177.203,147.172,172.343,142.312,166.403,142.312z"/>
		<polygon fill="#4C4C4C" points="85.059,213.311 85.059,229.977 85.059,269.645 113.847,269.645 113.847,229.977 135.175,229.977 
			135.175,269.645 163.966,269.645 163.966,229.977 163.966,213.311 		"/>
		<path d="M99.453,284.04c7.949,0,14.395-6.445,14.395-14.396h-28.79C85.059,277.594,91.503,284.04,99.453,284.04z"/>
		<path d="M149.57,284.04c7.951,0,14.396-6.445,14.396-14.396h-28.789C135.175,277.594,141.622,284.04,149.57,284.04z"/>
		<path fill="#4C4C4C" d="M99.453,255.251c-7.95,0-14.395,6.443-14.395,14.395h28.789
			C113.847,261.694,107.402,255.251,99.453,255.251z"/>
		<path fill="#4C4C4C" d="M149.57,255.251c-7.948,0-14.396,6.443-14.396,14.395h28.791
			C163.966,261.694,157.521,255.251,149.57,255.251z"/>
	</g>
	<g>
		<path fill="#E9E9EA" d="M201.548,76.68c-0.894,0-1.756,0.117-2.586,0.318c-8.771-28.624-38.908-49.725-74.754-49.725
			c-35.845,0-65.983,21.101-74.752,49.725c-0.83-0.201-1.693-0.318-2.586-0.318c-6.074,0-11,4.925-11,11c0,6.074,4.926,11,11,11
			c0.068,0,0.133-0.009,0.199-0.01c2.715,33.828,36.201,49.416,77.14,49.416s74.426-15.588,77.141-49.416
			c0.066,0.001,0.131,0.01,0.199,0.01c6.074,0,11-4.926,11-11C212.548,81.604,207.622,76.68,201.548,76.68z"/>
		<path fill="none" stroke="#000000" stroke-width="3" stroke-linecap="round" stroke-miterlimit="10" d="M124.208,79.315
			c0,0,0.813,8.269,4.313,12.573l-4.313,3.555"/>
		<g>
			<path fill="#FFFFFF" d="M136.78,115.157c0,6.346-4.352,12.827-12.827,12.827s-12.318-7.812-12.318-12.917
				c2.218,2.538,6.267,4.654,12.506,4.654C130.146,119.722,134.335,117.481,136.78,115.157z"/>
			<path fill="none" stroke="#000000" stroke-width="3" stroke-linecap="round" stroke-miterlimit="10" d="M111.634,115.068
				c2.218,2.538,6.267,4.654,12.505,4.654c6.006,0,10.195-2.241,12.641-4.564"/>
			<path fill="none" stroke="#000000" stroke-width="3" stroke-linecap="round" stroke-miterlimit="10" d="M111.634,115.068
				c0,5.105,3.842,12.917,12.318,12.917c8.477,0,12.827-6.481,12.827-12.827"/>
		</g>
		<path fill="#E9E9EA" d="M201.347,98.669c0.066,0.001,0.132,0.011,0.199,0.011c6.074,0,11-4.926,11-11c0-6.076-4.926-11-11-11
			c-0.893,0-1.756,0.117-2.586,0.318l-5.524,12.45L201.347,98.669z"/>
		<path fill="#E9E9EA" d="M47.069,98.669c-0.066,0.001-0.131,0.011-0.199,0.011c-6.074,0-11-4.926-11-11c0-6.076,4.926-11,11-11
			c0.893,0,1.756,0.117,2.586,0.318l5.525,12.45L47.069,98.669z"/>
		<circle fill="#C4C4C3" cx="78.34" cy="111.046" r="9.595"/>
		<circle fill="#C4C4C3" cx="170.585" cy="111.046" r="9.595"/>
		<path fill="#604E75" d="M46.77,44.675c-22.223,21.149-24.334,70.333-6,91.667c18.334,21.333,2.333,36.333-8,38
			c-10.333,1.666-19.334-9.334-19.334-9.334c0.396,3.442,1.352,6.446,2.728,9.069c-2.298-1.246-4.663-2.78-5.65-4.243
			c0,0,4.06,8.137,10.563,10.583c1.052,0.959,2.184,1.832,3.389,2.613c-4.779,3.223-11.028,3.231-11.028,3.231
			c21.871,4.82,29.543,3.685,32.228,2.422c0.044,0,0.088,0.002,0.131,0.002c-6.029,5.188-15.043,5.576-15.043,5.576
			c15.602-0.252,24.275-3.078,29.048-5.824c-3.5,4.729-7.381,7.49-7.381,7.49c6.907-1.828,11.89-7.022,15.076-11.567
			c0.249-0.113,0.495-0.23,0.737-0.349c-1.121,7.074-2.813,8.916-2.813,8.916c7.493-7.065,11.745-14.213,14.116-19.517
			c1.328-2.516,2.225-5.242,2.737-8.047c0.056-0.271,0.08-0.418,0.08-0.418s-0.004,0.002-0.005,0.002
			c2.012-11.918-2.79-25.031-10.526-28.589c-11.635-5.352-33.218-30.908-22.365-59.361c9.969-26.136,31.093-24.861,41.511-29.656
			c10.137-4.667,17.804-17.667,17.804-17.667C95.103,15.008,69.608,22.94,46.77,44.675z"/>
		<path fill="#604E75" d="M166.054,171.485c-0.074,12.131,5.551,21.568,17.363,32.109c0,0-1.789-4.334,3.293-7.783
			c0.051,0.023,0.099,0.049,0.147,0.074c2.565,4.865,9.681,11.211,29.394,10.377c0,0-5.979-0.936-10.979-5.67
			c5.229,1.791,15.365,3.506,31.979-0.363c0,0-9.594,0.264-8.695-6.748c13.529-8.51,9.919-19.139,9.919-19.139s-4,8.998-16,8.998
			s-31.332-16.667-16.666-52.333s12.495-75.284-14.373-98c-17.742-15-44.627-27-74.627-17.334c0,0-24.965,11-16.982,23.334
			c7.983,12.334,22.943-1.666,44.315,0c12.527,0.977,45.949,10.863,55.191,37.99c8.353,24.51-6.813,49.141-15.473,54.742
			C176.972,136.198,166.104,159.364,166.054,171.485z"/>
		<path fill="none" stroke="#000000" stroke-width="3" stroke-linecap="round" stroke-miterlimit="10" d="M71.335,77.922
			c0,2.075,1.561,5.25,5.006,5.25s5.214-2.635,5.214-5.213"/>
		<path fill="none" stroke="#000000" stroke-width="3" stroke-linecap="round" stroke-miterlimit="10" d="M76.444,73.132
			c0,2.075,1.561,5.25,5.006,5.25c1.54,0,2.744-0.526,3.605-1.338"/>
		<path fill="none" stroke="#000000" stroke-width="3" stroke-linecap="round" stroke-miterlimit="10" d="M176.36,73.132
			c0,2.075-1.561,5.25-5.006,5.25c-1.539,0-2.744-0.526-3.605-1.338"/>
		<path fill="none" stroke="#000000" stroke-width="3" stroke-linecap="round" stroke-miterlimit="10" d="M171.173,77.922
			c0,2.075,1.561,5.25,5.006,5.25s5.214-2.635,5.214-5.213"/>
		<g>
			<circle cx="86.054" cy="80.646" r="7.5"/>
			<circle fill="#FFFFFF" cx="83.561" cy="78.604" r="3.03"/>
		</g>
		<g>
			<circle cx="166.554" cy="80.646" r="7.5"/>
			<circle fill="#FFFFFF" cx="164.061" cy="78.604" r="3.03"/>
		</g>
	</g>
</g>
<g>
	<g>
		<path d="M100.378,160.021c0.68,3.115,1.02,4.673,1.7,7.788c0.013,0.062,0.004,0.115-0.026,0.162
			c-0.031,0.049-0.078,0.08-0.138,0.093s-0.117,0.008-0.16-0.019c-0.049-0.03-0.081-0.084-0.094-0.145
			c-0.062-0.278-0.093-0.416-0.155-0.694c-0.245-1.103-0.643-2.181-1.189-3.222c-0.713-1.357-1.49-2.268-2.324-2.712
			c-0.321-0.171-0.695-0.205-1.12-0.099c-0.287,0.072-0.491,0.224-0.614,0.443c-0.157,0.281-0.185,0.663-0.063,1.132
			c1.732,6.678,2.598,10.017,4.331,16.694c0.108,0.416,0.268,0.693,0.481,0.838c0.213,0.144,0.456,0.184,0.731,0.114
			c0.355-0.089,0.681-0.334,0.983-0.731c0.303-0.399,0.491-0.883,0.573-1.449c0.167-1.154,0.125-2.398-0.168-3.717
			c-0.192-0.865-0.289-1.299-0.481-2.164c-0.02-0.087-0.015-0.154,0.015-0.207c0.028-0.052,0.072-0.085,0.13-0.098
			c0.048-0.011,0.091-0.002,0.127,0.024c0.068,0.05,0.116,0.114,0.133,0.193c0.189,0.866,0.283,1.301,0.473,2.167
			c0.445,2.04,0.377,3.658-0.155,4.856c-0.38,0.856-0.971,1.387-1.794,1.595c-0.61,0.154-1.187,0.104-1.74-0.15
			s-1.106-0.794-1.646-1.617c-1.012-1.541-1.883-3.511-2.578-5.903c-0.258-0.888-0.387-1.331-0.645-2.219
			c-0.5-1.722-0.806-3.405-0.896-5.052c-0.089-1.647,0.18-2.951,0.812-3.875c0.428-0.625,1.008-1.03,1.722-1.21
			c0.852-0.215,1.74,0.08,2.637,0.884c0.38-0.667,0.573-0.999,0.966-1.663C100.273,160.045,100.308,160.037,100.378,160.021z"/>
		<path d="M102.386,160.096c-0.397,0.08-0.596,0.12-0.993,0.203c-0.13-0.036-0.201-0.078-0.21-0.122
			c-0.011-0.053,0.036-0.121,0.141-0.207c2.138-0.449,3.211-0.649,5.362-1.002c0.054-0.009,0.103-0.003,0.145,0.021
			s0.068,0.06,0.075,0.104c0.009,0.054-0.005,0.1-0.038,0.137c-0.032,0.038-0.076,0.063-0.129,0.071
			c-0.425,0.069-0.637,0.104-1.062,0.178c1.332,7.698,1.997,11.546,3.329,19.244c0.228-0.039,0.342-0.057,0.569-0.095
			c0.406-0.067,0.746-0.239,1.021-0.514c0.273-0.274,0.502-0.787,0.692-1.539c0.28-1.109,0.44-2.3,0.475-3.565
			s0.03-2.079,0.002-2.419c-0.01-0.123,0-0.211,0.023-0.25c0.043-0.021,0.065-0.031,0.108-0.053c0.047,0.01,0.07,0.013,0.117,0.022
			c0.042,0.031,0.065,0.068,0.071,0.112c0.375,3.216,0.564,4.825,0.946,8.04c-3.038,0.402-4.553,0.661-7.562,1.294
			c-0.045,0.01-0.087,0.002-0.123-0.021c-0.037-0.023-0.061-0.059-0.071-0.108c-0.011-0.052-0.005-0.097,0.021-0.133
			c0.025-0.036,0.062-0.057,0.106-0.066c0.337-0.071,0.507-0.106,0.845-0.175C104.703,171.591,103.931,167.759,102.386,160.096z"/>
		<path d="M115.411,158.143c0.716-0.064,1.073-0.095,1.789-0.148c1.75,7.729,2.532,11.606,3.91,19.386
			c0.245-0.013,0.37-0.017,0.615-0.027c0.103,0.056,0.154,0.109,0.156,0.162c0.002,0.051-0.046,0.109-0.143,0.175
			c-1.637,0.074-2.456,0.129-4.089,0.27c-0.045,0.004-0.082-0.011-0.112-0.037c-0.03-0.028-0.046-0.065-0.051-0.116
			c-0.004-0.053,0.004-0.095,0.029-0.127s0.061-0.053,0.106-0.057c0.261-0.022,0.393-0.034,0.655-0.055
			c-0.264-1.517-0.399-2.275-0.673-3.791c-1.038,0.086-1.557,0.138-2.593,0.25c-0.024,0.873-0.034,1.311-0.054,2.184
			c0.004,0.117,0.012,0.236,0.026,0.361c0.043,0.393,0.153,0.683,0.325,0.867c0.172,0.184,0.392,0.283,0.661,0.301
			c0.09,0.018,0.135,0.025,0.226,0.043c0.039,0.032,0.063,0.076,0.068,0.129c0.005,0.055-0.006,0.099-0.034,0.133
			c-0.029,0.034-0.065,0.055-0.11,0.06c-0.927,0.094-1.39,0.146-2.315,0.261c-0.045,0.006-0.086-0.004-0.121-0.031
			s-0.056-0.07-0.063-0.125c-0.007-0.053,0.001-0.098,0.023-0.137c0.063-0.029,0.093-0.043,0.156-0.072
			c0.258-0.067,0.453-0.213,0.57-0.425c0.183-0.33,0.277-0.868,0.288-1.599C114.796,168.849,114.949,165.279,115.411,158.143z
			 M115.459,163.173c-0.23,4.202-0.318,6.304-0.438,10.502c0.995-0.107,1.493-0.157,2.49-0.241
			C116.733,169.323,116.322,167.271,115.459,163.173z"/>
		<path d="M122.639,157.761c-0.384,0.012-0.575,0.021-0.959,0.035c-0.121-0.05-0.185-0.107-0.188-0.171
			c-0.002-0.053,0.058-0.111,0.174-0.169c2.052-0.079,3.076-0.096,5.129-0.088c1.271,0.005,2.37,0.472,3.266,1.393
			s1.296,2.157,1.23,3.698c-0.037,0.887-0.241,1.668-0.604,2.345s-0.875,1.23-1.537,1.661c-0.398,0.26-1.83,0.75-1.83,0.75
			c0,0.036,1.535,0.499,1.885,0.73c0.591,0.393,1.023,0.858,1.291,1.398c0.268,0.539,0.379,1.229,0.344,2.07
			c-0.082,1.966-0.121,2.948-0.203,4.914c-0.009,0.223,0.019,0.382,0.089,0.474c0.069,0.092,0.163,0.143,0.281,0.148
			c0.183,0.009,0.354-0.099,0.513-0.314c0.253-0.345,0.45-0.986,0.56-1.908c0.019-0.159,0.048-0.266,0.094-0.316
			c0.045-0.052,0.091-0.079,0.138-0.076c0.056,0.003,0.102,0.041,0.136,0.104c0.04,0.073,0.059,0.21,0.047,0.406
			c-0.059,0.993-0.354,1.746-0.867,2.263c-0.515,0.517-1.131,0.758-1.861,0.733c-0.649-0.021-1.136-0.198-1.465-0.535
			c-0.328-0.337-0.492-0.809-0.483-1.418c0.04-2.845,0.062-4.267,0.102-7.111c0.009-0.609-0.156-1.025-0.488-1.229
			c-0.193-0.119-0.661-0.182-1.395-0.18c0.012,3.952,0.019,5.928,0.03,9.88c0.268-0.001,0.4-0.001,0.668,0
			c0.073,0,0.129,0.019,0.169,0.053s0.061,0.076,0.061,0.119s-0.021,0.079-0.062,0.112c-0.042,0.035-0.098,0.053-0.171,0.053
			c-1.714-0.006-2.572,0.008-4.285,0.074c-0.055,0.002-0.1-0.013-0.137-0.041c-0.038-0.028-0.06-0.067-0.062-0.118
			c-0.002-0.053,0.017-0.094,0.052-0.125s0.081-0.051,0.136-0.053c0.322-0.013,0.482-0.018,0.805-0.027
			C122.999,169.479,122.879,165.575,122.639,157.761z M126.006,157.716c0.012,3.721,0.016,5.58,0.027,9.301
			c0.292-0.001,0.439,0.001,0.731,0.002c0.349,0.001,0.629-0.104,0.852-0.316c0.222-0.212,0.337-0.525,0.343-0.938
			c0.039-2.79,0.059-4.185,0.098-6.975c0.006-0.402-0.077-0.686-0.246-0.84s-0.507-0.232-1.013-0.234
			C126.481,157.715,126.322,157.715,126.006,157.716z"/>
		<path d="M135.159,158.022c-0.39-0.028-0.587-0.041-0.977-0.066c-0.055-0.004-0.092-0.024-0.123-0.059
			c-0.03-0.033-0.044-0.071-0.041-0.116c0.003-0.054,0.023-0.095,0.058-0.124c0.035-0.029,0.075-0.043,0.13-0.039
			c2.118,0.137,3.177,0.229,5.289,0.458c0.055,0.006,0.101,0.025,0.135,0.061s0.047,0.079,0.042,0.124
			c-0.006,0.055-0.029,0.09-0.07,0.117c-0.041,0.028-0.09,0.039-0.144,0.033c-0.389-0.042-0.584-0.063-0.973-0.102
			c-0.78,7.778-1.171,11.666-1.952,19.446c0.326,0.033,0.49,0.049,0.816,0.084c0.083,0.07,0.123,0.13,0.117,0.183
			c-0.007,0.061-0.06,0.113-0.155,0.156c-1.805-0.195-2.707-0.276-4.517-0.392c-0.096-0.066-0.143-0.124-0.14-0.175
			c0.003-0.053,0.058-0.108,0.161-0.162c0.371,0.023,0.555,0.035,0.925,0.063C134.308,169.715,134.594,165.819,135.159,158.022z"/>
		<path d="M148.428,167.348c-0.385,1.946-0.58,2.919-0.965,4.865c-0.554,2.804-1.427,4.756-2.58,5.884
			c-0.799,0.783-1.658,1.096-2.6,0.945c-0.636-0.102-1.19-0.412-1.67-0.941s-0.816-1.252-1.019-2.171
			c-0.325-1.479-0.401-3.081-0.193-4.807c0.278-2.306,0.418-3.46,0.696-5.766c0.324-2.688,1.087-4.62,2.343-5.771
			c0.871-0.797,1.876-1.113,2.989-0.938c0.539,0.085,1.019,0.269,1.436,0.544c0.417,0.276,0.77,0.638,1.051,1.085
			c0.282,0.447,0.504,1.013,0.663,1.695s0.229,1.377,0.209,2.073C148.754,165.23,148.627,166.337,148.428,167.348z M141.681,176.72
			c-0.104,0.691-0.071,1.212,0.1,1.55c0.124,0.245,0.309,0.387,0.542,0.424c0.226,0.036,0.438-0.031,0.643-0.202
			c0.204-0.17,0.34-0.438,0.402-0.811c1.141-6.799,1.711-10.196,2.851-16.994c0.08-0.478,0.006-0.88-0.21-1.206
			c-0.151-0.229-0.363-0.373-0.643-0.417c-0.248-0.039-0.481,0.025-0.692,0.191c-0.287,0.227-0.469,0.597-0.544,1.102
			C143.149,166.902,142.661,170.173,141.681,176.72z"/>
		<path d="M158.231,163.324c0.109-0.397,0.125-0.696,0.046-0.904c-0.08-0.208-0.244-0.386-0.489-0.526
			c-0.267-0.094-0.4-0.137-0.668-0.229c-0.048-0.032-0.062-0.088-0.041-0.165c0.019-0.07,0.045-0.112,0.078-0.132
			c0.033-0.019,0.101-0.015,0.207,0.014c1.126,0.297,1.687,0.453,2.807,0.777c0.043,0.013,0.076,0.032,0.094,0.07
			s0.019,0.079,0.006,0.122s-0.03,0.073-0.063,0.087c-0.032,0.013-0.137,0.026-0.31,0.031c-0.356,0.01-0.624,0.08-0.797,0.213
			s-0.338,0.426-0.496,0.873c-1.983,7.105-2.977,10.658-4.96,17.764c-0.818-0.229-1.229-0.339-2.052-0.55
			c0.508-7.476,0.64-11.235,0.656-18.775c-1.44,6.516-2.162,9.774-3.603,16.29c-0.099,0.446-0.116,0.77-0.058,0.971
			s0.19,0.361,0.398,0.481c0.236,0.076,0.355,0.114,0.591,0.192c0.039,0.036,0.05,0.094,0.031,0.172
			c-0.017,0.07-0.042,0.112-0.069,0.129s-0.084,0.015-0.173-0.006c-0.944-0.22-1.417-0.322-2.365-0.52
			c-0.036-0.008-0.063-0.025-0.079-0.057s-0.02-0.071-0.011-0.115s0.024-0.073,0.052-0.091s0.114-0.041,0.258-0.064
			c0.298-0.049,0.521-0.141,0.659-0.285c0.14-0.144,0.274-0.455,0.407-0.932c1.538-7.077,2.305-10.613,3.842-17.69
			c-0.358-0.078-0.536-0.116-0.895-0.191c-0.054-0.011-0.093-0.037-0.123-0.076c-0.031-0.038-0.043-0.081-0.032-0.135
			c0.009-0.044,0.036-0.081,0.08-0.104s0.092-0.025,0.146-0.015c1.663,0.349,2.493,0.537,4.146,0.944
			c-0.124,6.061-0.267,9.082-0.71,15.094C156.138,170.923,156.837,168.389,158.231,163.324z"/>
	</g>
</g>
</svg>
