<?xml version="1.0" encoding="utf-8"?>
<!-- Generator: Adobe Illustrator 15.0.0, SVG Export Plug-In . SVG Version: 6.00 Build 0)  -->
<!DOCTYPE svg PUBLIC "-//W3C//DTD SVG 1.1//EN" "http://www.w3.org/Graphics/SVG/1.1/DTD/svg11.dtd">
<svg version="1.1" id="Layer_1" xmlns="http://www.w3.org/2000/svg" xmlns:xlink="http://www.w3.org/1999/xlink" x="0px" y="0px"
	 width="198px" height="294.334px" viewBox="0 0 198 294.334" enable-background="new 0 0 198 294.334" xml:space="preserve">
<g>
	<g>
		<path fill="#E9E9EA" d="M-455.943-7.881h2.438c5.94,0,10.8,4.86,10.8,10.8v32.733c0,5.939-4.86,10.8-10.8,10.8h-2.438V-7.881z"/>
		<path fill="#E9E9EA" d="M-534.851-7.881h-2.438c-5.94,0-10.8,4.86-10.8,10.8v32.733c0,5.939,4.86,10.8,10.8,10.8h2.438V-7.881z"/>
		<path fill="#5B5C5C" d="M-453.506-7.881h-2.438h-78.908h-2.438c-5.94,0-10.8,4.86-10.8,10.8v5.699h13.237v54.5h78.908v-54.5
			h13.237V2.918C-442.706-3.021-447.566-7.881-453.506-7.881z"/>
		<polygon fill="#B69FCC" points="-534.851,63.118 -534.851,79.785 -534.851,119.452 -506.062,119.452 -506.062,79.785 
			-484.733,79.785 -484.733,119.452 -455.943,119.452 -455.943,79.785 -455.943,63.118 		"/>
		<path d="M-520.457,133.846c7.95,0,14.395-6.444,14.395-14.395h-28.79C-534.851,127.402-528.406,133.846-520.457,133.846z"/>
		<path d="M-470.338,133.846c7.95,0,14.395-6.444,14.395-14.395h-28.79C-484.733,127.402-478.288,133.846-470.338,133.846z"/>
		<path fill="#B69FCC" d="M-520.457,105.057c-7.95,0-14.395,6.444-14.395,14.395h28.79
			C-506.062,111.501-512.506,105.057-520.457,105.057z"/>
		<path fill="#B69FCC" d="M-470.338,105.057c-7.95,0-14.395,6.444-14.395,14.395h28.79
			C-455.943,111.501-462.388,105.057-470.338,105.057z"/>
		<text transform="matrix(1 0 0 1 -513.7217 24.1187)" fill="#FFFFFF" font-family="'Cubano-Regular'" font-size="25.3327">IUP</text>
	</g>
	<g>
		<path fill="#E9E9EA" d="M-418.363-71.263c-0.893,0-1.755,0.118-2.586,0.318c-8.769-28.624-38.907-49.725-74.752-49.725
			s-65.984,21.101-74.752,49.725c-0.831-0.201-1.693-0.318-2.586-0.318c-6.075,0-11,4.925-11,11c0,6.075,4.925,11,11,11
			c0.067,0,0.132-0.009,0.199-0.01c2.714,33.829,36.201,49.417,77.139,49.417c40.938,0,74.425-15.588,77.139-49.417
			c0.067,0.001,0.132,0.01,0.199,0.01c6.075,0,11-4.925,11-11C-407.363-66.338-412.288-71.263-418.363-71.263z"/>
		<g>
			<circle cx="-536.443" cy="-63.555" r="7.5"/>
			<circle fill="#FFFFFF" cx="-538.938" cy="-65.598" r="3.03"/>
		</g>
		<g>
			<circle cx="-455.943" cy="-63.555" r="7.5"/>
			<circle fill="#FFFFFF" cx="-458.438" cy="-65.598" r="3.03"/>
		</g>
		<path fill="#B69FCC" d="M-447.307-111.5c-7.167-5.333-24.171-11.994-44.658-12.637c-22.176-0.696-49.676,7.471-59.842,18.304
			c-10.324,11.001-19.127,25.778-18.647,34.889c0,0,2.813,3.335,2.813,7.39h5.5c0,0,0.5-26.445,16-36.445
			c0,0,7.5-0.833,10.167,4.833c0,0,4.227-3.333,2.03-6.5c0,0,24.428-4.833,39.928,10.792c0,0,3.125-5.542,0.875-7.542
			c0,0,16.125,0.667,22.375,7.917c0,0,0.875-2.417,0-5c-0.445-1.313,23.625-1.875,29.75,7.25c0,0,0.667-8.583-5.792-12.917
			C-427.14-88.5-429.14-63.555-429.14-63.555h5.333c0.166-4.055,2.858-7.39,2.858-7.39
			C-423.027-95.469-440.14-106.167-447.307-111.5z"/>
		<path fill="none" stroke="#000000" stroke-width="3" stroke-linecap="round" stroke-miterlimit="10" d="M-495.701-68.628
			c0,0,0.811,8.268,4.311,12.573l-4.311,3.555"/>
		<path fill="none" stroke="#000000" stroke-width="3" stroke-linecap="round" stroke-miterlimit="10" d="M-507.97-45.792
			c0,5.106,3.842,12.917,12.319,12.917s12.827-6.482,12.827-12.827"/>
	</g>
</g>
<g>
	<g>
		<path fill="#E9E9EA" d="M604.627-115.783h2.438c5.94,0,10.8,4.86,10.8,10.8v32.733c0,5.939-4.859,10.8-10.8,10.8h-2.438V-115.783z
			"/>
		<path fill="#E9E9EA" d="M525.72-115.783h-2.438c-5.94,0-10.801,4.86-10.801,10.8v32.733c0,5.939,4.86,10.8,10.801,10.8h2.438
			V-115.783z"/>
		<path fill="#333333" d="M607.064-115.783h-2.438H525.72h-2.438c-5.94,0-10.801,4.86-10.801,10.8v5.699h13.238v54.5h78.907v-54.5
			h13.237v-5.699C617.864-110.922,613.005-115.783,607.064-115.783z"/>
		<polygon fill="#B69FCC" points="525.72,-44.784 525.72,-28.117 525.72,11.55 554.509,11.55 554.509,-28.117 575.837,-28.117 
			575.837,11.55 604.627,11.55 604.627,-28.117 604.627,-44.784 		"/>
		<path d="M540.114,25.945c7.949,0,14.395-6.444,14.395-14.395H525.72C525.72,19.5,532.164,25.945,540.114,25.945z"/>
		<path d="M590.231,25.945c7.951,0,14.396-6.444,14.396-14.395h-28.79C575.837,19.5,582.282,25.945,590.231,25.945z"/>
		<path fill="#B69FCC" d="M540.114-2.844c-7.95,0-14.395,6.444-14.395,14.395h28.789C554.509,3.6,548.063-2.844,540.114-2.844z"/>
		<path fill="#B69FCC" d="M590.231-2.844c-7.949,0-14.395,6.444-14.395,14.395h28.79C604.627,3.6,598.183-2.844,590.231-2.844z"/>
		<g>
			<g>
				<path fill="#604E75" d="M546.219-96.921c0.692-0.213,1.108-0.069,1.25,0.419c1.804,6.229,2.707,9.342,4.512,15.571
					c0.134,0.461-0.041,0.801-0.545,0.956c-1.107,0.341-1.655,0.529-2.745,0.939c-0.471,0.177-0.846,0.027-1.022-0.42
					c-2.388-6.03-3.582-9.044-5.969-15.074c-0.187-0.472,0.093-0.855,0.74-1.099C543.938-96.194,544.696-96.453,546.219-96.921z"/>
				<path fill="#604E75" d="M555.556-99.058c0.71-0.108,1.1,0.096,1.168,0.6c0.533,3.935,0.799,5.902,1.332,9.837
					c0.262,1.934,0.558,3.054,2.637,2.864s2.168-1.344,2.075-3.293c-0.188-3.967-0.284-5.95-0.472-9.917
					c-0.024-0.507,0.357-0.78,1.038-0.801c1.604-0.05,2.407-0.049,4.011,0c0.716,0.022,1.061,0.293,1.036,0.801
					c-0.215,4.504-0.32,6.755-0.533,11.259c-0.079,1.67-0.666,5.734-6.758,6.288c-6.091,0.554-7.428-3.329-7.809-4.957
					c-1.026-4.391-1.542-6.584-2.568-10.975c-0.115-0.495,0.213-0.833,0.882-0.978C553.172-98.67,553.965-98.815,555.556-99.058z"/>
				<path fill="#604E75" d="M580.631-97.975c6.24,1.51,7.922,4.528,6.393,8.391s-4.182,4.655-9.254,3.427
					c-0.547-0.132-0.821-0.195-1.371-0.313c-0.544-0.116-0.91,0.07-1.008,0.568c-0.313,1.591-0.467,2.387-0.779,3.978
					c-0.098,0.497-0.407,0.695-0.922,0.603c-1.152-0.207-1.732-0.294-2.893-0.429c-0.492-0.057-0.747-0.362-0.699-0.84
					c0.641-6.443,0.961-9.664,1.604-16.107c0.051-0.505,0.431-0.724,1.146-0.666C575.982-99,577.546-98.722,580.631-97.975z
					 M578.979-90.347c1.479,0.363,2.252,0.444,2.688-1.064s-0.297-1.895-1.865-2.28c-0.706-0.173-1.059-0.257-1.769-0.409
					c-0.624-0.134-1.038,0.047-1.136,0.543c-0.148,0.756-0.222,1.134-0.37,1.89c-0.093,0.472,0.193,0.812,0.781,0.938
					C577.979-90.587,578.313-90.511,578.979-90.347z"/>
			</g>
		</g>
	</g>
	<g>
		<path fill="#E9E9EA" d="M642.208-179.415c-0.893,0-1.756,0.118-2.586,0.318c-8.77-28.624-38.908-49.725-74.753-49.725
			s-65.983,21.101-74.753,49.725c-0.83-0.201-1.693-0.318-2.586-0.318c-6.074,0-11,4.925-11,11c0,6.075,4.926,11,11,11
			c0.068,0,0.133-0.009,0.199-0.01c2.715,33.829,36.201,49.417,77.14,49.417c40.938,0,74.425-15.588,77.14-49.417
			c0.066,0.001,0.131,0.01,0.199,0.01c6.074,0,11-4.925,11-11C653.208-174.49,648.282-179.415,642.208-179.415z"/>
		<path fill="none" stroke="#000000" stroke-width="3" stroke-linecap="round" stroke-miterlimit="10" d="M509.407-174.431
			c0,2.075,1.561,5.25,5.006,5.25s5.214-2.635,5.214-5.213"/>
		<path fill="none" stroke="#000000" stroke-width="3" stroke-linecap="round" stroke-miterlimit="10" d="M514.518-179.221
			c0,2.075,1.561,5.25,5.006,5.25c1.539,0,2.744-0.526,3.605-1.338"/>
		<path fill="none" stroke="#000000" stroke-width="3" stroke-linecap="round" stroke-miterlimit="10" d="M614.433-179.221
			c0,2.075-1.561,5.25-5.006,5.25c-1.539,0-2.744-0.526-3.605-1.338"/>
		<path fill="none" stroke="#000000" stroke-width="3" stroke-linecap="round" stroke-miterlimit="10" d="M609.245-174.431
			c0,2.075,1.561,5.25,5.006,5.25s5.214-2.635,5.214-5.213"/>
		<g>
			<circle cx="524.127" cy="-171.707" r="7.5"/>
			<circle fill="#FFFFFF" cx="521.633" cy="-173.75" r="3.03"/>
		</g>
		<g>
			<circle cx="604.627" cy="-171.707" r="7.5"/>
			<circle fill="#FFFFFF" cx="602.133" cy="-173.75" r="3.03"/>
		</g>
		<path fill="none" stroke="#000000" stroke-width="3" stroke-linecap="round" stroke-miterlimit="10" d="M564.869-176.779
			c0,0,0.812,8.268,4.312,12.573l-4.312,3.555"/>
		<path fill="none" stroke="#000000" stroke-width="3" stroke-linecap="round" stroke-miterlimit="10" d="M552.601-153.944
			c0,5.106,3.842,12.917,12.318,12.917s12.827-6.482,12.827-12.827"/>
		<path fill="#604E75" d="M557.47-240.42c0,0-24.965,11-16.982,23.333s22.943-1.667,44.315,0
			c12.527,0.977,45.949,10.863,55.192,37.99c8.352,24.51-6.813,49.14-15.473,54.742c-8.66,5.604-22.548,31.751-16.387,45.648
			s28.668,28.953,52.334,20.286s18.666-23.333,18.666-23.333s-4,8.999-16,8.999s-31.332-16.667-16.666-52.333
			c14.666-35.667,12.495-75.284-14.373-98C614.354-238.086,587.47-250.087,557.47-240.42z"/>
		<path fill="#E9E9EA" d="M642.009-157.425c0.066,0.001,0.131,0.01,0.199,0.01c6.074,0,11-4.925,11-11c0-6.075-4.926-11-11-11
			c-0.893,0-1.756,0.118-2.586,0.318l-5.525,12.451L642.009-157.425z"/>
		<path fill="#604E75" d="M549.431-226.419c0,0-7.667,13-17.804,17.667c-10.418,4.796-31.542,3.521-41.511,29.657
			c-10.853,28.453,10.73,54.01,22.365,59.361c11.635,5.35,16.652,32.315,1.801,44.315s-56.853,13.333-60.186-15.667
			c0,0,9.001,11,19.334,9.334c10.333-1.667,26.334-16.667,8-38c-18.334-21.334-16.223-70.518,6-91.667
			C510.27-233.154,535.764-241.086,549.431-226.419z"/>
		<path fill="#E9E9EA" d="M487.73-157.425c-0.066,0.001-0.131,0.01-0.199,0.01c-6.074,0-11-4.925-11-11c0-6.075,4.926-11,11-11
			c0.893,0,1.756,0.118,2.586,0.318l5.525,12.451L487.73-157.425z"/>
		<circle fill="#C4C4C3" cx="519.002" cy="-145.048" r="9.595"/>
		<circle fill="#C4C4C3" cx="611.246" cy="-145.048" r="9.595"/>
	</g>
</g>
<g>
	<g>
		<path fill="#E9E9EA" d="M824.748-108.977h2.438c5.94,0,10.8,4.86,10.8,10.8v32.733c0,5.939-4.859,10.8-10.8,10.8h-2.438V-108.977z
			"/>
		<path fill="#E9E9EA" d="M745.841-108.977h-2.438c-5.94,0-10.801,4.86-10.801,10.8v32.733c0,5.939,4.86,10.8,10.801,10.8h2.438
			V-108.977z"/>
		<path fill="#604E75" d="M827.186-108.977h-2.438h-78.907h-2.438c-5.94,0-10.801,4.86-10.801,10.8v5.699h13.238v54.5h78.907v-54.5
			h13.237v-5.699C837.985-104.117,833.126-108.977,827.186-108.977z"/>
		<polygon fill="#5B5C5C" points="745.841,-37.978 745.841,-21.311 745.841,18.356 774.63,18.356 774.63,-21.311 795.958,-21.311 
			795.958,18.356 824.748,18.356 824.748,-21.311 824.748,-37.978 		"/>
		<path d="M760.235,32.75c7.949,0,14.395-6.444,14.395-14.395h-28.789C745.841,26.306,752.285,32.75,760.235,32.75z"/>
		<path d="M810.353,32.75c7.951,0,14.396-6.444,14.396-14.395h-28.79C795.958,26.306,802.403,32.75,810.353,32.75z"/>
		<path fill="#5B5C5C" d="M760.235,3.961c-7.95,0-14.395,6.444-14.395,14.395h28.789C774.63,10.406,768.185,3.961,760.235,3.961z"/>
		<path fill="#5B5C5C" d="M810.353,3.961c-7.949,0-14.395,6.444-14.395,14.395h28.79C824.748,10.406,818.304,3.961,810.353,3.961z"
			/>
		<g>
			<g>
				<path fill="#B69FCC" d="M766.337-90.115c0.694-0.214,1.112-0.068,1.253,0.419c1.804,6.229,2.708,9.343,4.513,15.571
					c0.134,0.462-0.041,0.801-0.546,0.956c-1.106,0.341-1.656,0.527-2.745,0.938c-0.472,0.178-0.847,0.028-1.023-0.42
					c-2.388-6.029-3.582-9.043-5.969-15.073c-0.187-0.471,0.093-0.856,0.741-1.1C764.059-89.388,764.814-89.646,766.337-90.115z"/>
				<path fill="#B69FCC" d="M775.676-92.251c0.711-0.108,1.1,0.098,1.168,0.601c0.532,3.936,0.801,5.901,1.333,9.837
					c0.262,1.934,0.558,3.051,2.638,2.862c2.078-0.189,2.164-1.341,2.071-3.291c-0.188-3.967-0.282-5.95-0.47-9.917
					c-0.023-0.506,0.358-0.782,1.039-0.803c1.604-0.05,2.406-0.049,4.01,0c0.715,0.022,1.063,0.295,1.039,0.802
					c-0.214,4.504-0.322,6.755-0.535,11.259c-0.079,1.67-0.667,5.734-6.758,6.288c-6.092,0.554-7.428-3.328-7.809-4.956
					c-1.026-4.39-1.543-6.584-2.569-10.975c-0.115-0.494,0.212-0.833,0.883-0.979C773.292-91.864,774.086-92.009,775.676-92.251z"/>
				<path fill="#B69FCC" d="M800.752-91.168c6.239,1.511,7.92,4.528,6.391,8.39s-4.182,4.654-9.253,3.426
					c-0.547-0.132-0.821-0.196-1.371-0.314c-0.544-0.117-0.907,0.073-1.005,0.57c-0.313,1.591-0.47,2.385-0.782,3.976
					c-0.098,0.497-0.406,0.693-0.921,0.601c-1.152-0.207-1.73-0.294-2.891-0.429c-0.492-0.057-0.748-0.359-0.7-0.838
					c0.641-6.442,0.961-9.663,1.604-16.106c0.05-0.504,0.43-0.724,1.146-0.666C796.104-92.193,797.668-91.915,800.752-91.168z
					 M799.103-83.541c1.479,0.363,2.254,0.445,2.689-1.064s-0.298-1.896-1.867-2.281c-0.706-0.173-1.061-0.255-1.771-0.407
					c-0.624-0.134-1.039,0.045-1.137,0.542c-0.148,0.755-0.222,1.133-0.37,1.889c-0.093,0.472,0.196,0.812,0.785,0.938
					C798.102-83.781,798.437-83.705,799.103-83.541z"/>
			</g>
		</g>
	</g>
	<g>
		<path fill="#E9E9EA" d="M862.329-173.609c-0.893,0-1.756,0.118-2.586,0.318c-8.77-28.624-38.908-49.726-74.753-49.726
			s-65.983,21.102-74.753,49.726c-0.83-0.2-1.693-0.318-2.586-0.318c-6.074,0-11,4.925-11,11s4.926,11,11,11
			c0.068,0,0.133-0.009,0.199-0.011c2.715,33.829,36.201,49.417,77.14,49.417c40.938,0,74.425-15.588,77.14-49.417
			c0.066,0.002,0.131,0.011,0.199,0.011c6.074,0,11-4.925,11-11S868.403-173.609,862.329-173.609z"/>
		<path fill="none" stroke="#000000" stroke-width="3" stroke-linecap="round" stroke-miterlimit="10" d="M784.99-170.973
			c0,0,0.812,8.268,4.312,12.572l-4.312,3.555"/>
		<path fill="none" stroke="#000000" stroke-width="3" stroke-linecap="round" stroke-miterlimit="10" d="M772.722-148.138
			c0,5.106,3.842,12.917,12.318,12.917s12.827-6.482,12.827-12.827"/>
		<path fill="#604E75" d="M735.659-93.9c4.591-11.506-4.857-20.418-10.387-24.648c-8.191-6.268-23.824-30.232-15.473-54.742
			c9.243-27.128,42.665-37.013,55.192-37.99c21.372-1.667,36.333,12.333,44.315,0s-16.982-23.333-16.982-23.333
			c-30-9.668-56.885,2.333-74.627,17.333c-26.868,22.716-31.902,63.65-14.373,98c5.55,10.875,8.467,16.334-1.2,21.167
			c0,0-5.5,3.833-7.5,0.667c0,0-0.167,4.333,7,5c0,0-1.333,3.05-4.333,2.107c0,0,3.812,1.742,6.771,0.434
			c0,0-0.375,1.813-2.75,1.875C698.727-87.962,728.927-77.027,735.659-93.9z"/>
		<path fill="#604E75" d="M835.513-90.614c-10.229-10.833-3.265-19.167,1.801-23.315c9.908-8.114,33.218-30.908,22.365-59.361
			c-9.969-26.136-31.093-24.86-41.511-29.657c-10.137-4.666-17.804-17.666-17.804-17.666c13.667-14.666,39.161-6.734,62,15
			c22.223,21.148,20.735,67.705,6,91.667c-5.739,9.333-2.333,15.333,8,17c0,0,5.095,1.76,7.095-0.537s-1.333,4.37-5.5,4.37
			s-1.499,1.499,2.167,1.833c0,0-2.927,1.5-6.797,1.334c0,0-1.037,0.666,0.963,1.5C874.292-88.447,844.728-80.855,835.513-90.614z"
			/>
		<path fill="#E9E9EA" d="M862.13-151.62c0.066,0.002,0.131,0.01,0.199,0.01c6.074,0,11-4.925,11-11c0-6.074-4.926-11-11-11
			c-0.893,0-1.756,0.118-2.586,0.318l-5.525,12.451L862.13-151.62z"/>
		<path fill="#E9E9EA" d="M707.852-151.62c-0.066,0.002-0.131,0.01-0.199,0.01c-6.074,0-11-4.925-11-11c0-6.074,4.926-11,11-11
			c0.893,0,1.756,0.118,2.586,0.318l5.525,12.451L707.852-151.62z"/>
		<circle fill="#C4C4C3" cx="739.123" cy="-139.243" r="9.595"/>
		<circle fill="#C4C4C3" cx="831.367" cy="-139.243" r="9.595"/>
		<path fill="none" stroke="#000000" stroke-width="3" stroke-linecap="round" stroke-miterlimit="10" d="M732.117-170.187
			c0,2.075,1.561,5.25,5.006,5.25s5.214-2.635,5.214-5.213"/>
		<path fill="none" stroke="#000000" stroke-width="3" stroke-linecap="round" stroke-miterlimit="10" d="M737.227-174.977
			c0,2.075,1.561,5.25,5.006,5.25c1.54,0,2.744-0.526,3.605-1.338"/>
		<path fill="none" stroke="#000000" stroke-width="3" stroke-linecap="round" stroke-miterlimit="10" d="M837.143-174.977
			c0,2.075-1.561,5.25-5.006,5.25c-1.539,0-2.744-0.526-3.605-1.338"/>
		<path fill="none" stroke="#000000" stroke-width="3" stroke-linecap="round" stroke-miterlimit="10" d="M831.955-170.187
			c0,2.075,1.561,5.25,5.006,5.25s5.214-2.635,5.214-5.213"/>
		<g>
			<circle cx="746.837" cy="-167.462" r="7.5"/>
			<circle fill="#FFFFFF" cx="744.343" cy="-169.505" r="3.03"/>
		</g>
		<g>
			<circle cx="827.337" cy="-167.462" r="7.5"/>
			<circle fill="#FFFFFF" cx="824.843" cy="-169.505" r="3.03"/>
		</g>
	</g>
</g>
<g>
	<g>
		<path fill="#E9E9EA" d="M572.37,184.792h2.438c5.94,0,10.801,4.86,10.801,10.8v32.733c0,5.939-4.86,10.8-10.801,10.8h-2.438
			V184.792z"/>
		<path fill="#E9E9EA" d="M493.463,184.792h-2.438c-5.939,0-10.8,4.86-10.8,10.8v32.733c0,5.939,4.86,10.8,10.8,10.8h2.438V184.792z
			"/>
		<path fill="#5B5C5C" d="M574.808,184.792h-2.438h-78.907h-2.438c-5.939,0-10.8,4.86-10.8,10.8v5.699h13.237v54.5h78.907v-54.5
			h13.238v-5.699C585.608,189.653,580.748,184.792,574.808,184.792z"/>
		<polygon fill="#604E75" points="493.463,255.792 493.463,272.458 493.463,312.125 522.253,312.125 522.253,272.458 
			543.581,272.458 543.581,312.125 572.37,312.125 572.37,272.458 572.37,255.792 		"/>
		<path d="M507.857,326.52c7.95,0,14.396-6.444,14.396-14.395h-28.79C493.463,320.076,499.908,326.52,507.857,326.52z"/>
		<path d="M557.976,326.52c7.95,0,14.395-6.444,14.395-14.395h-28.789C543.581,320.076,550.026,326.52,557.976,326.52z"/>
		<path fill="#604E75" d="M507.857,297.731c-7.949,0-14.395,6.444-14.395,14.395h28.79
			C522.253,304.175,515.808,297.731,507.857,297.731z"/>
		<path fill="#604E75" d="M557.976,297.731c-7.949,0-14.395,6.444-14.395,14.395h28.789
			C572.37,304.175,565.926,297.731,557.976,297.731z"/>
		<g>
			<g>
				<path fill="#E9E9EA" d="M499.573,206.875c1.461-0.578,2.196-0.854,3.675-1.366c0.197,0.566,0.295,0.85,0.492,1.416
					c-0.319,0.11-0.477,0.166-0.795,0.28c0.728,2.033,1.09,3.05,1.817,5.082c0.3-0.107,0.449-0.158,0.749-0.263
					c0.195,0.562,0.292,0.843,0.487,1.404c-1.343,0.466-2.01,0.716-3.337,1.241c-0.219-0.553-0.329-0.83-0.548-1.383
					c0.297-0.117,0.444-0.175,0.742-0.289c-0.775-2.015-1.163-3.023-1.938-5.038c-0.316,0.122-0.475,0.185-0.79,0.31
					C499.907,207.712,499.794,207.433,499.573,206.875z"/>
				<path fill="#E9E9EA" d="M511.227,203.119c1.384-0.343,2.08-0.5,3.473-0.788c0.121,0.587,0.182,0.881,0.303,1.468
					c-0.328,0.067-0.492,0.104-0.819,0.175c0.585,2.7,0.879,4.049,1.463,6.75c-0.48,0.104-0.721,0.158-1.199,0.27
					c-2.036-1.686-3.1-2.498-5.317-4.053c0.41,1.444,0.614,2.165,1.023,3.609c0.157-0.045,0.918-0.256,0.918-0.256
					c0.157,0.579,0.235,0.87,0.393,1.449c-1.251,0.34-1.873,0.521-3.113,0.91c-0.18-0.572-0.268-0.857-0.447-1.43
					c0.359-0.113,0.54-0.168,0.9-0.277c-0.625-2.071-0.938-3.107-1.563-5.179c-0.384,0.116-0.576,0.177-0.959,0.297
					c-0.18-0.572-0.271-0.858-0.45-1.431c1.163-0.365,1.747-0.539,2.919-0.864c1.862,1.35,2.765,2.048,4.501,3.486
					c-0.275-1.167-0.415-1.75-0.69-2.917c-0.389,0.092-0.586,0.139-0.974,0.234C511.442,203.991,511.371,203.701,511.227,203.119z"
					/>
				<path fill="#E9E9EA" d="M526.055,204.928c0.198,2.402-1.542,4.328-3.812,4.631c-1.451,0.193-2.177,0.307-3.62,0.564
					c-0.106-0.596-0.161-0.894-0.268-1.489c0.295-0.053,0.444-0.076,0.739-0.126c-0.358-2.119-0.538-3.18-0.897-5.299
					c-0.314,0.053-0.473,0.082-0.786,0.138c-0.107-0.6-0.158-0.899-0.266-1.499c1.59-0.283,2.386-0.407,3.984-0.62
					C523.816,200.871,525.857,202.527,526.055,204.928z M521.114,208.189c0.257-0.037,0.387-0.055,0.644-0.09
					c1.84-0.251,2.341-1.638,2.198-2.974c-0.144-1.347-1.151-2.591-2.925-2.349c-0.273,0.037-0.411,0.059-0.684,0.098
					C520.655,205.001,520.807,206.061,521.114,208.189z"/>
				<path fill="#E9E9EA" d="M527.609,200.633c1.541-0.095,2.313-0.125,3.855-0.154c0.012,0.6,0.019,0.9,0.03,1.5
					c-0.333,0.006-0.504,0.01-0.837,0.02c0.061,2.158,0.093,3.234,0.153,5.392c0.313-0.009,0.471-0.012,0.784-0.018
					c0.012,0.595,0.016,0.893,0.027,1.487c-1.401,0.026-2.1,0.055-3.499,0.141c-0.036-0.594-0.057-0.892-0.093-1.485
					c0.313-0.02,0.472-0.028,0.784-0.045c-0.112-2.155-0.17-3.229-0.282-5.386c-0.333,0.018-0.499,0.026-0.832,0.047
					C527.664,201.533,527.646,201.232,527.609,200.633z"/>
				<path fill="#E9E9EA" d="M539.396,200.663c0,0,2.488,6.83,2.619,7.134c0.371,0.039,0.558,0.059,0.929,0.102
					c-0.069,0.596-0.104,0.893-0.174,1.488c-1.399-0.163-2.103-0.229-3.506-0.332c0.044-0.594,0.066-0.89,0.11-1.482
					c0.184,0.014,0.275,0.021,0.459,0.035c-0.125-0.311-0.227-0.621-0.367-0.944c-0.993-0.073-1.49-0.101-2.484-0.145
					c-0.157,0.358-0.233,0.537-0.388,0.896c0.185,0.008,0.276,0.011,0.461,0.02c-0.027,0.594-0.042,0.892-0.069,1.486
					c-1.216-0.056-1.822-0.073-3.039-0.084c0.006-0.6,0.008-0.898,0.014-1.498c0.373,0.003,0.559,0.006,0.932,0.014
					c0.316-0.894,3.297-6.763,3.297-6.763c0.494,0.027,0.741,0.04,1.235,0.074C539.414,200.662,539.407,200.664,539.396,200.663z
					 M539.016,205.129c-0.256-0.686-0.386-1.026-0.653-1.71c-0.325,0.648-0.488,0.973-0.803,1.624
					C538.142,205.073,538.434,205.09,539.016,205.129z"/>
				<path fill="#E9E9EA" d="M551.498,202.293c1.393,0.285,2.089,0.439,3.473,0.779c-0.143,0.582-0.217,0.872-0.359,1.454
					c-0.326-0.08-0.487-0.119-0.814-0.196c-0.634,2.689-0.952,4.035-1.586,6.725c-0.479-0.112-0.718-0.168-1.197-0.273
					c-1.113-2.396-1.721-3.586-3.044-5.942c-0.252,1.48-0.379,2.218-0.63,3.698c0.16,0.027,0.937,0.164,0.937,0.164
					c-0.107,0.59-0.161,0.887-0.269,1.477c-1.269-0.23-1.906-0.334-3.182-0.515c0.084-0.594,0.126-0.892,0.21-1.485
					c0.37,0.053,0.558,0.082,0.928,0.139c0.327-2.139,0.49-3.208,0.817-5.347c-0.394-0.061-0.591-0.089-0.984-0.145
					c0.084-0.594,0.125-0.891,0.209-1.484c1.196,0.17,1.794,0.265,2.985,0.474c1.093,2.019,1.601,3.034,2.548,5.079
					c0.254-1.172,0.383-1.758,0.637-2.93c-0.391-0.084-0.586-0.125-0.978-0.205C551.318,203.172,551.378,202.881,551.498,202.293z"
					/>
				<path fill="#E9E9EA" d="M562.663,205.333c0,0,0.684,7.261,0.734,7.589c0.354,0.136,0.53,0.205,0.884,0.345
					c-0.221,0.558-0.332,0.834-0.553,1.392c-1.332-0.527-2.001-0.774-3.35-1.242c0.195-0.563,0.291-0.843,0.486-1.405
					c0.177,0.062,0.267,0.092,0.442,0.154c-0.042-0.333-0.063-0.656-0.117-1.006c-0.953-0.331-1.433-0.491-2.394-0.793
					c-0.245,0.306-0.368,0.459-0.61,0.766c0.178,0.055,0.266,0.082,0.443,0.138c-0.18,0.567-0.269,0.851-0.448,1.418
					c-1.173-0.371-1.76-0.545-2.943-0.871c0.159-0.578,0.239-0.866,0.398-1.444c0.363,0.1,0.543,0.152,0.905,0.257
					c0.539-0.782,4.958-5.683,4.958-5.683c0.477,0.155,0.715,0.235,1.189,0.397C562.679,205.339,562.674,205.336,562.663,205.333z
					 M561.14,209.555c-0.075-0.729-0.113-1.095-0.2-1.825c-0.485,0.542-0.726,0.813-1.2,1.361
					C560.301,209.272,560.58,209.365,561.14,209.555z"/>
			</g>
		</g>
	</g>
	<g>
		<path fill="#E9E9EA" d="M609.942,121.161c-0.893,0-1.756,0.118-2.586,0.318c-8.77-28.624-38.908-49.725-74.753-49.725
			c-35.846,0-65.984,21.101-74.752,49.725c-0.831-0.201-1.693-0.318-2.586-0.318c-6.076,0-11,4.925-11,11c0,6.075,4.924,11,11,11
			c0.066,0,0.132-0.009,0.199-0.01c2.713,33.829,36.201,49.417,77.139,49.417s74.425-15.588,77.14-49.417
			c0.066,0.001,0.131,0.01,0.199,0.01c6.074,0,11-4.925,11-11C620.942,126.085,616.017,121.161,609.942,121.161z"/>
		<g>
			<circle cx="491.861" cy="128.869" r="7.5"/>
			<circle fill="#FFFFFF" cx="489.367" cy="126.826" r="3.029"/>
		</g>
		<g>
			<circle cx="572.361" cy="128.869" r="7.5"/>
			<circle fill="#FFFFFF" cx="569.867" cy="126.826" r="3.03"/>
		</g>
		<path fill="none" stroke="#000000" stroke-width="3" stroke-linecap="round" stroke-miterlimit="10" d="M532.604,123.796
			c0,0,0.812,8.268,4.312,12.573l-4.312,3.555"/>
		<path fill="none" stroke="#000000" stroke-width="3" stroke-linecap="round" stroke-miterlimit="10" d="M520.335,146.631
			c0,5.106,3.842,12.917,12.318,12.917s12.827-6.482,12.827-12.827"/>
		<path fill="#B69FCC" d="M584.418,83.425L584.418,83.425C584.418,83.425,584.418,83.424,584.418,83.425
			c-1.28-0.946-2.444-1.776-3.42-2.501c-1.853-1.379-4.369-2.847-7.429-4.276c-16.112-12.402-23.727-29.564-23.727-29.564
			c-3,9.667-8.751,6.667-8.751,6.667c-2.751-1-3.083-6-3.083-6c-0.5,3.5-4,6.5-6.666,4.167c-2.667-2.333-4-11.5-4-11.5
			s-1.5,18-8.334,16.833c-6.833-1.167-6.166-5.167-6.166-5.167c-0.968,10.89-16.194,21.368-24.47,26.295
			c-1.881,0.93-3.637,1.909-5.25,2.928c-0.002,0-0.012,0.005-0.012,0.005h0.002c-2.631,1.663-4.881,3.431-6.615,5.279
			c-10.324,11.001-19.127,25.778-18.646,34.889c0,0,2.813,3.335,2.813,7.39h5.5c0,0,0.5-26.445,16-36.445
			c0,0,25.348-10.674,48.515-9.841c23.166,0.833,50.819,8.674,50.819,8.674c19.667,12.667,17.667,37.612,17.667,37.612h5.332
			c0.166-4.055,2.859-7.39,2.859-7.39C605.561,100.292,592.549,89.429,584.418,83.425z"/>
	</g>
</g>
<g>
	<g>
		<path fill="#E9E9EA" d="M138.139,145.222h2.438c5.939,0,10.799,4.86,10.799,10.8v32.733c0,5.939-4.859,10.8-10.799,10.8h-2.438
			V145.222z"/>
		<path fill="#E9E9EA" d="M59.23,145.222h-2.438c-5.94,0-10.8,4.86-10.8,10.8v32.733c0,5.939,4.859,10.8,10.8,10.8h2.438V145.222z"
			/>
		<path fill="#B69FCC" d="M140.576,145.222h-2.438H59.23h-2.438c-5.94,0-10.8,4.86-10.8,10.8v5.699H59.23v54.5h78.909v-54.5h13.236
			v-5.699C151.375,150.083,146.516,145.222,140.576,145.222z"/>
		<polygon fill="#C4C4C3" points="59.23,216.221 59.23,232.888 59.23,272.555 88.02,272.555 88.02,232.888 109.348,232.888 
			109.348,272.555 138.139,272.555 138.139,232.888 138.139,216.221 		"/>
		<path d="M73.625,286.95c7.95,0,14.396-6.444,14.396-14.395H59.23C59.23,280.505,65.674,286.95,73.625,286.95z"/>
		<path d="M123.742,286.95c7.951,0,14.396-6.444,14.396-14.395h-28.791C109.348,280.505,115.793,286.95,123.742,286.95z"/>
		<path fill="#C4C4C3" d="M73.625,258.161c-7.95,0-14.395,6.444-14.395,14.395h28.79C88.02,264.605,81.575,258.161,73.625,258.161z"
			/>
		<path fill="#C4C4C3" d="M123.742,258.161c-7.949,0-14.395,6.444-14.395,14.395h28.791
			C138.139,264.605,131.693,258.161,123.742,258.161z"/>
		<g>
			<g>
				<path fill="#5B5C5C" d="M72.529,169.447c0.005,1.075-0.327,2.528-2.474,3.264c-2.124,0.728-4.296-0.303-5.158-2.48
					c-0.926-2.339,0.151-4.519,2.486-5.319c0.799-0.274,1.464-0.329,1.833-0.277c-0.054-0.168-0.082-0.252-0.136-0.42
					c0.628-0.201,0.943-0.3,1.574-0.489c0.373,1.24,0.56,1.859,0.933,3.099c-0.608,0.183-0.913,0.277-1.519,0.472
					c-0.055-0.172-0.083-0.258-0.138-0.431c-0.177-0.552-0.979-0.923-2.067-0.55c-0.762,0.261-1.617,1.203-0.91,3.13
					c0.659,1.796,1.906,2.118,2.623,1.873c1.172-0.402,1.434-1.559,1.388-1.703C71.592,169.542,71.905,169.507,72.529,169.447z"/>
				<path fill="#5B5C5C" d="M81.824,168.077c0.104,0.575,0.157,0.862,0.261,1.437c-0.802,0.146-1.202,0.224-2.001,0.39
					c-0.327-0.074-1.008-0.378-1.227-1.375c-0.124-0.566-0.824-1.608-2.049-1.47c0.189,0.79,0.285,1.184,0.474,1.974
					c0.297-0.071,0.446-0.106,0.744-0.174c0.131,0.569,0.197,0.855,0.328,1.425c-1.323,0.304-1.983,0.47-3.295,0.829
					c-0.154-0.564-0.23-0.847-0.385-1.41c0.347-0.095,0.521-0.142,0.868-0.232c-0.53-2.023-0.796-3.034-1.327-5.058
					c-0.369,0.097-0.552,0.146-0.92,0.247c-0.153-0.559-0.229-0.839-0.382-1.398c1.506-0.412,2.264-0.601,3.782-0.947
					c2.024-0.461,2.906,0.708,3.105,1.721c0.168,0.853-0.406,1.819-0.383,1.995c0.032,0.243,1.002,1.146,1.168,1.987
					c0.056,0.284,0.36,0.227,0.36,0.227C81.296,168.174,81.472,168.141,81.824,168.077z M77.089,165.504
					c0.715-0.166,0.962-0.656,0.868-1.086s-0.498-0.794-1.104-0.655c-0.316,0.073-0.474,0.109-0.79,0.185
					c0.163,0.681,0.244,1.021,0.407,1.703C76.717,165.59,76.842,165.561,77.089,165.504z"/>
				<path fill="#5B5C5C" d="M83.048,161.132c1.458-0.225,2.188-0.322,3.65-0.488c0.065,0.577,0.097,0.866,0.162,1.442
					c-0.316,0.036-0.474,0.055-0.79,0.094c0.253,2.071,0.381,3.106,0.634,5.178c0.297-0.037,0.446-0.055,0.744-0.089
					c0.065,0.571,0.098,0.858,0.163,1.43c-1.333,0.151-1.999,0.241-3.327,0.446c-0.088-0.569-0.131-0.854-0.219-1.422
					c0.296-0.046,0.445-0.068,0.742-0.111c-0.3-2.065-0.451-3.097-0.751-5.162c-0.315,0.046-0.473,0.068-0.788,0.117
					C83.18,161.994,83.136,161.706,83.048,161.132z"/>
				<path fill="#5B5C5C" d="M97.734,160.046c1.024,0.009,1.537,0.02,2.561,0.058c-0.021,0.58-0.033,0.869-0.054,1.448
					c-0.378-0.014-0.567-0.02-0.945-0.029c-0.055,2.091-0.082,3.137-0.136,5.228c0.356,0.009,0.535,0.014,0.891,0.027
					c-0.021,0.579-0.033,0.87-0.054,1.449c-1.338-0.049-2.007-0.061-3.346-0.056c-0.002-0.58-0.002-0.87-0.005-1.449
					c0.233-0.001,0.349,0,0.582,0c0.003-1.048,0.005-1.572,0.008-2.621c-0.798,1.625-1.179,2.442-1.902,4.085
					c-0.354,0.007-0.532,0.013-0.887,0.023c0,0-1.741-2.985-2.417-4.097c0.062,1.098,0.093,1.646,0.156,2.744
					c0.237-0.014,0.354-0.021,0.592-0.032c0.029,0.579,0.042,0.868,0.071,1.447c-1.166,0.058-1.746,0.098-2.91,0.196
					c-0.049-0.578-0.074-0.867-0.123-1.444c0.36-0.031,0.54-0.045,0.9-0.072c-0.155-2.086-0.233-3.128-0.388-5.214
					c-0.382,0.028-0.574,0.043-0.956,0.075c-0.049-0.578-0.072-0.866-0.121-1.443c0.96-0.082,1.441-0.116,2.403-0.172
					c1.404,2.07,2.068,3.118,3.323,5.236C96.011,163.262,96.563,162.184,97.734,160.046z"/>
				<path fill="#5B5C5C" d="M109.063,166.714c-0.329,2.295-2.647,1.993-3.38,1.916c-0.731-0.077-1.563-0.441-1.821-1.044
					c-0.028,0.347-0.045,0.52-0.073,0.866c-0.582-0.048-0.874-0.07-1.456-0.107c0.086-1.333,0.131-2,0.218-3.333
					c0.605,0.039,0.909,0.062,1.514,0.111c-0.024,0.291-0.036,0.438-0.061,0.729c-0.048,0.578,0.65,1.215,1.538,1.306
					c0.745,0.076,1.653-0.118,1.705-0.544c0.088-0.726-0.484-0.967-1.802-1.506c-1.006-0.412-2.68-0.954-2.573-2.55
					c0.087-1.295,1.59-2.235,3.352-2.055c1.122,0.114,1.54,0.614,1.639,1.07c0.043-0.35,0.065-0.525,0.108-0.875
					c0.643,0.078,0.96,0.12,1.602,0.209c-0.153,1.094-0.229,1.64-0.382,2.733c-0.622-0.087-0.933-0.126-1.556-0.202
					c0.007-0.056,0.009-0.083,0.016-0.139c0.052-0.425-0.322-1.215-1.577-1.343c-0.478-0.049-1.132,0.182-1.171,0.621
					c-0.038,0.427,0.439,0.635,1.465,1.019C107.534,164.033,109.353,164.693,109.063,166.714z"/>
				<path fill="#5B5C5C" d="M119.254,167.024c-0.795,3.003-3.1,3.482-4.875,3.101c-1.901-0.409-3.646-1.898-3.16-4.826
					c0.465-2.802,2.818-3.775,4.912-3.325C118.086,162.393,120.02,164.132,119.254,167.024z M117.113,166.487
					c0.381-1.602-0.183-2.812-1.299-3.051c-1.266-0.271-2.257,0.606-2.564,2.224c-0.304,1.594,0.252,2.758,1.441,3.014
					C115.74,168.899,116.738,168.066,117.113,166.487z"/>
				<path fill="#5B5C5C" d="M127.317,165.245c1.289,0.455,1.931,0.695,3.206,1.2c-0.214,0.539-0.322,0.809-0.536,1.348
					c-0.301-0.119-0.45-0.178-0.752-0.294c-0.961,2.494-1.439,3.739-2.4,6.233c-0.442-0.171-0.667-0.254-1.111-0.418
					c-0.746-2.442-1.169-3.663-2.111-6.093c-0.439,1.384-0.659,2.075-1.099,3.459c0.149,0.047,0.871,0.281,0.871,0.281
					c-0.182,0.551-0.273,0.825-0.455,1.376c-1.181-0.389-1.771-0.571-2.961-0.914c0.16-0.557,0.24-0.836,0.4-1.394
					c0.346,0.1,0.517,0.15,0.861,0.254c0.601-2.004,0.902-3.005,1.503-5.009c-0.366-0.11-0.549-0.164-0.916-0.27
					c0.161-0.557,0.244-0.836,0.405-1.393c1.113,0.321,1.666,0.49,2.771,0.847c0.769,2.077,1.119,3.119,1.751,5.201
					c0.397-1.089,0.599-1.634,0.996-2.724c-0.361-0.132-0.546-0.196-0.908-0.324C127.026,166.064,127.124,165.792,127.317,165.245z"
					/>
			</g>
		</g>
		<g>
			<g>
				<path fill="#5B5C5C" d="M76.862,182.607c1.414,0.45,2.126,0.653,3.556,1.024c-0.15,0.58-0.226,0.873-0.376,1.453
					c-0.307-0.079-0.459-0.122-0.766-0.205c-0.565,2.084-0.848,3.127-1.413,5.211c0.331,0.09,0.494,0.132,0.825,0.218
					c-0.15,0.581-0.225,0.869-0.375,1.45c-1.608-0.417-2.409-0.646-3.998-1.152c0.182-0.571,0.272-0.854,0.454-1.426
					c0.395,0.126,0.593,0.185,0.989,0.305c0.244-0.804,0.365-1.204,0.609-2.008c-1.149-0.349-1.721-0.536-2.859-0.934
					c-0.277,0.793-0.414,1.189-0.69,1.982c0.392,0.137,0.588,0.206,0.981,0.337c-0.189,0.569-0.285,0.852-0.474,1.421
					c-1.584-0.528-2.371-0.814-3.931-1.432c0.221-0.558,0.331-0.837,0.552-1.395c0.321,0.127,0.482,0.19,0.805,0.313
					c0.771-2.017,1.156-3.025,1.928-5.042c-0.299-0.114-0.447-0.172-0.745-0.29c0.221-0.558,0.331-0.837,0.551-1.395
					c1.388,0.55,2.087,0.805,3.496,1.274c-0.189,0.569-0.285,0.855-0.475,1.425c-0.365-0.122-0.547-0.186-0.911-0.313
					c-0.237,0.68-0.355,1.019-0.592,1.698c1.114,0.389,1.674,0.571,2.799,0.912c0.209-0.688,0.313-1.034,0.522-1.723
					c-0.367-0.111-0.55-0.166-0.916-0.282C76.59,183.465,76.681,183.178,76.862,182.607z"/>
				<path fill="#5B5C5C" d="M87.52,185.069c0,0,2.183,6.923,2.329,7.228c0.402,0.041,0.604,0.059,1.006,0.094
					c-0.052,0.598-0.079,0.896-0.131,1.493c-1.577-0.139-2.364-0.226-3.934-0.446c0.083-0.589,0.124-0.886,0.207-1.475
					c0.198,0.027,0.297,0.042,0.495,0.068c-0.121-0.318-0.213-0.632-0.341-0.966c-1.045-0.146-1.568-0.229-2.609-0.413
					c-0.211,0.333-0.316,0.497-0.53,0.829c0.197,0.036,0.294,0.053,0.491,0.087c-0.103,0.586-0.154,0.88-0.256,1.466
					c-1.353-0.237-2.026-0.37-3.37-0.669c0.13-0.585,0.195-0.879,0.325-1.464c0.396,0.088,0.595,0.13,0.992,0.213
					c0.501-0.815,4.237-6.213,4.237-6.213c0.445,0.073,0.669,0.106,1.115,0.172C87.535,185.072,87.53,185.07,87.52,185.069z
					 M86.789,189.497c-0.207-0.705-0.307-1.058-0.5-1.764c-0.382,0.614-0.576,0.922-0.971,1.531
					C85.907,189.364,86.2,189.41,86.789,189.497z"/>
				<path fill="#5B5C5C" d="M99.82,185.733c1.221-0.045,1.829-0.08,3.047-0.18c0.049,0.603,0.076,0.906,0.125,1.509
					c-0.313,0.025-0.47,0.036-0.784,0.059c-0.149,0.011-0.143,0.139-0.143,0.139c-0.754,2.768-1.177,4.148-2.117,6.894
					c-0.555,0.019-0.833,0.026-1.387,0.035c-0.648-1.736-0.955-2.607-1.532-4.356c-0.655,1.743-1.002,2.611-1.736,4.339
					c-0.483-0.013-0.725-0.022-1.208-0.043c-0.847-2.683-1.227-4.031-1.905-6.732c0.013-0.168-0.127-0.309-0.289-0.321
					c-0.314-0.025-0.471-0.038-0.785-0.066c0.055-0.602,0.082-0.903,0.137-1.505c1.466,0.133,2.2,0.179,3.669,0.232
					c-0.022,0.604-0.031,0.907-0.053,1.511c-0.25-0.009-0.376-0.014-0.625-0.025c0.32,1.216,0.49,1.82,0.842,3.032
					c0.714-1.782,1.049-2.679,1.68-4.477c0.425,0.004,0.637,0.003,1.062,0c0.628,1.8,0.963,2.698,1.673,4.482
					c0.355-1.211,0.525-1.817,0.848-3.032c-0.185,0.008-0.278,0.013-0.462,0.02C99.854,186.642,99.842,186.336,99.82,185.733z"/>
				<path fill="#5B5C5C" d="M114.466,190.709c0.333-0.078,0.497-0.121,0.829-0.203c0.143,0.577,0.216,0.868,0.359,1.445
					c-1.611,0.399-2.42,0.576-4.046,0.887c-0.111-0.584-0.169-0.878-0.28-1.462c-1.127-0.825-1.678-1.247-2.744-2.113
					c0.159,1.01,0.241,1.514,0.4,2.523c0.336-0.053,0.504-0.079,0.84-0.136c0.1,0.587,0.151,0.879,0.251,1.466
					c-1.56,0.265-2.345,0.377-3.913,0.56c-0.068-0.591-0.106-0.887-0.175-1.478c0.338-0.039,0.507-0.06,0.844-0.103
					c-0.275-2.151-0.411-3.226-0.687-5.376c-0.313,0.04-0.47,0.06-0.783,0.096c-0.068-0.591-0.102-0.887-0.17-1.478
					c1.396-0.162,2.089-0.266,3.477-0.501c0.1,0.587,0.148,0.882,0.248,1.469c-0.312,0.053-0.467,0.078-0.778,0.127
					c0.085,0.535,0.129,0.805,0.213,1.34c0.842-0.856,1.252-1.292,2.041-2.173c-0.08-0.415-0.124-0.622-0.204-1.037
					c1.205-0.233,1.807-0.364,3.002-0.652c0.14,0.578,0.21,0.871,0.35,1.449c-0.372,0.09-0.56,0.131-0.932,0.215
					c-0.221,0.05-0.332,0.225-0.664,0.625c-0.242,0.292-1.029,1.279-1.582,1.834c1.238,0.989,1.879,1.473,3.197,2.406
					C113.821,190.627,114.136,190.788,114.466,190.709z"/>
				<path fill="#5B5C5C" d="M124.445,186.622c0.883,2.23-1.728,3.213-2.558,3.496c-0.829,0.283-1.902,0.309-2.42-0.159
					c0.106,0.344,0.159,0.517,0.265,0.86c-0.663,0.204-0.997,0.301-1.664,0.49c-0.376-1.329-0.566-1.992-0.943-3.321
					c0.637-0.181,0.955-0.274,1.588-0.47c0.089,0.289,0.135,0.433,0.224,0.722c0.177,0.573,1.174,0.895,2.144,0.569
					c0.814-0.273,1.659-0.909,1.507-1.327c-0.259-0.71-0.949-0.624-2.491-0.558c-1.18,0.051-3.05,0.149-3.505-1.442
					c-0.369-1.291,0.666-2.688,2.284-3.231c1.032-0.347,1.614-0.082,1.912,0.295c-0.125-0.343-0.186-0.513-0.311-0.855
					c0.587-0.214,0.88-0.323,1.463-0.551c0.416,1.063,0.624,1.596,1.04,2.659c-0.607,0.237-0.913,0.353-1.525,0.575
					c-0.02-0.055-0.03-0.083-0.05-0.138c-0.151-0.417-0.848-0.956-2.047-0.554c-0.455,0.153-0.967,0.632-0.828,1.066
					c0.135,0.423,0.668,0.444,1.809,0.351C121.636,184.992,123.668,184.659,124.445,186.622z"/>
			</g>
		</g>
	</g>
	<g>
		<path fill="#E9E9EA" d="M175.709,80.39c-0.893,0-1.754,0.117-2.586,0.318c-8.768-28.625-38.906-49.726-74.752-49.726
			c-35.845,0-65.983,21.101-74.753,49.726c-0.83-0.201-1.693-0.318-2.586-0.318c-6.074,0-11,4.924-11,11c0,6.074,4.926,11,11,11
			c0.068,0,0.133-0.01,0.199-0.011c2.715,33.828,36.201,49.416,77.14,49.416c40.938,0,74.426-15.588,77.139-49.416
			c0.068,0.001,0.133,0.011,0.199,0.011c6.076,0,11-4.926,11-11C186.709,85.314,181.785,80.39,175.709,80.39z"/>
		<g>
			<circle cx="57.628" cy="88.097" r="7.5"/>
			<circle fill="#FFFFFF" cx="55.134" cy="86.054" r="3.03"/>
		</g>
		<g>
			<circle cx="138.129" cy="88.097" r="7.5"/>
			<circle fill="#FFFFFF" cx="135.635" cy="86.054" r="3.029"/>
		</g>
		<path fill="none" stroke="#000000" stroke-width="3" stroke-linecap="round" stroke-miterlimit="10" d="M98.371,83.025
			c0,0,0.812,8.268,4.311,12.572l-4.311,3.555"/>
		<path fill="none" stroke="#000000" stroke-width="3" stroke-linecap="round" stroke-miterlimit="10" d="M86.102,105.861
			c0,5.105,3.842,12.916,12.318,12.916c8.476,0,12.828-6.481,12.828-12.826"/>
		<path fill="#604E75" d="M98.674,7.384C86.946,30.983,62.416,32.679,54.141,37.607c-1.883,0.93-3.639,1.908-5.252,2.928
			l-0.01,0.005h0.002C46.25,42.203,44,43.97,42.265,45.819C31.941,56.82,23.138,71.597,23.618,80.708c0,0,2.814,3.334,2.814,7.389
			h5.5c0,0,0.5-26.445,16-36.445c0,0,25.348-10.674,48.514-9.84c23.167,0.833,50.82,8.674,50.82,8.674
			c19.666,12.667,17.666,37.611,17.666,37.611h5.334c0.166-4.055,2.857-7.389,2.857-7.389
			c-1.795-21.188-14.807-32.051-22.938-38.055l0,0l0,0c-1.281-0.946-2.445-1.775-3.42-2.502c-1.854-1.379-4.369-2.846-7.428-4.275
			C108.113,28.551,98.674,7.384,98.674,7.384z"/>
	</g>
</g>
<g>
	<g>
		<path fill="#E9E9EA" d="M843.758,193.961h2.438c5.94,0,10.8,4.86,10.8,10.8v32.733c0,5.939-4.859,10.801-10.8,10.801h-2.438
			V193.961z"/>
		<path fill="#E9E9EA" d="M764.851,193.961h-2.438c-5.94,0-10.801,4.86-10.801,10.8v32.733c0,5.939,4.86,10.801,10.801,10.801h2.438
			V193.961z"/>
		<path fill="#333333" d="M846.195,193.961h-2.438h-78.907h-2.438c-5.94,0-10.801,4.86-10.801,10.8v5.699h13.238v54.501h78.907
			V210.46h13.237v-5.699C856.995,198.822,852.136,193.961,846.195,193.961z"/>
		<polygon fill="#B69FCC" points="764.851,264.961 764.851,281.627 764.851,321.295 793.64,321.295 793.64,281.627 814.968,281.627 
			814.968,321.295 843.758,321.295 843.758,281.627 843.758,264.961 		"/>
		<path d="M779.245,335.69c7.949,0,14.395-6.445,14.395-14.395h-28.789C764.851,329.245,771.295,335.69,779.245,335.69z"/>
		<path d="M829.362,335.69c7.951,0,14.396-6.445,14.396-14.395h-28.79C814.968,329.245,821.413,335.69,829.362,335.69z"/>
		<path fill="#B69FCC" d="M779.245,306.901c-7.95,0-14.395,6.443-14.395,14.395h28.789
			C793.64,313.344,787.194,306.901,779.245,306.901z"/>
		<path fill="#B69FCC" d="M829.362,306.901c-7.949,0-14.395,6.443-14.395,14.395h28.79
			C843.758,313.344,837.313,306.901,829.362,306.901z"/>
		<g>
			<g>
				<path fill="#B69FCC" d="M780.583,212.477c1.531-0.451,2.301-0.659,3.847-1.036c0.162,0.665,0.244,0.998,0.406,1.663
					c-0.459,0.112-0.689,0.169-1.146,0.287c-0.075,1.263-1.269,7.851-1.242,8.559c-0.533,0.164-0.798,0.248-1.328,0.422
					c-0.389-0.593-5.555-5.688-5.988-6.256c-0.439,0.167-0.659,0.252-1.097,0.425c-0.252-0.637-0.378-0.954-0.63-1.591
					c1.645-0.651,2.473-0.953,4.142-1.515c0.218,0.648,0.328,0.972,0.546,1.62c-0.148,0.05-0.223,0.075-0.37,0.126
					c0.648,0.689,3.133,3.495,3.133,3.495c0.151-0.039,0.689-3.631,0.781-4.725c-0.228,0.065-0.342,0.099-0.569,0.166
					C780.873,213.461,780.776,213.133,780.583,212.477z"/>
				<path fill="#B69FCC" d="M799.082,214.882c-0.111,1.588-0.162,2.38-0.252,3.968c-3.276,0.242-4.913,0.455-8.155,1.06
					c-0.125-0.673-0.188-1.01-0.313-1.683c0.354-0.066,0.533-0.097,0.889-0.158c-0.424-2.433-0.637-3.651-1.061-6.084
					c-0.384,0.067-0.574,0.103-0.958,0.174c-0.125-0.673-0.188-1.008-0.313-1.681c3.424-0.639,5.149-0.868,8.608-1.148
					c0.501,1.267,0.743,1.9,1.214,3.174c-0.761,0.053-1.139,0.084-1.898,0.154c-0.244-0.665-0.528-1.513-1.679-1.384
					c-1,0.112-1.499,0.175-2.497,0.317c0.117,0.818,0.173,1.23,0.29,2.049c0.525-0.075,0.788-0.111,1.314-0.178
					c-0.035-0.276-0.052-0.414-0.087-0.69c0.754-0.095,1.13-0.14,1.885-0.217c0.126,1.23,0.19,1.85,0.316,3.08
					c-0.726,0.074-1.089,0.116-1.813,0.207c-0.034-0.271-0.051-0.407-0.085-0.679c-0.515,0.064-0.773,0.098-1.288,0.171
					c0.136,0.948,0.205,1.423,0.341,2.371c1.138-0.163,1.706-0.235,2.848-0.354c0.525-0.055,0.768-1.286,0.866-2.326
					C797.984,214.958,798.35,214.931,799.082,214.882z"/>
				<path fill="#B69FCC" d="M811.992,217.328c-0.069,0.687-0.104,1.03-0.174,1.717c-0.966-0.099-1.45-0.139-2.418-0.205
					c-0.352-0.188-1.035-0.752-0.971-1.954c0.037-0.684-0.438-2.09-1.904-2.31c-0.027,0.958-0.042,1.435-0.068,2.393
					c0.365,0.011,0.548,0.017,0.912,0.031c-0.027,0.689-0.043,1.035-0.07,1.725c-1.609-0.065-2.414-0.075-4.024-0.053
					c-0.01-0.689-0.017-1.037-0.026-1.727c0.428-0.006,0.642-0.006,1.069-0.006c0-2.47,0.001-3.706,0.003-6.175
					c-0.462,0-0.693,0.001-1.155,0.008c-0.009-0.685-0.015-1.023-0.023-1.708c1.9-0.026,2.851-0.013,4.75,0.068
					c2.531,0.108,3.188,1.734,3.088,2.948c-0.085,1.022-1.069,1.938-1.099,2.14c-0.041,0.281,0.788,1.623,0.705,2.634
					c-0.028,0.341,0.341,0.374,0.341,0.374C811.354,217.265,811.566,217.285,811.992,217.328z M807.34,212.89
					c0.886,0.033,1.332-0.446,1.36-0.966c0.028-0.519-0.327-1.063-1.082-1.094c-0.395-0.016-0.592-0.022-0.986-0.033
					c-0.023,0.826-0.037,1.239-0.061,2.065C806.878,212.872,807.033,212.878,807.34,212.89z"/>
				<path fill="#B69FCC" d="M825.916,216.87c-0.751,2.646-3.401,3.994-5.964,3.442c-1.639-0.353-2.461-0.505-4.112-0.764
					c0.106-0.682,0.158-1.022,0.265-1.704c0.339,0.053,0.508,0.081,0.847,0.138c0.407-2.419,0.61-3.623,1.02-6.042
					c-0.366-0.062-0.549-0.093-0.915-0.15c0.108-0.687,0.162-1.03,0.271-1.717c1.864,0.293,2.793,0.464,4.643,0.862
					C825.079,211.605,826.668,214.223,825.916,216.87z M819.263,218.41c0.292,0.059,0.438,0.087,0.73,0.148
					c2.09,0.44,3.179-0.837,3.552-2.323c0.376-1.5-0.242-3.242-2.289-3.674c-0.315-0.066-0.475-0.1-0.79-0.163
					C819.982,214.802,819.744,216.004,819.263,218.41z"/>
				<path fill="#B69FCC" d="M830.884,213.417c1.735,0.579,2.597,0.894,4.306,1.57c-0.252,0.637-0.379,0.954-0.631,1.591
					c-0.367-0.146-0.549-0.219-0.918-0.359c-0.879,2.301-1.322,3.453-2.202,5.754c0.341,0.131,0.512,0.197,0.852,0.332
					c-0.25,0.631-0.373,0.947-0.623,1.578c-1.515-0.6-2.277-0.878-3.814-1.392c0.215-0.644,0.321-0.967,0.536-1.61
					c0.345,0.115,0.518,0.172,0.861,0.291c0.809-2.327,1.214-3.486,2.022-5.813c-0.372-0.129-0.557-0.195-0.93-0.32
					C830.56,214.389,830.667,214.067,830.884,213.417z"/>
			</g>
		</g>
	</g>
	<g>
		<path fill="#E9E9EA" d="M881.339,128.33c-0.893,0-1.756,0.117-2.586,0.318c-8.77-28.624-38.908-49.725-74.753-49.725
			s-65.983,21.101-74.753,49.725c-0.83-0.201-1.693-0.318-2.586-0.318c-6.074,0-11,4.925-11,11c0,6.074,4.926,11,11,11
			c0.068,0,0.133-0.009,0.199-0.01c2.715,33.828,36.201,49.416,77.14,49.416c40.938,0,74.425-15.588,77.14-49.416
			c0.066,0.001,0.131,0.01,0.199,0.01c6.074,0,11-4.926,11-11C892.339,133.254,887.413,128.33,881.339,128.33z"/>
		<path fill="none" stroke="#000000" stroke-width="3" stroke-linecap="round" stroke-miterlimit="10" d="M804,130.964
			c0,0,0.812,8.269,4.312,12.573L804,147.092"/>
		<g>
			<path fill="#FFFFFF" d="M816.572,166.807c0,6.346-4.351,12.827-12.827,12.827s-12.318-7.812-12.318-12.917
				c2.218,2.538,6.267,4.654,12.506,4.654C809.938,171.372,814.127,169.13,816.572,166.807z"/>
			<path fill="none" stroke="#000000" stroke-width="3" stroke-linecap="round" stroke-miterlimit="10" d="M791.427,166.717
				c2.218,2.538,6.267,4.654,12.506,4.654c6.005,0,10.194-2.241,12.64-4.564"/>
			<path fill="none" stroke="#000000" stroke-width="3" stroke-linecap="round" stroke-miterlimit="10" d="M791.427,166.717
				c0,5.105,3.842,12.917,12.318,12.917s12.827-6.481,12.827-12.827"/>
		</g>
		<path fill="#E9E9EA" d="M881.14,150.319c0.066,0.001,0.131,0.011,0.199,0.011c6.074,0,11-4.926,11-11c0-6.076-4.926-11-11-11
			c-0.893,0-1.756,0.117-2.586,0.318l-5.525,12.45L881.14,150.319z"/>
		<path fill="#E9E9EA" d="M726.861,150.319c-0.066,0.001-0.131,0.011-0.199,0.011c-6.074,0-11-4.926-11-11c0-6.076,4.926-11,11-11
			c0.893,0,1.756,0.117,2.586,0.318l5.525,12.45L726.861,150.319z"/>
		<circle fill="#C4C4C3" cx="758.133" cy="162.696" r="9.595"/>
		<circle fill="#C4C4C3" cx="850.377" cy="162.696" r="9.595"/>
		<path fill="#604E75" d="M726.562,96.325c-22.223,21.149-24.334,70.333-6,91.667c18.334,21.333,2.333,36.333-8,38.001
			c-10.333,1.666-19.334-9.335-19.334-9.335c0.396,3.443,1.352,6.446,2.728,9.069c-2.298-1.246-4.663-2.78-5.65-4.243
			c0,0,4.06,8.138,10.563,10.583c1.052,0.959,2.184,1.832,3.389,2.613c-4.779,3.223-11.028,3.232-11.028,3.232
			c21.871,4.82,29.543,3.684,32.228,2.422c0.044,0,0.088,0.002,0.131,0.002c-6.029,5.188-15.043,5.576-15.043,5.576
			c15.602-0.252,24.275-3.078,29.048-5.824c-3.5,4.729-7.381,7.49-7.381,7.49c6.907-1.828,11.89-7.023,15.076-11.568
			c0.249-0.113,0.495-0.23,0.737-0.348c-1.121,7.074-2.813,8.916-2.813,8.916c7.493-7.066,11.745-14.213,14.116-19.516
			c1.328-2.517,2.225-5.243,2.737-8.048c0.056-0.271,0.08-0.419,0.08-0.419s-0.004,0.002-0.005,0.002
			c2.012-11.918-2.79-25.031-10.526-28.589c-11.635-5.352-33.218-30.908-22.365-59.361c9.969-26.136,31.093-24.861,41.511-29.656
			c10.137-4.667,17.804-17.667,17.804-17.667C774.895,66.658,749.4,74.589,726.562,96.325z"/>
		<path fill="#604E75" d="M845.847,223.134c-0.075,12.132,5.55,21.569,17.363,32.11c0,0-1.79-4.334,3.293-7.783
			c0.05,0.023,0.098,0.049,0.147,0.074c2.565,4.865,9.68,11.211,29.393,10.377c0,0-5.979-0.936-10.978-5.67
			c5.228,1.791,15.366,3.506,31.978-0.363c0,0-9.593,0.264-8.694-6.748c13.529-8.51,9.918-19.139,9.918-19.139s-4,8.998-16,8.998
			s-31.332-16.667-16.666-52.333s12.495-75.284-14.373-98c-17.742-15-44.627-27-74.627-17.334c0,0-24.965,11-16.982,23.334
			s22.943-1.666,44.315,0c12.527,0.977,45.949,10.863,55.192,37.99c8.352,24.51-6.813,49.141-15.473,54.742
			C856.764,187.848,845.896,211.015,845.847,223.134z"/>
		<path fill="none" stroke="#000000" stroke-width="3" stroke-linecap="round" stroke-miterlimit="10" d="M751.127,129.572
			c0,2.075,1.561,5.25,5.006,5.25s5.214-2.635,5.214-5.213"/>
		<path fill="none" stroke="#000000" stroke-width="3" stroke-linecap="round" stroke-miterlimit="10" d="M756.236,124.782
			c0,2.075,1.561,5.25,5.006,5.25c1.54,0,2.744-0.526,3.605-1.338"/>
		<path fill="none" stroke="#000000" stroke-width="3" stroke-linecap="round" stroke-miterlimit="10" d="M856.152,124.782
			c0,2.075-1.561,5.25-5.006,5.25c-1.539,0-2.744-0.526-3.605-1.338"/>
		<path fill="none" stroke="#000000" stroke-width="3" stroke-linecap="round" stroke-miterlimit="10" d="M850.965,129.572
			c0,2.075,1.561,5.25,5.006,5.25s5.214-2.635,5.214-5.213"/>
		<g>
			<circle cx="765.847" cy="132.296" r="7.5"/>
			<circle fill="#FFFFFF" cx="763.353" cy="130.253" r="3.03"/>
		</g>
		<g>
			<circle cx="846.347" cy="132.296" r="7.5"/>
			<circle fill="#FFFFFF" cx="843.853" cy="130.253" r="3.03"/>
		</g>
	</g>
</g>
</svg>
