<?xml version="1.0" encoding="utf-8"?>
<!-- Generator: Adobe Illustrator 15.0.0, SVG Export Plug-In . SVG Version: 6.00 Build 0)  -->
<!DOCTYPE svg PUBLIC "-//W3C//DTD SVG 1.1//EN" "http://www.w3.org/Graphics/SVG/1.1/DTD/svg11.dtd">
<svg version="1.1" id="Layer_1" xmlns="http://www.w3.org/2000/svg" xmlns:xlink="http://www.w3.org/1999/xlink" x="0px" y="0px"
	 width="792px" height="612px" viewBox="0 0 792 612" enable-background="new 0 0 792 612" xml:space="preserve">
<g>
	<rect x="379.085" y="305.285" fill="#FFFFFF" width="13.948" height="20.303"/>
	<rect x="397.763" y="305.285" fill="#FFFFFF" width="13.948" height="20.303"/>
	<rect x="378.344" y="298.702" fill="#FFFFFF" width="14.69" height="4.6"/>
	<rect x="397.763" y="298.702" fill="#FFFFFF" width="14.69" height="4.6"/>
	<path fill="#FFFFFF" d="M406.246,289.125c-1.412-1.423-4.979-2.648-6.529-0.993c-1.775,1.897-3.884,5.405-4.283,8.416
		c-0.491-3.273-2.947-7.083-4.962-9.095c-1.73-1.728-5.529-0.276-6.997,1.308c-3.635,3.92,10.057,11.408,11.977,10.093
		C397.248,300.037,409.743,292.65,406.246,289.125z M400.156,295.375c-1.904,2.02-4.038,3.105-4.694,3.442
		c-0.709-0.324-3.103-1.572-5.243-3.692c-2.547-2.523-3.957-5.158-3.713-5.404c0.243-0.245,2.917,1.131,5.463,3.654
		c2.089,2.069,3.104,4.425,3.489,5.171c0.333-0.704,1.389-2.874,3.261-4.858c2.282-2.419,4.514-3.797,4.747-3.577
		S402.439,292.957,400.156,295.375z"/>
</g>
</svg>
