<?xml version="1.0" encoding="utf-8"?>
<!-- Generator: Adobe Illustrator 15.0.0, SVG Export Plug-In . SVG Version: 6.00 Build 0)  -->
<!DOCTYPE svg PUBLIC "-//W3C//DTD SVG 1.1//EN" "http://www.w3.org/Graphics/SVG/1.1/DTD/svg11.dtd">
<svg version="1.1" id="Layer_1" xmlns="http://www.w3.org/2000/svg" xmlns:xlink="http://www.w3.org/1999/xlink" x="0px" y="0px"
	 width="792px" height="612px" viewBox="0 0 792 612" enable-background="new 0 0 792 612" xml:space="preserve">
<path fill="#FFFFFF" d="M411.483,299.115c0,4.409-2.763,8.908-8.288,13.496c-3.845,3.184-8.612,6.133-14.303,8.847
	c0.207-1.089,0.31-2.129,0.31-3.121c0-2.563-0.813-4.892-2.439-6.985c-1.516-1.682-3.039-3.355-4.568-5.023
	c-1.626-2.039-2.439-4.271-2.439-6.697c0-2.383,0.803-4.343,2.408-5.88c1.605-1.536,3.607-2.305,6.004-2.305
	c1.64,0,3.163,0.427,4.568,1.282c1.529,0.937,2.501,2.156,2.914,3.658c1.681-3.293,4.162-4.94,7.441-4.94
	c2.205,0,4.134,0.716,5.787,2.149C410.615,295.099,411.483,296.938,411.483,299.115z"/>
</svg>
