<?xml version="1.0" encoding="utf-8"?>
<!-- Generator: Adobe Illustrator 15.0.0, SVG Export Plug-In . SVG Version: 6.00 Build 0)  -->
<!DOCTYPE svg PUBLIC "-//W3C//DTD SVG 1.1//EN" "http://www.w3.org/Graphics/SVG/1.1/DTD/svg11.dtd">
<svg version="1.1" id="Layer_1" xmlns="http://www.w3.org/2000/svg" xmlns:xlink="http://www.w3.org/1999/xlink" x="0px" y="0px"
	 width="792px" height="612px" viewBox="0 0 792 612" enable-background="new 0 0 792 612" xml:space="preserve">
<path fill="#FFFFFF" d="M401.93,297.208l-7.165,20.711c-0.481,1.393-0.721,2.224-0.721,2.492c0,0.318,0.113,0.574,0.338,0.77
	c0.225,0.196,0.488,0.293,0.789,0.293c0.39,0,0.826-0.158,1.307-0.477c1.381-0.879,2.778-2.138,4.19-3.775l1.262,0.697
	c-1.652,2.028-3.59,3.751-5.813,5.168c-1.622,1.026-3.185,1.539-4.686,1.539c-0.991,0-1.802-0.238-2.433-0.715
	s-0.946-1.08-0.946-1.814c0-0.732,0.3-1.941,0.901-3.629l4.731-13.232c0.75-2.15,1.126-3.506,1.126-4.069
	c0-0.415-0.188-0.764-0.563-1.044c-0.376-0.281-0.878-0.422-1.509-0.422c-0.541,0-1.652,0.11-3.334,0.33v-1.137L401.93,297.208z
	 M400.155,287.632c1.021,0,1.877,0.288,2.568,0.861c0.69,0.575,1.036,1.265,1.036,2.071c0,0.806-0.354,1.503-1.059,2.089
	c-0.706,0.586-1.555,0.88-2.546,0.88s-1.847-0.293-2.567-0.88c-0.721-0.586-1.082-1.283-1.082-2.089
	c0-0.807,0.353-1.497,1.059-2.071C398.271,287.919,399.135,287.632,400.155,287.632z"/>
</svg>
