<?xml version="1.0" encoding="utf-8"?>
<!-- Generator: Adobe Illustrator 16.0.0, SVG Export Plug-In . SVG Version: 6.00 Build 0)  -->
<!DOCTYPE svg PUBLIC "-//W3C//DTD SVG 1.1//EN" "http://www.w3.org/Graphics/SVG/1.1/DTD/svg11.dtd">
<svg version="1.1" id="Layer_1" xmlns="http://www.w3.org/2000/svg" xmlns:xlink="http://www.w3.org/1999/xlink" x="0px" y="0px"
	 width="182.5px" height="294.334px" viewBox="0 0 182.5 294.334" enable-background="new 0 0 182.5 294.334" xml:space="preserve">
<g>
	<g>
		<path fill="#E9E9EA" d="M130.87,147.968h2.438c5.939,0,10.801,4.86,10.801,10.801v32.732c0,5.939-4.86,10.8-10.801,10.8h-2.438
			V147.968z"/>
		<path fill="#E9E9EA" d="M51.963,147.968h-2.438c-5.939,0-10.8,4.86-10.8,10.801v32.732c0,5.939,4.86,10.8,10.8,10.8h2.438V147.968
			z"/>
		<path fill="#B596BC" d="M133.309,147.968h-2.438H51.963h-2.438c-5.939,0-10.8,4.86-10.8,10.801v5.698h13.237v54.5h78.907v-54.5
			h13.238v-5.698C144.107,152.829,139.248,147.968,133.309,147.968z"/>
		<polygon fill="#C1C1C1" points="51.963,218.967 51.963,235.634 51.963,275.301 80.753,275.301 80.753,235.634 102.081,235.634 
			102.081,275.301 130.87,275.301 130.87,235.634 130.87,218.967 		"/>
		<path d="M66.357,289.696c7.95,0,14.396-6.444,14.396-14.396h-28.79C51.963,283.251,58.408,289.696,66.357,289.696z"/>
		<path d="M116.477,289.696c7.949,0,14.395-6.444,14.395-14.396h-28.789C102.081,283.251,108.525,289.696,116.477,289.696z"/>
		<path fill="#C1C1C1" d="M66.357,260.907c-7.949,0-14.395,6.443-14.395,14.395h28.79C80.753,267.351,74.308,260.907,66.357,260.907
			z"/>
		<path fill="#C1C1C1" d="M116.477,260.907c-7.949,0-14.396,6.443-14.396,14.395h28.789
			C130.87,267.351,124.426,260.907,116.477,260.907z"/>
	</g>
	<g>
		<path fill="#E9E9EA" d="M168.441,84.336c-0.893,0-1.756,0.118-2.586,0.318c-8.77-28.624-38.907-49.725-74.752-49.725
			c-35.846,0-65.984,21.101-74.752,49.725c-0.831-0.201-1.693-0.318-2.586-0.318c-6.076,0-11,4.925-11,11s4.924,11,11,11
			c0.066,0,0.132-0.009,0.199-0.01c2.713,33.829,36.201,49.417,77.139,49.417s74.424-15.588,77.14-49.417
			c0.065,0.001,0.131,0.01,0.198,0.01c6.074,0,11-4.925,11-11S174.518,84.336,168.441,84.336z"/>
		<g>
			<circle cx="50.361" cy="92.044" r="7.5"/>
			<circle fill="#FFFFFF" cx="47.867" cy="90.001" r="3.029"/>
		</g>
		<g>
			<circle cx="130.861" cy="92.044" r="7.5"/>
			<circle fill="#FFFFFF" cx="128.367" cy="90.001" r="3.03"/>
		</g>
		<path fill="none" stroke="#000000" stroke-width="3" stroke-linecap="round" stroke-miterlimit="10" d="M91.104,86.972
			c0,0,0.812,8.268,4.312,12.573l-4.312,3.555"/>
		<path fill="none" stroke="#000000" stroke-width="3" stroke-linecap="round" stroke-miterlimit="10" d="M78.835,109.807
			c0,5.106,3.842,12.917,12.318,12.917s12.828-6.482,12.828-12.827"/>
		<path fill="#939393" d="M142.918,46.601L142.918,46.601C142.918,46.601,142.918,46.6,142.918,46.601
			c-1.279-0.946-2.443-1.776-3.42-2.501c-1.854-1.379-4.369-2.847-7.43-4.276c-16.111-12.402-23.727-29.564-23.727-29.564
			c-3,9.667-8.751,6.667-8.751,6.667c-2.751-1-3.083-6-3.083-6c-0.5,3.5-4,6.5-6.666,4.167c-2.667-2.333-4-11.5-4-11.5
			s-1.5,18-8.334,16.833c-6.833-1.167-6.166-5.167-6.166-5.167c-0.968,10.89-16.194,21.368-24.47,26.295
			c-1.881,0.93-3.637,1.909-5.25,2.928c-0.002,0-0.012,0.005-0.012,0.005h0.002c-2.631,1.663-4.881,3.431-6.615,5.279
			c-10.323,11-19.126,25.777-18.645,34.888c0,0,2.813,3.335,2.813,7.39h5.5c0,0,0.5-26.445,16-36.445
			c0,0,25.348-10.674,48.515-9.841c23.166,0.833,50.819,8.674,50.819,8.674c19.667,12.667,17.667,37.612,17.667,37.612h5.332
			c0.166-4.055,2.859-7.39,2.859-7.39C164.061,63.468,151.049,52.605,142.918,46.601z"/>
	</g>
</g>
<g>
	<g>
		<path d="M64.628,167.021c0.68,3.115,1.02,4.674,1.7,7.789c0.013,0.062,0.004,0.114-0.026,0.162
			c-0.031,0.049-0.078,0.079-0.138,0.092c-0.06,0.014-0.117,0.009-0.16-0.019c-0.049-0.03-0.081-0.084-0.094-0.146
			c-0.062-0.277-0.093-0.416-0.155-0.693c-0.245-1.104-0.643-2.182-1.189-3.223c-0.713-1.356-1.49-2.268-2.324-2.711
			c-0.321-0.172-0.695-0.205-1.12-0.1c-0.287,0.072-0.491,0.225-0.614,0.443c-0.157,0.281-0.185,0.662-0.063,1.132
			c1.732,6.678,2.598,10.017,4.331,16.694c0.108,0.416,0.268,0.692,0.481,0.838c0.213,0.144,0.456,0.184,0.731,0.113
			c0.355-0.088,0.681-0.334,0.983-0.73c0.303-0.398,0.491-0.883,0.573-1.449c0.167-1.154,0.125-2.398-0.168-3.717
			c-0.192-0.865-0.289-1.299-0.481-2.164c-0.02-0.087-0.015-0.154,0.015-0.207c0.028-0.052,0.072-0.085,0.13-0.098
			c0.048-0.012,0.091-0.002,0.127,0.023c0.068,0.051,0.116,0.114,0.133,0.193c0.189,0.865,0.283,1.301,0.473,2.167
			c0.445,2.04,0.377,3.657-0.155,4.856c-0.38,0.855-0.971,1.387-1.794,1.594c-0.61,0.154-1.187,0.104-1.74-0.149
			s-1.106-0.794-1.646-1.617c-1.012-1.54-1.883-3.511-2.578-5.903c-0.258-0.887-0.387-1.33-0.645-2.219
			c-0.5-1.722-0.806-3.404-0.896-5.052c-0.089-1.647,0.18-2.951,0.812-3.875c0.428-0.625,1.008-1.03,1.722-1.21
			c0.852-0.215,1.74,0.08,2.637,0.884c0.38-0.667,0.573-0.999,0.966-1.663C64.523,167.046,64.559,167.038,64.628,167.021z"/>
		<path d="M66.637,167.098c-0.397,0.079-0.596,0.119-0.993,0.202c-0.13-0.036-0.201-0.077-0.21-0.122
			c-0.011-0.053,0.036-0.121,0.141-0.207c2.138-0.449,3.211-0.648,5.362-1.002c0.054-0.009,0.103-0.003,0.145,0.021
			c0.042,0.023,0.068,0.06,0.075,0.104c0.009,0.055-0.005,0.1-0.038,0.137c-0.032,0.039-0.076,0.063-0.129,0.071
			c-0.425,0.069-0.637,0.104-1.062,0.179c1.332,7.697,1.997,11.545,3.329,19.244c0.228-0.039,0.342-0.058,0.569-0.096
			c0.406-0.066,0.746-0.238,1.021-0.514c0.273-0.274,0.502-0.787,0.692-1.539c0.28-1.109,0.44-2.301,0.475-3.565
			c0.035-1.265,0.03-2.079,0.002-2.419c-0.01-0.123,0-0.211,0.023-0.25c0.043-0.021,0.065-0.031,0.108-0.053
			c0.047,0.01,0.07,0.013,0.117,0.021c0.042,0.031,0.065,0.068,0.071,0.112c0.375,3.216,0.564,4.825,0.946,8.04
			c-3.038,0.402-4.553,0.661-7.562,1.294c-0.045,0.011-0.087,0.002-0.123-0.021c-0.037-0.023-0.061-0.06-0.071-0.108
			c-0.011-0.052-0.005-0.097,0.021-0.133c0.025-0.036,0.062-0.058,0.106-0.066c0.337-0.071,0.507-0.105,0.845-0.175
			C68.954,178.592,68.182,174.76,66.637,167.098z"/>
		<path d="M79.662,165.145c0.716-0.064,1.073-0.096,1.789-0.148c1.75,7.729,2.532,11.605,3.91,19.386
			c0.245-0.013,0.37-0.017,0.615-0.026c0.104,0.056,0.154,0.108,0.156,0.162c0.002,0.051-0.046,0.108-0.143,0.174
			c-1.637,0.074-2.456,0.129-4.089,0.271c-0.045,0.004-0.082-0.011-0.112-0.037c-0.03-0.028-0.046-0.065-0.051-0.116
			c-0.004-0.053,0.004-0.095,0.029-0.127c0.025-0.031,0.061-0.053,0.106-0.057c0.261-0.021,0.393-0.034,0.655-0.055
			c-0.264-1.518-0.399-2.275-0.673-3.791c-1.038,0.086-1.557,0.138-2.593,0.25c-0.024,0.873-0.034,1.311-0.054,2.184
			c0.004,0.117,0.012,0.236,0.026,0.361c0.043,0.393,0.153,0.683,0.325,0.867c0.172,0.184,0.392,0.283,0.661,0.301
			c0.09,0.018,0.135,0.025,0.226,0.043c0.039,0.031,0.063,0.076,0.068,0.129c0.005,0.055-0.006,0.1-0.034,0.133
			c-0.029,0.034-0.065,0.055-0.11,0.061c-0.927,0.094-1.39,0.146-2.315,0.261c-0.045,0.006-0.086-0.004-0.121-0.031
			c-0.035-0.026-0.056-0.069-0.063-0.125c-0.007-0.053,0.001-0.098,0.023-0.137c0.063-0.029,0.093-0.043,0.156-0.072
			c0.258-0.067,0.453-0.213,0.57-0.425c0.183-0.33,0.277-0.868,0.288-1.6C79.046,175.85,79.2,172.279,79.662,165.145z
			 M79.709,170.174c-0.23,4.202-0.318,6.305-0.438,10.502c0.995-0.107,1.493-0.156,2.49-0.24
			C80.983,176.324,80.572,174.271,79.709,170.174z"/>
		<path d="M86.889,164.762c-0.384,0.012-0.574,0.021-0.959,0.035c-0.121-0.05-0.185-0.107-0.188-0.171
			c-0.002-0.053,0.058-0.11,0.174-0.169c2.052-0.079,3.076-0.096,5.128-0.088c1.271,0.005,2.371,0.472,3.266,1.393
			c0.896,0.922,1.297,2.157,1.23,3.698c-0.037,0.888-0.24,1.668-0.604,2.345c-0.363,0.678-0.875,1.23-1.537,1.661
			c-0.398,0.261-1.83,0.75-1.83,0.75c0,0.036,1.535,0.499,1.885,0.729c0.592,0.394,1.023,0.858,1.291,1.398
			c0.268,0.539,0.379,1.229,0.344,2.07c-0.082,1.966-0.121,2.947-0.203,4.914c-0.008,0.223,0.02,0.382,0.09,0.474
			c0.068,0.093,0.162,0.144,0.281,0.148c0.182,0.009,0.354-0.099,0.512-0.314c0.254-0.345,0.451-0.985,0.561-1.907
			c0.02-0.16,0.049-0.267,0.094-0.316c0.045-0.053,0.092-0.079,0.139-0.076c0.057,0.003,0.102,0.041,0.135,0.104
			c0.041,0.073,0.061,0.211,0.049,0.406c-0.061,0.993-0.355,1.746-0.867,2.264c-0.516,0.517-1.131,0.758-1.861,0.732
			c-0.648-0.021-1.137-0.197-1.465-0.535c-0.328-0.337-0.492-0.809-0.484-1.418c0.041-2.845,0.063-4.267,0.104-7.111
			c0.008-0.608-0.156-1.024-0.488-1.229c-0.193-0.119-0.662-0.182-1.395-0.18c0.012,3.951,0.018,5.928,0.029,9.88
			c0.268-0.001,0.4-0.001,0.668,0c0.072,0,0.129,0.019,0.168,0.053c0.041,0.034,0.063,0.076,0.063,0.119s-0.021,0.079-0.063,0.112
			c-0.043,0.035-0.098,0.053-0.172,0.053c-1.713-0.006-2.57,0.008-4.285,0.074c-0.055,0.002-0.1-0.014-0.137-0.041
			c-0.037-0.028-0.06-0.067-0.062-0.118c-0.002-0.053,0.017-0.094,0.052-0.125s0.081-0.051,0.137-0.053
			c0.321-0.013,0.481-0.019,0.805-0.027C87.25,176.48,87.129,172.576,86.889,164.762z M90.256,164.717
			c0.012,3.721,0.016,5.58,0.027,9.301c0.293,0,0.439,0.002,0.73,0.002c0.35,0.002,0.629-0.104,0.854-0.315
			c0.221-0.212,0.336-0.525,0.342-0.938c0.039-2.789,0.059-4.185,0.098-6.975c0.006-0.402-0.076-0.686-0.246-0.84
			c-0.168-0.154-0.506-0.232-1.012-0.234C90.73,164.716,90.572,164.716,90.256,164.717z"/>
		<path d="M99.41,165.023c-0.391-0.028-0.588-0.041-0.979-0.066c-0.055-0.004-0.092-0.023-0.123-0.059
			c-0.029-0.033-0.043-0.071-0.041-0.116c0.004-0.054,0.023-0.095,0.059-0.124s0.074-0.043,0.131-0.039
			c2.117,0.137,3.176,0.229,5.289,0.458c0.055,0.006,0.1,0.024,0.135,0.062c0.033,0.035,0.047,0.078,0.041,0.123
			c-0.006,0.055-0.029,0.09-0.07,0.117c-0.041,0.028-0.09,0.039-0.143,0.033c-0.391-0.042-0.584-0.063-0.975-0.102
			c-0.779,7.777-1.17,11.666-1.951,19.445c0.326,0.033,0.49,0.049,0.816,0.084c0.082,0.07,0.123,0.13,0.117,0.184
			c-0.008,0.061-0.061,0.112-0.156,0.155c-1.805-0.194-2.707-0.276-4.516-0.392c-0.096-0.066-0.145-0.124-0.141-0.176
			c0.004-0.053,0.059-0.107,0.16-0.161c0.371,0.022,0.557,0.034,0.926,0.063C98.559,176.716,98.844,172.82,99.41,165.023z"/>
		<path d="M112.678,174.35c-0.385,1.945-0.58,2.918-0.965,4.864c-0.553,2.804-1.426,4.756-2.58,5.884
			c-0.799,0.783-1.658,1.096-2.6,0.945c-0.637-0.102-1.189-0.412-1.67-0.941c-0.48-0.528-0.816-1.252-1.02-2.17
			c-0.324-1.479-0.4-3.082-0.193-4.808c0.279-2.306,0.418-3.46,0.697-5.767c0.324-2.688,1.086-4.619,2.342-5.771
			c0.871-0.797,1.877-1.112,2.99-0.938c0.539,0.086,1.02,0.27,1.436,0.545c0.418,0.275,0.77,0.638,1.051,1.084
			c0.283,0.447,0.504,1.014,0.664,1.695c0.158,0.683,0.229,1.377,0.209,2.073C113.004,172.23,112.877,173.338,112.678,174.35z
			 M105.932,183.721c-0.104,0.691-0.072,1.213,0.1,1.551c0.123,0.244,0.309,0.387,0.543,0.424c0.225,0.035,0.438-0.031,0.643-0.202
			c0.203-0.17,0.34-0.438,0.402-0.812c1.141-6.799,1.711-10.195,2.85-16.994c0.08-0.478,0.006-0.879-0.209-1.205
			c-0.152-0.229-0.363-0.373-0.643-0.418c-0.248-0.039-0.482,0.025-0.693,0.191c-0.287,0.227-0.469,0.598-0.543,1.102
			C107.398,173.902,106.912,177.174,105.932,183.721z"/>
		<path d="M122.48,170.325c0.109-0.397,0.125-0.696,0.047-0.904c-0.08-0.208-0.244-0.386-0.488-0.526
			c-0.268-0.094-0.4-0.137-0.668-0.229c-0.049-0.032-0.063-0.088-0.041-0.165c0.018-0.069,0.045-0.112,0.078-0.132
			c0.031-0.02,0.1-0.016,0.207,0.014c1.125,0.297,1.686,0.453,2.807,0.777c0.043,0.013,0.076,0.031,0.094,0.07
			c0.018,0.037,0.02,0.078,0.006,0.121s-0.029,0.073-0.063,0.088c-0.033,0.013-0.139,0.025-0.311,0.03
			c-0.355,0.011-0.625,0.08-0.797,0.214c-0.174,0.133-0.338,0.426-0.496,0.873c-1.982,7.104-2.977,10.657-4.961,17.764
			c-0.816-0.229-1.229-0.34-2.051-0.551c0.508-7.476,0.639-11.234,0.656-18.774c-1.441,6.516-2.162,9.774-3.604,16.29
			c-0.1,0.445-0.117,0.77-0.059,0.971s0.189,0.361,0.398,0.48c0.236,0.076,0.355,0.115,0.592,0.192
			c0.039,0.036,0.049,0.095,0.029,0.173c-0.016,0.069-0.041,0.111-0.068,0.129c-0.027,0.017-0.084,0.015-0.172-0.006
			c-0.945-0.221-1.418-0.322-2.365-0.521c-0.037-0.009-0.064-0.025-0.08-0.058c-0.016-0.031-0.02-0.07-0.01-0.114
			c0.008-0.044,0.023-0.073,0.051-0.091c0.029-0.019,0.115-0.041,0.258-0.064c0.299-0.049,0.521-0.141,0.66-0.285
			s0.273-0.455,0.406-0.932c1.539-7.077,2.305-10.613,3.842-17.69c-0.357-0.077-0.535-0.116-0.895-0.19
			c-0.055-0.012-0.094-0.037-0.123-0.076c-0.031-0.038-0.043-0.081-0.031-0.135c0.008-0.045,0.035-0.082,0.08-0.104
			c0.043-0.022,0.092-0.024,0.145-0.015c1.664,0.349,2.494,0.537,4.146,0.943c-0.123,6.062-0.268,9.082-0.709,15.094
			C120.389,177.924,121.088,175.391,122.48,170.325z"/>
	</g>
</g>
</svg>
