<?xml version="1.0" encoding="utf-8"?>
<!-- Generator: Adobe Illustrator 15.0.0, SVG Export Plug-In . SVG Version: 6.00 Build 0)  -->
<!DOCTYPE svg PUBLIC "-//W3C//DTD SVG 1.1//EN" "http://www.w3.org/Graphics/SVG/1.1/DTD/svg11.dtd">
<svg version="1.1" id="Layer_1" xmlns="http://www.w3.org/2000/svg" xmlns:xlink="http://www.w3.org/1999/xlink" x="0px" y="0px"
	 width="242px" height="294.334px" viewBox="0 0 242 294.334" enable-background="new 0 0 242 294.334" xml:space="preserve">
<g>
	<g>
		<path fill="#E9E9EA" d="M-839.943-27.167h2.438c5.94,0,10.8,4.86,10.8,10.8v32.733c0,5.939-4.86,10.8-10.8,10.8h-2.438V-27.167z"
			/>
		<path fill="#E9E9EA" d="M-918.851-27.167h-2.438c-5.94,0-10.8,4.86-10.8,10.8v32.733c0,5.939,4.86,10.8,10.8,10.8h2.438V-27.167z"
			/>
		<path fill="#5B5C5C" d="M-837.506-27.167h-2.438h-78.908h-2.438c-5.94,0-10.8,4.86-10.8,10.8v5.699h13.237v54.5h78.908v-54.5
			h13.237v-5.699C-826.706-22.306-831.566-27.167-837.506-27.167z"/>
		<polygon fill="#B69FCC" points="-918.851,43.833 -918.851,60.5 -918.851,100.167 -890.062,100.167 -890.062,60.5 -868.733,60.5 
			-868.733,100.167 -839.943,100.167 -839.943,60.5 -839.943,43.833 		"/>
		<path d="M-904.457,114.561c7.95,0,14.395-6.444,14.395-14.395h-28.79C-918.851,108.117-912.406,114.561-904.457,114.561z"/>
		<path d="M-854.338,114.561c7.95,0,14.395-6.444,14.395-14.395h-28.79C-868.733,108.117-862.288,114.561-854.338,114.561z"/>
		<path fill="#B69FCC" d="M-904.457,85.772c-7.95,0-14.395,6.444-14.395,14.395h28.79
			C-890.062,92.216-896.506,85.772-904.457,85.772z"/>
		<path fill="#B69FCC" d="M-854.338,85.772c-7.95,0-14.395,6.444-14.395,14.395h28.79
			C-839.943,92.216-846.388,85.772-854.338,85.772z"/>
		<text transform="matrix(1 0 0 1 -897.7217 4.8335)" fill="#FFFFFF" font-family="'Cubano-Regular'" font-size="25.3327">IUP</text>
	</g>
	<g>
		<path fill="#E9E9EA" d="M-802.363-90.548c-0.893,0-1.755,0.118-2.586,0.318c-8.769-28.624-38.907-49.725-74.752-49.725
			s-65.984,21.101-74.752,49.725c-0.831-0.201-1.693-0.318-2.586-0.318c-6.075,0-11,4.925-11,11c0,6.075,4.925,11,11,11
			c0.067,0,0.132-0.009,0.199-0.01c2.714,33.829,36.201,49.417,77.139,49.417c40.938,0,74.425-15.588,77.139-49.417
			c0.067,0.001,0.132,0.01,0.199,0.01c6.075,0,11-4.925,11-11C-791.363-85.624-796.288-90.548-802.363-90.548z"/>
		<g>
			<circle cx="-920.443" cy="-82.84" r="7.5"/>
			<circle fill="#FFFFFF" cx="-922.938" cy="-84.883" r="3.03"/>
		</g>
		<g>
			<circle cx="-839.943" cy="-82.84" r="7.5"/>
			<circle fill="#FFFFFF" cx="-842.438" cy="-84.883" r="3.03"/>
		</g>
		<path fill="#B69FCC" d="M-831.307-130.786c-7.167-5.333-24.171-11.994-44.658-12.637c-22.176-0.696-49.676,7.471-59.842,18.304
			c-10.324,11.001-19.127,25.778-18.647,34.889c0,0,2.813,3.335,2.813,7.39h5.5c0,0,0.5-26.445,16-36.445
			c0,0,7.5-0.833,10.167,4.833c0,0,4.227-3.333,2.03-6.5c0,0,24.428-4.833,39.928,10.792c0,0,3.125-5.542,0.875-7.542
			c0,0,16.125,0.667,22.375,7.917c0,0,0.875-2.417,0-5c-0.445-1.313,23.625-1.875,29.75,7.25c0,0,0.667-8.583-5.792-12.917
			c19.667,12.667,17.667,37.612,17.667,37.612h5.333c0.166-4.055,2.858-7.39,2.858-7.39
			C-807.027-114.754-824.14-125.452-831.307-130.786z"/>
		<path fill="none" stroke="#000000" stroke-width="3" stroke-linecap="round" stroke-miterlimit="10" d="M-879.701-87.913
			c0,0,0.811,8.268,4.311,12.573l-4.311,3.555"/>
		<path fill="none" stroke="#000000" stroke-width="3" stroke-linecap="round" stroke-miterlimit="10" d="M-891.97-65.078
			c0,5.106,3.842,12.917,12.319,12.917s12.827-6.482,12.827-12.827"/>
	</g>
</g>
<g>
	<g>
		<path fill="#E9E9EA" d="M-620.995-27.167h2.438c5.94,0,10.8,4.86,10.8,10.8v32.733c0,5.939-4.859,10.8-10.8,10.8h-2.438V-27.167z"
			/>
		<path fill="#E9E9EA" d="M-699.902-27.167h-2.438c-5.94,0-10.801,4.86-10.801,10.8v32.733c0,5.939,4.86,10.8,10.801,10.8h2.438
			V-27.167z"/>
		<path fill="#333333" d="M-618.558-27.167h-2.438h-78.907h-2.438c-5.94,0-10.801,4.86-10.801,10.8v5.699h13.238v54.5h78.907v-54.5
			h13.237v-5.699C-607.758-22.306-612.617-27.167-618.558-27.167z"/>
		<polygon fill="#B69FCC" points="-699.902,43.833 -699.902,60.5 -699.902,100.167 -671.113,100.167 -671.113,60.5 -649.785,60.5 
			-649.785,100.167 -620.995,100.167 -620.995,60.5 -620.995,43.833 		"/>
		<path d="M-685.508,114.561c7.949,0,14.395-6.444,14.395-14.395h-28.789C-699.902,108.117-693.458,114.561-685.508,114.561z"/>
		<path d="M-635.391,114.561c7.951,0,14.396-6.444,14.396-14.395h-28.79C-649.785,108.117-643.34,114.561-635.391,114.561z"/>
		<path fill="#B69FCC" d="M-685.508,85.772c-7.95,0-14.395,6.444-14.395,14.395h28.789
			C-671.113,92.216-677.559,85.772-685.508,85.772z"/>
		<path fill="#B69FCC" d="M-635.391,85.772c-7.949,0-14.395,6.444-14.395,14.395h28.79
			C-620.995,92.216-627.439,85.772-635.391,85.772z"/>
		<g>
			<g>
				<path fill="#604E75" d="M-679.405-8.305c0.692-0.213,1.111-0.069,1.252,0.418c1.805,6.229,2.707,9.342,4.512,15.571
					c0.134,0.461-0.041,0.801-0.544,0.956c-1.107,0.341-1.656,0.528-2.746,0.938c-0.471,0.177-0.845,0.027-1.022-0.419
					c-2.388-6.03-3.581-9.044-5.968-15.074c-0.187-0.472,0.092-0.855,0.739-1.099C-681.684-7.578-680.928-7.836-679.405-8.305z"/>
				<path fill="#604E75" d="M-670.066-10.442c0.71-0.108,1.1,0.097,1.168,0.6c0.533,3.935,0.799,5.903,1.332,9.838
					c0.262,1.934,0.558,3.053,2.638,2.864s2.166-1.344,2.073-3.293c-0.188-3.967-0.281-5.95-0.469-9.917
					c-0.024-0.507,0.357-0.78,1.037-0.801c1.604-0.05,2.407-0.049,4.01,0c0.715,0.022,1.061,0.294,1.037,0.802
					c-0.214,4.504-0.32,6.754-0.533,11.258c-0.079,1.67-0.666,5.735-6.759,6.289c-6.093,0.554-7.426-3.328-7.807-4.956
					c-1.027-4.391-1.541-6.586-2.567-10.977c-0.116-0.495,0.212-0.832,0.881-0.977C-672.45-10.054-671.657-10.2-670.066-10.442z"/>
				<path fill="#604E75" d="M-644.991-9.359c6.239,1.51,7.921,4.528,6.392,8.391s-4.182,4.656-9.254,3.428
					c-0.547-0.132-0.821-0.195-1.371-0.313c-0.543-0.116-0.908,0.069-1.006,0.567c-0.313,1.591-0.47,2.388-0.783,3.979
					c-0.098,0.497-0.402,0.692-0.917,0.6c-1.153-0.207-1.731-0.293-2.892-0.428c-0.492-0.057-0.751-0.362-0.704-0.84
					c0.641-6.443,0.96-9.663,1.604-16.106c0.05-0.505,0.432-0.725,1.148-0.667C-649.639-10.384-648.075-10.105-644.991-9.359z
					 M-646.642-1.731c1.479,0.363,2.251,0.444,2.687-1.064s-0.296-1.896-1.865-2.281c-0.706-0.173-1.061-0.255-1.771-0.407
					c-0.624-0.134-1.035,0.045-1.132,0.542c-0.149,0.756-0.224,1.135-0.373,1.891c-0.093,0.472,0.196,0.811,0.784,0.937
					C-647.643-1.971-647.308-1.895-646.642-1.731z"/>
			</g>
		</g>
	</g>
	<g>
		<path fill="#E9E9EA" d="M-583.414-90.798c-0.893,0-1.756,0.118-2.586,0.318c-8.77-28.624-38.908-49.725-74.753-49.725
			s-65.983,21.101-74.753,49.725c-0.83-0.201-1.693-0.318-2.586-0.318c-6.074,0-11,4.925-11,11c0,6.075,4.926,11,11,11
			c0.068,0,0.133-0.009,0.199-0.01c2.715,33.829,36.201,49.417,77.14,49.417c40.938,0,74.425-15.588,77.14-49.417
			c0.066,0.001,0.131,0.01,0.199,0.01c6.074,0,11-4.925,11-11C-572.414-85.874-577.34-90.798-583.414-90.798z"/>
		<path fill="none" stroke="#000000" stroke-width="3" stroke-linecap="round" stroke-miterlimit="10" d="M-716.215-85.815
			c0,2.075,1.561,5.25,5.006,5.25s5.214-2.635,5.214-5.213"/>
		<path fill="none" stroke="#000000" stroke-width="3" stroke-linecap="round" stroke-miterlimit="10" d="M-711.105-90.605
			c0,2.075,1.561,5.25,5.006,5.25c1.54,0,2.744-0.526,3.605-1.338"/>
		<path fill="none" stroke="#000000" stroke-width="3" stroke-linecap="round" stroke-miterlimit="10" d="M-611.189-90.605
			c0,2.075-1.561,5.25-5.006,5.25c-1.539,0-2.744-0.526-3.605-1.338"/>
		<path fill="none" stroke="#000000" stroke-width="3" stroke-linecap="round" stroke-miterlimit="10" d="M-616.377-85.815
			c0,2.075,1.561,5.25,5.006,5.25s5.214-2.635,5.214-5.213"/>
		<g>
			<circle cx="-701.495" cy="-83.09" r="7.5"/>
			<circle fill="#FFFFFF" cx="-703.989" cy="-85.133" r="3.03"/>
		</g>
		<g>
			<circle cx="-620.995" cy="-83.09" r="7.5"/>
			<circle fill="#FFFFFF" cx="-623.489" cy="-85.133" r="3.03"/>
		</g>
		<path fill="none" stroke="#000000" stroke-width="3" stroke-linecap="round" stroke-miterlimit="10" d="M-660.753-88.163
			c0,0,0.812,8.268,4.312,12.573l-4.312,3.555"/>
		<path fill="none" stroke="#000000" stroke-width="3" stroke-linecap="round" stroke-miterlimit="10" d="M-673.021-65.328
			c0,5.106,3.842,12.917,12.318,12.917s12.827-6.482,12.827-12.827"/>
		<path fill="#604E75" d="M-668.152-151.804c0,0-24.965,11-16.982,23.333s22.943-1.667,44.315,0
			c12.527,0.977,45.949,10.863,55.192,37.99c8.352,24.51-6.813,49.14-15.473,54.742c-8.66,5.604-22.548,31.751-16.387,45.648
			s28.668,28.953,52.334,20.286s18.666-23.333,18.666-23.333s-4,8.999-16,8.999s-31.332-16.667-16.666-52.333
			c14.666-35.667,12.495-75.284-14.373-98C-611.268-149.47-638.152-161.471-668.152-151.804z"/>
		<path fill="#E9E9EA" d="M-583.613-68.809c0.066,0.001,0.131,0.01,0.199,0.01c6.074,0,11-4.925,11-11c0-6.075-4.926-11-11-11
			c-0.893,0-1.756,0.118-2.586,0.318l-5.525,12.451L-583.613-68.809z"/>
		<path fill="#604E75" d="M-676.191-137.803c0,0-7.667,13-17.804,17.667c-10.418,4.796-31.542,3.521-41.511,29.657
			c-10.853,28.453,10.73,54.01,22.365,59.361c11.635,5.35,16.652,32.315,1.801,44.315S-768.192,26.53-771.525-2.47
			c0,0,9.001,11,19.334,9.334c10.333-1.667,26.334-16.667,8-38c-18.334-21.334-16.223-70.518,6-91.667
			C-715.353-144.538-689.858-152.47-676.191-137.803z"/>
		<path fill="#E9E9EA" d="M-737.892-68.809c-0.066,0.001-0.131,0.01-0.199,0.01c-6.074,0-11-4.925-11-11c0-6.075,4.926-11,11-11
			c0.893,0,1.756,0.118,2.586,0.318l5.525,12.451L-737.892-68.809z"/>
		<circle fill="#C4C4C3" cx="-706.62" cy="-56.432" r="9.595"/>
		<circle fill="#C4C4C3" cx="-614.376" cy="-56.432" r="9.595"/>
	</g>
</g>
<g>
	<g>
		<path fill="#E9E9EA" d="M-637.025,265.752h2.438c5.94,0,10.8,4.86,10.8,10.8v32.733c0,5.939-4.859,10.8-10.8,10.8h-2.438V265.752z
			"/>
		<path fill="#E9E9EA" d="M-715.933,265.752h-2.438c-5.94,0-10.801,4.86-10.801,10.8v32.733c0,5.939,4.86,10.8,10.801,10.8h2.438
			V265.752z"/>
		<path fill="#604E75" d="M-634.588,265.752h-2.438h-78.907h-2.438c-5.94,0-10.801,4.86-10.801,10.8v5.699h13.238v54.5h78.907v-54.5
			h13.237v-5.699C-623.788,270.613-628.647,265.752-634.588,265.752z"/>
		<polygon fill="#5B5C5C" points="-715.933,336.751 -715.933,353.418 -715.933,393.085 -687.144,393.085 -687.144,353.418 
			-665.815,353.418 -665.815,393.085 -637.025,393.085 -637.025,353.418 -637.025,336.751 		"/>
		<path d="M-701.538,407.48c7.949,0,14.395-6.444,14.395-14.395h-28.789C-715.933,401.036-709.488,407.48-701.538,407.48z"/>
		<path d="M-651.421,407.48c7.951,0,14.396-6.444,14.396-14.395h-28.79C-665.815,401.036-659.37,407.48-651.421,407.48z"/>
		<path fill="#5B5C5C" d="M-701.538,378.691c-7.95,0-14.395,6.444-14.395,14.395h28.789
			C-687.144,385.135-693.589,378.691-701.538,378.691z"/>
		<path fill="#5B5C5C" d="M-651.421,378.691c-7.949,0-14.395,6.444-14.395,14.395h28.79
			C-637.025,385.135-643.47,378.691-651.421,378.691z"/>
		<g>
			<g>
				<path fill="#B69FCC" d="M-695.436,284.614c0.692-0.213,1.112-0.066,1.253,0.42c1.805,6.228,2.706,9.34,4.51,15.567
					c0.134,0.462-0.042,0.803-0.545,0.958c-1.107,0.341-1.657,0.527-2.747,0.938c-0.471,0.178-0.845,0.029-1.022-0.418
					c-2.387-6.029-3.579-9.044-5.967-15.073c-0.187-0.472,0.093-0.854,0.74-1.098C-697.713,285.343-696.958,285.083-695.436,284.614
					z"/>
				<path fill="#B69FCC" d="M-686.097,282.478c0.71-0.108,1.1,0.096,1.168,0.598c0.533,3.936,0.799,5.906,1.332,9.842
					c0.262,1.934,0.558,3.05,2.637,2.86s2.167-1.344,2.074-3.293c-0.188-3.967-0.282-5.953-0.47-9.92
					c-0.024-0.506,0.357-0.776,1.037-0.798c1.604-0.05,2.407-0.05,4.01,0c0.715,0.022,1.061,0.294,1.037,0.8
					c-0.214,4.504-0.321,6.754-0.534,11.258c-0.079,1.67-0.668,5.736-6.759,6.291c-6.091,0.555-7.426-3.33-7.807-4.958
					c-1.027-4.39-1.541-6.584-2.567-10.974c-0.115-0.493,0.212-0.833,0.881-0.978C-688.48,282.866-687.687,282.72-686.097,282.478z"
					/>
				<path fill="#B69FCC" d="M-661.022,283.56c6.239,1.512,7.922,4.529,6.393,8.392s-4.181,4.655-9.253,3.426
					c-0.547-0.133-0.822-0.194-1.372-0.313c-0.543-0.116-0.907,0.072-1.005,0.569c-0.313,1.591-0.471,2.386-0.784,3.977
					c-0.098,0.497-0.401,0.695-0.917,0.603c-1.153-0.207-1.733-0.296-2.893-0.431c-0.492-0.058-0.75-0.36-0.702-0.84
					c0.641-6.443,0.961-9.663,1.604-16.106c0.05-0.504,0.431-0.724,1.147-0.666C-665.669,282.535-664.106,282.813-661.022,283.56z
					 M-662.672,291.189c1.479,0.363,2.252,0.444,2.687-1.064s-0.297-1.895-1.865-2.28c-0.706-0.174-1.061-0.256-1.771-0.408
					c-0.624-0.134-1.034,0.048-1.131,0.545c-0.149,0.756-0.224,1.131-0.373,1.887c-0.093,0.473,0.195,0.813,0.784,0.938
					C-663.672,290.95-663.338,291.025-662.672,291.189z"/>
			</g>
		</g>
	</g>
	<g>
		<path fill="#E9E9EA" d="M-599.444,201.121c-0.893,0-1.756,0.118-2.586,0.318c-8.77-28.624-38.908-49.726-74.753-49.726
			s-65.983,21.102-74.753,49.726c-0.83-0.2-1.693-0.318-2.586-0.318c-6.074,0-11,4.925-11,11s4.926,11,11,11
			c0.068,0,0.133-0.009,0.199-0.011c2.715,33.829,36.201,49.417,77.14,49.417c40.938,0,74.425-15.588,77.14-49.417
			c0.066,0.002,0.131,0.011,0.199,0.011c6.074,0,11-4.925,11-11S-593.37,201.121-599.444,201.121z"/>
		<path fill="none" stroke="#000000" stroke-width="3" stroke-linecap="round" stroke-miterlimit="10" d="M-676.783,203.756
			c0,0,0.812,8.268,4.312,12.572l-4.312,3.555"/>
		<path fill="none" stroke="#000000" stroke-width="3" stroke-linecap="round" stroke-miterlimit="10" d="M-689.052,226.591
			c0,5.106,3.842,12.917,12.318,12.917s12.827-6.482,12.827-12.827"/>
		<path fill="#604E75" d="M-726.114,280.83c4.591-11.506-4.857-20.418-10.387-24.648c-8.191-6.268-23.824-30.232-15.473-54.742
			c9.243-27.128,42.665-37.013,55.192-37.99c21.372-1.667,36.333,12.333,44.315,0s-16.982-23.333-16.982-23.333
			c-30-9.668-56.885,2.333-74.627,17.333c-26.868,22.716-31.902,63.65-14.373,98c5.55,10.875,8.467,16.334-1.2,21.167
			c0,0-5.5,3.833-7.5,0.667c0,0-0.167,4.333,7,5c0,0-1.333,3.05-4.333,2.107c0,0,3.812,1.742,6.771,0.434
			c0,0-0.375,1.813-2.75,1.875C-763.047,286.767-732.847,297.703-726.114,280.83z"/>
		<path fill="#604E75" d="M-626.261,284.116c-10.229-10.833-3.265-19.167,1.801-23.315c9.908-8.114,33.218-30.908,22.365-59.361
			c-9.969-26.136-31.093-24.86-41.511-29.657c-10.137-4.666-17.804-17.666-17.804-17.666c13.667-14.666,39.161-6.734,62,15
			c22.223,21.148,20.735,67.705,6,91.667c-5.739,9.333-2.333,15.333,8,17c0,0,5.095,1.76,7.095-0.537s-1.333,4.37-5.5,4.37
			s-1.499,1.499,2.167,1.833c0,0-2.927,1.5-6.797,1.334c0,0-1.037,0.666,0.963,1.5
			C-587.481,286.283-617.046,293.875-626.261,284.116z"/>
		<path fill="#E9E9EA" d="M-599.644,223.11c0.066,0.002,0.131,0.01,0.199,0.01c6.074,0,11-4.925,11-11c0-6.074-4.926-11-11-11
			c-0.893,0-1.756,0.118-2.586,0.318l-5.525,12.451L-599.644,223.11z"/>
		<path fill="#E9E9EA" d="M-753.922,223.11c-0.066,0.002-0.131,0.01-0.199,0.01c-6.074,0-11-4.925-11-11c0-6.074,4.926-11,11-11
			c0.893,0,1.756,0.118,2.586,0.318l5.525,12.451L-753.922,223.11z"/>
		<circle fill="#C4C4C3" cx="-722.65" cy="235.487" r="9.595"/>
		<circle fill="#C4C4C3" cx="-630.406" cy="235.487" r="9.595"/>
		<path fill="none" stroke="#000000" stroke-width="3" stroke-linecap="round" stroke-miterlimit="10" d="M-729.656,204.542
			c0,2.075,1.561,5.25,5.006,5.25s5.214-2.635,5.214-5.213"/>
		<path fill="none" stroke="#000000" stroke-width="3" stroke-linecap="round" stroke-miterlimit="10" d="M-724.546,199.752
			c0,2.075,1.561,5.25,5.006,5.25c1.54,0,2.744-0.526,3.605-1.338"/>
		<path fill="none" stroke="#000000" stroke-width="3" stroke-linecap="round" stroke-miterlimit="10" d="M-624.631,199.752
			c0,2.075-1.561,5.25-5.006,5.25c-1.539,0-2.744-0.526-3.605-1.338"/>
		<path fill="none" stroke="#000000" stroke-width="3" stroke-linecap="round" stroke-miterlimit="10" d="M-629.818,204.542
			c0,2.075,1.561,5.25,5.006,5.25s5.214-2.635,5.214-5.213"/>
		<g>
			<circle cx="-714.937" cy="207.267" r="7.5"/>
			<circle fill="#FFFFFF" cx="-717.431" cy="205.224" r="3.03"/>
		</g>
		<g>
			<circle cx="-634.437" cy="207.267" r="7.5"/>
			<circle fill="#FFFFFF" cx="-636.931" cy="205.224" r="3.03"/>
		</g>
	</g>
</g>
<g>
	<g>
		<path fill="#E9E9EA" d="M600.37,184.792h2.438c5.94,0,10.801,4.86,10.801,10.8v32.733c0,5.939-4.86,10.8-10.801,10.8h-2.438
			V184.792z"/>
		<path fill="#E9E9EA" d="M521.463,184.792h-2.438c-5.939,0-10.8,4.86-10.8,10.8v32.733c0,5.939,4.86,10.8,10.8,10.8h2.438V184.792z
			"/>
		<path fill="#5B5C5C" d="M602.808,184.792h-2.438h-78.907h-2.438c-5.939,0-10.8,4.86-10.8,10.8v5.699h13.237v54.5h78.907v-54.5
			h13.238v-5.699C613.608,189.653,608.748,184.792,602.808,184.792z"/>
		<polygon fill="#604E75" points="521.463,255.792 521.463,272.458 521.463,312.125 550.253,312.125 550.253,272.458 
			571.581,272.458 571.581,312.125 600.37,312.125 600.37,272.458 600.37,255.792 		"/>
		<path d="M535.857,326.52c7.95,0,14.396-6.444,14.396-14.395h-28.79C521.463,320.076,527.908,326.52,535.857,326.52z"/>
		<path d="M585.976,326.52c7.95,0,14.395-6.444,14.395-14.395h-28.789C571.581,320.076,578.026,326.52,585.976,326.52z"/>
		<path fill="#604E75" d="M535.857,297.731c-7.949,0-14.395,6.444-14.395,14.395h28.79
			C550.253,304.175,543.808,297.731,535.857,297.731z"/>
		<path fill="#604E75" d="M585.976,297.731c-7.949,0-14.395,6.444-14.395,14.395h28.789
			C600.37,304.175,593.926,297.731,585.976,297.731z"/>
		<g>
			<g>
				<path fill="#E9E9EA" d="M527.573,206.875c1.461-0.578,2.196-0.854,3.675-1.366c0.197,0.566,0.295,0.85,0.492,1.416
					c-0.319,0.11-0.477,0.166-0.795,0.28c0.728,2.033,1.09,3.05,1.817,5.082c0.3-0.107,0.449-0.158,0.749-0.263
					c0.195,0.562,0.292,0.843,0.487,1.404c-1.343,0.466-2.01,0.716-3.337,1.241c-0.219-0.553-0.329-0.83-0.548-1.383
					c0.297-0.117,0.444-0.175,0.742-0.289c-0.775-2.015-1.163-3.023-1.938-5.038c-0.316,0.122-0.475,0.185-0.79,0.31
					C527.907,207.712,527.794,207.433,527.573,206.875z"/>
				<path fill="#E9E9EA" d="M539.227,203.119c1.384-0.343,2.08-0.5,3.473-0.788c0.121,0.587,0.182,0.881,0.303,1.468
					c-0.328,0.067-0.492,0.104-0.819,0.175c0.585,2.7,0.879,4.049,1.463,6.75c-0.48,0.104-0.721,0.158-1.199,0.27
					c-2.036-1.686-3.1-2.498-5.317-4.053c0.41,1.444,0.614,2.165,1.023,3.609c0.157-0.045,0.918-0.256,0.918-0.256
					c0.157,0.579,0.235,0.87,0.393,1.449c-1.251,0.34-1.873,0.521-3.113,0.91c-0.18-0.572-0.268-0.857-0.447-1.43
					c0.359-0.113,0.54-0.168,0.9-0.277c-0.625-2.071-0.938-3.107-1.563-5.179c-0.384,0.116-0.576,0.177-0.959,0.297
					c-0.18-0.572-0.271-0.858-0.45-1.431c1.163-0.365,1.747-0.539,2.919-0.864c1.862,1.35,2.765,2.048,4.501,3.486
					c-0.275-1.167-0.415-1.75-0.69-2.917c-0.389,0.092-0.586,0.139-0.974,0.234C539.442,203.991,539.371,203.701,539.227,203.119z"
					/>
				<path fill="#E9E9EA" d="M554.055,204.928c0.198,2.402-1.542,4.328-3.812,4.631c-1.451,0.193-2.177,0.307-3.62,0.564
					c-0.106-0.596-0.161-0.894-0.268-1.489c0.295-0.053,0.444-0.076,0.739-0.126c-0.358-2.119-0.538-3.18-0.897-5.299
					c-0.314,0.053-0.473,0.082-0.786,0.138c-0.107-0.6-0.158-0.899-0.266-1.499c1.59-0.283,2.386-0.407,3.984-0.62
					C551.816,200.871,553.857,202.527,554.055,204.928z M549.114,208.189c0.257-0.037,0.387-0.055,0.644-0.09
					c1.84-0.251,2.341-1.638,2.198-2.974c-0.144-1.347-1.151-2.591-2.925-2.349c-0.273,0.037-0.411,0.059-0.684,0.098
					C548.655,205.001,548.807,206.061,549.114,208.189z"/>
				<path fill="#E9E9EA" d="M555.609,200.633c1.541-0.095,2.313-0.125,3.855-0.154c0.012,0.6,0.019,0.9,0.03,1.5
					c-0.333,0.006-0.504,0.01-0.837,0.02c0.061,2.158,0.093,3.234,0.153,5.392c0.313-0.009,0.471-0.012,0.784-0.018
					c0.012,0.595,0.016,0.893,0.027,1.487c-1.401,0.026-2.1,0.055-3.499,0.141c-0.036-0.594-0.057-0.892-0.093-1.485
					c0.313-0.02,0.472-0.028,0.784-0.045c-0.112-2.155-0.17-3.229-0.282-5.386c-0.333,0.018-0.499,0.026-0.832,0.047
					C555.664,201.533,555.646,201.232,555.609,200.633z"/>
				<path fill="#E9E9EA" d="M567.396,200.663c0,0,2.488,6.83,2.619,7.134c0.371,0.039,0.558,0.059,0.929,0.102
					c-0.069,0.596-0.104,0.893-0.174,1.488c-1.399-0.163-2.103-0.229-3.506-0.332c0.044-0.594,0.066-0.89,0.11-1.482
					c0.184,0.014,0.275,0.021,0.459,0.035c-0.125-0.311-0.227-0.621-0.367-0.944c-0.993-0.073-1.49-0.101-2.484-0.145
					c-0.157,0.358-0.233,0.537-0.388,0.896c0.185,0.008,0.276,0.011,0.461,0.02c-0.027,0.594-0.042,0.892-0.069,1.486
					c-1.216-0.056-1.822-0.073-3.039-0.084c0.006-0.6,0.008-0.898,0.014-1.498c0.373,0.003,0.559,0.006,0.932,0.014
					c0.316-0.894,3.297-6.763,3.297-6.763c0.494,0.027,0.741,0.04,1.235,0.074C567.414,200.662,567.407,200.664,567.396,200.663z
					 M567.016,205.129c-0.256-0.686-0.386-1.026-0.653-1.71c-0.325,0.648-0.488,0.973-0.803,1.624
					C566.142,205.073,566.434,205.09,567.016,205.129z"/>
				<path fill="#E9E9EA" d="M579.498,202.293c1.393,0.285,2.089,0.439,3.473,0.779c-0.143,0.582-0.217,0.872-0.359,1.454
					c-0.326-0.08-0.487-0.119-0.814-0.196c-0.634,2.689-0.952,4.035-1.586,6.725c-0.479-0.112-0.718-0.168-1.197-0.273
					c-1.113-2.396-1.721-3.586-3.044-5.942c-0.252,1.48-0.379,2.218-0.63,3.698c0.16,0.027,0.937,0.164,0.937,0.164
					c-0.107,0.59-0.161,0.887-0.269,1.477c-1.269-0.23-1.906-0.334-3.182-0.515c0.084-0.594,0.126-0.892,0.21-1.485
					c0.37,0.053,0.558,0.082,0.928,0.139c0.327-2.139,0.49-3.208,0.817-5.347c-0.394-0.061-0.591-0.089-0.984-0.145
					c0.084-0.594,0.125-0.891,0.209-1.484c1.196,0.17,1.794,0.265,2.985,0.474c1.093,2.019,1.601,3.034,2.548,5.079
					c0.254-1.172,0.383-1.758,0.637-2.93c-0.391-0.084-0.586-0.125-0.978-0.205C579.318,203.172,579.378,202.881,579.498,202.293z"
					/>
				<path fill="#E9E9EA" d="M590.663,205.333c0,0,0.684,7.261,0.734,7.589c0.354,0.136,0.53,0.205,0.884,0.345
					c-0.221,0.558-0.332,0.834-0.553,1.392c-1.332-0.527-2.001-0.774-3.35-1.242c0.195-0.563,0.291-0.843,0.486-1.405
					c0.177,0.062,0.267,0.092,0.442,0.154c-0.042-0.333-0.063-0.656-0.117-1.006c-0.953-0.331-1.433-0.491-2.394-0.793
					c-0.245,0.306-0.368,0.459-0.61,0.766c0.178,0.055,0.266,0.082,0.443,0.138c-0.18,0.567-0.269,0.851-0.448,1.418
					c-1.173-0.371-1.76-0.545-2.943-0.871c0.159-0.578,0.239-0.866,0.398-1.444c0.363,0.1,0.543,0.152,0.905,0.257
					c0.539-0.782,4.958-5.683,4.958-5.683c0.477,0.155,0.715,0.235,1.189,0.397C590.679,205.339,590.674,205.336,590.663,205.333z
					 M589.14,209.555c-0.075-0.729-0.113-1.095-0.2-1.825c-0.485,0.542-0.726,0.813-1.2,1.361
					C588.301,209.272,588.58,209.365,589.14,209.555z"/>
			</g>
		</g>
	</g>
	<g>
		<path fill="#E9E9EA" d="M637.942,121.161c-0.893,0-1.756,0.118-2.586,0.318c-8.77-28.624-38.908-49.725-74.753-49.725
			c-35.846,0-65.984,21.101-74.752,49.725c-0.831-0.201-1.693-0.318-2.586-0.318c-6.076,0-11,4.925-11,11c0,6.075,4.924,11,11,11
			c0.066,0,0.132-0.009,0.199-0.01c2.713,33.829,36.201,49.417,77.139,49.417s74.425-15.588,77.14-49.417
			c0.066,0.001,0.131,0.01,0.199,0.01c6.074,0,11-4.925,11-11C648.942,126.085,644.017,121.161,637.942,121.161z"/>
		<g>
			<circle cx="519.861" cy="128.869" r="7.5"/>
			<circle fill="#FFFFFF" cx="517.367" cy="126.826" r="3.029"/>
		</g>
		<g>
			<circle cx="600.361" cy="128.869" r="7.5"/>
			<circle fill="#FFFFFF" cx="597.867" cy="126.826" r="3.03"/>
		</g>
		<path fill="none" stroke="#000000" stroke-width="3" stroke-linecap="round" stroke-miterlimit="10" d="M560.604,123.796
			c0,0,0.812,8.268,4.312,12.573l-4.312,3.555"/>
		<path fill="none" stroke="#000000" stroke-width="3" stroke-linecap="round" stroke-miterlimit="10" d="M548.335,146.631
			c0,5.106,3.842,12.917,12.318,12.917s12.827-6.482,12.827-12.827"/>
		<path fill="#B69FCC" d="M612.418,83.425L612.418,83.425C612.418,83.425,612.418,83.424,612.418,83.425
			c-1.28-0.946-2.444-1.776-3.42-2.501c-1.853-1.379-4.369-2.847-7.429-4.276c-16.112-12.402-23.727-29.564-23.727-29.564
			c-3,9.667-8.751,6.667-8.751,6.667c-2.751-1-3.083-6-3.083-6c-0.5,3.5-4,6.5-6.666,4.167c-2.667-2.333-4-11.5-4-11.5
			s-1.5,18-8.334,16.833c-6.833-1.167-6.166-5.167-6.166-5.167c-0.968,10.89-16.194,21.368-24.47,26.295
			c-1.881,0.93-3.637,1.909-5.25,2.928c-0.002,0-0.012,0.005-0.012,0.005h0.002c-2.631,1.663-4.881,3.431-6.615,5.279
			c-10.324,11.001-19.127,25.778-18.646,34.889c0,0,2.813,3.335,2.813,7.39h5.5c0,0,0.5-26.445,16-36.445
			c0,0,25.348-10.674,48.515-9.841c23.166,0.833,50.819,8.674,50.819,8.674c19.667,12.667,17.667,37.612,17.667,37.612h5.332
			c0.166-4.055,2.859-7.39,2.859-7.39C633.561,100.292,620.549,89.429,612.418,83.425z"/>
	</g>
</g>
<g>
	<g>
		<path fill="#E9E9EA" d="M-859.717,265.752h2.438c5.939,0,10.8,4.86,10.8,10.8v32.733c0,5.939-4.86,10.8-10.8,10.8h-2.438V265.752z
			"/>
		<path fill="#E9E9EA" d="M-938.625,265.752h-2.438c-5.94,0-10.8,4.86-10.8,10.8v32.733c0,5.939,4.859,10.8,10.8,10.8h2.438V265.752
			z"/>
		<path fill="#B69FCC" d="M-857.279,265.752h-2.438h-78.908h-2.438c-5.94,0-10.8,4.86-10.8,10.8v5.699h13.237v54.5h78.908v-54.5
			h13.237v-5.699C-846.479,270.613-851.34,265.752-857.279,265.752z"/>
		<polygon fill="#C4C4C3" points="-938.625,336.751 -938.625,353.418 -938.625,393.085 -909.835,393.085 -909.835,353.418 
			-888.507,353.418 -888.507,393.085 -859.717,393.085 -859.717,353.418 -859.717,336.751 		"/>
		<path d="M-924.23,407.48c7.95,0,14.396-6.444,14.396-14.395h-28.79C-938.625,401.036-932.181,407.48-924.23,407.48z"/>
		<path d="M-874.112,407.48c7.95,0,14.396-6.444,14.396-14.395h-28.79C-888.507,401.036-882.062,407.48-874.112,407.48z"/>
		<path fill="#C4C4C3" d="M-924.23,378.691c-7.95,0-14.395,6.444-14.395,14.395h28.79
			C-909.835,385.135-916.28,378.691-924.23,378.691z"/>
		<path fill="#C4C4C3" d="M-874.112,378.691c-7.949,0-14.395,6.444-14.395,14.395h28.79
			C-859.717,385.135-866.162,378.691-874.112,378.691z"/>
		<g>
			<g>
				<path fill="#5B5C5C" d="M-925.325,289.978c0.005,1.075-0.328,2.528-2.474,3.264c-2.124,0.728-4.295-0.307-5.158-2.483
					c-0.926-2.339,0.15-4.517,2.485-5.316c0.799-0.273,1.464-0.331,1.833-0.279c-0.054-0.168-0.081-0.252-0.135-0.42
					c0.628-0.201,0.943-0.298,1.574-0.487c0.373,1.24,0.559,1.859,0.932,3.099c-0.608,0.183-0.912,0.276-1.518,0.471
					c-0.055-0.172-0.083-0.257-0.138-0.429c-0.177-0.552-0.979-0.921-2.067-0.548c-0.762,0.261-1.617,1.201-0.91,3.127
					c0.659,1.795,1.907,2.118,2.624,1.873c1.172-0.401,1.433-1.561,1.387-1.704C-926.264,290.071-925.949,290.039-925.325,289.978z"
					/>
				<path fill="#5B5C5C" d="M-916.029,288.61c0.104,0.575,0.155,0.86,0.26,1.436c-0.802,0.146-1.202,0.223-2.001,0.389
					c-0.327-0.074-1.008-0.378-1.226-1.375c-0.124-0.566-0.823-1.606-2.049-1.469c0.189,0.789,0.285,1.186,0.474,1.976
					c0.297-0.071,0.446-0.109,0.744-0.178c0.131,0.569,0.197,0.855,0.328,1.425c-1.323,0.304-1.983,0.469-3.295,0.827
					c-0.154-0.563-0.231-0.844-0.385-1.407c0.347-0.095,0.521-0.142,0.869-0.232c-0.53-2.023-0.797-3.035-1.327-5.059
					c-0.369,0.097-0.552,0.146-0.92,0.246c-0.153-0.56-0.229-0.841-0.381-1.4c1.506-0.412,2.261-0.601,3.779-0.946
					c2.023-0.461,2.908,0.712,3.107,1.725c0.168,0.854-0.406,1.816-0.383,1.992c0.032,0.243,1.002,1.147,1.168,1.989
					c0.056,0.284,0.36,0.227,0.36,0.227C-916.559,288.707-916.381,288.674-916.029,288.61z M-920.766,286.037
					c0.715-0.166,0.962-0.657,0.868-1.088s-0.498-0.795-1.104-0.655c-0.316,0.073-0.474,0.109-0.79,0.186
					c0.163,0.681,0.244,1.021,0.407,1.701C-921.137,286.122-921.013,286.094-920.766,286.037z"/>
				<path fill="#5B5C5C" d="M-914.807,281.666c1.458-0.225,2.188-0.323,3.651-0.489c0.065,0.576,0.096,0.866,0.162,1.442
					c-0.316,0.036-0.474,0.051-0.79,0.09c0.253,2.072,0.381,3.108,0.635,5.18c0.297-0.036,0.445-0.054,0.743-0.088
					c0.065,0.571,0.097,0.857,0.162,1.429c-1.333,0.151-1.998,0.24-3.326,0.445c-0.088-0.568-0.131-0.851-0.219-1.419
					c0.297-0.046,0.445-0.069,0.742-0.112c-0.3-2.065-0.451-3.099-0.751-5.164c-0.315,0.046-0.473,0.069-0.788,0.118
					C-914.675,282.524-914.719,282.239-914.807,281.666z"/>
				<path fill="#5B5C5C" d="M-900.12,280.576c1.024,0.009,1.536,0.021,2.561,0.059c-0.021,0.579-0.031,0.869-0.053,1.448
					c-0.378-0.014-0.567-0.021-0.946-0.031c-0.055,2.092-0.082,3.138-0.136,5.229c0.356,0.009,0.535,0.017,0.891,0.029
					c-0.021,0.579-0.031,0.867-0.053,1.446c-1.339-0.049-2.008-0.06-3.348-0.055c-0.002-0.58-0.004-0.868-0.006-1.448
					c0.233-0.001,0.35-0.001,0.583,0c0.003-1.049,0.004-1.574,0.007-2.622c-0.798,1.625-1.178,2.443-1.902,4.086
					c-0.354,0.007-0.533,0.011-0.887,0.021c0,0-1.74-2.984-2.417-4.097c0.062,1.098,0.094,1.648,0.156,2.746
					c0.237-0.014,0.354-0.02,0.591-0.031c0.029,0.579,0.042,0.867,0.071,1.446c-1.166,0.058-1.747,0.097-2.91,0.195
					c-0.049-0.577-0.073-0.866-0.123-1.444c0.36-0.03,0.54-0.044,0.899-0.07c-0.155-2.087-0.231-3.129-0.386-5.216
					c-0.382,0.028-0.575,0.044-0.957,0.076c-0.049-0.578-0.072-0.866-0.122-1.444c0.96-0.082,1.442-0.116,2.404-0.172
					c1.404,2.069,2.069,3.118,3.323,5.237C-901.843,283.792-901.291,282.713-900.12,280.576z"/>
				<path fill="#5B5C5C" d="M-888.791,287.245c-0.329,2.295-2.646,1.993-3.378,1.916c-0.731-0.077-1.565-0.441-1.824-1.045
					c-0.029,0.347-0.042,0.521-0.071,0.867c-0.582-0.048-0.873-0.069-1.455-0.107c0.086-1.333,0.129-1.999,0.216-3.332
					c0.605,0.039,0.909,0.063,1.514,0.113c-0.024,0.291-0.037,0.437-0.061,0.728c-0.048,0.578,0.652,1.216,1.539,1.307
					c0.745,0.076,1.655-0.121,1.707-0.548c0.088-0.726-0.487-0.963-1.804-1.502c-1.006-0.412-2.678-0.955-2.572-2.552
					c0.086-1.295,1.588-2.237,3.349-2.058c1.123,0.115,1.542,0.615,1.64,1.071c0.042-0.35,0.064-0.526,0.107-0.876
					c0.642,0.078,0.962,0.118,1.603,0.208c-0.153,1.094-0.228,1.644-0.381,2.736c-0.622-0.087-0.934-0.125-1.556-0.201
					c0.007-0.056,0.011-0.085,0.018-0.141c0.052-0.426-0.323-1.217-1.579-1.345c-0.477-0.049-1.13,0.184-1.17,0.623
					c-0.038,0.427,0.438,0.637,1.464,1.021C-890.32,284.565-888.501,285.224-888.791,287.245z"/>
				<path fill="#5B5C5C" d="M-878.603,287.555c-0.795,3.004-3.098,3.481-4.874,3.1c-1.901-0.408-3.645-1.896-3.158-4.824
					c0.465-2.803,2.817-3.775,4.91-3.326C-879.77,282.924-877.836,284.663-878.603,287.555z M-880.742,287.018
					c0.381-1.602-0.181-2.813-1.297-3.053c-1.265-0.271-2.257,0.609-2.565,2.227c-0.304,1.594,0.25,2.756,1.439,3.012
					C-882.116,289.429-881.118,288.597-880.742,287.018z"/>
				<path fill="#5B5C5C" d="M-870.539,285.775c1.289,0.455,1.932,0.694,3.208,1.199c-0.213,0.539-0.32,0.809-0.534,1.348
					c-0.3-0.119-0.451-0.178-0.752-0.294c-0.961,2.494-1.442,3.739-2.403,6.231c-0.443-0.171-0.665-0.254-1.109-0.418
					c-0.746-2.441-1.168-3.66-2.111-6.091c-0.439,1.384-0.659,2.076-1.098,3.46c0.149,0.047,0.869,0.28,0.869,0.28
					c-0.181,0.551-0.272,0.825-0.454,1.376c-1.181-0.389-1.773-0.573-2.964-0.917c0.161-0.557,0.241-0.834,0.401-1.391
					c0.346,0.1,0.518,0.151,0.863,0.255c0.601-2.004,0.901-3.007,1.502-5.011c-0.366-0.109-0.549-0.164-0.916-0.27
					c0.161-0.558,0.241-0.833,0.401-1.391c1.113,0.321,1.668,0.488,2.774,0.846c0.768,2.077,1.118,3.118,1.75,5.2
					c0.398-1.089,0.597-1.633,0.995-2.723c-0.361-0.132-0.543-0.198-0.905-0.326C-870.828,286.593-870.731,286.322-870.539,285.775z
					"/>
			</g>
		</g>
		<g>
			<g>
				<path fill="#5B5C5C" d="M-920.993,303.135c1.414,0.45,2.125,0.654,3.555,1.025c-0.15,0.58-0.226,0.872-0.376,1.452
					c-0.307-0.079-0.46-0.118-0.767-0.201c-0.565,2.084-0.848,3.123-1.413,5.207c0.331,0.09,0.496,0.136,0.827,0.222
					c-0.15,0.581-0.226,0.87-0.376,1.451c-1.608-0.417-2.409-0.648-3.998-1.154c0.182-0.571,0.273-0.857,0.455-1.429
					c0.395,0.126,0.594,0.187,0.99,0.307c0.244-0.804,0.363-1.204,0.606-2.008c-1.149-0.349-1.721-0.534-2.858-0.932
					c-0.277,0.793-0.415,1.188-0.691,1.98c0.392,0.137,0.587,0.206,0.981,0.337c-0.189,0.569-0.284,0.851-0.474,1.42
					c-1.583-0.528-2.371-0.814-3.931-1.432c0.221-0.558,0.333-0.836,0.553-1.394c0.321,0.127,0.481,0.19,0.804,0.313
					c0.771-2.017,1.157-3.023,1.928-5.04c-0.299-0.114-0.448-0.174-0.746-0.292c0.221-0.558,0.331-0.837,0.551-1.395
					c1.388,0.55,2.087,0.804,3.496,1.273c-0.189,0.569-0.284,0.854-0.474,1.423c-0.365-0.122-0.547-0.183-0.911-0.31
					c-0.237,0.68-0.354,1.02-0.592,1.699c1.114,0.389,1.673,0.569,2.798,0.91c0.209-0.688,0.314-1.031,0.523-1.72
					c-0.367-0.111-0.551-0.168-0.917-0.284C-921.265,303.996-921.174,303.707-920.993,303.135z"/>
				<path fill="#5B5C5C" d="M-910.335,305.602c0,0,2.185,6.918,2.33,7.223c0.402,0.041,0.602,0.061,1.004,0.096
					c-0.053,0.598-0.079,0.897-0.131,1.495c-1.577-0.139-2.363-0.229-3.933-0.45c0.083-0.589,0.123-0.884,0.206-1.473
					c0.198,0.027,0.297,0.042,0.495,0.068c-0.121-0.318-0.213-0.633-0.341-0.967c-1.045-0.146-1.566-0.229-2.607-0.414
					c-0.211,0.333-0.319,0.497-0.533,0.829c0.197,0.036,0.296,0.055,0.493,0.089c-0.103,0.586-0.153,0.881-0.256,1.467
					c-1.353-0.237-2.027-0.371-3.37-0.67c0.13-0.585,0.194-0.879,0.325-1.464c0.396,0.088,0.595,0.132,0.993,0.215
					c0.501-0.815,4.236-6.215,4.236-6.215c0.445,0.073,0.668,0.106,1.114,0.172C-910.321,305.602-910.326,305.603-910.335,305.602z
					 M-911.066,310.027c-0.207-0.705-0.306-1.057-0.499-1.763c-0.382,0.614-0.578,0.919-0.973,1.528
					C-911.949,309.892-911.655,309.94-911.066,310.027z"/>
				<path fill="#5B5C5C" d="M-898.034,306.265c1.221-0.045,1.831-0.08,3.049-0.18c0.049,0.603,0.074,0.902,0.123,1.505
					c-0.314,0.025-0.472,0.04-0.786,0.063c-0.149,0.011-0.14,0.139-0.14,0.139c-0.755,2.768-1.179,4.148-2.119,6.894
					c-0.555,0.019-0.832,0.026-1.387,0.035c-0.648-1.736-0.955-2.608-1.532-4.356c-0.655,1.743-1.003,2.609-1.736,4.337
					c-0.483-0.013-0.725-0.022-1.208-0.043c-0.847-2.683-1.229-4.031-1.907-6.732c0.013-0.167-0.126-0.309-0.288-0.321
					c-0.314-0.025-0.471-0.038-0.785-0.066c0.055-0.602,0.082-0.905,0.137-1.507c1.466,0.133,2.201,0.181,3.671,0.234
					c-0.022,0.604-0.033,0.907-0.055,1.511c-0.25-0.009-0.374-0.014-0.623-0.025c0.32,1.215,0.487,1.82,0.84,3.032
					c0.714-1.782,1.049-2.677,1.681-4.475c0.425,0.004,0.639,0.003,1.063,0c0.627,1.8,0.961,2.696,1.671,4.48
					c0.355-1.211,0.525-1.815,0.848-3.03c-0.185,0.008-0.276,0.009-0.461,0.016C-898,307.17-898.012,306.869-898.034,306.265z"/>
				<path fill="#5B5C5C" d="M-883.391,311.239c0.333-0.078,0.5-0.119,0.832-0.201c0.143,0.577,0.215,0.866,0.358,1.443
					c-1.611,0.399-2.422,0.578-4.048,0.889c-0.111-0.584-0.167-0.879-0.278-1.463c-1.127-0.825-1.675-1.246-2.742-2.112
					c0.16,1.01,0.239,1.515,0.398,2.524c0.336-0.053,0.505-0.083,0.841-0.14c0.1,0.587,0.148,0.88,0.248,1.467
					c-1.56,0.265-2.343,0.378-3.911,0.561c-0.069-0.591-0.103-0.889-0.172-1.479c0.338-0.039,0.505-0.059,0.843-0.102
					c-0.275-2.151-0.412-3.225-0.688-5.375c-0.313,0.04-0.47,0.06-0.783,0.096c-0.069-0.591-0.103-0.889-0.172-1.479
					c1.395-0.162,2.091-0.262,3.479-0.497c0.1,0.587,0.149,0.879,0.249,1.466c-0.312,0.053-0.466,0.079-0.778,0.128
					c0.084,0.535,0.126,0.805,0.211,1.34c0.842-0.856,1.25-1.292,2.04-2.173c-0.08-0.415-0.121-0.621-0.201-1.036
					c1.205-0.233,1.806-0.365,3.001-0.653c0.139,0.578,0.209,0.87,0.349,1.448c-0.372,0.09-0.559,0.135-0.931,0.219
					c-0.221,0.05-0.331,0.221-0.662,0.621c-0.242,0.292-1.032,1.281-1.584,1.836c1.238,0.989,1.877,1.471,3.196,2.404
					C-884.035,311.157-883.721,311.317-883.391,311.239z"/>
				<path fill="#5B5C5C" d="M-873.409,307.153c0.883,2.23-1.729,3.215-2.56,3.498c-0.83,0.283-1.902,0.308-2.42-0.16
					c0.106,0.344,0.16,0.515,0.266,0.858c-0.664,0.204-0.997,0.303-1.664,0.491c-0.376-1.329-0.564-1.993-0.941-3.322
					c0.637-0.181,0.953-0.274,1.586-0.47c0.089,0.289,0.134,0.433,0.223,0.722c0.177,0.573,1.173,0.895,2.143,0.569
					c0.814-0.273,1.659-0.908,1.507-1.326c-0.259-0.71-0.948-0.622-2.49-0.556c-1.179,0.051-3.052,0.147-3.506-1.444
					c-0.369-1.291,0.667-2.688,2.286-3.232c1.032-0.347,1.615-0.081,1.913,0.296c-0.125-0.343-0.188-0.514-0.312-0.856
					c0.587-0.214,0.88-0.325,1.464-0.553c0.416,1.063,0.623,1.596,1.038,2.659c-0.608,0.237-0.913,0.353-1.525,0.575
					c-0.02-0.055-0.03-0.079-0.05-0.134c-0.152-0.417-0.848-0.956-2.046-0.554c-0.456,0.153-0.966,0.63-0.828,1.064
					c0.134,0.423,0.667,0.442,1.809,0.349C-876.22,305.52-874.187,305.19-873.409,307.153z"/>
			</g>
		</g>
	</g>
	<g>
		<path fill="#E9E9EA" d="M-822.146,200.92c-0.893,0-1.755,0.117-2.586,0.318c-8.769-28.625-38.907-49.726-74.753-49.726
			c-35.845,0-65.983,21.101-74.753,49.726c-0.83-0.201-1.693-0.318-2.586-0.318c-6.074,0-11,4.924-11,11c0,6.074,4.926,11,11,11
			c0.068,0,0.133-0.01,0.199-0.011c2.715,33.828,36.201,49.416,77.14,49.416c40.938,0,74.426-15.588,77.14-49.416
			c0.067,0.001,0.132,0.011,0.199,0.011c6.075,0,11-4.926,11-11C-811.146,205.844-816.07,200.92-822.146,200.92z"/>
		<g>
			<circle cx="-940.227" cy="208.627" r="7.5"/>
			<circle fill="#FFFFFF" cx="-942.721" cy="206.584" r="3.03"/>
		</g>
		<g>
			<circle cx="-859.727" cy="208.627" r="7.5"/>
			<circle fill="#FFFFFF" cx="-862.22" cy="206.584" r="3.03"/>
		</g>
		<path fill="none" stroke="#000000" stroke-width="3" stroke-linecap="round" stroke-miterlimit="10" d="M-899.484,203.555
			c0,0,0.812,8.268,4.312,12.572l-4.312,3.555"/>
		<path fill="none" stroke="#000000" stroke-width="3" stroke-linecap="round" stroke-miterlimit="10" d="M-911.753,226.391
			c0,5.105,3.842,12.916,12.318,12.916s12.827-6.481,12.827-12.826"/>
		<path fill="#604E75" d="M-899.181,127.915c-11.729,23.599-36.259,25.295-44.533,30.223c-1.883,0.93-3.639,1.908-5.252,2.928
			l-0.01,0.005h0.002c-2.632,1.663-4.881,3.431-6.616,5.279c-10.324,11.001-19.127,25.778-18.647,34.89c0,0,2.814,3.334,2.814,7.389
			h5.5c0,0,0.5-26.445,16-36.445c0,0,25.348-10.674,48.514-9.84c23.167,0.833,50.819,8.674,50.819,8.674
			c19.667,12.667,17.667,37.611,17.667,37.611h5.333c0.166-4.055,2.858-7.389,2.858-7.389
			c-1.796-21.188-14.808-32.051-22.938-38.055h0.001c-0.001,0-0.001,0-0.001,0c-1.28-0.946-2.444-1.775-3.42-2.502
			c-1.853-1.379-4.369-2.846-7.428-4.275C-889.742,149.082-899.181,127.915-899.181,127.915z"/>
	</g>
</g>
<g>
	<g>
		<path fill="#E9E9EA" d="M162.314,142.343h2.438c5.94,0,10.8,4.86,10.8,10.8v32.733c0,5.939-4.859,10.801-10.8,10.801h-2.438
			V142.343z"/>
		<path fill="#E9E9EA" d="M83.407,142.343H80.97c-5.94,0-10.801,4.86-10.801,10.8v32.733c0,5.939,4.86,10.801,10.801,10.801h2.438
			V142.343z"/>
		<path fill="#333333" d="M164.752,142.343h-2.438H83.407H80.97c-5.94,0-10.801,4.86-10.801,10.8v5.699h13.238v54.5h78.907v-54.5
			h13.237v-5.699C175.552,147.203,170.692,142.343,164.752,142.343z"/>
		<polygon fill="#B69FCC" points="83.407,213.342 83.407,230.008 83.407,269.676 112.196,269.676 112.196,230.008 133.524,230.008 
			133.524,269.676 162.314,269.676 162.314,230.008 162.314,213.342 		"/>
		<path d="M97.802,284.071c7.949,0,14.395-6.445,14.395-14.395H83.407C83.407,277.625,89.852,284.071,97.802,284.071z"/>
		<path d="M147.919,284.071c7.951,0,14.396-6.445,14.396-14.395h-28.79C133.524,277.625,139.97,284.071,147.919,284.071z"/>
		<path fill="#B69FCC" d="M97.802,255.282c-7.95,0-14.395,6.443-14.395,14.395h28.789
			C112.196,261.725,105.751,255.282,97.802,255.282z"/>
		<path fill="#B69FCC" d="M147.919,255.282c-7.949,0-14.395,6.443-14.395,14.395h28.79
			C162.314,261.725,155.87,255.282,147.919,255.282z"/>
		<g>
			<g>
				<path fill="#B69FCC" d="M99.14,160.859c1.531-0.451,2.301-0.658,3.847-1.035c0.162,0.665,0.244,0.998,0.406,1.663
					c-0.458,0.112-0.688,0.169-1.145,0.288c-0.075,1.263-1.27,7.849-1.243,8.557c-0.533,0.164-0.797,0.249-1.328,0.423
					c-0.389-0.593-5.556-5.688-5.989-6.256c-0.439,0.167-0.659,0.25-1.096,0.424c-0.252-0.636-0.378-0.954-0.63-1.59
					c1.645-0.651,2.473-0.955,4.142-1.516c0.218,0.648,0.328,0.974,0.546,1.622c-0.148,0.05-0.223,0.075-0.371,0.125
					c0.648,0.69,3.131,3.495,3.131,3.495c0.152-0.04,0.69-3.63,0.782-4.724c-0.228,0.065-0.341,0.099-0.568,0.166
					C99.43,161.844,99.333,161.515,99.14,160.859z"/>
				<path fill="#B69FCC" d="M117.639,163.262c-0.112,1.588-0.163,2.383-0.252,3.971c-3.276,0.242-4.913,0.454-8.154,1.058
					c-0.125-0.673-0.189-1.008-0.314-1.681c0.355-0.066,0.534-0.098,0.889-0.16c-0.424-2.433-0.636-3.649-1.06-6.082
					c-0.384,0.067-0.576,0.102-0.96,0.173c-0.125-0.673-0.189-1.009-0.314-1.682c3.423-0.638,5.151-0.868,8.61-1.148
					c0.5,1.267,0.743,1.902,1.213,3.175c-0.761,0.053-1.14,0.084-1.9,0.155c-0.244-0.665-0.526-1.513-1.676-1.384
					c-1,0.112-1.502,0.176-2.5,0.319c0.117,0.818,0.177,1.227,0.294,2.045c0.525-0.075,0.788-0.111,1.314-0.177
					c-0.035-0.277-0.054-0.415-0.088-0.691c0.753-0.095,1.13-0.138,1.885-0.215c0.126,1.23,0.19,1.846,0.316,3.076
					c-0.726,0.074-1.089,0.116-1.813,0.208c-0.034-0.271-0.052-0.408-0.086-0.68c-0.515,0.065-0.773,0.1-1.287,0.174
					c0.136,0.949,0.204,1.423,0.34,2.372c1.138-0.163,1.709-0.233,2.85-0.353c0.525-0.055,0.765-1.287,0.864-2.327
					C116.54,163.34,116.907,163.311,117.639,163.262z"/>
				<path fill="#B69FCC" d="M130.549,165.71c-0.069,0.687-0.104,1.029-0.173,1.715c-0.966-0.098-1.45-0.14-2.417-0.206
					c-0.351-0.188-1.036-0.75-0.971-1.953c0.037-0.684-0.44-2.091-1.906-2.311c-0.027,0.958-0.041,1.437-0.067,2.395
					c0.365,0.01,0.546,0.017,0.911,0.031c-0.027,0.689-0.042,1.033-0.069,1.722c-1.61-0.065-2.415-0.075-4.025-0.052
					c-0.01-0.69-0.014-1.034-0.023-1.724c0.428-0.006,0.641-0.009,1.068-0.009c0-2.469,0-3.703,0.002-6.172
					c-0.462,0-0.693,0.001-1.156,0.008c-0.009-0.685-0.015-1.026-0.024-1.711c1.901-0.026,2.851-0.014,4.751,0.068
					c2.531,0.108,3.188,1.737,3.087,2.951c-0.085,1.023-1.069,1.937-1.098,2.138c-0.041,0.281,0.789,1.626,0.706,2.636
					c-0.028,0.341,0.341,0.373,0.341,0.373C129.91,165.648,130.123,165.667,130.549,165.71z M125.894,161.271
					c0.886,0.034,1.335-0.444,1.363-0.964c0.028-0.519-0.327-1.063-1.082-1.093c-0.395-0.016-0.591-0.023-0.986-0.034
					c-0.024,0.826-0.037,1.239-0.06,2.065C125.436,161.254,125.587,161.259,125.894,161.271z"/>
				<path fill="#B69FCC" d="M144.473,165.25c-0.751,2.646-3.402,3.999-5.965,3.447c-1.639-0.353-2.46-0.506-4.111-0.766
					c0.106-0.682,0.16-1.023,0.267-1.705c0.339,0.053,0.506,0.081,0.845,0.138c0.407-2.418,0.61-3.627,1.02-6.045
					c-0.366-0.062-0.549-0.092-0.915-0.15c0.108-0.687,0.162-1.03,0.271-1.717c1.864,0.293,2.793,0.467,4.643,0.865
					C143.636,159.986,145.225,162.603,144.473,165.25z M137.819,166.791c0.292,0.059,0.438,0.088,0.73,0.15
					c2.09,0.44,3.179-0.839,3.552-2.325c0.376-1.5-0.243-3.243-2.289-3.674c-0.315-0.066-0.474-0.1-0.79-0.163
					C138.539,163.183,138.301,164.386,137.819,166.791z"/>
				<path fill="#B69FCC" d="M149.441,161.798c1.735,0.58,2.597,0.894,4.306,1.571c-0.252,0.636-0.38,0.955-0.632,1.591
					c-0.367-0.146-0.551-0.217-0.92-0.358c-0.88,2.301-1.321,3.451-2.2,5.753c0.341,0.13,0.512,0.198,0.852,0.333
					c-0.25,0.631-0.373,0.946-0.623,1.577c-1.515-0.6-2.277-0.877-3.814-1.391c0.215-0.644,0.321-0.966,0.536-1.61
					c0.345,0.115,0.518,0.173,0.861,0.293c0.808-2.327,1.216-3.491,2.024-5.818c-0.372-0.129-0.559-0.192-0.932-0.317
					C149.116,162.773,149.225,162.447,149.441,161.798z"/>
			</g>
		</g>
	</g>
	<g>
		<path fill="#E9E9EA" d="M199.896,76.711c-0.893,0-1.756,0.117-2.586,0.318c-8.77-28.624-38.908-49.725-74.753-49.725
			S56.573,48.405,47.804,77.029c-0.83-0.201-1.693-0.318-2.586-0.318c-6.074,0-11,4.925-11,11c0,6.074,4.926,11,11,11
			c0.068,0,0.133-0.009,0.199-0.01c2.715,33.828,36.201,49.416,77.14,49.416c40.938,0,74.425-15.588,77.14-49.416
			c0.066,0.001,0.131,0.01,0.199,0.01c6.074,0,11-4.926,11-11C210.896,81.636,205.97,76.711,199.896,76.711z"/>
		<path fill="none" stroke="#000000" stroke-width="3" stroke-linecap="round" stroke-miterlimit="10" d="M122.557,79.346
			c0,0,0.812,8.269,4.312,12.573l-4.312,3.555"/>
		<g>
			<path fill="#FFFFFF" d="M135.129,115.188c0,6.346-4.351,12.827-12.827,12.827s-12.318-7.812-12.318-12.917
				c2.218,2.538,6.267,4.654,12.506,4.654C128.494,119.753,132.684,117.512,135.129,115.188z"/>
			<path fill="none" stroke="#000000" stroke-width="3" stroke-linecap="round" stroke-miterlimit="10" d="M109.983,115.099
				c2.218,2.538,6.267,4.654,12.506,4.654c6.005,0,10.194-2.241,12.64-4.564"/>
			<path fill="none" stroke="#000000" stroke-width="3" stroke-linecap="round" stroke-miterlimit="10" d="M109.983,115.099
				c0,5.105,3.842,12.917,12.318,12.917s12.827-6.481,12.827-12.827"/>
		</g>
		<path fill="#E9E9EA" d="M199.696,98.7c0.066,0.001,0.131,0.011,0.199,0.011c6.074,0,11-4.926,11-11c0-6.076-4.926-11-11-11
			c-0.893,0-1.756,0.117-2.586,0.318l-5.525,12.45L199.696,98.7z"/>
		<path fill="#E9E9EA" d="M45.418,98.7c-0.066,0.001-0.131,0.011-0.199,0.011c-6.074,0-11-4.926-11-11c0-6.076,4.926-11,11-11
			c0.893,0,1.756,0.117,2.586,0.318l5.525,12.45L45.418,98.7z"/>
		<circle fill="#C4C4C3" cx="76.689" cy="111.077" r="9.595"/>
		<circle fill="#C4C4C3" cx="168.934" cy="111.077" r="9.595"/>
		<path fill="#604E75" d="M45.118,44.706c-22.223,21.149-24.334,70.333-6,91.667c18.334,21.333,2.333,36.333-8,38
			c-10.333,1.666-19.334-9.334-19.334-9.334c0.396,3.443,1.352,6.446,2.728,9.069c-2.298-1.246-4.663-2.78-5.65-4.243
			c0,0,4.06,8.137,10.563,10.583c1.052,0.959,2.184,1.832,3.389,2.613c-4.779,3.223-11.028,3.232-11.028,3.232
			c21.871,4.82,29.543,3.684,32.228,2.422c0.044,0,0.088,0.002,0.131,0.002c-6.029,5.188-15.043,5.576-15.043,5.576
			c15.602-0.252,24.275-3.078,29.048-5.824c-3.5,4.729-7.381,7.49-7.381,7.49c6.907-1.828,11.89-7.023,15.076-11.568
			c0.249-0.113,0.495-0.23,0.737-0.348c-1.121,7.074-2.813,8.916-2.813,8.916c7.493-7.066,11.745-14.213,14.116-19.516
			c1.328-2.516,2.225-5.243,2.737-8.047c0.056-0.271,0.08-0.419,0.08-0.419s-0.004,0.002-0.005,0.002
			c2.012-11.918-2.79-25.031-10.526-28.589c-11.635-5.352-33.218-30.908-22.365-59.361c9.969-26.136,31.093-24.861,41.511-29.656
			c10.137-4.667,17.804-17.667,17.804-17.667C93.451,15.039,67.957,22.971,45.118,44.706z"/>
		<path fill="#604E75" d="M164.403,171.516c-0.075,12.131,5.55,21.569,17.363,32.11c0,0-1.79-4.334,3.293-7.783
			c0.05,0.023,0.098,0.049,0.147,0.074c2.565,4.865,9.68,11.211,29.393,10.377c0,0-5.979-0.936-10.978-5.67
			c5.228,1.791,15.366,3.506,31.978-0.363c0,0-9.593,0.264-8.694-6.748c13.529-8.51,9.918-19.139,9.918-19.139s-4,8.998-16,8.998
			s-31.332-16.667-16.666-52.333s12.495-75.284-14.373-98c-17.742-15-44.627-27-74.627-17.334c0,0-24.965,11-16.982,23.334
			s22.943-1.666,44.315,0c12.527,0.977,45.949,10.863,55.192,37.99c8.352,24.51-6.813,49.141-15.473,54.742
			C175.32,136.229,164.453,159.396,164.403,171.516z"/>
		<path fill="none" stroke="#000000" stroke-width="3" stroke-linecap="round" stroke-miterlimit="10" d="M69.684,77.953
			c0,2.075,1.561,5.25,5.006,5.25s5.214-2.635,5.214-5.213"/>
		<path fill="none" stroke="#000000" stroke-width="3" stroke-linecap="round" stroke-miterlimit="10" d="M74.793,73.163
			c0,2.075,1.561,5.25,5.006,5.25c1.54,0,2.744-0.526,3.605-1.338"/>
		<path fill="none" stroke="#000000" stroke-width="3" stroke-linecap="round" stroke-miterlimit="10" d="M174.709,73.163
			c0,2.075-1.561,5.25-5.006,5.25c-1.539,0-2.744-0.526-3.605-1.338"/>
		<path fill="none" stroke="#000000" stroke-width="3" stroke-linecap="round" stroke-miterlimit="10" d="M169.521,77.953
			c0,2.075,1.561,5.25,5.006,5.25s5.214-2.635,5.214-5.213"/>
		<g>
			<circle cx="84.403" cy="80.678" r="7.5"/>
			<circle fill="#FFFFFF" cx="81.909" cy="78.635" r="3.03"/>
		</g>
		<g>
			<circle cx="164.903" cy="80.678" r="7.5"/>
			<circle fill="#FFFFFF" cx="162.409" cy="78.635" r="3.03"/>
		</g>
	</g>
</g>
</svg>
