<?xml version="1.0" encoding="utf-8"?>
<!-- Generator: Adobe Illustrator 15.0.0, SVG Export Plug-In . SVG Version: 6.00 Build 0)  -->
<!DOCTYPE svg PUBLIC "-//W3C//DTD SVG 1.1//EN" "http://www.w3.org/Graphics/SVG/1.1/DTD/svg11.dtd">
<svg version="1.1" id="Layer_1" xmlns="http://www.w3.org/2000/svg" xmlns:xlink="http://www.w3.org/1999/xlink" x="0px" y="0px"
	 width="245px" height="28px" viewBox="0 0 245 28" enable-background="new 0 0 245 28" xml:space="preserve">
<path fill="none" stroke="#5C4A70" stroke-linecap="round" stroke-miterlimit="10" d="M86.796,15.688
	c-0.108,4.625-2.828,8.338-13.26,8.092c-10.431-0.244-12.419-4.067-23.929-4.338c-11.513-0.27-13.722,5.344-13.722,5.344
	s-0.55-4.641,3.797-8.879c0,0-9.782-1.554-12.686,5.554c0,0-2.308-6.283-23.14-7.717c21.064-0.45,23.476-6.626,23.476-6.626
	c2.46,7.801,12.411,6.146,12.411,6.146C35.6,8.824,36.37,4.215,36.37,4.215s1.942,5.711,13.453,5.979
	c11.512,0.271,13.678-3.455,24.107-3.211C84.36,7.229,86.904,11.064,86.796,15.688z"/>
<path fill="none" stroke="#5C4A70" stroke-linecap="round" stroke-miterlimit="10" d="M43.129,9.611c0,0,1.472,2.742,9.992,2.94
	c8.518,0.2,10.123-2.753,17.844-2.573c7.719,0.182,9.015,2.611,8.947,5.549c-0.067,2.937-1.478,5.302-9.199,5.121
	c-7.719-0.182-9.185-3.211-17.703-3.408c-8.521-0.201-10.118,2.469-10.118,2.469"/>
<circle fill="none" stroke="#5C4A70" stroke-linecap="round" stroke-miterlimit="10" cx="90.971" cy="15.985" r="4.099"/>
<circle fill="none" stroke="#5C4A70" stroke-linecap="round" stroke-miterlimit="10" cx="237.579" cy="15.985" r="2.578"/>
<line fill="none" stroke="#5C4A70" stroke-linecap="round" stroke-miterlimit="10" x1="95.07" y1="15.986" x2="235" y2="15.986"/>
</svg>
