<?xml version="1.0" encoding="utf-8"?>
<!-- Generator: Adobe Illustrator 15.0.0, SVG Export Plug-In . SVG Version: 6.00 Build 0)  -->
<!DOCTYPE svg PUBLIC "-//W3C//DTD SVG 1.1//EN" "http://www.w3.org/Graphics/SVG/1.1/DTD/svg11.dtd">
<svg version="1.1" id="Layer_1" xmlns="http://www.w3.org/2000/svg" xmlns:xlink="http://www.w3.org/1999/xlink" x="0px" y="0px"
	 width="792px" height="612px" viewBox="0 0 792 612" enable-background="new 0 0 792 612" xml:space="preserve">
<path fill="#FFFFFF" d="M411.02,315.437c0,0-4.172-1.479-4.172-3.229c0-0.151,0.039-0.301,0.093-0.451
	c5.663-0.352,5.142-2.576,5.142-2.576c-0.932-1.014-1.502-2.568-1.857-4.058c0.13-0.872,0.188-1.855,0.122-3.005
	c-0.403-6.997-6.997-7.266-6.997-7.266s-5.823,0.241-6.857,6.079l-0.002-0.003c0,0-0.001,0.017-0.001,0.022
	c-0.063,0.368-0.113,0.754-0.137,1.168c-0.014,0.233-0.011,0.443-0.014,0.663c-0.233,1.907-0.817,4.816-2.273,6.401
	c0,0-0.569,2.375,5.706,2.607c0.046,0.14,0.079,0.279,0.079,0.42c0,1.75-4.171,3.229-4.171,3.229s-6.728,2.825-6.728,5.517v2.557
	h14.397h14.397v-2.557C417.747,318.262,411.02,315.437,411.02,315.437z"/>
<g>
	<path fill="#FFFFFF" d="M399.448,310.765c-1.484-0.863-2.827-1.429-2.827-1.429s-0.472-0.169-1.094-0.456
		c-0.139,0.225-0.284,0.441-0.442,0.643C395.295,309.839,396.295,310.594,399.448,310.765z"/>
	<path fill="#FFFFFF" d="M390.25,317.408c1.871-1.499,4.315-2.588,5.042-2.894c1.355-0.484,2.664-1.235,3.245-1.804
		c-2.5-0.23-4.17-0.882-4.974-1.941c-0.656-0.864-0.507-1.67-0.47-1.823l0.061-0.252l0.176-0.191
		c0.157-0.171,0.305-0.378,0.448-0.602c-0.737-0.517-1.327-1.137-1.327-1.795c0-1.276,2.072-2.348,3.039-5.546l0.449-2.603l0,0
		c0.039-0.598,0.052-1.234,0.011-1.942c-0.403-6.997-6.997-7.266-6.997-7.266s-6.594,0.269-6.997,7.266s3.498,8.342,3.498,10.091
		s-4.171,3.229-4.171,3.229s-6.728,2.825-6.728,5.517v2.556h14.397H390.25z"/>
	<path fill="#FFFFFF" d="M396.014,316.379c-0.646,0.271-1.379,0.629-2.108,1.029h9.444v-2.556c0-1.14-1.208-2.3-2.599-3.263
		c0.063,0.219,0.1,0.421,0.1,0.617C400.851,314.486,397.148,315.977,396.014,316.379z"/>
</g>
</svg>
