<?xml version="1.0" encoding="utf-8"?>
<!-- Generator: Adobe Illustrator 15.0.0, SVG Export Plug-In . SVG Version: 6.00 Build 0)  -->
<!DOCTYPE svg PUBLIC "-//W3C//DTD SVG 1.1//EN" "http://www.w3.org/Graphics/SVG/1.1/DTD/svg11.dtd">
<svg version="1.1" id="Layer_1" xmlns="http://www.w3.org/2000/svg" xmlns:xlink="http://www.w3.org/1999/xlink" x="0px" y="0px"
	 width="245px" height="28px" viewBox="0 0 245 28" enable-background="new 0 0 245 28" xml:space="preserve">
<path fill="none" stroke="#5C4A70" stroke-linecap="round" stroke-miterlimit="10" d="M157.218,13.312
	c0.108-4.625,2.828-8.337,13.261-8.091c10.431,0.244,12.418,4.067,23.929,4.337c11.513,0.27,13.722-5.343,13.722-5.343
	s0.551,4.64-3.797,8.879c0,0,9.781,1.555,12.686-5.554c0,0,2.309,6.283,23.141,7.717c-21.064,0.45-23.477,6.626-23.477,6.626
	c-2.459-7.801-12.41-6.146-12.41-6.146c4.144,4.438,3.375,9.049,3.375,9.049s-1.942-5.711-13.453-5.979
	c-11.512-0.271-13.678,3.454-24.107,3.211C159.652,21.771,157.109,17.936,157.218,13.312z"/>
<path fill="none" stroke="#5C4A70" stroke-linecap="round" stroke-miterlimit="10" d="M200.885,19.389c0,0-1.472-2.742-9.992-2.94
	c-8.518-0.2-10.123,2.753-17.844,2.573c-7.719-0.183-9.015-2.611-8.947-5.549c0.067-2.937,1.479-5.302,9.199-5.122
	c7.719,0.182,9.186,3.211,17.703,3.409c8.521,0.201,10.118-2.469,10.118-2.469"/>
<circle fill="none" stroke="#5C4A70" stroke-linecap="round" stroke-miterlimit="10" cx="153.042" cy="13.014" r="4.099"/>
<circle fill="none" stroke="#5C4A70" stroke-linecap="round" stroke-miterlimit="10" cx="6.435" cy="13.014" r="2.578"/>
<line fill="none" stroke="#5C4A70" stroke-linecap="round" stroke-miterlimit="10" x1="148.943" y1="13.013" x2="9.014" y2="13.013"/>
</svg>
