<?xml version="1.0" encoding="utf-8"?>
<!-- Generator: Adobe Illustrator 16.0.0, SVG Export Plug-In . SVG Version: 6.00 Build 0)  -->
<!DOCTYPE svg PUBLIC "-//W3C//DTD SVG 1.1//EN" "http://www.w3.org/Graphics/SVG/1.1/DTD/svg11.dtd">
<svg version="1.1" id="Layer_1" xmlns="http://www.w3.org/2000/svg" xmlns:xlink="http://www.w3.org/1999/xlink" x="0px" y="0px"
	 width="182.5px" height="294.334px" viewBox="0 0 182.5 294.334" enable-background="new 0 0 182.5 294.334" xml:space="preserve">
<g>
	<g>
		<path fill="#E9E9EA" d="M130.87,147.968h2.438c5.939,0,10.801,4.86,10.801,10.801v32.732c0,5.939-4.86,10.8-10.801,10.8h-2.438
			V147.968z"/>
		<path fill="#E9E9EA" d="M51.963,147.968h-2.438c-5.939,0-10.8,4.86-10.8,10.801v32.732c0,5.939,4.86,10.8,10.8,10.8h2.438V147.968
			z"/>
		<path fill="#5B5C5C" d="M133.309,147.968h-2.438H51.963h-2.438c-5.939,0-10.8,4.86-10.8,10.801v5.698h13.237v54.5h78.907v-54.5
			h13.238v-5.698C144.107,152.829,139.248,147.968,133.309,147.968z"/>
		<polygon fill="#604E75" points="51.963,218.967 51.963,235.634 51.963,275.301 80.753,275.301 80.753,235.634 102.081,235.634 
			102.081,275.301 130.87,275.301 130.87,235.634 130.87,218.967 		"/>
		<path d="M66.357,289.696c7.95,0,14.396-6.444,14.396-14.396h-28.79C51.963,283.251,58.408,289.696,66.357,289.696z"/>
		<path d="M116.477,289.696c7.949,0,14.395-6.444,14.395-14.396h-28.789C102.081,283.251,108.525,289.696,116.477,289.696z"/>
		<path fill="#604E75" d="M66.357,260.907c-7.949,0-14.395,6.443-14.395,14.395h28.79C80.753,267.351,74.308,260.907,66.357,260.907
			z"/>
		<path fill="#604E75" d="M116.477,260.907c-7.949,0-14.396,6.443-14.396,14.395h28.789
			C130.87,267.351,124.426,260.907,116.477,260.907z"/>
	</g>
	<g>
		<path fill="#E9E9EA" d="M168.441,84.336c-0.893,0-1.756,0.118-2.586,0.318c-8.77-28.624-38.907-49.725-74.752-49.725
			c-35.846,0-65.984,21.101-74.752,49.725c-0.831-0.201-1.693-0.318-2.586-0.318c-6.076,0-11,4.925-11,11s4.924,11,11,11
			c0.066,0,0.132-0.009,0.199-0.01c2.713,33.829,36.201,49.417,77.139,49.417s74.424-15.588,77.14-49.417
			c0.065,0.001,0.131,0.01,0.198,0.01c6.074,0,11-4.925,11-11S174.518,84.336,168.441,84.336z"/>
		<g>
			<circle cx="50.361" cy="92.044" r="7.5"/>
			<circle fill="#FFFFFF" cx="47.867" cy="90.001" r="3.029"/>
		</g>
		<g>
			<circle cx="130.861" cy="92.044" r="7.5"/>
			<circle fill="#FFFFFF" cx="128.367" cy="90.001" r="3.03"/>
		</g>
		<path fill="none" stroke="#000000" stroke-width="3" stroke-linecap="round" stroke-miterlimit="10" d="M91.104,86.972
			c0,0,0.812,8.268,4.312,12.573l-4.312,3.555"/>
		<path fill="none" stroke="#000000" stroke-width="3" stroke-linecap="round" stroke-miterlimit="10" d="M78.835,109.807
			c0,5.106,3.842,12.917,12.318,12.917s12.828-6.482,12.828-12.827"/>
		<path fill="#353535" d="M142.918,46.601L142.918,46.601C142.918,46.601,142.918,46.6,142.918,46.601
			c-1.279-0.946-2.443-1.776-3.42-2.501c-1.854-1.379-4.369-2.847-7.43-4.276c-16.111-12.402-23.727-29.564-23.727-29.564
			c-3,9.667-8.751,6.667-8.751,6.667c-2.751-1-3.083-6-3.083-6c-0.5,3.5-4,6.5-6.666,4.167c-2.667-2.333-4-11.5-4-11.5
			s-1.5,18-8.334,16.833c-6.833-1.167-6.166-5.167-6.166-5.167c-0.968,10.89-16.194,21.368-24.47,26.295
			c-1.881,0.93-3.637,1.909-5.25,2.928c-0.002,0-0.012,0.005-0.012,0.005h0.002c-2.631,1.663-4.881,3.431-6.615,5.279
			c-10.323,11-19.126,25.777-18.645,34.888c0,0,2.813,3.335,2.813,7.39h5.5c0,0,0.5-26.445,16-36.445
			c0,0,25.348-10.674,48.515-9.841c23.166,0.833,50.819,8.674,50.819,8.674c19.667,12.667,17.667,37.612,17.667,37.612h5.332
			c0.166-4.055,2.859-7.39,2.859-7.39C164.061,63.468,151.049,52.605,142.918,46.601z"/>
	</g>
</g>
</svg>
