<?xml version="1.0" encoding="utf-8"?>
<!-- Generator: Adobe Illustrator 16.0.0, SVG Export Plug-In . SVG Version: 6.00 Build 0)  -->
<!DOCTYPE svg PUBLIC "-//W3C//DTD SVG 1.1//EN" "http://www.w3.org/Graphics/SVG/1.1/DTD/svg11.dtd">
<svg version="1.1" id="Layer_1" xmlns="http://www.w3.org/2000/svg" xmlns:xlink="http://www.w3.org/1999/xlink" x="0px" y="0px"
	 width="394.501px" height="283.341px" viewBox="0 -15.659 394.501 283.341" enable-background="new 0 -15.659 394.501 283.341"
	 xml:space="preserve">
<g>
	<g>
		<path fill="#E9E9EA" d="M134.046,118.109h2.438c5.94,0,10.801,4.86,10.801,10.801v32.732c0,5.939-4.86,10.8-10.801,10.8h-2.438
			V118.109z"/>
		<path fill="#E9E9EA" d="M55.138,118.109H52.7c-5.94,0-10.8,4.86-10.8,10.801v32.732c0,5.939,4.86,10.8,10.8,10.8h2.438V118.109z"
			/>
		<path fill="#5B5C5C" d="M136.483,118.109h-2.438H55.138H52.7c-5.94,0-10.8,4.86-10.8,10.801v5.698h13.237v54.5h78.908v-54.5
			h13.237v-5.698C147.283,122.969,142.423,118.109,136.483,118.109z"/>
		<polygon fill="#B69FCC" points="55.138,189.108 55.138,205.775 55.138,245.442 83.928,245.442 83.928,205.775 105.256,205.775 
			105.256,245.442 134.046,245.442 134.046,205.775 134.046,189.108 		"/>
		<path d="M69.533,259.836c7.95,0,14.395-6.444,14.395-14.396h-28.79C55.138,253.392,61.583,259.836,69.533,259.836z"/>
		<path d="M119.651,259.836c7.949,0,14.395-6.444,14.395-14.396h-28.79C105.256,253.392,111.701,259.836,119.651,259.836z"/>
		<path fill="#B69FCC" d="M69.533,231.047c-7.95,0-14.395,6.444-14.395,14.395h28.79C83.928,237.492,77.483,231.047,69.533,231.047z
			"/>
		<path fill="#B69FCC" d="M119.651,231.047c-7.95,0-14.396,6.444-14.396,14.395h28.79
			C134.046,237.492,127.601,231.047,119.651,231.047z"/>
	</g>
	<g>
		<path fill="#E9E9EA" d="M171.626,54.727c-0.893,0-1.755,0.118-2.586,0.318C160.272,26.421,130.133,5.32,94.288,5.32
			c-35.845,0-65.984,21.102-74.752,49.726c-0.831-0.201-1.693-0.318-2.586-0.318c-6.075,0-11,4.925-11,11s4.925,11,11,11
			c0.067,0,0.132-0.009,0.199-0.01c2.714,33.829,36.201,49.417,77.139,49.417c40.938,0,74.425-15.588,77.139-49.417
			c0.067,0.001,0.133,0.01,0.199,0.01c6.075,0,11-4.925,11-11C182.627,59.652,177.701,54.727,171.626,54.727z"/>
		<g>
			<circle cx="53.546" cy="62.435" r="7.5"/>
			<circle fill="#FFFFFF" cx="51.052" cy="60.392" r="3.03"/>
		</g>
		<g>
			<circle cx="134.046" cy="62.435" r="7.5"/>
			<circle fill="#FFFFFF" cx="131.552" cy="60.392" r="3.03"/>
		</g>
		<path fill="#B69FCC" d="M142.683,14.49c-7.166-5.333-24.17-11.994-44.658-12.638C75.849,1.156,48.349,9.323,38.183,20.156
			C27.858,31.157,19.056,45.935,19.536,55.045c0,0,2.813,3.335,2.813,7.39h5.5c0,0,0.5-26.444,16-36.444c0,0,7.5-0.833,10.167,4.833
			c0,0,4.227-3.333,2.03-6.5c0,0,24.428-4.833,39.928,10.792c0,0,3.125-5.542,0.875-7.542c0,0,16.125,0.667,22.375,7.917
			c0,0,0.875-2.417,0-5c-0.445-1.313,23.625-1.875,29.75,7.25c0,0,0.668-8.583-5.791-12.917
			c19.666,12.667,17.666,37.611,17.666,37.611h5.334c0.166-4.055,2.857-7.39,2.857-7.39
			C166.962,30.521,149.849,19.823,142.683,14.49z"/>
		<path fill="none" stroke="#000000" stroke-width="3" stroke-linecap="round" stroke-miterlimit="10" d="M94.288,57.362
			c0,0,0.811,8.269,4.311,12.573l-4.311,3.556"/>
		<path fill="none" stroke="#000000" stroke-width="3" stroke-linecap="round" stroke-miterlimit="10" d="M82.019,80.198
			c0,5.105,3.842,12.917,12.319,12.917c8.478,0,12.827-6.482,12.827-12.827"/>
	</g>
</g>
<g>
	<g>
		<path fill="#E9E9EA" d="M311.878,118.109h2.438c5.94,0,10.801,4.86,10.801,10.801v32.732c0,5.939-4.859,10.8-10.801,10.8h-2.438
			V118.109z"/>
		<path fill="#E9E9EA" d="M232.971,118.109h-2.438c-5.94,0-10.801,4.86-10.801,10.801v32.732c0,5.939,4.859,10.8,10.801,10.8h2.438
			V118.109z"/>
		<path fill="#333333" d="M314.315,118.109h-2.438h-78.907h-2.438c-5.94,0-10.801,4.86-10.801,10.801v5.698h13.237v54.5h78.907
			v-54.5h13.237v-5.698C325.115,122.969,320.256,118.109,314.315,118.109z"/>
		<polygon fill="#B69FCC" points="232.971,189.108 232.971,205.775 232.971,245.442 261.76,245.442 261.76,205.775 283.088,205.775 
			283.088,245.442 311.878,245.442 311.878,205.775 311.878,189.108 		"/>
		<path d="M247.365,259.836c7.949,0,14.395-6.444,14.395-14.396h-28.789C232.971,253.392,239.415,259.836,247.365,259.836z"/>
		<path d="M297.482,259.836c7.951,0,14.396-6.444,14.396-14.396h-28.79C283.088,253.392,289.533,259.836,297.482,259.836z"/>
		<path fill="#B69FCC" d="M247.365,231.047c-7.951,0-14.396,6.444-14.396,14.395h28.789
			C261.76,237.492,255.314,231.047,247.365,231.047z"/>
		<path fill="#B69FCC" d="M297.482,231.047c-7.948,0-14.395,6.444-14.395,14.395h28.79
			C311.878,237.492,305.434,231.047,297.482,231.047z"/>
	</g>
	<g>
		<path fill="#E9E9EA" d="M349.459,54.477c-0.894,0-1.756,0.118-2.586,0.318C338.104,26.171,307.965,5.07,272.12,5.07
			s-65.983,21.102-74.753,49.726c-0.83-0.201-1.693-0.318-2.586-0.318c-6.074,0-11,4.925-11,11s4.926,11,11,11
			c0.067,0,0.133-0.009,0.199-0.01c2.715,33.829,36.2,49.417,77.14,49.417c40.938,0,74.425-15.588,77.14-49.417
			c0.066,0.001,0.131,0.01,0.199,0.01c6.074,0,11-4.925,11-11S355.533,54.477,349.459,54.477z"/>
		<path fill="none" stroke="#000000" stroke-width="3" stroke-linecap="round" stroke-miterlimit="10" d="M216.658,59.46
			c0,2.075,1.561,5.25,5.006,5.25s5.214-2.635,5.214-5.213"/>
		<path fill="none" stroke="#000000" stroke-width="3" stroke-linecap="round" stroke-miterlimit="10" d="M221.769,54.67
			c0,2.075,1.562,5.25,5.007,5.25c1.539,0,2.743-0.526,3.604-1.338"/>
		<path fill="none" stroke="#000000" stroke-width="3" stroke-linecap="round" stroke-miterlimit="10" d="M321.684,54.67
			c0,2.075-1.561,5.25-5.006,5.25c-1.539,0-2.744-0.526-3.604-1.338"/>
		<path fill="none" stroke="#000000" stroke-width="3" stroke-linecap="round" stroke-miterlimit="10" d="M316.496,59.46
			c0,2.075,1.561,5.25,5.006,5.25s5.214-2.635,5.214-5.213"/>
		<g>
			<circle cx="231.378" cy="62.185" r="7.5"/>
			<circle fill="#FFFFFF" cx="228.884" cy="60.142" r="3.03"/>
		</g>
		<g>
			<circle cx="311.878" cy="62.185" r="7.5"/>
			<circle fill="#FFFFFF" cx="309.384" cy="60.142" r="3.03"/>
		</g>
		<path fill="none" stroke="#000000" stroke-width="3" stroke-linecap="round" stroke-miterlimit="10" d="M272.12,57.112
			c0,0,0.812,8.269,4.312,12.573l-4.312,3.556"/>
		<path fill="none" stroke="#000000" stroke-width="3" stroke-linecap="round" stroke-miterlimit="10" d="M259.852,79.948
			c0,5.105,3.842,12.917,12.318,12.917c8.476,0,12.827-6.482,12.827-12.827"/>
		<path fill="#604E75" d="M264.721-6.528c0,0-24.965,11-16.982,23.333c7.983,12.333,22.943-1.667,44.315,0
			c12.527,0.978,45.949,10.863,55.192,37.99c8.352,24.51-6.813,49.14-15.474,54.742c-8.66,5.604-22.548,31.751-16.387,45.647
			c6.161,13.897,28.668,28.953,52.334,20.286s18.666-23.333,18.666-23.333s-4,8.999-16,8.999s-31.332-16.667-16.666-52.333
			c14.666-35.667,12.495-75.284-14.373-98C321.605-4.195,294.721-16.195,264.721-6.528z"/>
		<path fill="#E9E9EA" d="M349.26,76.466c0.066,0.001,0.131,0.01,0.199,0.01c6.074,0,11-4.925,11-11s-4.926-11-11-11
			c-0.894,0-1.756,0.118-2.586,0.318l-5.525,12.451L349.26,76.466z"/>
		<path fill="#604E75" d="M256.682,7.472c0,0-7.667,13-17.804,17.667c-10.418,4.796-31.542,3.521-41.511,29.657
			c-10.854,28.453,10.729,54.01,22.365,59.361c11.635,5.35,16.651,32.314,1.801,44.314c-14.852,12-56.854,13.333-60.187-15.667
			c0,0,9.001,11,19.334,9.334c10.333-1.667,26.334-16.667,8-38c-18.334-21.334-16.223-70.518,6-91.667
			C217.521,0.737,243.015-7.194,256.682,7.472z"/>
		<path fill="#E9E9EA" d="M194.982,76.466c-0.066,0.001-0.132,0.01-0.199,0.01c-6.074,0-11-4.925-11-11s4.926-11,11-11
			c0.893,0,1.756,0.118,2.586,0.318l5.524,12.451L194.982,76.466z"/>
		<circle fill="#C4C4C3" cx="226.253" cy="88.843" r="9.595"/>
		<circle fill="#C4C4C3" cx="318.497" cy="88.843" r="9.595"/>
	</g>
</g>
<g>
	<path fill="#E9E9EA" d="M119.583,253.637c0-4.693,3.806-8.5,8.5-8.5h34.552c4.694,0,8.5,3.807,8.5,8.5l0,0
		c0,4.694-3.806,8.5-8.5,8.5h-34.552C123.389,262.137,119.583,258.331,119.583,253.637L119.583,253.637z"/>
	<path fill="#5B5C5C" d="M259.27,238.971c0-12.795-9.19-23.167-20.526-23.167h-76.279c-11.336,0-20.527,10.372-20.527,23.167l0,0
		c0,12.794,9.189,23.166,20.527,23.166h76.279C250.079,262.137,259.27,251.765,259.27,238.971L259.27,238.971z"/>
	<path d="M193.319,224.207c0,5.311-1.057,8.563-1.057,8.563c-1.169,3.601-0.274,4.063,1.988,1.028c0,0,2.676-3.586,2.676-9.569
		c0-4.016-1.198-6.938-1.984-8.426h-2.633C192.466,216.327,193.319,219.406,193.319,224.207z"/>
	<path d="M207.696,223.438c0,4.821-0.96,7.776-0.96,7.776c-1.062,3.271-0.249,3.69,1.808,0.936c0,0,2.43-3.257,2.43-8.692
		c0-3.646-1.088-6.301-1.803-7.652h-2.392C206.921,216.28,207.696,219.075,207.696,223.438z"/>
	<path d="M214.411,222.807c0,4.425-0.879,7.136-0.879,7.136c-0.976,3-0.229,3.386,1.657,0.856c0,0,2.228-2.987,2.228-7.975
		c0-3.346-0.998-5.78-1.652-7.021h-2.195C213.7,216.24,214.411,218.804,214.411,222.807z"/>
	<path d="M222.122,223.797c0,5.05-1.006,8.145-1.006,8.145c-1.111,3.425-0.261,3.863,1.894,0.979c0,0,2.543-3.41,2.543-9.102
		c0-3.819-1.14-6.599-1.888-8.015h-2.504C221.31,216.301,222.122,219.229,222.122,223.797z"/>
	<path d="M200.894,222.462c0,4.207-0.882,6.784-0.882,6.784c-0.976,2.853-0.229,3.219,1.659,0.815c0,0,2.232-2.842,2.232-7.582
		c0-3.182-1-5.497-1.656-6.677h-2.197C200.181,216.218,200.894,218.657,200.894,222.462z"/>
	<path d="M229.394,222.462c0,4.207-0.882,6.784-0.882,6.784c-0.978,2.853-0.229,3.219,1.659,0.815c0,0,2.231-2.842,2.231-7.582
		c0-3.182-1-5.497-1.655-6.677h-2.197C228.681,216.218,229.394,218.657,229.394,222.462z"/>
	<g>
		<path fill="#5B5C5C" d="M194.335,217.896c-1.313,16.369-17.518,23.915-37.328,23.915s-36.014-7.546-37.328-23.915
			c-0.033,0.002-0.096,0.04-0.096,0.007c0.072-6.976,1.25-10.492,1.25-10.492c4.244-13.854,18.828-24.063,36.174-24.063
			s31.931,10.211,36.175,24.063C193.182,207.41,194.398,210.997,194.335,217.896z"/>
		<path fill="#5B5C5C" d="M130.71,197.871c-2.426,1.027-4.147-0.271-3.824-2.887l1.515-12.278c0.323-2.614,2.308-3.457,4.412-1.869
			l9.875,7.451c2.104,1.589,1.839,3.728-0.588,4.756L130.71,197.871z"/>
		<path fill="none" stroke="#000000" stroke-width="2" stroke-linecap="round" stroke-miterlimit="10" d="M148.249,216.766
			c0,1.771,1.33,4.479,4.268,4.479s4.445-2.247,4.445-4.445"/>
		<path fill="none" stroke="#000000" stroke-width="2" stroke-linecap="round" stroke-miterlimit="10" d="M156.96,216.236
			c0,1.769,1.332,4.478,4.269,4.478c2.938,0,4.444-2.247,4.444-4.446"/>
		<path fill="#5B5C5C" d="M183.21,197.871c2.428,1.027,4.146-0.271,3.826-2.887l-1.516-12.278c-0.322-2.614-2.309-3.457-4.413-1.869
			l-9.876,7.451c-2.102,1.589-1.837,3.728,0.587,4.756L183.21,197.871z"/>
		<g>
			<path fill="#B69FCC" d="M156.96,209.27c2.66,0,3.748,1.886,2.418,4.188c-1.33,2.304-3.506,2.304-4.836,0
				C153.214,211.156,154.302,209.27,156.96,209.27z"/>
		</g>
		<g>
			<circle cx="143.12" cy="201.353" r="4.67"/>
			<circle fill="#FFFFFF" cx="141.567" cy="200.08" r="1.887"/>
		</g>
		<g>
			<circle cx="170.801" cy="201.353" r="4.67"/>
			<circle fill="#FFFFFF" cx="169.247" cy="200.08" r="1.887"/>
		</g>
		<g>
			
				<line fill="none" stroke="#000000" stroke-width="2" stroke-linecap="round" stroke-miterlimit="10" x1="140.913" y1="212.018" x2="128.599" y2="209.885"/>
			
				<line fill="none" stroke="#000000" stroke-width="2" stroke-linecap="round" stroke-miterlimit="10" x1="140.669" y1="216.425" x2="126.876" y2="216.425"/>
			
				<line fill="none" stroke="#000000" stroke-width="2" stroke-linecap="round" stroke-miterlimit="10" x1="140.913" y1="221.187" x2="128.599" y2="222.164"/>
		</g>
		<g>
			
				<line fill="none" stroke="#000000" stroke-width="2" stroke-linecap="round" stroke-miterlimit="10" x1="172.876" y1="212.018" x2="185.191" y2="209.885"/>
			
				<line fill="none" stroke="#000000" stroke-width="2" stroke-linecap="round" stroke-miterlimit="10" x1="173.122" y1="216.425" x2="186.913" y2="216.425"/>
			
				<line fill="none" stroke="#000000" stroke-width="2" stroke-linecap="round" stroke-miterlimit="10" x1="172.876" y1="221.187" x2="185.191" y2="222.164"/>
		</g>
	</g>
	<g>
		<path fill="#5B5C5C" d="M293.665,161.901c-7.592-2.537-15.293-2.057-21.778,1.146c0.366,0.137,0.751,0.306,1.155,0.562
			c1.734,1.096,2.258,2.566,2.258,2.566c0.441,1.246,0.137,1.436-0.682,0.42c0,0-0.738-0.919-2.279-1.891
			c-0.715-0.451-1.338-0.748-1.803-0.938c-1.033,0.586-2.027,1.244-2.983,1.977c0.823,0.131,1.932,0.442,3.108,1.175
			c2.393,1.488,3.125,3.505,3.125,3.505c0.621,1.707,0.2,1.969-0.933,0.581c0,0-1.022-1.252-3.147-2.573
			c-1.672-1.04-2.99-1.479-3.468-1.618c-0.35,0.305-0.698,0.606-1.034,0.932c-0.357,0.345-0.697,0.703-1.033,1.063
			c0.918,0.064,2.039,0.266,3.279,0.763c3.188,1.277,4.525,3.47,4.525,3.47c1.133,1.854,0.693,2.232-0.975,0.841
			c0,0-1.508-1.258-4.336-2.393c-1.664-0.668-3.006-0.985-3.834-1.136c-0.576,0.724-1.099,1.477-1.59,2.243
			c0.868-0.018,1.92,0.075,3.094,0.429c3.179,0.958,4.633,3.026,4.633,3.026c1.229,1.752,0.832,2.179-0.881,0.949
			c0,0-1.551-1.111-4.371-1.961c-1.473-0.443-2.676-0.632-3.497-0.714c-0.417,0.771-0.792,1.561-1.128,2.361
			c1.015-0.117,2.4-0.124,4.019,0.301c3.377,0.885,5.005,2.924,5.005,2.924c1.377,1.727,0.984,2.162-0.875,0.971
			c0,0-1.679-1.077-4.675-1.862c-1.831-0.479-3.261-0.62-4.103-0.658c-0.357,1.057-0.645,2.127-0.857,3.207
			c1.159-0.149,2.762-0.177,4.639,0.298c3.862,0.978,5.74,3.288,5.74,3.288c1.59,1.957,1.145,2.459-0.988,1.116
			c0,0-1.928-1.214-5.354-2.08c-1.853-0.469-3.345-0.638-4.334-0.694c-0.17,1.483-0.205,2.973-0.091,4.447
			c1.091-0.223,2.602-0.356,4.404-0.044c3.748,0.651,5.703,2.72,5.703,2.72c1.653,1.749,1.266,2.259-0.861,1.135
			c0,0-1.924-1.017-5.25-1.596c-1.553-0.271-2.836-0.349-3.768-0.354c0.145,0.874,0.326,1.741,0.578,2.593
			c0.219,0.74,0.465,1.571,0.723,2.462c0.849-0.433,2.014-0.864,3.482-1.019c3.301-0.347,5.441,1.001,5.441,1.001
			c1.813,1.14,1.609,1.687-0.446,1.213c0,0-1.856-0.424-4.788-0.118c-1.346,0.142-2.43,0.385-3.209,0.604
			c0.313,1.116,0.634,2.298,0.943,3.514c1.091-0.542,2.629-1.102,4.591-1.288c4.171-0.396,6.846,1.229,6.846,1.229
			c2.265,1.377,2.001,2.031-0.586,1.455c0,0-2.336-0.521-6.037-0.169c-1.862,0.177-3.317,0.501-4.317,0.778
			c0.248,1.052,0.479,2.108,0.687,3.155c0.851-0.473,2.063-0.971,3.626-1.158c3.296-0.396,5.457,0.917,5.457,0.917
			c1.828,1.113,1.635,1.662-0.428,1.223c0,0-1.866-0.397-4.79-0.048c-1.566,0.188-2.769,0.511-3.556,0.769
			c0.192,1.146,0.342,2.259,0.436,3.313c0.73-0.38,1.768-0.772,3.089-0.898c2.806-0.267,4.61,0.896,4.61,0.896
			c1.527,0.981,1.353,1.444-0.389,1.026c0,0-1.574-0.376-4.063-0.141c-1.412,0.134-2.49,0.403-3.156,0.611
			c0.079,2.427-0.235,4.4-1.19,5.474c-0.599,0.67-3.326,2.723-13.369,0.979c-3.813-0.663-7.434,1.891-8.094,5.698
			c-0.662,3.809,1.889,7.434,5.697,8.095c3.396,0.591,6.503,0.887,9.332,0.887c7.541,0,13.107-2.104,16.889-6.348
			c8.455-9.493,3.766-25.346-0.002-38.083c-0.998-3.374,0.399-7.638,3.479-10.61c2.131-2.057,6.822-5.134,14.297-2.635
			c3.666,1.227,7.633-0.752,8.857-4.419C299.309,167.093,297.331,163.127,293.665,161.901z"/>
		<path d="M271.02,201.448c2.587,0.575,2.851-0.078,0.586-1.455c0,0-2.675-1.625-6.846-1.229c-1.962,0.188-3.5,0.746-4.591,1.288
			c0.17,0.662,0.336,1.332,0.494,2.007c1.002-0.277,2.457-0.603,4.318-0.778C268.684,200.927,271.02,201.448,271.02,201.448z"/>
		<path d="M261.21,190.156c3.328,0.578,5.25,1.596,5.25,1.596c2.129,1.124,2.517,0.614,0.861-1.135c0,0-1.953-2.067-5.703-2.72
			c-1.803-0.313-3.313-0.179-4.402,0.043c0.048,0.624,0.127,1.244,0.229,1.861C258.376,189.807,259.659,189.884,261.21,190.156z"/>
		<path d="M267.239,180.879c1.859,1.191,2.252,0.756,0.875-0.971c0,0-1.628-2.039-5.005-2.925c-1.618-0.424-3.004-0.418-4.019-0.3
			c-0.229,0.553-0.438,1.11-0.629,1.673c0.842,0.039,2.271,0.182,4.103,0.659C265.561,179.802,267.239,180.879,267.239,180.879z"/>
		<path d="M266.995,186.268c2.133,1.342,2.578,0.84,0.988-1.117c0,0-1.878-2.311-5.74-3.287c-1.877-0.475-3.479-0.447-4.639-0.299
			c-0.126,0.642-0.225,1.283-0.299,1.929c0.988,0.058,2.48,0.227,4.334,0.694C265.067,185.054,266.995,186.268,266.995,186.268z"/>
		<path d="M271.001,173.877c1.668,1.393,2.106,1.015,0.975-0.841c0,0-1.339-2.191-4.525-3.471c-1.24-0.497-2.361-0.696-3.279-0.762
			c-0.465,0.502-0.916,1.016-1.34,1.545c0.828,0.149,2.172,0.467,3.836,1.135C269.495,172.62,271.001,173.877,271.001,173.877z"/>
		<path d="M267.223,196.051c2.057,0.473,2.259-0.073,0.446-1.213c0,0-2.142-1.348-5.441-1.001c-1.471,0.153-2.635,0.586-3.482,1.019
			c0.156,0.539,0.316,1.102,0.48,1.683c0.779-0.222,1.863-0.464,3.209-0.604C265.366,195.627,267.223,196.051,267.223,196.051z"/>
		<path d="M270.005,206.195c2.063,0.439,2.257-0.108,0.429-1.223c0,0-2.161-1.313-5.457-0.917c-1.563,0.188-2.774,0.687-3.626,1.158
			c0.111,0.572,0.217,1.141,0.311,1.701c0.786-0.258,1.988-0.579,3.555-0.769C268.14,205.796,270.005,206.195,270.005,206.195z"/>
		<path d="M269.407,211.25c1.74,0.418,1.916-0.045,0.389-1.026c0,0-1.807-1.161-4.61-0.896c-1.321,0.126-2.356,0.52-3.089,0.898
			c0.045,0.515,0.074,1.013,0.091,1.494c0.666-0.208,1.744-0.479,3.156-0.611C267.833,210.874,269.407,211.25,269.407,211.25z"/>
		<path d="M272.854,171.001c1.133,1.388,1.554,1.126,0.933-0.581c0,0-0.732-2.017-3.125-3.505c-1.178-0.731-2.285-1.044-3.108-1.175
			c-0.446,0.341-0.886,0.695-1.313,1.068c0.477,0.139,1.795,0.578,3.467,1.618C271.831,169.749,272.854,171.001,272.854,171.001z"/>
		<path d="M274.618,166.594c0.817,1.015,1.123,0.826,0.683-0.42c0,0-0.523-1.472-2.259-2.566c-0.404-0.256-0.789-0.425-1.155-0.562
			c-0.457,0.226-0.906,0.466-1.351,0.719c0.465,0.19,1.088,0.487,1.803,0.938C273.878,165.675,274.618,166.594,274.618,166.594z"/>
		<path d="M268.087,176.997c1.714,1.229,2.109,0.803,0.881-0.949c0,0-1.454-2.068-4.633-3.026c-1.174-0.354-2.226-0.445-3.094-0.429
			c-0.363,0.566-0.705,1.142-1.022,1.729c0.821,0.082,2.024,0.271,3.497,0.714C266.536,175.886,268.087,176.997,268.087,176.997z"/>
	</g>
	<path fill="#E9E9EA" d="M238.104,245.137h-1.521h-8.23c-4.695,0-8.5,3.807-8.5,8.5c0,4.694,3.805,8.5,8.5,8.5h8.23h1.521h0.64
		c9.443,0,17.394-7.199,19.785-17H238.104z"/>
	<g>
		
			<line fill="none" stroke="#000000" stroke-width="2" stroke-linecap="round" stroke-miterlimit="10" x1="126.794" y1="254.038" x2="120.583" y2="254.038"/>
		
			<line fill="none" stroke="#000000" stroke-width="2" stroke-linecap="round" stroke-miterlimit="10" x1="127.981" y1="258.637" x2="121.771" y2="258.637"/>
		
			<line fill="none" stroke="#000000" stroke-width="2" stroke-linecap="round" stroke-miterlimit="10" x1="127.464" y1="249.304" x2="121.253" y2="249.304"/>
	</g>
	<g>
		
			<line fill="none" stroke="#000000" stroke-width="2" stroke-linecap="round" stroke-miterlimit="10" x1="226.602" y1="254.038" x2="220.391" y2="254.038"/>
		
			<line fill="none" stroke="#000000" stroke-width="2" stroke-linecap="round" stroke-miterlimit="10" x1="227.79" y1="258.637" x2="221.579" y2="258.637"/>
		
			<line fill="none" stroke="#000000" stroke-width="2" stroke-linecap="round" stroke-miterlimit="10" x1="227.271" y1="249.304" x2="221.061" y2="249.304"/>
	</g>
</g>
</svg>
