<?xml version="1.0" encoding="utf-8"?>
<!-- Generator: Adobe Illustrator 16.0.0, SVG Export Plug-In . SVG Version: 6.00 Build 0)  -->
<!DOCTYPE svg PUBLIC "-//W3C//DTD SVG 1.1//EN" "http://www.w3.org/Graphics/SVG/1.1/DTD/svg11.dtd">
<svg version="1.1" id="Layer_1" xmlns="http://www.w3.org/2000/svg" xmlns:xlink="http://www.w3.org/1999/xlink" x="0px" y="0px"
	 width="384.977px" height="311.304px" viewBox="0 0 384.977 311.304" enable-background="new 0 0 384.977 311.304"
	 xml:space="preserve">
<g>
	<path fill="#E9E9EA" d="M80.323,158.502h-2.438c-5.94,0-10.801,4.859-10.801,10.8v32.733c0,5.938,4.86,10.8,10.801,10.8h2.438
		V158.502z"/>
	<polygon fill="#B69FCC" points="80.323,229.501 80.323,246.168 80.323,285.835 109.112,285.835 109.112,246.168 130.439,246.168 
		130.439,285.835 159.23,285.835 159.23,246.168 159.23,229.501 	"/>
	<path d="M94.717,300.229c7.949,0,14.395-6.443,14.395-14.395H80.323C80.323,293.785,86.767,300.229,94.717,300.229z"/>
	<path d="M144.834,300.229c7.951,0,14.396-6.443,14.396-14.395h-28.791C130.439,293.785,136.885,300.229,144.834,300.229z"/>
	<path fill="#B69FCC" d="M94.717,271.44c-7.95,0-14.395,6.444-14.395,14.396h28.789C109.112,277.885,102.667,271.44,94.717,271.44z"
		/>
	<path fill="#B69FCC" d="M144.834,271.44c-7.949,0-14.395,6.444-14.395,14.396h28.789C159.23,277.885,152.786,271.44,144.834,271.44
		z"/>
</g>
<g>
	<path fill="#E9E9E9" d="M303.171,179.864l-0.638-2.354c-1.547-5.736,1.88-11.693,7.613-13.241l31.603-8.532
		c5.733-1.548,11.692,1.877,13.241,7.611l0.636,2.354L303.171,179.864z"/>
	<path fill="#E9E9E9" d="M227.367,165.831h-2.438c-5.939,0-10.801,4.858-10.801,10.799v32.732c0,5.938,4.858,10.801,10.801,10.801
		h2.438V165.831z"/>
	<polygon fill="#B69FCC" points="227.367,236.829 227.367,253.497 227.367,293.163 256.156,293.163 256.156,253.497 
		277.484,253.497 277.484,293.163 306.275,293.163 306.275,253.497 306.275,236.829 	"/>
	<path fill="#010101" d="M241.764,307.559c7.947,0,14.395-6.443,14.395-14.396h-28.791
		C227.367,301.113,233.813,307.559,241.764,307.559z"/>
	<path fill="#010101" d="M291.88,307.559c7.951,0,14.396-6.443,14.396-14.396h-28.789
		C277.484,301.113,283.932,307.559,291.88,307.559z"/>
	<path fill="#B69FCC" d="M241.764,278.77c-7.951,0-14.396,6.444-14.396,14.396h28.788
		C256.156,285.214,249.712,278.77,241.764,278.77z"/>
	<path fill="#B69FCC" d="M291.88,278.77c-7.947,0-14.396,6.444-14.396,14.396h28.791C306.275,285.214,299.831,278.77,291.88,278.77z
		"/>
	<path fill="#010101" d="M343.275,178.546l-7.764-21.125l-19.863,5.363l-5.502,1.485c-5.733,1.547-9.16,7.505-7.61,13.24
		l0.635,2.354l2.76-0.744C319.122,182.122,343.275,178.546,343.275,178.546z"/>
	<polygon fill="#FFFFFF" points="256.156,165.831 240.275,165.831 266.82,208.212 289.275,165.831 	"/>
	<polygon fill="#B69FCC" points="282.8,208.212 270.829,173.88 274.941,165.546 258.607,165.546 263.275,173.88 254.249,208.212 	
		"/>
	<path fill="#010101" d="M306.275,236.829v-54.5v-16.498h-23.477l-16.291,36.381l-19.574-36.381h-19.566h-2.438
		c-5.939,0-10.801,4.858-10.801,10.799v5.699l-2.188,28.217c0,0,6.834,2.021,15.427,0.778v25.505l-4.087,43.717
		c0,0,34.992,13.332,86.326,0L306.275,236.829z"/>
	<polygon fill="#FFFFFF" points="246.934,165.831 252.941,155.365 266.509,163.88 274.941,155.365 282.8,165.831 275.607,171.546 
		266.82,165.831 256.156,171.546 	"/>
	<path fill="#C4C4C3" d="M378.21,137.464c-9.363-9.008-18.101-5.892-18.101-5.892l-5.389,23.365
		c7.291,7.013,14.09,4.586,14.09,4.586L378.21,137.464z"/>
	<path fill="#C4C4C3" d="M366.259,167.368c0,0-6.801,2.426-14.092-4.587l-10.896,26.666c9.361,9.009,18.099,5.892,18.099,5.892
		L366.259,167.368z"/>
	<path fill="#614F76" d="M369.031,159.599c0,0-7.016,2.502-14.532-4.729l-2.634,8.088c7.521,7.23,14.531,4.729,14.531,4.729
		L369.031,159.599z"/>
</g>
<rect x="104.034" y="176.393" fill="#B69FCC" width="32.37" height="24"/>
<rect x="93.516" y="157.765" fill="#D8D8D8" width="46.453" height="25.78"/>
<path fill="#010101" d="M158.107,198.49l20.072-7.377l-5.363-19.863l-1.486-5.502c-1.545-5.729-7.493-9.152-13.223-7.615v-0.085
	H134.63l-16.291,36.381l-19.574-36.381H79.199h-2.438c-5.939,0-10.801,4.859-10.801,10.799v5.699l-2.188,28.217
	c0,0,6.834,2.021,15.426,0.778v25.505l-4.086,43.717c0,0,34.992,13.332,86.326,0l-3.332-43.717V198.49H158.107z"/>
<g>
	<path fill="#E9E9EA" d="M196.811,94.87c-0.893,0-1.756,0.117-2.586,0.317c-8.77-28.624-38.908-49.725-74.752-49.725
		c-35.845,0-65.983,21.101-74.753,49.725c-0.83-0.201-1.693-0.317-2.586-0.317c-6.074,0-11,4.925-11,11c0,6.074,4.926,11,11,11
		c0.068,0,0.133-0.01,0.199-0.011c2.715,33.829,36.201,49.417,77.14,49.417c40.938,0,74.424-15.588,77.139-49.417
		c0.066,0.001,0.132,0.011,0.199,0.011c6.074,0,11-4.926,11-11C207.811,99.795,202.885,94.87,196.811,94.87z"/>
	<path fill="none" stroke="#000000" stroke-width="3" stroke-linecap="round" stroke-miterlimit="10" d="M64.01,99.854
		c0,2.075,1.561,5.25,5.006,5.25c3.445,0,5.214-2.635,5.214-5.213"/>
	<path fill="none" stroke="#000000" stroke-width="3" stroke-linecap="round" stroke-miterlimit="10" d="M69.12,95.063
		c0,2.075,1.561,5.25,5.006,5.25c1.54,0,2.744-0.525,3.605-1.338"/>
	<path fill="none" stroke="#000000" stroke-width="3" stroke-linecap="round" stroke-miterlimit="10" d="M169.036,95.063
		c0,2.075-1.562,5.25-5.007,5.25c-1.538,0-2.743-0.525-3.604-1.338"/>
	<path fill="none" stroke="#000000" stroke-width="3" stroke-linecap="round" stroke-miterlimit="10" d="M163.848,99.854
		c0,2.075,1.562,5.25,5.006,5.25c3.445,0,5.215-2.635,5.215-5.213"/>
	<g>
		<circle cx="78.73" cy="102.578" r="7.5"/>
		<circle fill="#FFFFFF" cx="76.236" cy="100.535" r="3.03"/>
	</g>
	<g>
		<circle cx="159.23" cy="102.578" r="7.5"/>
		<circle fill="#FFFFFF" cx="156.736" cy="100.535" r="3.03"/>
	</g>
	<path fill="none" stroke="#000000" stroke-width="3" stroke-linecap="round" stroke-miterlimit="10" d="M119.472,97.505
		c0,0,0.812,8.268,4.312,12.573l-4.312,3.555"/>
	<path fill="none" stroke="#000000" stroke-width="3" stroke-linecap="round" stroke-miterlimit="10" d="M107.204,120.341
		c0,5.106,3.842,12.917,12.318,12.917s12.828-6.482,12.828-12.827"/>
	<path fill="#604E75" d="M112.073,33.865c0,0-24.965,11-16.982,23.333c7.983,12.333,22.943-1.667,44.315,0
		c12.527,0.977,45.949,10.862,55.191,37.989c8.353,24.511-6.813,49.141-15.473,54.742c-8.66,5.604-22.548,31.751-16.387,45.648
		c6.16,13.896,28.668,28.953,52.334,20.286s18.666-23.333,18.666-23.333s-4,8.999-16,8.999s-31.332-16.667-16.666-52.333
		c14.666-35.668,12.494-75.284-14.373-98C168.958,36.198,142.073,24.198,112.073,33.865z"/>
	<path fill="#E9E9EA" d="M196.611,116.859c0.066,0.001,0.132,0.011,0.199,0.011c6.074,0,11-4.926,11-11c0-6.075-4.926-11-11-11
		c-0.893,0-1.756,0.117-2.586,0.317l-5.524,12.451L196.611,116.859z"/>
	<path fill="#604E75" d="M104.034,47.865c0,0-7.667,13-17.804,17.667c-10.418,4.796-31.542,3.521-41.511,29.656
		c-10.853,28.453,10.73,54.011,22.365,59.361c11.635,5.35,16.652,32.315,1.801,44.315c-14.851,12-56.852,13.333-60.185-15.667
		c0,0,9.001,11,19.334,9.334c10.333-1.667,26.334-16.667,8-38c-18.334-21.334-16.223-70.519,6-91.667
		C64.873,41.13,90.367,33.199,104.034,47.865z"/>
	<path fill="#E9E9EA" d="M42.333,116.859c-0.066,0.001-0.131,0.011-0.199,0.011c-6.074,0-11-4.926-11-11c0-6.075,4.926-11,11-11
		c0.893,0,1.756,0.117,2.586,0.317l5.525,12.451L42.333,116.859z"/>
	<circle fill="#C4C4C3" cx="73.605" cy="129.236" r="9.595"/>
	<circle fill="#C4C4C3" cx="165.85" cy="129.236" r="9.595"/>
</g>
<g>
	<path fill="#3F3351" d="M80.91,41.846c0,0,28.172-0.738,39.141,9.156c0,0,6.633-9.201,30.449-12.602V20.502
		c0,0-14.154-4.5-34.795-4.5c-20.639,0-34.795,4.5-34.795,4.5V41.846z"/>
	<polygon fill="#2F263D" points="115.705,41.252 58.818,25.252 115.705,7.502 174.068,26.502 	"/>
	<path fill="#1A1523" d="M72.691,50.312c0.441-0.188,0.75-0.624,0.75-1.133c0-0.68-0.551-1.229-1.23-1.229
		c-0.678,0-1.229,0.551-1.229,1.229c0,0.536,0.346,0.98,0.824,1.149c-4.139,3.006-4.689,14.329-4.689,14.329l1.977-2.737l1.51,2.737
		l1.428-2.673l1.184,2.673l1.43-2.348l1.863,2.348C76.74,58.381,74.523,51.354,72.691,50.312z"/>
	<polygon fill="#1A1523" points="72.632,48.502 71.714,48.502 71.714,28.879 72.632,29.063 	"/>
	<polygon fill="#1A1523" points="113.375,18.823 113.582,19.716 72.632,29.151 71.714,28.879 	"/>
</g>
<g>
	<g>
		<path fill="#E9E9E9" d="M343.857,99.448c-0.893,0-1.756,0.117-2.586,0.317c-8.771-28.624-38.908-49.725-74.754-49.725
			c-35.844,0-65.981,21.101-74.752,49.725c-0.83-0.201-1.693-0.317-2.586-0.317c-6.074,0-11,4.925-11,11c0,6.074,4.926,11,11,11
			c0.066,0,0.133-0.01,0.197-0.011c2.717,33.829,36.201,49.417,77.141,49.417c40.938,0,74.426-15.588,77.141-49.417
			c0.066,0.001,0.132,0.011,0.199,0.011c6.074,0,11-4.926,11-11S349.932,99.448,343.857,99.448z"/>
		<g>
			<circle fill="#010101" cx="225.775" cy="107.156" r="7.5"/>
			<circle fill="#FFFFFF" cx="223.281" cy="105.114" r="3.03"/>
		</g>
		<g>
			<circle fill="#010101" cx="306.275" cy="107.156" r="7.5"/>
			<circle fill="#FFFFFF" cx="303.781" cy="105.114" r="3.03"/>
		</g>
		<path fill="#B69FCC" d="M314.913,59.211c-7.168-5.333-24.173-11.994-44.656-12.637c-22.178-0.696-49.678,7.471-59.844,18.304
			c-10.324,11.001-19.128,25.778-18.646,34.889c0,0,2.813,3.335,2.813,7.391h5.5c0,0,0.5-26.445,16-36.445
			c0,0,7.5-0.833,10.166,4.833c0,0,4.229-3.333,2.03-6.5c0,0,24.429-4.833,39.929,10.792c0,0,3.125-5.542,0.875-7.542
			c0,0,16.125,0.667,22.375,7.917c0,0,0.875-2.417,0-5c-0.443-1.313,23.625-1.875,29.75,7.25c0,0,0.666-8.583-5.791-12.917
			c19.666,12.667,17.666,37.612,17.666,37.612h5.332c0.166-4.056,2.858-7.391,2.858-7.391
			C339.191,75.242,322.079,64.545,314.913,59.211z"/>
		<path fill="none" stroke="#010101" stroke-width="3" stroke-linecap="round" stroke-miterlimit="10" d="M266.518,102.084
			c0,0,0.813,8.268,4.313,12.573l-4.313,3.555"/>
		<path fill="none" stroke="#010101" stroke-width="3" stroke-linecap="round" stroke-miterlimit="10" d="M254.249,124.919
			c0,5.105,3.844,12.918,12.317,12.918c8.478,0,12.828-6.482,12.828-12.828"/>
	</g>
	<path fill="#574A68" d="M227.367,54.389c0,0,28.173-0.738,39.142,9.156c0,0,6.633-9.201,30.449-12.602V33.045
		c0,0-14.154-4.5-34.795-4.5c-20.64,0-34.796,4.5-34.796,4.5V54.389z"/>
	<polygon fill="#382D47" points="262.163,53.795 205.275,37.795 262.163,20.045 320.525,39.045 	"/>
	<path fill="#1A1523" d="M219.148,62.854c0.441-0.188,0.75-0.624,0.75-1.133c0-0.68-0.551-1.229-1.229-1.229
		s-1.229,0.551-1.229,1.229c0,0.536,0.347,0.98,0.824,1.149c-4.139,3.006-4.689,14.329-4.689,14.329l1.978-2.737l1.51,2.737
		l1.428-2.673l1.185,2.673l1.43-2.348l1.863,2.348C223.197,70.924,220.98,63.896,219.148,62.854z"/>
	<polygon fill="#1A1523" points="219.091,61.045 218.173,61.045 218.173,41.422 219.091,41.605 	"/>
	<polygon fill="#1A1523" points="259.833,31.366 260.04,32.259 219.091,41.694 218.173,41.422 	"/>
</g>
</svg>
