<?xml version="1.0" encoding="utf-8"?>
<!-- Generator: Adobe Illustrator 16.0.0, SVG Export Plug-In . SVG Version: 6.00 Build 0)  -->
<!DOCTYPE svg PUBLIC "-//W3C//DTD SVG 1.1//EN" "http://www.w3.org/Graphics/SVG/1.1/DTD/svg11.dtd">
<svg version="1.1" id="Layer_1" xmlns="http://www.w3.org/2000/svg" xmlns:xlink="http://www.w3.org/1999/xlink" x="0px" y="0px"
	 width="526px" height="352.5px" viewBox="0 -94.5 526 352.5" enable-background="new 0 -94.5 526 352.5" xml:space="preserve">
<g>
	<polygon fill="#C5B6D8" points="94.482,-88.373 110.763,-62.982 137.557,-76.83 138.96,-46.702 169.091,-45.298 155.24,-18.503 
		180.631,-2.223 155.24,14.057 169.091,40.851 138.96,42.255 137.557,72.383 110.763,58.536 94.482,83.926 78.202,58.536 
		51.409,72.383 50.005,42.255 19.874,40.851 33.727,14.057 8.334,-2.223 33.727,-18.503 19.874,-45.298 50.005,-46.702 
		51.409,-76.83 78.202,-62.982 	"/>
	<circle fill="#B69FCC" cx="94.482" cy="-2.223" r="59.967"/>
</g>
<path fill="#786B89" d="M519,32.456c-10.257-4.949-17.258-13.638-21.547-26.825c-8.43,22.665-26.169,31.971-48.834,31.971
	c-25.949,0-41.496-9.416-48.833-31.971c-8.43,22.665-25.872,31.971-48.537,31.971c-25.949,0-41.2-9.416-48.537-31.971
	c-8.43,22.665-26.169,31.971-48.833,31.971c-25.95,0-41.497-9.416-48.834-31.971c-8.43,22.665-25.872,31.971-48.537,31.971
	c-25.949,0-41.2-9.416-48.537-31.971c-8.43,22.665-26.169,31.971-48.833,31.971v129.407H519V32.456z"/>
<radialGradient id="SVGID_1_" cx="263.667" cy="162.1689" r="189.3483" gradientTransform="matrix(1 0 0 -1 0 259)" gradientUnits="userSpaceOnUse">
	<stop  offset="0" style="stop-color:#604E75"/>
	<stop  offset="1" style="stop-color:#604E75"/>
</radialGradient>
<path fill="url(#SVGID_1_)" d="M519,43.658c-7.004,3.043-15.014,4.455-23.814,4.455c-25.948,0-41.199-9.416-48.536-31.971
	c-8.431,22.665-26.169,31.971-48.833,31.971c-25.949,0-41.497-9.416-48.834-31.971c-8.431,22.665-25.872,31.971-48.537,31.971
	c-25.949,0-41.2-9.416-48.537-31.971c-8.43,22.665-26.169,31.971-48.833,31.971c-25.949,0-41.497-9.416-48.834-31.971
	c-8.43,22.665-25.872,31.971-48.537,31.971c-25.949,0-41.2-9.416-48.537-31.971c-8.43,22.665-26.168,31.971-48.833,31.971V177.52
	H519V43.658z"/>
<path fill="#C4C4C3" d="M235.199,97.969C383.231,79.837,396.369,74.931,519,75.367v50.814v127.543H8.333V126.181v-24.972
	C8.333,101.209,87.167,116.1,235.199,97.969z"/>
<g>
	<path fill="#E9E9EA" d="M316.154,84.116h2.438c5.939,0,10.8,4.86,10.8,10.8v32.733c0,5.939-4.859,10.8-10.8,10.8h-2.438V84.116z"/>
	<path fill="#E9E9EA" d="M237.246,84.116h-2.438c-5.938,0-10.799,4.86-10.799,10.8v32.733c0,5.939,4.859,10.8,10.799,10.8h2.438
		V84.116z"/>
	<path fill="#5B5C5C" d="M318.592,84.116h-2.438h-78.908h-2.438c-5.938,0-10.799,4.86-10.799,10.8v5.699h13.236v54.5h78.908v-54.5
		h13.236v-5.699C329.392,88.976,324.531,84.116,318.592,84.116z"/>
	<polygon fill="#B69FCC" points="237.246,155.115 237.246,171.782 237.246,211.449 266.036,211.449 266.036,171.782 
		287.365,171.782 287.365,211.449 316.154,211.449 316.154,171.782 316.154,155.115 	"/>
	<path d="M251.641,225.844c7.951,0,14.396-6.445,14.396-14.395h-28.79C237.246,219.398,243.691,225.844,251.641,225.844z"/>
	<path d="M301.76,225.844c7.949,0,14.396-6.445,14.396-14.395h-28.789C287.365,219.398,293.81,225.844,301.76,225.844z"/>
	<path fill="#B69FCC" d="M251.641,197.055c-7.948,0-14.395,6.443-14.395,14.396h28.79
		C266.036,203.498,259.592,197.055,251.641,197.055z"/>
	<path fill="#B69FCC" d="M301.76,197.055c-7.95,0-14.395,6.443-14.395,14.396h28.789
		C316.154,203.498,309.709,197.055,301.76,197.055z"/>
	<g>
		<path fill="#E9E9EA" d="M353.734,20.734c-0.894,0-1.754,0.118-2.586,0.318c-8.769-28.624-38.906-49.725-74.752-49.725
			c-35.847,0-65.984,21.101-74.753,49.725c-0.831-0.201-1.692-0.318-2.586-0.318c-6.075,0-11,4.925-11,11c0,6.075,4.925,11,11,11
			c0.066,0,0.133-0.009,0.199-0.01c2.713,33.829,36.201,49.417,77.139,49.417c40.938,0,74.427-15.588,77.14-49.417
			c0.067,0.001,0.133,0.01,0.199,0.01c6.075,0,11-4.925,11-11C364.734,25.659,359.811,20.734,353.734,20.734z"/>
		<path fill="#B69FCC" d="M351.148,21.052c-2.078-24.524-19.191-35.222-26.357-40.556s-24.171-11.994-44.658-12.637
			c-22.176-0.696-49.676,7.471-59.842,18.304c-10.324,11.001-19.127,25.778-18.646,34.889c0,0,2.813,3.335,2.813,7.39h1.119
			l-1.119,4.611c0,0-0.111,21.259,16.043,42.471v-7.191l5.5,7.191c0,0,1.283,4.188,25.642,0v-7.191l3.357,7.19c0,0,34.5,4.739,53,0
			l3-4.646v6.753l5.154-7.599v7.599L325,70.877c0,0,4.5,2.817,13-0.846c0,0,10.352-14.154,10.291-36.979l-1.083-4.611h1.083
			C348.457,24.387,351.148,21.052,351.148,21.052z"/>
	</g>
</g>
<g>
	<path fill="#E9E9EA" d="M442.045,86.93h2.438c5.938,0,10.799,4.86,10.799,10.8v32.733c0,5.939-4.859,10.801-10.799,10.801h-2.438
		V86.93z"/>
	<path fill="#E9E9EA" d="M363.137,86.93h-2.438c-5.939,0-10.801,4.86-10.801,10.8v32.733c0,5.939,4.86,10.801,10.801,10.801h2.438
		V86.93z"/>
	<path fill="#333333" d="M444.482,86.93h-2.438h-78.908h-2.438c-5.939,0-10.801,4.86-10.801,10.8v5.699h13.237v54.5h78.908v-54.5
		h13.236V97.73C455.281,91.79,450.422,86.93,444.482,86.93z"/>
	<polygon fill="#B69FCC" points="363.137,157.93 363.137,174.596 363.137,214.264 391.926,214.264 391.926,174.596 413.254,174.596 
		413.254,214.264 442.045,214.264 442.045,174.596 442.045,157.93 	"/>
	<path d="M377.531,228.657c7.949,0,14.395-6.444,14.395-14.396h-28.789C363.137,222.213,369.582,228.657,377.531,228.657z"/>
	<path d="M427.648,228.657c7.95,0,14.396-6.444,14.396-14.396h-28.791C413.254,222.213,419.699,228.657,427.648,228.657z"/>
	<path fill="#B69FCC" d="M377.531,199.868c-7.949,0-14.396,6.444-14.396,14.396h28.789
		C391.926,206.313,385.48,199.868,377.531,199.868z"/>
	<path fill="#B69FCC" d="M427.648,199.868c-7.949,0-14.396,6.444-14.396,14.396h28.791
		C442.045,206.313,435.6,199.868,427.648,199.868z"/>
	<g>
		<path fill="#604E75" d="M506.348,103.035c0,0-3.637,8.182-14.546,8.182s-28.483-15.153-15.15-47.578
			c8.184-19.903,10.588-41.154,5.585-59.38l-0.001-0.043l-0.014-0.012c-3.151-11.444-9.22-21.696-18.639-29.659
			c-16.13-13.637-40.571-24.547-67.845-15.758c0,0-7.769,3.427-12.762,8.515c-13.05-6.99-32.89,0.697-50.912,17.85
			c-20.203,19.227-22.123,63.942-5.455,83.337c16.668,19.395,2.121,33.032-7.273,34.547c-9.394,1.515-17.576-8.485-17.576-8.485
			c1.758,15.297,15.351,21.298,29.09,21.521l-0.008,0.019c0,0,0.115-0.004,0.321-0.013c2.198,0.021,4.394-0.104,6.546-0.363
			c0.852-0.056,1.764-0.12,2.729-0.192c-4.191,7.426-7.057,9.017-8.501,9.248c11.435,1.023,26.732-3.394,36.965-7.015
			c-1.83,5-3.349,6.415-4.202,6.786c16.376-1.794,25.921-8.651,31.313-14.854l0.163-0.112c1.871,6.071,5.689,14.591,12.773,17.039
			c0,0-2.445-4.873-2.127-9.573c6.099,4.875,14.312,9.042,24.854,9.531c0,0-6.358-4.706-9.247-11.549
			c9.681,7.491,25.843,16.882,46.066,16.882c0,0-3.325-0.182-5.742-5.895c3.72,0.541,7.521,0.753,11.336,0.486l-0.002-0.007
			c4.903,0.307,10.064-0.327,15.29-2.24C510.895,116.369,506.348,103.035,506.348,103.035z"/>
		<path fill="#604E75" d="M364.698,124.54c-0.254,0.028-0.494,0.065-0.751,0.09C363.947,124.63,364.219,124.748,364.698,124.54z"/>
		<path fill="#604E75" d="M331.936,124.769c-0.364-0.032-0.734-0.06-1.094-0.104C330.842,124.665,331.213,124.885,331.936,124.769z"
			/>
	</g>
</g>
<line fill="none" stroke="#604E75" stroke-miterlimit="10" x1="8.333" y1="48.112" x2="8.333" y2="253.727"/>
<line fill="none" stroke="#604E75" stroke-miterlimit="10" x1="8.333" y1="253.727" x2="519" y2="253.727"/>
<line fill="none" stroke="#604E75" stroke-miterlimit="10" x1="519" y1="253.727" x2="519" y2="32.456"/>
</svg>
