<?xml version="1.0" encoding="utf-8"?>
<!-- Generator: Adobe Illustrator 16.0.0, SVG Export Plug-In . SVG Version: 6.00 Build 0)  -->
<!DOCTYPE svg PUBLIC "-//W3C//DTD SVG 1.1//EN" "http://www.w3.org/Graphics/SVG/1.1/DTD/svg11.dtd">
<svg version="1.1" id="Layer_1" xmlns="http://www.w3.org/2000/svg" xmlns:xlink="http://www.w3.org/1999/xlink" x="0px" y="0px"
	 width="358.75px" height="288.227px" viewBox="0 0 358.75 288.227" enable-background="new 0 0 358.75 288.227"
	 xml:space="preserve">
<g>
	<path fill="#E9E9EA" d="M155.912,140.695h2.438c5.939,0,10.799,4.86,10.799,10.802v32.731c0,5.939-4.858,10.8-10.799,10.8h-2.438
		V140.695z"/>
	<polygon fill="#E9E9EA" points="77.003,211.694 77.003,228.361 77.003,268.029 105.792,268.029 105.792,228.361 127.121,228.361 
		127.121,268.029 155.912,268.029 155.912,228.361 155.912,211.694 	"/>
	<path d="M91.398,282.424c7.949,0,14.395-6.445,14.395-14.396h-28.79C77.003,275.979,83.449,282.424,91.398,282.424z"/>
	<path d="M141.516,282.424c7.95,0,14.396-6.445,14.396-14.396H127.12C127.121,275.979,133.566,282.424,141.516,282.424z"/>
	<path fill="#E9E9EA" d="M91.398,253.635c-7.949,0-14.395,6.443-14.395,14.396h28.789
		C105.792,260.078,99.347,253.635,91.398,253.635z"/>
	<path fill="#E9E9EA" d="M141.516,253.635c-7.949,0-14.396,6.443-14.396,14.396h28.791
		C155.912,260.078,149.466,253.635,141.516,253.635z"/>
	<path fill="#604E75" d="M166.666,241.199c-12.25-24-10.668-48.25-10.668-48.25l-0.086,0.104v-35.858v-16.498H77.003v16.498v41.911
		c-0.334,8.72-2.179,25.462-10.668,42.096h10.668h78.908v-0.211l0.086,0.211L166.666,241.199L166.666,241.199z"/>
	<g>
		<path fill="#E9E9EA" d="M193.492,73.063c-0.893,0-1.756,0.118-2.586,0.318c-8.77-28.624-38.909-49.725-74.752-49.725
			c-35.846,0-65.984,21.101-74.754,49.725c-0.83-0.201-1.693-0.318-2.586-0.318c-6.074,0-11,4.927-11,11c0,6.075,4.926,11,11,11
			c0.068,0,0.133-0.009,0.199-0.01c2.715,33.829,36.201,49.417,77.141,49.417c40.938,0,74.424-15.588,77.139-49.417
			c0.066,0.001,0.131,0.01,0.199,0.01c6.074,0,11-4.925,11-11C204.492,77.989,199.566,73.063,193.492,73.063z"/>
		<path fill="none" stroke="#000000" stroke-width="3" stroke-linecap="round" stroke-miterlimit="10" d="M60.691,78.047
			c0,2.075,1.561,5.25,5.006,5.25c3.445,0,5.215-2.635,5.215-5.213"/>
		<path fill="none" stroke="#000000" stroke-width="3" stroke-linecap="round" stroke-miterlimit="10" d="M65.801,73.257
			c0,2.075,1.561,5.25,5.006,5.25c1.54,0,2.744-0.526,3.605-1.338"/>
		<path fill="none" stroke="#000000" stroke-width="3" stroke-linecap="round" stroke-miterlimit="10" d="M165.716,73.257
			c0,2.075-1.562,5.25-5.006,5.25c-1.539,0-2.744-0.526-3.604-1.338"/>
		<path fill="none" stroke="#000000" stroke-width="3" stroke-linecap="round" stroke-miterlimit="10" d="M160.529,78.047
			c0,2.075,1.561,5.25,5.006,5.25s5.215-2.635,5.215-5.213"/>
		<g>
			<circle cx="75.412" cy="80.771" r="7.5"/>
			<circle fill="#FFFFFF" cx="72.917" cy="78.729" r="3.03"/>
		</g>
		<g>
			<circle cx="155.912" cy="80.771" r="7.5"/>
			<circle fill="#FFFFFF" cx="153.417" cy="78.729" r="3.03"/>
		</g>
		<path fill="none" stroke="#000000" stroke-width="3" stroke-linecap="round" stroke-miterlimit="10" d="M116.154,75.699
			c0,0,0.811,8.268,4.311,12.571l-4.311,3.557"/>
		<path fill="none" stroke="#000000" stroke-width="3" stroke-linecap="round" stroke-miterlimit="10" d="M103.884,98.534
			c0,5.104,3.842,12.917,12.318,12.917c8.476,0,12.827-6.482,12.827-12.827"/>
		<path fill="#604E75" d="M108.753,12.058c0,0-24.965,11-16.982,23.333s22.943-1.667,44.316,0
			c12.527,0.979,45.949,10.863,55.192,37.99c8.352,24.51-6.813,49.14-15.473,54.742c-8.66,5.604-22.548,31.751-16.388,45.646
			c6.162,13.897,28.668,28.953,52.334,20.286s18.666-23.333,18.666-23.333s-4,8.999-16,8.999s-31.333-16.667-16.666-52.333
			c14.666-35.667,12.496-75.284-14.374-98C165.639,14.392,138.753,2.391,108.753,12.058z"/>
		<path fill="#E9E9EA" d="M193.293,95.053c0.066,0.001,0.131,0.01,0.199,0.01c6.074,0,11-4.925,11-11c0-6.073-4.926-11-11-11
			c-0.893,0-1.756,0.118-2.586,0.318l-5.526,12.451L193.293,95.053z"/>
		<path fill="#604E75" d="M100.714,26.059c0,0-7.666,13-17.803,17.667C72.494,48.521,51.369,47.246,41.4,73.382
			c-10.852,28.453,10.73,54.01,22.365,59.361c11.635,5.35,16.652,32.313,1.801,44.313S8.714,190.392,5.38,161.392
			c0,0,9.002,11,19.334,9.334c10.334-1.667,26.334-16.667,8-38c-18.334-21.334-16.223-70.518,6-91.667
			C61.554,19.324,87.048,11.392,100.714,26.059z"/>
		<path fill="#E9E9EA" d="M39.015,95.053c-0.066,0.001-0.131,0.01-0.199,0.01c-6.074,0-11-4.925-11-11c0-6.073,4.926-11,11-11
			c0.893,0,1.756,0.118,2.586,0.318l5.525,12.451L39.015,95.053z"/>
		<circle fill="#C4C4C3" cx="70.286" cy="107.43" r="9.595"/>
		<circle fill="#C4C4C3" cx="162.529" cy="107.43" r="9.595"/>
	</g>
	<path fill="#E9E9EA" d="M85.954,152.796l0.009,0.002l0.032-0.125l0.423-1.611l0.032-0.125l-0.009-0.002
		c1-4.196-0.834-8.306-6.522-9.795l-35.536-9.304c-5.688-1.489-9.301,1.191-10.485,5.342l-0.009-0.002l-0.032,0.125l-0.422,1.611
		l-0.033,0.125l0.009,0.002c-1,4.195,0.834,8.306,6.522,9.795l35.536,9.304C81.157,159.627,84.769,156.944,85.954,152.796z"/>
	<g>
		
			<rect x="10.416" y="118.721" transform="matrix(0.9841 0.1774 -0.1774 0.9841 26.1334 -2.8784)" fill="#B69FCC" width="37.497" height="51.997"/>
		<g enable-background="new    ">
			<path fill="#604E75" d="M21.87,127.684c0.072,0.222-0.091,0.416-0.331,0.373l-0.883-0.159c-0.078-0.014-0.141-0.064-0.159-0.141
				l-0.525-1.703c-0.012-0.025-0.031-0.046-0.056-0.05l-0.31-0.056c-0.14-0.025-0.258,0.058-0.283,0.196l-0.221,1.226
				c-0.025,0.14-0.144,0.222-0.284,0.196l-0.868-0.155c-0.139-0.025-0.222-0.146-0.197-0.284l0.891-4.944
				c0.025-0.139,0.145-0.222,0.284-0.197l1.697,0.307c1.38,0.249,1.831,0.938,1.602,2.209c-0.13,0.721-0.398,1.191-0.862,1.413
				c-0.035,0.018-0.05,0.055-0.042,0.097L21.87,127.684z M20.037,123.562c-0.14-0.024-0.258,0.059-0.284,0.197l-0.103,0.573
				c-0.025,0.139,0.057,0.258,0.197,0.283l0.396,0.07c0.371,0.067,0.566,0.055,0.653-0.426c0.086-0.48-0.092-0.561-0.463-0.627
				L20.037,123.562z"/>
			<path fill="#604E75" d="M26.77,123.399c0.155,0.028,0.218,0.12,0.191,0.274l-0.157,0.868c-0.027,0.146-0.119,0.219-0.274,0.189
				l-1.875-0.338c-0.147-0.025-0.247,0.035-0.274,0.19l-0.044,0.248c-0.026,0.146,0.043,0.248,0.19,0.273l1.201,0.218
				c0.154,0.027,0.218,0.119,0.19,0.273l-0.156,0.868c-0.027,0.146-0.12,0.218-0.274,0.189l-1.201-0.217
				c-0.147-0.025-0.246,0.036-0.274,0.191l-0.045,0.248c-0.026,0.146,0.043,0.248,0.191,0.273l1.875,0.339
				c0.155,0.027,0.218,0.119,0.19,0.273l-0.157,0.868c-0.028,0.155-0.119,0.219-0.274,0.189l-3.254-0.586
				c-0.147-0.025-0.218-0.127-0.192-0.273l0.895-4.959c0.027-0.155,0.127-0.217,0.275-0.19L26.77,123.399z"/>
			<path fill="#604E75" d="M29.802,125.93c-0.16,0.003-0.226-0.08-0.221-0.24c0.002-0.328-0.217-0.574-0.581-0.641
				c-0.302-0.054-0.519,0.09-0.521,0.274c0,0.624,2.451,1.05,2.129,2.832c-0.042,0.231-0.553,1.557-2.39,1.226
				c-1.627-0.293-1.782-1.425-1.712-2.037c0.017-0.141,0.103-0.213,0.247-0.219l0.911-0.036c0.16-0.003,0.233,0.082,0.219,0.247
				c-0.037,0.378,0.211,0.646,0.575,0.712c0.38,0.068,0.701-0.105,0.69-0.324c-0.028-0.685-2.387-0.958-2.066-2.74
				c0.034-0.232,0.421-1.581,2.156-1.268c1.597,0.288,1.782,1.394,1.728,1.959c-0.018,0.141-0.103,0.214-0.248,0.22L29.802,125.93z"
				/>
			<path fill="#604E75" d="M32.929,124.51c0.155,0.028,0.217,0.12,0.19,0.274l-0.548,3.038c-0.107,0.597-0.133,0.968,0.439,1.07
				c0.574,0.104,0.678-0.254,0.786-0.851l0.548-3.038c0.027-0.155,0.127-0.217,0.274-0.19l0.868,0.156
				c0.154,0.028,0.218,0.12,0.191,0.274l-0.622,3.447c-0.092,0.513-0.448,1.863-2.285,1.532c-1.835-0.331-1.697-1.722-1.605-2.232
				l0.622-3.448c0.027-0.155,0.126-0.217,0.275-0.19L32.929,124.51z"/>
			<path fill="#604E75" d="M38.284,125.475c0.14,0.025,0.203,0.117,0.21,0.254l0.144,2.354c0,0.08,0.063,0.091,0.093,0.017
				l0.957-2.156c0.055-0.126,0.145-0.189,0.286-0.165l1.604,0.289c0.155,0.028,0.218,0.119,0.191,0.274l-0.895,4.959
				c-0.026,0.147-0.119,0.219-0.274,0.19l-0.867-0.156c-0.148-0.026-0.217-0.126-0.191-0.274l0.551-3.053
				c0.01-0.054-0.06-0.075-0.085-0.023l-1.309,2.956c-0.054,0.126-0.152,0.182-0.291,0.155l-0.512-0.092
				c-0.14-0.025-0.212-0.11-0.22-0.248l-0.194-3.228c-0.007-0.058-0.077-0.063-0.087-0.008l-0.551,3.054
				c-0.026,0.146-0.12,0.218-0.274,0.189l-0.868-0.156c-0.154-0.027-0.217-0.127-0.191-0.273l0.895-4.959
				c0.027-0.155,0.12-0.218,0.274-0.19L38.284,125.475z"/>
			<path fill="#604E75" d="M46.069,126.878c0.155,0.028,0.219,0.12,0.192,0.273l-0.157,0.868c-0.027,0.147-0.12,0.22-0.275,0.19
				l-1.875-0.338c-0.146-0.026-0.247,0.035-0.274,0.189l-0.044,0.248c-0.026,0.147,0.044,0.248,0.19,0.274l1.201,0.217
				c0.155,0.028,0.219,0.119,0.191,0.274l-0.156,0.866c-0.027,0.147-0.12,0.22-0.275,0.191l-1.201-0.217
				c-0.146-0.026-0.246,0.036-0.274,0.19l-0.045,0.248c-0.026,0.147,0.044,0.248,0.191,0.274l1.875,0.338
				c0.155,0.028,0.219,0.12,0.191,0.274l-0.157,0.867c-0.028,0.155-0.12,0.219-0.275,0.19l-3.254-0.586
				c-0.146-0.026-0.217-0.127-0.191-0.274l0.895-4.959c0.027-0.154,0.127-0.217,0.274-0.189L46.069,126.878z"/>
		</g>
	</g>
	<path fill="#E9E9EA" d="M116.153,165.128c9.076,0,16.433-15.357,16.433-24.435H99.72
		C99.72,149.771,107.078,165.128,116.153,165.128z"/>
</g>
<g>
	<g>
		<path fill="#E9E9EA" d="M225.404,174.373v-27.171h-2.438c-5.939,0-10.8,4.858-10.8,10.8v16.203L225.404,174.373z"/>
		<path fill="#E9E9EA" d="M304.313,174.373v-27.171h2.438c5.94,0,10.8,4.858,10.8,10.8v16.203L304.313,174.373z"/>
		<path fill="#B69FCC" d="M306.749,140.579h-2.438h-78.905h-2.438c-5.939,0-10.8,4.858-10.8,10.8v5.699h13.236v54.5h78.907v-54.5
			h13.237v-5.699C317.55,145.439,312.689,140.579,306.749,140.579z"/>
		<polygon fill="#333333" points="225.404,211.578 225.404,228.244 225.404,267.912 254.193,267.912 254.193,228.244 
			275.521,228.244 275.521,267.912 304.313,267.912 304.313,228.244 304.313,211.578 		"/>
		<path d="M239.799,282.307c7.95,0,14.396-6.445,14.396-14.395h-28.791C225.404,275.861,231.85,282.307,239.799,282.307z"/>
		<path d="M289.917,282.307c7.95,0,14.396-6.445,14.396-14.395h-28.788C275.521,275.861,281.968,282.307,289.917,282.307z"/>
		<path fill="#333333" d="M239.799,253.518c-7.949,0-14.395,6.443-14.395,14.396h28.789
			C254.193,259.961,247.749,253.518,239.799,253.518z"/>
		<path fill="#333333" d="M289.917,253.518c-7.949,0-14.396,6.443-14.396,14.396h28.788
			C304.313,259.961,297.867,253.518,289.917,253.518z"/>
		<path fill="#E9E9EA" d="M305.904,169.721l4.065,3.876l7.578,0.608c0,0-0.179,2.722-2.063,4.646l-10.558,10.82
			c-4.149,4.248-11.021,4.326-15.271,0.174l-1.743-1.704L305.904,169.721z"/>
		<g>
			<rect x="242.8" y="162.787" fill="#604E75" width="58.78" height="37.01"/>
			<polygon fill="#3A314C" points="301.58,162.787 242.8,162.787 229.738,151.177 288.518,151.177 			"/>
			<polygon fill="#4A3D5E" points="242.8,199.797 229.738,188.187 229.738,151.177 242.8,162.787 			"/>
			<polygon points="237.9,158.434 296.682,158.434 294.025,156.074 235.246,156.074 			"/>
			<polygon fill="#74678A" points="242.8,162.787 229.738,151.177 256.951,147.402 270.014,159.067 			"/>
			<polygon fill="#74678A" points="275.092,159.306 262.029,147.695 288.518,151.177 301.58,162.842 			"/>
			<g>
				<g>
					<path d="M248.924,176.033c0.322,2.958,1.152,5.815,1.642,8.744c0.104,0.645,1.354,0.606,1.25-0.021
						c-0.487-2.928-1.318-5.79-1.642-8.746C250.104,175.361,248.854,175.393,248.924,176.033L248.924,176.033z"/>
				</g>
			</g>
			<g>
				<g>
					<path d="M249.703,176.569c2.19-0.054,4.289-0.763,6.377-1.364c-0.047,0.014-0.572-0.995-0.854-0.914
						c-2.088,0.604-4.187,1.313-6.377,1.367C248.998,175.652,249.35,176.578,249.703,176.569L249.703,176.569z"/>
				</g>
			</g>
			<g>
				<g>
					<path d="M249.669,180.486c1.319-0.006,2.624-0.1,3.917-0.362c0.053-0.013-0.341-1.147-0.604-1.096
						c-1.296,0.266-2.601,0.358-3.918,0.364C249.089,179.393,249.35,180.489,249.669,180.486L249.669,180.486z"/>
				</g>
			</g>
			<g>
				<g>
					<path d="M257.404,175.471c0.092,2.373,0.196,4.744,0.455,7.106c0.041,0.375,1.187,0.579,1.234,0.189
						c0.236-1.85,0.105-3.7,0.091-5.558c-0.002-0.412-1.237-0.533-1.233-0.191c0.016,1.857,0.145,3.708-0.092,5.56
						c0.411,0.063,0.823,0.128,1.234,0.189c-0.26-2.36-0.364-4.731-0.456-7.104C258.623,175.246,257.393,175.139,257.404,175.471
						L257.404,175.471z"/>
				</g>
			</g>
			<g>
				<g>
					<path d="M258.086,176.039c0.725-0.121,3.713-1.316,4.168-0.447c0.527,1.012-0.511,2.094-1.288,2.542
						c-0.862,0.496-1.948,0.644-2.917,0.786c-0.645,0.096-0.095,1.215,0.493,1.128c2.208-0.325,5.813-1.524,4.698-4.544
						c-0.868-2.354-3.963-0.873-5.646-0.593C256.947,175.02,257.5,176.137,258.086,176.039L258.086,176.039z"/>
				</g>
			</g>
			<g>
				<g>
					<path d="M257.873,179.469c1.904,0.852,3.854,1.629,5.615,2.766c0.342,0.223,1.508-0.014,0.91-0.396
						c-1.834-1.188-3.875-1.995-5.863-2.883C258.104,178.76,257.125,179.135,257.873,179.469L257.873,179.469z"/>
				</g>
			</g>
			<g>
				<g>
					<path d="M259.51,178.975c-0.223,2.266,2.765,2.784,4.358,3.336c0.256,0.088,0.633,0.148,0.816-0.115
						c0.168-0.236-0.069-0.537-0.302-0.616c-1.068-0.37-3.813-0.748-3.659-2.313C260.783,178.678,259.564,178.411,259.51,178.975
						L259.51,178.975z"/>
				</g>
			</g>
			<g>
				<g>
					<path d="M267.703,173.221c0.529,2.973-0.207,6.051-0.81,8.957c-0.071,0.346,1.144,0.206,1.207-0.103
						c0.608-2.947,1.367-6.071,0.83-9.083C268.876,172.678,267.646,172.902,267.703,173.221L267.703,173.221z"/>
				</g>
			</g>
			<g>
				<g>
					<path d="M267.746,173.17c1.234,2.7,2.193,5.515,3.461,8.2c0.199,0.423,1.412,0.623,1.145,0.055
						c-1.268-2.688-2.229-5.501-3.463-8.2C268.695,172.799,267.482,172.596,267.746,173.17L267.746,173.17z"/>
				</g>
			</g>
			<g>
				<g>
					<path d="M268,179.369c0.932,0,1.846-0.033,2.748-0.286c0.52-0.146-0.209-1.149-0.672-1.021
						c-0.835,0.234-1.672,0.261-2.533,0.262C266.908,178.324,267.541,179.369,268,179.369L268,179.369z"/>
				</g>
			</g>
			<g>
				<g>
					<path d="M276.131,171.986c-1.788-0.344-4.005-0.451-4.611,1.655c-0.732,2.56,1.434,4.998,3.169,6.522
						c1.807,1.586,3.645,0.963,4.016-1.385c0.302-1.91-1.21-2.672-2.839-2.22c-0.386,0.106,0.122,1.234,0.579,1.107
						c0.157-0.044,1.431-0.448,1.478,0.106c0.066,0.781-0.344,1.735-1.03,2.108c-1.413,0.771-3.394-1.813-4.034-2.724
						c-0.832-1.182-0.982-3.167,0.409-3.957c0.937-0.531,2.287-0.264,3.274-0.072C276.953,173.213,276.559,172.068,276.131,171.986
						L276.131,171.986z"/>
				</g>
			</g>
			<g>
				<g>
					<path d="M279.749,170.966c0.062,2.842,0.868,5.569,1.185,8.382c0.054,0.465,1.248,0.787,1.189,0.272
						c-0.316-2.813-1.123-5.54-1.187-8.384C280.928,170.775,279.738,170.43,279.749,170.966L279.749,170.966z"/>
				</g>
			</g>
			<g>
				<g>
					<path d="M283.637,170.579c-0.005,1.679-0.044,3.354-0.037,5.035c0.002,0.819-0.243,2.479,0.398,3.177
						c1.018,1.1,2.659-0.086,3.818-0.301c0.807-0.148,0.336-1.06-0.367-0.93c-0.483,0.089-0.939,0.228-1.398,0.4
						c-0.917,0.35-1.09,0.404-1.164-0.689c-0.153-2.233-0.008-4.503,0-6.74C284.889,169.885,283.639,169.928,283.637,170.579
						L283.637,170.579z"/>
				</g>
			</g>
			<g>
				<g>
					<path d="M292.932,168.24c-1.183,0.281-2.567,0.477-3.36,1.48c-0.877,1.111-0.209,2.77,0.142,3.938
						c0.35,1.159,0.442,3.313,1.703,3.968c1.378,0.711,2.647,0.091,3.996-0.43c0.694-0.271,0.043-1.332-0.613-1.078
						c-0.917,0.354-2.407,1.275-3.146,0.137c-0.502-0.776-0.575-1.916-0.813-2.795c-0.271-1.008-0.909-2.199-0.135-3.185
						c0.478-0.604,1.853-0.7,2.563-0.87C294.021,169.228,293.619,168.076,292.932,168.24L292.932,168.24z"/>
				</g>
			</g>
			<g>
				<g>
					<path d="M291.016,174.661c0.765-0.271,1.569-0.386,2.341-0.628c0.104-0.033-0.312-0.27-0.346-0.287
						c-0.138-0.076-0.542-0.348-0.714-0.291c-0.791,0.251-1.615,0.371-2.397,0.646c-0.017,0.005,0.483,0.335,0.521,0.354
						C290.555,174.523,290.855,174.717,291.016,174.661L291.016,174.661z"/>
				</g>
			</g>
			<g>
				<g>
					<path d="M251.887,189.858c5.692-3.167,12.334-3.646,18.613-4.946c8.045-1.667,16.389-0.283,24.3-1.979
						c-0.17,0.037-0.687-0.779-1.032-0.705c-7.364,1.576-15.189,0.213-22.67,1.643c-6.69,1.277-14.201,1.923-20.242,5.282
						C250.907,189.124,251.641,189.996,251.887,189.858L251.887,189.858z"/>
				</g>
			</g>
		</g>
		<path fill="#E9E9EA" d="M223.813,169.721l-4.065,3.876l-7.578,0.608c0,0,0.18,2.722,2.063,4.646l10.557,10.82
			c4.15,4.248,11.022,4.326,15.271,0.174l1.742-1.704L223.813,169.721z"/>
	</g>
	<g>
		<path fill="#E9E9EA" d="M341.893,73.198c-0.893,0-1.754,0.116-2.586,0.316C330.538,44.891,300.4,23.79,264.555,23.79
			c-35.845,0-65.983,21.101-74.752,49.725c-0.83-0.201-1.692-0.316-2.587-0.316c-6.075,0-11,4.925-11,11c0,6.073,4.925,11,11,11
			c0.067,0,0.134-0.011,0.199-0.012c2.714,33.829,36.201,49.417,77.14,49.417s74.427-15.588,77.14-49.417
			c0.067,0.001,0.133,0.012,0.198,0.012c6.076,0,11-4.927,11-11C352.893,78.122,347.968,73.198,341.893,73.198z"/>
		<g>
			<circle cx="223.813" cy="80.906" r="7.5"/>
			<circle fill="#FFFFFF" cx="221.318" cy="78.862" r="3.03"/>
		</g>
		<g>
			<circle cx="304.313" cy="80.906" r="7.5"/>
			<circle fill="#FFFFFF" cx="301.818" cy="78.862" r="3.03"/>
		</g>
		<path fill="#B69FCC" d="M312.948,32.959c-7.166-5.333-24.171-11.994-44.657-12.637c-22.176-0.696-49.676,7.471-59.844,18.304
			c-10.323,11.001-19.127,25.776-18.646,34.889c0,0,2.813,3.335,2.813,7.392h5.5c0,0,0.5-26.445,16-36.445
			c0,0,7.498-0.833,10.167,4.833c0,0,4.227-3.333,2.027-6.5c0,0,24.431-4.833,39.931,10.792c0,0,3.125-5.542,0.875-7.542
			c0,0,16.125,0.667,22.375,7.917c0,0,0.875-2.417,0-5c-0.444-1.313,23.625-1.875,29.75,7.25c0,0,0.667-8.583-5.792-12.917
			c19.667,12.667,17.667,37.612,17.667,37.612h5.333c0.165-4.057,2.857-7.392,2.857-7.392
			C337.229,48.991,320.115,38.293,312.948,32.959z"/>
		<path fill="none" stroke="#000000" stroke-width="3" stroke-linecap="round" stroke-miterlimit="10" d="M264.555,75.832
			c0,0,0.813,8.268,4.313,12.573l-4.313,3.555"/>
		<path fill="none" stroke="#000000" stroke-width="3" stroke-linecap="round" stroke-miterlimit="10" d="M252.285,98.667
			c0,5.104,3.843,12.917,12.317,12.917c8.478,0,12.826-6.482,12.826-12.827"/>
	</g>
</g>
</svg>
