<?xml version="1.0" encoding="utf-8"?>
<!-- Generator: Adobe Illustrator 16.0.0, SVG Export Plug-In . SVG Version: 6.00 Build 0)  -->
<!DOCTYPE svg PUBLIC "-//W3C//DTD SVG 1.1//EN" "http://www.w3.org/Graphics/SVG/1.1/DTD/svg11.dtd">
<svg version="1.1" id="Layer_1" xmlns="http://www.w3.org/2000/svg" xmlns:xlink="http://www.w3.org/1999/xlink" x="0px" y="0px"
	 width="510.662px" height="339.394px" viewBox="-116.707 -139.394 510.662 339.394"
	 enable-background="new -116.707 -139.394 510.662 339.394" xml:space="preserve">
<g>
	<path fill="#6D5D84" d="M64.244-139.394c-78.334,0-141.835,63.501-141.835,141.835h19.969c0-67.305,54.561-121.866,121.866-121.866
		S186.11-64.863,186.11,2.441h19.969C206.079-75.893,142.577-139.394,64.244-139.394z"/>
	<path fill="#B59ECB" d="M64.244-119.425c-67.305,0-121.866,54.561-121.866,121.865h23.957l0,0c0-54.074,43.835-97.91,97.909-97.91
		c54.074,0,97.909,43.836,97.909,97.91l0,0h23.957C186.11-64.864,131.549-119.425,64.244-119.425z"/>
	<path fill="#C4C3C3" d="M64.244-95.47c-54.074,0-97.909,43.836-97.909,97.91l0,0h22.092c0-1.309,0.033-2.609,0.099-3.902
		c2.031-40.06,35.154-71.916,75.718-71.916c40.564,0,73.688,31.856,75.718,71.916c0.066,1.292,0.099,2.593,0.099,3.902h22.093l0,0
		C162.152-51.633,118.318-95.47,64.244-95.47z"/>
</g>
<path fill="#786B89" d="M393.96-19.805c-10.258-4.949-17.258-13.638-21.547-26.825c-8.43,22.665-26.17,31.971-48.834,31.971
	c-25.949,0-41.496-9.416-48.834-31.971c-8.43,22.665-25.871,31.971-48.537,31.971c-25.948,0-41.199-9.416-48.536-31.971
	c-8.43,22.665-26.169,31.971-48.833,31.971c-25.95,0-41.497-9.416-48.834-31.971c-8.43,22.665-25.872,31.971-48.537,31.971
	c-25.949,0-41.2-9.416-48.537-31.971c-8.43,22.665-26.169,31.971-48.833,31.971v129.407H393.96V-19.805z"/>
<radialGradient id="SVGID_1_" cx="138.6279" cy="548.3301" r="189.3483" gradientTransform="matrix(1 0 0 1 0 -503.7588)" gradientUnits="userSpaceOnUse">
	<stop  offset="0" style="stop-color:#604E75"/>
	<stop  offset="1" style="stop-color:#604E75"/>
</radialGradient>
<path fill="url(#SVGID_1_)" d="M393.96-8.603c-7.004,3.043-15.016,4.455-23.813,4.455c-25.948,0-41.2-9.416-48.536-31.971
	c-8.431,22.665-26.17,31.971-48.834,31.971c-25.949,0-41.496-9.416-48.834-31.971c-8.431,22.665-25.871,31.971-48.538,31.971
	c-25.948,0-41.199-9.416-48.536-31.971C118.439-13.454,100.7-4.147,78.036-4.147c-25.949,0-41.497-9.416-48.834-31.971
	C20.771-13.454,3.33-4.147-19.335-4.147c-25.949,0-41.2-9.416-48.537-31.971c-8.43,22.665-26.168,31.971-48.833,31.971V125.26
	h510.666L393.96-8.603L393.96-8.603z"/>
<path fill="#C4C4C3" d="M110.159,45.708C258.192,27.576,271.329,22.67,393.96,23.106V73.92v127.544h-510.667V73.92V48.948
	C-116.707,48.948-37.873,63.839,110.159,45.708z"/>
<g>
	<path fill="#E9E9EA" d="M250.229,99.318h1.622c3.952,0,7.186,3.233,7.186,7.186v21.775c0,3.95-3.233,7.186-7.186,7.186h-1.622
		V99.318z"/>
	<path fill="#E9E9EA" d="M197.735,99.318h-1.621c-3.951,0-7.184,3.233-7.184,7.186v21.775c0,3.95,3.232,7.186,7.184,7.186h1.621
		V99.318z"/>
	<path fill="#5B5C5C" d="M251.851,99.318h-1.623h-52.492h-1.623c-3.951,0-7.185,3.233-7.185,7.186v3.791h8.805v36.257h52.494
		v-36.257h8.807v-3.791C259.036,102.552,255.803,99.318,251.851,99.318z"/>
	<polygon fill="#B69FCC" points="197.735,146.552 197.735,157.639 197.735,184.027 216.889,184.027 216.889,157.639 
		231.077,157.639 231.077,184.027 250.229,184.027 250.229,157.639 250.229,146.552 	"/>
	<path d="M207.313,193.604c5.288,0,9.577-4.288,9.577-9.576h-19.152C197.735,189.315,202.022,193.604,207.313,193.604z"/>
	<path d="M240.653,193.604c5.288,0,9.576-4.288,9.576-9.576h-19.152C231.077,189.315,235.364,193.604,240.653,193.604z"/>
	<path fill="#B69FCC" d="M207.313,174.45c-5.288,0-9.577,4.288-9.577,9.577h19.153C216.889,178.738,212.601,174.45,207.313,174.45z"
		/>
	<path fill="#B69FCC" d="M240.653,174.45c-5.289,0-9.576,4.288-9.576,9.577h19.15C250.229,178.738,245.941,174.45,240.653,174.45z"
		/>
	<g>
		<path fill="#E9E9EA" d="M275.229,57.154c-0.595,0-1.168,0.078-1.719,0.211c-5.836-19.042-25.885-33.079-49.73-33.079
			c-23.848,0-43.896,14.037-49.729,33.079c-0.553-0.133-1.126-0.211-1.72-0.211c-4.043,0-7.318,3.276-7.318,7.318
			c0,4.041,3.275,7.318,7.318,7.318c0.044,0,0.088-0.006,0.132-0.007c1.805,22.505,24.083,32.875,51.317,32.875
			c27.234,0,49.512-10.37,51.316-32.875c0.045,0.001,0.088,0.007,0.133,0.007c4.042,0,7.316-3.277,7.316-7.318
			C282.547,60.43,279.272,57.154,275.229,57.154z"/>
		<path fill="#B69FCC" d="M273.511,57.364c-1.384-16.313-12.769-23.431-17.535-26.98c-4.766-3.548-16.08-7.977-29.709-8.406
			c-14.752-0.463-33.046,4.97-39.81,12.177c-6.869,7.317-12.724,17.149-12.403,23.209c0,0,1.872,2.219,1.872,4.917h0.744
			l-0.744,3.068c0,0-0.075,14.142,10.672,28.253v-4.784l3.659,4.784c0,0,0.853,2.787,17.059,0v-4.784l2.233,4.784
			c0,0,22.951,3.153,35.259,0l1.996-3.09v4.493l3.427-5.056v5.056l5.886-4.493c0,0,2.994,1.874,8.648-0.563
			c0,0,6.886-9.415,6.846-24.6l-0.72-3.068h0.72C271.72,59.583,273.511,57.364,273.511,57.364z"/>
	</g>
</g>
<g>
	<path fill="#E9E9EA" d="M333.979,101.19h1.621c3.951,0,7.185,3.233,7.185,7.186v21.776c0,3.95-3.231,7.185-7.185,7.185h-1.621
		V101.19z"/>
	<path fill="#E9E9EA" d="M281.485,101.19h-1.622c-3.951,0-7.186,3.233-7.186,7.186v21.776c0,3.95,3.233,7.185,7.186,7.185h1.622
		V101.19z"/>
	<path fill="#333333" d="M335.601,101.19h-1.622h-52.493h-1.623c-3.952,0-7.188,3.233-7.188,7.186v3.791h8.807v36.256h52.494
		v-36.256h8.806v-3.791C342.783,104.424,339.552,101.19,335.601,101.19z"/>
	<polygon fill="#B69FCC" points="281.485,148.423 281.485,159.511 281.485,185.9 300.637,185.9 300.637,159.511 314.825,159.511 
		314.825,185.9 333.979,185.9 333.979,159.511 333.979,148.423 	"/>
	<path d="M291.062,195.475c5.287,0,9.575-4.285,9.575-9.574h-19.151C281.485,191.188,285.773,195.475,291.062,195.475z"/>
	<path d="M324.401,195.475c5.289,0,9.577-4.285,9.577-9.574h-19.153C314.825,191.188,319.112,195.475,324.401,195.475z"/>
	<path fill="#B69FCC" d="M291.062,176.322c-5.288,0-9.576,4.288-9.576,9.577h19.151
		C300.637,180.611,296.349,176.322,291.062,176.322z"/>
	<path fill="#B69FCC" d="M324.401,176.322c-5.289,0-9.576,4.288-9.576,9.577h19.153C333.979,180.611,329.69,176.322,324.401,176.322
		z"/>
	<g>
		<path fill="#604E75" d="M376.756,111.905c0,0-2.418,5.442-9.676,5.442S348.131,107.267,357,85.696
			c5.444-13.241,7.046-27.378,3.716-39.503l-0.001-0.029l-0.008-0.007c-2.097-7.613-6.134-14.434-12.399-19.731
			c-10.731-9.071-26.991-16.33-45.135-10.483c0,0-5.168,2.28-8.489,5.665c-8.682-4.651-21.881,0.464-33.87,11.875
			c-13.441,12.79-14.717,42.537-3.63,55.439c11.09,12.902,1.411,21.976-4.838,22.981c-6.249,1.009-11.692-5.644-11.692-5.644
			c1.17,10.176,10.211,14.168,19.354,14.318L260,120.59c0,0,0.077-0.003,0.214-0.008c1.461,0.014,2.924-0.068,4.355-0.242
			c0.566-0.037,1.174-0.08,1.813-0.127c-2.788,4.939-4.693,5.998-5.655,6.152c7.607,0.68,17.784-2.259,24.59-4.668
			c-1.217,3.326-2.227,4.27-2.795,4.516c10.896-1.194,17.245-5.756,20.833-9.882l0.108-0.074c1.244,4.038,3.784,9.706,8.496,11.336
			c0,0-1.626-3.243-1.413-6.369c4.056,3.243,9.52,6.016,16.534,6.34c0,0-4.231-3.13-6.152-7.683
			c6.439,4.983,17.191,11.23,30.646,11.23c0,0-2.212-0.121-3.822-3.922c2.477,0.361,5.004,0.503,7.543,0.326l-0.001-0.006
			c3.262,0.205,6.694-0.217,10.172-1.491C379.781,120.775,376.756,111.905,376.756,111.905z"/>
		<path fill="#604E75" d="M282.522,126.211c-0.168,0.019-0.328,0.044-0.5,0.06C282.024,126.271,282.203,126.35,282.522,126.211z"/>
		<path fill="#604E75" d="M260.729,126.363c-0.243-0.021-0.489-0.041-0.729-0.067C260,126.293,260.248,126.44,260.729,126.363z"/>
	</g>
</g>
<line fill="none" stroke="#604E75" stroke-miterlimit="10" x1="393.96" y1="201.467" x2="393.96" y2="-19.805"/>
<line fill="none" stroke="#604E75" stroke-miterlimit="10" x1="393.96" y1="201.465" x2="-116.707" y2="201.465"/>
<line fill="none" stroke="#604E75" stroke-miterlimit="10" x1="-116.707" y1="201.465" x2="-116.707" y2="48.948"/>
</svg>
