<?xml version="1.0" encoding="utf-8"?>
<!-- Generator: Adobe Illustrator 15.0.0, SVG Export Plug-In . SVG Version: 6.00 Build 0)  -->
<!DOCTYPE svg PUBLIC "-//W3C//DTD SVG 1.1//EN" "http://www.w3.org/Graphics/SVG/1.1/DTD/svg11.dtd">
<svg version="1.1" id="Layer_1" xmlns="http://www.w3.org/2000/svg" xmlns:xlink="http://www.w3.org/1999/xlink" x="0px" y="0px"
	 width="186.5px" height="270.5px" viewBox="0 14.114 186.5 270.5" enable-background="new 0 14.114 186.5 270.5"
	 xml:space="preserve">
<g>
	<g>
		<path fill="#E9E9EA" d="M-894.01,165.586h2.438c5.94,0,10.8,4.859,10.8,10.8v32.733c0,5.938-4.859,10.8-10.8,10.8h-2.438V165.586z
			"/>
		<path fill="#E9E9EA" d="M-972.917,165.586h-2.438c-5.94,0-10.801,4.859-10.801,10.8v32.733c0,5.938,4.86,10.8,10.801,10.8h2.438
			V165.586z"/>
		<path fill="#604E75" d="M-891.572,165.586h-2.438h-78.907h-2.438c-5.94,0-10.801,4.859-10.801,10.8v5.699h13.238v54.5h78.907
			v-54.5h13.237v-5.699C-880.772,170.446-885.632,165.586-891.572,165.586z"/>
		<polygon fill="#5B5C5C" points="-972.917,236.585 -972.917,253.252 -972.917,292.919 -944.128,292.919 -944.128,253.252 
			-922.8,253.252 -922.8,292.919 -894.01,292.919 -894.01,253.252 -894.01,236.585 		"/>
		<path d="M-958.522,307.313c7.949,0,14.395-6.443,14.395-14.395h-28.789C-972.917,300.869-966.473,307.313-958.522,307.313z"/>
		<path d="M-908.405,307.313c7.951,0,14.396-6.443,14.396-14.395h-28.79C-922.8,300.869-916.354,307.313-908.405,307.313z"/>
		<path fill="#5B5C5C" d="M-958.522,278.524c-7.95,0-14.395,6.444-14.395,14.396h28.789
			C-944.128,284.969-950.573,278.524-958.522,278.524z"/>
		<path fill="#5B5C5C" d="M-908.405,278.524c-7.949,0-14.395,6.444-14.395,14.396h28.79
			C-894.01,284.969-900.454,278.524-908.405,278.524z"/>
		<g>
			<g>
				<path fill="#B69FCC" d="M-952.42,184.448c0.692-0.214,1.112-0.066,1.253,0.42c1.805,6.228,2.707,9.34,4.511,15.566
					c0.134,0.462-0.044,0.804-0.547,0.959c-1.107,0.341-1.656,0.526-2.746,0.938c-0.471,0.178-0.844,0.028-1.021-0.418
					c-2.387-6.029-3.579-9.044-5.967-15.073c-0.187-0.472,0.093-0.854,0.74-1.098C-954.698,185.177-953.942,184.916-952.42,184.448z
					"/>
				<path fill="#B69FCC" d="M-943.081,182.312c0.71-0.107,1.1,0.097,1.168,0.599c0.533,3.936,0.798,5.904,1.332,9.841
					c0.262,1.934,0.559,3.051,2.638,2.86c2.079-0.189,2.166-1.344,2.073-3.293c-0.188-3.967-0.282-5.952-0.47-9.92
					c-0.024-0.506,0.357-0.775,1.038-0.798c1.604-0.05,2.407-0.05,4.011,0c0.715,0.022,1.06,0.294,1.036,0.8
					c-0.214,4.504-0.32,6.754-0.533,11.259c-0.079,1.67-0.667,5.735-6.759,6.291c-6.091,0.555-7.427-3.329-7.808-4.957
					c-1.027-4.391-1.541-6.585-2.567-10.976c-0.115-0.493,0.212-0.833,0.881-0.978
					C-945.465,182.699-944.672,182.554-943.081,182.312z"/>
				<path fill="#B69FCC" d="M-918.007,183.394c6.239,1.513,7.922,4.529,6.393,8.393c-1.529,3.862-4.181,4.656-9.253,3.428
					c-0.547-0.133-0.822-0.196-1.372-0.314c-0.543-0.115-0.909,0.071-1.006,0.568c-0.313,1.591-0.469,2.387-0.782,3.978
					c-0.098,0.497-0.402,0.693-0.917,0.602c-1.153-0.207-1.732-0.294-2.892-0.429c-0.492-0.059-0.751-0.36-0.704-0.841
					c0.641-6.442,0.962-9.662,1.605-16.105c0.05-0.504,0.431-0.724,1.147-0.666C-922.654,182.368-921.091,182.646-918.007,183.394z
					 M-919.656,191.022c1.479,0.363,2.252,0.444,2.688-1.063c0.436-1.508-0.297-1.896-1.865-2.28
					c-0.706-0.174-1.062-0.256-1.771-0.408c-0.624-0.134-1.036,0.048-1.134,0.545c-0.148,0.756-0.222,1.131-0.37,1.888
					c-0.093,0.473,0.195,0.812,0.783,0.938C-920.657,190.782-920.322,190.858-919.656,191.022z"/>
			</g>
		</g>
	</g>
	<g>
		<path fill="#E9E9EA" d="M-856.429,100.954c-0.893,0-1.756,0.117-2.586,0.317c-8.77-28.624-38.908-49.726-74.753-49.726
			c-35.845,0-65.983,21.102-74.753,49.726c-0.83-0.199-1.693-0.317-2.586-0.317c-6.074,0-11,4.925-11,11c0,6.074,4.926,11,11,11
			c0.068,0,0.133-0.01,0.199-0.012c2.715,33.829,36.201,49.417,77.14,49.417c40.938,0,74.425-15.588,77.14-49.417
			c0.066,0.002,0.131,0.012,0.199,0.012c6.074,0,11-4.926,11-11C-845.429,105.879-850.354,100.954-856.429,100.954z"/>
		<path fill="none" stroke="#000000" stroke-width="3" stroke-linecap="round" stroke-miterlimit="10" d="M-933.768,103.59
			c0,0,0.812,8.268,4.312,12.572l-4.312,3.555"/>
		<path fill="none" stroke="#000000" stroke-width="3" stroke-linecap="round" stroke-miterlimit="10" d="M-946.036,126.425
			c0,5.106,3.842,12.917,12.318,12.917c8.476,0,12.827-6.482,12.827-12.827"/>
		<path fill="#604E75" d="M-983.099,180.663c4.591-11.506-4.857-20.418-10.387-24.648c-8.191-6.268-23.824-30.231-15.473-54.742
			c9.243-27.128,42.665-37.013,55.192-37.989c21.372-1.667,36.333,12.333,44.315,0s-16.982-23.333-16.982-23.333
			c-30-9.668-56.885,2.333-74.627,17.333c-26.868,22.716-31.902,63.649-14.373,98c5.55,10.875,8.467,16.334-1.2,21.167
			c0,0-5.5,3.833-7.5,0.667c0,0-0.167,4.333,7,5c0,0-1.333,3.05-4.333,2.106c0,0,3.812,1.742,6.771,0.435
			c0,0-0.375,1.813-2.75,1.875C-1020.031,186.601-989.831,197.536-983.099,180.663z"/>
		<path fill="#604E75" d="M-883.245,183.949c-10.229-10.833-3.265-19.167,1.801-23.315c9.908-8.114,33.218-30.908,22.365-59.361
			c-9.969-26.136-31.093-24.859-41.511-29.656c-10.137-4.666-17.804-17.666-17.804-17.666c13.667-14.666,39.161-6.734,62,15
			c22.223,21.147,20.735,67.704,6,91.667c-5.739,9.333-2.333,15.333,8,17c0,0,5.095,1.76,7.095-0.537s-1.333,4.37-5.5,4.37
			s-1.499,1.499,2.167,1.833c0,0-2.927,1.5-6.797,1.334c0,0-1.037,0.666,0.963,1.5C-844.466,186.116-874.03,193.708-883.245,183.949
			z"/>
		<path fill="#E9E9EA" d="M-856.628,122.943c0.066,0.002,0.131,0.011,0.199,0.011c6.074,0,11-4.926,11-11s-4.926-11-11-11
			c-0.893,0-1.756,0.117-2.586,0.317l-5.525,12.451L-856.628,122.943z"/>
		<path fill="#E9E9EA" d="M-1010.906,122.943c-0.066,0.002-0.131,0.011-0.199,0.011c-6.074,0-11-4.926-11-11s4.926-11,11-11
			c0.893,0,1.756,0.117,2.586,0.317l5.525,12.451L-1010.906,122.943z"/>
		<circle fill="#C4C4C3" cx="-979.635" cy="135.32" r="9.595"/>
		<circle fill="#C4C4C3" cx="-887.391" cy="135.32" r="9.595"/>
		<path fill="none" stroke="#000000" stroke-width="3" stroke-linecap="round" stroke-miterlimit="10" d="M-986.641,104.376
			c0,2.075,1.561,5.25,5.006,5.25c3.445,0,5.214-2.635,5.214-5.213"/>
		<path fill="none" stroke="#000000" stroke-width="3" stroke-linecap="round" stroke-miterlimit="10" d="M-981.531,99.586
			c0,2.075,1.561,5.25,5.006,5.25c1.54,0,2.744-0.526,3.605-1.338"/>
		<path fill="none" stroke="#000000" stroke-width="3" stroke-linecap="round" stroke-miterlimit="10" d="M-881.615,99.586
			c0,2.075-1.561,5.25-5.006,5.25c-1.539,0-2.744-0.526-3.605-1.338"/>
		<path fill="none" stroke="#000000" stroke-width="3" stroke-linecap="round" stroke-miterlimit="10" d="M-886.803,104.376
			c0,2.075,1.561,5.25,5.006,5.25c3.445,0,5.214-2.635,5.214-5.213"/>
		<g>
			<circle cx="-971.921" cy="107.101" r="7.5"/>
			<circle fill="#FFFFFF" cx="-974.415" cy="105.058" r="3.03"/>
		</g>
		<g>
			<circle cx="-891.421" cy="107.101" r="7.5"/>
			<circle fill="#FFFFFF" cx="-893.915" cy="105.058" r="3.03"/>
		</g>
	</g>
</g>
<g>
	<g>
		<path fill="#E9E9EA" d="M-655.087-127.333h2.438c5.94,0,10.801,4.859,10.801,10.8V-83.8c0,5.938-4.86,10.8-10.801,10.8h-2.438
			V-127.333z"/>
		<path fill="#E9E9EA" d="M-733.994-127.333h-2.438c-5.939,0-10.8,4.859-10.8,10.8V-83.8c0,5.938,4.86,10.8,10.8,10.8h2.438
			V-127.333z"/>
		<path fill="#5B5C5C" d="M-652.649-127.333h-2.438h-78.907h-2.438c-5.939,0-10.8,4.859-10.8,10.8v5.699h13.237v54.5h78.907v-54.5
			h13.238v-5.699C-641.849-122.473-646.709-127.333-652.649-127.333z"/>
		<polygon fill="#604E75" points="-733.994,-56.334 -733.994,-39.667 -733.994,0 -705.204,0 -705.204,-39.667 -683.876,-39.667 
			-683.876,0 -655.087,0 -655.087,-39.667 -655.087,-56.334 		"/>
		<path d="M-719.6,14.395c7.95,0,14.396-6.443,14.396-14.395h-28.79C-733.994,7.95-727.549,14.395-719.6,14.395z"/>
		<path d="M-669.481,14.395c7.95,0,14.395-6.443,14.395-14.395h-28.789C-683.876,7.95-677.431,14.395-669.481,14.395z"/>
		<path fill="#604E75" d="M-719.6-14.395c-7.949,0-14.395,6.444-14.395,14.396h28.79C-705.204-7.95-711.649-14.395-719.6-14.395z"/>
		<path fill="#604E75" d="M-669.481-14.395c-7.949,0-14.395,6.444-14.395,14.396h28.789
			C-655.087-7.95-661.531-14.395-669.481-14.395z"/>
		<g>
			<g>
				<path fill="#E9E9EA" d="M-727.88-105.251c1.461-0.578,2.197-0.852,3.676-1.364c0.197,0.567,0.295,0.851,0.492,1.417
					c-0.319,0.111-0.479,0.167-0.798,0.28c0.727,2.033,1.088,3.048,1.815,5.081c0.299-0.107,0.45-0.161,0.75-0.266
					c0.195,0.563,0.292,0.845,0.487,1.406c-1.343,0.466-2.01,0.713-3.337,1.239c-0.219-0.553-0.329-0.83-0.548-1.383
					c0.297-0.118,0.445-0.176,0.742-0.29c-0.776-2.016-1.162-3.021-1.938-5.036c-0.316,0.122-0.475,0.183-0.791,0.308
					C-727.549-104.415-727.659-104.693-727.88-105.251z"/>
				<path fill="#E9E9EA" d="M-716.227-109.007c1.383-0.344,2.078-0.5,3.471-0.788c0.122,0.587,0.181,0.88,0.303,1.468
					c-0.328,0.068-0.492,0.102-0.819,0.173c0.584,2.701,0.876,4.051,1.461,6.752c-0.48,0.104-0.719,0.157-1.198,0.269
					c-2.036-1.686-3.101-2.497-5.318-4.053c0.41,1.444,0.613,2.167,1.023,3.611c0.157-0.044,0.919-0.255,0.919-0.255
					c0.157,0.579,0.236,0.869,0.394,1.447c-1.25,0.339-1.874,0.521-3.113,0.909c-0.18-0.571-0.269-0.857-0.449-1.43
					c0.36-0.113,0.539-0.168,0.9-0.277c-0.625-2.07-0.936-3.105-1.561-5.178c-0.384,0.116-0.575,0.174-0.958,0.294
					c-0.18-0.571-0.27-0.856-0.45-1.43c1.163-0.365,1.747-0.539,2.918-0.864c1.862,1.352,2.762,2.051,4.499,3.489
					c-0.275-1.167-0.413-1.751-0.688-2.919c-0.389,0.092-0.583,0.139-0.972,0.235C-716.01-108.134-716.083-108.425-716.227-109.007z
					"/>
				<path fill="#E9E9EA" d="M-701.402-107.196c0.198,2.403-1.543,4.327-3.813,4.63c-1.451,0.193-2.176,0.308-3.62,0.564
					c-0.106-0.596-0.161-0.894-0.267-1.488c0.295-0.053,0.444-0.078,0.74-0.128c-0.359-2.119-0.537-3.178-0.896-5.298
					c-0.314,0.053-0.472,0.08-0.786,0.136c-0.107-0.6-0.16-0.899-0.267-1.499c1.59-0.284,2.387-0.408,3.985-0.621
					C-703.639-111.256-701.6-109.598-701.402-107.196z M-706.342-103.935c0.257-0.037,0.385-0.055,0.642-0.09
					c1.84-0.251,2.343-1.638,2.201-2.974c-0.144-1.348-1.154-2.591-2.927-2.35c-0.273,0.037-0.41,0.057-0.683,0.097
					C-706.802-107.125-706.649-106.062-706.342-103.935z"/>
				<path fill="#E9E9EA" d="M-699.847-111.492c1.541-0.094,2.313-0.125,3.856-0.154c0.011,0.601,0.018,0.9,0.029,1.5
					c-0.333,0.006-0.5,0.011-0.833,0.021c0.061,2.158,0.09,3.235,0.151,5.393c0.313-0.009,0.47-0.013,0.784-0.019
					c0.011,0.595,0.017,0.893,0.028,1.486c-1.401,0.026-2.102,0.056-3.502,0.142c-0.037-0.594-0.054-0.892-0.091-1.484
					c0.313-0.019,0.469-0.027,0.782-0.044c-0.112-2.155-0.167-3.232-0.279-5.389c-0.333,0.017-0.5,0.026-0.833,0.048
					C-699.792-110.593-699.81-110.893-699.847-111.492z"/>
				<path fill="#E9E9EA" d="M-688.058-111.463c0,0,2.489,6.832,2.62,7.135c0.372,0.039,0.556,0.059,0.927,0.102
					c-0.069,0.597-0.104,0.895-0.172,1.489c-1.399-0.163-2.102-0.229-3.506-0.332c0.043-0.593,0.066-0.889,0.11-1.481
					c0.184,0.014,0.275,0.021,0.459,0.034c-0.125-0.311-0.229-0.621-0.369-0.943c-0.993-0.073-1.489-0.104-2.483-0.146
					c-0.157,0.358-0.234,0.539-0.388,0.897c0.184,0.007,0.277,0.011,0.461,0.02c-0.027,0.595-0.042,0.892-0.069,1.485
					c-1.215-0.056-1.824-0.072-3.04-0.083c0.005-0.601,0.009-0.9,0.015-1.5c0.373,0.003,0.56,0.007,0.933,0.015
					c0.316-0.894,3.296-6.764,3.296-6.764c0.494,0.027,0.742,0.042,1.236,0.076C-688.041-111.462-688.047-111.463-688.058-111.463z
					 M-688.439-106.994c-0.256-0.687-0.388-1.027-0.656-1.711c-0.325,0.648-0.484,0.973-0.799,1.625
					C-689.312-107.051-689.021-107.033-688.439-106.994z"/>
				<path fill="#E9E9EA" d="M-675.958-109.834c1.393,0.285,2.086,0.438,3.47,0.778c-0.143,0.583-0.214,0.874-0.357,1.456
					c-0.326-0.08-0.489-0.118-0.815-0.195c-0.634,2.689-0.95,4.035-1.584,6.725c-0.479-0.113-0.718-0.167-1.198-0.272
					c-1.113-2.396-1.722-3.589-3.045-5.944c-0.251,1.479-0.376,2.221-0.628,3.701c0.16,0.026,0.934,0.164,0.934,0.164
					c-0.107,0.59-0.161,0.886-0.268,1.476c-1.269-0.229-1.904-0.333-3.18-0.514c0.084-0.595,0.126-0.891,0.21-1.484
					c0.37,0.052,0.554,0.079,0.924,0.135c0.327-2.139,0.49-3.207,0.817-5.346c-0.394-0.06-0.589-0.09-0.983-0.146
					c0.084-0.595,0.126-0.891,0.21-1.483c1.196,0.169,1.793,0.264,2.985,0.473c1.093,2.02,1.603,3.036,2.55,5.081
					c0.253-1.172,0.379-1.758,0.633-2.931c-0.39-0.084-0.585-0.125-0.976-0.205C-676.138-108.953-676.078-109.247-675.958-109.834z"
					/>
				<path fill="#E9E9EA" d="M-664.794-106.791c0,0,0.684,7.259,0.735,7.587c0.354,0.136,0.531,0.204,0.884,0.343
					c-0.221,0.559-0.331,0.837-0.552,1.396c-1.332-0.527-2.002-0.777-3.35-1.245c0.195-0.563,0.293-0.844,0.488-1.405
					c0.176,0.061,0.264,0.092,0.44,0.154c-0.043-0.333-0.065-0.658-0.119-1.007c-0.954-0.331-1.432-0.489-2.392-0.792
					c-0.245,0.305-0.367,0.458-0.609,0.765c0.178,0.055,0.267,0.082,0.444,0.138c-0.179,0.567-0.269,0.852-0.448,1.418
					c-1.173-0.371-1.764-0.545-2.947-0.871c0.159-0.578,0.241-0.866,0.4-1.444c0.363,0.1,0.544,0.15,0.906,0.255
					c0.538-0.782,4.958-5.68,4.958-5.68c0.477,0.155,0.713,0.234,1.188,0.396C-664.778-106.786-664.783-106.788-664.794-106.791z
					 M-666.314-102.57c-0.075-0.729-0.114-1.094-0.201-1.825c-0.485,0.542-0.727,0.813-1.202,1.361
					C-667.154-102.854-666.874-102.76-666.314-102.57z"/>
			</g>
		</g>
	</g>
	<g>
		<path fill="#E9E9EA" d="M-617.515-190.965c-0.893,0-1.756,0.117-2.586,0.317c-8.77-28.624-38.908-49.725-74.753-49.725
			c-35.846,0-65.984,21.101-74.752,49.725c-0.831-0.201-1.693-0.317-2.586-0.317c-6.076,0-11,4.925-11,11c0,6.074,4.924,11,11,11
			c0.066,0,0.132-0.01,0.199-0.011c2.713,33.829,36.201,49.417,77.139,49.417s74.425-15.588,77.14-49.417
			c0.066,0.001,0.131,0.011,0.199,0.011c6.074,0,11-4.926,11-11C-606.515-186.04-611.44-190.965-617.515-190.965z"/>
		<g>
			<circle cx="-735.596" cy="-183.257" r="7.5"/>
			<circle fill="#FFFFFF" cx="-738.09" cy="-185.3" r="3.029"/>
		</g>
		<g>
			<circle cx="-655.096" cy="-183.257" r="7.5"/>
			<circle fill="#FFFFFF" cx="-657.59" cy="-185.3" r="3.03"/>
		</g>
		<path fill="none" stroke="#000000" stroke-width="3" stroke-linecap="round" stroke-miterlimit="10" d="M-694.854-188.33
			c0,0,0.812,8.268,4.312,12.573l-4.312,3.555"/>
		<path fill="none" stroke="#000000" stroke-width="3" stroke-linecap="round" stroke-miterlimit="10" d="M-707.122-165.494
			c0,5.105,3.842,12.917,12.318,12.917s12.827-6.482,12.827-12.827"/>
		<path fill="#B69FCC" d="M-643.039-228.701L-643.039-228.701L-643.039-228.701c-1.28-0.946-2.444-1.776-3.42-2.501
			c-1.853-1.379-4.369-2.847-7.429-4.276c-16.112-12.401-23.727-29.563-23.727-29.563c-3,9.667-8.751,6.667-8.751,6.667
			c-2.751-1-3.083-6-3.083-6c-0.5,3.5-4,6.5-6.666,4.167c-2.667-2.333-4-11.5-4-11.5s-1.5,18-8.334,16.833
			c-6.833-1.167-6.166-5.167-6.166-5.167c-0.968,10.89-16.194,21.368-24.47,26.295c-1.881,0.93-3.637,1.909-5.25,2.928
			c-0.002,0-0.012,0.005-0.012,0.005h0.002c-2.631,1.663-4.881,3.432-6.615,5.279c-10.324,11.001-19.127,25.778-18.646,34.889
			c0,0,2.813,3.335,2.813,7.391h5.5c0,0,0.5-26.445,16-36.445c0,0,25.348-10.674,48.515-9.841
			c23.166,0.833,50.819,8.674,50.819,8.674c19.667,12.667,17.667,37.612,17.667,37.612h5.332c0.166-4.056,2.859-7.391,2.859-7.391
			C-621.896-211.833-634.908-222.696-643.039-228.701z"/>
	</g>
</g>
<g>
	<g>
		<path fill="#E9E9EA" d="M-1116.701,165.586h2.438c5.939,0,10.8,4.859,10.8,10.8v32.733c0,5.938-4.86,10.8-10.8,10.8h-2.438
			V165.586z"/>
		<path fill="#E9E9EA" d="M-1195.609,165.586h-2.438c-5.94,0-10.8,4.859-10.8,10.8v32.733c0,5.938,4.859,10.8,10.8,10.8h2.438
			V165.586z"/>
		<path fill="#B69FCC" d="M-1114.264,165.586h-2.438h-78.908h-2.438c-5.94,0-10.8,4.859-10.8,10.8v5.699h13.237v54.5h78.908v-54.5
			h13.237v-5.699C-1103.464,170.446-1108.324,165.586-1114.264,165.586z"/>
		<polygon fill="#C4C4C3" points="-1195.609,236.585 -1195.609,253.252 -1195.609,292.919 -1166.819,292.919 -1166.819,253.252 
			-1145.491,253.252 -1145.491,292.919 -1116.701,292.919 -1116.701,253.252 -1116.701,236.585 		"/>
		<path d="M-1181.215,307.313c7.95,0,14.396-6.443,14.396-14.395h-28.79C-1195.609,300.869-1189.165,307.313-1181.215,307.313z"/>
		<path d="M-1131.097,307.313c7.95,0,14.396-6.443,14.396-14.395h-28.79C-1145.491,300.869-1139.046,307.313-1131.097,307.313z"/>
		<path fill="#C4C4C3" d="M-1181.215,278.524c-7.95,0-14.395,6.444-14.395,14.396h28.79
			C-1166.819,284.969-1173.265,278.524-1181.215,278.524z"/>
		<path fill="#C4C4C3" d="M-1131.097,278.524c-7.949,0-14.395,6.444-14.395,14.396h28.79
			C-1116.701,284.969-1123.146,278.524-1131.097,278.524z"/>
		<g>
			<g>
				<path fill="#5B5C5C" d="M-1182.311,189.811c0.005,1.075-0.325,2.529-2.472,3.266c-2.124,0.728-4.296-0.307-5.159-2.482
					c-0.926-2.339,0.151-4.52,2.486-5.319c0.799-0.272,1.463-0.326,1.833-0.274c-0.054-0.168-0.082-0.254-0.135-0.422
					c0.628-0.201,0.943-0.3,1.574-0.488c0.373,1.24,0.561,1.861,0.933,3.101c-0.609,0.184-0.914,0.278-1.521,0.474
					c-0.055-0.172-0.083-0.261-0.138-0.433c-0.177-0.552-0.979-0.922-2.068-0.549c-0.762,0.261-1.615,1.201-0.908,3.127
					c0.659,1.795,1.906,2.119,2.623,1.874c1.172-0.4,1.433-1.561,1.387-1.704C-1183.248,189.904-1182.935,189.871-1182.311,189.811z
					"/>
				<path fill="#5B5C5C" d="M-1173.015,188.443c0.104,0.575,0.157,0.86,0.261,1.437c-0.802,0.146-1.203,0.224-2.002,0.39
					c-0.327-0.074-1.007-0.379-1.226-1.376c-0.124-0.565-0.824-1.605-2.049-1.469c0.189,0.789,0.285,1.186,0.474,1.976
					c0.297-0.07,0.446-0.108,0.744-0.178c0.131,0.569,0.197,0.855,0.328,1.425c-1.323,0.305-1.982,0.471-3.295,0.828
					c-0.154-0.563-0.23-0.847-0.385-1.41c0.347-0.095,0.521-0.141,0.868-0.23c-0.53-2.023-0.797-3.032-1.327-5.057
					c-0.369,0.098-0.552,0.145-0.92,0.244c-0.153-0.56-0.229-0.841-0.382-1.399c1.506-0.412,2.262-0.601,3.781-0.945
					c2.023-0.461,2.907,0.71,3.106,1.723c0.168,0.854-0.406,1.815-0.383,1.991c0.032,0.243,1.002,1.149,1.168,1.991
					c0.056,0.284,0.361,0.227,0.361,0.227C-1173.542,188.54-1173.367,188.508-1173.015,188.443z M-1177.75,185.869
					c0.715-0.166,0.962-0.656,0.868-1.087c-0.094-0.432-0.498-0.796-1.103-0.655c-0.316,0.073-0.474,0.108-0.79,0.186
					c0.163,0.682,0.244,1.021,0.407,1.7C-1178.122,185.953-1177.998,185.927-1177.75,185.869z"/>
				<path fill="#5B5C5C" d="M-1171.792,181.497c1.458-0.226,2.188-0.321,3.651-0.487c0.065,0.576,0.099,0.865,0.164,1.441
					c-0.316,0.035-0.476,0.051-0.792,0.09c0.253,2.071,0.381,3.108,0.634,5.181c0.297-0.036,0.446-0.054,0.744-0.088
					c0.065,0.571,0.098,0.857,0.163,1.429c-1.333,0.151-1.999,0.242-3.327,0.447c-0.088-0.568-0.131-0.853-0.219-1.421
					c0.297-0.046,0.444-0.069,0.741-0.112c-0.3-2.064-0.45-3.1-0.75-5.165c-0.315,0.046-0.473,0.069-0.788,0.118
					C-1171.66,182.356-1171.704,182.07-1171.792,181.497z"/>
				<path fill="#5B5C5C" d="M-1157.104,180.409c1.024,0.009,1.536,0.021,2.561,0.059c-0.021,0.579-0.031,0.869-0.053,1.448
					c-0.378-0.015-0.567-0.021-0.945-0.031c-0.055,2.092-0.083,3.138-0.137,5.229c0.356,0.009,0.535,0.017,0.891,0.028
					c-0.021,0.579-0.031,0.867-0.053,1.446c-1.339-0.049-2.008-0.061-3.348-0.055c-0.002-0.58-0.004-0.868-0.006-1.448
					c0.233-0.001,0.349-0.001,0.582,0c0.003-1.049,0.005-1.574,0.009-2.622c-0.798,1.625-1.179,2.443-1.902,4.086
					c-0.354,0.007-0.532,0.013-0.886,0.023c0,0-1.742-2.985-2.418-4.099c0.062,1.099,0.095,1.647,0.157,2.745
					c0.237-0.014,0.355-0.02,0.592-0.031c0.029,0.579,0.042,0.867,0.071,1.446c-1.166,0.058-1.746,0.097-2.91,0.195
					c-0.049-0.577-0.075-0.864-0.124-1.442c0.36-0.03,0.54-0.046,0.9-0.072c-0.155-2.087-0.233-3.129-0.388-5.216
					c-0.382,0.028-0.574,0.044-0.956,0.076c-0.049-0.578-0.072-0.866-0.121-1.444c0.96-0.082,1.441-0.115,2.403-0.172
					c1.404,2.069,2.069,3.118,3.324,5.237C-1158.827,183.626-1158.275,182.547-1157.104,180.409z"/>
				<path fill="#5B5C5C" d="M-1145.775,187.079c-0.329,2.295-2.646,1.991-3.378,1.915c-0.73-0.077-1.564-0.441-1.824-1.045
					c-0.029,0.347-0.042,0.521-0.071,0.866c-0.582-0.048-0.873-0.068-1.455-0.106c0.086-1.333,0.129-1.999,0.216-3.332
					c0.605,0.039,0.909,0.063,1.514,0.113c-0.024,0.291-0.036,0.437-0.06,0.728c-0.048,0.578,0.65,1.216,1.537,1.307
					c0.745,0.076,1.655-0.121,1.707-0.548c0.088-0.726-0.487-0.962-1.804-1.501c-1.007-0.412-2.679-0.958-2.572-2.555
					c0.086-1.295,1.588-2.234,3.349-2.055c1.123,0.113,1.542,0.613,1.64,1.069c0.042-0.35,0.063-0.524,0.106-0.875
					c0.642,0.078,0.962,0.118,1.603,0.208c-0.153,1.094-0.229,1.642-0.381,2.734c-0.622-0.087-0.933-0.125-1.556-0.201
					c0.007-0.056,0.011-0.085,0.018-0.141c0.052-0.427-0.323-1.217-1.578-1.345c-0.477-0.049-1.131,0.185-1.171,0.623
					c-0.038,0.428,0.438,0.637,1.464,1.021C-1147.306,184.397-1145.486,185.059-1145.775,187.079z"/>
				<path fill="#5B5C5C" d="M-1135.587,187.388c-0.795,3.004-3.098,3.482-4.874,3.102c-1.901-0.408-3.645-1.896-3.159-4.824
					c0.465-2.804,2.818-3.777,4.911-3.328C-1136.754,182.756-1134.821,184.495-1135.587,187.388z M-1137.727,186.852
					c0.381-1.602-0.181-2.812-1.297-3.051c-1.265-0.271-2.257,0.607-2.565,2.225c-0.304,1.595,0.25,2.757,1.44,3.013
					C-1139.099,189.263-1138.102,188.431-1137.727,186.852z"/>
				<path fill="#5B5C5C" d="M-1127.522,185.608c1.289,0.455,1.932,0.694,3.207,1.199c-0.213,0.539-0.32,0.81-0.534,1.349
					c-0.3-0.119-0.452-0.179-0.753-0.295c-0.961,2.494-1.441,3.74-2.402,6.232c-0.443-0.171-0.665-0.254-1.109-0.418
					c-0.746-2.441-1.169-3.661-2.112-6.092c-0.439,1.384-0.658,2.075-1.097,3.459c0.149,0.047,0.869,0.281,0.869,0.281
					c-0.181,0.551-0.272,0.825-0.453,1.377c-1.181-0.39-1.774-0.571-2.965-0.915c0.161-0.558,0.241-0.837,0.401-1.395
					c0.346,0.101,0.519,0.151,0.863,0.255c0.601-2.004,0.901-3.005,1.502-5.009c-0.366-0.109-0.549-0.166-0.916-0.271
					c0.161-0.559,0.24-0.833,0.4-1.392c1.113,0.321,1.669,0.488,2.775,0.846c0.768,2.077,1.118,3.117,1.75,5.199
					c0.398-1.089,0.597-1.632,0.995-2.722c-0.361-0.132-0.543-0.198-0.905-0.326
					C-1127.812,186.427-1127.715,186.155-1127.522,185.608z"/>
			</g>
		</g>
		<g>
			<g>
				<path fill="#5B5C5C" d="M-1177.977,202.969c1.414,0.45,2.125,0.655,3.555,1.026c-0.15,0.58-0.225,0.871-0.375,1.45
					c-0.307-0.078-0.461-0.118-0.768-0.201c-0.565,2.084-0.848,3.125-1.413,5.209c0.331,0.09,0.496,0.134,0.827,0.22
					c-0.15,0.581-0.226,0.871-0.376,1.452c-1.608-0.417-2.409-0.648-3.998-1.154c0.182-0.571,0.274-0.858,0.456-1.43
					c0.395,0.126,0.592,0.187,0.988,0.307c0.244-0.804,0.365-1.206,0.608-2.01c-1.149-0.349-1.722-0.532-2.859-0.93
					c-0.277,0.793-0.415,1.188-0.691,1.979c0.392,0.137,0.589,0.204,0.982,0.335c-0.189,0.569-0.286,0.854-0.475,1.423
					c-1.584-0.527-2.37-0.813-3.93-1.432c0.221-0.558,0.332-0.835,0.552-1.394c0.321,0.128,0.48,0.188,0.804,0.313
					c0.771-2.017,1.157-3.025,1.929-5.042c-0.299-0.114-0.448-0.172-0.746-0.29c0.221-0.558,0.331-0.836,0.552-1.394
					c1.388,0.55,2.087,0.804,3.496,1.272c-0.189,0.569-0.284,0.854-0.474,1.423c-0.365-0.122-0.547-0.184-0.911-0.311
					c-0.237,0.68-0.354,1.021-0.593,1.7c1.114,0.389,1.674,0.568,2.8,0.909c0.209-0.688,0.313-1.031,0.522-1.721
					c-0.367-0.111-0.551-0.168-0.917-0.284C-1178.249,203.828-1178.159,203.54-1177.977,202.969z"/>
				<path fill="#5B5C5C" d="M-1167.32,205.436c0,0,2.185,6.918,2.331,7.224c0.402,0.041,0.602,0.061,1.004,0.096
					c-0.053,0.598-0.079,0.896-0.131,1.495c-1.577-0.14-2.363-0.229-3.933-0.45c0.083-0.589,0.122-0.884,0.205-1.473
					c0.198,0.026,0.298,0.041,0.496,0.066c-0.121-0.317-0.213-0.632-0.341-0.966c-1.045-0.146-1.567-0.229-2.608-0.415
					c-0.211,0.333-0.318,0.498-0.532,0.83c0.197,0.036,0.295,0.055,0.492,0.089c-0.103,0.586-0.154,0.88-0.256,1.466
					c-1.353-0.236-2.026-0.37-3.37-0.669c0.13-0.585,0.196-0.878,0.326-1.463c0.396,0.088,0.595,0.131,0.992,0.214
					c0.501-0.814,4.236-6.215,4.236-6.215c0.445,0.073,0.668,0.106,1.114,0.172C-1167.305,205.436-1167.311,205.437-1167.32,205.436
					z M-1168.05,209.86c-0.207-0.705-0.307-1.057-0.5-1.763c-0.382,0.614-0.576,0.919-0.971,1.528
					C-1168.933,209.726-1168.639,209.773-1168.05,209.86z"/>
				<path fill="#5B5C5C" d="M-1155.019,206.099c1.221-0.045,1.831-0.08,3.049-0.18c0.049,0.603,0.073,0.901,0.123,1.505
					c-0.314,0.025-0.471,0.038-0.785,0.061c-0.149,0.012-0.14,0.142-0.14,0.142c-0.755,2.768-1.18,4.147-2.119,6.894
					c-0.555,0.02-0.832,0.026-1.386,0.035c-0.649-1.736-0.956-2.607-1.533-4.355c-0.655,1.742-1.003,2.608-1.736,4.337
					c-0.483-0.014-0.725-0.022-1.208-0.043c-0.847-2.684-1.228-4.03-1.906-6.731c0.013-0.168-0.126-0.31-0.288-0.322
					c-0.313-0.024-0.471-0.038-0.785-0.065c0.055-0.603,0.081-0.905,0.136-1.507c1.466,0.133,2.2,0.181,3.67,0.233
					c-0.022,0.604-0.033,0.907-0.055,1.511c-0.25-0.009-0.373-0.014-0.623-0.024c0.32,1.215,0.487,1.82,0.84,3.032
					c0.714-1.782,1.05-2.678,1.682-4.476c0.425,0.004,0.638,0.003,1.063,0c0.627,1.8,0.961,2.696,1.671,4.48
					c0.355-1.211,0.525-1.817,0.848-3.032c-0.185,0.008-0.277,0.011-0.461,0.018
					C-1154.985,207.004-1154.997,206.702-1155.019,206.099z"/>
				<path fill="#5B5C5C" d="M-1140.375,211.073c0.333-0.078,0.499-0.119,0.831-0.201c0.143,0.577,0.215,0.865,0.358,1.442
					c-1.611,0.399-2.421,0.578-4.047,0.89c-0.111-0.584-0.168-0.879-0.28-1.463c-1.127-0.825-1.675-1.247-2.741-2.113
					c0.16,1.01,0.24,1.516,0.399,2.524c0.336-0.053,0.503-0.083,0.839-0.14c0.1,0.587,0.149,0.881,0.249,1.468
					c-1.561,0.266-2.343,0.377-3.911,0.561c-0.069-0.591-0.103-0.89-0.172-1.479c0.337-0.039,0.506-0.059,0.843-0.102
					c-0.275-2.151-0.414-3.226-0.689-5.375c-0.313,0.04-0.469,0.06-0.782,0.096c-0.069-0.591-0.104-0.889-0.172-1.479
					c1.395-0.162,2.09-0.263,3.478-0.497c0.1,0.587,0.15,0.879,0.25,1.466c-0.312,0.053-0.468,0.079-0.78,0.128
					c0.084,0.535,0.126,0.803,0.211,1.338c0.842-0.856,1.25-1.291,2.039-2.172c-0.08-0.415-0.12-0.621-0.2-1.036
					c1.205-0.233,1.805-0.364,3.001-0.652c0.139,0.578,0.209,0.868,0.349,1.446c-0.372,0.09-0.558,0.135-0.931,0.219
					c-0.221,0.051-0.331,0.224-0.662,0.623c-0.242,0.292-1.033,1.28-1.585,1.835c1.238,0.989,1.878,1.473,3.196,2.405
					C-1141.02,210.99-1140.705,211.15-1140.375,211.073z"/>
				<path fill="#5B5C5C" d="M-1130.393,206.985c0.883,2.23-1.731,3.217-2.561,3.499c-0.83,0.283-1.901,0.309-2.419-0.159
					c0.106,0.344,0.16,0.515,0.266,0.857c-0.664,0.204-0.997,0.303-1.664,0.491c-0.376-1.329-0.565-1.993-0.941-3.322
					c0.637-0.181,0.953-0.273,1.586-0.47c0.089,0.289,0.135,0.435,0.224,0.724c0.176,0.573,1.173,0.895,2.143,0.568
					c0.814-0.273,1.659-0.909,1.507-1.327c-0.259-0.71-0.947-0.624-2.489-0.557c-1.179,0.051-3.053,0.147-3.508-1.443
					c-0.369-1.291,0.667-2.688,2.286-3.233c1.032-0.347,1.615-0.08,1.913,0.297c-0.125-0.344-0.188-0.514-0.313-0.855
					c0.587-0.214,0.88-0.325,1.464-0.553c0.416,1.063,0.623,1.596,1.038,2.659c-0.608,0.236-0.913,0.353-1.525,0.574
					c-0.02-0.055-0.03-0.08-0.05-0.135c-0.152-0.417-0.848-0.955-2.047-0.553c-0.456,0.153-0.966,0.63-0.828,1.063
					c0.134,0.424,0.667,0.442,1.809,0.35C-1133.204,205.354-1131.17,205.021-1130.393,206.985z"/>
			</g>
		</g>
	</g>
	<g>
		<path fill="#E9E9EA" d="M-1079.13,100.754c-0.893,0-1.755,0.117-2.586,0.317c-8.77-28.624-38.907-49.726-74.753-49.726
			c-35.845,0-65.983,21.102-74.753,49.726c-0.83-0.2-1.693-0.317-2.586-0.317c-6.074,0-11,4.924-11,11c0,6.074,4.926,11,11,11
			c0.068,0,0.133-0.01,0.199-0.011c2.715,33.827,36.201,49.416,77.14,49.416c40.938,0,74.426-15.589,77.14-49.416
			c0.067,0.001,0.132,0.011,0.199,0.011c6.075,0,11-4.926,11-11C-1068.13,105.678-1073.055,100.754-1079.13,100.754z"/>
		<g>
			<circle cx="-1197.211" cy="108.461" r="7.5"/>
			<circle fill="#FFFFFF" cx="-1199.705" cy="106.418" r="3.03"/>
		</g>
		<g>
			<circle cx="-1116.711" cy="108.461" r="7.5"/>
			<circle fill="#FFFFFF" cx="-1119.205" cy="106.418" r="3.03"/>
		</g>
		<path fill="none" stroke="#000000" stroke-width="3" stroke-linecap="round" stroke-miterlimit="10" d="M-1156.469,103.389
			c0,0,0.812,8.269,4.312,12.572l-4.312,3.555"/>
		<path fill="none" stroke="#000000" stroke-width="3" stroke-linecap="round" stroke-miterlimit="10" d="M-1168.737,126.225
			c0,5.105,3.842,12.916,12.318,12.916c8.476,0,12.827-6.48,12.827-12.826"/>
		<path fill="#604E75" d="M-1156.165,27.748c-11.729,23.599-36.259,25.295-44.533,30.223c-1.883,0.93-3.639,1.908-5.252,2.928
			l-0.01,0.005h0.002c-2.632,1.663-4.881,3.432-6.616,5.279c-10.324,11.001-19.127,25.778-18.646,34.891
			c0,0,2.813,3.334,2.813,7.389h5.5c0,0,0.5-26.445,16-36.445c0,0,25.348-10.674,48.514-9.84
			c23.167,0.833,50.819,8.674,50.819,8.674c19.667,12.667,17.667,37.611,17.667,37.611h5.333c0.166-4.055,2.858-7.389,2.858-7.389
			c-1.796-21.188-14.808-32.052-22.938-38.056h0.001c-0.001,0-0.001,0-0.001,0c-1.28-0.945-2.444-1.774-3.42-2.502
			c-1.853-1.379-4.369-2.846-7.428-4.274C-1146.727,48.915-1156.165,27.748-1156.165,27.748z"/>
	</g>
</g>
<g>
	<g>
		<path fill="#E9E9EA" d="M-664.67,168.091h2.438c5.94,0,10.8,4.86,10.8,10.8v32.733c0,5.938-4.859,10.8-10.8,10.8h-2.438V168.091z"
			/>
		<path fill="#E9E9EA" d="M-743.577,168.091h-2.438c-5.94,0-10.801,4.86-10.801,10.8v32.733c0,5.938,4.86,10.8,10.801,10.8h2.438
			V168.091z"/>
		<path fill="#333333" d="M-662.232,168.091h-2.438h-78.907h-2.438c-5.94,0-10.801,4.86-10.801,10.8v5.699h13.238v54.5h78.907v-54.5
			h13.237v-5.699C-651.433,172.951-656.292,168.091-662.232,168.091z"/>
		<polygon fill="#B69FCC" points="-743.577,239.09 -743.577,255.757 -743.577,295.424 -714.788,295.424 -714.788,255.757 
			-693.46,255.757 -693.46,295.424 -664.67,295.424 -664.67,255.757 -664.67,239.09 		"/>
		<path d="M-729.183,309.819c7.949,0,14.395-6.444,14.395-14.396h-28.789C-743.577,303.374-737.133,309.819-729.183,309.819z"/>
		<path d="M-679.065,309.819c7.951,0,14.396-6.444,14.396-14.396h-28.79C-693.46,303.374-687.015,309.819-679.065,309.819z"/>
		<path fill="#B69FCC" d="M-729.183,281.029c-7.95,0-14.395,6.444-14.395,14.396h28.789
			C-714.788,287.474-721.233,281.029-729.183,281.029z"/>
		<path fill="#B69FCC" d="M-679.065,281.029c-7.949,0-14.395,6.444-14.395,14.396h28.79
			C-664.67,287.474-671.114,281.029-679.065,281.029z"/>
		<g>
			<g>
				<path fill="#B69FCC" d="M-727.845,186.606c1.531-0.451,2.301-0.656,3.847-1.033c0.162,0.664,0.244,0.994,0.406,1.659
					c-0.458,0.111-0.689,0.171-1.146,0.289c-0.075,1.264-1.269,7.851-1.242,8.559c-0.533,0.164-0.797,0.249-1.328,0.423
					c-0.389-0.593-5.555-5.69-5.988-6.258c-0.439,0.167-0.66,0.253-1.097,0.426c-0.252-0.637-0.378-0.954-0.63-1.591
					c1.645-0.651,2.473-0.953,4.142-1.516c0.218,0.648,0.327,0.974,0.545,1.621c-0.148,0.05-0.222,0.074-0.37,0.125
					c0.648,0.689,3.132,3.494,3.132,3.494c0.152-0.039,0.69-3.63,0.782-4.724c-0.228,0.064-0.341,0.097-0.569,0.164
					C-727.555,187.589-727.652,187.263-727.845,186.606z"/>
				<path fill="#B69FCC" d="M-709.347,189.01c-0.112,1.588-0.161,2.383-0.25,3.971c-3.276,0.242-4.914,0.452-8.155,1.058
					c-0.125-0.673-0.188-1.006-0.313-1.68c0.355-0.065,0.532-0.1,0.888-0.16c-0.424-2.434-0.634-3.649-1.058-6.082
					c-0.384,0.066-0.576,0.103-0.96,0.174c-0.125-0.673-0.189-1.009-0.314-1.683c3.424-0.639,5.151-0.867,8.609-1.147
					c0.5,1.267,0.744,1.899,1.214,3.174c-0.761,0.053-1.141,0.084-1.901,0.154c-0.244-0.665-0.526-1.513-1.677-1.384
					c-1,0.112-1.501,0.178-2.499,0.319c0.117,0.818,0.176,1.229,0.293,2.046c0.525-0.075,0.788-0.108,1.314-0.176
					c-0.035-0.276-0.053-0.417-0.088-0.693c0.753-0.095,1.13-0.138,1.885-0.215c0.126,1.23,0.19,1.848,0.316,3.077
					c-0.726,0.074-1.089,0.118-1.813,0.209c-0.034-0.271-0.052-0.408-0.086-0.68c-0.515,0.063-0.773,0.099-1.287,0.172
					c0.136,0.948,0.204,1.422,0.339,2.37c1.138-0.163,1.709-0.232,2.85-0.353c0.525-0.055,0.765-1.288,0.864-2.328
					C-710.445,189.088-710.08,189.059-709.347,189.01z"/>
				<path fill="#B69FCC" d="M-696.436,191.459c-0.069,0.687-0.104,1.027-0.173,1.715c-0.966-0.099-1.45-0.141-2.417-0.207
					c-0.351-0.188-1.035-0.748-0.97-1.95c0.037-0.684-0.443-2.094-1.909-2.313c-0.027,0.958-0.04,1.438-0.067,2.396
					c0.365,0.011,0.547,0.018,0.912,0.031c-0.027,0.688-0.042,1.033-0.069,1.723c-1.61-0.064-2.415-0.077-4.025-0.055
					c-0.01-0.689-0.014-1.033-0.024-1.723c0.428-0.007,0.64-0.009,1.068-0.009c0-2.469,0.002-3.702,0.003-6.172
					c-0.462,0-0.693-0.001-1.155,0.006c-0.009-0.685-0.015-1.025-0.024-1.711c1.901-0.025,2.852-0.011,4.751,0.07
					c2.531,0.108,3.187,1.736,3.086,2.95c-0.085,1.021-1.068,1.938-1.098,2.14c-0.041,0.281,0.788,1.623,0.705,2.634
					c-0.028,0.342,0.341,0.372,0.341,0.372C-697.075,191.395-696.861,191.416-696.436,191.459z M-701.09,187.018
					c0.886,0.033,1.334-0.441,1.363-0.962c0.028-0.519-0.328-1.063-1.083-1.095c-0.395-0.017-0.592-0.022-0.986-0.033
					c-0.023,0.826-0.035,1.24-0.059,2.066C-701.549,187.003-701.397,187.006-701.09,187.018z"/>
				<path fill="#B69FCC" d="M-682.509,190.997c-0.751,2.646-3.406,3.998-5.968,3.445c-1.638-0.353-2.461-0.508-4.112-0.767
					c0.106-0.682,0.16-1.02,0.267-1.701c0.339,0.053,0.509,0.081,0.848,0.138c0.407-2.419,0.61-3.628,1.019-6.047
					c-0.366-0.062-0.549-0.09-0.916-0.146c0.108-0.688,0.162-1.031,0.27-1.718c1.865,0.293,2.795,0.465,4.645,0.862
					C-683.347,185.734-681.757,188.351-682.509,190.997z M-689.167,192.537c0.292,0.059,0.439,0.089,0.731,0.149
					c2.09,0.44,3.183-0.839,3.555-2.325c0.376-1.5-0.246-3.239-2.292-3.672c-0.315-0.065-0.473-0.098-0.789-0.161
					C-688.444,188.934-688.686,190.132-689.167,192.537z"/>
				<path fill="#B69FCC" d="M-677.543,187.546c1.735,0.579,2.596,0.895,4.305,1.571c-0.252,0.637-0.378,0.953-0.63,1.591
					c-0.368-0.146-0.552-0.217-0.921-0.357c-0.879,2.301-1.319,3.451-2.198,5.752c0.341,0.131,0.512,0.195,0.852,0.33
					c-0.25,0.631-0.375,0.949-0.625,1.58c-1.514-0.6-2.277-0.878-3.814-1.392c0.215-0.645,0.323-0.968,0.538-1.61
					c0.345,0.115,0.516,0.174,0.86,0.293c0.808-2.327,1.213-3.49,2.022-5.817c-0.372-0.129-0.557-0.19-0.93-0.315
					C-677.868,188.521-677.76,188.195-677.543,187.546z"/>
			</g>
		</g>
	</g>
	<g>
		<path fill="#E9E9EA" d="M-627.089,102.459c-0.893,0-1.756,0.117-2.586,0.317c-8.77-28.624-38.908-49.725-74.753-49.725
			c-35.845,0-65.983,21.101-74.753,49.725c-0.83-0.2-1.693-0.317-2.586-0.317c-6.074,0-11,4.925-11,11c0,6.074,4.926,11,11,11
			c0.068,0,0.133-0.009,0.199-0.01c2.715,33.827,36.201,49.416,77.14,49.416c40.938,0,74.425-15.589,77.14-49.416
			c0.066,0.001,0.131,0.01,0.199,0.01c6.074,0,11-4.926,11-11C-616.089,107.384-621.015,102.459-627.089,102.459z"/>
		<path fill="none" stroke="#000000" stroke-width="3" stroke-linecap="round" stroke-miterlimit="10" d="M-704.428,105.094
			c0,0,0.812,8.269,4.312,12.573l-4.312,3.555"/>
		<g>
			<path fill="#FFFFFF" d="M-691.855,140.937c0,6.347-4.351,12.827-12.827,12.827S-717,145.952-717,140.847
				c2.218,2.538,6.267,4.654,12.506,4.654C-698.49,145.501-694.301,143.26-691.855,140.937z"/>
			<path fill="none" stroke="#000000" stroke-width="3" stroke-linecap="round" stroke-miterlimit="10" d="M-717.001,140.847
				c2.218,2.538,6.267,4.654,12.506,4.654c6.005,0,10.194-2.241,12.64-4.564"/>
			<path fill="none" stroke="#000000" stroke-width="3" stroke-linecap="round" stroke-miterlimit="10" d="M-717.001,140.847
				c0,5.105,3.842,12.917,12.318,12.917s12.827-6.48,12.827-12.827"/>
		</g>
		<path fill="#E9E9EA" d="M-627.288,124.448c0.066,0.001,0.131,0.011,0.199,0.011c6.074,0,11-4.926,11-11c0-6.076-4.926-11-11-11
			c-0.893,0-1.756,0.117-2.586,0.317l-5.525,12.45L-627.288,124.448z"/>
		<path fill="#E9E9EA" d="M-781.566,124.448c-0.066,0.001-0.131,0.011-0.199,0.011c-6.074,0-11-4.926-11-11c0-6.076,4.926-11,11-11
			c0.893,0,1.756,0.117,2.586,0.317l5.525,12.45L-781.566,124.448z"/>
		<circle fill="#C4C4C3" cx="-750.295" cy="136.825" r="9.595"/>
		<circle fill="#C4C4C3" cx="-658.051" cy="136.825" r="9.595"/>
		<path fill="#604E75" d="M-781.866,70.454c-22.223,21.148-24.334,70.333-6,91.667c18.334,21.333,2.333,36.333-8,38
			c-10.333,1.666-19.334-9.334-19.334-9.334c0.396,3.442,1.352,6.445,2.728,9.067c-2.298-1.246-4.663-2.778-5.65-4.242
			c0,0,4.06,8.139,10.563,10.582c1.052,0.96,2.184,1.832,3.389,2.613c-4.779,3.224-11.028,3.232-11.028,3.232
			c21.871,4.819,29.543,3.684,32.228,2.422c0.044,0.001,0.088,0.002,0.131,0.003c-6.029,5.187-15.043,5.575-15.043,5.575
			c15.602-0.252,24.275-3.078,29.048-5.824c-3.5,4.729-7.381,7.491-7.381,7.491c6.907-1.829,11.89-7.023,15.076-11.569
			c0.249-0.113,0.495-0.229,0.737-0.348c-1.121,7.073-2.813,8.917-2.813,8.917c7.493-7.067,11.745-14.213,14.116-19.518
			c1.328-2.516,2.225-5.242,2.737-8.047c0.056-0.271,0.08-0.419,0.08-0.419s-0.004,0.002-0.005,0.002
			c2.012-11.918-2.79-25.031-10.526-28.589c-11.635-5.352-33.218-30.908-22.365-59.361c9.969-26.136,31.093-24.86,41.511-29.655
			c10.137-4.667,17.804-17.667,17.804-17.667C-733.533,40.787-759.027,48.719-781.866,70.454z"/>
		<path fill="#604E75" d="M-662.581,197.264c-0.075,12.131,5.55,21.568,17.363,32.11c0,0-1.79-4.335,3.293-7.784
			c0.05,0.024,0.098,0.05,0.147,0.074c2.565,4.864,9.68,11.211,29.393,10.377c0,0-5.979-0.936-10.979-5.67
			c5.229,1.792,15.366,3.506,31.979-0.363c0,0-9.593,0.265-8.694-6.748c13.529-8.509,9.918-19.139,9.918-19.139s-4,8.999-16,8.999
			s-31.332-16.667-16.666-52.333s12.495-75.284-14.373-98c-17.742-15-44.627-27-74.627-17.334c0,0-24.965,11-16.982,23.334
			s22.943-1.666,44.315,0c12.527,0.977,45.949,10.862,55.192,37.989c8.352,24.511-6.813,49.142-15.473,54.742
			C-651.664,161.978-662.531,185.145-662.581,197.264z"/>
		<path fill="none" stroke="#000000" stroke-width="3" stroke-linecap="round" stroke-miterlimit="10" d="M-757.301,103.701
			c0,2.074,1.561,5.25,5.006,5.25c3.445,0,5.214-2.636,5.214-5.214"/>
		<path fill="none" stroke="#000000" stroke-width="3" stroke-linecap="round" stroke-miterlimit="10" d="M-752.191,98.911
			c0,2.074,1.561,5.25,5.006,5.25c1.54,0,2.744-0.526,3.605-1.338"/>
		<path fill="none" stroke="#000000" stroke-width="3" stroke-linecap="round" stroke-miterlimit="10" d="M-652.275,98.911
			c0,2.074-1.561,5.25-5.006,5.25c-1.539,0-2.744-0.526-3.604-1.338"/>
		<path fill="none" stroke="#000000" stroke-width="3" stroke-linecap="round" stroke-miterlimit="10" d="M-657.463,103.701
			c0,2.074,1.561,5.25,5.006,5.25s5.214-2.636,5.214-5.214"/>
		<g>
			<circle cx="-742.581" cy="106.426" r="7.5"/>
			<circle fill="#FFFFFF" cx="-745.075" cy="104.383" r="3.03"/>
		</g>
		<g>
			<circle cx="-662.081" cy="106.426" r="7.5"/>
			<circle fill="#FFFFFF" cx="-664.575" cy="104.383" r="3.03"/>
		</g>
	</g>
</g>
<g>
	<path fill="#E9E9EA" d="M-150.588,140.695h2.438c5.939,0,10.799,4.86,10.799,10.801v32.732c0,5.939-4.859,10.8-10.799,10.8h-2.438
		V140.695z"/>
	<polygon fill="#E9E9EA" points="-229.497,211.694 -229.497,228.361 -229.497,268.029 -200.708,268.029 -200.708,228.361 
		-179.379,228.361 -179.379,268.029 -150.588,268.029 -150.588,228.361 -150.588,211.694 	"/>
	<path d="M-215.102,282.424c7.949,0,14.395-6.445,14.395-14.396h-28.79C-229.497,275.979-223.051,282.424-215.102,282.424z"/>
	<path d="M-164.985,282.424c7.951,0,14.396-6.445,14.396-14.396h-28.791C-179.379,275.979-172.934,282.424-164.985,282.424z"/>
	<path fill="#E9E9EA" d="M-215.102,253.635c-7.949,0-14.395,6.443-14.395,14.395h28.789
		C-200.708,260.078-207.153,253.635-215.102,253.635z"/>
	<path fill="#E9E9EA" d="M-164.985,253.635c-7.949,0-14.395,6.443-14.395,14.395h28.791
		C-150.588,260.078-157.034,253.635-164.985,253.635z"/>
	<path fill="#604E75" d="M-139.834,241.199c-12.25-24-10.668-48.25-10.668-48.25l-0.086,0.104v-35.858v-16.499h-78.909v16.499
		v41.911c-0.334,8.719-2.179,25.462-10.668,42.095h10.668h78.908v-0.211l0.086,0.211L-139.834,241.199L-139.834,241.199z"/>
	<g>
		<path fill="#E9E9EA" d="M-113.008,73.063c-0.893,0-1.756,0.118-2.586,0.318c-8.77-28.624-38.909-49.725-74.752-49.725
			c-35.846,0-65.984,21.101-74.754,49.725c-0.83-0.201-1.693-0.318-2.586-0.318c-6.074,0-11,4.926-11,11c0,6.075,4.926,11,11,11
			c0.068,0,0.133-0.009,0.199-0.01c2.715,33.829,36.201,49.417,77.141,49.417c40.938,0,74.424-15.588,77.139-49.417
			c0.066,0.001,0.131,0.01,0.199,0.01c6.074,0,11-4.925,11-11S-106.934,73.063-113.008,73.063z"/>
		<path fill="none" stroke="#000000" stroke-width="3" stroke-linecap="round" stroke-miterlimit="10" d="M-245.809,78.047
			c0,2.075,1.561,5.25,5.006,5.25c3.445,0,5.215-2.635,5.215-5.213"/>
		<path fill="none" stroke="#000000" stroke-width="3" stroke-linecap="round" stroke-miterlimit="10" d="M-240.699,73.257
			c0,2.075,1.561,5.25,5.006,5.25c1.54,0,2.744-0.526,3.605-1.338"/>
		<path fill="none" stroke="#000000" stroke-width="3" stroke-linecap="round" stroke-miterlimit="10" d="M-140.784,73.257
			c0,2.075-1.561,5.25-5.006,5.25c-1.539,0-2.744-0.526-3.605-1.338"/>
		<path fill="none" stroke="#000000" stroke-width="3" stroke-linecap="round" stroke-miterlimit="10" d="M-145.971,78.047
			c0,2.075,1.561,5.25,5.006,5.25c3.445,0,5.215-2.635,5.215-5.213"/>
		<g>
			<circle cx="-231.088" cy="80.771" r="7.5"/>
			<circle fill="#FFFFFF" cx="-233.583" cy="78.729" r="3.03"/>
		</g>
		<g>
			<circle cx="-150.588" cy="80.771" r="7.5"/>
			<circle fill="#FFFFFF" cx="-153.083" cy="78.729" r="3.03"/>
		</g>
		<path fill="none" stroke="#000000" stroke-width="3" stroke-linecap="round" stroke-miterlimit="10" d="M-190.346,75.699
			c0,0,0.811,8.268,4.311,12.572l-4.311,3.556"/>
		<path fill="none" stroke="#000000" stroke-width="3" stroke-linecap="round" stroke-miterlimit="10" d="M-202.616,98.534
			c0,5.105,3.842,12.917,12.318,12.917s12.828-6.482,12.828-12.827"/>
		<path fill="#604E75" d="M-197.747,12.058c0,0-24.965,11-16.982,23.333s22.943-1.667,44.316,0
			c12.527,0.978,45.949,10.863,55.192,37.99c8.352,24.51-6.813,49.14-15.473,54.742c-8.66,5.604-22.547,31.751-16.387,45.647
			c6.162,13.897,28.668,28.953,52.334,20.286s18.666-23.333,18.666-23.333s-4,8.999-16,8.999s-31.333-16.667-16.666-52.333
			c14.666-35.667,12.496-75.284-14.374-98C-140.862,14.392-167.747,2.391-197.747,12.058z"/>
		<path fill="#E9E9EA" d="M-113.207,95.053c0.066,0.001,0.131,0.01,0.199,0.01c6.074,0,11-4.925,11-11c0-6.074-4.926-11-11-11
			c-0.893,0-1.756,0.118-2.586,0.318l-5.526,12.451L-113.207,95.053z"/>
		<path fill="#604E75" d="M-205.786,26.059c0,0-7.666,13-17.803,17.667c-10.417,4.795-31.542,3.521-41.511,29.656
			c-10.852,28.453,10.73,54.01,22.365,59.361c11.635,5.35,16.652,32.314,1.801,44.314s-56.852,13.334-60.186-15.666
			c0,0,9.002,11,19.334,9.334c10.334-1.667,26.334-16.667,8-38c-18.334-21.334-16.223-70.518,6-91.667
			C-244.946,19.324-219.452,11.392-205.786,26.059z"/>
		<path fill="#E9E9EA" d="M-267.485,95.053c-0.066,0.001-0.131,0.01-0.199,0.01c-6.074,0-11-4.925-11-11c0-6.074,4.926-11,11-11
			c0.893,0,1.756,0.118,2.586,0.318l5.525,12.451L-267.485,95.053z"/>
		<circle fill="#C4C4C3" cx="-236.214" cy="107.43" r="9.595"/>
		<circle fill="#C4C4C3" cx="-143.97" cy="107.43" r="9.595"/>
	</g>
	<path fill="#E9E9EA" d="M-220.546,152.796l0.009,0.002l0.032-0.125l0.423-1.611l0.032-0.125l-0.009-0.002
		c1-4.197-0.834-8.306-6.522-9.795l-35.536-9.304c-5.688-1.489-9.301,1.192-10.485,5.342l-0.009-0.002l-0.032,0.125l-0.422,1.611
		l-0.033,0.125l0.009,0.002c-1,4.196,0.834,8.306,6.522,9.795l35.536,9.304C-225.343,159.627-221.731,156.944-220.546,152.796z"/>
	<g>
		
			<rect x="-296.085" y="118.716" transform="matrix(-0.9841 -0.1774 0.1774 -0.9841 -575.9451 237.9338)" fill="#B69FCC" width="37.499" height="51.998"/>
		<g enable-background="new    ">
			<path fill="#604E75" d="M-284.63,127.684c0.072,0.221-0.091,0.416-0.331,0.373l-0.883-0.159
				c-0.078-0.014-0.141-0.065-0.159-0.141l-0.525-1.703c-0.012-0.025-0.031-0.046-0.056-0.05l-0.31-0.056
				c-0.14-0.025-0.258,0.058-0.283,0.197l-0.221,1.225c-0.025,0.14-0.144,0.222-0.284,0.197l-0.868-0.156
				c-0.139-0.025-0.222-0.145-0.197-0.284l0.891-4.944c0.025-0.139,0.145-0.222,0.284-0.197l1.697,0.306
				c1.38,0.249,1.831,0.938,1.602,2.209c-0.13,0.721-0.398,1.192-0.862,1.413c-0.035,0.018-0.05,0.055-0.042,0.097L-284.63,127.684z
				 M-286.463,123.562c-0.14-0.025-0.258,0.058-0.284,0.197l-0.103,0.573c-0.025,0.139,0.057,0.258,0.197,0.283l0.396,0.071
				c0.371,0.067,0.566,0.054,0.653-0.426c0.086-0.48-0.092-0.561-0.463-0.627L-286.463,123.562z"/>
			<path fill="#604E75" d="M-279.73,123.399c0.155,0.028,0.218,0.12,0.191,0.274l-0.157,0.868c-0.027,0.147-0.119,0.219-0.274,0.19
				l-1.875-0.338c-0.147-0.026-0.247,0.035-0.274,0.19l-0.044,0.248c-0.026,0.147,0.043,0.248,0.19,0.274l1.201,0.217
				c0.154,0.028,0.218,0.12,0.19,0.274l-0.156,0.868c-0.027,0.147-0.12,0.218-0.274,0.19l-1.201-0.217
				c-0.147-0.026-0.246,0.036-0.274,0.191l-0.045,0.248c-0.026,0.147,0.043,0.248,0.191,0.274l1.875,0.338
				c0.155,0.028,0.218,0.12,0.19,0.274l-0.157,0.868c-0.028,0.155-0.119,0.219-0.274,0.19l-3.254-0.586
				c-0.147-0.026-0.218-0.127-0.192-0.274l0.895-4.959c0.027-0.155,0.127-0.217,0.275-0.19L-279.73,123.399z"/>
			<path fill="#604E75" d="M-276.698,125.93c-0.16,0.003-0.226-0.08-0.221-0.24c0.002-0.328-0.217-0.575-0.581-0.641
				c-0.302-0.054-0.519,0.09-0.521,0.274c0,0.624,2.451,1.05,2.129,2.832c-0.042,0.232-0.553,1.557-2.39,1.226
				c-1.627-0.293-1.782-1.425-1.712-2.037c0.017-0.141,0.103-0.213,0.247-0.219l0.911-0.036c0.16-0.003,0.233,0.082,0.219,0.247
				c-0.037,0.378,0.211,0.646,0.575,0.712c0.38,0.068,0.701-0.105,0.69-0.324c-0.028-0.685-2.387-0.958-2.066-2.74
				c0.034-0.233,0.421-1.581,2.156-1.268c1.597,0.288,1.782,1.394,1.728,1.959c-0.018,0.141-0.103,0.214-0.248,0.22L-276.698,125.93
				z"/>
			<path fill="#604E75" d="M-273.571,124.51c0.155,0.028,0.217,0.12,0.19,0.274l-0.548,3.038c-0.107,0.597-0.133,0.968,0.439,1.071
				c0.574,0.104,0.678-0.254,0.786-0.851l0.548-3.038c0.027-0.155,0.127-0.217,0.274-0.19l0.868,0.156
				c0.154,0.028,0.218,0.12,0.191,0.274l-0.622,3.448c-0.092,0.512-0.448,1.863-2.285,1.532c-1.835-0.331-1.697-1.722-1.605-2.233
				l0.622-3.448c0.027-0.155,0.126-0.217,0.275-0.19L-273.571,124.51z"/>
			<path fill="#604E75" d="M-268.216,125.475c0.14,0.025,0.203,0.117,0.21,0.254l0.144,2.354c0,0.08,0.063,0.091,0.093,0.017
				l0.957-2.156c0.055-0.126,0.145-0.19,0.286-0.165l1.604,0.289c0.155,0.028,0.218,0.119,0.191,0.274l-0.895,4.959
				c-0.026,0.147-0.119,0.219-0.274,0.19l-0.867-0.156c-0.148-0.026-0.217-0.126-0.191-0.274l0.551-3.053
				c0.01-0.054-0.06-0.075-0.085-0.023l-1.309,2.956c-0.054,0.126-0.152,0.181-0.291,0.155l-0.512-0.092
				c-0.14-0.025-0.212-0.11-0.22-0.248l-0.194-3.227c-0.007-0.058-0.077-0.063-0.087-0.008l-0.551,3.053
				c-0.026,0.147-0.12,0.218-0.274,0.19l-0.868-0.156c-0.154-0.028-0.217-0.127-0.191-0.274l0.895-4.959
				c0.027-0.155,0.12-0.218,0.274-0.19L-268.216,125.475z"/>
			<path fill="#604E75" d="M-260.431,126.878c0.155,0.028,0.219,0.12,0.192,0.274l-0.157,0.868c-0.027,0.147-0.12,0.219-0.275,0.19
				l-1.875-0.338c-0.146-0.026-0.247,0.035-0.274,0.19l-0.044,0.248c-0.026,0.147,0.044,0.248,0.19,0.274l1.201,0.217
				c0.155,0.028,0.219,0.119,0.191,0.274l-0.156,0.867c-0.027,0.147-0.12,0.219-0.275,0.191l-1.201-0.217
				c-0.146-0.026-0.246,0.036-0.274,0.191l-0.045,0.248c-0.026,0.147,0.044,0.248,0.191,0.274l1.875,0.338
				c0.155,0.028,0.219,0.12,0.191,0.274l-0.157,0.868c-0.028,0.155-0.12,0.218-0.275,0.19l-3.254-0.586
				c-0.146-0.026-0.217-0.127-0.191-0.274l0.895-4.959c0.027-0.155,0.127-0.217,0.274-0.19L-260.431,126.878z"/>
		</g>
	</g>
	<path fill="#E9E9EA" d="M-190.347,165.128c9.075,0,16.433-15.357,16.433-24.434h-32.866
		C-206.78,149.771-199.422,165.128-190.347,165.128z"/>
</g>
<g>
	<g>
		<path fill="#E9E9EA" d="M52.797,174.373v-27.171h-2.438c-5.94,0-10.8,4.859-10.8,10.8v16.203L52.797,174.373z"/>
		<path fill="#E9E9EA" d="M131.705,174.373v-27.171h2.438c5.94,0,10.8,4.859,10.8,10.8v16.203L131.705,174.373z"/>
		<path fill="#B69FCC" d="M134.142,140.579h-2.438H52.797h-2.438c-5.94,0-10.8,4.859-10.8,10.8v5.699h13.236v54.5h78.908v-54.5
			h13.237v-5.699C144.942,145.439,140.082,140.579,134.142,140.579z"/>
		<polygon fill="#333333" points="52.797,211.578 52.797,228.244 52.797,267.912 81.586,267.912 81.586,228.244 102.914,228.244 
			102.914,267.912 131.705,267.912 131.705,228.244 131.705,211.578 		"/>
		<path d="M67.191,282.307c7.95,0,14.396-6.445,14.396-14.395H52.797C52.797,275.861,59.242,282.307,67.191,282.307z"/>
		<path d="M117.31,282.307c7.95,0,14.396-6.445,14.396-14.395h-28.789C102.914,275.861,109.36,282.307,117.31,282.307z"/>
		<path fill="#333333" d="M67.191,253.518c-7.949,0-14.395,6.443-14.395,14.396h28.789
			C81.586,259.961,75.142,253.518,67.191,253.518z"/>
		<path fill="#333333" d="M117.31,253.518c-7.949,0-14.396,6.443-14.396,14.396h28.789
			C131.705,259.961,125.26,253.518,117.31,253.518z"/>
		<path fill="#E9E9EA" d="M133.297,169.721l4.066,3.876l7.578,0.608c0,0-0.179,2.722-2.063,4.647l-10.557,10.82
			c-4.15,4.248-11.022,4.326-15.271,0.174l-1.743-1.704L133.297,169.721z"/>
		<g>
			<rect x="70.192" y="162.787" fill="#604E75" width="58.78" height="37.01"/>
			<polygon fill="#3A314C" points="128.973,162.787 70.192,162.787 57.131,151.177 115.91,151.177 			"/>
			<polygon fill="#4A3D5E" points="70.192,199.797 57.131,188.187 57.131,151.177 70.192,162.787 			"/>
			<polygon points="65.293,158.434 124.074,158.434 121.418,156.074 62.639,156.074 			"/>
			<polygon fill="#74678A" points="70.192,162.787 57.131,151.177 84.344,147.402 97.406,159.067 			"/>
			<polygon fill="#74678A" points="102.484,159.306 89.422,147.695 115.91,151.177 128.973,162.842 			"/>
			<g>
				<g>
					<path d="M76.316,176.033c0.322,2.958,1.152,5.816,1.641,8.745c0.105,0.644,1.354,0.606,1.25-0.022
						c-0.487-2.928-1.318-5.79-1.641-8.746C77.496,175.361,76.246,175.393,76.316,176.033L76.316,176.033z"/>
				</g>
			</g>
			<g>
				<g>
					<path d="M77.096,176.569c2.191-0.054,4.289-0.763,6.377-1.365c-0.047,0.014-0.572-0.995-0.854-0.914
						c-2.088,0.604-4.187,1.313-6.377,1.367C76.391,175.652,76.742,176.578,77.096,176.569L77.096,176.569z"/>
				</g>
			</g>
			<g>
				<g>
					<path d="M77.062,180.486c1.319-0.006,2.624-0.1,3.917-0.363c0.053-0.012-0.341-1.147-0.604-1.095
						c-1.295,0.265-2.6,0.358-3.918,0.364C76.481,179.393,76.742,180.488,77.062,180.486L77.062,180.486z"/>
				</g>
			</g>
			<g>
				<g>
					<path d="M84.797,175.471c0.092,2.373,0.197,4.744,0.455,7.106c0.041,0.375,1.187,0.579,1.235,0.19
						c0.236-1.85,0.105-3.7,0.091-5.558c-0.002-0.412-1.238-0.533-1.234-0.191c0.016,1.857,0.145,3.708-0.092,5.559
						c0.412,0.063,0.824,0.128,1.235,0.19c-0.26-2.361-0.364-4.732-0.456-7.105C86.016,175.246,84.785,175.139,84.797,175.471
						L84.797,175.471z"/>
				</g>
			</g>
			<g>
				<g>
					<path d="M85.479,176.039c0.725-0.121,3.713-1.316,4.168-0.447c0.527,1.012-0.511,2.094-1.288,2.542
						c-0.862,0.496-1.948,0.644-2.917,0.786c-0.645,0.096-0.095,1.215,0.493,1.128c2.208-0.325,5.812-1.524,4.698-4.544
						c-0.868-2.354-3.963-0.873-5.646-0.593C84.34,175.02,84.893,176.137,85.479,176.039L85.479,176.039z"/>
				</g>
			</g>
			<g>
				<g>
					<path d="M85.266,179.469c1.904,0.852,3.855,1.629,5.615,2.766c0.342,0.222,1.508-0.014,0.91-0.397
						c-1.834-1.187-3.875-1.995-5.863-2.883C85.496,178.76,84.518,179.135,85.266,179.469L85.266,179.469z"/>
				</g>
			</g>
			<g>
				<g>
					<path d="M86.902,178.975c-0.223,2.265,2.764,2.784,4.358,3.336c0.256,0.088,0.633,0.148,0.817-0.115
						c0.168-0.237-0.07-0.538-0.302-0.617c-1.069-0.37-3.813-0.748-3.659-2.313C88.176,178.678,86.957,178.411,86.902,178.975
						L86.902,178.975z"/>
				</g>
			</g>
			<g>
				<g>
					<path d="M95.096,173.221c0.529,2.973-0.207,6.051-0.809,8.957c-0.072,0.346,1.143,0.206,1.207-0.103
						c0.608-2.947,1.367-6.071,0.83-9.083C96.269,172.678,95.039,172.902,95.096,173.221L95.096,173.221z"/>
				</g>
			</g>
			<g>
				<g>
					<path d="M95.139,173.17c1.234,2.7,2.193,5.515,3.461,8.2c0.199,0.423,1.412,0.623,1.145,0.055
						c-1.268-2.688-2.229-5.501-3.463-8.2C96.088,172.799,94.875,172.596,95.139,173.17L95.139,173.17z"/>
				</g>
			</g>
			<g>
				<g>
					<path d="M95.393,179.369c0.932,0,1.846-0.033,2.748-0.286c0.52-0.146-0.209-1.149-0.672-1.021
						c-0.835,0.234-1.672,0.26-2.533,0.261C94.301,178.324,94.934,179.369,95.393,179.369L95.393,179.369z"/>
				</g>
			</g>
			<g>
				<g>
					<path d="M103.523,171.986c-1.788-0.344-4.005-0.452-4.611,1.655c-0.733,2.559,1.433,4.998,3.168,6.522
						c1.807,1.586,3.645,0.963,4.016-1.384c0.302-1.911-1.21-2.672-2.839-2.22c-0.386,0.106,0.122,1.234,0.579,1.107
						c0.158-0.044,1.431-0.448,1.478,0.107c0.066,0.781-0.344,1.735-1.03,2.108c-1.414,0.771-3.394-1.813-4.035-2.724
						c-0.832-1.181-0.982-3.167,0.41-3.957c0.936-0.531,2.287-0.263,3.274-0.072C104.346,173.213,103.951,172.068,103.523,171.986
						L103.523,171.986z"/>
				</g>
			</g>
			<g>
				<g>
					<path d="M107.142,170.966c0.062,2.842,0.868,5.569,1.185,8.382c0.053,0.465,1.248,0.787,1.189,0.272
						c-0.316-2.813-1.123-5.54-1.186-8.383C108.32,170.775,107.131,170.43,107.142,170.966L107.142,170.966z"/>
				</g>
			</g>
			<g>
				<g>
					<path d="M111.029,170.579c-0.005,1.679-0.044,3.355-0.037,5.035c0.002,0.82-0.244,2.48,0.398,3.177
						c1.018,1.1,2.659-0.086,3.818-0.301c0.807-0.148,0.336-1.059-0.367-0.929c-0.483,0.089-0.939,0.227-1.398,0.4
						c-0.917,0.35-1.09,0.404-1.164-0.689c-0.154-2.234-0.008-4.503,0-6.741C112.281,169.885,111.031,169.928,111.029,170.579
						L111.029,170.579z"/>
				</g>
			</g>
			<g>
				<g>
					<path d="M120.324,168.24c-1.183,0.282-2.568,0.477-3.361,1.481c-0.877,1.111-0.209,2.769,0.142,3.938
						c0.349,1.16,0.442,3.314,1.703,3.968c1.378,0.711,2.647,0.091,3.996-0.43c0.694-0.271,0.043-1.332-0.613-1.078
						c-0.917,0.354-2.407,1.276-3.146,0.137c-0.502-0.776-0.575-1.916-0.813-2.795c-0.271-1.008-0.909-2.199-0.135-3.184
						c0.478-0.604,1.853-0.701,2.563-0.871C121.414,169.228,121.012,168.076,120.324,168.24L120.324,168.24z"/>
				</g>
			</g>
			<g>
				<g>
					<path d="M118.408,174.661c0.764-0.271,1.569-0.385,2.34-0.628c0.104-0.033-0.311-0.269-0.345-0.287
						c-0.138-0.076-0.542-0.347-0.714-0.291c-0.791,0.251-1.615,0.371-2.398,0.646c-0.016,0.005,0.484,0.335,0.521,0.354
						C117.947,174.523,118.248,174.717,118.408,174.661L118.408,174.661z"/>
				</g>
			</g>
			<g>
				<g>
					<path d="M79.279,189.858c5.692-3.167,12.334-3.646,18.613-4.947c8.045-1.667,16.389-0.283,24.3-1.978
						c-0.17,0.037-0.687-0.779-1.032-0.705c-7.365,1.576-15.19,0.213-22.67,1.642c-6.691,1.278-14.201,1.923-20.242,5.283
						C78.3,189.124,79.033,189.996,79.279,189.858L79.279,189.858z"/>
				</g>
			</g>
		</g>
		<path fill="#E9E9EA" d="M51.205,169.721l-4.066,3.876l-7.578,0.608c0,0,0.18,2.722,2.063,4.647l10.557,10.82
			c4.15,4.248,11.023,4.326,15.271,0.174l1.742-1.704L51.205,169.721z"/>
	</g>
	<g>
		<path fill="#E9E9EA" d="M169.285,73.198c-0.893,0-1.754,0.117-2.586,0.317c-8.769-28.624-38.906-49.725-74.752-49.725
			S25.963,44.891,17.195,73.515c-0.83-0.201-1.693-0.317-2.587-0.317c-6.075,0-11,4.925-11,11c0,6.074,4.925,11,11,11
			c0.067,0,0.134-0.01,0.199-0.011c2.714,33.829,36.201,49.417,77.14,49.417c40.938,0,74.426-15.588,77.139-49.417
			c0.068,0.001,0.133,0.011,0.199,0.011c6.076,0,11-4.926,11-11C180.285,78.122,175.36,73.198,169.285,73.198z"/>
		<g>
			<circle cx="51.205" cy="80.906" r="7.5"/>
			<circle fill="#FFFFFF" cx="48.711" cy="78.862" r="3.03"/>
		</g>
		<g>
			<circle cx="131.705" cy="80.906" r="7.5"/>
			<circle fill="#FFFFFF" cx="129.211" cy="78.862" r="3.03"/>
		</g>
		<path fill="#B69FCC" d="M140.341,32.959c-7.166-5.333-24.171-11.994-44.657-12.637c-22.176-0.696-49.676,7.471-59.844,18.304
			C25.517,49.627,16.713,64.404,17.194,73.515c0,0,2.813,3.335,2.813,7.391h5.5c0,0,0.5-26.445,16-36.445
			c0,0,7.498-0.833,10.167,4.833c0,0,4.227-3.333,2.028-6.5c0,0,24.43-4.833,39.93,10.792c0,0,3.125-5.542,0.875-7.542
			c0,0,16.125,0.667,22.375,7.917c0,0,0.875-2.417,0-5c-0.444-1.313,23.625-1.875,29.75,7.25c0,0,0.667-8.583-5.792-12.917
			c19.667,12.667,17.667,37.612,17.667,37.612h5.333c0.165-4.056,2.858-7.391,2.858-7.391
			C164.621,48.991,147.508,38.293,140.341,32.959z"/>
		<path fill="none" stroke="#000000" stroke-width="3" stroke-linecap="round" stroke-miterlimit="10" d="M91.947,75.832
			c0,0,0.812,8.268,4.312,12.573l-4.312,3.555"/>
		<path fill="none" stroke="#000000" stroke-width="3" stroke-linecap="round" stroke-miterlimit="10" d="M79.678,98.667
			c0,5.105,3.843,12.917,12.318,12.917c8.477,0,12.826-6.482,12.826-12.827"/>
	</g>
</g>
</svg>
