<?xml version="1.0" encoding="utf-8"?>
<!-- Generator: Adobe Illustrator 15.0.0, SVG Export Plug-In . SVG Version: 6.00 Build 0)  -->
<!DOCTYPE svg PUBLIC "-//W3C//DTD SVG 1.1//EN" "http://www.w3.org/Graphics/SVG/1.1/DTD/svg11.dtd">
<svg version="1.1" id="Layer_1" xmlns="http://www.w3.org/2000/svg" xmlns:xlink="http://www.w3.org/1999/xlink" x="0px" y="0px"
	 width="239.589px" height="285.825px" viewBox="0 0 239.589 285.825" enable-background="new 0 0 239.589 285.825"
	 xml:space="preserve">
<g>
	<path fill="#E9E9EA" d="M14.396,446.542h2.438c5.94,0,10.8,4.86,10.8,10.8v32.733c0,5.939-4.859,10.8-10.8,10.8h-2.438V446.542z"/>
	<path fill="#E9E9EA" d="M-64.512,446.542h-2.438c-5.94,0-10.801,4.86-10.801,10.8v32.733c0,5.939,4.86,10.8,10.801,10.8h2.438
		V446.542z"/>
	<path fill="#604E75" d="M16.833,446.542h-2.438h-78.907h-2.438c-5.94,0-10.801,4.86-10.801,10.8v5.699h13.238v54.5h78.907v-54.5
		h13.237v-5.699C27.633,451.402,22.773,446.542,16.833,446.542z"/>
	<polygon fill="#333333" points="-64.512,517.541 -64.512,534.208 -64.512,573.875 -35.723,573.875 -35.723,534.208 
		-14.395,534.208 -14.395,573.875 14.396,573.875 14.396,534.208 14.396,517.541 	"/>
	<path d="M-50.117,588.27c7.949,0,14.395-6.444,14.395-14.395h-28.789C-64.512,581.825-58.067,588.27-50.117,588.27z"/>
	<path d="M0,588.27c7.951,0,14.396-6.444,14.396-14.395h-28.79C-14.395,581.825-7.949,588.27,0,588.27z"/>
	<path fill="#333333" d="M-50.117,559.48c-7.95,0-14.395,6.444-14.395,14.395h28.789C-35.723,565.925-42.168,559.48-50.117,559.48z"
		/>
	<path fill="#333333" d="M0,559.48c-7.949,0-14.395,6.444-14.395,14.395h28.79C14.396,565.925,7.951,559.48,0,559.48z"/>
	<g>
		<path fill="#E9E9EA" d="M51.977,383.16c-0.893,0-1.756,0.117-2.586,0.318c-8.77-28.624-38.908-49.725-74.753-49.725
			s-65.983,21.101-74.753,49.725c-0.83-0.201-1.693-0.318-2.586-0.318c-6.074,0-11,4.925-11,11c0,6.074,4.926,11,11,11
			c0.068,0,0.133-0.009,0.199-0.01c2.715,33.828,36.201,49.416,77.14,49.416c40.938,0,74.425-15.588,77.14-49.416
			c0.066,0.001,0.131,0.01,0.199,0.01c6.074,0,11-4.926,11-11C62.977,388.085,58.051,383.16,51.977,383.16z"/>
		<g>
			<circle cx="-66.104" cy="390.868" r="7.5"/>
			<circle fill="#FFFFFF" cx="-68.599" cy="388.825" r="3.03"/>
		</g>
		<g>
			<circle cx="14.396" cy="390.868" r="7.5"/>
			<circle fill="#FFFFFF" cx="11.901" cy="388.825" r="3.03"/>
		</g>
		<path fill="#B69FCC" d="M23.032,342.923c-7.167-5.333-24.171-11.994-44.657-12.637c-22.176-0.696-49.676,7.471-59.843,18.304
			c-10.324,11.001-19.127,25.778-18.647,34.889c0,0,2.814,3.335,2.814,7.39h5.5c0,0,0.5-26.445,16-36.445
			c0,0,7.499-0.833,10.166,4.833c0,0,4.227-3.333,2.03-6.5c0,0,24.429-4.833,39.929,10.792c0,0,3.125-5.542,0.875-7.542
			c0,0,16.125,0.667,22.375,7.917c0,0,0.875-2.417,0-5c-0.445-1.313,23.625-1.875,29.75,7.25c0,0,0.666-8.583-5.792-12.917
			c19.667,12.667,17.667,37.612,17.667,37.612h5.332c0.166-4.055,2.859-7.39,2.859-7.39
			C47.313,358.954,30.199,348.256,23.032,342.923z"/>
		<path fill="none" stroke="#000000" stroke-width="3" stroke-linecap="round" stroke-miterlimit="10" d="M-25.362,385.795
			c0,0,0.812,8.269,4.312,12.573l-4.312,3.555"/>
		<path fill="none" stroke="#000000" stroke-width="3" stroke-linecap="round" stroke-miterlimit="10" d="M-12.486,421.548
			c0-5.105-3.842-12.917-12.318-12.917s-12.826,6.481-12.826,12.827"/>
	</g>
</g>
<g>
	<g>
		<path fill="#E9E9EA" d="M-1467.133,492.574h2.438c5.94,0,10.8,4.86,10.8,10.8v32.733c0,5.939-4.859,10.8-10.8,10.8h-2.438V492.574
			z"/>
		<path fill="#E9E9EA" d="M-1546.04,492.574h-2.438c-5.94,0-10.801,4.86-10.801,10.8v32.733c0,5.939,4.86,10.8,10.801,10.8h2.438
			V492.574z"/>
		<path fill="#604E75" d="M-1464.695,492.574h-2.438h-78.907h-2.438c-5.94,0-10.801,4.86-10.801,10.8v5.699h13.238v54.5h78.907
			v-54.5h13.237v-5.699C-1453.896,497.435-1458.755,492.574-1464.695,492.574z"/>
		<polygon fill="#5B5C5C" points="-1546.04,563.573 -1546.04,580.24 -1546.04,619.907 -1517.251,619.907 -1517.251,580.24 
			-1495.923,580.24 -1495.923,619.907 -1467.133,619.907 -1467.133,580.24 -1467.133,563.573 		"/>
		<path d="M-1531.646,634.302c7.949,0,14.395-6.444,14.395-14.395h-28.789C-1546.04,627.857-1539.596,634.302-1531.646,634.302z"/>
		<path d="M-1481.528,634.302c7.951,0,14.396-6.444,14.396-14.395h-28.79C-1495.923,627.857-1489.478,634.302-1481.528,634.302z"/>
		<path fill="#5B5C5C" d="M-1531.646,605.513c-7.95,0-14.395,6.444-14.395,14.395h28.789
			C-1517.251,611.957-1523.696,605.513-1531.646,605.513z"/>
		<path fill="#5B5C5C" d="M-1481.528,605.513c-7.949,0-14.395,6.444-14.395,14.395h28.79
			C-1467.133,611.957-1473.577,605.513-1481.528,605.513z"/>
		<g>
			<g>
				<path fill="#B69FCC" d="M-1525.543,511.436c0.692-0.213,1.112-0.066,1.253,0.42c1.805,6.228,2.708,9.34,4.512,15.567
					c0.134,0.462-0.043,0.804-0.547,0.959c-1.107,0.341-1.656,0.526-2.746,0.937c-0.471,0.178-0.845,0.029-1.022-0.418
					c-2.387-6.029-3.579-9.044-5.967-15.073c-0.187-0.472,0.093-0.854,0.74-1.098
					C-1527.821,512.165-1527.065,511.904-1525.543,511.436z"/>
				<path fill="#B69FCC" d="M-1516.204,509.3c0.71-0.108,1.1,0.097,1.168,0.599c0.533,3.936,0.798,5.904,1.332,9.84
					c0.262,1.934,0.559,3.051,2.638,2.861s2.166-1.344,2.073-3.293c-0.188-3.967-0.281-5.953-0.469-9.92
					c-0.024-0.506,0.357-0.776,1.037-0.798c1.604-0.05,2.407-0.05,4.011,0c0.715,0.022,1.061,0.294,1.037,0.8
					c-0.214,4.504-0.321,6.756-0.534,11.26c-0.079,1.67-0.667,5.734-6.759,6.289c-6.091,0.555-7.427-3.329-7.808-4.957
					c-1.027-4.39-1.541-6.585-2.567-10.975c-0.115-0.493,0.212-0.833,0.881-0.978
					C-1518.588,509.688-1517.795,509.542-1516.204,509.3z"/>
				<path fill="#B69FCC" d="M-1491.129,510.382c6.239,1.512,7.921,4.529,6.392,8.392s-4.182,4.655-9.253,3.426
					c-0.547-0.133-0.822-0.194-1.372-0.313c-0.543-0.116-0.909,0.073-1.006,0.57c-0.313,1.591-0.469,2.384-0.782,3.975
					c-0.098,0.497-0.402,0.694-0.917,0.602c-1.153-0.207-1.732-0.294-2.892-0.429c-0.492-0.058-0.751-0.36-0.703-0.84
					c0.641-6.443,0.961-9.663,1.604-16.106c0.05-0.504,0.432-0.724,1.148-0.666
					C-1495.777,509.356-1494.213,509.635-1491.129,510.382z M-1492.779,518.012c1.479,0.363,2.251,0.443,2.687-1.065
					s-0.297-1.895-1.865-2.28c-0.706-0.174-1.061-0.256-1.771-0.408c-0.624-0.134-1.035,0.048-1.133,0.545
					c-0.148,0.756-0.223,1.131-0.371,1.887c-0.093,0.473,0.195,0.813,0.783,0.938
					C-1493.78,517.771-1493.445,517.848-1492.779,518.012z"/>
			</g>
		</g>
	</g>
	<g>
		<path fill="#E9E9EA" d="M-1429.552,427.942c-0.893,0-1.756,0.118-2.586,0.318c-8.77-28.624-38.908-49.726-74.753-49.726
			s-65.983,21.102-74.753,49.726c-0.83-0.2-1.693-0.318-2.586-0.318c-6.074,0-11,4.925-11,11s4.926,11,11,11
			c0.068,0,0.133-0.009,0.199-0.011c2.715,33.829,36.201,49.417,77.14,49.417c40.938,0,74.425-15.588,77.14-49.417
			c0.066,0.002,0.131,0.011,0.199,0.011c6.074,0,11-4.925,11-11S-1423.478,427.942-1429.552,427.942z"/>
		<path fill="none" stroke="#000000" stroke-width="3" stroke-linecap="round" stroke-miterlimit="10" d="M-1506.891,430.578
			c0,0,0.812,8.268,4.312,12.572l-4.312,3.555"/>
		<path fill="none" stroke="#000000" stroke-width="3" stroke-linecap="round" stroke-miterlimit="10" d="M-1519.159,453.413
			c0,5.106,3.842,12.917,12.318,12.917s12.827-6.482,12.827-12.827"/>
		<path fill="#604E75" d="M-1556.222,507.651c4.591-11.506-4.857-20.418-10.387-24.648c-8.191-6.268-23.824-30.232-15.473-54.742
			c9.243-27.128,42.665-37.013,55.192-37.99c21.372-1.667,36.333,12.333,44.315,0s-16.982-23.333-16.982-23.333
			c-30-9.668-56.885,2.333-74.627,17.333c-26.868,22.716-31.902,63.65-14.373,98c5.55,10.875,8.467,16.334-1.2,21.167
			c0,0-5.5,3.833-7.5,0.667c0,0-0.167,4.333,7,5c0,0-1.333,3.05-4.333,2.107c0,0,3.812,1.742,6.771,0.434
			c0,0-0.375,1.813-2.75,1.875C-1593.154,513.589-1562.954,524.524-1556.222,507.651z"/>
		<path fill="#604E75" d="M-1456.368,510.938c-10.229-10.833-3.265-19.167,1.801-23.315c9.908-8.114,33.218-30.908,22.365-59.361
			c-9.969-26.136-31.093-24.86-41.511-29.657c-10.137-4.666-17.804-17.666-17.804-17.666c13.667-14.666,39.161-6.734,62,15
			c22.223,21.148,20.735,67.705,6,91.667c-5.739,9.333-2.333,15.333,8,17c0,0,5.095,1.76,7.095-0.537s-1.333,4.37-5.5,4.37
			s-1.499,1.499,2.167,1.833c0,0-2.927,1.5-6.797,1.334c0,0-1.037,0.666,0.963,1.5
			C-1417.589,513.104-1447.153,520.696-1456.368,510.938z"/>
		<path fill="#E9E9EA" d="M-1429.751,449.932c0.066,0.002,0.131,0.01,0.199,0.01c6.074,0,11-4.925,11-11c0-6.074-4.926-11-11-11
			c-0.893,0-1.756,0.118-2.586,0.318l-5.525,12.451L-1429.751,449.932z"/>
		<path fill="#E9E9EA" d="M-1584.029,449.932c-0.066,0.002-0.131,0.01-0.199,0.01c-6.074,0-11-4.925-11-11c0-6.074,4.926-11,11-11
			c0.893,0,1.756,0.118,2.586,0.318l5.525,12.451L-1584.029,449.932z"/>
		<circle fill="#C4C4C3" cx="-1552.758" cy="462.309" r="9.595"/>
		<circle fill="#C4C4C3" cx="-1460.514" cy="462.309" r="9.595"/>
		<path fill="none" stroke="#000000" stroke-width="3" stroke-linecap="round" stroke-miterlimit="10" d="M-1559.764,431.364
			c0,2.075,1.561,5.25,5.006,5.25s5.214-2.635,5.214-5.213"/>
		<path fill="none" stroke="#000000" stroke-width="3" stroke-linecap="round" stroke-miterlimit="10" d="M-1554.654,426.574
			c0,2.075,1.561,5.25,5.006,5.25c1.54,0,2.744-0.526,3.605-1.338"/>
		<path fill="none" stroke="#000000" stroke-width="3" stroke-linecap="round" stroke-miterlimit="10" d="M-1454.738,426.574
			c0,2.075-1.561,5.25-5.006,5.25c-1.539,0-2.744-0.526-3.605-1.338"/>
		<path fill="none" stroke="#000000" stroke-width="3" stroke-linecap="round" stroke-miterlimit="10" d="M-1459.926,431.364
			c0,2.075,1.561,5.25,5.006,5.25s5.214-2.635,5.214-5.213"/>
		<g>
			<circle cx="-1545.044" cy="434.089" r="7.5"/>
			<circle fill="#FFFFFF" cx="-1547.538" cy="432.046" r="3.03"/>
		</g>
		<g>
			<circle cx="-1464.544" cy="434.089" r="7.5"/>
			<circle fill="#FFFFFF" cx="-1467.038" cy="432.046" r="3.03"/>
		</g>
	</g>
</g>
<g>
	<g>
		<path fill="#E9E9EA" d="M-904.255,250.325h2.438c5.94,0,10.801,4.86,10.801,10.8v32.733c0,5.939-4.86,10.8-10.801,10.8h-2.438
			V250.325z"/>
		<path fill="#E9E9EA" d="M-983.162,250.325h-2.438c-5.939,0-10.8,4.86-10.8,10.8v32.733c0,5.939,4.86,10.8,10.8,10.8h2.438V250.325
			z"/>
		<path fill="#5B5C5C" d="M-901.817,250.325h-2.438h-78.907h-2.438c-5.939,0-10.8,4.86-10.8,10.8v5.699h13.237v54.5h78.907v-54.5
			h13.238v-5.699C-891.017,255.186-895.877,250.325-901.817,250.325z"/>
		<polygon fill="#604E75" points="-983.162,321.324 -983.162,337.991 -983.162,377.658 -954.372,377.658 -954.372,337.991 
			-933.044,337.991 -933.044,377.658 -904.255,377.658 -904.255,337.991 -904.255,321.324 		"/>
		<path d="M-968.768,392.053c7.95,0,14.396-6.444,14.396-14.395h-28.79C-983.162,385.608-976.717,392.053-968.768,392.053z"/>
		<path d="M-918.649,392.053c7.95,0,14.395-6.444,14.395-14.395h-28.789C-933.044,385.608-926.599,392.053-918.649,392.053z"/>
		<path fill="#604E75" d="M-968.768,363.264c-7.949,0-14.395,6.444-14.395,14.395h28.79
			C-954.372,369.708-960.817,363.264-968.768,363.264z"/>
		<path fill="#604E75" d="M-918.649,363.264c-7.949,0-14.395,6.444-14.395,14.395h28.789
			C-904.255,369.708-910.699,363.264-918.649,363.264z"/>
		<g>
			<g>
				<path fill="#E9E9EA" d="M-977.048,272.407c1.461-0.578,2.197-0.851,3.676-1.364c0.197,0.567,0.295,0.851,0.492,1.418
					c-0.319,0.111-0.479,0.167-0.797,0.28c0.727,2.033,1.088,3.048,1.815,5.081c0.299-0.107,0.45-0.16,0.75-0.264
					c0.195,0.562,0.292,0.843,0.487,1.405c-1.343,0.466-2.011,0.713-3.338,1.239c-0.219-0.553-0.329-0.83-0.548-1.383
					c0.296-0.118,0.446-0.175,0.743-0.29c-0.776-2.015-1.162-3.021-1.938-5.036c-0.316,0.122-0.476,0.183-0.792,0.308
					C-976.717,273.244-976.827,272.965-977.048,272.407z"/>
				<path fill="#E9E9EA" d="M-965.395,268.651c1.383-0.343,2.078-0.5,3.471-0.789c0.122,0.587,0.182,0.88,0.304,1.468
					c-0.328,0.068-0.493,0.103-0.82,0.173c0.584,2.701,0.877,4.051,1.461,6.752c-0.48,0.104-0.72,0.157-1.199,0.268
					c-2.036-1.685-3.1-2.496-5.317-4.051c0.41,1.444,0.613,2.167,1.023,3.611c0.157-0.044,0.918-0.256,0.918-0.256
					c0.157,0.579,0.236,0.869,0.394,1.447c-1.25,0.339-1.873,0.521-3.113,0.911c-0.18-0.572-0.271-0.858-0.45-1.43
					c0.36-0.113,0.541-0.169,0.902-0.278c-0.625-2.071-0.936-3.105-1.561-5.177c-0.384,0.116-0.577,0.173-0.96,0.293
					c-0.18-0.572-0.27-0.857-0.449-1.429c1.163-0.365,1.747-0.539,2.918-0.864c1.862,1.35,2.763,2.05,4.499,3.488
					c-0.275-1.167-0.414-1.75-0.689-2.918c-0.389,0.092-0.583,0.139-0.971,0.235C-965.178,269.524-965.25,269.233-965.395,268.651z"
					/>
				<path fill="#E9E9EA" d="M-950.57,270.462c0.198,2.403-1.544,4.328-3.814,4.63c-1.451,0.193-2.176,0.308-3.619,0.565
					c-0.106-0.595-0.158-0.894-0.264-1.489c0.295-0.053,0.442-0.078,0.738-0.128c-0.359-2.119-0.539-3.178-0.897-5.298
					c-0.314,0.053-0.47,0.08-0.784,0.136c-0.107-0.6-0.161-0.899-0.268-1.499c1.59-0.284,2.388-0.408,3.986-0.621
					C-952.807,266.401-950.768,268.06-950.57,270.462z M-955.51,273.724c0.257-0.037,0.386-0.055,0.643-0.09
					c1.84-0.251,2.342-1.638,2.2-2.974c-0.144-1.347-1.153-2.593-2.926-2.351c-0.273,0.037-0.411,0.057-0.684,0.096
					C-955.97,270.533-955.817,271.596-955.51,273.724z"/>
				<path fill="#E9E9EA" d="M-949.015,266.166c1.541-0.094,2.313-0.126,3.856-0.155c0.011,0.6,0.018,0.9,0.029,1.5
					c-0.333,0.006-0.5,0.01-0.833,0.02c0.061,2.158,0.091,3.236,0.152,5.394c0.313-0.009,0.469-0.013,0.783-0.019
					c0.011,0.595,0.018,0.893,0.029,1.487c-1.401,0.026-2.103,0.055-3.502,0.141c-0.037-0.594-0.055-0.891-0.092-1.484
					c0.313-0.019,0.471-0.029,0.784-0.045c-0.112-2.155-0.167-3.233-0.279-5.389c-0.333,0.017-0.501,0.027-0.834,0.048
					C-948.959,267.064-948.978,266.765-949.015,266.166z"/>
				<path fill="#E9E9EA" d="M-937.226,266.194c0,0,2.488,6.833,2.619,7.136c0.372,0.039,0.556,0.059,0.927,0.102
					c-0.069,0.596-0.103,0.894-0.172,1.49c-1.399-0.163-2.102-0.229-3.506-0.332c0.043-0.593,0.067-0.89,0.11-1.483
					c0.184,0.014,0.276,0.021,0.459,0.035c-0.125-0.311-0.23-0.621-0.37-0.944c-0.993-0.073-1.488-0.103-2.482-0.146
					c-0.157,0.358-0.235,0.539-0.389,0.897c0.184,0.007,0.275,0.011,0.459,0.02c-0.027,0.594-0.04,0.892-0.067,1.486
					c-1.215-0.056-1.824-0.072-3.04-0.083c0.005-0.6,0.009-0.9,0.015-1.5c0.373,0.003,0.559,0.005,0.932,0.013
					c0.316-0.894,3.297-6.763,3.297-6.763c0.494,0.027,0.742,0.041,1.236,0.075C-937.209,266.194-937.215,266.194-937.226,266.194z
					 M-937.607,270.664c-0.256-0.686-0.389-1.027-0.657-1.711c-0.325,0.649-0.485,0.973-0.8,1.625
					C-938.481,270.607-938.189,270.625-937.607,270.664z"/>
				<path fill="#E9E9EA" d="M-925.126,267.823c1.393,0.285,2.087,0.44,3.471,0.78c-0.143,0.583-0.214,0.874-0.357,1.456
					c-0.326-0.08-0.489-0.119-0.815-0.196c-0.634,2.69-0.95,4.035-1.584,6.725c-0.479-0.113-0.718-0.167-1.198-0.273
					c-1.113-2.396-1.722-3.587-3.045-5.943c-0.251,1.48-0.377,2.221-0.629,3.701c0.16,0.027,0.934,0.163,0.934,0.163
					c-0.107,0.59-0.161,0.885-0.268,1.475c-1.269-0.23-1.904-0.333-3.18-0.513c0.084-0.594,0.126-0.89,0.21-1.484
					c0.37,0.052,0.554,0.08,0.924,0.136c0.327-2.139,0.49-3.209,0.817-5.348c-0.394-0.06-0.589-0.088-0.983-0.144
					c0.084-0.594,0.126-0.891,0.21-1.484c1.196,0.169,1.793,0.264,2.985,0.473c1.093,2.019,1.603,3.038,2.55,5.083
					c0.253-1.172,0.379-1.759,0.633-2.931c-0.39-0.084-0.586-0.126-0.977-0.206C-925.307,268.705-925.246,268.411-925.126,267.823z"
					/>
				<path fill="#E9E9EA" d="M-913.962,270.868c0,0,0.684,7.259,0.734,7.587c0.354,0.136,0.532,0.204,0.885,0.343
					c-0.221,0.558-0.332,0.837-0.552,1.395c-1.332-0.527-2.002-0.776-3.35-1.244c0.195-0.562,0.293-0.844,0.488-1.406
					c0.176,0.061,0.265,0.092,0.441,0.154c-0.043-0.333-0.065-0.658-0.119-1.007c-0.954-0.331-1.432-0.49-2.392-0.792
					c-0.245,0.305-0.367,0.459-0.609,0.766c0.178,0.055,0.267,0.083,0.444,0.14c-0.179,0.567-0.269,0.851-0.448,1.418
					c-1.173-0.371-1.764-0.545-2.947-0.872c0.159-0.578,0.24-0.867,0.399-1.445c0.363,0.1,0.545,0.151,0.907,0.255
					c0.538-0.782,4.958-5.679,4.958-5.679c0.477,0.155,0.713,0.234,1.188,0.396C-913.946,270.874-913.951,270.871-913.962,270.868z
					 M-915.482,275.088c-0.075-0.729-0.114-1.094-0.201-1.825c-0.485,0.542-0.726,0.814-1.201,1.362
					C-916.322,274.805-916.042,274.898-915.482,275.088z"/>
			</g>
		</g>
	</g>
	<g>
		<path fill="#E9E9EA" d="M-866.683,186.693c-0.893,0-1.756,0.118-2.586,0.318c-8.77-28.624-38.908-49.725-74.753-49.725
			c-35.846,0-65.984,21.101-74.752,49.725c-0.831-0.201-1.693-0.318-2.586-0.318c-6.076,0-11,4.925-11,11c0,6.075,4.924,11,11,11
			c0.066,0,0.132-0.009,0.199-0.01c2.713,33.829,36.201,49.417,77.139,49.417s74.425-15.588,77.14-49.417
			c0.066,0.001,0.131,0.01,0.199,0.01c6.074,0,11-4.925,11-11C-855.683,191.618-860.608,186.693-866.683,186.693z"/>
		<g>
			<circle cx="-984.764" cy="194.401" r="7.5"/>
			<circle fill="#FFFFFF" cx="-987.258" cy="192.358" r="3.029"/>
		</g>
		<g>
			<circle cx="-904.264" cy="194.401" r="7.5"/>
			<circle fill="#FFFFFF" cx="-906.758" cy="192.358" r="3.03"/>
		</g>
		<path fill="none" stroke="#000000" stroke-width="3" stroke-linecap="round" stroke-miterlimit="10" d="M-944.021,189.329
			c0,0,0.812,8.268,4.312,12.573l-4.312,3.555"/>
		<path fill="none" stroke="#000000" stroke-width="3" stroke-linecap="round" stroke-miterlimit="10" d="M-956.29,212.164
			c0,5.106,3.842,12.917,12.318,12.917s12.827-6.482,12.827-12.827"/>
		<path fill="#B69FCC" d="M-892.207,148.958L-892.207,148.958C-892.207,148.958-892.207,148.957-892.207,148.958
			c-1.28-0.946-2.444-1.776-3.42-2.501c-1.853-1.379-4.369-2.847-7.429-4.276c-16.112-12.402-23.727-29.564-23.727-29.564
			c-3,9.667-8.751,6.667-8.751,6.667c-2.751-1-3.083-6-3.083-6c-0.5,3.5-4,6.5-6.666,4.167c-2.667-2.333-4-11.5-4-11.5
			s-1.5,18-8.334,16.833c-6.833-1.167-6.166-5.167-6.166-5.167c-0.968,10.89-16.194,21.368-24.47,26.295
			c-1.881,0.93-3.637,1.909-5.25,2.928c-0.002,0-0.012,0.005-0.012,0.005h0.002c-2.631,1.663-4.881,3.431-6.615,5.279
			c-10.324,11.001-19.127,25.778-18.646,34.889c0,0,2.813,3.335,2.813,7.39h5.5c0,0,0.5-26.445,16-36.445
			c0,0,25.348-10.674,48.515-9.841c23.166,0.833,50.819,8.674,50.819,8.674c19.667,12.667,17.667,37.612,17.667,37.612h5.332
			c0.166-4.055,2.859-7.39,2.859-7.39C-871.064,165.825-884.076,154.962-892.207,148.958z"/>
	</g>
</g>
<g>
	<g>
		<path fill="#E9E9EA" d="M-1187.378,523.882h2.438c5.939,0,10.8,4.86,10.8,10.8v32.733c0,5.939-4.86,10.8-10.8,10.8h-2.438V523.882
			z"/>
		<path fill="#E9E9EA" d="M-1266.286,523.882h-2.438c-5.94,0-10.8,4.86-10.8,10.8v32.733c0,5.939,4.859,10.8,10.8,10.8h2.438
			V523.882z"/>
		<path fill="#B69FCC" d="M-1184.94,523.882h-2.438h-78.908h-2.438c-5.94,0-10.8,4.86-10.8,10.8v5.699h13.237v54.5h78.908v-54.5
			h13.237v-5.699C-1174.141,528.742-1179.001,523.882-1184.94,523.882z"/>
		<polygon fill="#C4C4C3" points="-1266.286,594.881 -1266.286,611.548 -1266.286,651.215 -1237.496,651.215 -1237.496,611.548 
			-1216.168,611.548 -1216.168,651.215 -1187.378,651.215 -1187.378,611.548 -1187.378,594.881 		"/>
		<path d="M-1251.892,665.609c7.95,0,14.396-6.444,14.396-14.395h-28.79C-1266.286,659.165-1259.842,665.609-1251.892,665.609z"/>
		<path d="M-1201.773,665.609c7.95,0,14.396-6.444,14.396-14.395h-28.79C-1216.168,659.165-1209.723,665.609-1201.773,665.609z"/>
		<path fill="#C4C4C3" d="M-1251.892,636.82c-7.95,0-14.395,6.444-14.395,14.395h28.79
			C-1237.496,643.265-1243.941,636.82-1251.892,636.82z"/>
		<path fill="#C4C4C3" d="M-1201.773,636.82c-7.949,0-14.395,6.444-14.395,14.395h28.79
			C-1187.378,643.265-1193.823,636.82-1201.773,636.82z"/>
		<g>
			<g>
				<path fill="#5B5C5C" d="M-1252.986,548.106c0.005,1.075-0.328,2.528-2.475,3.265c-2.124,0.729-4.295-0.305-5.157-2.481
					c-0.926-2.34,0.151-4.519,2.486-5.318c0.799-0.273,1.464-0.33,1.833-0.278c-0.054-0.168-0.082-0.252-0.135-0.42
					c0.628-0.201,0.943-0.298,1.574-0.487c0.373,1.239,0.559,1.858,0.932,3.098c-0.608,0.183-0.912,0.279-1.518,0.474
					c-0.055-0.172-0.083-0.26-0.139-0.432c-0.177-0.552-0.978-0.92-2.066-0.547c-0.762,0.261-1.616,1.199-0.909,3.126
					c0.659,1.796,1.906,2.118,2.623,1.872c1.172-0.402,1.433-1.561,1.387-1.704C-1253.925,548.199-1253.61,548.167-1252.986,548.106
					z"/>
				<path fill="#5B5C5C" d="M-1243.691,546.737c0.104,0.575,0.157,0.861,0.261,1.437c-0.802,0.146-1.203,0.223-2.002,0.389
					c-0.327-0.074-1.008-0.379-1.227-1.376c-0.124-0.566-0.823-1.606-2.049-1.469c0.189,0.79,0.285,1.186,0.474,1.976
					c0.298-0.071,0.446-0.107,0.744-0.176c0.131,0.569,0.196,0.856,0.327,1.426c-1.323,0.304-1.981,0.471-3.294,0.829
					c-0.154-0.563-0.231-0.848-0.386-1.411c0.347-0.095,0.521-0.144,0.869-0.234c-0.53-2.023-0.797-3.032-1.327-5.056
					c-0.369,0.097-0.552,0.144-0.92,0.244c-0.153-0.56-0.229-0.838-0.381-1.397c1.506-0.412,2.261-0.601,3.779-0.946
					c2.024-0.461,2.909,0.709,3.108,1.722c0.168,0.854-0.407,1.818-0.384,1.994c0.032,0.242,1.002,1.147,1.168,1.989
					c0.056,0.284,0.361,0.226,0.361,0.226C-1244.218,546.835-1244.042,546.802-1243.691,546.737z M-1248.426,544.164
					c0.715-0.166,0.962-0.656,0.868-1.087s-0.498-0.796-1.104-0.656c-0.316,0.073-0.474,0.11-0.79,0.186
					c0.163,0.681,0.244,1.022,0.407,1.703C-1248.798,544.25-1248.673,544.222-1248.426,544.164z"/>
				<path fill="#5B5C5C" d="M-1242.469,539.794c1.458-0.225,2.188-0.323,3.651-0.489c0.065,0.576,0.097,0.866,0.163,1.442
					c-0.316,0.036-0.475,0.052-0.791,0.09c0.253,2.072,0.381,3.109,0.634,5.181c0.297-0.036,0.446-0.054,0.744-0.088
					c0.065,0.571,0.098,0.857,0.163,1.429c-1.333,0.151-1.999,0.241-3.327,0.446c-0.088-0.568-0.131-0.854-0.219-1.423
					c0.296-0.046,0.445-0.066,0.742-0.109c-0.3-2.065-0.451-3.1-0.751-5.165c-0.315,0.046-0.474,0.069-0.789,0.118
					C-1242.337,540.652-1242.38,540.367-1242.469,539.794z"/>
				<path fill="#5B5C5C" d="M-1227.781,538.704c1.024,0.009,1.537,0.021,2.561,0.059c-0.021,0.579-0.032,0.869-0.053,1.448
					c-0.378-0.014-0.567-0.018-0.945-0.027c-0.055,2.092-0.082,3.134-0.137,5.226c0.356,0.009,0.535,0.017,0.891,0.029
					c-0.021,0.579-0.031,0.868-0.053,1.447c-1.339-0.049-2.008-0.06-3.348-0.055c-0.002-0.579-0.004-0.869-0.006-1.449
					c0.233-0.001,0.349-0.001,0.582,0c0.003-1.049,0.004-1.574,0.008-2.622c-0.798,1.625-1.178,2.444-1.901,4.087
					c-0.354,0.007-0.533,0.013-0.888,0.023c0,0-1.739-2.986-2.416-4.098c0.062,1.098,0.092,1.646,0.154,2.744
					c0.237-0.014,0.356-0.02,0.593-0.031c0.029,0.579,0.043,0.868,0.072,1.447c-1.166,0.058-1.747,0.097-2.911,0.195
					c-0.049-0.577-0.075-0.865-0.124-1.443c0.36-0.03,0.54-0.046,0.9-0.072c-0.155-2.086-0.233-3.128-0.388-5.214
					c-0.382,0.028-0.574,0.042-0.956,0.074c-0.049-0.578-0.072-0.866-0.121-1.444c0.96-0.081,1.441-0.116,2.403-0.172
					c1.404,2.069,2.069,3.118,3.323,5.237C-1229.504,541.922-1228.952,540.842-1227.781,538.704z"/>
				<path fill="#5B5C5C" d="M-1216.452,545.373c-0.329,2.295-2.646,1.996-3.378,1.919c-0.731-0.077-1.565-0.444-1.824-1.048
					c-0.029,0.347-0.043,0.521-0.072,0.868c-0.582-0.048-0.872-0.069-1.455-0.107c0.086-1.333,0.129-2.001,0.215-3.334
					c0.605,0.039,0.909,0.063,1.514,0.113c-0.024,0.291-0.037,0.438-0.061,0.729c-0.048,0.578,0.651,1.216,1.538,1.307
					c0.745,0.076,1.655-0.121,1.707-0.548c0.088-0.726-0.486-0.962-1.803-1.501c-1.007-0.412-2.679-0.956-2.572-2.553
					c0.086-1.295,1.587-2.236,3.348-2.057c1.123,0.114,1.542,0.615,1.64,1.071c0.042-0.35,0.064-0.526,0.107-0.876
					c0.642,0.078,0.962,0.12,1.604,0.21c-0.153,1.094-0.229,1.641-0.382,2.733c-0.622-0.087-0.933-0.126-1.555-0.201
					c0.007-0.056,0.011-0.086,0.018-0.142c0.052-0.426-0.324-1.214-1.579-1.342c-0.477-0.049-1.13,0.182-1.169,0.621
					c-0.038,0.427,0.437,0.636,1.463,1.02C-1217.982,542.692-1216.162,543.353-1216.452,545.373z"/>
				<path fill="#5B5C5C" d="M-1206.264,545.684c-0.795,3.004-3.098,3.481-4.874,3.1c-1.901-0.408-3.645-1.896-3.159-4.824
					c0.465-2.803,2.818-3.776,4.911-3.326C-1207.431,541.053-1205.498,542.791-1206.264,545.684z M-1208.403,545.146
					c0.381-1.602-0.181-2.811-1.297-3.051c-1.265-0.271-2.257,0.607-2.565,2.225c-0.304,1.594,0.25,2.757,1.44,3.013
					C-1209.776,547.559-1208.779,546.726-1208.403,545.146z"/>
				<path fill="#5B5C5C" d="M-1198.198,543.903c1.289,0.455,1.931,0.696,3.206,1.201c-0.213,0.539-0.32,0.809-0.534,1.348
					c-0.301-0.119-0.452-0.178-0.753-0.294c-0.961,2.492-1.441,3.74-2.402,6.232c-0.443-0.171-0.664-0.255-1.109-0.419
					c-0.746-2.441-1.169-3.661-2.112-6.092c-0.439,1.384-0.658,2.075-1.097,3.459c0.149,0.048,0.869,0.28,0.869,0.28
					c-0.181,0.551-0.272,0.827-0.454,1.378c-1.181-0.389-1.773-0.571-2.964-0.915c0.161-0.557,0.241-0.835,0.401-1.392
					c0.346,0.1,0.519,0.148,0.863,0.252c0.601-2.004,0.901-3.006,1.502-5.01c-0.366-0.109-0.549-0.164-0.916-0.27
					c0.161-0.557,0.24-0.837,0.4-1.394c1.113,0.321,1.669,0.492,2.775,0.85c0.768,2.076,1.118,3.115,1.75,5.198
					c0.398-1.089,0.597-1.634,0.995-2.723c-0.361-0.132-0.543-0.196-0.905-0.324
					C-1198.489,544.724-1198.391,544.45-1198.198,543.903z"/>
			</g>
		</g>
		<g>
			<g>
				<path fill="#5B5C5C" d="M-1248.654,561.268c1.414,0.45,2.125,0.655,3.556,1.025c-0.15,0.58-0.224,0.871-0.375,1.451
					c-0.307-0.08-0.461-0.121-0.768-0.204c-0.565,2.084-0.848,3.125-1.413,5.209c0.331,0.09,0.496,0.132,0.827,0.218
					c-0.15,0.581-0.226,0.872-0.376,1.453c-1.608-0.417-2.409-0.646-3.998-1.151c0.182-0.571,0.274-0.858,0.456-1.43
					c0.395,0.126,0.591,0.186,0.987,0.306c0.244-0.804,0.367-1.204,0.61-2.008c-1.149-0.349-1.722-0.534-2.859-0.932
					c-0.277,0.793-0.415,1.188-0.691,1.981c0.392,0.137,0.589,0.204,0.982,0.335c-0.189,0.569-0.286,0.854-0.475,1.423
					c-1.583-0.528-2.372-0.816-3.931-1.434c0.221-0.558,0.332-0.837,0.553-1.395c0.321,0.127,0.481,0.19,0.804,0.313
					c0.771-2.017,1.157-3.025,1.929-5.042c-0.299-0.114-0.448-0.17-0.746-0.288c0.221-0.558,0.331-0.837,0.552-1.395
					c1.388,0.55,2.087,0.804,3.496,1.273c-0.189,0.569-0.285,0.854-0.475,1.424c-0.365-0.122-0.546-0.186-0.91-0.313
					c-0.237,0.68-0.355,1.02-0.593,1.699c1.114,0.389,1.673,0.572,2.799,0.913c0.209-0.688,0.313-1.034,0.522-1.723
					c-0.367-0.111-0.551-0.168-0.917-0.284C-1248.926,562.124-1248.836,561.839-1248.654,561.268z"/>
				<path fill="#5B5C5C" d="M-1237.997,563.729c0,0,2.184,6.922,2.329,7.227c0.402,0.041,0.603,0.059,1.005,0.094
					c-0.052,0.598-0.079,0.898-0.131,1.496c-1.577-0.139-2.364-0.229-3.934-0.449c0.083-0.589,0.124-0.885,0.207-1.474
					c0.198,0.028,0.297,0.04,0.495,0.066c-0.121-0.318-0.214-0.632-0.342-0.965c-1.045-0.146-1.566-0.229-2.607-0.413
					c-0.211,0.333-0.317,0.498-0.532,0.83c0.197,0.036,0.296,0.053,0.493,0.087c-0.103,0.586-0.155,0.88-0.258,1.466
					c-1.353-0.237-2.026-0.368-3.37-0.667c0.13-0.585,0.196-0.882,0.327-1.467c0.396,0.088,0.595,0.132,0.993,0.215
					c0.501-0.815,4.235-6.216,4.235-6.216c0.445,0.073,0.669,0.11,1.115,0.176C-1237.981,563.733-1237.987,563.729-1237.997,563.729
					z M-1238.727,568.156c-0.207-0.705-0.307-1.059-0.499-1.765c-0.382,0.614-0.577,0.923-0.972,1.532
					C-1239.61,568.023-1239.316,568.069-1238.727,568.156z"/>
				<path fill="#5B5C5C" d="M-1225.696,564.393c1.221-0.045,1.832-0.08,3.05-0.18c0.049,0.603,0.072,0.906,0.122,1.509
					c-0.314,0.025-0.47,0.036-0.784,0.059c-0.15,0.011-0.141,0.139-0.141,0.139c-0.755,2.768-1.179,4.148-2.118,6.894
					c-0.555,0.019-0.832,0.026-1.387,0.035c-0.648-1.736-0.956-2.607-1.532-4.356c-0.655,1.743-1.003,2.611-1.736,4.339
					c-0.483-0.013-0.725-0.022-1.208-0.043c-0.847-2.683-1.228-4.031-1.906-6.732c0.013-0.168-0.127-0.309-0.289-0.321
					c-0.314-0.025-0.471-0.038-0.785-0.066c0.055-0.602,0.083-0.903,0.137-1.505c1.466,0.133,2.201,0.179,3.67,0.232
					c-0.022,0.604-0.033,0.907-0.055,1.511c-0.25-0.009-0.375-0.014-0.624-0.025c0.32,1.216,0.488,1.82,0.841,3.032
					c0.714-1.782,1.05-2.679,1.682-4.477c0.425,0.004,0.638,0.003,1.063,0c0.627,1.8,0.961,2.698,1.671,4.482
					c0.355-1.211,0.524-1.817,0.847-3.032c-0.185,0.008-0.276,0.013-0.46,0.02C-1225.662,565.302-1225.674,564.996-1225.696,564.393
					z"/>
				<path fill="#5B5C5C" d="M-1211.052,569.369c0.333-0.078,0.499-0.121,0.831-0.203c0.143,0.577,0.215,0.87,0.358,1.447
					c-1.611,0.4-2.421,0.575-4.047,0.886c-0.112-0.584-0.167-0.879-0.278-1.463c-1.127-0.825-1.675-1.247-2.742-2.113
					c0.16,1.01,0.239,1.514,0.398,2.523c0.336-0.054,0.504-0.079,0.84-0.136c0.1,0.587,0.149,0.88,0.249,1.467
					c-1.56,0.265-2.343,0.377-3.911,0.56c-0.069-0.591-0.103-0.888-0.172-1.479c0.337-0.039,0.505-0.062,0.843-0.104
					c-0.275-2.151-0.413-3.226-0.688-5.376c-0.313,0.04-0.47,0.062-0.783,0.098c-0.069-0.591-0.103-0.887-0.171-1.478
					c1.395-0.162,2.09-0.266,3.478-0.501c0.1,0.587,0.15,0.881,0.25,1.468c-0.312,0.053-0.467,0.079-0.779,0.128
					c0.084,0.535,0.126,0.805,0.211,1.34c0.842-0.856,1.25-1.293,2.04-2.174c-0.08-0.415-0.121-0.623-0.201-1.038
					c1.205-0.233,1.806-0.362,3.001-0.65c0.139,0.578,0.209,0.87,0.349,1.448c-0.372,0.09-0.558,0.132-0.931,0.216
					c-0.22,0.05-0.331,0.225-0.662,0.625c-0.242,0.292-1.033,1.28-1.585,1.835c1.238,0.989,1.878,1.471,3.197,2.404
					C-1211.696,569.286-1211.381,569.447-1211.052,569.369z"/>
				<path fill="#5B5C5C" d="M-1201.07,565.281c0.883,2.23-1.729,3.214-2.56,3.497c-0.83,0.283-1.902,0.308-2.42-0.16
					c0.106,0.344,0.16,0.517,0.266,0.86c-0.664,0.204-0.996,0.303-1.663,0.491c-0.376-1.329-0.565-1.994-0.941-3.323
					c0.637-0.181,0.954-0.274,1.587-0.47c0.089,0.289,0.134,0.434,0.223,0.723c0.176,0.573,1.173,0.894,2.142,0.568
					c0.814-0.273,1.66-0.908,1.508-1.326c-0.259-0.71-0.949-0.624-2.491-0.558c-1.179,0.051-3.052,0.149-3.506-1.442
					c-0.369-1.291,0.668-2.688,2.286-3.231c1.032-0.347,1.615-0.082,1.913,0.295c-0.125-0.343-0.187-0.513-0.312-0.855
					c0.587-0.214,0.88-0.324,1.463-0.552c0.416,1.063,0.623,1.597,1.039,2.66c-0.608,0.237-0.913,0.351-1.525,0.573
					c-0.02-0.055-0.031-0.081-0.05-0.136c-0.152-0.417-0.848-0.956-2.046-0.554c-0.456,0.153-0.966,0.632-0.828,1.066
					c0.134,0.423,0.668,0.445,1.809,0.351C-1203.88,563.651-1201.848,563.318-1201.07,565.281z"/>
			</g>
		</g>
	</g>
	<g>
		<path fill="#E9E9EA" d="M-1149.807,459.05c-0.893,0-1.755,0.117-2.586,0.318c-8.769-28.625-38.907-49.726-74.753-49.726
			c-35.845,0-65.983,21.101-74.753,49.726c-0.83-0.201-1.693-0.318-2.586-0.318c-6.074,0-11,4.924-11,11c0,6.074,4.926,11,11,11
			c0.068,0,0.133-0.01,0.199-0.011c2.715,33.828,36.201,49.416,77.14,49.416c40.938,0,74.426-15.588,77.14-49.416
			c0.067,0.001,0.132,0.011,0.199,0.011c6.075,0,11-4.926,11-11C-1138.807,463.974-1143.731,459.05-1149.807,459.05z"/>
		<g>
			<circle cx="-1267.888" cy="466.757" r="7.5"/>
			<circle fill="#FFFFFF" cx="-1270.382" cy="464.714" r="3.03"/>
		</g>
		<g>
			<circle cx="-1187.388" cy="466.757" r="7.5"/>
			<circle fill="#FFFFFF" cx="-1189.881" cy="464.714" r="3.03"/>
		</g>
		<path fill="none" stroke="#000000" stroke-width="3" stroke-linecap="round" stroke-miterlimit="10" d="M-1227.146,461.685
			c0,0,0.812,8.268,4.312,12.572l-4.312,3.555"/>
		<path fill="none" stroke="#000000" stroke-width="3" stroke-linecap="round" stroke-miterlimit="10" d="M-1239.414,484.521
			c0,5.105,3.842,12.916,12.318,12.916s12.827-6.481,12.827-12.826"/>
		<path fill="#604E75" d="M-1226.842,386.044c-11.729,23.599-36.259,25.295-44.533,30.223c-1.883,0.93-3.639,1.908-5.252,2.928
			l-0.01,0.005h0.002c-2.632,1.663-4.881,3.431-6.616,5.279c-10.324,11.001-19.127,25.778-18.647,34.89c0,0,2.814,3.334,2.814,7.389
			h5.5c0,0,0.5-26.445,16-36.445c0,0,25.348-10.674,48.514-9.84c23.167,0.833,50.819,8.674,50.819,8.674
			c19.667,12.667,17.667,37.611,17.667,37.611h5.333c0.166-4.055,2.858-7.389,2.858-7.389
			c-1.796-21.188-14.808-32.051-22.938-38.055h0.001c-0.001,0-0.001,0-0.001,0c-1.28-0.946-2.444-1.775-3.42-2.502
			c-1.853-1.379-4.369-2.846-7.428-4.275C-1217.403,407.211-1226.842,386.044-1226.842,386.044z"/>
	</g>
</g>
<g>
	<g>
		<path fill="#E9E9EA" d="M-913.838,545.749h2.438c5.94,0,10.8,4.86,10.8,10.8v32.733c0,5.939-4.859,10.8-10.8,10.8h-2.438V545.749z
			"/>
		<path fill="#E9E9EA" d="M-992.745,545.749h-2.438c-5.94,0-10.801,4.86-10.801,10.8v32.733c0,5.939,4.86,10.8,10.801,10.8h2.438
			V545.749z"/>
		<path fill="#333333" d="M-911.4,545.749h-2.438h-78.907h-2.438c-5.94,0-10.801,4.86-10.801,10.8v5.699h13.238v54.5h78.907v-54.5
			h13.237v-5.699C-900.601,550.609-905.46,545.749-911.4,545.749z"/>
		<polygon fill="#B69FCC" points="-992.745,616.748 -992.745,633.415 -992.745,673.082 -963.956,673.082 -963.956,633.415 
			-942.628,633.415 -942.628,673.082 -913.838,673.082 -913.838,633.415 -913.838,616.748 		"/>
		<path d="M-978.351,687.477c7.949,0,14.395-6.444,14.395-14.395h-28.789C-992.745,681.032-986.301,687.477-978.351,687.477z"/>
		<path d="M-928.233,687.477c7.951,0,14.396-6.444,14.396-14.395h-28.79C-942.628,681.032-936.183,687.477-928.233,687.477z"/>
		<path fill="#B69FCC" d="M-978.351,658.688c-7.95,0-14.395,6.444-14.395,14.395h28.789
			C-963.956,665.132-970.401,658.688-978.351,658.688z"/>
		<path fill="#B69FCC" d="M-928.233,658.688c-7.949,0-14.395,6.444-14.395,14.395h28.79
			C-913.838,665.132-920.282,658.688-928.233,658.688z"/>
		<g>
			<g>
				<path fill="#B69FCC" d="M-977.014,564.265c1.531-0.451,2.302-0.657,3.848-1.034c0.162,0.665,0.243,0.995,0.405,1.66
					c-0.458,0.111-0.688,0.171-1.146,0.289c-0.075,1.263-1.269,7.85-1.242,8.558c-0.533,0.164-0.797,0.249-1.328,0.423
					c-0.389-0.593-5.556-5.69-5.989-6.258c-0.439,0.167-0.659,0.253-1.096,0.426c-0.252-0.637-0.378-0.954-0.63-1.591
					c1.645-0.651,2.473-0.953,4.142-1.515c0.218,0.648,0.327,0.974,0.545,1.622c-0.148,0.05-0.221,0.073-0.369,0.124
					c0.648,0.689,3.13,3.495,3.13,3.495c0.152-0.039,0.69-3.631,0.782-4.725c-0.228,0.065-0.341,0.101-0.568,0.168
					C-976.723,565.251-976.82,564.921-977.014,564.265z"/>
				<path fill="#B69FCC" d="M-958.514,566.668c-0.112,1.588-0.163,2.382-0.252,3.97c-3.276,0.242-4.913,0.455-8.155,1.06
					c-0.125-0.673-0.188-1.008-0.313-1.681c0.355-0.066,0.533-0.101,0.889-0.162c-0.424-2.433-0.636-3.648-1.059-6.081
					c-0.384,0.067-0.577,0.103-0.96,0.174c-0.125-0.673-0.188-1.009-0.314-1.682c3.424-0.639,5.152-0.868,8.61-1.148
					c0.5,1.267,0.742,1.9,1.212,3.174c-0.761,0.053-1.14,0.084-1.9,0.154c-0.244-0.665-0.527-1.512-1.678-1.383
					c-1,0.112-1.5,0.177-2.498,0.319c0.117,0.818,0.176,1.226,0.293,2.044c0.525-0.075,0.788-0.107,1.314-0.174
					c-0.035-0.276-0.053-0.416-0.088-0.692c0.753-0.095,1.13-0.138,1.885-0.215c0.126,1.23,0.19,1.846,0.316,3.076
					c-0.726,0.074-1.089,0.119-1.813,0.21c-0.034-0.271-0.052-0.41-0.086-0.682c-0.515,0.064-0.773,0.1-1.287,0.173
					c0.136,0.948,0.203,1.424,0.339,2.372c1.138-0.163,1.709-0.234,2.851-0.354c0.525-0.055,0.765-1.288,0.864-2.328
					C-959.613,566.746-959.246,566.717-958.514,566.668z"/>
				<path fill="#B69FCC" d="M-945.604,569.117c-0.069,0.687-0.104,1.028-0.173,1.715c-0.966-0.099-1.449-0.141-2.417-0.207
					c-0.351-0.188-1.035-0.748-0.97-1.95c0.037-0.684-0.443-2.094-1.909-2.313c-0.027,0.958-0.039,1.437-0.066,2.395
					c0.365,0.011,0.547,0.019,0.912,0.033c-0.028,0.689-0.042,1.033-0.069,1.723c-1.61-0.065-2.416-0.077-4.026-0.055
					c-0.01-0.689-0.015-1.033-0.024-1.723c0.428-0.006,0.641-0.008,1.068-0.008c0-2.469,0.002-3.703,0.003-6.172
					c-0.462,0-0.694-0.001-1.156,0.006c-0.009-0.685-0.014-1.026-0.023-1.711c1.901-0.026,2.852-0.011,4.751,0.07
					c2.531,0.108,3.188,1.736,3.087,2.95c-0.084,1.022-1.069,1.938-1.099,2.14c-0.041,0.281,0.789,1.623,0.706,2.634
					c-0.028,0.341,0.34,0.372,0.34,0.372C-946.243,569.053-946.029,569.074-945.604,569.117z M-950.258,564.676
					c0.886,0.033,1.335-0.442,1.363-0.962c0.028-0.519-0.33-1.063-1.084-1.093c-0.394-0.016-0.591-0.024-0.985-0.035
					c-0.023,0.826-0.035,1.24-0.059,2.066C-950.717,564.661-950.565,564.664-950.258,564.676z"/>
				<path fill="#B69FCC" d="M-931.677,568.655c-0.751,2.646-3.405,3.998-5.967,3.446c-1.638-0.353-2.461-0.506-4.113-0.766
					c0.106-0.682,0.16-1.021,0.267-1.702c0.339,0.053,0.509,0.081,0.848,0.138c0.407-2.419,0.609-3.627,1.018-6.046
					c-0.366-0.062-0.549-0.091-0.916-0.148c0.108-0.687,0.163-1.032,0.271-1.719c1.865,0.293,2.795,0.466,4.645,0.864
					C-932.515,563.393-930.925,566.009-931.677,568.655z M-938.335,570.195c0.292,0.059,0.44,0.089,0.732,0.15
					c2.09,0.44,3.182-0.837,3.555-2.323c0.376-1.5-0.246-3.242-2.292-3.674c-0.315-0.066-0.474-0.098-0.79-0.161
					C-937.612,566.592-937.854,567.79-938.335,570.195z"/>
				<path fill="#B69FCC" d="M-926.712,565.204c1.735,0.579,2.597,0.895,4.306,1.571c-0.252,0.637-0.378,0.954-0.63,1.591
					c-0.368-0.146-0.552-0.217-0.921-0.357c-0.879,2.301-1.319,3.45-2.199,5.751c0.341,0.131,0.512,0.196,0.852,0.331
					c-0.25,0.631-0.375,0.949-0.625,1.58c-1.514-0.6-2.278-0.878-3.815-1.392c0.215-0.644,0.324-0.966,0.539-1.609
					c0.345,0.115,0.516,0.174,0.86,0.293c0.808-2.327,1.212-3.491,2.021-5.818c-0.372-0.129-0.558-0.191-0.931-0.316
					C-927.038,566.179-926.929,565.854-926.712,565.204z"/>
			</g>
		</g>
	</g>
	<g>
		<path fill="#E9E9EA" d="M-876.257,480.117c-0.893,0-1.756,0.117-2.586,0.318c-8.77-28.624-38.908-49.725-74.753-49.725
			s-65.983,21.101-74.753,49.725c-0.83-0.201-1.693-0.318-2.586-0.318c-6.074,0-11,4.925-11,11c0,6.074,4.926,11,11,11
			c0.068,0,0.133-0.009,0.199-0.01c2.715,33.828,36.201,49.416,77.14,49.416c40.938,0,74.425-15.588,77.14-49.416
			c0.066,0.001,0.131,0.01,0.199,0.01c6.074,0,11-4.926,11-11C-865.257,485.042-870.183,480.117-876.257,480.117z"/>
		<path fill="none" stroke="#000000" stroke-width="3" stroke-linecap="round" stroke-miterlimit="10" d="M-953.596,482.752
			c0,0,0.812,8.269,4.312,12.573l-4.312,3.555"/>
		<g>
			<path fill="#FFFFFF" d="M-941.023,518.595c0,6.346-4.351,12.827-12.827,12.827s-12.318-7.812-12.318-12.917
				c2.218,2.538,6.267,4.654,12.506,4.654C-947.658,523.159-943.469,520.918-941.023,518.595z"/>
			<path fill="none" stroke="#000000" stroke-width="3" stroke-linecap="round" stroke-miterlimit="10" d="M-966.169,518.505
				c2.218,2.538,6.267,4.654,12.506,4.654c6.005,0,10.194-2.241,12.64-4.564"/>
			<path fill="none" stroke="#000000" stroke-width="3" stroke-linecap="round" stroke-miterlimit="10" d="M-966.169,518.505
				c0,5.105,3.842,12.917,12.318,12.917s12.827-6.481,12.827-12.827"/>
		</g>
		<path fill="#E9E9EA" d="M-876.456,502.106c0.066,0.001,0.131,0.011,0.199,0.011c6.074,0,11-4.926,11-11c0-6.076-4.926-11-11-11
			c-0.893,0-1.756,0.117-2.586,0.318l-5.525,12.45L-876.456,502.106z"/>
		<path fill="#E9E9EA" d="M-1030.734,502.106c-0.066,0.001-0.131,0.011-0.199,0.011c-6.074,0-11-4.926-11-11c0-6.076,4.926-11,11-11
			c0.893,0,1.756,0.117,2.586,0.318l5.525,12.45L-1030.734,502.106z"/>
		<circle fill="#C4C4C3" cx="-999.463" cy="514.483" r="9.595"/>
		<circle fill="#C4C4C3" cx="-907.219" cy="514.483" r="9.595"/>
		<path fill="#604E75" d="M-1031.034,448.112c-22.223,21.149-24.334,70.333-6,91.667c18.334,21.333,2.333,36.333-8,38
			c-10.333,1.666-19.334-9.334-19.334-9.334c0.396,3.443,1.352,6.446,2.728,9.068c-2.298-1.246-4.663-2.779-5.65-4.242
			c0,0,4.06,8.138,10.563,10.582c1.052,0.96,2.184,1.832,3.389,2.613c-4.779,3.223-11.028,3.232-11.028,3.232
			c21.871,4.82,29.543,3.684,32.228,2.422c0.044,0.001,0.088,0.002,0.131,0.003c-6.029,5.187-15.043,5.575-15.043,5.575
			c15.602-0.252,24.275-3.078,29.048-5.824c-3.5,4.729-7.381,7.491-7.381,7.491c6.907-1.829,11.89-7.023,15.076-11.569
			c0.249-0.113,0.495-0.229,0.737-0.348c-1.121,7.074-2.813,8.917-2.813,8.917c7.493-7.067,11.745-14.213,14.116-19.517
			c1.328-2.516,2.225-5.242,2.737-8.047c0.056-0.271,0.08-0.419,0.08-0.419s-0.004,0.002-0.005,0.002
			c2.012-11.918-2.79-25.031-10.526-28.589c-11.635-5.352-33.218-30.908-22.365-59.361c9.969-26.136,31.093-24.861,41.511-29.656
			c10.137-4.667,17.804-17.667,17.804-17.667C-982.701,418.445-1008.195,426.377-1031.034,448.112z"/>
		<path fill="#604E75" d="M-911.749,574.922c-0.075,12.131,5.55,21.568,17.363,32.11c0,0-1.79-4.335,3.293-7.784
			c0.05,0.024,0.098,0.05,0.147,0.074c2.565,4.865,9.68,11.211,29.393,10.377c0,0-5.979-0.935-10.978-5.67
			c5.228,1.792,15.366,3.506,31.978-0.363c0,0-9.593,0.265-8.694-6.748c13.529-8.509,9.918-19.139,9.918-19.139s-4,8.999-16,8.999
			s-31.332-16.667-16.666-52.333s12.495-75.284-14.373-98c-17.742-15-44.627-27-74.627-17.334c0,0-24.965,11-16.982,23.334
			s22.943-1.666,44.315,0c12.527,0.977,45.949,10.863,55.192,37.99c8.352,24.51-6.813,49.141-15.473,54.742
			C-900.832,539.636-911.699,562.803-911.749,574.922z"/>
		<path fill="none" stroke="#000000" stroke-width="3" stroke-linecap="round" stroke-miterlimit="10" d="M-1006.469,481.359
			c0,2.075,1.561,5.25,5.006,5.25s5.214-2.635,5.214-5.213"/>
		<path fill="none" stroke="#000000" stroke-width="3" stroke-linecap="round" stroke-miterlimit="10" d="M-1001.359,476.569
			c0,2.075,1.561,5.25,5.006,5.25c1.54,0,2.744-0.526,3.605-1.338"/>
		<path fill="none" stroke="#000000" stroke-width="3" stroke-linecap="round" stroke-miterlimit="10" d="M-901.443,476.569
			c0,2.075-1.561,5.25-5.006,5.25c-1.539,0-2.744-0.526-3.605-1.338"/>
		<path fill="none" stroke="#000000" stroke-width="3" stroke-linecap="round" stroke-miterlimit="10" d="M-906.631,481.359
			c0,2.075,1.561,5.25,5.006,5.25s5.214-2.635,5.214-5.213"/>
		<g>
			<circle cx="-991.749" cy="484.084" r="7.5"/>
			<circle fill="#FFFFFF" cx="-994.243" cy="482.041" r="3.03"/>
		</g>
		<g>
			<circle cx="-911.249" cy="484.084" r="7.5"/>
			<circle fill="#FFFFFF" cx="-913.743" cy="482.041" r="3.03"/>
		</g>
	</g>
</g>
<g>
	
		<rect x="-633.928" y="104.825" transform="matrix(0.9999 -0.0109 0.0109 0.9999 -1.9665 -5.3881)" fill="#333333" width="274.833" height="146.666"/>
	
		<rect x="-628.605" y="109.334" transform="matrix(0.9999 -0.0109 0.0109 0.9999 -1.9665 -5.3882)" fill="#5B5C5C" width="264.187" height="137.649"/>
	<g opacity="0.67">
		<line fill="none" stroke="#FFFFFF" stroke-miterlimit="10" x1="-624.502" y1="118.722" x2="-374.184" y2="116"/>
		<line fill="none" stroke="#FFFFFF" stroke-miterlimit="10" x1="-624.129" y1="153.053" x2="-373.811" y2="150.331"/>
		<g>
			<g>
				<line fill="none" stroke="#FFFFFF" stroke-miterlimit="10" x1="-624.316" y1="135.887" x2="-623.316" y2="135.876"/>
				
					<line fill="none" stroke="#FFFFFF" stroke-miterlimit="10" stroke-dasharray="1.9867,1.9867" x1="-621.33" y1="135.854" x2="-375.991" y2="133.187"/>
				<line fill="none" stroke="#FFFFFF" stroke-miterlimit="10" x1="-374.998" y1="133.176" x2="-373.998" y2="133.165"/>
			</g>
		</g>
	</g>
	
		<text transform="matrix(0.9999 -0.0109 0.0109 0.9999 -617.5952 151.3535)" fill="#FFFFFF" font-family="'Mission-Script'" font-size="42.4576">Aa Bb Cc</text>
</g>
<g>
	<g>
		<path fill="#E9E9EA" d="M157.426,135.764h2.438c5.94,0,10.8,4.86,10.8,10.8v32.733c0,5.939-4.859,10.8-10.8,10.8h-2.438V135.764z"
			/>
		<path fill="#E9E9EA" d="M78.519,135.764h-2.438c-5.94,0-10.801,4.86-10.801,10.8v32.733c0,5.939,4.86,10.8,10.801,10.8h2.438
			V135.764z"/>
		<polygon fill="#E9E9EA" points="78.519,206.763 78.519,223.43 78.519,263.097 107.308,263.097 107.308,223.43 128.636,223.43 
			128.636,263.097 157.426,263.097 157.426,223.43 157.426,206.763 		"/>
		<path d="M92.913,277.491c7.949,0,14.395-6.444,14.395-14.395H78.519C78.519,271.047,84.963,277.491,92.913,277.491z"/>
		<path d="M143.03,277.491c7.951,0,14.396-6.444,14.396-14.395h-28.79C128.636,271.047,135.081,277.491,143.03,277.491z"/>
		<path fill="#E9E9EA" d="M92.913,248.702c-7.95,0-14.395,6.444-14.395,14.395h28.789
			C107.308,255.146,100.862,248.702,92.913,248.702z"/>
		<path fill="#E9E9EA" d="M143.03,248.702c-7.949,0-14.395,6.444-14.395,14.395h28.79
			C157.426,255.146,150.981,248.702,143.03,248.702z"/>
		<path fill="#B69FCC" d="M117.973,233.601h48.546c-6.617-9.619-9.093-26.838-9.093-26.838v-54.5h13.237v-5.699
			c0-5.939-4.859-10.8-10.8-10.8h-2.438H78.519h-2.438c-5.94,0-10.801,4.86-10.801,10.8v5.699h13.238v54.5
			c0,0-2.476,17.219-9.093,26.838H117.973L117.973,233.601z"/>
	</g>
	<g>
		<path fill="#E9E9EA" d="M195.007,72.132c-0.893,0-1.756,0.118-2.586,0.318c-8.77-28.624-38.908-49.725-74.753-49.725
			S51.685,43.826,42.915,72.45c-0.83-0.2-1.693-0.318-2.586-0.318c-6.074,0-11,4.925-11,11s4.926,11,11,11
			c0.068,0,0.133-0.009,0.199-0.011c2.715,33.829,36.201,49.417,77.14,49.417c40.938,0,74.425-15.588,77.14-49.417
			c0.066,0.002,0.131,0.011,0.199,0.011c6.074,0,11-4.925,11-11S201.081,72.132,195.007,72.132z"/>
		<path fill="none" stroke="#000000" stroke-width="3" stroke-linecap="round" stroke-miterlimit="10" d="M62.206,77.115
			c0,2.075,1.561,5.25,5.006,5.25s5.214-2.635,5.214-5.213"/>
		<path fill="none" stroke="#000000" stroke-width="3" stroke-linecap="round" stroke-miterlimit="10" d="M67.316,72.325
			c0,2.075,1.561,5.25,5.006,5.25c1.539,0,2.744-0.526,3.605-1.338"/>
		<path fill="none" stroke="#000000" stroke-width="3" stroke-linecap="round" stroke-miterlimit="10" d="M167.231,72.325
			c0,2.075-1.561,5.25-5.006,5.25c-1.539,0-2.744-0.526-3.605-1.338"/>
		<path fill="none" stroke="#000000" stroke-width="3" stroke-linecap="round" stroke-miterlimit="10" d="M162.044,77.115
			c0,2.075,1.561,5.25,5.006,5.25s5.214-2.635,5.214-5.213"/>
		<g>
			<circle cx="76.926" cy="79.84" r="7.5"/>
			<circle fill="#FFFFFF" cx="74.432" cy="77.797" r="3.03"/>
		</g>
		<g>
			<circle cx="157.426" cy="79.84" r="7.5"/>
			<circle fill="#FFFFFF" cx="154.932" cy="77.797" r="3.03"/>
		</g>
		<path fill="none" stroke="#000000" stroke-width="3" stroke-linecap="round" stroke-miterlimit="10" d="M117.668,74.768
			c0,0,0.812,8.268,4.312,12.572l-4.312,3.555"/>
		<path fill="none" stroke="#000000" stroke-width="3" stroke-linecap="round" stroke-miterlimit="10" d="M105.399,97.603
			c0,5.106,3.842,12.917,12.318,12.917s12.827-6.482,12.827-12.827"/>
		<path fill="#604E75" d="M110.269,11.126c0,0-24.965,11-16.982,23.333s22.943-1.667,44.315,0
			c12.527,0.977,45.949,10.863,55.192,37.99c8.352,24.51-6.813,49.14-15.473,54.742c-8.66,5.604-22.548,31.751-16.387,45.648
			s28.668,28.953,52.334,20.286s18.666-23.333,18.666-23.333s-4,8.999-16,8.999s-31.332-16.667-16.666-52.333
			c14.666-35.667,12.495-75.284-14.373-98C167.153,13.46,140.269,1.459,110.269,11.126z"/>
		<path fill="#E9E9EA" d="M194.808,94.121c0.066,0.002,0.131,0.01,0.199,0.01c6.074,0,11-4.925,11-11c0-6.074-4.926-11-11-11
			c-0.893,0-1.756,0.118-2.586,0.318L186.896,84.9L194.808,94.121z"/>
		<path fill="#604E75" d="M102.229,25.127c0,0-7.667,13-17.804,17.667c-10.418,4.796-31.542,3.521-41.511,29.657
			c-10.853,28.453,10.73,54.01,22.365,59.361c11.635,5.35,16.652,32.315,1.801,44.315S10.229,189.46,6.896,160.46
			c0,0,9.001,11,19.334,9.334c10.333-1.667,26.334-16.667,8-38c-18.334-21.334-16.223-70.519,6-91.667
			C63.068,18.392,88.563,10.46,102.229,25.127z"/>
		<path fill="#E9E9EA" d="M40.529,94.121c-0.066,0.002-0.131,0.01-0.199,0.01c-6.074,0-11-4.925-11-11c0-6.074,4.926-11,11-11
			c0.893,0,1.756,0.118,2.586,0.318L48.441,84.9L40.529,94.121z"/>
		<circle fill="#C4C4C3" cx="71.801" cy="106.498" r="9.595"/>
		<circle fill="#C4C4C3" cx="164.045" cy="106.498" r="9.595"/>
	</g>
</g>
<g>
	<path fill="#3A2E4C" d="M191.1,495.305c0,0,2.671,1.458,3.318,4.372c0.648,2.914,5.02,2.555,5.02,2.555l-2.105,13.485l7.124,7.482
		v2.867l1.781,24.123c0,0,12.304,3.238,15.219,1.296c2.914-1.943,4.047,9.39,4.047,9.39s-8.742,9.899-9.066,14.179
		c-0.323,4.278-37.562-39.874-37.562-39.874L191.1,495.305z"/>
	<path fill="#6C5E7F" d="M191.1,495.305c-14.214,4.986-32.543,18.7-37.399,35.457c-4.857,16.757-4.372,35.456,11.899,47.6
		c16.271,12.143,32.785,13.356,57.557,6.313c0,0,0-4.979,0-11.231c0,0-8.986,2.975-17-1.396c0,0,1.942-12.629-3.157-21.371
		l8.014-3.623l-4.128-17.505l-13.357-5.101c0,0,2.914-6.187,2.914-10.379s0-6.021-2.914-8.627
		C190.613,502.834,190.371,498.22,191.1,495.305z"/>
	<path fill="#4E4063" d="M290.672,521.873l3.903-7.805c0,0-3.306-7.637-8.764-7.175l-8.014,5.169L290.672,521.873z"/>
	<polygon fill="#3A2E4C" points="254.106,524.609 242.665,534 245.741,542.942 241.046,549.381 252.703,553.079 	"/>
	<path fill="#6C5E7F" d="M228.013,582.975l6.314-12.385c0,0-7.528-6.8-8.015-8.5l13.357-15.037l5.586,2.408
		c0,0,4.613-12.628,8.014-17.485l-3.643-9.714l6.8-8.193c0,0-6.8-7.35-5.101-17.306c0,0,20.643,5.828,31.328,15.542
		s11.657,18.7,11.657,18.7s2.672,29.749-8.985,42.438c-11.657,12.688-24.771,16.465-36.428,15.549
		C237.241,588.075,228.013,582.975,228.013,582.975z"/>
	<path fill="#4E4063" d="M160.5,504.448c0,0,0.242,10.13,1.942,12.757c1.7,2.628,1.457,7,9.229,5.785
		c7.771-1.214,13.338-5.343,15.412-10.199c2.073-4.857,0-8.343,0-8.343l-6.912-9.144c0,0-2.914-4.856-9.229-1.942
		S160.257,500.089,160.5,504.448z"/>
	<path fill="#4E4063" d="M261.526,490.719l-6.557,9.929c0,0-1.943,2.773,0,5.273c1.942,2.498,4.614,6.269,10.928,8.147
		c6.314,1.879,11.9,3.094,13.357-1.764c1.457-4.856,2.186-13.356,2.186-13.356s0.729-6.558-8.015-9.229
		C264.684,487.048,261.526,490.719,261.526,490.719z"/>
	<path fill="#4E4063" d="M280.469,551.647c0,0,2.914-17,13.843-20.643c0,0,14.814,7.231,16.757,11.144c0,0,6.071,5.816,2.186,18.1
		c-3.886,12.284-8.014,14.713-12.871,14.713c0,0-7.609,0.81-13.356-0.891s-5.991-4.452-6.558-6.638S278.85,557.566,280.469,551.647z
		"/>
	
		<ellipse transform="matrix(0.9107 0.4131 -0.4131 0.9107 257.7574 -75.2679)" fill="#3A2E4C" cx="302.939" cy="558.443" rx="1.862" ry="5.829"/>
	
		<ellipse transform="matrix(0.9108 0.4129 -0.4129 0.9108 259.5636 -77.0198)" fill="#3A2E4C" cx="308.012" cy="562.141" rx="1.722" ry="5.39"/>
	<circle cx="261.85" cy="576.661" r="4.291"/>
	<circle cx="277.798" cy="581.275" r="3.076"/>
	<ellipse fill="#FFFFFF" cx="260.432" cy="575.054" rx="1.417" ry="1.607"/>
	<circle fill="#FFFFFF" cx="276.185" cy="580.508" r="0.768"/>
	<path fill="#604E75" d="M202.189,594.552c0,0,11.981-1.405,18.619-5.56l5.504,4.75c0,0,9.714,2.96,9.876,3.584
		c0.162,0.625-5.989,6.453-17.809,5.158S202.189,594.552,202.189,594.552z"/>
	<polygon fill="#604E75" points="232.951,591.151 233.76,594.228 239.589,594.228 236.27,591.151 	"/>
</g>
</svg>
