<?xml version="1.0" encoding="utf-8"?>
<!-- Generator: Adobe Illustrator 15.0.0, SVG Export Plug-In . SVG Version: 6.00 Build 0)  -->
<!DOCTYPE svg PUBLIC "-//W3C//DTD SVG 1.1//EN" "http://www.w3.org/Graphics/SVG/1.1/DTD/svg11.dtd">
<svg version="1.1" id="Layer_1" xmlns="http://www.w3.org/2000/svg" xmlns:xlink="http://www.w3.org/1999/xlink" x="0px" y="0px"
	 width="213.334px" height="283.226px" viewBox="0 0 213.334 283.226" enable-background="new 0 0 213.334 283.226"
	 xml:space="preserve">
<path d="M-279.839,252.76c7.95,0,14.396-6.444,14.396-14.395h-28.79C-294.233,246.315-287.789,252.76-279.839,252.76z"/>
<path fill="#B69FCC" d="M-294.233,196.426v16.667v25.667h28.79v-25.667h21.329v24.272h0c0,0.003,0,0.007,0,0.01v0.385h0.02
	c0.211,7.766,6.559,14,14.376,14s14.164-6.234,14.375-14h0.02v-24.667v-16.667H-294.233z"/>
<g>
	<g>
		<path fill="#E9E9EA" d="M-962.329-27.166h2.438c5.94,0,10.8,4.86,10.8,10.8v32.733c0,5.939-4.859,10.8-10.8,10.8h-2.438V-27.166z"
			/>
		<path fill="#E9E9EA" d="M-1041.236-27.166h-2.438c-5.94,0-10.801,4.86-10.801,10.8v32.733c0,5.939,4.86,10.8,10.801,10.8h2.438
			V-27.166z"/>
		<path fill="#333333" d="M-959.892-27.166h-2.438h-78.907h-2.438c-5.94,0-10.801,4.86-10.801,10.8v5.699h13.238v54.5h78.907v-54.5
			h13.237v-5.699C-949.092-22.306-953.951-27.166-959.892-27.166z"/>
		<polygon fill="#B69FCC" points="-1041.236,43.833 -1041.236,60.5 -1041.236,100.167 -1012.447,100.167 -1012.447,60.5 
			-991.119,60.5 -991.119,100.167 -962.329,100.167 -962.329,60.5 -962.329,43.833 		"/>
		<path d="M-1026.842,114.562c7.949,0,14.395-6.444,14.395-14.395h-28.789C-1041.236,108.117-1034.792,114.562-1026.842,114.562z"/>
		<path d="M-976.725,114.562c7.951,0,14.396-6.444,14.396-14.395h-28.79C-991.119,108.117-984.674,114.562-976.725,114.562z"/>
		<path fill="#B69FCC" d="M-1026.842,85.772c-7.95,0-14.395,6.444-14.395,14.395h28.789
			C-1012.447,92.217-1018.893,85.772-1026.842,85.772z"/>
		<path fill="#B69FCC" d="M-976.725,85.772c-7.949,0-14.395,6.444-14.395,14.395h28.79
			C-962.329,92.217-968.773,85.772-976.725,85.772z"/>
		<g>
			<g>
				<path fill="#604E75" d="M-1020.739-8.304c0.692-0.213,1.111-0.069,1.252,0.418c1.805,6.229,2.708,9.342,4.512,15.571
					c0.134,0.461-0.042,0.8-0.545,0.955c-1.107,0.341-1.658,0.529-2.748,0.939c-0.471,0.177-0.844,0.027-1.021-0.419
					c-2.388-6.03-3.58-9.044-5.968-15.074c-0.187-0.472,0.092-0.856,0.739-1.1C-1023.018-7.577-1022.262-7.835-1020.739-8.304z"/>
				<path fill="#604E75" d="M-1011.4-10.441c0.71-0.108,1.1,0.096,1.168,0.6c0.533,3.935,0.799,5.903,1.332,9.838
					c0.262,1.934,0.559,3.053,2.638,2.864s2.165-1.345,2.073-3.294c-0.188-3.967-0.282-5.95-0.47-9.917
					c-0.024-0.507,0.357-0.779,1.038-0.8c1.604-0.05,2.407-0.05,4.01,0c0.715,0.022,1.061,0.294,1.037,0.801
					c-0.214,4.504-0.319,6.756-0.533,11.26c-0.079,1.67-0.667,5.733-6.76,6.288c-6.093,0.554-7.426-3.328-7.807-4.956
					c-1.027-4.391-1.541-6.584-2.567-10.975c-0.116-0.495,0.212-0.833,0.881-0.978C-1013.784-10.053-1012.991-10.199-1011.4-10.441z
					"/>
				<path fill="#604E75" d="M-986.325-9.358c6.239,1.511,7.922,4.528,6.393,8.391s-4.182,4.656-9.254,3.428
					c-0.547-0.132-0.822-0.196-1.372-0.313c-0.543-0.116-0.908,0.07-1.006,0.568c-0.313,1.591-0.469,2.387-0.782,3.978
					c-0.098,0.497-0.403,0.693-0.918,0.601c-1.153-0.207-1.731-0.293-2.892-0.428c-0.492-0.057-0.751-0.362-0.704-0.84
					c0.641-6.443,0.961-9.663,1.604-16.106c0.05-0.505,0.432-0.725,1.148-0.667C-990.973-10.384-989.409-10.105-986.325-9.358z
					 M-987.976-1.73c1.479,0.363,2.251,0.443,2.687-1.065s-0.296-1.895-1.865-2.28c-0.706-0.173-1.06-0.255-1.77-0.407
					c-0.624-0.134-1.037,0.046-1.134,0.542c-0.149,0.756-0.222,1.134-0.371,1.89c-0.093,0.472,0.196,0.812,0.784,0.938
					C-988.976-1.97-988.642-1.894-987.976-1.73z"/>
			</g>
		</g>
	</g>
	<g>
		<path fill="#E9E9EA" d="M-924.748-90.798c-0.893,0-1.756,0.118-2.586,0.318c-8.77-28.624-38.908-49.725-74.753-49.725
			s-65.983,21.101-74.753,49.725c-0.83-0.201-1.693-0.318-2.586-0.318c-6.074,0-11,4.925-11,11c0,6.075,4.926,11,11,11
			c0.068,0,0.133-0.009,0.199-0.01c2.715,33.829,36.201,49.417,77.14,49.417c40.938,0,74.425-15.588,77.14-49.417
			c0.066,0.001,0.131,0.01,0.199,0.01c6.074,0,11-4.925,11-11C-913.748-85.873-918.674-90.798-924.748-90.798z"/>
		<path fill="none" stroke="#000000" stroke-width="3" stroke-linecap="round" stroke-miterlimit="10" d="M-1057.549-85.814
			c0,2.075,1.561,5.25,5.006,5.25s5.214-2.635,5.214-5.213"/>
		<path fill="none" stroke="#000000" stroke-width="3" stroke-linecap="round" stroke-miterlimit="10" d="M-1052.439-90.604
			c0,2.075,1.561,5.25,5.006,5.25c1.54,0,2.744-0.526,3.605-1.338"/>
		<path fill="none" stroke="#000000" stroke-width="3" stroke-linecap="round" stroke-miterlimit="10" d="M-952.523-90.604
			c0,2.075-1.561,5.25-5.006,5.25c-1.539,0-2.744-0.526-3.605-1.338"/>
		<path fill="none" stroke="#000000" stroke-width="3" stroke-linecap="round" stroke-miterlimit="10" d="M-957.711-85.814
			c0,2.075,1.561,5.25,5.006,5.25s5.214-2.635,5.214-5.213"/>
		<g>
			<circle cx="-1042.829" cy="-83.09" r="7.5"/>
			<circle fill="#FFFFFF" cx="-1045.323" cy="-85.133" r="3.03"/>
		</g>
		<g>
			<circle cx="-962.329" cy="-83.09" r="7.5"/>
			<circle fill="#FFFFFF" cx="-964.823" cy="-85.133" r="3.03"/>
		</g>
		<path fill="none" stroke="#000000" stroke-width="3" stroke-linecap="round" stroke-miterlimit="10" d="M-1002.087-88.163
			c0,0,0.812,8.268,4.312,12.573l-4.312,3.555"/>
		<path fill="none" stroke="#000000" stroke-width="3" stroke-linecap="round" stroke-miterlimit="10" d="M-1014.355-65.327
			c0,5.106,3.842,12.917,12.318,12.917s12.827-6.482,12.827-12.827"/>
		<path fill="#604E75" d="M-1009.486-151.803c0,0-24.965,11-16.982,23.333s22.943-1.667,44.315,0
			c12.527,0.977,45.949,10.863,55.192,37.99c8.352,24.51-6.813,49.14-15.473,54.742c-8.66,5.604-22.548,31.751-16.387,45.648
			s28.668,28.953,52.334,20.286S-887.82,6.864-887.82,6.864s-4,8.999-16,8.999s-31.332-16.667-16.666-52.333
			c14.666-35.667,12.495-75.284-14.373-98C-952.602-149.47-979.486-161.47-1009.486-151.803z"/>
		<path fill="#E9E9EA" d="M-924.947-68.809c0.066,0.001,0.131,0.01,0.199,0.01c6.074,0,11-4.925,11-11c0-6.075-4.926-11-11-11
			c-0.893,0-1.756,0.118-2.586,0.318l-5.525,12.451L-924.947-68.809z"/>
		<path fill="#604E75" d="M-1017.525-137.803c0,0-7.667,13-17.804,17.667c-10.418,4.796-31.542,3.521-41.511,29.657
			c-10.853,28.453,10.73,54.01,22.365,59.361c11.635,5.35,16.652,32.315,1.801,44.315s-56.853,13.333-60.186-15.667
			c0,0,9.001,11,19.334,9.334c10.333-1.667,26.334-16.667,8-38c-18.334-21.334-16.223-70.518,6-91.667
			C-1056.687-144.538-1031.192-152.469-1017.525-137.803z"/>
		<path fill="#E9E9EA" d="M-1079.226-68.809c-0.066,0.001-0.131,0.01-0.199,0.01c-6.074,0-11-4.925-11-11c0-6.075,4.926-11,11-11
			c0.893,0,1.756,0.118,2.586,0.318l5.525,12.451L-1079.226-68.809z"/>
		<circle fill="#C4C4C3" cx="-1047.954" cy="-56.432" r="9.595"/>
		<circle fill="#C4C4C3" cx="-955.71" cy="-56.432" r="9.595"/>
	</g>
</g>
<g>
	<g>
		<path fill="#E9E9EA" d="M-978.359,265.753h2.438c5.94,0,10.8,4.86,10.8,10.8v32.733c0,5.939-4.859,10.8-10.8,10.8h-2.438V265.753z
			"/>
		<path fill="#E9E9EA" d="M-1057.267,265.753h-2.438c-5.94,0-10.801,4.86-10.801,10.8v32.733c0,5.939,4.86,10.8,10.801,10.8h2.438
			V265.753z"/>
		<path fill="#604E75" d="M-975.922,265.753h-2.438h-78.907h-2.438c-5.94,0-10.801,4.86-10.801,10.8v5.699h13.238v54.5h78.907v-54.5
			h13.237v-5.699C-965.122,270.613-969.981,265.753-975.922,265.753z"/>
		<polygon fill="#5B5C5C" points="-1057.267,336.752 -1057.267,353.419 -1057.267,393.086 -1028.478,393.086 -1028.478,353.419 
			-1007.149,353.419 -1007.149,393.086 -978.359,393.086 -978.359,353.419 -978.359,336.752 		"/>
		<path d="M-1042.872,407.48c7.949,0,14.395-6.444,14.395-14.395h-28.789C-1057.267,401.036-1050.822,407.48-1042.872,407.48z"/>
		<path d="M-992.755,407.48c7.951,0,14.396-6.444,14.396-14.395h-28.79C-1007.149,401.036-1000.704,407.48-992.755,407.48z"/>
		<path fill="#5B5C5C" d="M-1042.872,378.691c-7.95,0-14.395,6.444-14.395,14.395h28.789
			C-1028.478,385.136-1034.923,378.691-1042.872,378.691z"/>
		<path fill="#5B5C5C" d="M-992.755,378.691c-7.949,0-14.395,6.444-14.395,14.395h28.79
			C-978.359,385.136-984.804,378.691-992.755,378.691z"/>
		<g>
			<g>
				<path fill="#B69FCC" d="M-1036.77,284.615c0.692-0.213,1.112-0.071,1.253,0.416c1.805,6.229,2.706,9.343,4.51,15.572
					c0.134,0.463-0.042,0.802-0.546,0.957c-1.107,0.341-1.656,0.527-2.746,0.938c-0.471,0.177-0.844,0.027-1.021-0.42
					c-2.387-6.029-3.58-9.042-5.967-15.071c-0.187-0.472,0.093-0.855,0.74-1.1C-1039.047,285.342-1038.292,285.084-1036.77,284.615z
					"/>
				<path fill="#B69FCC" d="M-1027.431,282.478c0.71-0.108,1.1,0.096,1.168,0.598c0.533,3.937,0.798,5.904,1.332,9.84
					c0.262,1.934,0.559,3.054,2.638,2.864s2.166-1.344,2.073-3.293c-0.188-3.967-0.282-5.95-0.47-9.918
					c-0.024-0.506,0.357-0.779,1.038-0.801c1.604-0.05,2.407-0.05,4.01,0c0.715,0.022,1.061,0.295,1.037,0.801
					c-0.214,4.504-0.321,6.755-0.534,11.258c-0.079,1.67-0.668,5.736-6.759,6.291c-6.091,0.555-7.427-3.33-7.808-4.958
					c-1.027-4.39-1.54-6.585-2.566-10.976c-0.115-0.493,0.212-0.832,0.881-0.977
					C-1029.814,282.866-1029.021,282.72-1027.431,282.478z"/>
				<path fill="#B69FCC" d="M-1002.356,283.562c6.239,1.511,7.922,4.528,6.393,8.391s-4.182,4.653-9.253,3.425
					c-0.547-0.133-0.822-0.195-1.372-0.313c-0.543-0.116-0.907,0.072-1.005,0.569c-0.313,1.591-0.47,2.388-0.783,3.979
					c-0.098,0.497-0.403,0.69-0.918,0.599c-1.153-0.206-1.73-0.292-2.891-0.427c-0.492-0.058-0.752-0.36-0.705-0.84
					c0.641-6.443,0.962-9.663,1.604-16.106c0.05-0.505,0.432-0.724,1.147-0.666C-1007.003,282.536-1005.44,282.814-1002.356,283.562
					z M-1004.006,291.19c1.479,0.363,2.252,0.442,2.687-1.066s-0.297-1.897-1.865-2.282c-0.706-0.174-1.061-0.252-1.771-0.404
					c-0.624-0.134-1.035,0.044-1.133,0.541c-0.148,0.756-0.223,1.133-0.372,1.889c-0.093,0.473,0.195,0.813,0.784,0.938
					C-1005.006,290.949-1004.672,291.027-1004.006,291.19z"/>
			</g>
		</g>
	</g>
	<g>
		<path fill="#E9E9EA" d="M-940.778,201.121c-0.893,0-1.756,0.118-2.586,0.318c-8.77-28.624-38.908-49.726-74.753-49.726
			s-65.983,21.102-74.753,49.726c-0.83-0.2-1.693-0.318-2.586-0.318c-6.074,0-11,4.925-11,11s4.926,11,11,11
			c0.068,0,0.133-0.009,0.199-0.011c2.715,33.829,36.201,49.417,77.14,49.417c40.938,0,74.425-15.588,77.14-49.417
			c0.066,0.002,0.131,0.011,0.199,0.011c6.074,0,11-4.925,11-11S-934.704,201.121-940.778,201.121z"/>
		<path fill="none" stroke="#000000" stroke-width="3" stroke-linecap="round" stroke-miterlimit="10" d="M-1018.117,203.757
			c0,0,0.812,8.268,4.312,12.572l-4.312,3.555"/>
		<path fill="none" stroke="#000000" stroke-width="3" stroke-linecap="round" stroke-miterlimit="10" d="M-1030.386,226.592
			c0,5.106,3.842,12.917,12.318,12.917s12.827-6.482,12.827-12.827"/>
		<path fill="#604E75" d="M-1067.448,280.83c4.591-11.506-4.857-20.418-10.387-24.648c-8.191-6.268-23.824-30.232-15.473-54.742
			c9.243-27.128,42.665-37.013,55.192-37.99c21.372-1.667,36.333,12.333,44.315,0s-16.982-23.333-16.982-23.333
			c-30-9.668-56.885,2.333-74.627,17.333c-26.868,22.716-31.902,63.65-14.373,98c5.55,10.875,8.467,16.334-1.2,21.167
			c0,0-5.5,3.833-7.5,0.667c0,0-0.167,4.333,7,5c0,0-1.333,3.05-4.333,2.107c0,0,3.812,1.742,6.771,0.434
			c0,0-0.375,1.813-2.75,1.875C-1104.381,286.768-1074.181,297.703-1067.448,280.83z"/>
		<path fill="#604E75" d="M-967.595,284.116c-10.229-10.833-3.265-19.167,1.801-23.315c9.908-8.114,33.218-30.908,22.365-59.361
			c-9.969-26.136-31.093-24.86-41.511-29.657c-10.137-4.666-17.804-17.666-17.804-17.666c13.667-14.666,39.161-6.734,62,15
			c22.223,21.148,20.735,67.705,6,91.667c-5.739,9.333-2.333,15.333,8,17c0,0,5.095,1.76,7.095-0.537s-1.333,4.37-5.5,4.37
			s-1.499,1.499,2.167,1.833c0,0-2.927,1.5-6.797,1.334c0,0-1.037,0.666,0.963,1.5C-928.815,286.283-958.38,293.875-967.595,284.116
			z"/>
		<path fill="#E9E9EA" d="M-940.978,223.11c0.066,0.002,0.131,0.01,0.199,0.01c6.074,0,11-4.925,11-11c0-6.074-4.926-11-11-11
			c-0.893,0-1.756,0.118-2.586,0.318l-5.525,12.451L-940.978,223.11z"/>
		<path fill="#E9E9EA" d="M-1095.256,223.11c-0.066,0.002-0.131,0.01-0.199,0.01c-6.074,0-11-4.925-11-11c0-6.074,4.926-11,11-11
			c0.893,0,1.756,0.118,2.586,0.318l5.525,12.451L-1095.256,223.11z"/>
		<circle fill="#C4C4C3" cx="-1063.984" cy="235.487" r="9.595"/>
		<circle fill="#C4C4C3" cx="-971.74" cy="235.487" r="9.595"/>
		<path fill="none" stroke="#000000" stroke-width="3" stroke-linecap="round" stroke-miterlimit="10" d="M-1070.99,204.543
			c0,2.075,1.561,5.25,5.006,5.25s5.214-2.635,5.214-5.213"/>
		<path fill="none" stroke="#000000" stroke-width="3" stroke-linecap="round" stroke-miterlimit="10" d="M-1065.88,199.753
			c0,2.075,1.561,5.25,5.006,5.25c1.54,0,2.744-0.526,3.605-1.338"/>
		<path fill="none" stroke="#000000" stroke-width="3" stroke-linecap="round" stroke-miterlimit="10" d="M-965.965,199.753
			c0,2.075-1.561,5.25-5.006,5.25c-1.539,0-2.744-0.526-3.605-1.338"/>
		<path fill="none" stroke="#000000" stroke-width="3" stroke-linecap="round" stroke-miterlimit="10" d="M-971.152,204.543
			c0,2.075,1.561,5.25,5.006,5.25s5.214-2.635,5.214-5.213"/>
		<g>
			<circle cx="-1056.271" cy="207.268" r="7.5"/>
			<circle fill="#FFFFFF" cx="-1058.765" cy="205.225" r="3.03"/>
		</g>
		<g>
			<circle cx="-975.771" cy="207.268" r="7.5"/>
			<circle fill="#FFFFFF" cx="-978.265" cy="205.225" r="3.03"/>
		</g>
	</g>
</g>
<g>
	<g>
		<path fill="#E9E9EA" d="M-739.437-27.166h2.438c5.94,0,10.801,4.86,10.801,10.8v32.733c0,5.939-4.86,10.8-10.801,10.8h-2.438
			V-27.166z"/>
		<path fill="#E9E9EA" d="M-818.344-27.166h-2.438c-5.939,0-10.8,4.86-10.8,10.8v32.733c0,5.939,4.86,10.8,10.8,10.8h2.438V-27.166z
			"/>
		<path fill="#5B5C5C" d="M-736.999-27.166h-2.438h-78.907h-2.438c-5.939,0-10.8,4.86-10.8,10.8v5.699h13.237v54.5h78.907v-54.5
			h13.238v-5.699C-726.198-22.306-731.059-27.166-736.999-27.166z"/>
		<polygon fill="#604E75" points="-818.344,43.833 -818.344,60.5 -818.344,100.167 -789.554,100.167 -789.554,60.5 -768.226,60.5 
			-768.226,100.167 -739.437,100.167 -739.437,60.5 -739.437,43.833 		"/>
		<path d="M-803.949,114.562c7.95,0,14.396-6.444,14.396-14.395h-28.79C-818.344,108.117-811.898,114.562-803.949,114.562z"/>
		<path d="M-753.831,114.562c7.95,0,14.395-6.444,14.395-14.395h-28.789C-768.226,108.117-761.78,114.562-753.831,114.562z"/>
		<path fill="#604E75" d="M-803.949,85.772c-7.949,0-14.395,6.444-14.395,14.395h28.79
			C-789.554,92.217-795.999,85.772-803.949,85.772z"/>
		<path fill="#604E75" d="M-753.831,85.772c-7.949,0-14.395,6.444-14.395,14.395h28.789
			C-739.437,92.217-745.881,85.772-753.831,85.772z"/>
		<g>
			<g>
				<path fill="#E9E9EA" d="M-812.23-5.084c1.461-0.578,2.197-0.851,3.675-1.364c0.197,0.567,0.295,0.85,0.492,1.417
					c-0.319,0.111-0.479,0.167-0.797,0.281c0.727,2.033,1.088,3.048,1.815,5.081c0.299-0.107,0.45-0.16,0.75-0.264
					c0.195,0.562,0.292,0.844,0.487,1.406c-1.343,0.466-2.011,0.713-3.338,1.239c-0.219-0.553-0.329-0.829-0.548-1.382
					c0.296-0.117,0.446-0.176,0.744-0.291c-0.776-2.015-1.163-3.021-1.938-5.035c-0.316,0.122-0.476,0.183-0.791,0.308
					C-811.899-4.248-812.009-4.526-812.23-5.084z"/>
				<path fill="#E9E9EA" d="M-800.577-8.84c1.383-0.343,2.078-0.5,3.471-0.789c0.122,0.587,0.181,0.88,0.303,1.468
					c-0.328,0.068-0.492,0.103-0.819,0.173c0.584,2.701,0.876,4.052,1.461,6.753c-0.48,0.104-0.719,0.157-1.198,0.268
					c-2.036-1.685-3.1-2.497-5.317-4.052c0.41,1.444,0.613,2.167,1.023,3.611c0.157-0.044,0.918-0.256,0.918-0.256
					c0.157,0.579,0.236,0.869,0.394,1.447c-1.25,0.339-1.873,0.521-3.113,0.91c-0.18-0.572-0.269-0.859-0.449-1.431
					c0.36-0.113,0.539-0.167,0.9-0.276c-0.625-2.071-0.938-3.106-1.563-5.178c-0.384,0.116-0.575,0.175-0.958,0.295
					c-0.18-0.572-0.27-0.858-0.449-1.431c1.163-0.365,1.746-0.539,2.917-0.864c1.862,1.35,2.763,2.049,4.5,3.488
					c-0.275-1.167-0.413-1.75-0.688-2.917c-0.389,0.092-0.584,0.139-0.972,0.235C-800.361-7.967-800.433-8.258-800.577-8.84z"/>
				<path fill="#E9E9EA" d="M-785.752-7.029c0.198,2.403-1.544,4.328-3.814,4.63c-1.451,0.193-2.176,0.307-3.62,0.564
					c-0.106-0.595-0.159-0.893-0.266-1.488c0.295-0.053,0.443-0.078,0.739-0.128c-0.359-2.119-0.538-3.178-0.897-5.298
					c-0.314,0.053-0.471,0.08-0.785,0.136c-0.107-0.6-0.16-0.899-0.267-1.499c1.59-0.284,2.388-0.408,3.986-0.621
					C-787.989-11.09-785.95-9.431-785.752-7.029z M-790.692-3.768c0.257-0.037,0.384-0.055,0.641-0.09
					c1.84-0.251,2.344-1.637,2.201-2.973c-0.144-1.347-1.154-2.593-2.927-2.351c-0.273,0.037-0.41,0.057-0.683,0.096
					C-791.152-6.958-791-5.896-790.692-3.768z"/>
				<path fill="#E9E9EA" d="M-784.196-11.325c1.541-0.094,2.312-0.125,3.855-0.154c0.011,0.6,0.018,0.899,0.029,1.5
					c-0.333,0.006-0.5,0.01-0.833,0.019c0.061,2.158,0.091,3.236,0.152,5.394c0.313-0.009,0.469-0.012,0.783-0.018
					c0.011,0.595,0.017,0.893,0.028,1.487c-1.401,0.026-2.102,0.055-3.502,0.141c-0.037-0.594-0.054-0.89-0.091-1.484
					c0.313-0.019,0.469-0.03,0.782-0.046c-0.112-2.155-0.166-3.233-0.278-5.389c-0.333,0.017-0.501,0.027-0.834,0.047
					C-784.142-10.428-784.16-10.726-784.196-11.325z"/>
				<path fill="#E9E9EA" d="M-772.409-11.296c0,0,2.488,6.831,2.62,7.135c0.372,0.039,0.556,0.059,0.927,0.102
					c-0.069,0.596-0.104,0.894-0.173,1.49c-1.399-0.163-2.102-0.229-3.505-0.332c0.043-0.593,0.067-0.89,0.111-1.483
					c0.184,0.014,0.275,0.02,0.458,0.034c-0.125-0.311-0.229-0.619-0.369-0.942c-0.993-0.073-1.489-0.103-2.483-0.146
					c-0.157,0.358-0.234,0.538-0.388,0.896c0.184,0.007,0.276,0.011,0.46,0.02c-0.027,0.594-0.041,0.892-0.068,1.486
					c-1.215-0.056-1.824-0.072-3.04-0.083c0.005-0.6,0.008-0.9,0.014-1.5c0.373,0.003,0.56,0.005,0.933,0.013
					c0.316-0.894,3.296-6.763,3.296-6.763c0.494,0.027,0.742,0.042,1.236,0.076C-772.392-11.295-772.398-11.295-772.409-11.296z
					 M-772.791-6.827c-0.256-0.686-0.387-1.028-0.655-1.712c-0.325,0.649-0.484,0.974-0.799,1.626
					C-773.663-6.884-773.373-6.866-772.791-6.827z"/>
				<path fill="#E9E9EA" d="M-760.309-9.667c1.393,0.285,2.088,0.44,3.472,0.78c-0.143,0.583-0.215,0.873-0.358,1.456
					c-0.326-0.08-0.488-0.118-0.814-0.195c-0.634,2.69-0.952,4.034-1.586,6.724c-0.479-0.113-0.717-0.167-1.197-0.272
					c-1.113-2.396-1.722-3.587-3.045-5.943c-0.251,1.48-0.377,2.22-0.628,3.701c0.16,0.027,0.934,0.164,0.934,0.164
					c-0.107,0.59-0.162,0.886-0.269,1.476c-1.269-0.23-1.904-0.333-3.18-0.514c0.084-0.594,0.126-0.889,0.21-1.483
					c0.37,0.052,0.554,0.078,0.924,0.134c0.327-2.139,0.49-3.208,0.817-5.347c-0.394-0.06-0.589-0.089-0.983-0.145
					c0.084-0.594,0.126-0.89,0.21-1.484c1.196,0.169,1.793,0.264,2.985,0.473c1.093,2.019,1.602,3.037,2.549,5.082
					c0.253-1.172,0.38-1.758,0.634-2.931c-0.39-0.084-0.584-0.126-0.976-0.206C-760.488-8.787-760.429-9.08-760.309-9.667z"/>
				<path fill="#E9E9EA" d="M-749.145-6.624c0,0,0.685,7.259,0.736,7.587c0.354,0.136,0.53,0.204,0.883,0.343
					c-0.221,0.558-0.331,0.838-0.552,1.396c-1.332-0.527-2.002-0.776-3.35-1.244c0.195-0.562,0.293-0.843,0.488-1.405
					c0.176,0.061,0.264,0.091,0.44,0.153c-0.043-0.333-0.064-0.657-0.118-1.007c-0.954-0.331-1.432-0.49-2.392-0.792
					c-0.245,0.305-0.368,0.459-0.61,0.766c0.178,0.055,0.267,0.083,0.444,0.14c-0.179,0.567-0.269,0.85-0.448,1.417
					c-1.173-0.371-1.763-0.545-2.946-0.871c0.159-0.578,0.239-0.868,0.398-1.446c0.363,0.1,0.545,0.152,0.907,0.256
					c0.538-0.782,4.956-5.678,4.956-5.678c0.477,0.155,0.713,0.233,1.188,0.396C-749.129-6.618-749.134-6.621-749.145-6.624z
					 M-750.665-2.403c-0.075-0.729-0.115-1.095-0.202-1.826c-0.485,0.542-0.725,0.814-1.2,1.362
					C-751.504-2.687-751.224-2.593-750.665-2.403z"/>
			</g>
		</g>
	</g>
	<g>
		<path fill="#E9E9EA" d="M-701.864-90.798c-0.893,0-1.756,0.118-2.586,0.318c-8.77-28.624-38.908-49.725-74.753-49.725
			c-35.846,0-65.984,21.101-74.752,49.725c-0.831-0.201-1.693-0.318-2.586-0.318c-6.076,0-11,4.925-11,11c0,6.075,4.924,11,11,11
			c0.066,0,0.132-0.009,0.199-0.01c2.713,33.829,36.201,49.417,77.139,49.417s74.425-15.588,77.14-49.417
			c0.066,0.001,0.131,0.01,0.199,0.01c6.074,0,11-4.925,11-11C-690.864-85.873-695.79-90.798-701.864-90.798z"/>
		<g>
			<circle cx="-819.945" cy="-83.09" r="7.5"/>
			<circle fill="#FFFFFF" cx="-822.439" cy="-85.133" r="3.029"/>
		</g>
		<g>
			<circle cx="-739.445" cy="-83.09" r="7.5"/>
			<circle fill="#FFFFFF" cx="-741.939" cy="-85.133" r="3.03"/>
		</g>
		<path fill="none" stroke="#000000" stroke-width="3" stroke-linecap="round" stroke-miterlimit="10" d="M-779.203-88.163
			c0,0,0.812,8.268,4.312,12.573l-4.312,3.555"/>
		<path fill="none" stroke="#000000" stroke-width="3" stroke-linecap="round" stroke-miterlimit="10" d="M-791.472-65.327
			c0,5.106,3.842,12.917,12.318,12.917s12.827-6.482,12.827-12.827"/>
		<path fill="#B69FCC" d="M-727.389-128.534L-727.389-128.534C-727.389-128.534-727.389-128.534-727.389-128.534
			c-1.28-0.946-2.444-1.776-3.42-2.501c-1.853-1.379-4.369-2.847-7.429-4.276c-16.112-12.402-23.727-29.564-23.727-29.564
			c-3,9.667-8.751,6.667-8.751,6.667c-2.751-1-3.083-6-3.083-6c-0.5,3.5-4,6.5-6.666,4.167c-2.667-2.333-4-11.5-4-11.5
			s-1.5,18-8.334,16.833c-6.833-1.167-6.166-5.167-6.166-5.167c-0.968,10.89-16.194,21.368-24.47,26.295
			c-1.881,0.93-3.637,1.909-5.25,2.928c-0.002,0-0.012,0.005-0.012,0.005h0.002c-2.631,1.663-4.881,3.431-6.615,5.279
			c-10.324,11.001-19.127,25.778-18.646,34.889c0,0,2.813,3.335,2.813,7.39h5.5c0,0,0.5-26.445,16-36.445
			c0,0,25.348-10.674,48.515-9.841c23.166,0.833,50.819,8.674,50.819,8.674c19.667,12.667,17.667,37.612,17.667,37.612h5.332
			c0.166-4.055,2.859-7.39,2.859-7.39C-706.246-111.666-719.258-122.529-727.389-128.534z"/>
	</g>
</g>
<g>
	<g>
		<path fill="#E9E9EA" d="M-1201.051,265.753h2.438c5.939,0,10.8,4.86,10.8,10.8v32.733c0,5.939-4.86,10.8-10.8,10.8h-2.438V265.753
			z"/>
		<path fill="#E9E9EA" d="M-1279.959,265.753h-2.438c-5.94,0-10.8,4.86-10.8,10.8v32.733c0,5.939,4.859,10.8,10.8,10.8h2.438
			V265.753z"/>
		<path fill="#B69FCC" d="M-1198.613,265.753h-2.438h-78.908h-2.438c-5.94,0-10.8,4.86-10.8,10.8v5.699h13.237v54.5h78.908v-54.5
			h13.237v-5.699C-1187.813,270.613-1192.674,265.753-1198.613,265.753z"/>
		<polygon fill="#C4C4C3" points="-1279.959,336.752 -1279.959,353.419 -1279.959,393.086 -1251.169,393.086 -1251.169,353.419 
			-1229.841,353.419 -1229.841,393.086 -1201.051,393.086 -1201.051,353.419 -1201.051,336.752 		"/>
		<path d="M-1265.564,407.48c7.95,0,14.396-6.444,14.396-14.395h-28.79C-1279.959,401.036-1273.515,407.48-1265.564,407.48z"/>
		<path d="M-1215.446,407.48c7.95,0,14.396-6.444,14.396-14.395h-28.79C-1229.841,401.036-1223.396,407.48-1215.446,407.48z"/>
		<path fill="#C4C4C3" d="M-1265.564,378.691c-7.95,0-14.395,6.444-14.395,14.395h28.79
			C-1251.169,385.136-1257.614,378.691-1265.564,378.691z"/>
		<path fill="#C4C4C3" d="M-1215.446,378.691c-7.949,0-14.395,6.444-14.395,14.395h28.79
			C-1201.051,385.136-1207.496,378.691-1215.446,378.691z"/>
		<g>
			<g>
				<path fill="#5B5C5C" d="M-1266.66,289.978c0.005,1.075-0.327,2.528-2.473,3.265c-2.124,0.729-4.295-0.305-5.158-2.481
					c-0.926-2.34,0.151-4.52,2.486-5.319c0.799-0.273,1.464-0.328,1.833-0.276c-0.054-0.168-0.081-0.253-0.135-0.421
					c0.628-0.201,0.943-0.299,1.574-0.488c0.373,1.239,0.559,1.86,0.931,3.1c-0.608,0.183-0.912,0.278-1.518,0.473
					c-0.055-0.172-0.083-0.261-0.139-0.433c-0.177-0.552-0.978-0.92-2.066-0.547c-0.762,0.261-1.616,1.2-0.909,3.127
					c0.659,1.796,1.906,2.12,2.623,1.874c1.172-0.402,1.434-1.562,1.388-1.705C-1267.597,290.071-1267.284,290.038-1266.66,289.978z
					"/>
				<path fill="#5B5C5C" d="M-1257.365,288.607c0.104,0.575,0.158,0.863,0.263,1.438c-0.802,0.146-1.203,0.222-2.002,0.388
					c-0.327-0.074-1.008-0.379-1.227-1.376c-0.124-0.566-0.824-1.607-2.049-1.469c0.189,0.79,0.285,1.185,0.474,1.975
					c0.297-0.071,0.448-0.106,0.746-0.175c0.131,0.569,0.196,0.854,0.327,1.424c-1.323,0.304-1.983,0.469-3.295,0.828
					c-0.154-0.563-0.231-0.845-0.386-1.408c0.347-0.095,0.522-0.143,0.869-0.233c-0.53-2.023-0.796-3.034-1.327-5.058
					c-0.369,0.097-0.552,0.145-0.92,0.245c-0.153-0.56-0.23-0.838-0.383-1.397c1.506-0.412,2.262-0.603,3.78-0.948
					c2.024-0.461,2.909,0.711,3.108,1.724c0.168,0.854-0.406,1.818-0.383,1.994c0.032,0.242,1.002,1.148,1.168,1.99
					c0.056,0.284,0.361,0.224,0.361,0.224C-1257.891,288.705-1257.717,288.672-1257.365,288.607z M-1262.1,286.035
					c0.715-0.166,0.963-0.657,0.869-1.088s-0.498-0.795-1.104-0.655c-0.316,0.073-0.474,0.109-0.79,0.185
					c0.163,0.681,0.244,1.023,0.407,1.704C-1262.471,286.121-1262.347,286.093-1262.1,286.035z"/>
				<path fill="#5B5C5C" d="M-1256.142,281.665c1.458-0.225,2.188-0.323,3.651-0.489c0.065,0.576,0.098,0.866,0.163,1.442
					c-0.316,0.036-0.475,0.052-0.791,0.09c0.253,2.072,0.381,3.109,0.634,5.181c0.297-0.036,0.446-0.054,0.744-0.088
					c0.065,0.571,0.097,0.856,0.162,1.428c-1.333,0.151-1.999,0.241-3.326,0.446c-0.088-0.568-0.131-0.852-0.219-1.42
					c0.297-0.046,0.445-0.068,0.742-0.111c-0.3-2.065-0.451-3.1-0.751-5.165c-0.315,0.046-0.474,0.069-0.789,0.118
					C-1256.01,282.523-1256.053,282.238-1256.142,281.665z"/>
				<path fill="#5B5C5C" d="M-1241.454,280.577c1.024,0.009,1.536,0.02,2.561,0.057c-0.021,0.579-0.031,0.869-0.053,1.448
					c-0.378-0.014-0.566-0.02-0.944-0.029c-0.055,2.092-0.083,3.136-0.138,5.228c0.356,0.009,0.535,0.017,0.891,0.029
					c-0.021,0.579-0.031,0.867-0.053,1.446c-1.339-0.049-2.009-0.06-3.348-0.055c-0.002-0.579-0.003-0.868-0.005-1.448
					c0.233-0.001,0.349-0.001,0.582,0c0.003-1.049,0.005-1.574,0.008-2.622c-0.798,1.625-1.179,2.443-1.902,4.086
					c-0.354,0.007-0.532,0.011-0.886,0.021c0,0-1.742-2.983-2.418-4.095c0.062,1.098,0.095,1.646,0.157,2.744
					c0.237-0.014,0.354-0.02,0.591-0.031c0.029,0.579,0.042,0.867,0.071,1.446c-1.166,0.058-1.748,0.097-2.911,0.195
					c-0.049-0.577-0.072-0.864-0.122-1.442c0.36-0.03,0.54-0.046,0.899-0.072c-0.155-2.086-0.232-3.13-0.387-5.216
					c-0.382,0.028-0.574,0.044-0.956,0.076c-0.049-0.578-0.073-0.866-0.122-1.444c0.96-0.081,1.442-0.116,2.404-0.172
					c1.404,2.069,2.069,3.118,3.323,5.237C-1243.177,283.793-1242.625,282.715-1241.454,280.577z"/>
				<path fill="#5B5C5C" d="M-1230.125,287.244c-0.329,2.295-2.646,1.993-3.378,1.916c-0.731-0.077-1.565-0.441-1.824-1.045
					c-0.029,0.347-0.042,0.521-0.071,0.867c-0.582-0.048-0.873-0.069-1.455-0.107c0.086-1.333,0.129-1.999,0.216-3.332
					c0.605,0.039,0.909,0.063,1.514,0.113c-0.024,0.291-0.036,0.437-0.06,0.728c-0.048,0.578,0.651,1.216,1.538,1.307
					c0.745,0.076,1.655-0.121,1.707-0.548c0.088-0.726-0.486-0.962-1.803-1.501c-1.007-0.412-2.679-0.954-2.573-2.551
					c0.086-1.295,1.586-2.238,3.347-2.059c1.123,0.114,1.543,0.614,1.641,1.07c0.042-0.35,0.064-0.525,0.106-0.875
					c0.642,0.078,0.962,0.118,1.604,0.208c-0.153,1.094-0.229,1.641-0.382,2.734c-0.622-0.087-0.933-0.126-1.555-0.201
					c0.007-0.056,0.011-0.084,0.018-0.14c0.052-0.426-0.323-1.215-1.579-1.343c-0.477-0.049-1.132,0.182-1.171,0.621
					c-0.038,0.427,0.438,0.636,1.464,1.02C-1231.655,284.563-1229.835,285.224-1230.125,287.244z"/>
				<path fill="#5B5C5C" d="M-1219.937,287.555c-0.795,3.004-3.098,3.481-4.874,3.1c-1.901-0.408-3.645-1.896-3.159-4.824
					c0.465-2.803,2.818-3.775,4.911-3.325C-1221.104,282.925-1219.17,284.662-1219.937,287.555z M-1222.076,287.018
					c0.381-1.602-0.18-2.811-1.296-3.051c-1.265-0.271-2.258,0.606-2.566,2.224c-0.304,1.595,0.25,2.758,1.439,3.014
					C-1223.449,289.43-1222.452,288.597-1222.076,287.018z"/>
				<path fill="#5B5C5C" d="M-1211.873,285.776c1.289,0.455,1.933,0.694,3.208,1.199c-0.213,0.539-0.32,0.809-0.534,1.348
					c-0.3-0.119-0.452-0.178-0.753-0.294c-0.961,2.492-1.442,3.739-2.403,6.231c-0.443-0.171-0.664-0.255-1.108-0.419
					c-0.746-2.441-1.168-3.661-2.111-6.092c-0.439,1.384-0.658,2.076-1.097,3.46c0.149,0.048,0.869,0.282,0.869,0.282
					c-0.181,0.551-0.272,0.824-0.454,1.375c-1.181-0.389-1.773-0.571-2.964-0.915c0.161-0.557,0.241-0.834,0.401-1.391
					c0.346,0.1,0.519,0.148,0.863,0.252c0.601-2.004,0.901-3.006,1.502-5.01c-0.366-0.109-0.549-0.164-0.916-0.27
					c0.161-0.557,0.239-0.837,0.4-1.394c1.113,0.321,1.668,0.492,2.773,0.85c0.768,2.076,1.119,3.114,1.751,5.197
					c0.398-1.089,0.597-1.633,0.995-2.722c-0.361-0.132-0.542-0.196-0.904-0.324
					C-1212.161,286.595-1212.066,286.323-1211.873,285.776z"/>
			</g>
		</g>
		<g>
			<g>
				<path fill="#5B5C5C" d="M-1262.327,303.137c1.414,0.45,2.125,0.657,3.556,1.027c-0.15,0.58-0.225,0.871-0.375,1.451
					c-0.307-0.079-0.46-0.122-0.767-0.205c-0.565,2.084-0.848,3.127-1.413,5.211c0.331,0.09,0.496,0.131,0.827,0.217
					c-0.15,0.581-0.226,0.872-0.376,1.453c-1.608-0.417-2.408-0.648-3.997-1.154c0.182-0.571,0.273-0.854,0.455-1.426
					c0.395,0.126,0.591,0.185,0.987,0.305c0.244-0.804,0.365-1.204,0.609-2.008c-1.149-0.349-1.721-0.534-2.858-0.932
					c-0.277,0.793-0.415,1.188-0.691,1.98c0.392,0.137,0.589,0.205,0.982,0.336c-0.19,0.569-0.286,0.853-0.475,1.422
					c-1.584-0.528-2.37-0.814-3.93-1.432c0.221-0.558,0.332-0.837,0.552-1.395c0.321,0.127,0.482,0.19,0.804,0.313
					c0.771-2.017,1.157-3.025,1.928-5.042c-0.299-0.114-0.448-0.172-0.746-0.29c0.221-0.558,0.331-0.836,0.552-1.394
					c1.388,0.55,2.087,0.802,3.496,1.271c-0.189,0.569-0.285,0.856-0.475,1.426c-0.365-0.122-0.547-0.185-0.911-0.312
					c-0.237,0.68-0.356,1.019-0.593,1.698c1.114,0.389,1.674,0.572,2.8,0.913c0.209-0.688,0.313-1.033,0.522-1.722
					c-0.367-0.111-0.551-0.168-0.917-0.284C-1262.599,303.996-1262.509,303.708-1262.327,303.137z"/>
				<path fill="#5B5C5C" d="M-1251.67,305.601c0,0,2.184,6.922,2.33,7.227c0.402,0.041,0.603,0.059,1.005,0.094
					c-0.053,0.598-0.079,0.896-0.131,1.493c-1.577-0.139-2.363-0.225-3.934-0.445c0.083-0.589,0.123-0.887,0.206-1.476
					c0.198,0.027,0.297,0.042,0.495,0.068c-0.121-0.318-0.213-0.632-0.341-0.966c-1.045-0.146-1.568-0.229-2.609-0.413
					c-0.211,0.333-0.317,0.498-0.531,0.83c0.197,0.036,0.296,0.052,0.494,0.086c-0.103,0.586-0.155,0.882-0.258,1.468
					c-1.353-0.237-2.027-0.374-3.37-0.673c0.13-0.585,0.196-0.877,0.327-1.462c0.396,0.088,0.594,0.132,0.992,0.215
					c0.501-0.815,4.236-6.215,4.236-6.215c0.445,0.073,0.668,0.105,1.114,0.171C-1251.655,305.602-1251.66,305.602-1251.67,305.601z
					 M-1252.4,310.027c-0.207-0.705-0.308-1.057-0.5-1.763c-0.382,0.614-0.575,0.921-0.97,1.53
					C-1253.282,309.895-1252.989,309.94-1252.4,310.027z"/>
				<path fill="#5B5C5C" d="M-1239.368,306.264c1.221-0.045,1.831-0.08,3.049-0.18c0.049,0.603,0.073,0.906,0.122,1.509
					c-0.314,0.025-0.473,0.036-0.787,0.059c-0.149,0.011-0.139,0.139-0.139,0.139c-0.755,2.768-1.179,4.148-2.118,6.894
					c-0.555,0.019-0.832,0.026-1.386,0.035c-0.649-1.736-0.956-2.607-1.533-4.356c-0.655,1.743-1.003,2.611-1.736,4.339
					c-0.483-0.013-0.725-0.022-1.208-0.043c-0.847-2.683-1.229-4.031-1.907-6.732c0.013-0.168-0.128-0.309-0.29-0.321
					c-0.314-0.025-0.469-0.038-0.783-0.066c0.055-0.602,0.082-0.903,0.136-1.505c1.466,0.133,2.201,0.179,3.67,0.232
					c-0.022,0.604-0.034,0.907-0.056,1.511c-0.25-0.009-0.374-0.014-0.623-0.025c0.32,1.216,0.488,1.82,0.841,3.032
					c0.714-1.782,1.05-2.679,1.682-4.477c0.425,0.004,0.637,0.003,1.062,0c0.627,1.8,0.962,2.698,1.671,4.482
					c0.355-1.211,0.525-1.817,0.848-3.032c-0.185,0.008-0.278,0.013-0.463,0.02
					C-1239.336,307.173-1239.346,306.867-1239.368,306.264z"/>
				<path fill="#5B5C5C" d="M-1224.725,311.24c0.333-0.078,0.5-0.119,0.832-0.201c0.143,0.577,0.215,0.866,0.358,1.443
					c-1.611,0.399-2.421,0.576-4.047,0.887c-0.111-0.584-0.167-0.878-0.278-1.462c-1.127-0.825-1.675-1.247-2.741-2.113
					c0.16,1.01,0.237,1.514,0.396,2.523c0.336-0.053,0.504-0.079,0.84-0.136c0.1,0.587,0.15,0.879,0.25,1.466
					c-1.56,0.265-2.343,0.377-3.911,0.56c-0.069-0.591-0.104-0.887-0.172-1.478c0.338-0.039,0.505-0.06,0.843-0.103
					c-0.275-2.151-0.413-3.228-0.688-5.378c-0.313,0.04-0.47,0.062-0.783,0.098c-0.069-0.591-0.103-0.887-0.171-1.478
					c1.395-0.162,2.091-0.266,3.479-0.501c0.1,0.587,0.15,0.881,0.25,1.468c-0.312,0.053-0.468,0.079-0.78,0.128
					c0.084,0.535,0.126,0.805,0.211,1.34c0.842-0.856,1.251-1.292,2.041-2.173c-0.08-0.415-0.121-0.621-0.201-1.036
					c1.205-0.233,1.806-0.365,3.001-0.653c0.139,0.578,0.209,0.87,0.349,1.448c-0.372,0.09-0.558,0.133-0.931,0.217
					c-0.221,0.05-0.33,0.225-0.662,0.625c-0.242,0.292-1.033,1.278-1.585,1.833c1.238,0.989,1.878,1.472,3.196,2.405
					C-1225.369,311.157-1225.055,311.318-1224.725,311.24z"/>
				<path fill="#5B5C5C" d="M-1214.743,307.152c0.883,2.23-1.729,3.213-2.56,3.496c-0.83,0.283-1.902,0.311-2.42-0.157
					c0.106,0.344,0.159,0.514,0.265,0.857c-0.664,0.204-0.997,0.302-1.664,0.491c-0.376-1.329-0.564-1.994-0.941-3.323
					c0.636-0.181,0.954-0.272,1.587-0.468c0.089,0.289,0.134,0.434,0.223,0.723c0.177,0.573,1.173,0.894,2.142,0.568
					c0.814-0.273,1.66-0.907,1.508-1.325c-0.259-0.71-0.947-0.626-2.489-0.559c-1.179,0.051-3.054,0.149-3.508-1.442
					c-0.369-1.291,0.668-2.688,2.286-3.232c1.032-0.347,1.615-0.081,1.913,0.296c-0.125-0.343-0.188-0.514-0.312-0.856
					c0.587-0.214,0.88-0.323,1.464-0.551c0.416,1.063,0.623,1.595,1.038,2.658c-0.608,0.237-0.913,0.352-1.525,0.574
					c-0.02-0.055-0.029-0.081-0.049-0.136c-0.152-0.417-0.849-0.956-2.047-0.554c-0.456,0.153-0.966,0.632-0.828,1.066
					c0.134,0.423,0.668,0.444,1.809,0.351C-1217.554,305.522-1215.521,305.189-1214.743,307.152z"/>
			</g>
		</g>
	</g>
	<g>
		<path fill="#E9E9EA" d="M-1163.479,200.921c-0.893,0-1.755,0.117-2.586,0.318c-8.769-28.625-38.907-49.726-74.753-49.726
			c-35.845,0-65.983,21.101-74.753,49.726c-0.83-0.201-1.693-0.318-2.586-0.318c-6.074,0-11,4.924-11,11c0,6.074,4.926,11,11,11
			c0.068,0,0.133-0.01,0.199-0.011c2.715,33.828,36.201,49.416,77.14,49.416c40.938,0,74.426-15.588,77.14-49.416
			c0.067,0.001,0.132,0.011,0.199,0.011c6.075,0,11-4.926,11-11C-1152.479,205.845-1157.404,200.921-1163.479,200.921z"/>
		<g>
			<circle cx="-1281.561" cy="208.628" r="7.5"/>
			<circle fill="#FFFFFF" cx="-1284.055" cy="206.585" r="3.03"/>
		</g>
		<g>
			<circle cx="-1201.061" cy="208.628" r="7.5"/>
			<circle fill="#FFFFFF" cx="-1203.554" cy="206.585" r="3.03"/>
		</g>
		<path fill="none" stroke="#000000" stroke-width="3" stroke-linecap="round" stroke-miterlimit="10" d="M-1240.818,203.556
			c0,0,0.812,8.268,4.312,12.572l-4.312,3.555"/>
		<path fill="none" stroke="#000000" stroke-width="3" stroke-linecap="round" stroke-miterlimit="10" d="M-1253.087,226.392
			c0,5.105,3.842,12.916,12.318,12.916s12.827-6.481,12.827-12.826"/>
		<path fill="#604E75" d="M-1240.515,127.915c-11.729,23.599-36.259,25.295-44.533,30.223c-1.883,0.93-3.639,1.908-5.252,2.928
			l-0.01,0.005h0.002c-2.632,1.663-4.881,3.431-6.616,5.279c-10.324,11.001-19.127,25.778-18.647,34.89c0,0,2.814,3.334,2.814,7.389
			h5.5c0,0,0.5-26.445,16-36.445c0,0,25.348-10.674,48.514-9.84c23.167,0.833,50.819,8.674,50.819,8.674
			c19.667,12.667,17.667,37.611,17.667,37.611h5.333c0.166-4.055,2.858-7.389,2.858-7.389
			c-1.796-21.188-14.808-32.051-22.938-38.055h0.001c-0.001,0-0.001,0-0.001,0c-1.28-0.946-2.444-1.775-3.42-2.502
			c-1.853-1.379-4.369-2.846-7.428-4.275C-1231.076,149.082-1240.515,127.915-1240.515,127.915z"/>
	</g>
</g>
<g>
	<g>
		<path fill="#E9E9EA" d="M-749.02,268.258h2.438c5.94,0,10.8,4.86,10.8,10.8v32.733c0,5.939-4.859,10.8-10.8,10.8h-2.438V268.258z"
			/>
		<path fill="#E9E9EA" d="M-827.927,268.258h-2.438c-5.94,0-10.801,4.86-10.801,10.8v32.733c0,5.939,4.86,10.8,10.801,10.8h2.438
			V268.258z"/>
		<path fill="#333333" d="M-746.582,268.258h-2.438h-78.907h-2.438c-5.94,0-10.801,4.86-10.801,10.8v5.699h13.238v54.5h78.907v-54.5
			h13.237v-5.699C-735.782,273.118-740.642,268.258-746.582,268.258z"/>
		<polygon fill="#B69FCC" points="-827.927,339.257 -827.927,355.924 -827.927,395.591 -799.138,395.591 -799.138,355.924 
			-777.81,355.924 -777.81,395.591 -749.02,395.591 -749.02,355.924 -749.02,339.257 		"/>
		<path d="M-813.532,409.985c7.949,0,14.395-6.444,14.395-14.395h-28.789C-827.927,403.541-821.482,409.985-813.532,409.985z"/>
		<path d="M-763.415,409.985c7.951,0,14.396-6.444,14.396-14.395h-28.79C-777.81,403.541-771.364,409.985-763.415,409.985z"/>
		<path fill="#B69FCC" d="M-813.532,381.196c-7.95,0-14.395,6.444-14.395,14.395h28.789
			C-799.138,387.641-805.583,381.196-813.532,381.196z"/>
		<path fill="#B69FCC" d="M-763.415,381.196c-7.949,0-14.395,6.444-14.395,14.395h28.79
			C-749.02,387.641-755.464,381.196-763.415,381.196z"/>
		<g>
			<g>
				<path fill="#B69FCC" d="M-812.195,286.773c1.531-0.451,2.302-0.659,3.848-1.036c0.162,0.665,0.244,0.998,0.406,1.663
					c-0.458,0.111-0.688,0.17-1.146,0.288c-0.075,1.263-1.269,7.85-1.243,8.558c-0.533,0.164-0.797,0.247-1.328,0.421
					c-0.389-0.593-5.556-5.688-5.989-6.255c-0.439,0.167-0.659,0.252-1.096,0.425c-0.252-0.637-0.378-0.954-0.63-1.591
					c1.645-0.651,2.473-0.953,4.142-1.515c0.218,0.648,0.327,0.972,0.545,1.62c-0.148,0.05-0.222,0.075-0.37,0.126
					c0.648,0.689,3.132,3.495,3.132,3.495c0.152-0.039,0.69-3.631,0.782-4.725c-0.228,0.065-0.341,0.099-0.569,0.166
					C-811.904,287.758-812.002,287.43-812.195,286.773z"/>
				<path fill="#B69FCC" d="M-793.695,289.178c-0.112,1.588-0.163,2.381-0.252,3.969c-3.276,0.242-4.912,0.455-8.154,1.06
					c-0.125-0.673-0.188-1.01-0.314-1.683c0.355-0.066,0.532-0.097,0.887-0.158c-0.424-2.433-0.634-3.65-1.057-6.083
					c-0.384,0.067-0.577,0.103-0.961,0.174c-0.125-0.673-0.188-1.008-0.314-1.681c3.424-0.639,5.151-0.869,8.61-1.149
					c0.5,1.267,0.742,1.9,1.212,3.174c-0.761,0.053-1.14,0.084-1.9,0.154c-0.244-0.665-0.526-1.512-1.676-1.383
					c-1,0.112-1.501,0.175-2.499,0.317c0.117,0.818,0.176,1.229,0.293,2.047c0.525-0.075,0.788-0.11,1.314-0.177
					c-0.035-0.276-0.054-0.414-0.089-0.69c0.753-0.095,1.13-0.14,1.885-0.217c0.126,1.23,0.19,1.85,0.316,3.08
					c-0.726,0.074-1.089,0.116-1.813,0.207c-0.034-0.271-0.052-0.407-0.086-0.679c-0.515,0.064-0.773,0.1-1.287,0.173
					c0.136,0.948,0.204,1.42,0.339,2.368c1.138-0.163,1.707-0.234,2.848-0.354c0.525-0.055,0.767-1.287,0.866-2.327
					C-794.795,289.254-794.428,289.227-793.695,289.178z"/>
				<path fill="#B69FCC" d="M-780.786,291.624c-0.069,0.687-0.104,1.03-0.173,1.717c-0.966-0.099-1.449-0.139-2.417-0.205
					c-0.351-0.188-1.035-0.752-0.97-1.954c0.037-0.684-0.443-2.09-1.909-2.31c-0.027,0.958-0.041,1.435-0.067,2.393
					c0.365,0.011,0.548,0.017,0.913,0.031c-0.027,0.689-0.042,1.035-0.069,1.725c-1.61-0.065-2.416-0.075-4.026-0.053
					c-0.01-0.689-0.015-1.037-0.024-1.727c0.428-0.006,0.641-0.006,1.068-0.006c0-2.47,0.002-3.705,0.003-6.174
					c-0.462,0-0.694,0.001-1.156,0.008c-0.009-0.685-0.015-1.024-0.024-1.709c1.901-0.026,2.853-0.013,4.752,0.068
					c2.531,0.108,3.188,1.734,3.087,2.948c-0.084,1.022-1.069,1.938-1.099,2.14c-0.041,0.281,0.788,1.623,0.705,2.634
					c-0.028,0.341,0.34,0.374,0.34,0.374C-781.425,291.562-781.211,291.581-780.786,291.624z M-785.439,287.187
					c0.886,0.033,1.333-0.446,1.361-0.966c0.028-0.519-0.326-1.063-1.081-1.093c-0.394-0.016-0.593-0.024-0.987-0.035
					c-0.023,0.826-0.035,1.24-0.059,2.066C-785.898,287.168-785.746,287.175-785.439,287.187z"/>
				<path fill="#B69FCC" d="M-766.86,291.166c-0.751,2.646-3.405,3.996-5.967,3.444c-1.638-0.353-2.461-0.507-4.112-0.766
					c0.106-0.682,0.16-1.022,0.267-1.704c0.339,0.053,0.509,0.082,0.848,0.139c0.407-2.419,0.609-3.624,1.018-6.043
					c-0.366-0.062-0.549-0.093-0.916-0.15c0.108-0.687,0.162-1.03,0.271-1.717c1.865,0.293,2.795,0.464,4.645,0.862
					C-767.696,285.901-766.108,288.52-766.86,291.166z M-773.516,292.706c0.292,0.059,0.437,0.087,0.729,0.148
					c2.09,0.44,3.185-0.836,3.557-2.322c0.376-1.5-0.246-3.243-2.292-3.675c-0.315-0.066-0.474-0.1-0.79-0.163
					C-772.794,289.099-773.034,290.301-773.516,292.706z"/>
				<path fill="#B69FCC" d="M-761.894,287.715c1.735,0.58,2.598,0.893,4.307,1.569c-0.252,0.637-0.378,0.954-0.63,1.591
					c-0.368-0.146-0.552-0.219-0.921-0.359c-0.879,2.301-1.319,3.453-2.198,5.754c0.341,0.131,0.511,0.197,0.852,0.332
					c-0.25,0.631-0.375,0.947-0.625,1.578c-1.514-0.6-2.278-0.878-3.815-1.392c0.215-0.644,0.324-0.967,0.539-1.61
					c0.345,0.115,0.517,0.172,0.861,0.291c0.808-2.327,1.212-3.486,2.021-5.813c-0.372-0.129-0.558-0.195-0.931-0.32
					C-762.219,288.686-762.111,288.364-761.894,287.715z"/>
			</g>
		</g>
	</g>
	<g>
		<path fill="#E9E9EA" d="M-711.438,202.626c-0.893,0-1.756,0.117-2.586,0.318c-8.77-28.624-38.908-49.725-74.753-49.725
			s-65.983,21.101-74.753,49.725c-0.83-0.201-1.693-0.318-2.586-0.318c-6.074,0-11,4.925-11,11c0,6.074,4.926,11,11,11
			c0.068,0,0.133-0.009,0.199-0.01c2.715,33.828,36.201,49.416,77.14,49.416c40.938,0,74.425-15.588,77.14-49.416
			c0.066,0.001,0.131,0.01,0.199,0.01c6.074,0,11-4.926,11-11C-700.438,207.551-705.364,202.626-711.438,202.626z"/>
		<path fill="none" stroke="#000000" stroke-width="3" stroke-linecap="round" stroke-miterlimit="10" d="M-788.777,205.261
			c0,0,0.812,8.269,4.312,12.573l-4.312,3.555"/>
		<g>
			<path fill="#FFFFFF" d="M-776.205,241.104c0,6.346-4.351,12.827-12.827,12.827s-12.318-7.812-12.318-12.917
				c2.218,2.538,6.267,4.654,12.506,4.654C-782.84,245.668-778.65,243.427-776.205,241.104z"/>
			<path fill="none" stroke="#000000" stroke-width="3" stroke-linecap="round" stroke-miterlimit="10" d="M-801.351,241.014
				c2.218,2.538,6.267,4.654,12.506,4.654c6.005,0,10.194-2.241,12.64-4.564"/>
			<path fill="none" stroke="#000000" stroke-width="3" stroke-linecap="round" stroke-miterlimit="10" d="M-801.351,241.014
				c0,5.105,3.842,12.917,12.318,12.917s12.827-6.481,12.827-12.827"/>
		</g>
		<path fill="#E9E9EA" d="M-711.638,224.615c0.066,0.001,0.131,0.011,0.199,0.011c6.074,0,11-4.926,11-11c0-6.076-4.926-11-11-11
			c-0.893,0-1.756,0.117-2.586,0.318l-5.525,12.45L-711.638,224.615z"/>
		<path fill="#E9E9EA" d="M-865.916,224.615c-0.066,0.001-0.131,0.011-0.199,0.011c-6.074,0-11-4.926-11-11c0-6.076,4.926-11,11-11
			c0.893,0,1.756,0.117,2.586,0.318l5.525,12.45L-865.916,224.615z"/>
		<circle fill="#C4C4C3" cx="-834.645" cy="236.992" r="9.595"/>
		<circle fill="#C4C4C3" cx="-742.4" cy="236.992" r="9.595"/>
		<path fill="#604E75" d="M-866.216,170.621c-22.223,21.149-24.334,70.333-6,91.667c18.334,21.333,2.333,36.333-8,38
			c-10.333,1.666-19.334-9.334-19.334-9.334c0.396,3.443,1.352,6.446,2.728,9.068c-2.298-1.246-4.663-2.779-5.65-4.242
			c0,0,4.06,8.138,10.563,10.582c1.052,0.96,2.184,1.832,3.389,2.613c-4.779,3.223-11.028,3.232-11.028,3.232
			c21.871,4.82,29.543,3.684,32.228,2.422c0.044,0.001,0.088,0.002,0.131,0.003c-6.029,5.187-15.043,5.575-15.043,5.575
			c15.602-0.252,24.275-3.078,29.048-5.824c-3.5,4.729-7.381,7.491-7.381,7.491c6.907-1.829,11.89-7.023,15.076-11.569
			c0.249-0.113,0.495-0.229,0.737-0.348c-1.121,7.074-2.813,8.917-2.813,8.917c7.493-7.067,11.745-14.213,14.116-19.517
			c1.328-2.516,2.225-5.242,2.737-8.047c0.056-0.271,0.08-0.419,0.08-0.419s-0.004,0.002-0.005,0.002
			c2.012-11.918-2.79-25.031-10.526-28.589c-11.635-5.352-33.218-30.908-22.365-59.361c9.969-26.136,31.093-24.861,41.511-29.656
			c10.137-4.667,17.804-17.667,17.804-17.667C-817.883,140.954-843.377,148.886-866.216,170.621z"/>
		<path fill="#604E75" d="M-746.931,297.431c-0.075,12.131,5.55,21.568,17.363,32.11c0,0-1.79-4.335,3.293-7.784
			c0.05,0.024,0.098,0.05,0.147,0.074c2.565,4.865,9.68,11.211,29.393,10.377c0,0-5.979-0.935-10.978-5.67
			c5.228,1.792,15.366,3.506,31.978-0.363c0,0-9.593,0.265-8.694-6.748c13.529-8.509,9.918-19.139,9.918-19.139s-4,8.999-16,8.999
			s-31.332-16.667-16.666-52.333s12.495-75.284-14.373-98c-17.742-15-44.627-27-74.627-17.334c0,0-24.965,11-16.982,23.334
			s22.943-1.666,44.315,0c12.527,0.977,45.949,10.863,55.192,37.99c8.352,24.51-6.813,49.141-15.473,54.742
			C-736.014,262.145-746.881,285.312-746.931,297.431z"/>
		<path fill="none" stroke="#000000" stroke-width="3" stroke-linecap="round" stroke-miterlimit="10" d="M-841.65,203.868
			c0,2.075,1.561,5.25,5.006,5.25s5.214-2.635,5.214-5.213"/>
		<path fill="none" stroke="#000000" stroke-width="3" stroke-linecap="round" stroke-miterlimit="10" d="M-836.541,199.078
			c0,2.075,1.561,5.25,5.006,5.25c1.54,0,2.744-0.526,3.605-1.338"/>
		<path fill="none" stroke="#000000" stroke-width="3" stroke-linecap="round" stroke-miterlimit="10" d="M-736.625,199.078
			c0,2.075-1.561,5.25-5.006,5.25c-1.539,0-2.744-0.526-3.605-1.338"/>
		<path fill="none" stroke="#000000" stroke-width="3" stroke-linecap="round" stroke-miterlimit="10" d="M-741.813,203.868
			c0,2.075,1.561,5.25,5.006,5.25s5.214-2.635,5.214-5.213"/>
		<g>
			<circle cx="-826.931" cy="206.593" r="7.5"/>
			<circle fill="#FFFFFF" cx="-829.425" cy="204.55" r="3.03"/>
		</g>
		<g>
			<circle cx="-746.431" cy="206.593" r="7.5"/>
			<circle fill="#FFFFFF" cx="-748.925" cy="204.55" r="3.03"/>
		</g>
	</g>
</g>
<path fill="#9B85B5" d="M-279.839,207.971c-7.95,0-14.395,6.444-14.395,14.395v16h28.79v-16
	C-265.443,214.415-271.889,207.971-279.839,207.971z"/>
<path fill="#5B5C5C" d="M-215.344,125.427h-78.76c2.379,5.5-0.799,10.999-0.343,16.499h0.213v54.5h78.908v-54.5h0.558
	C-217.044,136.426-215.446,130.927-215.344,125.427z"/>
<g>
	<ellipse fill="#A28BBB" cx="-268.972" cy="156.768" rx="2.365" ry="6.75"/>
	<polygon fill="#A28BBB" points="-242.207,179.643 -247.589,174.643 -247.589,163.518 -242.207,168.518 	"/>
	<rect x="-268.972" y="163.518" fill="#A893C0" width="21.383" height="11.125"/>
	<rect x="-268.972" y="150.018" fill="#B69FCC" width="21.383" height="13.5"/>
	<path fill="#A28BBB" d="M-247.589,150.018c-1.307,0.002-2.364,3.023-2.364,6.75s1.058,6.748,2.364,6.75V150.018z"/>
	<path fill="#C4C4C3" d="M-251.813,158.509l2.758-2.688l-1.422-1.36h-1.796l1.378-1.344l-2.58-2.469h-5.414l-2.579,2.468
		l1.378,1.345h-1.87l-1.422,1.359l2.757,2.689c-3.018,1.588-5.077,4.749-5.077,8.395c0,5.238,4.246,9.484,9.484,9.484
		s9.484-4.246,9.484-9.484C-246.734,163.257-248.794,160.096-251.813,158.509z M-252.432,158.21c-0.908-0.396-1.89-0.654-2.92-0.747
		l1.077-1.051L-252.432,158.21z M-258.125,156.376l1.11,1.083c-1.057,0.088-2.063,0.347-2.993,0.753L-258.125,156.376z
		 M-256.218,174.263c-4.064,0-7.359-3.295-7.359-7.359c0-4.063,3.295-7.359,7.359-7.359s7.359,3.296,7.359,7.359
		C-248.859,170.968-252.154,174.263-256.218,174.263z"/>
	<polygon fill="#A28BBB" points="-263.589,179.643 -268.972,174.643 -268.972,163.518 -263.589,168.518 	"/>
	<rect x="-263.589" y="168.518" fill="#B69FCC" width="21.383" height="11.125"/>
	<polygon fill="#FFFFFF" points="-256.218,140.711 -255.827,152.187 -248.764,143.133 -255.192,152.647 -244.157,149.474 
		-254.95,153.393 -244.157,157.312 -255.192,154.139 -248.764,163.653 -255.827,154.599 -256.218,166.075 -256.61,154.599 
		-263.672,163.653 -257.245,154.139 -268.28,157.312 -257.487,153.393 -268.28,149.474 -257.245,152.647 -263.672,143.133 
		-256.61,152.187 	"/>
</g>
<path fill="#E9E9EA" d="M-296.672,125.427h2.438v25.466h0.039l28.725,20.714l-1.427,1.977c-3.472,4.819-11.151,5.271-17.062,1.01
	l-17.978-12.965c0,0-5.534-3.902-5.534-10.735v-14.666C-307.471,130.287-302.611,125.427-296.672,125.427z"/>
<g>
	<path fill="#E9E9EA" d="M-177.745,60.045c-0.893,0-1.755,0.118-2.586,0.318c-8.769-28.624-38.907-49.725-74.752-49.725
		s-65.984,21.101-74.752,49.725c-0.831-0.201-1.693-0.318-2.586-0.318c-6.075,0-11,4.925-11,11c0,6.075,4.925,11,11,11
		c0.067,0,0.132-0.009,0.199-0.01c2.714,33.829,36.201,49.417,77.139,49.417s74.425-15.588,77.139-49.417
		c0.067,0.001,0.132,0.01,0.199,0.01c6.075,0,11-4.925,11-11C-166.745,64.97-171.67,60.045-177.745,60.045z"/>
	<g>
		<circle cx="-295.826" cy="67.753" r="7.5"/>
		<circle fill="#FFFFFF" cx="-298.32" cy="65.71" r="3.03"/>
	</g>
	<g>
		<circle cx="-215.325" cy="67.753" r="7.5"/>
		<circle fill="#FFFFFF" cx="-217.82" cy="65.71" r="3.03"/>
	</g>
	<path fill="#B69FCC" d="M-206.688,19.808c-7.167-5.333-24.172-11.994-44.658-12.637c-22.176-0.696-49.676,7.471-59.842,18.304
		c-10.324,11.001-19.127,25.778-18.647,34.889c0,0,2.813,3.335,2.813,7.39h5.5c0,0,0.5-26.445,16-36.445c0,0,7.5-0.833,10.167,4.833
		c0,0,4.227-3.333,2.03-6.5c0,0,24.428-4.833,39.928,10.792c0,0,3.125-5.542,0.875-7.542c0,0,16.125,0.667,22.375,7.917
		c0,0,0.875-2.417,0-5c-0.445-1.313,23.625-1.875,29.75,7.25c0,0,0.667-8.583-5.791-12.917
		c19.666,12.667,17.666,37.612,17.666,37.612h5.333c0.166-4.055,2.858-7.39,2.858-7.39
		C-182.409,35.839-199.522,25.141-206.688,19.808z"/>
	<path fill="none" stroke="#000000" stroke-width="3" stroke-linecap="round" stroke-miterlimit="10" d="M-255.083,62.68
		c0,0,0.811,8.268,4.311,12.573l-4.311,3.555"/>
	<path fill="none" stroke="#000000" stroke-width="3" stroke-linecap="round" stroke-miterlimit="10" d="M-267.353,85.516
		c0,5.106,3.842,12.917,12.319,12.917s12.827-6.482,12.827-12.827"/>
</g>
<path fill="#5B5C5C" d="M-294.104,125.427h-0.13h-2.438c-5.94,0-10.8,4.86-10.8,10.8v5.699h13.024
	C-294.902,136.426-291.725,130.927-294.104,125.427z"/>
<path fill="#E9E9EA" d="M-212.887,125.427h-2.438v25.466h-0.039l-28.725,20.714l1.427,1.977c3.472,4.819,11.151,5.271,17.062,1.01
	l17.978-12.965c0,0,5.534-3.902,5.534-10.735v-14.666C-202.088,130.287-206.947,125.427-212.887,125.427z"/>
<g>
	<path fill="#E9E9EA" d="M144.854,138.736h2.438c5.939,0,10.799,4.86,10.799,10.8v32.733c0,5.939-4.859,10.8-10.799,10.8h-2.438
		V138.736z"/>
	<path fill="#E9E9EA" d="M65.945,138.736h-2.438c-5.939,0-10.801,4.86-10.801,10.8v32.733c0,5.939,4.861,10.8,10.801,10.8h2.438
		V138.736z"/>
	<path fill="#333333" d="M147.291,138.736h-2.438H65.945h-2.438c-5.939,0-10.801,4.86-10.801,10.8v5.699h13.238v54.5h78.908v-54.5
		h13.236v-5.699C158.09,143.597,153.23,138.736,147.291,138.736z"/>
	<polygon fill="#B69FCC" points="65.945,209.735 65.945,226.402 65.945,266.069 94.734,266.069 94.734,226.402 116.063,226.402 
		116.063,266.069 144.854,266.069 144.854,226.402 144.854,209.735 	"/>
	<path d="M80.34,280.464c7.949,0,14.395-6.444,14.395-14.395H65.945C65.945,274.02,72.391,280.464,80.34,280.464z"/>
	<path d="M130.457,280.464c7.951,0,14.396-6.444,14.396-14.395h-28.791C116.063,274.02,122.508,280.464,130.457,280.464z"/>
	<path fill="#B69FCC" d="M80.34,251.675c-7.949,0-14.395,6.444-14.395,14.395h28.789C94.734,258.119,88.289,251.675,80.34,251.675z"
		/>
	<path fill="#B69FCC" d="M130.457,251.675c-7.949,0-14.395,6.444-14.395,14.395h28.791
		C144.854,258.119,138.408,251.675,130.457,251.675z"/>
	<g>
		<path fill="#604E75" d="M209.156,154.842c0,0-3.637,8.182-14.546,8.182s-28.484-15.152-15.151-47.578
			c8.184-19.902,10.588-41.154,5.585-59.379l-0.001-0.043l-0.013-0.012c-3.152-11.444-9.22-21.696-18.639-29.659
			c-16.13-13.637-40.571-24.547-67.845-15.758c0,0-7.768,3.427-12.761,8.515c-13.05-6.99-32.89,0.697-50.913,17.85
			C14.67,56.185,12.75,100.9,29.418,120.295s2.121,33.031-7.273,34.547c-9.394,1.515-17.576-8.485-17.576-8.485
			c1.758,15.297,15.35,21.298,29.09,21.521l-0.008,0.019c0,0,0.115-0.005,0.321-0.013c2.198,0.021,4.394-0.104,6.546-0.363
			c0.852-0.057,1.764-0.12,2.728-0.192c-4.191,7.426-7.056,9.017-8.501,9.248c11.435,1.022,26.733-3.394,36.965-7.015
			c-1.83,5-3.348,6.415-4.202,6.785c16.376-1.794,25.921-8.65,31.314-14.854l0.163-0.112c1.871,6.071,5.689,14.591,12.773,17.039
			c0,0-2.445-4.873-2.127-9.573c6.099,4.875,14.312,9.043,24.854,9.531c0,0-6.359-4.706-9.247-11.549
			c9.68,7.49,25.842,16.881,46.066,16.881c0,0-3.325-0.181-5.742-5.894c3.72,0.54,7.521,0.753,11.336,0.486l-0.002-0.007
			c4.903,0.307,10.064-0.326,15.29-2.24C213.702,168.176,209.156,154.842,209.156,154.842z"/>
		<path fill="#604E75" d="M67.507,176.346c-0.254,0.028-0.494,0.065-0.751,0.091C66.756,176.437,67.027,176.555,67.507,176.346z"/>
		<path fill="#604E75" d="M34.744,176.575c-0.365-0.032-0.735-0.06-1.094-0.104C33.65,176.471,34.021,176.691,34.744,176.575z"/>
	</g>
</g>
<path fill="#5B5C5C" d="M-202.089,136.227c0-5.939-4.859-10.8-10.799-10.8h-2.438h-0.019c-0.103,5.5-1.7,10.999,0.576,16.499h12.679
	V136.227z"/>
<rect x="-295.958" y="125.427" fill="#5B5C5C" width="6.125" height="16.499"/>
<rect x="-219.046" y="125.427" fill="#5B5C5C" width="6.125" height="16.499"/>
<g>
	<path fill="#B69FCC" d="M541.807-49.059c0-33.343-32.459-60.373-72.5-60.373s-72.5,27.03-72.5,60.373
		c0,33.343,32.459,60.373,72.5,60.373c1.515,0,3.014-0.051,4.505-0.127c1.423,7.44-2.765,14.947-23.005,17.382
		c0,0,44.999,7.442,63.143-30.076C530.9-12.559,541.807-29.743,541.807-49.059z"/>
	<text transform="matrix(1 0 0 1 405.5918 -29.0146)" fill="#604E75" font-family="'Cubano-Regular'" font-size="55.7451">OMG!</text>
</g>
</svg>
