<?xml version="1.0" encoding="utf-8"?>
<!-- Generator: Adobe Illustrator 15.0.0, SVG Export Plug-In . SVG Version: 6.00 Build 0)  -->
<!DOCTYPE svg PUBLIC "-//W3C//DTD SVG 1.1//EN" "http://www.w3.org/Graphics/SVG/1.1/DTD/svg11.dtd">
<svg version="1.1" id="Layer_1" xmlns="http://www.w3.org/2000/svg" xmlns:xlink="http://www.w3.org/1999/xlink" x="0px" y="0px"
	 width="151.333px" height="147.333px" viewBox="0 0 151.333 147.333" enable-background="new 0 0 151.333 147.333"
	 xml:space="preserve">
<g>
	<path fill="#B69FCC" d="M148.474,63.717c0-33.343-32.459-60.373-72.5-60.373s-72.5,27.03-72.5,60.373
		c0,33.343,32.459,60.374,72.5,60.374c1.515,0,3.014-0.051,4.505-0.127c1.423,7.439-2.766,14.947-23.005,17.382
		c0,0,44.999,7.442,63.144-30.076C137.567,100.217,148.474,83.034,148.474,63.717z"/>
	<g enable-background="new    ">
		<path fill="#604E75" d="M42.47,71.22c0,3.68-0.781,13.545-13.991,13.545S14.488,74.9,14.488,71.22V57.286
			c0-3.679,0.78-13.545,13.991-13.545S42.47,53.607,42.47,57.286V71.22z M32.883,60.24c0-4.292-0.279-6.912-4.404-6.912
			c-4.125,0-4.403,2.62-4.403,6.912v8.026c0,4.292,0.279,6.912,4.403,6.912c4.125,0,4.404-2.62,4.404-6.912V60.24z"/>
		<path fill="#604E75" d="M60.699,44.744c1.003,0,1.561,0.558,1.784,1.505l3.958,16.221c0.111,0.558,0.558,0.558,0.669,0
			l3.958-16.221c0.223-0.947,0.78-1.505,1.784-1.505h11.539c1.114,0,1.672,0.558,1.672,1.673V82.09c0,1.059-0.558,1.672-1.672,1.672
			h-6.243c-1.06,0-1.673-0.613-1.673-1.672V60.128c0-0.391-0.501-0.446-0.613-0.056l-5.407,22.24
			c-0.223,0.947-0.836,1.449-1.839,1.449h-3.679c-1.003,0-1.617-0.502-1.839-1.449l-5.407-22.24
			c-0.111-0.391-0.613-0.335-0.613,0.056V82.09c0,1.059-0.558,1.672-1.672,1.672h-6.243c-1.115,0-1.672-0.613-1.672-1.672V46.417
			c0-1.115,0.557-1.673,1.672-1.673H60.699z"/>
		<path fill="#604E75" d="M91.081,57.286c0-3.679,0.78-13.545,13.99-13.545c11.706,0,13.657,7.692,13.936,12.04
			c0.057,1.003-0.445,1.616-1.449,1.839l-6.299,1.394c-1.114,0.224-1.728-0.278-1.839-1.449c-0.224-2.675-1.171-4.236-4.349-4.236
			c-4.124,0-4.402,2.62-4.402,6.912v8.026c0,4.292,0.278,6.912,4.402,6.912c4.125,0,4.404-2.62,4.404-5.352h-3.232
			c-1.06,0-1.673-0.612-1.673-1.672v-4.459c0-1.115,0.613-1.672,1.673-1.672h11.147c1.114,0,1.673,0.557,1.673,1.672v7.524
			c0,3.68-0.781,13.545-13.992,13.545c-13.21,0-13.99-9.865-13.99-13.545V57.286z"/>
		<path fill="#604E75" d="M134.672,44.744c1.114,0,1.728,0.558,1.672,1.673l-1.115,23.41c-0.056,1.06-0.557,1.673-1.672,1.673
			h-6.243c-1.06,0-1.616-0.613-1.673-1.673l-1.114-23.41c-0.056-1.115,0.613-1.673,1.673-1.673H134.672z M133.557,74.175
			c1.115,0,1.672,0.557,1.672,1.672v6.243c0,1.059-0.557,1.672-1.672,1.672h-6.243c-1.06,0-1.673-0.613-1.673-1.672v-6.243
			c0-1.115,0.613-1.672,1.673-1.672H133.557z"/>
	</g>
</g>
</svg>
