<?xml version="1.0" encoding="utf-8"?>
<!-- Generator: Adobe Illustrator 15.0.0, SVG Export Plug-In . SVG Version: 6.00 Build 0)  -->
<!DOCTYPE svg PUBLIC "-//W3C//DTD SVG 1.1//EN" "http://www.w3.org/Graphics/SVG/1.1/DTD/svg11.dtd">
<svg version="1.1" id="Layer_1" xmlns="http://www.w3.org/2000/svg" xmlns:xlink="http://www.w3.org/1999/xlink" x="0px" y="0px"
	 width="361px" height="288.227px" viewBox="0 0 361 288.227" enable-background="new 0 0 361 288.227" xml:space="preserve">
<g>
	<path fill="#332D44" d="M344.292,247.402c-0.513,8.853-8.106,15.617-16.959,15.104L65.094,247.356
		c-8.854-0.513-15.619-8.104-15.107-16.96L61.71,27.488c0.512-8.854,8.104-15.617,16.959-15.106l262.238,15.15
		c8.854,0.511,15.618,8.104,15.105,16.959L344.292,247.402z"/>
	<path fill="#6B5A84" d="M338.048,242.542c-0.489,8.462-7.747,14.927-16.21,14.438L71.188,242.5
		c-8.463-0.49-14.929-7.748-14.44-16.209L67.953,32.348c0.49-8.465,7.747-14.929,16.211-14.439l250.65,14.481
		c8.464,0.488,14.927,7.745,14.438,16.209L338.048,242.542z"/>
</g>
<g>
	<path fill="#4C3F60" d="M328.546,255.967c-0.808,8.831-8.623,15.338-17.454,14.53L49.504,246.605
		c-8.832-0.808-15.339-8.62-14.533-17.453L53.459,26.748c0.807-8.833,8.621-15.338,17.454-14.532L332.5,36.107
		c8.831,0.806,15.339,8.621,14.531,17.454L328.546,255.967z"/>
	<path fill="#7D6B96" d="M322.467,250.901c-0.771,8.44-8.24,14.66-16.682,13.889L55.757,241.955
		c-8.441-0.772-14.662-8.241-13.89-16.682L59.536,31.813c0.771-8.443,8.241-14.661,16.683-13.89l250.029,22.836
		c8.441,0.771,14.659,8.239,13.889,16.682L322.467,250.901z"/>
</g>
<g>
	<g>
		<path fill="#E9E9EA" d="M-894.01,165.586h2.438c5.94,0,10.8,4.86,10.8,10.8v32.733c0,5.939-4.859,10.8-10.8,10.8h-2.438V165.586z"
			/>
		<path fill="#E9E9EA" d="M-972.917,165.586h-2.438c-5.94,0-10.801,4.86-10.801,10.8v32.733c0,5.939,4.86,10.8,10.801,10.8h2.438
			V165.586z"/>
		<path fill="#604E75" d="M-891.572,165.586h-2.438h-78.907h-2.438c-5.94,0-10.801,4.86-10.801,10.8v5.699h13.238v54.5h78.907v-54.5
			h13.237v-5.699C-880.772,170.446-885.632,165.586-891.572,165.586z"/>
		<polygon fill="#5B5C5C" points="-972.917,236.585 -972.917,253.252 -972.917,292.919 -944.128,292.919 -944.128,253.252 
			-922.8,253.252 -922.8,292.919 -894.01,292.919 -894.01,253.252 -894.01,236.585 		"/>
		<path d="M-958.522,307.313c7.949,0,14.395-6.444,14.395-14.395h-28.789C-972.917,300.869-966.473,307.313-958.522,307.313z"/>
		<path d="M-908.405,307.313c7.951,0,14.396-6.444,14.396-14.395h-28.79C-922.8,300.869-916.354,307.313-908.405,307.313z"/>
		<path fill="#5B5C5C" d="M-958.522,278.524c-7.95,0-14.395,6.444-14.395,14.395h28.789
			C-944.128,284.969-950.573,278.524-958.522,278.524z"/>
		<path fill="#5B5C5C" d="M-908.405,278.524c-7.949,0-14.395,6.444-14.395,14.395h28.79
			C-894.01,284.969-900.454,278.524-908.405,278.524z"/>
		<g>
			<g>
				<path fill="#B69FCC" d="M-952.42,184.447c0.692-0.213,1.112-0.066,1.253,0.42c1.805,6.228,2.707,9.34,4.511,15.567
					c0.134,0.462-0.044,0.804-0.547,0.959c-1.107,0.341-1.656,0.526-2.746,0.937c-0.471,0.178-0.844,0.029-1.021-0.418
					c-2.387-6.029-3.579-9.044-5.967-15.073c-0.187-0.472,0.093-0.854,0.74-1.098C-954.698,185.177-953.942,184.916-952.42,184.447z
					"/>
				<path fill="#B69FCC" d="M-943.081,182.312c0.71-0.108,1.1,0.096,1.168,0.598c0.533,3.936,0.798,5.905,1.332,9.841
					c0.262,1.934,0.559,3.051,2.638,2.861s2.166-1.344,2.073-3.293c-0.188-3.967-0.282-5.953-0.47-9.92
					c-0.024-0.506,0.357-0.776,1.038-0.798c1.604-0.05,2.407-0.05,4.011,0c0.715,0.022,1.06,0.294,1.036,0.8
					c-0.214,4.504-0.32,6.754-0.533,11.258c-0.079,1.67-0.667,5.736-6.759,6.291c-6.091,0.555-7.427-3.329-7.808-4.957
					c-1.027-4.39-1.541-6.585-2.567-10.975c-0.115-0.493,0.212-0.833,0.881-0.978C-945.465,182.699-944.672,182.554-943.081,182.312
					z"/>
				<path fill="#B69FCC" d="M-918.007,183.394c6.239,1.512,7.922,4.529,6.393,8.392s-4.181,4.657-9.253,3.428
					c-0.547-0.133-0.822-0.196-1.372-0.314c-0.543-0.116-0.909,0.071-1.006,0.568c-0.313,1.591-0.469,2.387-0.782,3.978
					c-0.098,0.497-0.402,0.693-0.917,0.601c-1.153-0.207-1.732-0.294-2.892-0.429c-0.492-0.058-0.751-0.36-0.704-0.84
					c0.641-6.443,0.962-9.663,1.605-16.106c0.05-0.504,0.431-0.724,1.147-0.666C-922.654,182.368-921.091,182.646-918.007,183.394z
					 M-919.656,191.022c1.479,0.363,2.252,0.444,2.688-1.064s-0.297-1.895-1.865-2.28c-0.706-0.174-1.062-0.256-1.771-0.408
					c-0.624-0.134-1.036,0.048-1.134,0.545c-0.148,0.756-0.222,1.131-0.37,1.887c-0.093,0.473,0.195,0.812,0.783,0.938
					C-920.657,190.782-920.322,190.858-919.656,191.022z"/>
			</g>
		</g>
	</g>
	<g>
		<path fill="#E9E9EA" d="M-856.429,100.954c-0.893,0-1.756,0.118-2.586,0.318c-8.77-28.624-38.908-49.726-74.753-49.726
			s-65.983,21.102-74.753,49.726c-0.83-0.2-1.693-0.318-2.586-0.318c-6.074,0-11,4.925-11,11s4.926,11,11,11
			c0.068,0,0.133-0.009,0.199-0.011c2.715,33.829,36.201,49.417,77.14,49.417c40.938,0,74.425-15.588,77.14-49.417
			c0.066,0.002,0.131,0.011,0.199,0.011c6.074,0,11-4.925,11-11S-850.354,100.954-856.429,100.954z"/>
		<path fill="none" stroke="#000000" stroke-width="3" stroke-linecap="round" stroke-miterlimit="10" d="M-933.768,103.59
			c0,0,0.812,8.268,4.312,12.572l-4.312,3.555"/>
		<path fill="none" stroke="#000000" stroke-width="3" stroke-linecap="round" stroke-miterlimit="10" d="M-946.036,126.425
			c0,5.106,3.842,12.917,12.318,12.917s12.827-6.482,12.827-12.827"/>
		<path fill="#604E75" d="M-983.099,180.663c4.591-11.506-4.857-20.418-10.387-24.648c-8.191-6.268-23.824-30.232-15.473-54.742
			c9.243-27.128,42.665-37.013,55.192-37.99c21.372-1.667,36.333,12.333,44.315,0s-16.982-23.333-16.982-23.333
			c-30-9.668-56.885,2.333-74.627,17.333c-26.868,22.716-31.902,63.65-14.373,98c5.55,10.875,8.467,16.334-1.2,21.167
			c0,0-5.5,3.833-7.5,0.667c0,0-0.167,4.333,7,5c0,0-1.333,3.05-4.333,2.107c0,0,3.812,1.742,6.771,0.434
			c0,0-0.375,1.813-2.75,1.875C-1020.031,186.601-989.831,197.536-983.099,180.663z"/>
		<path fill="#604E75" d="M-883.245,183.949c-10.229-10.833-3.265-19.167,1.801-23.315c9.908-8.114,33.218-30.908,22.365-59.361
			c-9.969-26.136-31.093-24.86-41.511-29.657c-10.137-4.666-17.804-17.666-17.804-17.666c13.667-14.666,39.161-6.734,62,15
			c22.223,21.148,20.735,67.705,6,91.667c-5.739,9.333-2.333,15.333,8,17c0,0,5.095,1.76,7.095-0.537s-1.333,4.37-5.5,4.37
			s-1.499,1.499,2.167,1.833c0,0-2.927,1.5-6.797,1.334c0,0-1.037,0.666,0.963,1.5C-844.466,186.116-874.03,193.708-883.245,183.949
			z"/>
		<path fill="#E9E9EA" d="M-856.628,122.943c0.066,0.002,0.131,0.01,0.199,0.01c6.074,0,11-4.925,11-11c0-6.074-4.926-11-11-11
			c-0.893,0-1.756,0.118-2.586,0.318l-5.525,12.451L-856.628,122.943z"/>
		<path fill="#E9E9EA" d="M-1010.906,122.943c-0.066,0.002-0.131,0.01-0.199,0.01c-6.074,0-11-4.925-11-11c0-6.074,4.926-11,11-11
			c0.893,0,1.756,0.118,2.586,0.318l5.525,12.451L-1010.906,122.943z"/>
		<circle fill="#C4C4C3" cx="-979.635" cy="135.32" r="9.595"/>
		<circle fill="#C4C4C3" cx="-887.391" cy="135.32" r="9.595"/>
		<path fill="none" stroke="#000000" stroke-width="3" stroke-linecap="round" stroke-miterlimit="10" d="M-986.641,104.376
			c0,2.075,1.561,5.25,5.006,5.25s5.214-2.635,5.214-5.213"/>
		<path fill="none" stroke="#000000" stroke-width="3" stroke-linecap="round" stroke-miterlimit="10" d="M-981.531,99.586
			c0,2.075,1.561,5.25,5.006,5.25c1.54,0,2.744-0.526,3.605-1.338"/>
		<path fill="none" stroke="#000000" stroke-width="3" stroke-linecap="round" stroke-miterlimit="10" d="M-881.615,99.586
			c0,2.075-1.561,5.25-5.006,5.25c-1.539,0-2.744-0.526-3.605-1.338"/>
		<path fill="none" stroke="#000000" stroke-width="3" stroke-linecap="round" stroke-miterlimit="10" d="M-886.803,104.376
			c0,2.075,1.561,5.25,5.006,5.25s5.214-2.635,5.214-5.213"/>
		<g>
			<circle cx="-971.921" cy="107.101" r="7.5"/>
			<circle fill="#FFFFFF" cx="-974.415" cy="105.058" r="3.03"/>
		</g>
		<g>
			<circle cx="-891.421" cy="107.101" r="7.5"/>
			<circle fill="#FFFFFF" cx="-893.915" cy="105.058" r="3.03"/>
		</g>
	</g>
</g>
<g>
	<g>
		<path fill="#E9E9EA" d="M-655.087-127.333h2.438c5.94,0,10.801,4.86,10.801,10.8V-83.8c0,5.939-4.86,10.8-10.801,10.8h-2.438
			V-127.333z"/>
		<path fill="#E9E9EA" d="M-733.994-127.333h-2.438c-5.939,0-10.8,4.86-10.8,10.8V-83.8c0,5.939,4.86,10.8,10.8,10.8h2.438V-127.333
			z"/>
		<path fill="#5B5C5C" d="M-652.649-127.333h-2.438h-78.907h-2.438c-5.939,0-10.8,4.86-10.8,10.8v5.699h13.237v54.5h78.907v-54.5
			h13.238v-5.699C-641.849-122.473-646.709-127.333-652.649-127.333z"/>
		<polygon fill="#604E75" points="-733.994,-56.334 -733.994,-39.667 -733.994,0 -705.204,0 -705.204,-39.667 -683.876,-39.667 
			-683.876,0 -655.087,0 -655.087,-39.667 -655.087,-56.334 		"/>
		<path d="M-719.6,14.395c7.95,0,14.396-6.444,14.396-14.395h-28.79C-733.994,7.95-727.549,14.395-719.6,14.395z"/>
		<path d="M-669.481,14.395c7.95,0,14.395-6.444,14.395-14.395h-28.789C-683.876,7.95-677.431,14.395-669.481,14.395z"/>
		<path fill="#604E75" d="M-719.6-14.395c-7.949,0-14.395,6.444-14.395,14.395h28.79C-705.204-7.95-711.649-14.395-719.6-14.395z"/>
		<path fill="#604E75" d="M-669.481-14.395c-7.949,0-14.395,6.444-14.395,14.395h28.789
			C-655.087-7.95-661.531-14.395-669.481-14.395z"/>
		<g>
			<g>
				<path fill="#E9E9EA" d="M-727.88-105.251c1.461-0.578,2.197-0.851,3.676-1.364c0.197,0.567,0.295,0.851,0.492,1.417
					c-0.319,0.111-0.479,0.167-0.798,0.28c0.727,2.033,1.088,3.048,1.815,5.081c0.299-0.107,0.45-0.161,0.75-0.265
					c0.195,0.562,0.292,0.844,0.487,1.406c-1.343,0.466-2.01,0.713-3.337,1.239c-0.219-0.553-0.329-0.83-0.548-1.383
					c0.297-0.118,0.445-0.175,0.742-0.29c-0.776-2.015-1.162-3.021-1.938-5.036c-0.316,0.122-0.475,0.183-0.791,0.308
					C-727.549-104.415-727.659-104.693-727.88-105.251z"/>
				<path fill="#E9E9EA" d="M-716.227-109.007c1.383-0.343,2.078-0.5,3.471-0.788c0.122,0.587,0.181,0.88,0.303,1.468
					c-0.328,0.068-0.492,0.102-0.819,0.173c0.584,2.701,0.876,4.051,1.461,6.752c-0.48,0.104-0.719,0.157-1.198,0.268
					c-2.036-1.685-3.101-2.497-5.318-4.052c0.41,1.444,0.613,2.167,1.023,3.611c0.157-0.044,0.919-0.255,0.919-0.255
					c0.157,0.579,0.236,0.869,0.394,1.447c-1.25,0.339-1.874,0.521-3.113,0.91c-0.18-0.572-0.269-0.858-0.449-1.43
					c0.36-0.113,0.539-0.168,0.9-0.277c-0.625-2.071-0.936-3.106-1.561-5.178c-0.384,0.116-0.575,0.174-0.958,0.294
					c-0.18-0.572-0.27-0.857-0.45-1.43c1.163-0.365,1.747-0.539,2.918-0.864c1.862,1.351,2.762,2.051,4.499,3.489
					c-0.275-1.167-0.413-1.751-0.688-2.919c-0.389,0.092-0.583,0.139-0.972,0.235C-716.01-108.134-716.083-108.425-716.227-109.007z
					"/>
				<path fill="#E9E9EA" d="M-701.402-107.196c0.198,2.403-1.543,4.327-3.813,4.63c-1.451,0.193-2.176,0.307-3.62,0.564
					c-0.106-0.595-0.161-0.893-0.267-1.488c0.295-0.053,0.444-0.078,0.74-0.128c-0.359-2.119-0.537-3.178-0.896-5.298
					c-0.314,0.053-0.472,0.08-0.786,0.136c-0.107-0.6-0.16-0.899-0.267-1.499c1.59-0.284,2.387-0.408,3.985-0.621
					C-703.639-111.256-701.6-109.598-701.402-107.196z M-706.342-103.935c0.257-0.037,0.385-0.055,0.642-0.09
					c1.84-0.251,2.343-1.638,2.201-2.974c-0.144-1.347-1.154-2.591-2.927-2.349c-0.273,0.037-0.41,0.056-0.683,0.096
					C-706.802-107.125-706.649-106.062-706.342-103.935z"/>
				<path fill="#E9E9EA" d="M-699.847-111.492c1.541-0.094,2.313-0.125,3.856-0.154c0.011,0.6,0.018,0.9,0.029,1.5
					c-0.333,0.006-0.5,0.01-0.833,0.02c0.061,2.158,0.09,3.236,0.151,5.393c0.313-0.009,0.47-0.013,0.784-0.019
					c0.011,0.595,0.017,0.893,0.028,1.487c-1.401,0.026-2.102,0.055-3.502,0.141c-0.037-0.594-0.054-0.891-0.091-1.484
					c0.313-0.019,0.469-0.028,0.782-0.044c-0.112-2.155-0.167-3.233-0.279-5.389c-0.333,0.017-0.5,0.027-0.833,0.048
					C-699.792-110.593-699.81-110.893-699.847-111.492z"/>
				<path fill="#E9E9EA" d="M-688.058-111.463c0,0,2.489,6.832,2.62,7.135c0.372,0.039,0.556,0.059,0.927,0.102
					c-0.069,0.596-0.103,0.894-0.172,1.489c-1.399-0.163-2.102-0.229-3.506-0.332c0.043-0.593,0.066-0.889,0.11-1.482
					c0.184,0.014,0.275,0.021,0.459,0.035c-0.125-0.311-0.229-0.621-0.369-0.944c-0.993-0.073-1.489-0.103-2.483-0.146
					c-0.157,0.358-0.234,0.539-0.388,0.897c0.184,0.007,0.277,0.011,0.461,0.02c-0.027,0.594-0.042,0.891-0.069,1.485
					c-1.215-0.056-1.824-0.072-3.04-0.083c0.005-0.6,0.009-0.9,0.015-1.5c0.373,0.003,0.56,0.007,0.933,0.015
					c0.316-0.894,3.296-6.764,3.296-6.764c0.494,0.027,0.742,0.042,1.236,0.076C-688.041-111.462-688.047-111.463-688.058-111.463z
					 M-688.439-106.994c-0.256-0.686-0.388-1.027-0.656-1.711c-0.325,0.649-0.484,0.973-0.799,1.625
					C-689.312-107.051-689.021-107.033-688.439-106.994z"/>
				<path fill="#E9E9EA" d="M-675.958-109.834c1.393,0.285,2.086,0.439,3.47,0.779c-0.143,0.583-0.214,0.874-0.357,1.456
					c-0.326-0.08-0.489-0.119-0.815-0.196c-0.634,2.69-0.95,4.035-1.584,6.725c-0.479-0.113-0.718-0.167-1.198-0.273
					c-1.113-2.396-1.722-3.588-3.045-5.944c-0.251,1.48-0.376,2.221-0.628,3.701c0.16,0.027,0.934,0.164,0.934,0.164
					c-0.107,0.59-0.161,0.886-0.268,1.476c-1.269-0.23-1.904-0.333-3.18-0.514c0.084-0.594,0.126-0.89,0.21-1.484
					c0.37,0.052,0.554,0.079,0.924,0.135c0.327-2.139,0.49-3.207,0.817-5.346c-0.394-0.06-0.589-0.09-0.983-0.146
					c0.084-0.594,0.126-0.89,0.21-1.483c1.196,0.169,1.793,0.264,2.985,0.473c1.093,2.019,1.603,3.036,2.55,5.081
					c0.253-1.172,0.379-1.758,0.633-2.931c-0.39-0.084-0.585-0.125-0.976-0.205C-676.138-108.953-676.078-109.247-675.958-109.834z"
					/>
				<path fill="#E9E9EA" d="M-664.794-106.791c0,0,0.684,7.259,0.735,7.587c0.354,0.136,0.531,0.204,0.884,0.343
					c-0.221,0.558-0.331,0.837-0.552,1.395c-1.332-0.527-2.002-0.777-3.35-1.245c0.195-0.562,0.293-0.843,0.488-1.405
					c0.176,0.061,0.264,0.092,0.44,0.154c-0.043-0.333-0.065-0.658-0.119-1.007c-0.954-0.331-1.432-0.489-2.392-0.792
					c-0.245,0.305-0.367,0.458-0.609,0.765c0.178,0.055,0.267,0.082,0.444,0.138c-0.179,0.567-0.269,0.851-0.448,1.418
					c-1.173-0.371-1.764-0.545-2.947-0.871c0.159-0.578,0.241-0.867,0.4-1.445c0.363,0.1,0.544,0.151,0.906,0.255
					c0.538-0.782,4.958-5.679,4.958-5.679c0.477,0.155,0.713,0.234,1.188,0.396C-664.778-106.786-664.783-106.788-664.794-106.791z
					 M-666.314-102.57c-0.075-0.729-0.114-1.094-0.201-1.825c-0.485,0.542-0.727,0.813-1.202,1.361
					C-667.154-102.854-666.874-102.76-666.314-102.57z"/>
			</g>
		</g>
	</g>
	<g>
		<path fill="#E9E9EA" d="M-617.515-190.965c-0.893,0-1.756,0.118-2.586,0.318c-8.77-28.624-38.908-49.725-74.753-49.725
			c-35.846,0-65.984,21.101-74.752,49.725c-0.831-0.201-1.693-0.318-2.586-0.318c-6.076,0-11,4.925-11,11c0,6.075,4.924,11,11,11
			c0.066,0,0.132-0.009,0.199-0.01c2.713,33.829,36.201,49.417,77.139,49.417s74.425-15.588,77.14-49.417
			c0.066,0.001,0.131,0.01,0.199,0.01c6.074,0,11-4.925,11-11C-606.515-186.04-611.44-190.965-617.515-190.965z"/>
		<g>
			<circle cx="-735.596" cy="-183.257" r="7.5"/>
			<circle fill="#FFFFFF" cx="-738.09" cy="-185.3" r="3.029"/>
		</g>
		<g>
			<circle cx="-655.096" cy="-183.257" r="7.5"/>
			<circle fill="#FFFFFF" cx="-657.59" cy="-185.3" r="3.03"/>
		</g>
		<path fill="none" stroke="#000000" stroke-width="3" stroke-linecap="round" stroke-miterlimit="10" d="M-694.854-188.33
			c0,0,0.812,8.268,4.312,12.573l-4.312,3.555"/>
		<path fill="none" stroke="#000000" stroke-width="3" stroke-linecap="round" stroke-miterlimit="10" d="M-707.122-165.494
			c0,5.106,3.842,12.917,12.318,12.917s12.827-6.482,12.827-12.827"/>
		<path fill="#B69FCC" d="M-643.039-228.701L-643.039-228.701C-643.039-228.701-643.039-228.701-643.039-228.701
			c-1.28-0.946-2.444-1.776-3.42-2.501c-1.853-1.379-4.369-2.847-7.429-4.276c-16.112-12.402-23.727-29.564-23.727-29.564
			c-3,9.667-8.751,6.667-8.751,6.667c-2.751-1-3.083-6-3.083-6c-0.5,3.5-4,6.5-6.666,4.167c-2.667-2.333-4-11.5-4-11.5
			s-1.5,18-8.334,16.833c-6.833-1.167-6.166-5.167-6.166-5.167c-0.968,10.89-16.194,21.368-24.47,26.295
			c-1.881,0.93-3.637,1.909-5.25,2.928c-0.002,0-0.012,0.005-0.012,0.005h0.002c-2.631,1.663-4.881,3.431-6.615,5.279
			c-10.324,11.001-19.127,25.778-18.646,34.889c0,0,2.813,3.335,2.813,7.39h5.5c0,0,0.5-26.445,16-36.445
			c0,0,25.348-10.674,48.515-9.841c23.166,0.833,50.819,8.674,50.819,8.674c19.667,12.667,17.667,37.612,17.667,37.612h5.332
			c0.166-4.055,2.859-7.39,2.859-7.39C-621.896-211.833-634.908-222.696-643.039-228.701z"/>
	</g>
</g>
<g>
	<g>
		<path fill="#E9E9EA" d="M-1116.701,165.586h2.438c5.939,0,10.8,4.86,10.8,10.8v32.733c0,5.939-4.86,10.8-10.8,10.8h-2.438V165.586
			z"/>
		<path fill="#E9E9EA" d="M-1195.609,165.586h-2.438c-5.94,0-10.8,4.86-10.8,10.8v32.733c0,5.939,4.859,10.8,10.8,10.8h2.438
			V165.586z"/>
		<path fill="#B69FCC" d="M-1114.264,165.586h-2.438h-78.908h-2.438c-5.94,0-10.8,4.86-10.8,10.8v5.699h13.237v54.5h78.908v-54.5
			h13.237v-5.699C-1103.464,170.446-1108.324,165.586-1114.264,165.586z"/>
		<polygon fill="#C4C4C3" points="-1195.609,236.585 -1195.609,253.252 -1195.609,292.919 -1166.819,292.919 -1166.819,253.252 
			-1145.491,253.252 -1145.491,292.919 -1116.701,292.919 -1116.701,253.252 -1116.701,236.585 		"/>
		<path d="M-1181.215,307.313c7.95,0,14.396-6.444,14.396-14.395h-28.79C-1195.609,300.869-1189.165,307.313-1181.215,307.313z"/>
		<path d="M-1131.097,307.313c7.95,0,14.396-6.444,14.396-14.395h-28.79C-1145.491,300.869-1139.046,307.313-1131.097,307.313z"/>
		<path fill="#C4C4C3" d="M-1181.215,278.524c-7.95,0-14.395,6.444-14.395,14.395h28.79
			C-1166.819,284.969-1173.265,278.524-1181.215,278.524z"/>
		<path fill="#C4C4C3" d="M-1131.097,278.524c-7.949,0-14.395,6.444-14.395,14.395h28.79
			C-1116.701,284.969-1123.146,278.524-1131.097,278.524z"/>
		<g>
			<g>
				<path fill="#5B5C5C" d="M-1182.311,189.811c0.005,1.075-0.325,2.529-2.472,3.265c-2.124,0.728-4.296-0.306-5.159-2.482
					c-0.926-2.339,0.151-4.52,2.486-5.319c0.799-0.273,1.463-0.327,1.833-0.275c-0.054-0.168-0.082-0.254-0.135-0.422
					c0.628-0.201,0.943-0.299,1.574-0.488c0.373,1.24,0.561,1.861,0.933,3.101c-0.609,0.183-0.914,0.278-1.52,0.473
					c-0.055-0.172-0.083-0.26-0.138-0.432c-0.177-0.552-0.979-0.922-2.068-0.549c-0.762,0.261-1.615,1.201-0.908,3.127
					c0.659,1.795,1.906,2.119,2.623,1.874c1.172-0.401,1.433-1.561,1.387-1.704
					C-1183.248,189.904-1182.935,189.871-1182.311,189.811z"/>
				<path fill="#5B5C5C" d="M-1173.015,188.443c0.104,0.575,0.157,0.86,0.261,1.436c-0.802,0.146-1.203,0.224-2.002,0.39
					c-0.327-0.074-1.007-0.379-1.226-1.376c-0.124-0.566-0.824-1.606-2.049-1.469c0.189,0.789,0.285,1.186,0.474,1.976
					c0.297-0.071,0.446-0.109,0.744-0.178c0.131,0.569,0.197,0.855,0.328,1.425c-1.323,0.304-1.982,0.47-3.295,0.828
					c-0.154-0.563-0.23-0.847-0.385-1.41c0.347-0.095,0.521-0.141,0.868-0.231c-0.53-2.023-0.797-3.032-1.327-5.056
					c-0.369,0.097-0.552,0.144-0.92,0.244c-0.153-0.56-0.229-0.841-0.382-1.4c1.506-0.412,2.262-0.6,3.781-0.945
					c2.023-0.461,2.907,0.71,3.106,1.723c0.168,0.854-0.406,1.815-0.383,1.991c0.032,0.243,1.002,1.149,1.168,1.991
					c0.056,0.284,0.361,0.227,0.361,0.227C-1173.542,188.54-1173.367,188.508-1173.015,188.443z M-1177.75,185.869
					c0.715-0.166,0.962-0.656,0.868-1.087s-0.498-0.795-1.103-0.655c-0.316,0.073-0.474,0.109-0.79,0.186
					c0.163,0.681,0.244,1.02,0.407,1.7C-1178.122,185.953-1177.998,185.927-1177.75,185.869z"/>
				<path fill="#5B5C5C" d="M-1171.792,181.497c1.458-0.225,2.188-0.321,3.651-0.487c0.065,0.576,0.099,0.865,0.164,1.441
					c-0.316,0.036-0.476,0.051-0.792,0.09c0.253,2.072,0.381,3.109,0.634,5.181c0.297-0.036,0.446-0.054,0.744-0.088
					c0.065,0.571,0.098,0.857,0.163,1.429c-1.333,0.151-1.999,0.242-3.327,0.447c-0.088-0.568-0.131-0.853-0.219-1.421
					c0.297-0.046,0.444-0.069,0.741-0.112c-0.3-2.065-0.45-3.1-0.75-5.165c-0.315,0.046-0.473,0.069-0.788,0.118
					C-1171.66,182.356-1171.704,182.07-1171.792,181.497z"/>
				<path fill="#5B5C5C" d="M-1157.104,180.409c1.024,0.009,1.536,0.021,2.561,0.059c-0.021,0.579-0.031,0.869-0.053,1.448
					c-0.378-0.014-0.567-0.021-0.945-0.031c-0.055,2.092-0.083,3.138-0.137,5.229c0.356,0.009,0.535,0.017,0.891,0.029
					c-0.021,0.579-0.031,0.867-0.053,1.446c-1.339-0.049-2.008-0.06-3.348-0.055c-0.002-0.58-0.004-0.868-0.006-1.448
					c0.233-0.001,0.349-0.001,0.582,0c0.003-1.049,0.005-1.574,0.009-2.622c-0.798,1.625-1.179,2.443-1.902,4.086
					c-0.354,0.007-0.532,0.013-0.886,0.023c0,0-1.742-2.985-2.418-4.098c0.062,1.098,0.095,1.647,0.157,2.745
					c0.237-0.014,0.355-0.02,0.592-0.031c0.029,0.579,0.042,0.867,0.071,1.446c-1.166,0.058-1.746,0.097-2.91,0.195
					c-0.049-0.577-0.075-0.864-0.124-1.442c0.36-0.03,0.54-0.046,0.9-0.072c-0.155-2.087-0.233-3.129-0.388-5.216
					c-0.382,0.028-0.574,0.044-0.956,0.076c-0.049-0.578-0.072-0.866-0.121-1.444c0.96-0.082,1.441-0.116,2.403-0.172
					c1.404,2.069,2.069,3.118,3.324,5.237C-1158.827,183.626-1158.275,182.547-1157.104,180.409z"/>
				<path fill="#5B5C5C" d="M-1145.775,187.079c-0.329,2.295-2.646,1.992-3.378,1.915c-0.731-0.077-1.565-0.441-1.824-1.045
					c-0.029,0.347-0.042,0.521-0.071,0.867c-0.582-0.048-0.873-0.069-1.455-0.107c0.086-1.333,0.129-1.999,0.216-3.332
					c0.605,0.039,0.909,0.063,1.514,0.113c-0.024,0.291-0.036,0.437-0.06,0.728c-0.048,0.578,0.65,1.216,1.537,1.307
					c0.745,0.076,1.655-0.121,1.707-0.548c0.088-0.726-0.487-0.962-1.804-1.501c-1.007-0.412-2.679-0.958-2.572-2.555
					c0.086-1.295,1.588-2.234,3.349-2.055c1.123,0.114,1.542,0.614,1.64,1.07c0.042-0.35,0.063-0.525,0.106-0.875
					c0.642,0.078,0.962,0.118,1.603,0.208c-0.153,1.094-0.229,1.641-0.381,2.734c-0.622-0.087-0.933-0.125-1.556-0.201
					c0.007-0.056,0.011-0.085,0.018-0.141c0.052-0.426-0.323-1.216-1.578-1.344c-0.477-0.049-1.131,0.184-1.171,0.623
					c-0.038,0.427,0.438,0.636,1.464,1.02C-1147.306,184.397-1145.486,185.059-1145.775,187.079z"/>
				<path fill="#5B5C5C" d="M-1135.587,187.388c-0.795,3.004-3.098,3.482-4.874,3.101c-1.901-0.408-3.645-1.896-3.159-4.824
					c0.465-2.803,2.818-3.777,4.911-3.328C-1136.754,182.756-1134.821,184.495-1135.587,187.388z M-1137.727,186.852
					c0.381-1.602-0.181-2.812-1.297-3.051c-1.265-0.271-2.257,0.607-2.565,2.225c-0.304,1.594,0.25,2.756,1.44,3.012
					C-1139.099,189.263-1138.102,188.431-1137.727,186.852z"/>
				<path fill="#5B5C5C" d="M-1127.522,185.608c1.289,0.455,1.932,0.694,3.207,1.199c-0.213,0.539-0.32,0.809-0.534,1.348
					c-0.3-0.119-0.452-0.178-0.753-0.294c-0.961,2.494-1.441,3.74-2.402,6.232c-0.443-0.171-0.665-0.254-1.109-0.418
					c-0.746-2.441-1.169-3.661-2.112-6.092c-0.439,1.384-0.658,2.075-1.097,3.459c0.149,0.047,0.869,0.281,0.869,0.281
					c-0.181,0.551-0.272,0.826-0.453,1.377c-1.181-0.389-1.774-0.571-2.965-0.915c0.161-0.557,0.241-0.837,0.401-1.394
					c0.346,0.1,0.519,0.151,0.863,0.255c0.601-2.004,0.901-3.005,1.502-5.009c-0.366-0.109-0.549-0.166-0.916-0.271
					c0.161-0.558,0.24-0.833,0.4-1.391c1.113,0.321,1.669,0.488,2.775,0.846c0.768,2.077,1.118,3.117,1.75,5.199
					c0.398-1.089,0.597-1.632,0.995-2.722c-0.361-0.132-0.543-0.198-0.905-0.326
					C-1127.812,186.427-1127.715,186.155-1127.522,185.608z"/>
			</g>
		</g>
		<g>
			<g>
				<path fill="#5B5C5C" d="M-1177.977,202.969c1.414,0.45,2.125,0.655,3.555,1.026c-0.15,0.58-0.225,0.871-0.375,1.451
					c-0.307-0.079-0.461-0.119-0.768-0.202c-0.565,2.084-0.848,3.125-1.413,5.209c0.331,0.09,0.496,0.134,0.827,0.22
					c-0.15,0.581-0.226,0.871-0.376,1.452c-1.608-0.417-2.409-0.648-3.998-1.154c0.182-0.571,0.274-0.858,0.456-1.43
					c0.395,0.126,0.592,0.187,0.988,0.307c0.244-0.804,0.365-1.206,0.608-2.01c-1.149-0.349-1.722-0.532-2.859-0.93
					c-0.277,0.793-0.415,1.188-0.691,1.98c0.392,0.137,0.589,0.204,0.982,0.335c-0.19,0.569-0.286,0.854-0.475,1.423
					c-1.584-0.528-2.37-0.814-3.93-1.432c0.221-0.558,0.332-0.835,0.552-1.393c0.321,0.127,0.481,0.188,0.804,0.312
					c0.771-2.017,1.157-3.025,1.929-5.042c-0.299-0.114-0.448-0.172-0.746-0.29c0.221-0.558,0.331-0.836,0.552-1.394
					c1.388,0.55,2.087,0.804,3.496,1.273c-0.189,0.569-0.284,0.854-0.474,1.423c-0.365-0.122-0.547-0.184-0.911-0.311
					c-0.237,0.68-0.355,1.021-0.593,1.7c1.114,0.389,1.674,0.569,2.8,0.91c0.209-0.688,0.313-1.032,0.522-1.721
					c-0.367-0.111-0.551-0.168-0.917-0.284C-1178.249,203.828-1178.159,203.54-1177.977,202.969z"/>
				<path fill="#5B5C5C" d="M-1167.32,205.436c0,0,2.185,6.918,2.331,7.223c0.402,0.041,0.602,0.061,1.004,0.096
					c-0.053,0.598-0.079,0.897-0.131,1.495c-1.577-0.139-2.363-0.229-3.933-0.45c0.083-0.589,0.122-0.884,0.205-1.473
					c0.198,0.027,0.298,0.041,0.496,0.067c-0.121-0.318-0.213-0.632-0.341-0.966c-1.045-0.146-1.567-0.23-2.608-0.415
					c-0.211,0.333-0.318,0.498-0.532,0.83c0.197,0.036,0.295,0.055,0.492,0.089c-0.103,0.586-0.154,0.88-0.256,1.466
					c-1.353-0.237-2.026-0.37-3.37-0.669c0.13-0.585,0.196-0.878,0.326-1.463c0.396,0.088,0.595,0.131,0.992,0.214
					c0.501-0.815,4.236-6.215,4.236-6.215c0.445,0.073,0.668,0.106,1.114,0.172C-1167.305,205.436-1167.311,205.437-1167.32,205.436
					z M-1168.05,209.86c-0.207-0.705-0.307-1.057-0.5-1.763c-0.382,0.614-0.576,0.919-0.971,1.528
					C-1168.933,209.726-1168.639,209.773-1168.05,209.86z"/>
				<path fill="#5B5C5C" d="M-1155.019,206.099c1.221-0.045,1.831-0.08,3.049-0.18c0.049,0.603,0.073,0.902,0.123,1.505
					c-0.314,0.025-0.471,0.038-0.785,0.061c-0.149,0.011-0.14,0.141-0.14,0.141c-0.755,2.768-1.18,4.148-2.119,6.894
					c-0.555,0.019-0.832,0.026-1.386,0.035c-0.649-1.736-0.956-2.608-1.533-4.356c-0.655,1.743-1.003,2.609-1.736,4.337
					c-0.483-0.013-0.725-0.022-1.208-0.043c-0.847-2.683-1.228-4.03-1.906-6.731c0.013-0.168-0.126-0.31-0.288-0.322
					c-0.314-0.025-0.471-0.038-0.785-0.066c0.055-0.602,0.081-0.905,0.136-1.507c1.466,0.133,2.2,0.181,3.67,0.234
					c-0.022,0.604-0.033,0.907-0.055,1.511c-0.25-0.009-0.373-0.014-0.623-0.025c0.32,1.215,0.487,1.82,0.84,3.032
					c0.714-1.782,1.05-2.677,1.682-4.475c0.425,0.004,0.638,0.003,1.063,0c0.627,1.8,0.961,2.696,1.671,4.48
					c0.355-1.211,0.525-1.817,0.848-3.032c-0.185,0.008-0.277,0.011-0.461,0.018
					C-1154.985,207.004-1154.997,206.702-1155.019,206.099z"/>
				<path fill="#5B5C5C" d="M-1140.375,211.072c0.333-0.078,0.499-0.119,0.831-0.201c0.143,0.577,0.215,0.866,0.358,1.443
					c-1.611,0.399-2.421,0.578-4.047,0.889c-0.111-0.584-0.168-0.879-0.28-1.463c-1.127-0.825-1.675-1.247-2.741-2.113
					c0.16,1.01,0.24,1.516,0.399,2.525c0.336-0.053,0.503-0.083,0.839-0.14c0.1,0.587,0.149,0.881,0.249,1.468
					c-1.56,0.265-2.343,0.377-3.911,0.56c-0.069-0.591-0.103-0.889-0.172-1.479c0.337-0.039,0.506-0.059,0.843-0.102
					c-0.275-2.151-0.414-3.225-0.689-5.375c-0.313,0.04-0.469,0.06-0.782,0.096c-0.069-0.591-0.103-0.889-0.172-1.479
					c1.395-0.162,2.09-0.262,3.478-0.497c0.1,0.587,0.15,0.879,0.25,1.466c-0.312,0.053-0.468,0.079-0.78,0.128
					c0.084,0.535,0.126,0.803,0.211,1.338c0.842-0.856,1.25-1.291,2.039-2.172c-0.08-0.415-0.12-0.621-0.2-1.036
					c1.205-0.233,1.805-0.364,3.001-0.652c0.139,0.578,0.209,0.868,0.349,1.446c-0.372,0.09-0.558,0.135-0.931,0.219
					c-0.221,0.05-0.331,0.223-0.662,0.623c-0.242,0.292-1.033,1.28-1.585,1.835c1.238,0.989,1.878,1.472,3.196,2.405
					C-1141.02,210.99-1140.705,211.15-1140.375,211.072z"/>
				<path fill="#5B5C5C" d="M-1130.393,206.985c0.883,2.23-1.731,3.216-2.561,3.499c-0.83,0.283-1.901,0.308-2.419-0.16
					c0.106,0.344,0.16,0.515,0.266,0.858c-0.664,0.204-0.997,0.303-1.664,0.491c-0.376-1.329-0.565-1.993-0.941-3.322
					c0.637-0.181,0.953-0.274,1.586-0.47c0.089,0.289,0.135,0.435,0.224,0.724c0.176,0.573,1.173,0.894,2.143,0.568
					c0.814-0.273,1.659-0.909,1.507-1.327c-0.259-0.71-0.947-0.624-2.489-0.557c-1.179,0.051-3.053,0.148-3.508-1.443
					c-0.369-1.291,0.667-2.689,2.286-3.233c1.032-0.347,1.615-0.081,1.913,0.296c-0.125-0.343-0.188-0.513-0.312-0.855
					c0.587-0.214,0.88-0.325,1.464-0.553c0.416,1.063,0.623,1.596,1.038,2.659c-0.608,0.237-0.913,0.353-1.525,0.575
					c-0.02-0.055-0.03-0.08-0.05-0.135c-0.152-0.417-0.848-0.955-2.047-0.553c-0.456,0.153-0.966,0.63-0.828,1.064
					c0.134,0.423,0.667,0.442,1.809,0.349C-1133.204,205.354-1131.17,205.021-1130.393,206.985z"/>
			</g>
		</g>
	</g>
	<g>
		<path fill="#E9E9EA" d="M-1079.13,100.754c-0.893,0-1.755,0.117-2.586,0.318c-8.769-28.625-38.907-49.726-74.753-49.726
			c-35.845,0-65.983,21.101-74.753,49.726c-0.83-0.201-1.693-0.318-2.586-0.318c-6.074,0-11,4.924-11,11c0,6.074,4.926,11,11,11
			c0.068,0,0.133-0.01,0.199-0.011c2.715,33.828,36.201,49.416,77.14,49.416c40.938,0,74.426-15.588,77.14-49.416
			c0.067,0.001,0.132,0.011,0.199,0.011c6.075,0,11-4.926,11-11C-1068.13,105.678-1073.055,100.754-1079.13,100.754z"/>
		<g>
			<circle cx="-1197.211" cy="108.461" r="7.5"/>
			<circle fill="#FFFFFF" cx="-1199.705" cy="106.418" r="3.03"/>
		</g>
		<g>
			<circle cx="-1116.711" cy="108.461" r="7.5"/>
			<circle fill="#FFFFFF" cx="-1119.205" cy="106.418" r="3.03"/>
		</g>
		<path fill="none" stroke="#000000" stroke-width="3" stroke-linecap="round" stroke-miterlimit="10" d="M-1156.469,103.389
			c0,0,0.812,8.268,4.312,12.572l-4.312,3.555"/>
		<path fill="none" stroke="#000000" stroke-width="3" stroke-linecap="round" stroke-miterlimit="10" d="M-1168.737,126.225
			c0,5.105,3.842,12.916,12.318,12.916s12.827-6.481,12.827-12.826"/>
		<path fill="#604E75" d="M-1156.165,27.748c-11.729,23.599-36.259,25.295-44.533,30.223c-1.883,0.93-3.639,1.908-5.252,2.928
			l-0.01,0.005h0.002c-2.632,1.663-4.881,3.431-6.616,5.279c-10.324,11.001-19.127,25.778-18.647,34.89c0,0,2.814,3.334,2.814,7.389
			h5.5c0,0,0.5-26.445,16-36.445c0,0,25.348-10.674,48.514-9.84c23.167,0.833,50.819,8.674,50.819,8.674
			c19.667,12.667,17.667,37.611,17.667,37.611h5.333c0.166-4.055,2.858-7.389,2.858-7.389
			c-1.796-21.188-14.808-32.051-22.938-38.055h0.001c-0.001,0-0.001,0-0.001,0c-1.28-0.946-2.444-1.775-3.42-2.502
			c-1.853-1.379-4.369-2.846-7.428-4.275C-1146.727,48.915-1156.165,27.748-1156.165,27.748z"/>
	</g>
</g>
<g>
	<g>
		<path fill="#E9E9EA" d="M-664.67,168.091h2.438c5.94,0,10.8,4.86,10.8,10.8v32.733c0,5.939-4.859,10.8-10.8,10.8h-2.438V168.091z"
			/>
		<path fill="#E9E9EA" d="M-743.577,168.091h-2.438c-5.94,0-10.801,4.86-10.801,10.8v32.733c0,5.939,4.86,10.8,10.801,10.8h2.438
			V168.091z"/>
		<path fill="#333333" d="M-662.232,168.091h-2.438h-78.907h-2.438c-5.94,0-10.801,4.86-10.801,10.8v5.699h13.238v54.5h78.907v-54.5
			h13.237v-5.699C-651.433,172.951-656.292,168.091-662.232,168.091z"/>
		<polygon fill="#B69FCC" points="-743.577,239.09 -743.577,255.757 -743.577,295.424 -714.788,295.424 -714.788,255.757 
			-693.46,255.757 -693.46,295.424 -664.67,295.424 -664.67,255.757 -664.67,239.09 		"/>
		<path d="M-729.183,309.818c7.949,0,14.395-6.444,14.395-14.395h-28.789C-743.577,303.374-737.133,309.818-729.183,309.818z"/>
		<path d="M-679.065,309.818c7.951,0,14.396-6.444,14.396-14.395h-28.79C-693.46,303.374-687.015,309.818-679.065,309.818z"/>
		<path fill="#B69FCC" d="M-729.183,281.029c-7.95,0-14.395,6.444-14.395,14.395h28.789
			C-714.788,287.474-721.233,281.029-729.183,281.029z"/>
		<path fill="#B69FCC" d="M-679.065,281.029c-7.949,0-14.395,6.444-14.395,14.395h28.79
			C-664.67,287.474-671.114,281.029-679.065,281.029z"/>
		<g>
			<g>
				<path fill="#B69FCC" d="M-727.845,186.606c1.531-0.451,2.301-0.657,3.847-1.034c0.162,0.665,0.244,0.995,0.406,1.66
					c-0.458,0.111-0.689,0.171-1.146,0.289c-0.075,1.263-1.269,7.85-1.242,8.558c-0.533,0.164-0.797,0.249-1.328,0.423
					c-0.389-0.593-5.555-5.69-5.988-6.258c-0.439,0.167-0.66,0.253-1.097,0.426c-0.252-0.637-0.378-0.954-0.63-1.591
					c1.645-0.651,2.473-0.953,4.142-1.515c0.218,0.648,0.327,0.973,0.545,1.621c-0.148,0.05-0.222,0.074-0.37,0.125
					c0.648,0.689,3.132,3.494,3.132,3.494c0.152-0.039,0.69-3.63,0.782-4.724c-0.228,0.065-0.341,0.097-0.569,0.164
					C-727.555,187.589-727.652,187.263-727.845,186.606z"/>
				<path fill="#B69FCC" d="M-709.347,189.01c-0.112,1.588-0.161,2.383-0.25,3.971c-3.276,0.242-4.914,0.452-8.155,1.057
					c-0.125-0.673-0.188-1.006-0.313-1.679c0.355-0.066,0.532-0.1,0.888-0.161c-0.424-2.433-0.634-3.649-1.058-6.082
					c-0.384,0.067-0.576,0.103-0.96,0.174c-0.125-0.673-0.189-1.009-0.314-1.682c3.424-0.639,5.151-0.868,8.609-1.148
					c0.5,1.267,0.744,1.9,1.214,3.174c-0.761,0.053-1.141,0.084-1.901,0.154c-0.244-0.665-0.526-1.512-1.677-1.383
					c-1,0.112-1.501,0.177-2.499,0.319c0.117,0.818,0.176,1.228,0.293,2.046c0.525-0.075,0.788-0.109,1.314-0.176
					c-0.035-0.276-0.053-0.417-0.088-0.693c0.753-0.095,1.13-0.138,1.885-0.215c0.126,1.23,0.19,1.847,0.316,3.077
					c-0.726,0.074-1.089,0.118-1.813,0.209c-0.034-0.271-0.052-0.408-0.086-0.68c-0.515,0.064-0.773,0.099-1.287,0.172
					c0.136,0.948,0.204,1.422,0.339,2.37c1.138-0.163,1.709-0.232,2.85-0.352c0.525-0.055,0.765-1.288,0.864-2.328
					C-710.445,189.088-710.08,189.059-709.347,189.01z"/>
				<path fill="#B69FCC" d="M-696.436,191.459c-0.069,0.687-0.104,1.028-0.173,1.715c-0.966-0.099-1.45-0.141-2.417-0.207
					c-0.351-0.188-1.035-0.748-0.97-1.95c0.037-0.684-0.443-2.094-1.909-2.313c-0.027,0.958-0.04,1.438-0.067,2.396
					c0.365,0.011,0.547,0.017,0.912,0.031c-0.027,0.689-0.042,1.033-0.069,1.723c-1.61-0.065-2.415-0.077-4.025-0.055
					c-0.01-0.689-0.014-1.033-0.024-1.723c0.428-0.006,0.64-0.008,1.068-0.008c0-2.469,0.002-3.703,0.003-6.172
					c-0.462,0-0.693-0.001-1.155,0.006c-0.009-0.685-0.015-1.026-0.024-1.711c1.901-0.026,2.852-0.011,4.751,0.07
					c2.531,0.108,3.187,1.736,3.086,2.95c-0.085,1.022-1.068,1.938-1.098,2.14c-0.041,0.281,0.788,1.623,0.705,2.634
					c-0.028,0.341,0.341,0.372,0.341,0.372C-697.075,191.395-696.861,191.416-696.436,191.459z M-701.09,187.018
					c0.886,0.033,1.334-0.442,1.363-0.962c0.028-0.519-0.328-1.064-1.083-1.095c-0.395-0.016-0.592-0.022-0.986-0.033
					c-0.023,0.826-0.035,1.24-0.059,2.066C-701.549,187.003-701.397,187.006-701.09,187.018z"/>
				<path fill="#B69FCC" d="M-682.509,190.997c-0.751,2.646-3.406,3.998-5.968,3.446c-1.638-0.353-2.461-0.508-4.112-0.767
					c0.106-0.682,0.16-1.02,0.267-1.701c0.339,0.053,0.509,0.081,0.848,0.138c0.407-2.419,0.61-3.628,1.019-6.047
					c-0.366-0.062-0.549-0.09-0.916-0.147c0.108-0.687,0.162-1.031,0.27-1.718c1.865,0.293,2.795,0.465,4.645,0.863
					C-683.347,185.734-681.757,188.351-682.509,190.997z M-689.167,192.537c0.292,0.059,0.439,0.089,0.731,0.15
					c2.09,0.44,3.183-0.839,3.555-2.325c0.376-1.5-0.246-3.24-2.292-3.672c-0.315-0.066-0.473-0.098-0.789-0.161
					C-688.444,188.934-688.686,190.132-689.167,192.537z"/>
				<path fill="#B69FCC" d="M-677.543,187.546c1.735,0.579,2.596,0.895,4.305,1.571c-0.252,0.637-0.378,0.954-0.63,1.591
					c-0.368-0.146-0.552-0.217-0.921-0.357c-0.879,2.301-1.319,3.451-2.198,5.752c0.341,0.131,0.512,0.195,0.852,0.33
					c-0.25,0.631-0.375,0.949-0.625,1.58c-1.514-0.6-2.277-0.878-3.814-1.392c0.215-0.644,0.323-0.967,0.538-1.61
					c0.345,0.115,0.516,0.174,0.86,0.293c0.808-2.327,1.213-3.49,2.022-5.817c-0.372-0.129-0.557-0.191-0.93-0.316
					C-677.868,188.521-677.76,188.195-677.543,187.546z"/>
			</g>
		</g>
	</g>
	<g>
		<path fill="#E9E9EA" d="M-627.089,102.459c-0.893,0-1.756,0.117-2.586,0.318c-8.77-28.624-38.908-49.725-74.753-49.725
			s-65.983,21.101-74.753,49.725c-0.83-0.201-1.693-0.318-2.586-0.318c-6.074,0-11,4.925-11,11c0,6.074,4.926,11,11,11
			c0.068,0,0.133-0.009,0.199-0.01c2.715,33.828,36.201,49.416,77.14,49.416c40.938,0,74.425-15.588,77.14-49.416
			c0.066,0.001,0.131,0.01,0.199,0.01c6.074,0,11-4.926,11-11C-616.089,107.384-621.015,102.459-627.089,102.459z"/>
		<path fill="none" stroke="#000000" stroke-width="3" stroke-linecap="round" stroke-miterlimit="10" d="M-704.428,105.094
			c0,0,0.812,8.269,4.312,12.573l-4.312,3.555"/>
		<g>
			<path fill="#FFFFFF" d="M-691.855,140.937c0,6.346-4.351,12.827-12.827,12.827s-12.318-7.812-12.318-12.917
				c2.218,2.538,6.267,4.654,12.506,4.654C-698.49,145.501-694.301,143.26-691.855,140.937z"/>
			<path fill="none" stroke="#000000" stroke-width="3" stroke-linecap="round" stroke-miterlimit="10" d="M-717.001,140.847
				c2.218,2.538,6.267,4.654,12.506,4.654c6.005,0,10.194-2.241,12.64-4.564"/>
			<path fill="none" stroke="#000000" stroke-width="3" stroke-linecap="round" stroke-miterlimit="10" d="M-717.001,140.847
				c0,5.105,3.842,12.917,12.318,12.917s12.827-6.481,12.827-12.827"/>
		</g>
		<path fill="#E9E9EA" d="M-627.288,124.448c0.066,0.001,0.131,0.011,0.199,0.011c6.074,0,11-4.926,11-11c0-6.076-4.926-11-11-11
			c-0.893,0-1.756,0.117-2.586,0.318l-5.525,12.45L-627.288,124.448z"/>
		<path fill="#E9E9EA" d="M-781.566,124.448c-0.066,0.001-0.131,0.011-0.199,0.011c-6.074,0-11-4.926-11-11c0-6.076,4.926-11,11-11
			c0.893,0,1.756,0.117,2.586,0.318l5.525,12.45L-781.566,124.448z"/>
		<circle fill="#C4C4C3" cx="-750.295" cy="136.825" r="9.595"/>
		<circle fill="#C4C4C3" cx="-658.051" cy="136.825" r="9.595"/>
		<path fill="#604E75" d="M-781.866,70.454c-22.223,21.149-24.334,70.333-6,91.667c18.334,21.333,2.333,36.333-8,38
			c-10.333,1.666-19.334-9.334-19.334-9.334c0.396,3.443,1.352,6.446,2.728,9.068c-2.298-1.246-4.663-2.779-5.65-4.242
			c0,0,4.06,8.138,10.563,10.582c1.052,0.96,2.184,1.832,3.389,2.613c-4.779,3.223-11.028,3.232-11.028,3.232
			c21.871,4.82,29.543,3.684,32.228,2.422c0.044,0.001,0.088,0.002,0.131,0.003c-6.029,5.187-15.043,5.575-15.043,5.575
			c15.602-0.252,24.275-3.078,29.048-5.824c-3.5,4.729-7.381,7.491-7.381,7.491c6.907-1.829,11.89-7.023,15.076-11.569
			c0.249-0.113,0.495-0.229,0.737-0.348c-1.121,7.074-2.813,8.917-2.813,8.917c7.493-7.067,11.745-14.213,14.116-19.517
			c1.328-2.516,2.225-5.242,2.737-8.047c0.056-0.271,0.08-0.419,0.08-0.419s-0.004,0.002-0.005,0.002
			c2.012-11.918-2.79-25.031-10.526-28.589c-11.635-5.352-33.218-30.908-22.365-59.361c9.969-26.136,31.093-24.861,41.511-29.656
			c10.137-4.667,17.804-17.667,17.804-17.667C-733.533,40.787-759.027,48.719-781.866,70.454z"/>
		<path fill="#604E75" d="M-662.581,197.264c-0.075,12.131,5.55,21.568,17.363,32.11c0,0-1.79-4.335,3.293-7.784
			c0.05,0.024,0.098,0.05,0.147,0.074c2.565,4.865,9.68,11.211,29.393,10.377c0,0-5.979-0.935-10.978-5.67
			c5.228,1.792,15.366,3.506,31.978-0.363c0,0-9.593,0.265-8.694-6.748c13.529-8.509,9.918-19.139,9.918-19.139s-4,8.999-16,8.999
			s-31.332-16.667-16.666-52.333s12.495-75.284-14.373-98c-17.742-15-44.627-27-74.627-17.334c0,0-24.965,11-16.982,23.334
			s22.943-1.666,44.315,0c12.527,0.977,45.949,10.863,55.192,37.99c8.352,24.51-6.813,49.141-15.473,54.742
			C-651.664,161.978-662.531,185.145-662.581,197.264z"/>
		<path fill="none" stroke="#000000" stroke-width="3" stroke-linecap="round" stroke-miterlimit="10" d="M-757.301,103.701
			c0,2.075,1.561,5.25,5.006,5.25s5.214-2.635,5.214-5.213"/>
		<path fill="none" stroke="#000000" stroke-width="3" stroke-linecap="round" stroke-miterlimit="10" d="M-752.191,98.911
			c0,2.075,1.561,5.25,5.006,5.25c1.54,0,2.744-0.526,3.605-1.338"/>
		<path fill="none" stroke="#000000" stroke-width="3" stroke-linecap="round" stroke-miterlimit="10" d="M-652.275,98.911
			c0,2.075-1.561,5.25-5.006,5.25c-1.539,0-2.744-0.526-3.605-1.338"/>
		<path fill="none" stroke="#000000" stroke-width="3" stroke-linecap="round" stroke-miterlimit="10" d="M-657.463,103.701
			c0,2.075,1.561,5.25,5.006,5.25s5.214-2.635,5.214-5.213"/>
		<g>
			<circle cx="-742.581" cy="106.426" r="7.5"/>
			<circle fill="#FFFFFF" cx="-745.075" cy="104.383" r="3.03"/>
		</g>
		<g>
			<circle cx="-662.081" cy="106.426" r="7.5"/>
			<circle fill="#FFFFFF" cx="-664.575" cy="104.383" r="3.03"/>
		</g>
	</g>
</g>
<g>
	<path fill="#E9E9EA" d="M-347.088,97.653h2.438c5.939,0,10.799,4.86,10.799,10.8v32.733c0,5.939-4.859,10.8-10.799,10.8h-2.438
		V97.653z"/>
	<polygon fill="#E9E9EA" points="-425.997,168.652 -425.997,185.319 -425.997,224.987 -397.208,224.987 -397.208,185.319 
		-375.879,185.319 -375.879,224.987 -347.088,224.987 -347.088,185.319 -347.088,168.652 	"/>
	<path d="M-411.602,239.382c7.949,0,14.395-6.445,14.395-14.395h-28.789C-425.997,232.937-419.551,239.382-411.602,239.382z"/>
	<path d="M-361.485,239.382c7.951,0,14.396-6.445,14.396-14.395h-28.791C-375.879,232.937-369.434,239.382-361.485,239.382z"/>
	<path fill="#E9E9EA" d="M-411.602,210.593c-7.949,0-14.395,6.443-14.395,14.395h28.789
		C-397.208,217.036-403.653,210.593-411.602,210.593z"/>
	<path fill="#E9E9EA" d="M-361.485,210.593c-7.949,0-14.395,6.443-14.395,14.395h28.791
		C-347.088,217.036-353.534,210.593-361.485,210.593z"/>
	<path fill="#604E75" d="M-336.334,198.157c-12.25-24-10.668-48.25-10.668-48.25l-0.086,0.104v-35.858V97.653h-78.908v16.499v41.911
		c-0.334,8.718-2.179,25.462-10.668,42.094h10.668h78.908v-0.211l0.086,0.211H-336.334z"/>
	<g>
		<path fill="#E9E9EA" d="M-309.508,30.021c-0.893,0-1.756,0.118-2.586,0.318c-8.77-28.624-38.909-49.725-74.752-49.725
			c-35.846,0-65.984,21.101-74.754,49.725c-0.83-0.201-1.693-0.318-2.586-0.318c-6.074,0-11,4.925-11,11c0,6.075,4.926,11,11,11
			c0.068,0,0.133-0.009,0.199-0.01c2.715,33.829,36.201,49.417,77.141,49.417c40.938,0,74.424-15.588,77.139-49.417
			c0.066,0.001,0.131,0.01,0.199,0.01c6.074,0,11-4.925,11-11C-298.508,34.946-303.434,30.021-309.508,30.021z"/>
		<path fill="none" stroke="#000000" stroke-width="3" stroke-linecap="round" stroke-miterlimit="10" d="M-442.309,35.005
			c0,2.075,1.561,5.25,5.006,5.25s5.215-2.635,5.215-5.213"/>
		<path fill="none" stroke="#000000" stroke-width="3" stroke-linecap="round" stroke-miterlimit="10" d="M-437.199,30.215
			c0,2.075,1.561,5.25,5.006,5.25c1.54,0,2.744-0.526,3.605-1.338"/>
		<path fill="none" stroke="#000000" stroke-width="3" stroke-linecap="round" stroke-miterlimit="10" d="M-337.284,30.215
			c0,2.075-1.561,5.25-5.006,5.25c-1.539,0-2.744-0.526-3.605-1.338"/>
		<path fill="none" stroke="#000000" stroke-width="3" stroke-linecap="round" stroke-miterlimit="10" d="M-342.471,35.005
			c0,2.075,1.561,5.25,5.006,5.25s5.215-2.635,5.215-5.213"/>
		<g>
			<circle cx="-427.588" cy="37.729" r="7.5"/>
			<circle fill="#FFFFFF" cx="-430.083" cy="35.687" r="3.03"/>
		</g>
		<g>
			<circle cx="-347.088" cy="37.729" r="7.5"/>
			<circle fill="#FFFFFF" cx="-349.583" cy="35.687" r="3.03"/>
		</g>
		<path fill="none" stroke="#000000" stroke-width="3" stroke-linecap="round" stroke-miterlimit="10" d="M-386.846,32.657
			c0,0,0.811,8.268,4.311,12.573l-4.311,3.555"/>
		<path fill="none" stroke="#000000" stroke-width="3" stroke-linecap="round" stroke-miterlimit="10" d="M-399.116,55.492
			c0,5.106,3.842,12.917,12.318,12.917s12.828-6.482,12.828-12.827"/>
		<path fill="#604E75" d="M-394.247-30.984c0,0-24.965,11-16.982,23.333s22.943-1.667,44.316,0
			c12.527,0.977,45.949,10.863,55.192,37.99c8.352,24.51-6.813,49.14-15.473,54.742c-8.66,5.604-22.547,31.751-16.387,45.648
			c6.162,13.897,28.668,28.953,52.334,20.286s18.666-23.333,18.666-23.333s-4,8.999-16,8.999s-31.333-16.667-16.666-52.333
			c14.666-35.667,12.496-75.284-14.374-98C-337.362-28.65-364.247-40.651-394.247-30.984z"/>
		<path fill="#E9E9EA" d="M-309.707,52.011c0.066,0.001,0.131,0.01,0.199,0.01c6.074,0,11-4.925,11-11c0-6.075-4.926-11-11-11
			c-0.893,0-1.756,0.118-2.586,0.318l-5.526,12.451L-309.707,52.011z"/>
		<path fill="#604E75" d="M-402.286-16.983c0,0-7.666,13-17.803,17.667c-10.418,4.796-31.543,3.521-41.512,29.657
			c-10.852,28.453,10.73,54.01,22.365,59.361c11.635,5.35,16.652,32.315,1.801,44.315s-56.852,13.333-60.186-15.667
			c0,0,9.002,11,19.334,9.334c10.334-1.667,26.334-16.667,8-38c-18.334-21.334-16.223-70.518,6-91.667
			C-441.446-23.718-415.952-31.65-402.286-16.983z"/>
		<path fill="#E9E9EA" d="M-463.985,52.011c-0.066,0.001-0.131,0.01-0.199,0.01c-6.074,0-11-4.925-11-11c0-6.075,4.926-11,11-11
			c0.893,0,1.756,0.118,2.586,0.318l5.525,12.451L-463.985,52.011z"/>
		<circle fill="#C4C4C3" cx="-432.714" cy="64.388" r="9.595"/>
		<circle fill="#C4C4C3" cx="-340.47" cy="64.388" r="9.595"/>
	</g>
	<path fill="#E9E9EA" d="M-417.046,109.754l0.009,0.002l0.032-0.125l0.423-1.611l0.032-0.125l-0.009-0.002
		c1-4.197-0.834-8.306-6.522-9.795l-35.536-9.304c-5.688-1.489-9.301,1.193-10.485,5.342l-0.009-0.002l-0.032,0.125l-0.422,1.611
		l-0.033,0.125l0.009,0.002c-1,4.197,0.834,8.306,6.522,9.795l35.536,9.304C-421.843,116.585-418.231,113.902-417.046,109.754z"/>
	<g>
		
			<rect x="-492.581" y="75.678" transform="matrix(0.9841 0.1774 -0.1774 0.9841 10.5216 85.6557)" fill="#B69FCC" width="37.5" height="52"/>
		
			<text transform="matrix(0.9841 0.1774 -0.1774 0.9841 -485.6772 84.2544)" fill="#604E75" font-family="'Cubano-Regular'" font-size="7.8732">RESUME</text>
	</g>
	<path fill="#E9E9EA" d="M-386.847,122.086c9.075,0,16.433-15.357,16.433-24.433h-32.865
		C-403.28,106.729-395.922,122.086-386.847,122.086z"/>
</g>
<g>
	<g>
		<path fill="#E9E9EA" d="M-273.596,131.331V104.16h-2.438c-5.94,0-10.8,4.86-10.8,10.8v16.203L-273.596,131.331z"/>
		<path fill="#E9E9EA" d="M-194.688,131.331V104.16h2.438c5.94,0,10.8,4.86,10.8,10.8v16.203L-194.688,131.331z"/>
		<path fill="#B69FCC" d="M-192.251,97.537h-2.438h-78.907h-2.438c-5.94,0-10.8,4.86-10.8,10.8v5.699h13.237v54.5h78.907v-54.5
			h13.238v-5.699C-181.45,102.397-186.311,97.537-192.251,97.537z"/>
		<polygon fill="#333333" points="-273.596,168.536 -273.596,185.202 -273.596,224.87 -244.806,224.87 -244.806,185.202 
			-223.478,185.202 -223.478,224.87 -194.688,224.87 -194.688,185.202 -194.688,168.536 		"/>
		<path d="M-259.201,239.265c7.95,0,14.396-6.445,14.396-14.395h-28.79C-273.596,232.819-267.151,239.265-259.201,239.265z"/>
		<path d="M-209.083,239.265c7.95,0,14.395-6.445,14.395-14.395h-28.789C-223.478,232.819-217.032,239.265-209.083,239.265z"/>
		<path fill="#333333" d="M-259.201,210.476c-7.95,0-14.395,6.443-14.395,14.395h28.79
			C-244.806,216.919-251.251,210.476-259.201,210.476z"/>
		<path fill="#333333" d="M-209.083,210.476c-7.949,0-14.395,6.443-14.395,14.395h28.789
			C-194.688,216.919-201.133,210.476-209.083,210.476z"/>
		<path fill="#E9E9EA" d="M-193.096,126.679l4.067,3.876l7.578,0.608c0,0-0.179,2.722-2.063,4.648l-10.556,10.82
			c-4.151,4.248-11.023,4.326-15.271,0.174l-1.743-1.704L-193.096,126.679z"/>
		<g>
			<rect x="-256.2" y="119.745" fill="#604E75" width="58.78" height="37.01"/>
			<polygon fill="#3A314C" points="-197.42,119.745 -256.2,119.745 -269.262,108.135 -210.482,108.135 			"/>
			<polygon fill="#4A3D5E" points="-256.2,156.755 -269.262,145.145 -269.262,108.135 -256.2,119.745 			"/>
			<polygon points="-261.099,115.392 -202.318,115.392 -204.975,113.032 -263.754,113.032 			"/>
			<polygon fill="#74678A" points="-256.2,119.745 -269.262,108.135 -242.049,104.36 -228.987,116.025 			"/>
			<polygon fill="#74678A" points="-223.908,116.264 -236.97,104.653 -210.482,108.135 -197.42,119.8 			"/>
			<g>
				<g>
					<path d="M-250.076,132.991c0.322,2.958,1.152,5.817,1.64,8.746c0.106,0.643,1.354,0.606,1.25-0.023
						c-0.487-2.928-1.318-5.79-1.64-8.746C-248.896,132.319-250.146,132.351-250.076,132.991L-250.076,132.991z"/>
				</g>
			</g>
			<g>
				<g>
					<path d="M-249.297,133.527c2.191-0.054,4.289-0.763,6.377-1.366c-0.047,0.014-0.572-0.995-0.854-0.914
						c-2.088,0.604-4.186,1.313-6.377,1.367C-250.002,132.61-249.65,133.536-249.297,133.527L-249.297,133.527z"/>
				</g>
			</g>
			<g>
				<g>
					<path d="M-249.331,137.444c1.319-0.006,2.624-0.1,3.917-0.364c0.053-0.011-0.341-1.147-0.604-1.094
						c-1.295,0.264-2.599,0.358-3.918,0.364C-249.911,136.351-249.651,137.446-249.331,137.444L-249.331,137.444z"/>
				</g>
			</g>
			<g>
				<g>
					<path d="M-241.596,132.429c0.092,2.373,0.197,4.744,0.455,7.106c0.041,0.375,1.187,0.579,1.236,0.191
						c0.236-1.85,0.105-3.7,0.091-5.558c-0.003-0.412-1.238-0.533-1.235-0.191c0.016,1.857,0.145,3.708-0.092,5.558
						c0.412,0.063,0.824,0.128,1.236,0.191c-0.26-2.362-0.364-4.733-0.456-7.106C-240.377,132.204-241.608,132.097-241.596,132.429
						L-241.596,132.429z"/>
				</g>
			</g>
			<g>
				<g>
					<path d="M-240.914,132.997c0.724-0.121,3.713-1.316,4.168-0.447c0.527,1.012-0.511,2.094-1.288,2.542
						c-0.862,0.496-1.949,0.644-2.917,0.786c-0.645,0.096-0.095,1.215,0.493,1.128c2.208-0.325,5.812-1.524,4.698-4.544
						c-0.868-2.354-3.963-0.873-5.646-0.593C-242.053,131.978-241.5,133.095-240.914,132.997L-240.914,132.997z"/>
				</g>
			</g>
			<g>
				<g>
					<path d="M-241.127,136.427c1.905,0.852,3.855,1.629,5.615,2.766c0.342,0.221,1.508-0.014,0.91-0.398
						c-1.834-1.186-3.875-1.995-5.863-2.883C-240.897,135.718-241.875,136.093-241.127,136.427L-241.127,136.427z"/>
				</g>
			</g>
			<g>
				<g>
					<path d="M-239.49,135.933c-0.223,2.264,2.763,2.784,4.358,3.336c0.256,0.088,0.633,0.148,0.817-0.115
						c0.168-0.238-0.07-0.539-0.301-0.618c-1.069-0.37-3.813-0.748-3.659-2.313C-238.217,135.636-239.435,135.369-239.49,135.933
						L-239.49,135.933z"/>
				</g>
			</g>
			<g>
				<g>
					<path d="M-231.297,130.179c0.53,2.973-0.207,6.051-0.809,8.957c-0.072,0.346,1.143,0.206,1.207-0.103
						c0.609-2.947,1.368-6.071,0.83-9.083C-230.124,129.636-231.354,129.86-231.297,130.179L-231.297,130.179z"/>
				</g>
			</g>
			<g>
				<g>
					<path d="M-231.254,130.128c1.234,2.7,2.194,5.515,3.461,8.2c0.199,0.423,1.412,0.623,1.145,0.055
						c-1.268-2.687-2.229-5.501-3.463-8.2C-230.305,129.757-231.518,129.554-231.254,130.128L-231.254,130.128z"/>
				</g>
			</g>
			<g>
				<g>
					<path d="M-231,136.327c0.932,0,1.846-0.033,2.748-0.286c0.52-0.146-0.209-1.149-0.672-1.02
						c-0.835,0.234-1.672,0.259-2.533,0.26C-232.092,135.282-231.459,136.327-231,136.327L-231,136.327z"/>
				</g>
			</g>
			<g>
				<g>
					<path d="M-222.869,128.944c-1.788-0.344-4.005-0.453-4.611,1.655c-0.734,2.558,1.432,4.998,3.168,6.522
						c1.806,1.586,3.644,0.963,4.015-1.383c0.302-1.912-1.21-2.672-2.839-2.22c-0.385,0.106,0.123,1.234,0.579,1.107
						c0.159-0.044,1.431-0.448,1.478,0.108c0.066,0.781-0.344,1.735-1.03,2.108c-1.415,0.771-3.394-1.813-4.036-2.724
						c-0.832-1.18-0.982-3.167,0.411-3.957c0.935-0.531,2.286-0.262,3.274-0.072C-222.047,130.171-222.442,129.026-222.869,128.944
						L-222.869,128.944z"/>
				</g>
			</g>
			<g>
				<g>
					<path d="M-219.251,127.924c0.062,2.842,0.868,5.569,1.185,8.382c0.053,0.465,1.247,0.787,1.189,0.272
						c-0.316-2.813-1.123-5.54-1.185-8.382C-218.072,127.733-219.262,127.388-219.251,127.924L-219.251,127.924z"/>
				</g>
			</g>
			<g>
				<g>
					<path d="M-215.363,127.537c-0.005,1.679-0.044,3.356-0.038,5.035c0.003,0.821-0.244,2.481,0.399,3.177
						c1.018,1.1,2.659-0.086,3.818-0.301c0.807-0.148,0.336-1.058-0.367-0.928c-0.483,0.089-0.939,0.226-1.398,0.4
						c-0.917,0.35-1.09,0.404-1.164-0.689c-0.154-2.235-0.008-4.503,0-6.742C-214.111,126.843-215.361,126.886-215.363,127.537
						L-215.363,127.537z"/>
				</g>
			</g>
			<g>
				<g>
					<path d="M-206.068,125.198c-1.183,0.283-2.569,0.477-3.361,1.482c-0.877,1.111-0.21,2.768,0.141,3.938
						c0.348,1.161,0.442,3.315,1.703,3.968c1.378,0.711,2.648,0.091,3.996-0.43c0.695-0.27,0.043-1.332-0.613-1.078
						c-0.917,0.354-2.408,1.277-3.146,0.137c-0.501-0.776-0.575-1.916-0.813-2.795c-0.271-1.008-0.909-2.199-0.135-3.183
						c0.478-0.605,1.852-0.702,2.563-0.872C-204.979,126.186-205.381,125.034-206.068,125.198L-206.068,125.198z"/>
				</g>
			</g>
			<g>
				<g>
					<path d="M-207.984,131.619c0.764-0.271,1.569-0.384,2.34-0.628c0.104-0.033-0.311-0.268-0.345-0.287
						c-0.138-0.076-0.542-0.346-0.714-0.291c-0.791,0.251-1.616,0.371-2.398,0.647c-0.016,0.005,0.484,0.335,0.521,0.354
						C-208.446,131.481-208.144,131.675-207.984,131.619L-207.984,131.619z"/>
				</g>
			</g>
			<g>
				<g>
					<path d="M-247.113,146.816c5.692-3.167,12.334-3.646,18.613-4.948c8.045-1.667,16.389-0.283,24.3-1.977
						c-0.17,0.037-0.686-0.779-1.032-0.705c-7.365,1.576-15.191,0.213-22.67,1.641c-6.691,1.279-14.201,1.923-20.242,5.284
						C-248.093,146.082-247.359,146.954-247.113,146.816L-247.113,146.816z"/>
				</g>
			</g>
		</g>
		<path fill="#E9E9EA" d="M-275.188,126.679l-4.067,3.876l-7.578,0.608c0,0,0.179,2.722,2.063,4.648l10.556,10.82
			c4.151,4.248,11.023,4.326,15.271,0.174l1.743-1.704L-275.188,126.679z"/>
	</g>
	<g>
		<path fill="#E9E9EA" d="M-157.107,30.155c-0.893,0-1.755,0.118-2.586,0.318c-8.769-28.624-38.907-49.725-74.753-49.725
			c-35.845,0-65.983,21.101-74.752,49.725c-0.83-0.201-1.693-0.318-2.586-0.318c-6.075,0-11,4.925-11,11c0,6.075,4.925,11,11,11
			c0.067,0,0.133-0.009,0.199-0.01c2.714,33.829,36.201,49.417,77.139,49.417s74.426-15.588,77.14-49.417
			c0.067,0.001,0.132,0.01,0.199,0.01c6.075,0,11-4.925,11-11C-146.107,35.08-151.032,30.155-157.107,30.155z"/>
		<g>
			<circle cx="-275.188" cy="37.863" r="7.5"/>
			<circle fill="#FFFFFF" cx="-277.682" cy="35.82" r="3.03"/>
		</g>
		<g>
			<circle cx="-194.688" cy="37.863" r="7.5"/>
			<circle fill="#FFFFFF" cx="-197.182" cy="35.82" r="3.03"/>
		</g>
		<path fill="#B69FCC" d="M-186.052-10.083c-7.166-5.333-24.17-11.994-44.657-12.637c-22.176-0.696-49.676,7.471-59.843,18.304
			c-10.324,11.001-19.127,25.778-18.646,34.889c0,0,2.813,3.335,2.813,7.39h5.5c0,0,0.5-26.445,16-36.445
			c0,0,7.499-0.833,10.167,4.833c0,0,4.227-3.333,2.029-6.5c0,0,24.429-4.833,39.929,10.792c0,0,3.125-5.542,0.875-7.542
			c0,0,16.125,0.667,22.375,7.917c0,0,0.875-2.417,0-5c-0.444-1.313,23.625-1.875,29.75,7.25c0,0,0.667-8.583-5.792-12.917
			c19.667,12.667,17.667,37.612,17.667,37.612h5.333c0.166-4.055,2.858-7.39,2.858-7.39
			C-161.771,5.949-178.885-4.749-186.052-10.083z"/>
		<path fill="none" stroke="#000000" stroke-width="3" stroke-linecap="round" stroke-miterlimit="10" d="M-234.446,32.79
			c0,0,0.812,8.268,4.312,12.573l-4.312,3.555"/>
		<path fill="none" stroke="#000000" stroke-width="3" stroke-linecap="round" stroke-miterlimit="10" d="M-246.715,55.625
			c0,5.106,3.843,12.917,12.319,12.917s12.826-6.482,12.826-12.827"/>
	</g>
</g>
<path fill="#604E75" d="M314.499,262.848c-1.075,8.804-9.084,15.069-17.887,13.995L35.872,245.016
	c-8.804-1.073-15.07-9.082-13.996-17.886l24.626-201.75c1.074-8.804,9.083-15.07,17.887-13.996l260.74,31.826
	c8.803,1.074,15.07,9.083,13.995,17.887L314.499,262.848z"/>
<path fill="#B69FCC" d="M308.577,257.601c-1.026,8.414-8.682,14.404-17.096,13.377l-249.219-30.42
	c-8.415-1.027-14.404-8.682-13.377-17.097L52.422,30.626c1.027-8.416,8.682-14.404,17.097-13.377l249.219,30.419
	c8.415,1.026,14.403,8.681,13.377,17.096L308.577,257.601z"/>
<g>
	<path fill="#604E75" d="M169.233,38.725c0.717,0.087,1.171,0.669,1.083,1.386l-2.159,17.686c-0.321,2.629-1.739,9.611-11.179,8.458
		c-8.484-1.035-9.103-6.892-8.889-9.979c0.028-0.563,0.44-0.957,1.013-1.009l4.543-0.456c0.856-0.057,1.426,0.578,1.442,1.429
		c-0.015,1.777,0.576,2.9,2.727,3.163c2.948,0.36,3.375-1.488,3.75-4.555l1.901-15.574c0.088-0.717,0.669-1.172,1.386-1.084
		L169.233,38.725z"/>
	<path fill="#604E75" d="M179.667,39.998c0.796,0.098,1.146,0.545,1.049,1.341l-1.906,15.614c-0.374,3.067-0.404,4.964,2.544,5.324
		s3.375-1.488,3.75-4.556l1.906-15.614c0.097-0.796,0.584-1.142,1.34-1.049l4.462,0.544c0.796,0.097,1.146,0.544,1.049,1.341
		l-2.164,17.726c-0.32,2.63-1.738,9.612-11.179,8.459c-9.44-1.152-9.137-8.27-8.817-10.899l2.164-17.725
		c0.097-0.797,0.584-1.142,1.341-1.05L179.667,39.998z"/>
	<path fill="#604E75" d="M203.404,42.896c0.798,0.097,1.147,0.544,1.05,1.341l-2.275,18.642c-0.092,0.757,0.292,1.248,1.049,1.34
		l8.883,1.084c0.797,0.097,1.146,0.544,1.05,1.341l-0.545,4.461c-0.098,0.797-0.544,1.146-1.342,1.049l-15.732-1.92
		c-0.758-0.093-1.142-0.584-1.05-1.341l3.111-25.493c0.098-0.796,0.584-1.142,1.342-1.049L203.404,42.896z"/>
	<path fill="#604E75" d="M219.376,44.845c0.678,0.083,1.082,0.415,1.243,1.082l2.044,7.768c0.114,0.378,0.354,0.408,0.558,0.068
		l3.851-7.049c0.317-0.608,0.79-0.834,1.467-0.751l5.695,0.695c0.917,0.112,1.247,0.719,0.746,1.507l-9.074,15.063
		c-0.099,0.15-0.118,0.309-0.138,0.469l-1.084,8.882c-0.092,0.757-0.544,1.146-1.342,1.049l-5.575-0.681
		c-0.758-0.092-1.143-0.584-1.051-1.341l1.085-8.882c0.019-0.16,0.039-0.318-0.021-0.488l-5.227-16.809
		c-0.296-0.885,0.171-1.395,1.087-1.282L219.376,44.845z"/>
</g>
<g>
	<path fill="#604E75" d="M152.766,242.964c0.455,0.055,0.656,0.311,0.6,0.767l-0.312,2.554c-0.056,0.456-0.312,0.656-0.767,0.6
		l-9.711-1.186c-0.433-0.052-0.653-0.333-0.6-0.766l0.239-1.962c0.64-5.243,7.523-5.906,8.107-7.663
		c0.22-0.667-0.072-1.305-0.961-1.413c-1.071-0.131-1.668,0.398-1.942,1.313c-0.124,0.448-0.377,0.625-0.821,0.478l-2.53-0.887
		c-0.399-0.141-0.574-0.416-0.5-0.825c0.336-1.624,1.576-4.572,6.272-4c5.106,0.623,4.796,4.681,4.69,5.362
		c-0.545,4.468-6.604,4.445-7.684,6.65c-0.064,0.154-0.007,0.254,0.175,0.275L152.766,242.964z"/>
	<path fill="#604E75" d="M160.899,248.353c-5.402-0.66-5.062-6.101-4.698-9.089c0.376-3.077,1.206-8.366,6.746-7.69
		c5.585,0.683,5.063,6.103,4.698,9.089C167.281,243.648,166.302,249.012,160.899,248.353z M160.122,239.743
		c-0.281,2.302-0.522,4.471,1.255,4.688c1.688,0.205,2.066-1.945,2.347-4.247c0.281-2.304,0.522-4.473-1.256-4.689
		C160.782,235.289,160.403,237.439,160.122,239.743z"/>
	<path fill="#604E75" d="M174.576,250.021c-5.403-0.659-5.062-6.101-4.698-9.088c0.376-3.078,1.206-8.367,6.746-7.691
		c5.584,0.683,5.063,6.103,4.698,9.089C180.958,245.317,179.979,250.681,174.576,250.021z M173.799,241.412
		c-0.281,2.302-0.523,4.471,1.255,4.688c1.688,0.206,2.066-1.945,2.347-4.247c0.28-2.303,0.522-4.472-1.256-4.688
		C174.458,236.958,174.08,239.109,173.799,241.412z"/>
	<path fill="#604E75" d="M184.018,250.758c-0.501-0.062-0.691-0.409-0.404-0.859l6.216-10.37c0.089-0.15,0.057-0.271-0.126-0.293
		l-5.607-0.685c-0.434-0.053-0.654-0.334-0.602-0.767l0.312-2.554c0.056-0.456,0.334-0.652,0.769-0.6l11.443,1.396
		c0.548,0.066,0.62,0.423,0.355,0.877l-8.326,13.813c-0.204,0.347-0.474,0.475-0.861,0.427L184.018,250.758z"/>
</g>
<g>
	<g>
		<path fill="#604E75" d="M85.973,95.041c-0.156,1.275-1.363,2.178-2.696,2.015l-32.228-3.934c-1.333-0.163-2.288-1.329-2.132-2.604
			l2.341-19.176c0.156-1.276,1.363-2.178,2.696-2.015l32.228,3.934c1.333,0.163,2.288,1.329,2.132,2.604L85.973,95.041z"/>
		<path fill="#604E75" d="M125.163,99.824c-0.156,1.275-1.363,2.177-2.696,2.015l-32.228-3.934
			c-1.333-0.163-2.288-1.329-2.132-2.604l2.34-19.175c0.156-1.276,1.363-2.178,2.696-2.016l32.228,3.934
			c1.333,0.163,2.288,1.329,2.132,2.605L125.163,99.824z"/>
		<path fill="#604E75" d="M164.353,104.607c-0.155,1.276-1.362,2.178-2.695,2.015l-32.227-3.933
			c-1.334-0.163-2.289-1.329-2.133-2.604l2.34-19.175c0.156-1.276,1.363-2.178,2.697-2.016l32.227,3.934
			c1.333,0.163,2.288,1.329,2.132,2.605L164.353,104.607z"/>
		<path fill="#604E75" d="M203.544,109.391c-0.156,1.275-1.364,2.178-2.697,2.015l-32.226-3.934
			c-1.334-0.163-2.288-1.329-2.132-2.604l2.34-19.176c0.156-1.276,1.362-2.178,2.696-2.015l32.227,3.934
			c1.333,0.162,2.288,1.329,2.133,2.604L203.544,109.391z"/>
		<path fill="#604E75" d="M242.723,114.263c-0.156,1.276-1.362,2.179-2.696,2.017l-32.227-3.934
			c-1.333-0.163-2.288-1.329-2.133-2.606l2.341-19.175c0.155-1.275,1.363-2.177,2.696-2.015l32.227,3.934
			c1.333,0.163,2.288,1.329,2.132,2.605L242.723,114.263z"/>
		<path fill="#604E75" d="M281.924,118.958c-0.156,1.276-1.361,2.178-2.696,2.015l-32.226-3.933
			c-1.334-0.163-2.289-1.329-2.134-2.604l2.342-19.175c0.154-1.276,1.362-2.178,2.695-2.016l32.227,3.934
			c1.335,0.163,2.288,1.329,2.132,2.605L281.924,118.958z"/>
		<path fill="#604E75" d="M321.104,123.83c-0.155,1.276-1.362,2.179-2.696,2.017l-32.228-3.934
			c-1.332-0.162-2.287-1.329-2.131-2.605l2.34-19.175c0.156-1.275,1.362-2.178,2.695-2.015l32.228,3.933
			c1.333,0.163,2.288,1.33,2.132,2.605L321.104,123.83z"/>
	</g>
	<g>
		<path fill="#604E75" d="M82.773,121.252c-0.155,1.276-1.363,2.178-2.695,2.016l-32.229-3.934
			c-1.333-0.163-2.288-1.329-2.131-2.605l2.34-19.175c0.156-1.276,1.364-2.179,2.696-2.016l32.228,3.934
			c1.333,0.163,2.288,1.33,2.132,2.605L82.773,121.252z"/>
		<path fill="#604E75" d="M121.963,126.036c-0.155,1.276-1.362,2.178-2.696,2.015l-32.228-3.934
			c-1.333-0.162-2.288-1.329-2.132-2.604l2.34-19.175c0.156-1.275,1.364-2.179,2.696-2.016l32.228,3.934
			c1.333,0.163,2.288,1.33,2.132,2.605L121.963,126.036z"/>
		<path fill="#604E75" d="M161.153,130.819c-0.156,1.276-1.362,2.178-2.696,2.015l-32.226-3.934
			c-1.334-0.163-2.289-1.329-2.133-2.605l2.341-19.175c0.155-1.275,1.362-2.179,2.697-2.016l32.227,3.933
			c1.333,0.163,2.287,1.33,2.132,2.605L161.153,130.819z"/>
		<path fill="#604E75" d="M200.344,135.603c-0.154,1.276-1.363,2.178-2.695,2.016l-32.227-3.934
			c-1.334-0.163-2.289-1.329-2.133-2.605l2.341-19.175c0.155-1.276,1.362-2.179,2.697-2.016l32.226,3.934
			c1.333,0.163,2.289,1.33,2.134,2.605L200.344,135.603z"/>
		<path fill="#604E75" d="M239.523,140.477c-0.156,1.275-1.363,2.178-2.697,2.015l-32.226-3.934
			c-1.334-0.163-2.289-1.329-2.133-2.604l2.341-19.176c0.155-1.276,1.363-2.178,2.695-2.015l32.228,3.933
			c1.334,0.163,2.288,1.329,2.132,2.604L239.523,140.477z"/>
		<path fill="#604E75" d="M278.725,145.17c-0.156,1.276-1.362,2.178-2.697,2.015l-32.226-3.934
			c-1.334-0.163-2.288-1.329-2.133-2.605l2.341-19.175c0.156-1.275,1.363-2.179,2.697-2.016l32.226,3.933
			c1.335,0.163,2.288,1.33,2.133,2.605L278.725,145.17z"/>
		<path fill="#604E75" d="M317.904,150.043c-0.156,1.275-1.362,2.178-2.696,2.015l-32.229-3.933
			c-1.332-0.163-2.287-1.33-2.131-2.604l2.34-19.176c0.156-1.275,1.364-2.178,2.696-2.015l32.228,3.934
			c1.334,0.163,2.288,1.329,2.132,2.604L317.904,150.043z"/>
	</g>
	<g>
		<path fill="#604E75" d="M79.574,147.465c-0.155,1.275-1.363,2.178-2.695,2.015l-32.228-3.934
			c-1.333-0.162-2.288-1.329-2.132-2.604l2.34-19.175c0.156-1.277,1.363-2.179,2.696-2.017l32.228,3.934
			c1.333,0.163,2.288,1.33,2.132,2.606L79.574,147.465z"/>
		<path fill="#604E75" d="M118.764,152.248c-0.155,1.276-1.362,2.178-2.695,2.016L83.84,150.33
			c-1.332-0.163-2.287-1.329-2.131-2.604l2.34-19.174c0.156-1.277,1.364-2.179,2.696-2.017l32.228,3.934
			c1.333,0.163,2.288,1.329,2.132,2.606L118.764,152.248z"/>
		<path fill="#604E75" d="M157.954,157.032c-0.156,1.276-1.362,2.178-2.696,2.015l-32.227-3.933
			c-1.334-0.163-2.289-1.33-2.133-2.605l2.341-19.174c0.156-1.277,1.363-2.18,2.697-2.017l32.227,3.934
			c1.334,0.162,2.288,1.329,2.132,2.606L157.954,157.032z"/>
		<path fill="#604E75" d="M197.145,161.815c-0.155,1.275-1.363,2.178-2.695,2.015l-32.228-3.933
			c-1.334-0.163-2.288-1.329-2.133-2.604l2.341-19.175c0.156-1.276,1.363-2.179,2.697-2.017l32.227,3.934
			c1.332,0.162,2.288,1.329,2.132,2.605L197.145,161.815z"/>
		<path fill="#604E75" d="M236.323,166.688c-0.156,1.276-1.362,2.179-2.696,2.015l-32.226-3.933
			c-1.334-0.164-2.288-1.329-2.134-2.605l2.342-19.176c0.155-1.275,1.362-2.178,2.696-2.015l32.226,3.934
			c1.334,0.163,2.288,1.329,2.133,2.604L236.323,166.688z"/>
		<path fill="#604E75" d="M275.524,171.383c-0.155,1.274-1.361,2.178-2.695,2.015l-32.227-3.934
			c-1.334-0.163-2.288-1.329-2.134-2.604l2.342-19.175c0.156-1.277,1.362-2.179,2.696-2.017l32.226,3.934
			c1.335,0.163,2.289,1.329,2.133,2.606L275.524,171.383z"/>
		<path fill="#604E75" d="M314.704,176.255c-0.155,1.277-1.362,2.179-2.696,2.016l-32.227-3.933
			c-1.333-0.164-2.288-1.329-2.132-2.605l2.341-19.176c0.155-1.276,1.362-2.178,2.694-2.015l32.228,3.933
			c1.334,0.163,2.288,1.329,2.134,2.604L314.704,176.255z"/>
	</g>
	<g>
		<path fill="#604E75" d="M76.375,173.676c-0.156,1.277-1.363,2.178-2.696,2.016l-32.228-3.934
			c-1.332-0.163-2.288-1.328-2.132-2.604l2.34-19.175c0.156-1.275,1.363-2.178,2.696-2.015l32.228,3.934
			c1.333,0.163,2.288,1.329,2.132,2.605L76.375,173.676z"/>
		<path fill="#604E75" d="M115.565,178.46c-0.156,1.277-1.363,2.177-2.696,2.015l-32.228-3.934
			c-1.332-0.163-2.288-1.327-2.132-2.604l2.341-19.176c0.155-1.275,1.363-2.178,2.696-2.015l32.228,3.934
			c1.333,0.163,2.287,1.329,2.132,2.604L115.565,178.46z"/>
		<path fill="#604E75" d="M154.755,183.243c-0.156,1.277-1.362,2.178-2.696,2.016l-32.226-3.935
			c-1.334-0.162-2.289-1.326-2.133-2.604l2.341-19.175c0.155-1.276,1.363-2.178,2.697-2.015l32.227,3.934
			c1.333,0.162,2.288,1.329,2.132,2.604L154.755,183.243z"/>
		<path fill="#604E75" d="M193.946,188.027c-0.156,1.276-1.364,2.177-2.697,2.015l-32.227-3.934
			c-1.334-0.163-2.289-1.327-2.132-2.604l2.34-19.176c0.156-1.275,1.362-2.179,2.696-2.016l32.228,3.933
			c1.331,0.164,2.288,1.33,2.132,2.605L193.946,188.027z"/>
		<path fill="#604E75" d="M233.124,192.899c-0.155,1.276-1.363,2.179-2.696,2.017l-32.227-3.934
			c-1.334-0.163-2.288-1.329-2.132-2.605l2.34-19.175c0.156-1.275,1.363-2.179,2.697-2.016l32.226,3.934
			c1.334,0.163,2.289,1.329,2.133,2.604L233.124,192.899z"/>
		<path fill="#604E75" d="M272.326,197.595c-0.156,1.276-1.361,2.177-2.697,2.014l-32.227-3.934
			c-1.333-0.162-2.288-1.326-2.132-2.604l2.34-19.176c0.156-1.275,1.363-2.177,2.697-2.015l32.227,3.933
			c1.334,0.163,2.288,1.33,2.132,2.605L272.326,197.595z"/>
		<path fill="#604E75" d="M311.505,202.467c-0.156,1.276-1.362,2.179-2.696,2.017l-32.227-3.935
			c-1.333-0.162-2.287-1.328-2.133-2.605l2.342-19.174c0.155-1.276,1.362-2.179,2.695-2.016l32.227,3.933
			c1.334,0.164,2.288,1.33,2.133,2.605L311.505,202.467z"/>
	</g>
	<path fill="#604E75" d="M73.175,199.888c-0.155,1.276-1.363,2.18-2.695,2.017l-32.229-3.933c-1.332-0.164-2.287-1.33-2.131-2.606
		l2.341-19.175c0.155-1.274,1.362-2.177,2.695-2.015l32.228,3.935c1.333,0.162,2.287,1.328,2.132,2.603L73.175,199.888z"/>
	<path fill="#604E75" d="M112.365,204.672c-0.156,1.276-1.363,2.179-2.696,2.017l-32.228-3.935
		c-1.333-0.162-2.288-1.328-2.132-2.604l2.34-19.175c0.156-1.274,1.363-2.178,2.696-2.016l32.228,3.935
		c1.333,0.163,2.288,1.329,2.132,2.604L112.365,204.672z"/>
	<path fill="#604E75" d="M151.555,209.455c-0.156,1.276-1.362,2.18-2.696,2.017l-32.226-3.934c-1.334-0.163-2.289-1.329-2.133-2.606
		l2.34-19.174c0.155-1.275,1.363-2.177,2.697-2.015l32.226,3.935c1.333,0.162,2.288,1.328,2.132,2.603L151.555,209.455z"/>
</g>
<g>
	<path fill="#B69FCC" d="M82.261,83.814c0.259,0.032,0.372,0.177,0.341,0.436l-1.011,8.28c-0.03,0.247-0.177,0.373-0.436,0.341
		l-1.437-0.175c-0.245-0.03-0.37-0.189-0.34-0.436l0.695-5.692c0.032-0.259-0.082-0.404-0.341-0.436l-0.557-0.068
		c-0.246-0.03-0.37-0.189-0.34-0.436l0.084-0.698c0.027-0.22,0.122-0.353,0.316-0.435l1.777-0.794
		c0.055-0.02,0.108-0.026,0.173-0.019L82.261,83.814z"/>
</g>
<g>
	<path fill="#B69FCC" d="M121.873,95.582c0.259,0.032,0.372,0.177,0.34,0.436l-0.177,1.449c-0.031,0.258-0.176,0.373-0.435,0.341
		l-5.512-0.673c-0.246-0.03-0.371-0.189-0.341-0.435l0.136-1.113c0.363-2.976,4.269-3.353,4.602-4.35
		c0.125-0.377-0.041-0.74-0.545-0.801c-0.608-0.074-0.947,0.226-1.103,0.745c-0.07,0.254-0.214,0.354-0.466,0.271l-1.435-0.503
		c-0.227-0.081-0.326-0.237-0.285-0.468c0.192-0.922,0.895-2.596,3.56-2.271c2.897,0.353,2.722,2.656,2.662,3.043
		c-0.31,2.535-3.749,2.522-4.361,3.774c-0.037,0.087-0.004,0.144,0.1,0.156L121.873,95.582z"/>
</g>
<g>
	<path fill="#B69FCC" d="M155.101,95.607c-0.227-0.081-0.326-0.237-0.284-0.468c0.191-0.922,0.895-2.596,3.56-2.271
		c2.083,0.254,2.916,1.708,2.668,3.201c-0.177,1.016-0.73,1.565-1.146,1.75c-0.095,0.028-0.101,0.08-0.016,0.13
		c0.36,0.28,0.764,0.946,0.691,1.975c-0.119,1.509-1.278,2.719-3.36,2.465c-2.666-0.325-2.946-2.119-2.91-3.06
		c0.016-0.234,0.149-0.362,0.389-0.386l1.514-0.144c0.265-0.021,0.38,0.112,0.387,0.376c0.026,0.541,0.283,0.914,0.891,0.988
		c0.518,0.063,0.98-0.393,0.773-0.956c-0.15-0.386-0.574-0.674-1.185-0.827c-0.256-0.058-0.371-0.189-0.341-0.436l0.107-0.88
		c0.03-0.246,0.173-0.347,0.436-0.341c0.63-0.001,1.111-0.179,1.35-0.518c0.349-0.496-0.003-1.051-0.521-1.114
		c-0.608-0.075-0.947,0.226-1.103,0.745c-0.07,0.254-0.213,0.355-0.466,0.272L155.101,95.607z"/>
</g>
<g>
	<path fill="#B69FCC" d="M201.229,103.981c-0.031,0.246-0.179,0.372-0.437,0.341l-0.155-0.02c-0.246-0.029-0.404,0.083-0.436,0.341
		l-0.285,2.329c-0.029,0.246-0.177,0.373-0.435,0.34l-1.448-0.177c-0.247-0.03-0.372-0.189-0.341-0.436l0.283-2.328
		c0.031-0.259-0.082-0.404-0.341-0.436l-3.271-0.4c-0.248-0.03-0.372-0.189-0.342-0.436l0.221-1.812
		c0.002-0.012,0.054-0.111,0.109-0.249l1.382-2.076c0.129-0.195,0.246-0.286,0.479-0.257l1.423,0.174
		c0.285,0.034,0.431,0.236,0.27,0.479l-1.352,2.04c-0.037,0.088-0.019,0.143,0.087,0.155l1.267,0.155
		c0.259,0.031,0.405-0.095,0.437-0.341l0.392-3.208c0.03-0.259,0.188-0.371,0.436-0.341l1.449,0.177
		c0.258,0.031,0.371,0.177,0.34,0.435l-0.392,3.208c-0.03,0.246,0.094,0.406,0.341,0.436l0.155,0.019
		c0.258,0.031,0.373,0.177,0.341,0.436L201.229,103.981z"/>
</g>
<g>
	<path fill="#B69FCC" d="M239.24,104.839c-0.031,0.259-0.177,0.373-0.436,0.341l-3.247-0.396c-0.078-0.01-0.134,0.023-0.146,0.114
		l-0.031,0.258c-0.03,0.246,0.095,0.406,0.341,0.436l0.4,0.049c2.394,0.292,2.986,2.321,2.838,3.537
		c-0.166,1.358-1.211,3.042-3.605,2.751c-2.665-0.326-2.944-2.119-2.909-3.061c0.017-0.234,0.15-0.362,0.39-0.386l1.515-0.143
		c0.264-0.021,0.38,0.111,0.386,0.375c0.026,0.542,0.282,0.914,0.891,0.988c0.622,0.076,0.941-0.384,0.928-0.819
		c-0.019-0.711-0.486-1.07-1.482-1.192l-1.836-0.224c-0.246-0.03-0.372-0.19-0.342-0.436l0.534-4.373
		c0.029-0.246,0.189-0.371,0.436-0.341l5.213,0.636c0.259,0.031,0.373,0.177,0.341,0.436L239.24,104.839z"/>
</g>
<g>
	<path fill="#B69FCC" d="M278.987,107.827c0.363,0.044,0.39,0.245,0.089,0.444c-0.845,0.58-2.249,1.655-2.719,2.491
		c-0.052,0.098,0.008,0.158,0.139,0.161c2.041,0.053,3.065,1.557,2.867,3.186c-0.207,1.695-1.471,3.011-3.631,2.748
		c-2.161-0.264-3.071-1.846-2.864-3.541c0.2-1.643,1.491-4.36,3.681-5.63c0.17-0.098,0.317-0.119,0.499-0.097L278.987,107.827z
		 M275.065,113.821c-0.081,0.66,0.282,1.019,0.903,1.095c0.569,0.069,1.061-0.187,1.142-0.846c0.079-0.66-0.283-1.02-0.904-1.095
		C275.636,112.906,275.146,113.161,275.065,113.821z"/>
</g>
<g>
	<path fill="#B69FCC" d="M311.957,121.042c-0.284-0.035-0.394-0.232-0.229-0.488l3.527-5.884c0.049-0.086,0.032-0.154-0.07-0.167
		L312,114.115c-0.246-0.03-0.37-0.189-0.34-0.436l0.177-1.449c0.032-0.258,0.189-0.371,0.436-0.341l6.494,0.793
		c0.311,0.038,0.352,0.24,0.202,0.497l-4.726,7.84c-0.116,0.196-0.269,0.269-0.489,0.242L311.957,121.042z"/>
</g>
<g>
	<path fill="#B69FCC" d="M80.346,117.134c-0.204,1.669-1.474,3.037-3.634,2.773s-3.063-1.897-2.86-3.565
		c0.104-0.854,0.462-1.533,1.105-1.953c-0.316-0.538-0.42-1.181-0.34-1.84c0.184-1.501,1.185-2.39,3.254-2.137
		c1.966,0.24,2.828,1.356,2.645,2.857c-0.081,0.659-0.352,1.27-0.789,1.729C80.249,115.56,80.448,116.293,80.346,117.134z
		 M78.121,116.863c0.081-0.66-0.286-0.993-0.907-1.069c-0.569-0.069-1.057,0.16-1.137,0.819c-0.077,0.635,0.286,0.994,0.907,1.069
		C77.552,117.751,78.043,117.497,78.121,116.863z M77.433,113.995c0.518,0.063,0.966-0.171,1.036-0.74
		c0.074-0.608-0.253-0.937-0.822-1.006c-0.518-0.063-0.967,0.171-1.041,0.779C76.537,113.597,76.864,113.926,77.433,113.995z"/>
</g>
<g>
	<path fill="#B69FCC" d="M113.742,124.218c-0.349-0.043-0.413-0.274-0.137-0.49c0.814-0.649,1.972-1.742,2.445-2.499
		c0.05-0.086-0.007-0.158-0.124-0.173c-2.009-0.324-2.903-1.496-2.703-3.139c0.207-1.695,1.471-3.011,3.632-2.748
		c2.16,0.264,3.07,1.846,2.864,3.541c-0.2,1.63-1.859,3.935-3.583,5.576c-0.148,0.14-0.298,0.188-0.493,0.164L113.742,124.218z
		 M117.522,118.206c0.081-0.66-0.283-1.019-0.903-1.095c-0.569-0.069-1.06,0.186-1.141,0.846c-0.081,0.659,0.283,1.019,0.904,1.095
		C116.951,119.121,117.442,118.865,117.522,118.206z"/>
</g>
<g>
	<path fill="#B69FCC" d="M149.646,119.409c0.258,0.031,0.372,0.177,0.341,0.436l-1.011,8.28c-0.029,0.246-0.176,0.373-0.436,0.341
		l-1.437-0.175c-0.245-0.03-0.37-0.189-0.34-0.436l0.695-5.692c0.032-0.26-0.082-0.404-0.34-0.436l-0.557-0.068
		c-0.246-0.03-0.371-0.189-0.34-0.436l0.085-0.698c0.027-0.22,0.122-0.353,0.316-0.435l1.777-0.794
		c0.055-0.02,0.108-0.026,0.173-0.019L149.646,119.409z"/>
	<path fill="#B69FCC" d="M153.729,129.334c-3.066-0.374-2.873-3.462-2.667-5.157c0.213-1.747,0.685-4.749,3.829-4.365
		c3.17,0.387,2.873,3.462,2.667,5.157C157.35,126.665,156.794,129.708,153.729,129.334z M153.287,124.448
		c-0.159,1.307-0.296,2.538,0.713,2.661c0.957,0.117,1.172-1.104,1.332-2.411c0.159-1.307,0.296-2.537-0.712-2.66
		C153.662,121.921,153.447,123.142,153.287,124.448z"/>
</g>
<g>
	<path fill="#B69FCC" d="M192.676,124.661c0.259,0.032,0.372,0.177,0.341,0.436l-1.011,8.28c-0.03,0.247-0.177,0.373-0.435,0.341
		l-1.438-0.176c-0.246-0.029-0.37-0.189-0.341-0.436l0.695-5.692c0.032-0.259-0.083-0.404-0.341-0.436l-0.557-0.068
		c-0.245-0.03-0.371-0.189-0.341-0.436l0.086-0.699c0.026-0.22,0.121-0.353,0.315-0.435l1.777-0.793
		c0.055-0.02,0.107-0.027,0.173-0.019L192.676,124.661z"/>
	<path fill="#B69FCC" d="M197.595,125.261c0.258,0.031,0.372,0.177,0.342,0.436l-1.012,8.28c-0.029,0.246-0.177,0.372-0.437,0.34
		l-1.436-0.175c-0.246-0.03-0.371-0.19-0.341-0.436l0.694-5.692c0.031-0.259-0.082-0.404-0.34-0.435l-0.557-0.068
		c-0.245-0.03-0.371-0.189-0.341-0.435l0.085-0.699c0.027-0.22,0.123-0.353,0.316-0.434l1.777-0.794
		c0.055-0.019,0.108-0.026,0.173-0.018L197.595,125.261z"/>
</g>
<g>
	<path fill="#B69FCC" d="M228.24,129.002c0.259,0.031,0.372,0.176,0.34,0.436l-1.01,8.28c-0.029,0.246-0.178,0.373-0.437,0.34
		l-1.436-0.175c-0.245-0.03-0.37-0.189-0.341-0.436l0.695-5.692c0.032-0.259-0.082-0.404-0.342-0.436l-0.556-0.068
		c-0.245-0.03-0.371-0.189-0.34-0.436l0.085-0.698c0.026-0.22,0.122-0.353,0.316-0.435l1.777-0.794
		c0.053-0.02,0.108-0.026,0.172-0.019L228.24,129.002z"/>
	<path fill="#B69FCC" d="M235.081,136.77c0.26,0.032,0.372,0.177,0.34,0.436l-0.177,1.449c-0.031,0.259-0.175,0.373-0.436,0.341
		l-5.511-0.673c-0.246-0.03-0.37-0.189-0.341-0.436l0.136-1.112c0.363-2.977,4.27-3.353,4.602-4.35
		c0.124-0.378-0.041-0.74-0.546-0.802c-0.607-0.074-0.946,0.226-1.101,0.746c-0.072,0.253-0.215,0.354-0.468,0.271l-1.436-0.503
		c-0.226-0.08-0.325-0.237-0.285-0.468c0.192-0.921,0.896-2.596,3.561-2.271c2.898,0.354,2.722,2.657,2.661,3.043
		c-0.309,2.536-3.748,2.523-4.36,3.774c-0.036,0.088-0.004,0.144,0.1,0.157L235.081,136.77z"/>
</g>
<g>
	<path fill="#B69FCC" d="M268.163,133.875c0.259,0.031,0.373,0.177,0.342,0.436l-1.011,8.28c-0.031,0.246-0.179,0.372-0.437,0.341
		l-1.436-0.175c-0.246-0.03-0.371-0.19-0.342-0.436l0.695-5.692c0.032-0.259-0.083-0.404-0.341-0.435l-0.557-0.069
		c-0.244-0.029-0.371-0.189-0.34-0.435l0.085-0.699c0.026-0.22,0.122-0.353,0.316-0.435l1.777-0.794
		c0.054-0.019,0.107-0.026,0.173-0.018L268.163,133.875z"/>
	<path fill="#B69FCC" d="M270.198,137.025c-0.228-0.081-0.326-0.237-0.285-0.469c0.191-0.922,0.895-2.595,3.559-2.27
		c2.085,0.254,2.918,1.708,2.67,3.201c-0.178,1.016-0.729,1.565-1.146,1.75c-0.095,0.028-0.101,0.08-0.015,0.13
		c0.358,0.28,0.763,0.946,0.69,1.975c-0.119,1.508-1.276,2.72-3.36,2.465c-2.665-0.325-2.944-2.118-2.909-3.06
		c0.016-0.234,0.149-0.362,0.39-0.386l1.514-0.143c0.265-0.021,0.38,0.111,0.387,0.375c0.025,0.542,0.282,0.914,0.891,0.989
		c0.518,0.063,0.98-0.393,0.773-0.957c-0.149-0.386-0.574-0.674-1.186-0.827c-0.256-0.058-0.371-0.19-0.342-0.436l0.107-0.88
		c0.03-0.246,0.174-0.346,0.437-0.341c0.63-0.001,1.11-0.179,1.35-0.518c0.349-0.496-0.002-1.051-0.521-1.114
		c-0.606-0.074-0.946,0.226-1.102,0.746c-0.069,0.254-0.213,0.354-0.466,0.271L270.198,137.025z"/>
</g>
<g>
	<path fill="#B69FCC" d="M306.598,138.566c0.259,0.031,0.371,0.176,0.34,0.435l-1.011,8.28c-0.029,0.246-0.176,0.373-0.435,0.34
		l-1.438-0.175c-0.244-0.03-0.37-0.189-0.341-0.435l0.695-5.693c0.032-0.259-0.08-0.404-0.341-0.435l-0.556-0.068
		c-0.246-0.03-0.37-0.19-0.34-0.436l0.085-0.698c0.026-0.22,0.121-0.354,0.315-0.435l1.777-0.794
		c0.055-0.019,0.108-0.026,0.172-0.019L306.598,138.566z"/>
	<path fill="#B69FCC" d="M314.706,145.202c-0.03,0.246-0.178,0.373-0.437,0.34l-0.155-0.019c-0.246-0.03-0.404,0.083-0.435,0.341
		l-0.285,2.329c-0.03,0.246-0.177,0.373-0.435,0.341l-1.448-0.176c-0.247-0.03-0.372-0.19-0.342-0.436l0.284-2.329
		c0.031-0.259-0.082-0.404-0.341-0.436l-3.272-0.399c-0.247-0.03-0.372-0.19-0.341-0.436l0.221-1.812
		c0.002-0.013,0.053-0.111,0.108-0.25l1.383-2.076c0.129-0.194,0.245-0.286,0.479-0.257l1.423,0.173
		c0.285,0.035,0.431,0.237,0.27,0.48l-1.354,2.041c-0.035,0.088-0.017,0.143,0.088,0.155l1.267,0.154
		c0.26,0.032,0.406-0.095,0.437-0.341l0.392-3.208c0.031-0.258,0.189-0.371,0.436-0.341l1.449,0.177
		c0.258,0.031,0.372,0.177,0.341,0.436l-0.392,3.208c-0.03,0.246,0.094,0.405,0.34,0.436l0.155,0.019
		c0.259,0.031,0.374,0.177,0.342,0.436L314.706,145.202z"/>
</g>
<g>
	<path fill="#B69FCC" d="M69.932,135.132c0.259,0.032,0.372,0.177,0.341,0.435l-1.011,8.281c-0.03,0.246-0.177,0.372-0.436,0.34
		l-1.437-0.175c-0.245-0.03-0.37-0.19-0.34-0.436l0.694-5.693c0.032-0.259-0.082-0.404-0.341-0.436l-0.557-0.068
		c-0.246-0.03-0.37-0.189-0.34-0.435l0.085-0.699c0.027-0.22,0.122-0.353,0.315-0.435l1.778-0.794
		c0.055-0.019,0.107-0.026,0.173-0.018L69.932,135.132z"/>
	<path fill="#B69FCC" d="M77.899,137.969c-0.032,0.259-0.177,0.373-0.436,0.341l-3.247-0.396c-0.078-0.01-0.134,0.023-0.146,0.113
		l-0.032,0.259c-0.03,0.246,0.095,0.406,0.341,0.436l0.401,0.049c2.394,0.292,2.986,2.321,2.838,3.537
		c-0.166,1.358-1.212,3.042-3.605,2.75c-2.666-0.325-2.945-2.119-2.91-3.06c0.016-0.234,0.15-0.362,0.389-0.386l1.514-0.143
		c0.266-0.021,0.38,0.111,0.388,0.375c0.026,0.542,0.282,0.914,0.891,0.988c0.621,0.076,0.939-0.384,0.927-0.819
		c-0.018-0.711-0.487-1.07-1.483-1.192l-1.836-0.225c-0.246-0.029-0.371-0.189-0.341-0.435l0.534-4.373
		c0.03-0.247,0.19-0.371,0.436-0.341l5.213,0.637c0.259,0.031,0.373,0.177,0.341,0.435L77.899,137.969z"/>
</g>
<g>
	<path fill="#B69FCC" d="M108.938,139.893c0.258,0.032,0.373,0.177,0.34,0.436l-1.01,8.28c-0.03,0.246-0.177,0.373-0.436,0.34
		l-1.437-0.175c-0.246-0.03-0.37-0.189-0.34-0.436l0.694-5.692c0.031-0.259-0.082-0.404-0.34-0.436l-0.558-0.068
		c-0.245-0.03-0.37-0.189-0.34-0.436l0.085-0.698c0.026-0.22,0.122-0.353,0.315-0.435l1.778-0.794
		c0.055-0.02,0.108-0.026,0.173-0.019L108.938,139.893z"/>
	<path fill="#B69FCC" d="M115.953,140.75c0.362,0.044,0.39,0.245,0.09,0.445c-0.845,0.58-2.251,1.656-2.72,2.491
		c-0.051,0.099,0.007,0.158,0.138,0.161c2.042,0.053,3.066,1.557,2.867,3.186c-0.206,1.695-1.47,3.011-3.63,2.748
		s-3.07-1.846-2.864-3.541c0.201-1.643,1.491-4.36,3.681-5.63c0.169-0.098,0.316-0.119,0.498-0.097L115.953,140.75z M112.03,146.744
		c-0.081,0.66,0.283,1.02,0.904,1.095c0.569,0.069,1.06-0.187,1.14-0.845c0.081-0.66-0.282-1.02-0.903-1.096
		C112.602,145.829,112.11,146.084,112.03,146.744z"/>
</g>
<g>
	<path fill="#B69FCC" d="M146.973,144.536c0.258,0.032,0.373,0.177,0.341,0.436l-1.01,8.28c-0.03,0.246-0.177,0.373-0.436,0.341
		l-1.436-0.176c-0.246-0.03-0.371-0.189-0.34-0.435l0.695-5.692c0.032-0.259-0.083-0.404-0.341-0.436l-0.557-0.068
		c-0.245-0.03-0.37-0.189-0.34-0.435l0.085-0.699c0.027-0.22,0.122-0.353,0.315-0.435l1.777-0.793
		c0.055-0.02,0.108-0.027,0.173-0.019L146.973,144.536z"/>
	<path fill="#B69FCC" d="M148.651,153.932c-0.284-0.034-0.392-0.231-0.229-0.487l3.528-5.885c0.05-0.086,0.032-0.154-0.071-0.167
		l-3.183-0.388c-0.246-0.03-0.371-0.189-0.341-0.436l0.177-1.448c0.032-0.259,0.19-0.371,0.436-0.341l6.494,0.792
		c0.311,0.039,0.352,0.241,0.202,0.498l-4.725,7.84c-0.116,0.196-0.269,0.269-0.489,0.242L148.651,153.932z"/>
</g>
<g>
	<path fill="#B69FCC" d="M186.766,149.393c0.259,0.032,0.373,0.177,0.341,0.436l-1.011,8.28c-0.03,0.246-0.177,0.373-0.436,0.341
		l-1.436-0.176c-0.245-0.03-0.371-0.189-0.341-0.436l0.694-5.692c0.032-0.26-0.082-0.404-0.34-0.436l-0.557-0.068
		c-0.246-0.029-0.371-0.189-0.34-0.436l0.085-0.698c0.027-0.22,0.122-0.353,0.316-0.435l1.777-0.794
		c0.055-0.02,0.108-0.026,0.172-0.019L186.766,149.393z"/>
	<path fill="#B69FCC" d="M194.486,156.52c-0.204,1.669-1.474,3.038-3.634,2.774c-2.161-0.264-3.064-1.897-2.86-3.566
		c0.104-0.854,0.462-1.533,1.104-1.953c-0.314-0.538-0.42-1.181-0.34-1.84c0.184-1.501,1.184-2.39,3.255-2.137
		c1.965,0.24,2.828,1.356,2.645,2.857c-0.081,0.659-0.352,1.27-0.789,1.729C194.39,154.945,194.588,155.679,194.486,156.52z
		 M192.261,156.248c0.081-0.66-0.284-0.993-0.906-1.069c-0.569-0.069-1.058,0.16-1.138,0.82c-0.076,0.634,0.285,0.994,0.907,1.069
		C191.693,157.137,192.184,156.882,192.261,156.248z M191.574,153.38c0.517,0.063,0.966-0.17,1.034-0.74
		c0.074-0.608-0.252-0.937-0.821-1.006c-0.519-0.063-0.966,0.171-1.04,0.779C190.678,152.982,191.005,153.311,191.574,153.38z"/>
</g>
<g>
	<path fill="#B69FCC" d="M225.309,154.098c0.258,0.032,0.373,0.177,0.341,0.436l-1.012,8.279c-0.029,0.246-0.176,0.372-0.434,0.342
		l-1.437-0.177c-0.247-0.029-0.371-0.188-0.341-0.435l0.694-5.692c0.031-0.259-0.082-0.403-0.34-0.436l-0.558-0.068
		c-0.245-0.03-0.37-0.189-0.341-0.436l0.086-0.698c0.026-0.22,0.121-0.353,0.314-0.435l1.777-0.794
		c0.057-0.02,0.108-0.026,0.174-0.019L225.309,154.098z"/>
	<path fill="#B69FCC" d="M227.181,163.517c-0.349-0.042-0.413-0.273-0.137-0.489c0.813-0.648,1.972-1.742,2.445-2.498
		c0.05-0.086-0.007-0.159-0.123-0.173c-2.008-0.323-2.904-1.496-2.703-3.139c0.207-1.695,1.471-3.011,3.632-2.748
		c2.159,0.264,3.069,1.845,2.862,3.541c-0.199,1.63-1.857,3.935-3.582,5.576c-0.147,0.141-0.299,0.187-0.493,0.163L227.181,163.517z
		 M230.961,157.506c0.081-0.66-0.282-1.02-0.903-1.096c-0.568-0.069-1.059,0.186-1.14,0.846c-0.081,0.66,0.281,1.019,0.903,1.095
		C230.39,158.42,230.88,158.165,230.961,157.506z"/>
</g>
<g>
	<path fill="#B69FCC" d="M264.435,165.806c0.258,0.031,0.371,0.177,0.341,0.436l-0.178,1.449c-0.031,0.259-0.177,0.372-0.435,0.341
		l-5.511-0.673c-0.247-0.029-0.372-0.189-0.342-0.436l0.136-1.112c0.362-2.976,4.27-3.353,4.602-4.35
		c0.125-0.378-0.041-0.74-0.546-0.801c-0.608-0.074-0.946,0.226-1.103,0.746c-0.069,0.254-0.214,0.354-0.466,0.271l-1.435-0.504
		c-0.228-0.081-0.325-0.237-0.284-0.468c0.191-0.921,0.895-2.596,3.559-2.271c2.898,0.354,2.723,2.656,2.662,3.043
		c-0.309,2.535-3.748,2.522-4.359,3.773c-0.037,0.088-0.005,0.145,0.099,0.157L264.435,165.806z"/>
	<path fill="#B69FCC" d="M269.056,168.864c-3.068-0.374-2.874-3.463-2.667-5.157c0.213-1.746,0.685-4.748,3.829-4.364
		c3.168,0.387,2.872,3.462,2.665,5.157C272.676,166.194,272.12,169.239,269.056,168.864z M268.613,163.979
		c-0.16,1.308-0.296,2.537,0.714,2.661c0.956,0.116,1.171-1.104,1.331-2.411s0.297-2.537-0.713-2.66
		C268.987,161.451,268.773,162.672,268.613,163.979z"/>
</g>
<g>
	<path fill="#B69FCC" d="M305.846,170.86c0.26,0.032,0.373,0.177,0.342,0.436l-0.178,1.449c-0.031,0.259-0.176,0.372-0.437,0.341
		l-5.511-0.673c-0.245-0.03-0.37-0.189-0.341-0.436l0.136-1.112c0.364-2.976,4.271-3.353,4.602-4.35
		c0.126-0.379-0.041-0.74-0.544-0.802c-0.609-0.074-0.948,0.226-1.103,0.746c-0.071,0.254-0.215,0.354-0.467,0.271l-1.437-0.503
		c-0.225-0.081-0.324-0.236-0.283-0.468c0.191-0.923,0.895-2.596,3.56-2.271c2.897,0.354,2.721,2.656,2.661,3.043
		c-0.31,2.535-3.747,2.522-4.36,3.773c-0.037,0.088-0.004,0.145,0.1,0.157L305.846,170.86z"/>
	<path fill="#B69FCC" d="M311.302,164.594c0.26,0.031,0.373,0.177,0.341,0.436l-1.01,8.279c-0.03,0.247-0.178,0.373-0.437,0.341
		l-1.436-0.175c-0.245-0.029-0.37-0.188-0.34-0.436l0.694-5.692c0.031-0.259-0.082-0.404-0.341-0.435l-0.557-0.068
		c-0.246-0.03-0.37-0.189-0.34-0.436l0.085-0.698c0.026-0.22,0.122-0.353,0.315-0.435l1.778-0.794
		c0.054-0.02,0.107-0.026,0.172-0.019L311.302,164.594z"/>
</g>
<g>
	<path fill="#B69FCC" d="M66.383,169.002c0.258,0.031,0.372,0.176,0.34,0.435l-0.177,1.45c-0.032,0.258-0.177,0.371-0.435,0.34
		l-5.512-0.673c-0.246-0.03-0.371-0.189-0.34-0.435l0.135-1.112c0.363-2.978,4.27-3.354,4.602-4.35
		c0.125-0.379-0.042-0.741-0.546-0.803c-0.608-0.074-0.947,0.226-1.102,0.746c-0.07,0.254-0.214,0.354-0.467,0.271l-1.435-0.502
		c-0.227-0.082-0.325-0.237-0.285-0.469c0.192-0.923,0.895-2.596,3.56-2.271c2.898,0.354,2.722,2.656,2.662,3.042
		c-0.309,2.537-3.748,2.523-4.36,3.774c-0.037,0.087-0.005,0.145,0.099,0.157L66.383,169.002z"/>
	<path fill="#B69FCC" d="M73.761,169.902c0.259,0.032,0.372,0.177,0.341,0.436l-0.177,1.449c-0.031,0.258-0.176,0.371-0.435,0.34
		l-5.512-0.673c-0.246-0.03-0.371-0.188-0.341-0.436l0.136-1.112c0.363-2.977,4.269-3.354,4.602-4.35
		c0.125-0.378-0.041-0.739-0.545-0.802c-0.608-0.073-0.947,0.227-1.103,0.747c-0.07,0.253-0.214,0.354-0.466,0.27l-1.435-0.502
		c-0.227-0.081-0.325-0.238-0.285-0.47c0.191-0.921,0.895-2.595,3.56-2.27c2.897,0.354,2.722,2.656,2.662,3.042
		c-0.31,2.537-3.749,2.524-4.36,3.774c-0.037,0.088-0.004,0.146,0.099,0.158L73.761,169.902z"/>
</g>
<g>
	<path fill="#B69FCC" d="M104.59,173.666c0.259,0.03,0.372,0.175,0.341,0.435l-0.177,1.449c-0.031,0.259-0.176,0.372-0.435,0.34
		l-5.511-0.673c-0.246-0.029-0.371-0.188-0.341-0.435l0.136-1.112c0.363-2.977,4.269-3.354,4.602-4.35
		c0.125-0.378-0.041-0.741-0.546-0.803c-0.608-0.074-0.946,0.228-1.102,0.747c-0.07,0.253-0.214,0.354-0.466,0.27l-1.435-0.502
		c-0.227-0.081-0.326-0.237-0.285-0.469c0.191-0.922,0.895-2.596,3.56-2.271c2.898,0.354,2.722,2.656,2.662,3.043
		c-0.31,2.536-3.749,2.522-4.361,3.773c-0.037,0.088-0.004,0.146,0.099,0.158L104.59,173.666z"/>
	<path fill="#B69FCC" d="M107.162,169.948c-0.227-0.081-0.326-0.236-0.284-0.468c0.191-0.923,0.895-2.596,3.56-2.271
		c2.082,0.255,2.916,1.709,2.668,3.202c-0.177,1.016-0.729,1.565-1.146,1.751c-0.096,0.027-0.102,0.079-0.016,0.129
		c0.36,0.28,0.764,0.947,0.691,1.976c-0.119,1.508-1.278,2.719-3.36,2.465c-2.666-0.325-2.946-2.118-2.91-3.061
		c0.016-0.233,0.149-0.362,0.389-0.385l1.514-0.144c0.265-0.021,0.38,0.111,0.387,0.376c0.026,0.542,0.283,0.912,0.891,0.986
		c0.518,0.063,0.98-0.391,0.773-0.955c-0.15-0.386-0.574-0.674-1.186-0.826c-0.256-0.059-0.371-0.191-0.341-0.437l0.108-0.88
		c0.029-0.246,0.173-0.346,0.435-0.34c0.631-0.003,1.111-0.18,1.35-0.519c0.349-0.496-0.003-1.052-0.52-1.114
		c-0.608-0.074-0.947,0.226-1.103,0.746c-0.07,0.254-0.214,0.354-0.466,0.271L107.162,169.948z"/>
</g>
<g>
	<path fill="#B69FCC" d="M142.755,178.323c0.259,0.032,0.372,0.177,0.341,0.436l-0.177,1.449c-0.032,0.258-0.176,0.372-0.435,0.341
		l-5.511-0.673c-0.246-0.03-0.371-0.189-0.341-0.435l0.136-1.112c0.364-2.979,4.27-3.354,4.602-4.351
		c0.125-0.379-0.041-0.74-0.545-0.802c-0.608-0.074-0.947,0.226-1.102,0.746c-0.07,0.253-0.214,0.354-0.466,0.271l-1.436-0.503
		c-0.227-0.081-0.326-0.237-0.284-0.469c0.191-0.922,0.895-2.596,3.56-2.271c2.897,0.354,2.721,2.657,2.661,3.042
		c-0.31,2.538-3.748,2.524-4.36,3.775c-0.037,0.087-0.005,0.145,0.099,0.157L142.755,178.323z"/>
	<path fill="#B69FCC" d="M151.4,178.092c-0.03,0.246-0.177,0.372-0.436,0.34l-0.155-0.02c-0.246-0.029-0.404,0.084-0.435,0.342
		l-0.285,2.33c-0.029,0.245-0.176,0.371-0.436,0.34l-1.448-0.177c-0.247-0.029-0.371-0.189-0.341-0.435l0.284-2.33
		c0.031-0.258-0.082-0.404-0.34-0.436l-3.273-0.399c-0.246-0.031-0.372-0.188-0.341-0.436l0.221-1.812
		c0.001-0.013,0.053-0.111,0.109-0.249l1.383-2.076c0.129-0.195,0.245-0.285,0.478-0.258l1.423,0.175
		c0.285,0.034,0.431,0.236,0.27,0.479l-1.352,2.041c-0.037,0.087-0.018,0.142,0.086,0.154l1.268,0.155
		c0.258,0.031,0.405-0.096,0.435-0.341l0.392-3.208c0.032-0.26,0.19-0.37,0.436-0.341l1.449,0.178
		c0.258,0.03,0.373,0.175,0.341,0.435l-0.392,3.208c-0.03,0.245,0.095,0.405,0.34,0.436l0.155,0.019
		c0.259,0.032,0.373,0.178,0.341,0.436L151.4,178.092z"/>
</g>
<g>
	<path fill="#B69FCC" d="M63.354,194.358c0.258,0.032,0.372,0.177,0.34,0.436l-0.177,1.449c-0.031,0.259-0.177,0.373-0.435,0.341
		l-5.512-0.673c-0.246-0.029-0.371-0.189-0.341-0.435l0.136-1.112c0.363-2.977,4.27-3.354,4.601-4.351
		c0.125-0.377-0.041-0.74-0.545-0.802c-0.608-0.074-0.947,0.227-1.102,0.746c-0.071,0.254-0.214,0.354-0.467,0.271l-1.435-0.502
		c-0.227-0.082-0.325-0.238-0.285-0.469c0.192-0.923,0.895-2.596,3.56-2.271c2.898,0.354,2.722,2.656,2.662,3.043
		c-0.31,2.536-3.748,2.522-4.36,3.773c-0.038,0.087-0.005,0.146,0.099,0.157L63.354,194.358z"/>
	<path fill="#B69FCC" d="M65.763,196.911c-0.349-0.042-0.413-0.273-0.137-0.489c0.815-0.648,1.972-1.741,2.445-2.498
		c0.05-0.086-0.006-0.159-0.123-0.173c-2.009-0.324-2.903-1.497-2.702-3.141c0.206-1.693,1.471-3.011,3.63-2.746
		c2.161,0.263,3.071,1.846,2.864,3.539c-0.199,1.631-1.859,3.938-3.583,5.577c-0.148,0.139-0.298,0.187-0.493,0.163L65.763,196.911z
		 M69.543,190.9c0.081-0.66-0.282-1.02-0.904-1.097c-0.569-0.068-1.06,0.188-1.14,0.847s0.283,1.019,0.904,1.095
		C68.973,191.814,69.463,191.56,69.543,190.9z"/>
</g>
<g>
	<path fill="#B69FCC" d="M96.302,194.351c-0.227-0.081-0.326-0.238-0.285-0.47c0.191-0.921,0.895-2.596,3.56-2.27
		c2.083,0.254,2.916,1.709,2.668,3.202c-0.177,1.016-0.729,1.563-1.146,1.75c-0.095,0.027-0.102,0.079-0.016,0.129
		c0.36,0.28,0.764,0.946,0.691,1.977c-0.119,1.508-1.278,2.719-3.36,2.464c-2.665-0.325-2.946-2.118-2.909-3.06
		c0.015-0.234,0.149-0.363,0.388-0.386l1.515-0.143c0.265-0.021,0.38,0.111,0.387,0.374c0.025,0.543,0.282,0.914,0.891,0.988
		c0.517,0.063,0.98-0.392,0.773-0.955c-0.15-0.387-0.574-0.675-1.186-0.828c-0.256-0.057-0.371-0.189-0.341-0.436l0.107-0.879
		c0.03-0.247,0.173-0.347,0.436-0.341c0.63-0.002,1.111-0.18,1.35-0.518c0.349-0.496-0.003-1.052-0.521-1.115
		c-0.608-0.074-0.947,0.227-1.103,0.747c-0.069,0.252-0.213,0.354-0.466,0.27L96.302,194.351z"/>
	<path fill="#B69FCC" d="M105.988,202.057c-3.067-0.373-2.874-3.463-2.667-5.156c0.213-1.747,0.685-4.749,3.828-4.365
		c3.17,0.387,2.873,3.462,2.666,5.158C109.609,199.387,109.054,202.432,105.988,202.057z M105.546,197.172
		c-0.159,1.307-0.296,2.537,0.713,2.66c0.957,0.116,1.171-1.104,1.331-2.41c0.16-1.308,0.297-2.539-0.712-2.662
		C105.921,194.644,105.706,195.864,105.546,197.172z"/>
</g>
<g>
	<path fill="#B69FCC" d="M137.444,199.372c-0.227-0.082-0.326-0.237-0.285-0.469c0.191-0.922,0.895-2.596,3.56-2.271
		c2.082,0.254,2.916,1.709,2.668,3.202c-0.177,1.016-0.729,1.564-1.146,1.75c-0.096,0.027-0.102,0.079-0.016,0.129
		c0.36,0.28,0.764,0.947,0.691,1.977c-0.119,1.508-1.277,2.719-3.36,2.464c-2.665-0.324-2.945-2.118-2.909-3.06
		c0.015-0.234,0.149-0.362,0.389-0.385l1.515-0.144c0.265-0.021,0.38,0.111,0.387,0.375c0.026,0.542,0.283,0.913,0.891,0.987
		c0.517,0.063,0.98-0.392,0.773-0.955c-0.15-0.386-0.574-0.675-1.186-0.827c-0.256-0.058-0.37-0.19-0.34-0.437l0.107-0.879
		c0.03-0.247,0.173-0.347,0.435-0.341c0.631-0.002,1.112-0.179,1.35-0.519c0.349-0.494-0.003-1.051-0.52-1.114
		c-0.609-0.074-0.947,0.228-1.103,0.747c-0.07,0.253-0.214,0.354-0.466,0.27L137.444,199.372z"/>
	<path fill="#B69FCC" d="M147.965,197.754c0.259,0.031,0.373,0.177,0.341,0.436l-1.01,8.28c-0.03,0.245-0.177,0.371-0.436,0.341
		l-1.437-0.177c-0.245-0.029-0.371-0.188-0.341-0.434l0.695-5.693c0.032-0.259-0.082-0.403-0.34-0.436l-0.557-0.067
		c-0.245-0.03-0.37-0.19-0.34-0.436l0.085-0.699c0.027-0.22,0.121-0.353,0.315-0.435l1.778-0.793c0.055-0.02,0.107-0.027,0.172-0.02
		L147.965,197.754z"/>
</g>
<g>
	<path fill="#B69FCC" d="M183.066,183.244c0.259,0.031,0.372,0.176,0.34,0.436l-0.177,1.448c-0.032,0.259-0.177,0.373-0.435,0.341
		l-5.512-0.673c-0.246-0.029-0.371-0.188-0.34-0.435l0.135-1.112c0.363-2.978,4.269-3.354,4.602-4.351
		c0.125-0.378-0.042-0.74-0.546-0.802c-0.608-0.074-0.947,0.227-1.103,0.747c-0.07,0.252-0.214,0.354-0.466,0.27l-1.435-0.502
		c-0.227-0.081-0.326-0.238-0.285-0.47c0.191-0.921,0.895-2.596,3.56-2.27c2.898,0.354,2.722,2.656,2.662,3.042
		c-0.31,2.537-3.749,2.523-4.36,3.774c-0.037,0.088-0.004,0.146,0.099,0.158L183.066,183.244z"/>
	<path fill="#B69FCC" d="M191.571,179.214c-0.031,0.258-0.177,0.372-0.436,0.341l-3.248-0.396c-0.077-0.009-0.134,0.022-0.145,0.113
		l-0.032,0.259c-0.03,0.247,0.095,0.405,0.341,0.435l0.4,0.049c2.394,0.293,2.986,2.321,2.838,3.537
		c-0.166,1.358-1.212,3.044-3.605,2.751c-2.665-0.324-2.944-2.118-2.908-3.06c0.015-0.234,0.149-0.363,0.389-0.385l1.515-0.144
		c0.264-0.021,0.38,0.111,0.386,0.375c0.025,0.542,0.283,0.913,0.891,0.987c0.622,0.075,0.941-0.383,0.927-0.819
		c-0.018-0.71-0.486-1.069-1.482-1.191l-1.836-0.224c-0.247-0.03-0.372-0.189-0.342-0.437l0.534-4.371
		c0.03-0.246,0.189-0.372,0.436-0.342l5.213,0.637c0.259,0.032,0.373,0.177,0.341,0.437L191.571,179.214z"/>
</g>
<g>
	<path fill="#B69FCC" d="M222.688,188.08c0.258,0.031,0.372,0.176,0.341,0.436l-0.178,1.448c-0.03,0.259-0.177,0.373-0.435,0.341
		l-5.512-0.673c-0.246-0.029-0.371-0.188-0.341-0.435l0.136-1.112c0.362-2.977,4.271-3.354,4.602-4.351
		c0.125-0.377-0.041-0.74-0.547-0.802c-0.607-0.074-0.945,0.227-1.101,0.747c-0.071,0.252-0.214,0.354-0.467,0.27l-1.435-0.502
		c-0.228-0.081-0.326-0.238-0.286-0.469c0.192-0.922,0.895-2.597,3.56-2.271c2.899,0.354,2.724,2.656,2.663,3.043
		c-0.309,2.536-3.749,2.523-4.361,3.773c-0.036,0.088-0.004,0.146,0.1,0.158L222.688,188.08z"/>
	<path fill="#B69FCC" d="M230.239,182.068c0.362,0.045,0.391,0.245,0.09,0.445c-0.845,0.579-2.251,1.655-2.72,2.49
		c-0.051,0.099,0.008,0.158,0.138,0.161c2.042,0.054,3.067,1.557,2.868,3.187c-0.207,1.695-1.471,3.012-3.632,2.747
		c-2.159-0.263-3.07-1.845-2.863-3.54c0.2-1.643,1.491-4.359,3.681-5.63c0.17-0.097,0.317-0.119,0.499-0.097L230.239,182.068z
		 M226.315,188.063c-0.08,0.659,0.285,1.019,0.905,1.096c0.569,0.068,1.06-0.188,1.141-0.847c0.08-0.658-0.283-1.02-0.903-1.096
		C226.888,187.147,226.396,187.403,226.315,188.063z"/>
</g>
<g>
	<path fill="#B69FCC" d="M261.532,192.821c0.259,0.031,0.371,0.176,0.34,0.435l-0.177,1.45c-0.031,0.258-0.176,0.372-0.435,0.341
		l-5.513-0.673c-0.246-0.03-0.37-0.19-0.339-0.436l0.135-1.112c0.363-2.977,4.269-3.354,4.602-4.35
		c0.124-0.379-0.042-0.741-0.546-0.803c-0.608-0.074-0.946,0.228-1.102,0.746c-0.071,0.254-0.215,0.354-0.467,0.271l-1.436-0.502
		c-0.227-0.081-0.326-0.237-0.285-0.469c0.191-0.922,0.895-2.596,3.561-2.271c2.897,0.354,2.721,2.657,2.662,3.043
		c-0.311,2.536-3.749,2.522-4.361,3.773c-0.037,0.088-0.005,0.145,0.099,0.157L261.532,192.821z"/>
	<path fill="#B69FCC" d="M263.748,195.35c-0.284-0.034-0.393-0.23-0.229-0.487l3.528-5.885c0.049-0.086,0.031-0.153-0.071-0.166
		l-3.185-0.389c-0.245-0.029-0.369-0.19-0.339-0.436l0.176-1.449c0.032-0.259,0.19-0.371,0.436-0.341l6.495,0.793
		c0.311,0.037,0.352,0.24,0.202,0.497l-4.726,7.841c-0.116,0.195-0.269,0.269-0.489,0.241L263.748,195.35z"/>
</g>
<g>
	<path fill="#B69FCC" d="M299.707,197.481c0.258,0.031,0.371,0.176,0.34,0.435l-0.177,1.45c-0.031,0.258-0.177,0.371-0.435,0.34
		l-5.513-0.673c-0.245-0.03-0.371-0.189-0.34-0.435l0.135-1.113c0.363-2.977,4.271-3.353,4.603-4.349
		c0.125-0.379-0.042-0.741-0.546-0.803c-0.608-0.074-0.947,0.226-1.103,0.746c-0.069,0.254-0.214,0.354-0.466,0.271l-1.436-0.503
		c-0.227-0.081-0.325-0.236-0.284-0.468c0.191-0.923,0.895-2.596,3.56-2.271c2.897,0.354,2.722,2.656,2.662,3.043
		c-0.31,2.537-3.748,2.523-4.359,3.774c-0.039,0.087-0.006,0.145,0.098,0.157L299.707,197.481z"/>
	<path fill="#B69FCC" d="M307.964,197.741c-0.204,1.668-1.475,3.035-3.633,2.771c-2.162-0.264-3.065-1.896-2.861-3.564
		c0.104-0.854,0.462-1.532,1.104-1.954c-0.314-0.538-0.421-1.181-0.34-1.84c0.184-1.501,1.184-2.39,3.256-2.138
		c1.965,0.241,2.827,1.357,2.645,2.857c-0.081,0.66-0.353,1.271-0.79,1.729C307.867,196.166,308.066,196.899,307.964,197.741z
		 M305.739,197.47c0.081-0.661-0.286-0.995-0.906-1.07c-0.57-0.07-1.059,0.159-1.139,0.82c-0.077,0.634,0.286,0.992,0.907,1.069
		C305.17,198.357,305.662,198.103,305.739,197.47z M305.052,194.601c0.517,0.063,0.967-0.17,1.035-0.739
		c0.074-0.608-0.253-0.938-0.822-1.006c-0.518-0.064-0.967,0.169-1.041,0.778C304.154,194.203,304.481,194.532,305.052,194.601z"/>
</g>
<g>
	<g>
		<path fill="#FFFFFF" d="M81.036,66.871c-11.122-2.561-24.549-2.556-33.214,5.928c-8.589,8.411-2.16,22.095,5.897,28.008
			c9.669,7.095,22.638,9.626,31.694,0.317c8.123-8.35,8.588-20.694-2.166-26.515c-2.914-1.577-3.318,2.066-0.957,3.345
			c9.722,5.263,2.926,17.675-3.682,22.625c-7.746,5.802-19.085,1.539-25.352-4.456c-6.902-6.602-6.375-17.002,1.278-22.552
			c7.312-5.303,18.337-4.799,26.688-2.877C84.419,71.43,83.342,67.401,81.036,66.871L81.036,66.871z"/>
	</g>
</g>
</svg>
