<?xml version="1.0" encoding="utf-8"?>
<!-- Generator: Adobe Illustrator 15.0.0, SVG Export Plug-In . SVG Version: 6.00 Build 0)  -->
<!DOCTYPE svg PUBLIC "-//W3C//DTD SVG 1.1//EN" "http://www.w3.org/Graphics/SVG/1.1/DTD/svg11.dtd">
<svg version="1.1" id="Layer_1" xmlns="http://www.w3.org/2000/svg" xmlns:xlink="http://www.w3.org/1999/xlink" x="0px" y="0px"
	 width="183.796px" height="271.365px" viewBox="0 0 183.796 271.365" enable-background="new 0 0 183.796 271.365"
	 xml:space="preserve">
<g>
	<path fill="#E9E9EA" d="M132.911,125.218h2.438c5.94,0,10.8,4.86,10.8,10.8v32.733c0,5.939-4.859,10.8-10.8,10.8h-2.438V125.218z"
		/>
	<path fill="#E9E9EA" d="M54.004,125.218h-2.438c-5.94,0-10.801,4.86-10.801,10.8v32.733c0,5.939,4.86,10.8,10.801,10.8h2.438
		V125.218z"/>
	<path fill="#604E75" d="M135.349,125.218h-2.438H54.004h-2.438c-5.94,0-10.801,4.86-10.801,10.8v5.699h13.238v54.5h78.907v-54.5
		h13.237v-5.699C146.148,130.078,141.289,125.218,135.349,125.218z"/>
	<polygon fill="#333333" points="54.004,196.217 54.004,212.884 54.004,252.551 82.793,252.551 82.793,212.884 104.121,212.884 
		104.121,252.551 132.911,252.551 132.911,212.884 132.911,196.217 	"/>
	<path d="M68.398,266.945c7.949,0,14.395-6.444,14.395-14.395H54.004C54.004,260.501,60.448,266.945,68.398,266.945z"/>
	<path d="M118.516,266.945c7.951,0,14.396-6.444,14.396-14.395h-28.79C104.121,260.501,110.566,266.945,118.516,266.945z"/>
	<path fill="#333333" d="M68.398,238.156c-7.95,0-14.395,6.444-14.395,14.395h28.789C82.793,244.601,76.348,238.156,68.398,238.156z
		"/>
	<path fill="#333333" d="M118.516,238.156c-7.949,0-14.395,6.444-14.395,14.395h28.79
		C132.911,244.601,126.467,238.156,118.516,238.156z"/>
	<g>
		<path fill="#E9E9EA" d="M170.492,61.836c-0.893,0-1.756,0.117-2.586,0.318c-8.77-28.624-38.908-49.725-74.753-49.725
			S27.17,33.53,18.4,62.154c-0.83-0.201-1.693-0.318-2.586-0.318c-6.074,0-11,4.925-11,11c0,6.074,4.926,11,11,11
			c0.068,0,0.133-0.009,0.199-0.01c2.715,33.828,36.201,49.416,77.14,49.416c40.938,0,74.425-15.588,77.14-49.416
			c0.066,0.001,0.131,0.01,0.199,0.01c6.074,0,11-4.926,11-11C181.492,66.761,176.566,61.836,170.492,61.836z"/>
		<g>
			<circle cx="52.411" cy="69.544" r="7.5"/>
			<circle fill="#FFFFFF" cx="49.917" cy="67.501" r="3.03"/>
		</g>
		<g>
			<circle cx="132.911" cy="69.544" r="7.5"/>
			<circle fill="#FFFFFF" cx="130.417" cy="67.501" r="3.03"/>
		</g>
		<path fill="#B69FCC" d="M141.548,21.599c-7.167-5.333-24.171-11.994-44.657-12.637c-22.176-0.696-49.676,7.471-59.843,18.304
			C26.724,38.266,17.921,53.043,18.4,62.154c0,0,2.814,3.335,2.814,7.39h5.5c0,0,0.5-26.445,16-36.445c0,0,7.499-0.833,10.166,4.833
			c0,0,4.227-3.333,2.03-6.5c0,0,24.429-4.833,39.929,10.792c0,0,3.125-5.542,0.875-7.542c0,0,16.125,0.667,22.375,7.917
			c0,0,0.875-2.417,0-5c-0.445-1.313,23.625-1.875,29.75,7.25c0,0,0.666-8.583-5.792-12.917
			c19.667,12.667,17.667,37.612,17.667,37.612h5.332c0.166-4.055,2.859-7.39,2.859-7.39
			C165.828,37.63,148.715,26.932,141.548,21.599z"/>
		<path fill="none" stroke="#000000" stroke-width="3" stroke-linecap="round" stroke-miterlimit="10" d="M93.153,64.471
			c0,0,0.812,8.269,4.312,12.573l-4.312,3.555"/>
		<path fill="none" stroke="#000000" stroke-width="3" stroke-linecap="round" stroke-miterlimit="10" d="M106.029,100.224
			c0-5.105-3.842-12.917-12.318-12.917s-12.826,6.481-12.826,12.827"/>
	</g>
</g>
<g>
	<g>
		<path fill="#E9E9EA" d="M-1348.617,171.25h2.438c5.94,0,10.8,4.86,10.8,10.8v32.733c0,5.939-4.859,10.8-10.8,10.8h-2.438V171.25z"
			/>
		<path fill="#E9E9EA" d="M-1427.524,171.25h-2.438c-5.94,0-10.801,4.86-10.801,10.8v32.733c0,5.939,4.86,10.8,10.801,10.8h2.438
			V171.25z"/>
		<path fill="#604E75" d="M-1346.18,171.25h-2.438h-78.907h-2.438c-5.94,0-10.801,4.86-10.801,10.8v5.699h13.238v54.5h78.907v-54.5
			h13.237v-5.699C-1335.38,176.11-1340.239,171.25-1346.18,171.25z"/>
		<polygon fill="#5B5C5C" points="-1427.524,242.249 -1427.524,258.916 -1427.524,298.583 -1398.735,298.583 -1398.735,258.916 
			-1377.407,258.916 -1377.407,298.583 -1348.617,298.583 -1348.617,258.916 -1348.617,242.249 		"/>
		<path d="M-1413.13,312.978c7.949,0,14.395-6.444,14.395-14.395h-28.789C-1427.524,306.533-1421.08,312.978-1413.13,312.978z"/>
		<path d="M-1363.013,312.978c7.951,0,14.396-6.444,14.396-14.395h-28.79C-1377.407,306.533-1370.962,312.978-1363.013,312.978z"/>
		<path fill="#5B5C5C" d="M-1413.13,284.188c-7.95,0-14.395,6.444-14.395,14.395h28.789
			C-1398.735,290.633-1405.181,284.188-1413.13,284.188z"/>
		<path fill="#5B5C5C" d="M-1363.013,284.188c-7.949,0-14.395,6.444-14.395,14.395h28.79
			C-1348.617,290.633-1355.062,284.188-1363.013,284.188z"/>
		<g>
			<g>
				<path fill="#B69FCC" d="M-1407.027,190.111c0.692-0.213,1.112-0.066,1.253,0.42c1.805,6.228,2.708,9.34,4.512,15.567
					c0.134,0.462-0.043,0.804-0.547,0.959c-1.107,0.341-1.656,0.526-2.746,0.937c-0.471,0.178-0.845,0.029-1.022-0.418
					c-2.387-6.029-3.579-9.044-5.967-15.073c-0.187-0.472,0.093-0.854,0.74-1.098
					C-1409.305,190.841-1408.55,190.58-1407.027,190.111z"/>
				<path fill="#B69FCC" d="M-1397.688,187.976c0.71-0.108,1.1,0.097,1.168,0.599c0.533,3.936,0.798,5.904,1.332,9.84
					c0.262,1.934,0.559,3.051,2.638,2.861s2.166-1.344,2.073-3.293c-0.188-3.967-0.281-5.953-0.469-9.92
					c-0.024-0.506,0.357-0.776,1.037-0.798c1.604-0.05,2.407-0.05,4.011,0c0.715,0.022,1.061,0.294,1.037,0.8
					c-0.214,4.504-0.321,6.756-0.534,11.26c-0.079,1.67-0.667,5.734-6.759,6.289c-6.091,0.555-7.427-3.329-7.808-4.957
					c-1.027-4.39-1.541-6.585-2.567-10.975c-0.115-0.493,0.212-0.833,0.881-0.978
					C-1400.073,188.363-1399.279,188.218-1397.688,187.976z"/>
				<path fill="#B69FCC" d="M-1372.614,189.058c6.239,1.512,7.921,4.529,6.392,8.392s-4.182,4.655-9.253,3.426
					c-0.547-0.133-0.822-0.194-1.372-0.313c-0.543-0.116-0.909,0.073-1.006,0.57c-0.313,1.591-0.469,2.384-0.782,3.975
					c-0.098,0.497-0.402,0.694-0.917,0.602c-1.153-0.207-1.732-0.294-2.892-0.429c-0.492-0.058-0.751-0.36-0.703-0.84
					c0.641-6.443,0.961-9.663,1.604-16.106c0.05-0.504,0.432-0.724,1.148-0.666
					C-1377.261,188.032-1375.698,188.311-1372.614,189.058z M-1374.264,196.688c1.479,0.363,2.251,0.443,2.687-1.065
					s-0.297-1.895-1.865-2.28c-0.706-0.174-1.061-0.256-1.771-0.408c-0.624-0.134-1.035,0.048-1.133,0.545
					c-0.148,0.756-0.223,1.131-0.371,1.887c-0.093,0.473,0.195,0.813,0.783,0.938
					C-1375.264,196.447-1374.93,196.523-1374.264,196.688z"/>
			</g>
		</g>
	</g>
	<g>
		<path fill="#E9E9EA" d="M-1311.036,106.618c-0.893,0-1.756,0.118-2.586,0.318c-8.77-28.624-38.908-49.726-74.753-49.726
			s-65.983,21.102-74.753,49.726c-0.83-0.2-1.693-0.318-2.586-0.318c-6.074,0-11,4.925-11,11s4.926,11,11,11
			c0.068,0,0.133-0.009,0.199-0.011c2.715,33.829,36.201,49.417,77.14,49.417c40.938,0,74.425-15.588,77.14-49.417
			c0.066,0.002,0.131,0.011,0.199,0.011c6.074,0,11-4.925,11-11S-1304.962,106.618-1311.036,106.618z"/>
		<path fill="none" stroke="#000000" stroke-width="3" stroke-linecap="round" stroke-miterlimit="10" d="M-1388.375,109.254
			c0,0,0.812,8.268,4.312,12.572l-4.312,3.555"/>
		<path fill="none" stroke="#000000" stroke-width="3" stroke-linecap="round" stroke-miterlimit="10" d="M-1400.644,132.089
			c0,5.106,3.842,12.917,12.318,12.917s12.827-6.482,12.827-12.827"/>
		<path fill="#604E75" d="M-1437.706,186.327c4.591-11.506-4.857-20.418-10.387-24.648c-8.191-6.268-23.824-30.232-15.473-54.742
			c9.243-27.128,42.665-37.013,55.192-37.99c21.372-1.667,36.333,12.333,44.315,0s-16.982-23.333-16.982-23.333
			c-30-9.668-56.885,2.333-74.627,17.333c-26.868,22.716-31.902,63.65-14.373,98c5.55,10.875,8.467,16.334-1.2,21.167
			c0,0-5.5,3.833-7.5,0.667c0,0-0.167,4.333,7,5c0,0-1.333,3.05-4.333,2.107c0,0,3.812,1.742,6.771,0.434
			c0,0-0.375,1.813-2.75,1.875C-1474.639,192.265-1444.438,203.2-1437.706,186.327z"/>
		<path fill="#604E75" d="M-1337.853,189.613c-10.229-10.833-3.265-19.167,1.801-23.315c9.908-8.114,33.218-30.908,22.365-59.361
			c-9.969-26.136-31.093-24.86-41.511-29.657c-10.137-4.666-17.804-17.666-17.804-17.666c13.667-14.666,39.161-6.734,62,15
			c22.223,21.148,20.735,67.705,6,91.667c-5.739,9.333-2.333,15.333,8,17c0,0,5.095,1.76,7.095-0.537s-1.333,4.37-5.5,4.37
			s-1.499,1.499,2.167,1.833c0,0-2.927,1.5-6.797,1.334c0,0-1.037,0.666,0.963,1.5
			C-1299.073,191.78-1328.638,199.372-1337.853,189.613z"/>
		<path fill="#E9E9EA" d="M-1311.235,128.607c0.066,0.002,0.131,0.01,0.199,0.01c6.074,0,11-4.925,11-11c0-6.074-4.926-11-11-11
			c-0.893,0-1.756,0.118-2.586,0.318l-5.525,12.451L-1311.235,128.607z"/>
		<path fill="#E9E9EA" d="M-1465.514,128.607c-0.066,0.002-0.131,0.01-0.199,0.01c-6.074,0-11-4.925-11-11c0-6.074,4.926-11,11-11
			c0.893,0,1.756,0.118,2.586,0.318l5.525,12.451L-1465.514,128.607z"/>
		<circle fill="#C4C4C3" cx="-1434.242" cy="140.984" r="9.595"/>
		<circle fill="#C4C4C3" cx="-1341.998" cy="140.984" r="9.595"/>
		<path fill="none" stroke="#000000" stroke-width="3" stroke-linecap="round" stroke-miterlimit="10" d="M-1441.248,110.04
			c0,2.075,1.561,5.25,5.006,5.25s5.214-2.635,5.214-5.213"/>
		<path fill="none" stroke="#000000" stroke-width="3" stroke-linecap="round" stroke-miterlimit="10" d="M-1436.138,105.25
			c0,2.075,1.561,5.25,5.006,5.25c1.54,0,2.744-0.526,3.605-1.338"/>
		<path fill="none" stroke="#000000" stroke-width="3" stroke-linecap="round" stroke-miterlimit="10" d="M-1336.223,105.25
			c0,2.075-1.561,5.25-5.006,5.25c-1.539,0-2.744-0.526-3.605-1.338"/>
		<path fill="none" stroke="#000000" stroke-width="3" stroke-linecap="round" stroke-miterlimit="10" d="M-1341.41,110.04
			c0,2.075,1.561,5.25,5.006,5.25s5.214-2.635,5.214-5.213"/>
		<g>
			<circle cx="-1426.528" cy="112.765" r="7.5"/>
			<circle fill="#FFFFFF" cx="-1429.022" cy="110.722" r="3.03"/>
		</g>
		<g>
			<circle cx="-1346.028" cy="112.765" r="7.5"/>
			<circle fill="#FFFFFF" cx="-1348.522" cy="110.722" r="3.03"/>
		</g>
	</g>
</g>
<g>
	<g>
		<path fill="#E9E9EA" d="M-785.739-70.999h2.438c5.94,0,10.801,4.86,10.801,10.8v32.733c0,5.939-4.86,10.8-10.801,10.8h-2.438
			V-70.999z"/>
		<path fill="#E9E9EA" d="M-864.646-70.999h-2.438c-5.939,0-10.8,4.86-10.8,10.8v32.733c0,5.939,4.86,10.8,10.8,10.8h2.438V-70.999z
			"/>
		<path fill="#5B5C5C" d="M-783.302-70.999h-2.438h-78.907h-2.438c-5.939,0-10.8,4.86-10.8,10.8v5.699h13.237V0h78.907v-54.5h13.238
			v-5.699C-772.501-66.139-777.361-70.999-783.302-70.999z"/>
		<polygon fill="#604E75" points="-864.646,0 -864.646,16.667 -864.646,56.334 -835.856,56.334 -835.856,16.667 -814.528,16.667 
			-814.528,56.334 -785.739,56.334 -785.739,16.667 -785.739,0 		"/>
		<path d="M-850.252,70.729c7.95,0,14.396-6.444,14.396-14.395h-28.79C-864.646,64.284-858.201,70.729-850.252,70.729z"/>
		<path d="M-800.134,70.729c7.95,0,14.395-6.444,14.395-14.395h-28.789C-814.528,64.284-808.083,70.729-800.134,70.729z"/>
		<path fill="#604E75" d="M-850.252,41.939c-7.949,0-14.395,6.444-14.395,14.395h28.79
			C-835.856,48.384-842.302,41.939-850.252,41.939z"/>
		<path fill="#604E75" d="M-800.134,41.939c-7.949,0-14.395,6.444-14.395,14.395h28.789
			C-785.739,48.384-792.184,41.939-800.134,41.939z"/>
		<g>
			<g>
				<path fill="#E9E9EA" d="M-858.532-48.917c1.461-0.578,2.197-0.851,3.676-1.364c0.197,0.567,0.295,0.851,0.492,1.418
					c-0.319,0.111-0.479,0.167-0.797,0.28c0.727,2.033,1.088,3.048,1.815,5.081c0.299-0.107,0.45-0.16,0.75-0.264
					c0.195,0.562,0.292,0.843,0.487,1.405c-1.343,0.466-2.011,0.713-3.338,1.239c-0.219-0.553-0.329-0.83-0.548-1.383
					c0.296-0.118,0.446-0.175,0.743-0.29c-0.776-2.015-1.162-3.021-1.938-5.036c-0.316,0.122-0.476,0.183-0.792,0.308
					C-858.201-48.081-858.312-48.359-858.532-48.917z"/>
				<path fill="#E9E9EA" d="M-846.879-52.673c1.383-0.343,2.078-0.5,3.471-0.789c0.122,0.587,0.182,0.88,0.304,1.468
					c-0.328,0.068-0.493,0.103-0.82,0.173c0.584,2.701,0.877,4.051,1.461,6.752c-0.48,0.104-0.72,0.157-1.199,0.268
					c-2.036-1.685-3.1-2.496-5.317-4.051c0.41,1.444,0.613,2.167,1.023,3.611c0.157-0.044,0.918-0.256,0.918-0.256
					c0.157,0.579,0.236,0.869,0.394,1.447c-1.25,0.339-1.873,0.521-3.113,0.911c-0.18-0.572-0.271-0.858-0.45-1.43
					c0.36-0.113,0.541-0.169,0.902-0.278c-0.625-2.071-0.936-3.105-1.561-5.177c-0.384,0.116-0.577,0.173-0.96,0.293
					c-0.18-0.572-0.27-0.857-0.449-1.429c1.163-0.365,1.747-0.539,2.918-0.864c1.862,1.35,2.763,2.05,4.499,3.488
					c-0.275-1.167-0.414-1.75-0.689-2.918c-0.389,0.092-0.583,0.139-0.971,0.235C-846.663-51.8-846.735-52.091-846.879-52.673z"/>
				<path fill="#E9E9EA" d="M-832.054-50.862c0.198,2.403-1.544,4.328-3.814,4.63c-1.451,0.193-2.176,0.308-3.619,0.565
					c-0.106-0.595-0.158-0.894-0.264-1.489c0.295-0.053,0.442-0.078,0.738-0.128c-0.359-2.119-0.539-3.178-0.897-5.298
					c-0.314,0.053-0.47,0.08-0.784,0.136c-0.107-0.6-0.161-0.899-0.268-1.499c1.59-0.284,2.388-0.408,3.986-0.621
					C-834.292-54.923-832.252-53.264-832.054-50.862z M-836.994-47.601c0.257-0.037,0.386-0.055,0.643-0.09
					c1.84-0.251,2.342-1.638,2.2-2.974c-0.144-1.347-1.153-2.593-2.926-2.351c-0.273,0.037-0.411,0.057-0.684,0.096
					C-837.454-50.791-837.302-49.728-836.994-47.601z"/>
				<path fill="#E9E9EA" d="M-830.499-55.158c1.541-0.094,2.313-0.126,3.856-0.155c0.011,0.6,0.018,0.9,0.029,1.5
					c-0.333,0.006-0.5,0.01-0.833,0.02c0.061,2.158,0.091,3.236,0.152,5.394c0.313-0.009,0.469-0.013,0.783-0.019
					c0.011,0.595,0.018,0.893,0.029,1.487c-1.401,0.026-2.103,0.055-3.502,0.141c-0.037-0.594-0.055-0.891-0.092-1.484
					c0.313-0.019,0.471-0.029,0.784-0.045c-0.112-2.155-0.167-3.233-0.279-5.389c-0.333,0.017-0.501,0.027-0.834,0.048
					C-830.444-54.26-830.462-54.559-830.499-55.158z"/>
				<path fill="#E9E9EA" d="M-818.71-55.13c0,0,2.488,6.833,2.619,7.136c0.372,0.039,0.556,0.059,0.927,0.102
					c-0.069,0.596-0.103,0.894-0.172,1.49c-1.399-0.163-2.102-0.229-3.506-0.332c0.043-0.593,0.067-0.89,0.11-1.483
					c0.184,0.014,0.276,0.021,0.459,0.035c-0.125-0.311-0.23-0.621-0.37-0.944c-0.993-0.073-1.488-0.103-2.482-0.146
					c-0.157,0.358-0.235,0.539-0.389,0.897c0.184,0.007,0.275,0.011,0.459,0.02c-0.027,0.594-0.04,0.892-0.067,1.486
					c-1.215-0.056-1.824-0.072-3.04-0.083c0.005-0.6,0.009-0.9,0.015-1.5c0.373,0.003,0.559,0.005,0.932,0.013
					c0.316-0.894,3.297-6.763,3.297-6.763c0.494,0.027,0.742,0.041,1.236,0.075C-818.693-55.13-818.7-55.13-818.71-55.13z
					 M-819.091-50.66c-0.256-0.686-0.389-1.027-0.657-1.711c-0.325,0.649-0.485,0.973-0.8,1.625
					C-819.965-50.717-819.673-50.699-819.091-50.66z"/>
				<path fill="#E9E9EA" d="M-806.61-53.501c1.393,0.285,2.087,0.44,3.471,0.78c-0.143,0.583-0.214,0.874-0.357,1.456
					c-0.326-0.08-0.489-0.119-0.815-0.196c-0.634,2.69-0.95,4.035-1.584,6.725c-0.479-0.113-0.718-0.167-1.198-0.273
					c-1.113-2.396-1.722-3.587-3.045-5.943c-0.251,1.48-0.377,2.221-0.629,3.701c0.16,0.027,0.934,0.163,0.934,0.163
					c-0.107,0.59-0.161,0.885-0.268,1.475c-1.269-0.23-1.904-0.333-3.18-0.513c0.084-0.594,0.126-0.89,0.21-1.484
					c0.37,0.052,0.554,0.08,0.924,0.136c0.327-2.139,0.49-3.209,0.817-5.348c-0.394-0.06-0.589-0.088-0.983-0.144
					c0.084-0.594,0.126-0.891,0.21-1.484c1.196,0.169,1.793,0.264,2.985,0.473c1.093,2.019,1.603,3.038,2.55,5.083
					c0.253-1.172,0.379-1.759,0.633-2.931c-0.39-0.084-0.586-0.126-0.977-0.206C-806.792-52.62-806.73-52.914-806.61-53.501z"/>
				<path fill="#E9E9EA" d="M-795.446-50.457c0,0,0.684,7.259,0.734,7.587c0.354,0.136,0.532,0.204,0.885,0.343
					c-0.221,0.558-0.332,0.837-0.552,1.395c-1.332-0.527-2.002-0.776-3.35-1.244c0.195-0.562,0.293-0.844,0.488-1.406
					c0.176,0.061,0.265,0.092,0.441,0.154c-0.043-0.333-0.065-0.658-0.119-1.007c-0.954-0.331-1.432-0.49-2.392-0.792
					c-0.245,0.305-0.367,0.459-0.609,0.766c0.178,0.055,0.267,0.083,0.444,0.14c-0.179,0.567-0.269,0.851-0.448,1.418
					c-1.173-0.371-1.764-0.545-2.947-0.872c0.159-0.578,0.24-0.867,0.399-1.445c0.363,0.1,0.545,0.151,0.907,0.255
					c0.538-0.782,4.958-5.679,4.958-5.679c0.477,0.155,0.713,0.234,1.188,0.396C-795.431-50.451-795.436-50.453-795.446-50.457z
					 M-796.966-46.236c-0.075-0.729-0.114-1.094-0.201-1.825c-0.485,0.542-0.726,0.814-1.201,1.362
					C-797.806-46.519-797.526-46.426-796.966-46.236z"/>
			</g>
		</g>
	</g>
	<g>
		<path fill="#E9E9EA" d="M-748.167-134.631c-0.893,0-1.756,0.118-2.586,0.318c-8.77-28.624-38.908-49.725-74.753-49.725
			c-35.846,0-65.984,21.101-74.752,49.725c-0.831-0.201-1.693-0.318-2.586-0.318c-6.076,0-11,4.925-11,11c0,6.075,4.924,11,11,11
			c0.066,0,0.132-0.009,0.199-0.01c2.713,33.829,36.201,49.417,77.139,49.417s74.425-15.588,77.14-49.417
			c0.066,0.001,0.131,0.01,0.199,0.01c6.074,0,11-4.925,11-11C-737.167-129.706-742.093-134.631-748.167-134.631z"/>
		<g>
			<circle cx="-866.248" cy="-126.923" r="7.5"/>
			<circle fill="#FFFFFF" cx="-868.742" cy="-128.966" r="3.029"/>
		</g>
		<g>
			<circle cx="-785.748" cy="-126.923" r="7.5"/>
			<circle fill="#FFFFFF" cx="-788.242" cy="-128.966" r="3.03"/>
		</g>
		<path fill="none" stroke="#000000" stroke-width="3" stroke-linecap="round" stroke-miterlimit="10" d="M-825.506-131.996
			c0,0,0.812,8.268,4.312,12.573l-4.312,3.555"/>
		<path fill="none" stroke="#000000" stroke-width="3" stroke-linecap="round" stroke-miterlimit="10" d="M-837.774-109.16
			c0,5.106,3.842,12.917,12.318,12.917s12.827-6.482,12.827-12.827"/>
		<path fill="#B69FCC" d="M-773.691-172.367L-773.691-172.367C-773.691-172.367-773.691-172.367-773.691-172.367
			c-1.28-0.946-2.444-1.776-3.42-2.501c-1.853-1.379-4.369-2.847-7.429-4.276c-16.112-12.402-23.727-29.564-23.727-29.564
			c-3,9.667-8.751,6.667-8.751,6.667c-2.751-1-3.083-6-3.083-6c-0.5,3.5-4,6.5-6.666,4.167c-2.667-2.333-4-11.5-4-11.5
			s-1.5,18-8.334,16.833c-6.833-1.167-6.166-5.167-6.166-5.167c-0.968,10.89-16.194,21.368-24.47,26.295
			c-1.881,0.93-3.637,1.909-5.25,2.928c-0.002,0-0.012,0.005-0.012,0.005h0.002c-2.631,1.663-4.881,3.431-6.615,5.279
			c-10.324,11.001-19.127,25.778-18.646,34.889c0,0,2.813,3.335,2.813,7.39h5.5c0,0,0.5-26.445,16-36.445
			c0,0,25.348-10.674,48.515-9.841c23.166,0.833,50.819,8.674,50.819,8.674c19.667,12.667,17.667,37.612,17.667,37.612h5.332
			c0.166-4.055,2.859-7.39,2.859-7.39C-752.549-155.499-765.561-166.362-773.691-172.367z"/>
	</g>
</g>
<g>
	<g>
		<path fill="#E9E9EA" d="M-1068.862,202.558h2.438c5.939,0,10.8,4.86,10.8,10.8v32.733c0,5.939-4.86,10.8-10.8,10.8h-2.438V202.558
			z"/>
		<path fill="#E9E9EA" d="M-1147.771,202.558h-2.438c-5.94,0-10.8,4.86-10.8,10.8v32.733c0,5.939,4.859,10.8,10.8,10.8h2.438
			V202.558z"/>
		<path fill="#B69FCC" d="M-1066.425,202.558h-2.438h-78.908h-2.438c-5.94,0-10.8,4.86-10.8,10.8v5.699h13.237v54.5h78.908v-54.5
			h13.237v-5.699C-1055.625,207.418-1060.485,202.558-1066.425,202.558z"/>
		<polygon fill="#C4C4C3" points="-1147.771,273.557 -1147.771,290.224 -1147.771,329.891 -1118.98,329.891 -1118.98,290.224 
			-1097.652,290.224 -1097.652,329.891 -1068.862,329.891 -1068.862,290.224 -1068.862,273.557 		"/>
		<path d="M-1133.376,344.285c7.95,0,14.396-6.444,14.396-14.395h-28.79C-1147.771,337.841-1141.326,344.285-1133.376,344.285z"/>
		<path d="M-1083.258,344.285c7.95,0,14.396-6.444,14.396-14.395h-28.79C-1097.652,337.841-1091.207,344.285-1083.258,344.285z"/>
		<path fill="#C4C4C3" d="M-1133.376,315.496c-7.95,0-14.395,6.444-14.395,14.395h28.79
			C-1118.98,321.94-1125.426,315.496-1133.376,315.496z"/>
		<path fill="#C4C4C3" d="M-1083.258,315.496c-7.949,0-14.395,6.444-14.395,14.395h28.79
			C-1068.862,321.94-1075.308,315.496-1083.258,315.496z"/>
		<g>
			<g>
				<path fill="#5B5C5C" d="M-1134.471,226.782c0.005,1.075-0.328,2.528-2.475,3.265c-2.124,0.729-4.295-0.305-5.157-2.481
					c-0.926-2.34,0.151-4.519,2.486-5.318c0.799-0.273,1.464-0.33,1.833-0.278c-0.054-0.168-0.082-0.252-0.135-0.42
					c0.628-0.201,0.943-0.298,1.574-0.487c0.373,1.239,0.559,1.858,0.932,3.098c-0.608,0.183-0.912,0.279-1.518,0.474
					c-0.055-0.172-0.083-0.26-0.139-0.432c-0.177-0.552-0.978-0.92-2.066-0.547c-0.762,0.261-1.616,1.199-0.909,3.126
					c0.659,1.796,1.906,2.118,2.623,1.872c1.172-0.402,1.433-1.561,1.387-1.704
					C-1135.409,226.875-1135.095,226.843-1134.471,226.782z"/>
				<path fill="#5B5C5C" d="M-1125.175,225.413c0.104,0.575,0.157,0.861,0.261,1.437c-0.802,0.146-1.203,0.223-2.002,0.389
					c-0.327-0.074-1.008-0.379-1.227-1.376c-0.124-0.566-0.823-1.606-2.049-1.469c0.189,0.79,0.285,1.186,0.474,1.976
					c0.298-0.071,0.446-0.107,0.744-0.176c0.131,0.569,0.196,0.856,0.327,1.426c-1.323,0.304-1.981,0.471-3.294,0.829
					c-0.154-0.563-0.231-0.848-0.386-1.411c0.347-0.095,0.521-0.144,0.869-0.234c-0.53-2.023-0.797-3.032-1.327-5.056
					c-0.369,0.097-0.552,0.144-0.92,0.244c-0.153-0.56-0.229-0.838-0.381-1.397c1.506-0.412,2.261-0.601,3.779-0.946
					c2.024-0.461,2.909,0.709,3.108,1.722c0.168,0.854-0.407,1.818-0.384,1.994c0.032,0.242,1.002,1.147,1.168,1.989
					c0.056,0.284,0.361,0.226,0.361,0.226C-1125.703,225.511-1125.527,225.478-1125.175,225.413z M-1129.911,222.84
					c0.715-0.166,0.962-0.656,0.868-1.087s-0.498-0.796-1.104-0.656c-0.316,0.073-0.474,0.11-0.79,0.186
					c0.163,0.681,0.244,1.022,0.407,1.703C-1130.283,222.926-1130.158,222.897-1129.911,222.84z"/>
				<path fill="#5B5C5C" d="M-1123.953,218.47c1.458-0.225,2.188-0.323,3.651-0.489c0.065,0.576,0.097,0.866,0.163,1.442
					c-0.316,0.036-0.475,0.052-0.791,0.09c0.253,2.072,0.381,3.109,0.634,5.181c0.297-0.036,0.446-0.054,0.744-0.088
					c0.065,0.571,0.098,0.857,0.163,1.429c-1.333,0.151-1.999,0.241-3.327,0.446c-0.088-0.568-0.131-0.854-0.219-1.423
					c0.296-0.046,0.445-0.066,0.742-0.109c-0.3-2.065-0.451-3.1-0.751-5.165c-0.315,0.046-0.474,0.069-0.789,0.118
					C-1123.821,219.328-1123.865,219.043-1123.953,218.47z"/>
				<path fill="#5B5C5C" d="M-1109.266,217.38c1.024,0.009,1.537,0.021,2.561,0.059c-0.021,0.579-0.032,0.869-0.053,1.448
					c-0.378-0.014-0.567-0.018-0.945-0.027c-0.055,2.092-0.082,3.134-0.137,5.226c0.356,0.009,0.535,0.017,0.891,0.029
					c-0.021,0.579-0.031,0.868-0.053,1.447c-1.339-0.049-2.008-0.06-3.348-0.055c-0.002-0.579-0.004-0.869-0.006-1.449
					c0.233-0.001,0.349-0.001,0.582,0c0.003-1.049,0.004-1.574,0.008-2.622c-0.798,1.625-1.178,2.444-1.901,4.087
					c-0.354,0.007-0.533,0.013-0.888,0.023c0,0-1.739-2.986-2.416-4.098c0.062,1.098,0.092,1.646,0.154,2.744
					c0.237-0.014,0.356-0.02,0.593-0.031c0.029,0.579,0.043,0.868,0.072,1.447c-1.166,0.058-1.747,0.097-2.911,0.195
					c-0.049-0.577-0.075-0.865-0.124-1.443c0.36-0.03,0.54-0.046,0.9-0.072c-0.155-2.086-0.233-3.128-0.388-5.214
					c-0.382,0.028-0.574,0.042-0.956,0.074c-0.049-0.578-0.072-0.866-0.121-1.444c0.96-0.081,1.441-0.116,2.403-0.172
					c1.404,2.069,2.069,3.118,3.323,5.237C-1110.988,220.598-1110.437,219.518-1109.266,217.38z"/>
				<path fill="#5B5C5C" d="M-1097.936,224.049c-0.329,2.295-2.646,1.996-3.378,1.919c-0.731-0.077-1.565-0.444-1.824-1.048
					c-0.029,0.347-0.043,0.521-0.072,0.868c-0.582-0.048-0.872-0.069-1.455-0.107c0.086-1.333,0.129-2.001,0.215-3.334
					c0.605,0.039,0.909,0.063,1.514,0.113c-0.024,0.291-0.037,0.438-0.061,0.729c-0.048,0.578,0.651,1.216,1.538,1.307
					c0.745,0.076,1.655-0.121,1.707-0.548c0.088-0.726-0.486-0.962-1.803-1.501c-1.007-0.412-2.679-0.956-2.572-2.553
					c0.086-1.295,1.587-2.236,3.348-2.057c1.123,0.114,1.542,0.615,1.64,1.071c0.042-0.35,0.064-0.526,0.107-0.876
					c0.642,0.078,0.962,0.12,1.604,0.21c-0.153,1.094-0.229,1.641-0.382,2.733c-0.622-0.087-0.933-0.126-1.555-0.201
					c0.007-0.056,0.011-0.086,0.018-0.142c0.052-0.426-0.324-1.214-1.579-1.342c-0.477-0.049-1.13,0.182-1.169,0.621
					c-0.038,0.427,0.437,0.636,1.463,1.02C-1099.467,221.368-1097.646,222.028-1097.936,224.049z"/>
				<path fill="#5B5C5C" d="M-1087.748,224.359c-0.795,3.004-3.098,3.481-4.874,3.1c-1.901-0.408-3.645-1.896-3.159-4.824
					c0.465-2.803,2.818-3.776,4.911-3.326C-1088.916,219.729-1086.982,221.467-1087.748,224.359z M-1089.888,223.822
					c0.381-1.602-0.181-2.811-1.297-3.051c-1.265-0.271-2.257,0.607-2.565,2.225c-0.304,1.594,0.25,2.757,1.44,3.013
					C-1091.26,226.234-1090.263,225.401-1089.888,223.822z"/>
				<path fill="#5B5C5C" d="M-1079.683,222.579c1.289,0.455,1.931,0.696,3.206,1.201c-0.213,0.539-0.32,0.809-0.534,1.348
					c-0.301-0.119-0.452-0.178-0.753-0.294c-0.961,2.492-1.441,3.74-2.402,6.232c-0.443-0.171-0.664-0.255-1.109-0.419
					c-0.746-2.441-1.169-3.661-2.112-6.092c-0.439,1.384-0.658,2.075-1.097,3.459c0.149,0.048,0.869,0.28,0.869,0.28
					c-0.181,0.551-0.272,0.827-0.454,1.378c-1.181-0.389-1.773-0.571-2.964-0.915c0.161-0.557,0.241-0.835,0.401-1.392
					c0.346,0.1,0.519,0.148,0.863,0.252c0.601-2.004,0.901-3.006,1.502-5.01c-0.366-0.109-0.549-0.164-0.916-0.27
					c0.161-0.557,0.24-0.837,0.4-1.394c1.113,0.321,1.669,0.492,2.775,0.85c0.768,2.076,1.118,3.115,1.75,5.198
					c0.398-1.089,0.597-1.634,0.995-2.723c-0.361-0.132-0.543-0.196-0.905-0.324
					C-1079.973,223.399-1079.875,223.126-1079.683,222.579z"/>
			</g>
		</g>
		<g>
			<g>
				<path fill="#5B5C5C" d="M-1130.139,239.943c1.414,0.45,2.125,0.655,3.556,1.025c-0.15,0.58-0.224,0.871-0.375,1.451
					c-0.307-0.08-0.461-0.121-0.768-0.204c-0.565,2.084-0.848,3.125-1.413,5.209c0.331,0.09,0.496,0.132,0.827,0.218
					c-0.15,0.581-0.226,0.872-0.376,1.453c-1.608-0.417-2.409-0.646-3.998-1.151c0.182-0.571,0.274-0.858,0.456-1.43
					c0.395,0.126,0.591,0.186,0.987,0.306c0.244-0.804,0.367-1.204,0.61-2.008c-1.149-0.349-1.722-0.534-2.859-0.932
					c-0.277,0.793-0.415,1.188-0.691,1.981c0.392,0.137,0.589,0.204,0.982,0.335c-0.189,0.569-0.286,0.854-0.475,1.423
					c-1.583-0.528-2.372-0.816-3.931-1.434c0.221-0.558,0.332-0.837,0.553-1.395c0.321,0.127,0.481,0.19,0.804,0.313
					c0.771-2.017,1.157-3.025,1.929-5.042c-0.299-0.114-0.448-0.17-0.746-0.288c0.221-0.558,0.331-0.837,0.552-1.395
					c1.388,0.55,2.087,0.804,3.496,1.273c-0.189,0.569-0.285,0.854-0.475,1.424c-0.365-0.122-0.546-0.186-0.91-0.313
					c-0.237,0.68-0.355,1.02-0.593,1.699c1.114,0.389,1.673,0.572,2.799,0.913c0.209-0.688,0.313-1.034,0.522-1.723
					c-0.367-0.111-0.551-0.168-0.917-0.284C-1130.411,240.8-1130.32,240.515-1130.139,239.943z"/>
				<path fill="#5B5C5C" d="M-1119.481,242.404c0,0,2.184,6.922,2.329,7.227c0.402,0.041,0.603,0.059,1.005,0.094
					c-0.052,0.598-0.079,0.898-0.131,1.496c-1.577-0.139-2.364-0.229-3.934-0.449c0.083-0.589,0.124-0.885,0.207-1.474
					c0.198,0.028,0.297,0.04,0.495,0.066c-0.121-0.318-0.214-0.632-0.342-0.965c-1.045-0.146-1.566-0.229-2.607-0.413
					c-0.211,0.333-0.317,0.498-0.532,0.83c0.197,0.036,0.296,0.053,0.493,0.087c-0.103,0.586-0.155,0.88-0.258,1.466
					c-1.353-0.237-2.026-0.368-3.37-0.667c0.13-0.585,0.196-0.882,0.327-1.467c0.396,0.088,0.595,0.132,0.993,0.215
					c0.501-0.815,4.235-6.216,4.235-6.216c0.445,0.073,0.669,0.11,1.115,0.176C-1119.465,242.409-1119.471,242.405-1119.481,242.404
					z M-1120.211,246.832c-0.207-0.705-0.307-1.059-0.499-1.765c-0.382,0.614-0.577,0.923-0.972,1.532
					C-1121.095,246.699-1120.801,246.745-1120.211,246.832z"/>
				<path fill="#5B5C5C" d="M-1107.181,243.068c1.221-0.045,1.832-0.08,3.05-0.18c0.049,0.603,0.072,0.906,0.122,1.509
					c-0.314,0.025-0.47,0.036-0.784,0.059c-0.15,0.011-0.141,0.139-0.141,0.139c-0.755,2.768-1.179,4.148-2.118,6.894
					c-0.555,0.019-0.832,0.026-1.387,0.035c-0.648-1.736-0.956-2.607-1.532-4.356c-0.655,1.743-1.003,2.611-1.736,4.339
					c-0.483-0.013-0.725-0.022-1.208-0.043c-0.847-2.683-1.228-4.031-1.906-6.732c0.013-0.168-0.127-0.309-0.289-0.321
					c-0.314-0.025-0.471-0.038-0.785-0.066c0.055-0.602,0.083-0.903,0.137-1.505c1.466,0.133,2.201,0.179,3.67,0.232
					c-0.022,0.604-0.033,0.907-0.055,1.511c-0.25-0.009-0.375-0.014-0.624-0.025c0.32,1.216,0.488,1.82,0.841,3.032
					c0.714-1.782,1.05-2.679,1.682-4.477c0.425,0.004,0.638,0.003,1.063,0c0.627,1.8,0.961,2.698,1.671,4.482
					c0.355-1.211,0.524-1.817,0.847-3.032c-0.185,0.008-0.276,0.013-0.46,0.02C-1107.146,243.978-1107.159,243.672-1107.181,243.068
					z"/>
				<path fill="#5B5C5C" d="M-1092.536,248.045c0.333-0.078,0.499-0.121,0.831-0.203c0.143,0.577,0.215,0.87,0.358,1.447
					c-1.611,0.4-2.421,0.575-4.047,0.886c-0.112-0.584-0.167-0.879-0.278-1.463c-1.127-0.825-1.675-1.247-2.742-2.113
					c0.16,1.01,0.239,1.514,0.398,2.523c0.336-0.054,0.504-0.079,0.84-0.136c0.1,0.587,0.149,0.88,0.249,1.467
					c-1.56,0.265-2.343,0.377-3.911,0.56c-0.069-0.591-0.103-0.888-0.172-1.479c0.337-0.039,0.505-0.062,0.843-0.104
					c-0.275-2.151-0.413-3.226-0.688-5.376c-0.313,0.04-0.47,0.062-0.783,0.098c-0.069-0.591-0.103-0.887-0.171-1.478
					c1.395-0.162,2.09-0.266,3.478-0.501c0.1,0.587,0.15,0.881,0.25,1.468c-0.312,0.053-0.467,0.079-0.779,0.128
					c0.084,0.535,0.126,0.805,0.211,1.34c0.842-0.856,1.25-1.293,2.04-2.174c-0.08-0.415-0.121-0.623-0.201-1.038
					c1.205-0.233,1.806-0.362,3.001-0.65c0.139,0.578,0.209,0.87,0.349,1.448c-0.372,0.09-0.558,0.132-0.931,0.216
					c-0.22,0.05-0.331,0.225-0.662,0.625c-0.242,0.292-1.033,1.28-1.585,1.835c1.238,0.989,1.878,1.471,3.197,2.404
					C-1093.18,247.962-1092.866,248.123-1092.536,248.045z"/>
				<path fill="#5B5C5C" d="M-1082.555,243.957c0.883,2.23-1.729,3.214-2.56,3.497c-0.83,0.283-1.902,0.308-2.42-0.16
					c0.106,0.344,0.16,0.517,0.266,0.86c-0.664,0.204-0.996,0.303-1.663,0.491c-0.376-1.329-0.565-1.994-0.941-3.323
					c0.637-0.181,0.954-0.274,1.587-0.47c0.089,0.289,0.134,0.434,0.223,0.723c0.176,0.573,1.173,0.894,2.142,0.568
					c0.814-0.273,1.66-0.908,1.508-1.326c-0.259-0.71-0.949-0.624-2.491-0.558c-1.179,0.051-3.052,0.149-3.506-1.442
					c-0.369-1.291,0.668-2.688,2.286-3.231c1.032-0.347,1.615-0.082,1.913,0.295c-0.125-0.343-0.187-0.513-0.312-0.855
					c0.587-0.214,0.88-0.324,1.463-0.552c0.416,1.063,0.623,1.597,1.039,2.66c-0.608,0.237-0.913,0.351-1.525,0.573
					c-0.02-0.055-0.031-0.081-0.05-0.136c-0.152-0.417-0.848-0.956-2.046-0.554c-0.456,0.153-0.966,0.632-0.828,1.066
					c0.134,0.423,0.668,0.445,1.809,0.351C-1085.365,242.327-1083.332,241.994-1082.555,243.957z"/>
			</g>
		</g>
	</g>
	<g>
		<path fill="#E9E9EA" d="M-1031.291,137.726c-0.893,0-1.755,0.117-2.586,0.318c-8.769-28.625-38.907-49.726-74.753-49.726
			c-35.845,0-65.983,21.101-74.753,49.726c-0.83-0.201-1.693-0.318-2.586-0.318c-6.074,0-11,4.924-11,11c0,6.074,4.926,11,11,11
			c0.068,0,0.133-0.01,0.199-0.011c2.715,33.828,36.201,49.416,77.14,49.416c40.938,0,74.426-15.588,77.14-49.416
			c0.067,0.001,0.132,0.011,0.199,0.011c6.075,0,11-4.926,11-11C-1020.291,142.649-1025.216,137.726-1031.291,137.726z"/>
		<g>
			<circle cx="-1149.372" cy="145.433" r="7.5"/>
			<circle fill="#FFFFFF" cx="-1151.866" cy="143.39" r="3.03"/>
		</g>
		<g>
			<circle cx="-1068.872" cy="145.433" r="7.5"/>
			<circle fill="#FFFFFF" cx="-1071.366" cy="143.39" r="3.03"/>
		</g>
		<path fill="none" stroke="#000000" stroke-width="3" stroke-linecap="round" stroke-miterlimit="10" d="M-1108.63,140.36
			c0,0,0.812,8.268,4.312,12.572l-4.312,3.555"/>
		<path fill="none" stroke="#000000" stroke-width="3" stroke-linecap="round" stroke-miterlimit="10" d="M-1120.898,163.196
			c0,5.105,3.842,12.916,12.318,12.916s12.827-6.481,12.827-12.826"/>
		<path fill="#604E75" d="M-1108.326,64.72c-11.729,23.599-36.259,25.295-44.533,30.223c-1.883,0.93-3.639,1.908-5.252,2.928
			l-0.01,0.005h0.002c-2.632,1.663-4.881,3.431-6.616,5.279c-10.324,11.001-19.127,25.778-18.647,34.89c0,0,2.814,3.334,2.814,7.389
			h5.5c0,0,0.5-26.445,16-36.445c0,0,25.348-10.674,48.514-9.84c23.167,0.833,50.819,8.674,50.819,8.674
			c19.667,12.667,17.667,37.611,17.667,37.611h5.333c0.166-4.055,2.858-7.389,2.858-7.389
			c-1.796-21.188-14.808-32.051-22.938-38.055h0.001c-0.001,0-0.001,0-0.001,0c-1.28-0.946-2.444-1.775-3.42-2.502
			c-1.853-1.379-4.369-2.846-7.428-4.275C-1098.888,85.887-1108.326,64.72-1108.326,64.72z"/>
	</g>
</g>
<g>
	<g>
		<path fill="#E9E9EA" d="M-795.322,224.425h2.438c5.94,0,10.8,4.86,10.8,10.8v32.733c0,5.939-4.859,10.8-10.8,10.8h-2.438V224.425z
			"/>
		<path fill="#E9E9EA" d="M-874.229,224.425h-2.438c-5.94,0-10.801,4.86-10.801,10.8v32.733c0,5.939,4.86,10.8,10.801,10.8h2.438
			V224.425z"/>
		<path fill="#333333" d="M-792.885,224.425h-2.438h-78.907h-2.438c-5.94,0-10.801,4.86-10.801,10.8v5.699h13.238v54.5h78.907v-54.5
			h13.237v-5.699C-782.085,229.285-786.944,224.425-792.885,224.425z"/>
		<polygon fill="#B69FCC" points="-874.229,295.424 -874.229,312.091 -874.229,351.758 -845.44,351.758 -845.44,312.091 
			-824.112,312.091 -824.112,351.758 -795.322,351.758 -795.322,312.091 -795.322,295.424 		"/>
		<path d="M-859.835,366.152c7.949,0,14.395-6.444,14.395-14.395h-28.789C-874.229,359.708-867.785,366.152-859.835,366.152z"/>
		<path d="M-809.718,366.152c7.951,0,14.396-6.444,14.396-14.395h-28.79C-824.112,359.708-817.667,366.152-809.718,366.152z"/>
		<path fill="#B69FCC" d="M-859.835,337.363c-7.95,0-14.395,6.444-14.395,14.395h28.789
			C-845.44,343.808-851.886,337.363-859.835,337.363z"/>
		<path fill="#B69FCC" d="M-809.718,337.363c-7.949,0-14.395,6.444-14.395,14.395h28.79
			C-795.322,343.808-801.767,337.363-809.718,337.363z"/>
		<g>
			<g>
				<path fill="#B69FCC" d="M-858.498,242.94c1.531-0.451,2.302-0.657,3.848-1.034c0.162,0.665,0.243,0.995,0.405,1.66
					c-0.458,0.111-0.688,0.171-1.146,0.289c-0.075,1.263-1.269,7.85-1.242,8.558c-0.533,0.164-0.797,0.249-1.328,0.423
					c-0.389-0.593-5.556-5.69-5.989-6.258c-0.439,0.167-0.659,0.253-1.096,0.426c-0.252-0.637-0.378-0.954-0.63-1.591
					c1.645-0.651,2.473-0.953,4.142-1.515c0.218,0.648,0.327,0.974,0.545,1.622c-0.148,0.05-0.221,0.073-0.369,0.124
					c0.648,0.689,3.13,3.495,3.13,3.495c0.152-0.039,0.69-3.631,0.782-4.725c-0.228,0.065-0.341,0.101-0.568,0.168
					C-858.207,243.927-858.305,243.597-858.498,242.94z"/>
				<path fill="#B69FCC" d="M-839.998,245.344c-0.112,1.588-0.163,2.382-0.252,3.97c-3.276,0.242-4.913,0.455-8.155,1.06
					c-0.125-0.673-0.188-1.008-0.313-1.681c0.355-0.066,0.533-0.101,0.889-0.162c-0.424-2.433-0.636-3.648-1.059-6.081
					c-0.384,0.067-0.577,0.103-0.96,0.174c-0.125-0.673-0.188-1.009-0.314-1.682c3.424-0.639,5.152-0.868,8.61-1.148
					c0.5,1.267,0.742,1.9,1.212,3.174c-0.761,0.053-1.14,0.084-1.9,0.154c-0.244-0.665-0.527-1.512-1.678-1.383
					c-1,0.112-1.5,0.177-2.498,0.319c0.117,0.818,0.176,1.226,0.293,2.044c0.525-0.075,0.788-0.107,1.314-0.174
					c-0.035-0.276-0.053-0.416-0.088-0.692c0.753-0.095,1.13-0.138,1.885-0.215c0.126,1.23,0.19,1.846,0.316,3.076
					c-0.726,0.074-1.089,0.119-1.813,0.21c-0.034-0.271-0.052-0.41-0.086-0.682c-0.515,0.064-0.773,0.1-1.287,0.173
					c0.136,0.948,0.203,1.424,0.339,2.372c1.138-0.163,1.709-0.234,2.851-0.354c0.525-0.055,0.765-1.288,0.864-2.328
					C-841.098,245.422-840.73,245.393-839.998,245.344z"/>
				<path fill="#B69FCC" d="M-827.088,247.793c-0.069,0.687-0.104,1.028-0.173,1.715c-0.966-0.099-1.449-0.141-2.417-0.207
					c-0.351-0.188-1.035-0.748-0.97-1.95c0.037-0.684-0.443-2.094-1.909-2.313c-0.027,0.958-0.039,1.437-0.066,2.395
					c0.365,0.011,0.547,0.019,0.912,0.033c-0.028,0.689-0.042,1.033-0.069,1.723c-1.61-0.065-2.416-0.077-4.026-0.055
					c-0.01-0.689-0.015-1.033-0.024-1.723c0.428-0.006,0.641-0.008,1.068-0.008c0-2.469,0.002-3.703,0.003-6.172
					c-0.462,0-0.694-0.001-1.156,0.006c-0.009-0.685-0.014-1.026-0.023-1.711c1.901-0.026,2.852-0.011,4.751,0.07
					c2.531,0.108,3.188,1.736,3.087,2.95c-0.084,1.022-1.069,1.938-1.099,2.14c-0.041,0.281,0.789,1.623,0.706,2.634
					c-0.028,0.341,0.34,0.372,0.34,0.372C-827.727,247.729-827.514,247.75-827.088,247.793z M-831.743,243.352
					c0.886,0.033,1.335-0.442,1.363-0.962c0.028-0.519-0.33-1.063-1.084-1.093c-0.394-0.016-0.591-0.024-0.985-0.035
					c-0.023,0.826-0.035,1.24-0.059,2.066C-832.201,243.337-832.049,243.34-831.743,243.352z"/>
				<path fill="#B69FCC" d="M-813.162,247.331c-0.751,2.646-3.405,3.998-5.967,3.446c-1.638-0.353-2.461-0.506-4.113-0.766
					c0.106-0.682,0.16-1.021,0.267-1.702c0.339,0.053,0.509,0.081,0.848,0.138c0.407-2.419,0.609-3.627,1.018-6.046
					c-0.366-0.062-0.549-0.091-0.916-0.148c0.108-0.687,0.163-1.032,0.271-1.719c1.865,0.293,2.795,0.466,4.645,0.864
					C-813.999,242.068-812.41,244.685-813.162,247.331z M-819.819,248.871c0.292,0.059,0.44,0.089,0.732,0.15
					c2.09,0.44,3.182-0.837,3.555-2.323c0.376-1.5-0.246-3.242-2.292-3.674c-0.315-0.066-0.474-0.098-0.79-0.161
					C-819.097,245.268-819.338,246.466-819.819,248.871z"/>
				<path fill="#B69FCC" d="M-808.196,243.88c1.735,0.579,2.597,0.895,4.306,1.571c-0.252,0.637-0.378,0.954-0.63,1.591
					c-0.368-0.146-0.552-0.217-0.921-0.357c-0.879,2.301-1.319,3.45-2.199,5.751c0.341,0.131,0.512,0.196,0.852,0.331
					c-0.25,0.631-0.375,0.949-0.625,1.58c-1.514-0.6-2.278-0.878-3.815-1.392c0.215-0.644,0.324-0.966,0.539-1.609
					c0.345,0.115,0.516,0.174,0.86,0.293c0.808-2.327,1.212-3.491,2.021-5.818c-0.372-0.129-0.558-0.191-0.931-0.316
					C-808.522,244.854-808.413,244.529-808.196,243.88z"/>
			</g>
		</g>
	</g>
	<g>
		<path fill="#E9E9EA" d="M-757.741,158.793c-0.893,0-1.756,0.117-2.586,0.318c-8.77-28.624-38.908-49.725-74.753-49.725
			s-65.983,21.101-74.753,49.725c-0.83-0.201-1.693-0.318-2.586-0.318c-6.074,0-11,4.925-11,11c0,6.074,4.926,11,11,11
			c0.068,0,0.133-0.009,0.199-0.01c2.715,33.828,36.201,49.416,77.14,49.416c40.938,0,74.425-15.588,77.14-49.416
			c0.066,0.001,0.131,0.01,0.199,0.01c6.074,0,11-4.926,11-11C-746.741,163.718-751.667,158.793-757.741,158.793z"/>
		<path fill="none" stroke="#000000" stroke-width="3" stroke-linecap="round" stroke-miterlimit="10" d="M-835.08,161.428
			c0,0,0.812,8.269,4.312,12.573l-4.312,3.555"/>
		<g>
			<path fill="#FFFFFF" d="M-822.508,197.271c0,6.346-4.351,12.827-12.827,12.827s-12.318-7.812-12.318-12.917
				c2.218,2.538,6.267,4.654,12.506,4.654C-829.143,201.835-824.953,199.594-822.508,197.271z"/>
			<path fill="none" stroke="#000000" stroke-width="3" stroke-linecap="round" stroke-miterlimit="10" d="M-847.653,197.181
				c2.218,2.538,6.267,4.654,12.506,4.654c6.005,0,10.194-2.241,12.64-4.564"/>
			<path fill="none" stroke="#000000" stroke-width="3" stroke-linecap="round" stroke-miterlimit="10" d="M-847.653,197.181
				c0,5.105,3.842,12.917,12.318,12.917s12.827-6.481,12.827-12.827"/>
		</g>
		<path fill="#E9E9EA" d="M-757.94,180.782c0.066,0.001,0.131,0.011,0.199,0.011c6.074,0,11-4.926,11-11c0-6.076-4.926-11-11-11
			c-0.893,0-1.756,0.117-2.586,0.318l-5.525,12.45L-757.94,180.782z"/>
		<path fill="#E9E9EA" d="M-912.219,180.782c-0.066,0.001-0.131,0.011-0.199,0.011c-6.074,0-11-4.926-11-11c0-6.076,4.926-11,11-11
			c0.893,0,1.756,0.117,2.586,0.318l5.525,12.45L-912.219,180.782z"/>
		<circle fill="#C4C4C3" cx="-880.947" cy="193.159" r="9.595"/>
		<circle fill="#C4C4C3" cx="-788.703" cy="193.159" r="9.595"/>
		<path fill="#604E75" d="M-912.519,126.788c-22.223,21.149-24.334,70.333-6,91.667c18.334,21.333,2.333,36.333-8,38
			c-10.333,1.666-19.334-9.334-19.334-9.334c0.396,3.443,1.352,6.446,2.728,9.068c-2.298-1.246-4.663-2.779-5.65-4.242
			c0,0,4.06,8.138,10.563,10.582c1.052,0.96,2.184,1.832,3.389,2.613c-4.779,3.223-11.028,3.232-11.028,3.232
			c21.871,4.82,29.543,3.684,32.228,2.422c0.044,0.001,0.088,0.002,0.131,0.003c-6.029,5.187-15.043,5.575-15.043,5.575
			c15.602-0.252,24.275-3.078,29.048-5.824c-3.5,4.729-7.381,7.491-7.381,7.491c6.907-1.829,11.89-7.023,15.076-11.569
			c0.249-0.113,0.495-0.229,0.737-0.348c-1.121,7.074-2.813,8.917-2.813,8.917c7.493-7.067,11.745-14.213,14.116-19.517
			c1.328-2.516,2.225-5.242,2.737-8.047c0.056-0.271,0.08-0.419,0.08-0.419s-0.004,0.002-0.005,0.002
			c2.012-11.918-2.79-25.031-10.526-28.589c-11.635-5.352-33.218-30.908-22.365-59.361c9.969-26.136,31.093-24.861,41.511-29.656
			c10.137-4.667,17.804-17.667,17.804-17.667C-864.186,97.121-889.68,105.053-912.519,126.788z"/>
		<path fill="#604E75" d="M-793.233,253.598c-0.075,12.131,5.55,21.568,17.363,32.11c0,0-1.79-4.335,3.293-7.784
			c0.05,0.024,0.098,0.05,0.147,0.074c2.565,4.865,9.68,11.211,29.393,10.377c0,0-5.979-0.935-10.978-5.67
			c5.228,1.792,15.366,3.506,31.978-0.363c0,0-9.593,0.265-8.694-6.748c13.529-8.509,9.918-19.139,9.918-19.139s-4,8.999-16,8.999
			s-31.332-16.667-16.666-52.333s12.495-75.284-14.373-98c-17.742-15-44.627-27-74.627-17.334c0,0-24.965,11-16.982,23.334
			s22.943-1.666,44.315,0c12.527,0.977,45.949,10.863,55.192,37.99c8.352,24.51-6.813,49.141-15.473,54.742
			C-782.316,218.312-793.184,241.479-793.233,253.598z"/>
		<path fill="none" stroke="#000000" stroke-width="3" stroke-linecap="round" stroke-miterlimit="10" d="M-887.953,160.035
			c0,2.075,1.561,5.25,5.006,5.25s5.214-2.635,5.214-5.213"/>
		<path fill="none" stroke="#000000" stroke-width="3" stroke-linecap="round" stroke-miterlimit="10" d="M-882.844,155.245
			c0,2.075,1.561,5.25,5.006,5.25c1.54,0,2.744-0.526,3.605-1.338"/>
		<path fill="none" stroke="#000000" stroke-width="3" stroke-linecap="round" stroke-miterlimit="10" d="M-782.928,155.245
			c0,2.075-1.561,5.25-5.006,5.25c-1.539,0-2.744-0.526-3.605-1.338"/>
		<path fill="none" stroke="#000000" stroke-width="3" stroke-linecap="round" stroke-miterlimit="10" d="M-788.115,160.035
			c0,2.075,1.561,5.25,5.006,5.25s5.214-2.635,5.214-5.213"/>
		<g>
			<circle cx="-873.233" cy="162.76" r="7.5"/>
			<circle fill="#FFFFFF" cx="-875.728" cy="160.717" r="3.03"/>
		</g>
		<g>
			<circle cx="-792.733" cy="162.76" r="7.5"/>
			<circle fill="#FFFFFF" cx="-795.228" cy="160.717" r="3.03"/>
		</g>
	</g>
</g>
<g>
	
		<rect x="-515.412" y="-216.499" transform="matrix(0.9999 -0.0109 0.0109 0.9999 1.5343 -4.1184)" fill="#333333" width="274.833" height="146.666"/>
	
		<rect x="-510.089" y="-211.991" transform="matrix(0.9999 -0.0109 0.0109 0.9999 1.5343 -4.1185)" fill="#5B5C5C" width="264.187" height="137.649"/>
	<g opacity="0.67">
		<line fill="none" stroke="#FFFFFF" stroke-miterlimit="10" x1="-505.987" y1="-202.603" x2="-255.668" y2="-205.325"/>
		<line fill="none" stroke="#FFFFFF" stroke-miterlimit="10" x1="-505.613" y1="-168.271" x2="-255.295" y2="-170.994"/>
		<g>
			<g>
				<line fill="none" stroke="#FFFFFF" stroke-miterlimit="10" x1="-505.8" y1="-185.437" x2="-504.8" y2="-185.448"/>
				
					<line fill="none" stroke="#FFFFFF" stroke-miterlimit="10" stroke-dasharray="1.9867,1.9867" x1="-502.814" y1="-185.47" x2="-257.475" y2="-188.138"/>
				<line fill="none" stroke="#FFFFFF" stroke-miterlimit="10" x1="-256.482" y1="-188.148" x2="-255.482" y2="-188.159"/>
			</g>
		</g>
	</g>
	
		<text transform="matrix(0.9999 -0.0109 0.0109 0.9999 -499.0796 -169.9707)" fill="#FFFFFF" font-family="'Mission-Script'" font-size="42.4576">Aa Bb Cc</text>
</g>
<g>
	<g>
		<path fill="#E9E9EA" d="M275.941-185.561h2.438c5.94,0,10.8,4.86,10.8,10.8v32.733c0,5.939-4.859,10.8-10.8,10.8h-2.438V-185.561z
			"/>
		<path fill="#E9E9EA" d="M197.034-185.561h-2.438c-5.94,0-10.801,4.86-10.801,10.8v32.733c0,5.939,4.86,10.8,10.801,10.8h2.438
			V-185.561z"/>
		<polygon fill="#E9E9EA" points="197.034,-114.562 197.034,-97.895 197.034,-58.228 225.823,-58.228 225.823,-97.895 
			247.151,-97.895 247.151,-58.228 275.941,-58.228 275.941,-97.895 275.941,-114.562 		"/>
		<path d="M211.429-43.833c7.949,0,14.395-6.444,14.395-14.395h-28.789C197.034-50.277,203.479-43.833,211.429-43.833z"/>
		<path d="M261.546-43.833c7.951,0,14.396-6.444,14.396-14.395h-28.79C247.151-50.277,253.597-43.833,261.546-43.833z"/>
		<path fill="#E9E9EA" d="M211.429-72.622c-7.95,0-14.395,6.444-14.395,14.395h28.789C225.823-66.178,219.378-72.622,211.429-72.622
			z"/>
		<path fill="#E9E9EA" d="M261.546-72.622c-7.949,0-14.395,6.444-14.395,14.395h28.79C275.941-66.178,269.497-72.622,261.546-72.622
			z"/>
		<path fill="#B69FCC" d="M236.488-87.724h48.546c-6.617-9.619-9.093-26.838-9.093-26.838v-54.5h13.237v-5.699
			c0-5.939-4.859-10.8-10.8-10.8h-2.438h-78.907h-2.438c-5.94,0-10.801,4.86-10.801,10.8v5.699h13.238v54.5
			c0,0-2.476,17.219-9.093,26.838H236.488L236.488-87.724z"/>
	</g>
	<g>
		<path fill="#E9E9EA" d="M313.522-249.192c-0.893,0-1.756,0.118-2.586,0.318c-8.77-28.624-38.908-49.725-74.753-49.725
			s-65.983,21.101-74.753,49.725c-0.83-0.2-1.693-0.318-2.586-0.318c-6.074,0-11,4.925-11,11s4.926,11,11,11
			c0.068,0,0.133-0.009,0.199-0.011c2.715,33.829,36.201,49.417,77.14,49.417c40.938,0,74.425-15.588,77.14-49.417
			c0.066,0.002,0.131,0.011,0.199,0.011c6.074,0,11-4.925,11-11S319.597-249.192,313.522-249.192z"/>
		<path fill="none" stroke="#000000" stroke-width="3" stroke-linecap="round" stroke-miterlimit="10" d="M180.722-244.209
			c0,2.075,1.561,5.25,5.006,5.25s5.214-2.635,5.214-5.213"/>
		<path fill="none" stroke="#000000" stroke-width="3" stroke-linecap="round" stroke-miterlimit="10" d="M185.832-248.999
			c0,2.075,1.561,5.25,5.006,5.25c1.539,0,2.744-0.526,3.605-1.338"/>
		<path fill="none" stroke="#000000" stroke-width="3" stroke-linecap="round" stroke-miterlimit="10" d="M285.747-248.999
			c0,2.075-1.561,5.25-5.006,5.25c-1.539,0-2.744-0.526-3.605-1.338"/>
		<path fill="none" stroke="#000000" stroke-width="3" stroke-linecap="round" stroke-miterlimit="10" d="M280.56-244.209
			c0,2.075,1.561,5.25,5.006,5.25s5.214-2.635,5.214-5.213"/>
		<g>
			<circle cx="195.441" cy="-241.484" r="7.5"/>
			<circle fill="#FFFFFF" cx="192.947" cy="-243.527" r="3.03"/>
		</g>
		<g>
			<circle cx="275.941" cy="-241.484" r="7.5"/>
			<circle fill="#FFFFFF" cx="273.447" cy="-243.527" r="3.03"/>
		</g>
		<path fill="none" stroke="#000000" stroke-width="3" stroke-linecap="round" stroke-miterlimit="10" d="M236.184-246.557
			c0,0,0.812,8.268,4.312,12.572l-4.312,3.555"/>
		<path fill="none" stroke="#000000" stroke-width="3" stroke-linecap="round" stroke-miterlimit="10" d="M223.915-223.722
			c0,5.106,3.842,12.917,12.318,12.917s12.827-6.482,12.827-12.827"/>
		<path fill="#604E75" d="M228.784-310.198c0,0-24.965,11-16.982,23.333s22.943-1.667,44.315,0
			c12.527,0.977,45.949,10.863,55.192,37.99c8.352,24.51-6.813,49.14-15.473,54.742c-8.66,5.604-22.548,31.751-16.387,45.648
			s28.668,28.953,52.334,20.286s18.666-23.333,18.666-23.333s-4,8.999-16,8.999s-31.332-16.667-16.666-52.333
			c14.666-35.667,12.495-75.284-14.373-98C285.669-307.864,258.784-319.865,228.784-310.198z"/>
		<path fill="#E9E9EA" d="M313.323-227.203c0.066,0.002,0.131,0.01,0.199,0.01c6.074,0,11-4.925,11-11c0-6.074-4.926-11-11-11
			c-0.893,0-1.756,0.118-2.586,0.318l-5.525,12.451L313.323-227.203z"/>
		<path fill="#604E75" d="M220.745-296.197c0,0-7.667,13-17.804,17.667c-10.418,4.796-31.542,3.521-41.511,29.657
			c-10.853,28.453,10.73,54.01,22.365,59.361c11.635,5.35,16.652,32.315,1.801,44.315s-56.853,13.333-60.186-15.667
			c0,0,9.001,11,19.334,9.334c10.333-1.667,26.334-16.667,8-38c-18.334-21.334-16.223-70.519,6-91.667
			C181.584-302.932,207.078-310.864,220.745-296.197z"/>
		<path fill="#E9E9EA" d="M159.045-227.203c-0.066,0.002-0.131,0.01-0.199,0.01c-6.074,0-11-4.925-11-11c0-6.074,4.926-11,11-11
			c0.893,0,1.756,0.118,2.586,0.318l5.525,12.451L159.045-227.203z"/>
		<circle fill="#C4C4C3" cx="190.316" cy="-214.826" r="9.595"/>
		<circle fill="#C4C4C3" cx="282.561" cy="-214.826" r="9.595"/>
	</g>
</g>
<g>
	<path fill="#3A2E4C" d="M309.615,173.98c0,0,2.671,1.458,3.318,4.372c0.648,2.914,5.02,2.555,5.02,2.555l-2.105,13.485l7.124,7.482
		v2.867l1.781,24.123c0,0,12.304,3.238,15.219,1.296c2.914-1.943,4.047,9.39,4.047,9.39s-8.742,9.899-9.066,14.179
		c-0.323,4.278-37.562-39.874-37.562-39.874L309.615,173.98z"/>
	<path fill="#6C5E7F" d="M309.615,173.98c-14.214,4.986-32.543,18.7-37.399,35.457c-4.857,16.757-4.372,35.456,11.899,47.6
		c16.271,12.143,32.785,13.356,57.557,6.313c0,0,0-4.979,0-11.231c0,0-8.986,2.975-17-1.396c0,0,1.942-12.629-3.157-21.371
		l8.014-3.623l-4.128-17.505l-13.357-5.101c0,0,2.914-6.187,2.914-10.379s0-6.021-2.914-8.627
		C309.129,181.51,308.887,176.896,309.615,173.98z"/>
	<path fill="#4E4063" d="M409.188,200.549l3.903-7.805c0,0-3.306-7.637-8.764-7.175l-8.014,5.169L409.188,200.549z"/>
	<polygon fill="#3A2E4C" points="372.622,203.285 361.181,212.676 364.257,221.618 359.562,228.057 371.219,231.755 	"/>
	<path fill="#6C5E7F" d="M346.528,261.65l6.314-12.385c0,0-7.528-6.8-8.015-8.5l13.357-15.037l5.586,2.408
		c0,0,4.613-12.628,8.014-17.485l-3.643-9.714l6.8-8.193c0,0-6.8-7.35-5.101-17.306c0,0,20.643,5.828,31.328,15.542
		s11.657,18.7,11.657,18.7s2.672,29.749-8.985,42.438c-11.657,12.688-24.771,16.465-36.428,15.549
		C355.757,266.751,346.528,261.65,346.528,261.65z"/>
	<path fill="#4E4063" d="M279.016,183.124c0,0,0.242,10.13,1.942,12.757c1.7,2.628,1.457,7,9.229,5.785
		c7.771-1.214,13.338-5.343,15.412-10.199c2.073-4.857,0-8.343,0-8.343l-6.912-9.144c0,0-2.914-4.856-9.229-1.942
		S278.772,178.765,279.016,183.124z"/>
	<path fill="#4E4063" d="M380.042,169.395l-6.557,9.929c0,0-1.943,2.773,0,5.273c1.942,2.498,4.614,6.269,10.928,8.147
		c6.314,1.879,11.9,3.094,13.357-1.764c1.457-4.856,2.186-13.356,2.186-13.356s0.729-6.558-8.015-9.229
		C383.199,165.724,380.042,169.395,380.042,169.395z"/>
	<path fill="#4E4063" d="M398.984,230.323c0,0,2.914-17,13.843-20.643c0,0,14.814,7.231,16.757,11.144c0,0,6.071,5.816,2.186,18.1
		c-3.886,12.284-8.014,14.713-12.871,14.713c0,0-7.609,0.81-13.356-0.891s-5.991-4.452-6.558-6.638S397.365,236.242,398.984,230.323
		z"/>
	
		<ellipse transform="matrix(0.9107 0.4131 -0.4131 0.9107 135.6005 -152.9285)" fill="#3A2E4C" cx="421.455" cy="237.119" rx="1.862" ry="5.829"/>
	
		<ellipse transform="matrix(0.9108 0.4129 -0.4129 0.9108 137.4732 -154.6148)" fill="#3A2E4C" cx="426.527" cy="240.816" rx="1.722" ry="5.39"/>
	<circle cx="380.366" cy="255.337" r="4.291"/>
	<circle cx="396.313" cy="259.951" r="3.076"/>
	<ellipse fill="#FFFFFF" cx="378.948" cy="253.729" rx="1.417" ry="1.607"/>
	<circle fill="#FFFFFF" cx="394.7" cy="259.184" r="0.768"/>
	<path fill="#604E75" d="M320.705,273.228c0,0,11.981-1.405,18.619-5.56l5.504,4.75c0,0,9.714,2.96,9.876,3.584
		c0.162,0.625-5.989,6.453-17.809,5.158S320.705,273.228,320.705,273.228z"/>
	<polygon fill="#604E75" points="351.467,269.827 352.275,272.903 358.104,272.903 354.785,269.827 	"/>
</g>
</svg>
