<?xml version="1.0" encoding="utf-8"?>
<!-- Generator: Adobe Illustrator 15.0.0, SVG Export Plug-In . SVG Version: 6.00 Build 0)  -->
<!DOCTYPE svg PUBLIC "-//W3C//DTD SVG 1.1//EN" "http://www.w3.org/Graphics/SVG/1.1/DTD/svg11.dtd">
<svg version="1.1" id="Layer_1" xmlns="http://www.w3.org/2000/svg" xmlns:xlink="http://www.w3.org/1999/xlink" x="0px" y="0px"
	 width="146px" height="47.933px" viewBox="0 0 146 47.933" enable-background="new 0 0 146 47.933" xml:space="preserve">
<g>
	<g>
		<path fill="#E9E9EA" d="M-1843.172,112.608h2.438c5.94,0,10.8,4.86,10.8,10.8v32.733c0,5.939-4.859,10.8-10.8,10.8h-2.438V112.608
			z"/>
		<path fill="#E9E9EA" d="M-1922.079,112.608h-2.438c-5.94,0-10.801,4.86-10.801,10.8v32.733c0,5.939,4.86,10.8,10.801,10.8h2.438
			V112.608z"/>
		<path fill="#604E75" d="M-1840.734,112.608h-2.438h-78.907h-2.438c-5.94,0-10.801,4.86-10.801,10.8v5.699h13.238v54.5h78.907
			v-54.5h13.237v-5.699C-1829.935,117.469-1834.794,112.608-1840.734,112.608z"/>
		<polygon fill="#5B5C5C" points="-1922.079,183.607 -1922.079,200.274 -1922.079,239.941 -1893.29,239.941 -1893.29,200.274 
			-1871.962,200.274 -1871.962,239.941 -1843.172,239.941 -1843.172,200.274 -1843.172,183.607 		"/>
		<path d="M-1907.685,254.336c7.949,0,14.395-6.444,14.395-14.395h-28.789C-1922.079,247.892-1915.635,254.336-1907.685,254.336z"/>
		<path d="M-1857.567,254.336c7.951,0,14.396-6.444,14.396-14.395h-28.79C-1871.962,247.892-1865.517,254.336-1857.567,254.336z"/>
		<path fill="#5B5C5C" d="M-1907.685,225.547c-7.95,0-14.395,6.444-14.395,14.395h28.789
			C-1893.29,231.991-1899.735,225.547-1907.685,225.547z"/>
		<path fill="#5B5C5C" d="M-1857.567,225.547c-7.949,0-14.395,6.444-14.395,14.395h28.79
			C-1843.172,231.991-1849.616,225.547-1857.567,225.547z"/>
		<g>
			<g>
				<path fill="#B69FCC" d="M-1901.582,131.471c0.692-0.213,1.112-0.071,1.253,0.416c1.805,6.229,2.706,9.343,4.51,15.572
					c0.134,0.463-0.042,0.802-0.545,0.957c-1.107,0.341-1.656,0.527-2.746,0.938c-0.471,0.177-0.844,0.027-1.021-0.42
					c-2.387-6.029-3.58-9.042-5.967-15.071c-0.187-0.472,0.093-0.855,0.74-1.1C-1903.86,132.197-1903.104,131.939-1901.582,131.471z
					"/>
				<path fill="#B69FCC" d="M-1892.243,129.333c0.71-0.108,1.101,0.097,1.168,0.599c0.533,3.937,0.798,5.905,1.331,9.841
					c0.262,1.934,0.559,3.052,2.638,2.862s2.166-1.343,2.073-3.292c-0.188-3.967-0.282-5.951-0.47-9.919
					c-0.024-0.506,0.358-0.779,1.038-0.801c1.604-0.05,2.407-0.05,4.01,0c0.715,0.022,1.061,0.295,1.037,0.801
					c-0.214,4.504-0.32,6.755-0.533,11.258c-0.079,1.67-0.668,5.736-6.759,6.291c-6.091,0.555-7.428-3.329-7.809-4.957
					c-1.027-4.39-1.539-6.586-2.566-10.977c-0.115-0.493,0.212-0.832,0.881-0.977
					C-1894.627,129.722-1893.833,129.575-1892.243,129.333z"/>
				<path fill="#B69FCC" d="M-1867.169,130.417c6.239,1.511,7.922,4.529,6.393,8.392s-4.181,4.651-9.253,3.424
					c-0.547-0.133-0.822-0.196-1.372-0.313c-0.543-0.116-0.909,0.072-1.006,0.569c-0.313,1.591-0.469,2.389-0.782,3.979
					c-0.098,0.497-0.402,0.694-0.917,0.603c-1.153-0.206-1.731-0.296-2.891-0.431c-0.492-0.058-0.751-0.36-0.703-0.84
					c0.641-6.443,0.961-9.663,1.604-16.106c0.05-0.505,0.431-0.724,1.147-0.666C-1871.816,129.392-1870.253,129.67-1867.169,130.417
					z M-1868.818,138.047c1.479,0.363,2.252,0.44,2.687-1.068s-0.297-1.895-1.866-2.28c-0.706-0.174-1.061-0.253-1.771-0.405
					c-0.624-0.134-1.034,0.044-1.131,0.541c-0.149,0.756-0.224,1.133-0.373,1.889c-0.093,0.473,0.195,0.813,0.784,0.938
					C-1869.818,137.805-1869.484,137.883-1868.818,138.047z"/>
			</g>
		</g>
	</g>
	<g>
		<path fill="#E9E9EA" d="M-1805.591,47.977c-0.893,0-1.756,0.118-2.586,0.318c-8.77-28.624-38.908-49.726-74.753-49.726
			s-65.983,21.102-74.753,49.726c-0.83-0.2-1.693-0.318-2.586-0.318c-6.074,0-11,4.925-11,11s4.926,11,11,11
			c0.068,0,0.133-0.009,0.199-0.011c2.715,33.829,36.201,49.417,77.14,49.417c40.938,0,74.425-15.588,77.14-49.417
			c0.066,0.002,0.131,0.011,0.199,0.011c6.074,0,11-4.925,11-11S-1799.517,47.977-1805.591,47.977z"/>
		<path fill="none" stroke="#000000" stroke-width="3" stroke-linecap="round" stroke-miterlimit="10" d="M-1882.93,50.612
			c0,0,0.812,8.268,4.312,12.572l-4.312,3.555"/>
		<path fill="none" stroke="#000000" stroke-width="3" stroke-linecap="round" stroke-miterlimit="10" d="M-1895.198,73.447
			c0,5.106,3.842,12.917,12.318,12.917s12.827-6.482,12.827-12.827"/>
		<path fill="#604E75" d="M-1932.261,127.686c4.591-11.506-4.857-20.418-10.387-24.648c-8.191-6.268-23.824-30.232-15.473-54.742
			c9.243-27.128,42.665-37.013,55.192-37.99c21.372-1.667,36.333,12.333,44.315,0s-16.982-23.333-16.982-23.333
			c-30-9.668-56.885,2.333-74.627,17.333c-26.868,22.716-31.902,63.65-14.373,98c5.55,10.875,8.467,16.334-1.2,21.167
			c0,0-5.5,3.833-7.5,0.667c0,0-0.167,4.333,7,5c0,0-1.333,3.05-4.333,2.107c0,0,3.812,1.742,6.771,0.434
			c0,0-0.375,1.813-2.75,1.875C-1969.193,133.623-1938.993,144.559-1932.261,127.686z"/>
		<path fill="#604E75" d="M-1832.407,130.972c-10.229-10.833-3.265-19.167,1.801-23.315c9.908-8.114,33.218-30.908,22.365-59.361
			c-9.969-26.136-31.093-24.86-41.511-29.657c-10.137-4.666-17.804-17.666-17.804-17.666c13.667-14.666,39.161-6.734,62,15
			c22.223,21.148,20.735,67.705,6,91.667c-5.739,9.333-2.333,15.333,8,17c0,0,5.095,1.76,7.095-0.537s-1.333,4.37-5.5,4.37
			s-1.499,1.499,2.167,1.833c0,0-2.927,1.5-6.797,1.334c0,0-1.037,0.666,0.963,1.5
			C-1793.628,133.139-1823.192,140.73-1832.407,130.972z"/>
		<path fill="#E9E9EA" d="M-1805.79,69.966c0.066,0.002,0.131,0.01,0.199,0.01c6.074,0,11-4.925,11-11c0-6.074-4.926-11-11-11
			c-0.893,0-1.756,0.118-2.586,0.318l-5.525,12.451L-1805.79,69.966z"/>
		<path fill="#E9E9EA" d="M-1960.068,69.966c-0.066,0.002-0.131,0.01-0.199,0.01c-6.074,0-11-4.925-11-11c0-6.074,4.926-11,11-11
			c0.893,0,1.756,0.118,2.586,0.318l5.525,12.451L-1960.068,69.966z"/>
		<circle fill="#C4C4C3" cx="-1928.797" cy="82.343" r="9.595"/>
		<circle fill="#C4C4C3" cx="-1836.553" cy="82.343" r="9.595"/>
		<path fill="none" stroke="#000000" stroke-width="3" stroke-linecap="round" stroke-miterlimit="10" d="M-1935.803,51.398
			c0,2.075,1.561,5.25,5.006,5.25s5.214-2.635,5.214-5.213"/>
		<path fill="none" stroke="#000000" stroke-width="3" stroke-linecap="round" stroke-miterlimit="10" d="M-1930.693,46.608
			c0,2.075,1.561,5.25,5.006,5.25c1.54,0,2.744-0.526,3.605-1.338"/>
		<path fill="none" stroke="#000000" stroke-width="3" stroke-linecap="round" stroke-miterlimit="10" d="M-1830.777,46.608
			c0,2.075-1.561,5.25-5.006,5.25c-1.539,0-2.744-0.526-3.605-1.338"/>
		<path fill="none" stroke="#000000" stroke-width="3" stroke-linecap="round" stroke-miterlimit="10" d="M-1835.965,51.398
			c0,2.075,1.561,5.25,5.006,5.25s5.214-2.635,5.214-5.213"/>
		<g>
			<circle cx="-1921.083" cy="54.123" r="7.5"/>
			<circle fill="#FFFFFF" cx="-1923.577" cy="52.08" r="3.03"/>
		</g>
		<g>
			<circle cx="-1840.583" cy="54.123" r="7.5"/>
			<circle fill="#FFFFFF" cx="-1843.077" cy="52.08" r="3.03"/>
		</g>
	</g>
</g>
<g>
	<g>
		<path fill="#E9E9EA" d="M-1604.249-180.311h2.438c5.94,0,10.801,4.86,10.801,10.8v32.733c0,5.939-4.86,10.8-10.801,10.8h-2.438
			V-180.311z"/>
		<path fill="#E9E9EA" d="M-1683.156-180.311h-2.438c-5.939,0-10.8,4.86-10.8,10.8v32.733c0,5.939,4.86,10.8,10.8,10.8h2.438
			V-180.311z"/>
		<path fill="#5B5C5C" d="M-1601.812-180.311h-2.438h-78.907h-2.438c-5.939,0-10.8,4.86-10.8,10.8v5.699h13.237v54.5h78.907v-54.5
			h13.238v-5.699C-1591.011-175.45-1595.871-180.311-1601.812-180.311z"/>
		<polygon fill="#604E75" points="-1683.156,-109.312 -1683.156,-92.645 -1683.156,-52.978 -1654.366,-52.978 -1654.366,-92.645 
			-1633.038,-92.645 -1633.038,-52.978 -1604.249,-52.978 -1604.249,-92.645 -1604.249,-109.312 		"/>
		<path d="M-1668.762-38.583c7.95,0,14.396-6.444,14.396-14.395h-28.79C-1683.156-45.027-1676.711-38.583-1668.762-38.583z"/>
		<path d="M-1618.644-38.583c7.95,0,14.395-6.444,14.395-14.395h-28.789C-1633.038-45.027-1626.593-38.583-1618.644-38.583z"/>
		<path fill="#604E75" d="M-1668.762-67.372c-7.949,0-14.395,6.444-14.395,14.395h28.79
			C-1654.366-60.928-1660.812-67.372-1668.762-67.372z"/>
		<path fill="#604E75" d="M-1618.644-67.372c-7.949,0-14.395,6.444-14.395,14.395h28.789
			C-1604.249-60.928-1610.693-67.372-1618.644-67.372z"/>
		<g>
			<g>
				<path fill="#E9E9EA" d="M-1677.042-158.229c1.461-0.578,2.197-0.851,3.675-1.364c0.197,0.567,0.295,0.851,0.492,1.418
					c-0.319,0.111-0.479,0.167-0.798,0.28c0.727,2.033,1.089,3.048,1.816,5.081c0.299-0.107,0.45-0.16,0.75-0.264
					c0.195,0.562,0.292,0.843,0.487,1.405c-1.343,0.466-2.011,0.714-3.338,1.239c-0.219-0.553-0.329-0.83-0.548-1.383
					c0.296-0.118,0.446-0.175,0.743-0.29c-0.776-2.015-1.162-3.021-1.938-5.036c-0.316,0.122-0.476,0.183-0.791,0.308
					C-1676.711-157.392-1676.821-157.67-1677.042-158.229z"/>
				<path fill="#E9E9EA" d="M-1665.39-161.985c1.383-0.343,2.079-0.5,3.472-0.788c0.122,0.587,0.182,0.88,0.304,1.467
					c-0.328,0.068-0.493,0.103-0.82,0.174c0.584,2.701,0.876,4.052,1.461,6.753c-0.48,0.104-0.719,0.157-1.198,0.268
					c-2.036-1.685-3.101-2.498-5.318-4.053c0.41,1.444,0.615,2.167,1.025,3.612c0.157-0.044,0.918-0.256,0.918-0.256
					c0.157,0.579,0.235,0.869,0.393,1.447c-1.25,0.339-1.874,0.521-3.113,0.91c-0.18-0.572-0.27-0.858-0.449-1.43
					c0.36-0.113,0.541-0.168,0.901-0.277c-0.625-2.071-0.936-3.107-1.561-5.179c-0.384,0.116-0.577,0.175-0.96,0.295
					c-0.18-0.572-0.27-0.858-0.449-1.431c1.163-0.365,1.747-0.538,2.918-0.863c1.862,1.351,2.763,2.048,4.499,3.487
					c-0.275-1.167-0.414-1.75-0.689-2.917c-0.389,0.092-0.582,0.138-0.97,0.234C-1665.171-161.112-1665.246-161.403-1665.39-161.985
					z"/>
				<path fill="#E9E9EA" d="M-1650.563-160.174c0.198,2.403-1.544,4.328-3.814,4.63c-1.451,0.193-2.175,0.307-3.619,0.564
					c-0.106-0.595-0.159-0.893-0.266-1.488c0.295-0.053,0.443-0.078,0.738-0.128c-0.359-2.119-0.538-3.179-0.897-5.298
					c-0.314,0.053-0.471,0.081-0.785,0.137c-0.107-0.6-0.161-0.899-0.268-1.499c1.59-0.284,2.388-0.409,3.986-0.622
					C-1652.801-164.234-1650.761-162.576-1650.563-160.174z M-1655.504-156.913c0.257-0.037,0.385-0.055,0.642-0.09
					c1.84-0.251,2.344-1.638,2.202-2.974c-0.144-1.347-1.154-2.592-2.927-2.35c-0.273,0.037-0.411,0.057-0.684,0.096
					C-1655.964-160.103-1655.812-159.04-1655.504-156.913z"/>
				<path fill="#E9E9EA" d="M-1649.008-164.47c1.541-0.094,2.313-0.125,3.856-0.154c0.011,0.6,0.018,0.9,0.029,1.5
					c-0.333,0.006-0.5,0.01-0.833,0.02c0.061,2.158,0.09,3.235,0.151,5.393c0.313-0.009,0.47-0.012,0.783-0.018
					c0.011,0.595,0.018,0.892,0.029,1.487c-1.401,0.026-2.103,0.054-3.502,0.14c-0.037-0.594-0.054-0.891-0.09-1.484
					c0.313-0.019,0.469-0.028,0.782-0.044c-0.112-2.155-0.167-3.231-0.279-5.387c-0.333,0.017-0.5,0.025-0.833,0.046
					C-1648.953-163.572-1648.972-163.871-1649.008-164.47z"/>
				<path fill="#E9E9EA" d="M-1637.22-164.441c0,0,2.488,6.832,2.62,7.136c0.372,0.039,0.556,0.059,0.927,0.102
					c-0.069,0.596-0.104,0.894-0.173,1.49c-1.399-0.163-2.101-0.229-3.505-0.332c0.043-0.593,0.065-0.89,0.108-1.483
					c0.184,0.014,0.276,0.02,0.459,0.034c-0.125-0.311-0.228-0.619-0.367-0.942c-0.993-0.073-1.49-0.102-2.484-0.146
					c-0.157,0.358-0.235,0.537-0.389,0.896c0.184,0.007,0.275,0.011,0.459,0.02c-0.027,0.594-0.04,0.892-0.067,1.486
					c-1.215-0.056-1.823-0.072-3.04-0.083c0.005-0.6,0.008-0.899,0.014-1.499c0.373,0.003,0.56,0.006,0.933,0.014
					c0.316-0.894,3.296-6.765,3.296-6.765c0.494,0.027,0.742,0.043,1.236,0.077C-1637.203-164.439-1637.209-164.44-1637.22-164.441z
					 M-1637.602-159.972c-0.256-0.686-0.388-1.028-0.656-1.712c-0.325,0.649-0.484,0.974-0.799,1.626
					C-1638.474-160.028-1638.184-160.011-1637.602-159.972z"/>
				<path fill="#E9E9EA" d="M-1625.12-162.812c1.393,0.285,2.087,0.441,3.471,0.781c-0.143,0.583-0.214,0.873-0.357,1.455
					c-0.326-0.08-0.489-0.119-0.816-0.196c-0.634,2.69-0.95,4.034-1.584,6.724c-0.479-0.113-0.718-0.167-1.198-0.273
					c-1.113-2.396-1.723-3.588-3.046-5.944c-0.251,1.48-0.376,2.222-0.627,3.702c0.16,0.027,0.934,0.163,0.934,0.163
					c-0.107,0.59-0.161,0.886-0.268,1.476c-1.269-0.23-1.905-0.333-3.18-0.514c0.084-0.594,0.126-0.891,0.21-1.484
					c0.37,0.052,0.555,0.08,0.924,0.137c0.327-2.139,0.491-3.208,0.818-5.348c-0.394-0.06-0.589-0.089-0.983-0.145
					c0.084-0.594,0.126-0.891,0.21-1.485c1.196,0.169,1.793,0.265,2.985,0.474c1.093,2.019,1.603,3.036,2.55,5.081
					c0.253-1.172,0.379-1.758,0.632-2.93c-0.39-0.084-0.584-0.126-0.976-0.206C-1625.3-161.931-1625.24-162.225-1625.12-162.812z"/>
				<path fill="#E9E9EA" d="M-1613.956-159.769c0,0,0.684,7.258,0.734,7.586c0.354,0.136,0.531,0.205,0.884,0.344
					c-0.221,0.558-0.331,0.837-0.552,1.395c-1.332-0.527-2.002-0.776-3.35-1.244c0.195-0.562,0.294-0.844,0.489-1.406
					c0.176,0.061,0.264,0.092,0.44,0.154c-0.043-0.333-0.065-0.658-0.119-1.007c-0.954-0.331-1.431-0.489-2.392-0.792
					c-0.245,0.305-0.368,0.458-0.61,0.765c0.178,0.055,0.268,0.083,0.446,0.14c-0.179,0.567-0.27,0.851-0.449,1.418
					c-1.173-0.371-1.764-0.545-2.947-0.871c0.159-0.578,0.24-0.868,0.399-1.446c0.363,0.1,0.545,0.151,0.907,0.255
					c0.538-0.782,4.957-5.68,4.957-5.68c0.477,0.155,0.713,0.235,1.188,0.397C-1613.94-159.763-1613.945-159.765-1613.956-159.769z
					 M-1615.476-155.547c-0.075-0.729-0.115-1.095-0.202-1.826c-0.485,0.542-0.725,0.813-1.2,1.361
					C-1616.316-155.831-1616.035-155.737-1615.476-155.547z"/>
			</g>
		</g>
	</g>
	<g>
		<path fill="#E9E9EA" d="M-1566.677-243.942c-0.893,0-1.756,0.118-2.586,0.318c-8.77-28.624-38.908-49.725-74.753-49.725
			c-35.846,0-65.984,21.101-74.752,49.725c-0.831-0.201-1.693-0.318-2.586-0.318c-6.076,0-11,4.925-11,11c0,6.075,4.924,11,11,11
			c0.066,0,0.132-0.009,0.199-0.01c2.713,33.829,36.201,49.417,77.139,49.417s74.425-15.588,77.14-49.417
			c0.066,0.001,0.131,0.01,0.199,0.01c6.074,0,11-4.925,11-11C-1555.677-239.018-1560.603-243.942-1566.677-243.942z"/>
		<g>
			<circle cx="-1684.758" cy="-236.234" r="7.5"/>
			<circle fill="#FFFFFF" cx="-1687.252" cy="-238.277" r="3.029"/>
		</g>
		<g>
			<circle cx="-1604.258" cy="-236.234" r="7.5"/>
			<circle fill="#FFFFFF" cx="-1606.752" cy="-238.277" r="3.03"/>
		</g>
		<path fill="none" stroke="#000000" stroke-width="3" stroke-linecap="round" stroke-miterlimit="10" d="M-1644.016-241.307
			c0,0,0.812,8.268,4.312,12.573l-4.312,3.555"/>
		<path fill="none" stroke="#000000" stroke-width="3" stroke-linecap="round" stroke-miterlimit="10" d="M-1656.284-218.472
			c0,5.106,3.842,12.917,12.318,12.917s12.827-6.482,12.827-12.827"/>
		<path fill="#B69FCC" d="M-1592.201-281.678L-1592.201-281.678C-1592.201-281.678-1592.201-281.679-1592.201-281.678
			c-1.28-0.946-2.444-1.776-3.42-2.501c-1.853-1.379-4.369-2.847-7.429-4.276c-16.112-12.402-23.727-29.564-23.727-29.564
			c-3,9.667-8.751,6.667-8.751,6.667c-2.751-1-3.083-6-3.083-6c-0.5,3.5-4,6.5-6.666,4.167c-2.667-2.333-4-11.5-4-11.5
			s-1.5,18-8.334,16.833c-6.833-1.167-6.166-5.167-6.166-5.167c-0.968,10.89-16.194,21.368-24.47,26.295
			c-1.881,0.93-3.637,1.909-5.25,2.928c-0.002,0-0.012,0.005-0.012,0.005h0.002c-2.631,1.663-4.881,3.431-6.615,5.279
			c-10.324,11.001-19.127,25.778-18.646,34.889c0,0,2.813,3.335,2.813,7.39h5.5c0,0,0.5-26.445,16-36.445
			c0,0,25.348-10.674,48.515-9.841c23.166,0.833,50.819,8.674,50.819,8.674c19.667,12.667,17.667,37.612,17.667,37.612h5.332
			c0.166-4.055,2.859-7.39,2.859-7.39C-1571.059-264.811-1584.07-275.674-1592.201-281.678z"/>
	</g>
</g>
<g>
	<g>
		<path fill="#E9E9EA" d="M-2065.863,112.608h2.438c5.939,0,10.8,4.86,10.8,10.8v32.733c0,5.939-4.86,10.8-10.8,10.8h-2.438V112.608
			z"/>
		<path fill="#E9E9EA" d="M-2144.771,112.608h-2.438c-5.94,0-10.8,4.86-10.8,10.8v32.733c0,5.939,4.859,10.8,10.8,10.8h2.438
			V112.608z"/>
		<path fill="#B69FCC" d="M-2063.426,112.608h-2.438h-78.908h-2.438c-5.94,0-10.8,4.86-10.8,10.8v5.699h13.237v54.5h78.908v-54.5
			h13.237v-5.699C-2052.626,117.469-2057.486,112.608-2063.426,112.608z"/>
		<polygon fill="#C4C4C3" points="-2144.771,183.607 -2144.771,200.274 -2144.771,239.941 -2115.981,239.941 -2115.981,200.274 
			-2094.653,200.274 -2094.653,239.941 -2065.863,239.941 -2065.863,200.274 -2065.863,183.607 		"/>
		<path d="M-2130.377,254.336c7.95,0,14.396-6.444,14.396-14.395h-28.79C-2144.771,247.892-2138.327,254.336-2130.377,254.336z"/>
		<path d="M-2080.259,254.336c7.95,0,14.396-6.444,14.396-14.395h-28.79C-2094.653,247.892-2088.208,254.336-2080.259,254.336z"/>
		<path fill="#C4C4C3" d="M-2130.377,225.547c-7.95,0-14.395,6.444-14.395,14.395h28.79
			C-2115.981,231.991-2122.427,225.547-2130.377,225.547z"/>
		<path fill="#C4C4C3" d="M-2080.259,225.547c-7.949,0-14.395,6.444-14.395,14.395h28.79
			C-2065.863,231.991-2072.309,225.547-2080.259,225.547z"/>
		<g>
			<g>
				<path fill="#5B5C5C" d="M-2131.473,136.833c0.005,1.075-0.327,2.525-2.473,3.262c-2.124,0.729-4.295-0.303-5.158-2.479
					c-0.926-2.34,0.151-4.519,2.486-5.318c0.799-0.273,1.463-0.328,1.833-0.276c-0.054-0.168-0.081-0.253-0.135-0.421
					c0.628-0.201,0.943-0.298,1.574-0.487c0.373,1.239,0.559,1.858,0.931,3.098c-0.608,0.183-0.912,0.277-1.518,0.472
					c-0.055-0.172-0.083-0.258-0.138-0.43c-0.177-0.552-0.979-0.92-2.067-0.547c-0.762,0.261-1.616,1.2-0.909,3.127
					c0.659,1.796,1.906,2.119,2.623,1.873c1.172-0.402,1.433-1.563,1.387-1.706C-2132.41,136.926-2132.097,136.894-2131.473,136.833
					z"/>
				<path fill="#5B5C5C" d="M-2122.177,135.464c0.104,0.575,0.157,0.86,0.261,1.436c-0.802,0.146-1.202,0.224-2.001,0.39
					c-0.327-0.074-1.008-0.378-1.227-1.375c-0.124-0.566-0.823-1.607-2.049-1.47c0.189,0.79,0.285,1.186,0.474,1.976
					c0.297-0.071,0.446-0.107,0.744-0.176c0.131,0.569,0.197,0.855,0.328,1.425c-1.323,0.305-1.982,0.471-3.294,0.83
					c-0.154-0.563-0.231-0.848-0.386-1.411c0.347-0.095,0.521-0.144,0.868-0.234c-0.53-2.023-0.797-3.032-1.327-5.056
					c-0.369,0.097-0.552,0.144-0.92,0.244c-0.153-0.56-0.229-0.839-0.382-1.398c1.506-0.412,2.262-0.603,3.78-0.948
					c2.024-0.461,2.908,0.712,3.107,1.725c0.168,0.854-0.406,1.818-0.383,1.994c0.032,0.242,1.002,1.148,1.168,1.99
					c0.056,0.284,0.361,0.225,0.361,0.225C-2122.704,135.562-2122.529,135.528-2122.177,135.464z M-2126.912,132.891
					c0.715-0.166,0.962-0.657,0.868-1.088s-0.498-0.795-1.104-0.655c-0.316,0.073-0.474,0.109-0.79,0.185
					c0.163,0.681,0.244,1.023,0.407,1.704C-2127.284,132.977-2127.159,132.948-2126.912,132.891z"/>
				<path fill="#5B5C5C" d="M-2120.954,128.521c1.458-0.225,2.188-0.323,3.651-0.489c0.065,0.576,0.096,0.865,0.162,1.441
					c-0.316,0.036-0.473,0.051-0.789,0.09c0.253,2.072,0.38,3.109,0.633,5.181c0.297-0.036,0.446-0.054,0.744-0.088
					c0.065,0.571,0.098,0.857,0.163,1.429c-1.333,0.151-1.999,0.242-3.327,0.447c-0.088-0.568-0.131-0.854-0.219-1.422
					c0.297-0.046,0.445-0.068,0.742-0.111c-0.3-2.065-0.451-3.1-0.751-5.165c-0.315,0.046-0.473,0.069-0.788,0.118
					C-2120.821,129.378-2120.865,129.094-2120.954,128.521z"/>
				<path fill="#5B5C5C" d="M-2106.267,127.431c1.024,0.009,1.536,0.021,2.561,0.059c-0.021,0.579-0.031,0.869-0.052,1.448
					c-0.378-0.014-0.566-0.02-0.945-0.029c-0.055,2.092-0.083,3.136-0.138,5.228c0.356,0.009,0.535,0.017,0.891,0.029
					c-0.021,0.579-0.031,0.867-0.053,1.446c-1.339-0.049-2.008-0.06-3.348-0.055c-0.002-0.579-0.004-0.868-0.006-1.448
					c0.233-0.001,0.349-0.001,0.582,0c0.003-1.049,0.005-1.574,0.009-2.622c-0.798,1.625-1.179,2.443-1.903,4.086
					c-0.354,0.007-0.532,0.013-0.886,0.023c0,0-1.74-2.984-2.417-4.096c0.062,1.098,0.093,1.646,0.155,2.743
					c0.237-0.014,0.354-0.02,0.592-0.031c0.029,0.579,0.042,0.867,0.071,1.446c-1.166,0.058-1.748,0.097-2.911,0.195
					c-0.049-0.577-0.073-0.864-0.122-1.442c0.36-0.03,0.54-0.046,0.9-0.072c-0.155-2.086-0.233-3.13-0.388-5.216
					c-0.382,0.028-0.573,0.044-0.956,0.076c-0.049-0.578-0.073-0.866-0.122-1.444c0.96-0.081,1.441-0.116,2.403-0.172
					c1.404,2.069,2.069,3.118,3.324,5.237C-2107.989,130.648-2107.438,129.568-2106.267,127.431z"/>
				<path fill="#5B5C5C" d="M-2094.937,134.1c-0.329,2.295-2.647,1.993-3.379,1.916c-0.731-0.077-1.566-0.441-1.824-1.045
					c-0.029,0.347-0.042,0.521-0.071,0.867c-0.582-0.048-0.873-0.069-1.455-0.107c0.086-1.333,0.129-2,0.216-3.333
					c0.605,0.039,0.909,0.063,1.514,0.113c-0.024,0.291-0.037,0.438-0.061,0.729c-0.048,0.578,0.651,1.216,1.538,1.307
					c0.745,0.076,1.655-0.121,1.707-0.548c0.088-0.726-0.486-0.963-1.803-1.502c-1.007-0.412-2.679-0.955-2.573-2.552
					c0.086-1.295,1.588-2.237,3.349-2.058c1.123,0.114,1.542,0.615,1.641,1.071c0.042-0.35,0.062-0.526,0.104-0.876
					c0.642,0.078,0.963,0.118,1.604,0.208c-0.153,1.094-0.229,1.644-0.381,2.736c-0.622-0.087-0.933-0.126-1.555-0.201
					c0.007-0.056,0.011-0.085,0.018-0.141c0.052-0.426-0.323-1.215-1.578-1.343c-0.477-0.049-1.131,0.182-1.171,0.621
					c-0.038,0.427,0.437,0.636,1.463,1.02C-2096.468,131.419-2094.647,132.079-2094.937,134.1z"/>
				<path fill="#5B5C5C" d="M-2084.749,134.41c-0.795,3.004-3.098,3.481-4.874,3.1c-1.901-0.408-3.645-1.897-3.159-4.825
					c0.465-2.803,2.818-3.776,4.911-3.326C-2085.917,129.778-2083.983,131.518-2084.749,134.41z M-2086.889,133.873
					c0.381-1.602-0.181-2.811-1.297-3.051c-1.265-0.271-2.257,0.607-2.565,2.225c-0.304,1.594,0.251,2.757,1.44,3.013
					C-2088.261,136.285-2087.264,135.452-2086.889,133.873z"/>
				<path fill="#5B5C5C" d="M-2076.686,132.63c1.289,0.455,1.933,0.696,3.208,1.201c-0.213,0.539-0.32,0.809-0.534,1.348
					c-0.3-0.119-0.452-0.178-0.753-0.294c-0.961,2.492-1.441,3.74-2.402,6.232c-0.443-0.171-0.664-0.253-1.109-0.417
					c-0.746-2.441-1.168-3.664-2.111-6.095c-0.439,1.384-0.658,2.076-1.097,3.46c0.149,0.048,0.869,0.28,0.869,0.28
					c-0.181,0.551-0.273,0.827-0.454,1.378c-1.181-0.389-1.773-0.571-2.964-0.915c0.161-0.557,0.241-0.835,0.401-1.392
					c0.346,0.1,0.519,0.149,0.863,0.253c0.601-2.004,0.901-3.007,1.502-5.011c-0.366-0.109-0.549-0.164-0.916-0.27
					c0.161-0.557,0.24-0.836,0.4-1.393c1.113,0.321,1.668,0.491,2.774,0.849c0.768,2.076,1.119,3.114,1.751,5.197
					c0.398-1.089,0.597-1.633,0.995-2.722c-0.361-0.132-0.543-0.196-0.905-0.324C-2076.974,133.45-2076.878,133.177-2076.686,132.63
					z"/>
			</g>
		</g>
		<g>
			<g>
				<path fill="#5B5C5C" d="M-2127.14,149.992c1.414,0.45,2.125,0.657,3.556,1.027c-0.15,0.58-0.225,0.871-0.375,1.451
					c-0.307-0.08-0.461-0.121-0.768-0.204c-0.565,2.084-0.847,3.126-1.413,5.21c0.331,0.09,0.496,0.132,0.827,0.218
					c-0.15,0.581-0.226,0.871-0.376,1.452c-1.608-0.417-2.409-0.65-3.998-1.156c0.182-0.571,0.273-0.853,0.455-1.424
					c0.395,0.126,0.592,0.183,0.988,0.303c0.244-0.804,0.365-1.202,0.609-2.006c-1.149-0.349-1.721-0.534-2.858-0.932
					c-0.277,0.793-0.415,1.188-0.691,1.98c0.392,0.137,0.588,0.206,0.981,0.337c-0.189,0.569-0.285,0.852-0.475,1.421
					c-1.584-0.528-2.37-0.814-3.93-1.432c0.221-0.558,0.332-0.837,0.553-1.395c0.321,0.127,0.482,0.19,0.804,0.313
					c0.771-2.017,1.156-3.026,1.927-5.043c-0.299-0.114-0.448-0.17-0.746-0.288c0.221-0.558,0.332-0.837,0.552-1.395
					c1.388,0.55,2.087,0.804,3.496,1.273c-0.189,0.569-0.286,0.854-0.476,1.424c-0.365-0.122-0.547-0.188-0.91-0.314
					c-0.237,0.68-0.355,1.021-0.593,1.7c1.114,0.389,1.674,0.574,2.8,0.915c0.209-0.688,0.313-1.037,0.522-1.726
					c-0.367-0.111-0.551-0.166-0.917-0.282C-2127.412,150.851-2127.321,150.563-2127.14,149.992z"/>
				<path fill="#5B5C5C" d="M-2116.482,152.455c0,0,2.185,6.922,2.33,7.227c0.402,0.041,0.603,0.059,1.005,0.094
					c-0.053,0.598-0.079,0.896-0.131,1.494c-1.577-0.139-2.363-0.227-3.933-0.447c0.083-0.589,0.123-0.885,0.206-1.474
					c0.198,0.027,0.297,0.042,0.495,0.068c-0.121-0.318-0.213-0.634-0.341-0.967c-1.045-0.146-1.567-0.229-2.608-0.413
					c-0.211,0.333-0.318,0.498-0.532,0.83c0.197,0.036,0.296,0.053,0.494,0.087c-0.103,0.586-0.155,0.882-0.258,1.468
					c-1.353-0.237-2.027-0.374-3.37-0.673c0.13-0.585,0.196-0.877,0.327-1.462c0.396,0.088,0.595,0.131,0.993,0.214
					c0.501-0.815,4.235-6.214,4.235-6.214c0.445,0.073,0.668,0.106,1.114,0.172
					C-2116.467,152.458-2116.473,152.456-2116.482,152.455z M-2117.212,156.883c-0.207-0.705-0.307-1.058-0.5-1.764
					c-0.382,0.614-0.576,0.922-0.971,1.531C-2118.095,156.75-2117.802,156.796-2117.212,156.883z"/>
				<path fill="#5B5C5C" d="M-2104.18,153.119c1.221-0.045,1.831-0.08,3.049-0.18c0.049,0.603,0.073,0.906,0.122,1.509
					c-0.314,0.025-0.472,0.036-0.786,0.059c-0.149,0.011-0.139,0.139-0.139,0.139c-0.755,2.768-1.179,4.148-2.119,6.894
					c-0.555,0.019-0.832,0.026-1.386,0.035c-0.649-1.736-0.956-2.607-1.533-4.356c-0.655,1.743-1.003,2.611-1.737,4.339
					c-0.483-0.013-0.724-0.022-1.208-0.043c-0.847-2.683-1.228-4.03-1.906-6.731c0.013-0.167-0.127-0.31-0.289-0.322
					c-0.314-0.025-0.472-0.038-0.786-0.066c0.055-0.602,0.083-0.903,0.137-1.505c1.466,0.133,2.201,0.179,3.671,0.232
					c-0.022,0.604-0.034,0.907-0.056,1.511c-0.25-0.009-0.374-0.014-0.623-0.025c0.32,1.216,0.488,1.82,0.841,3.032
					c0.714-1.782,1.05-2.679,1.682-4.477c0.425,0.004,0.638,0.003,1.063,0c0.627,1.8,0.961,2.698,1.67,4.482
					c0.355-1.211,0.525-1.817,0.848-3.032c-0.185,0.008-0.278,0.013-0.463,0.02C-2104.149,154.028-2104.158,153.723-2104.18,153.119
					z"/>
				<path fill="#5B5C5C" d="M-2089.536,158.096c0.333-0.078,0.498-0.121,0.83-0.203c0.143,0.577,0.215,0.868,0.358,1.445
					c-1.611,0.4-2.421,0.574-4.047,0.885c-0.112-0.584-0.168-0.876-0.28-1.46c-1.127-0.825-1.674-1.247-2.741-2.113
					c0.16,1.01,0.239,1.514,0.398,2.523c0.336-0.054,0.505-0.079,0.841-0.136c0.1,0.587,0.149,0.879,0.249,1.466
					c-1.56,0.265-2.343,0.377-3.912,0.56c-0.069-0.591-0.104-0.887-0.172-1.478c0.338-0.039,0.506-0.061,0.843-0.104
					c-0.275-2.151-0.413-3.225-0.689-5.375c-0.313,0.04-0.47,0.06-0.783,0.096c-0.069-0.591-0.103-0.887-0.171-1.478
					c1.395-0.162,2.091-0.266,3.479-0.501c0.1,0.587,0.149,0.879,0.249,1.466c-0.312,0.053-0.466,0.083-0.778,0.132
					c0.084,0.535,0.125,0.803,0.21,1.338c0.842-0.856,1.25-1.293,2.04-2.174c-0.08-0.415-0.12-0.62-0.2-1.035
					c1.205-0.233,1.805-0.365,3.001-0.653c0.139,0.578,0.209,0.871,0.349,1.449c-0.372,0.09-0.558,0.131-0.931,0.215
					c-0.221,0.05-0.33,0.225-0.662,0.625c-0.242,0.292-1.033,1.279-1.585,1.834c1.238,0.989,1.877,1.472,3.196,2.405
					C-2090.182,158.013-2089.866,158.174-2089.536,158.096z"/>
				<path fill="#5B5C5C" d="M-2079.556,154.008c0.883,2.23-1.73,3.213-2.561,3.496c-0.83,0.283-1.901,0.309-2.419-0.159
					c0.106,0.344,0.16,0.519,0.266,0.862c-0.664,0.204-0.997,0.299-1.664,0.488c-0.376-1.329-0.565-1.995-0.941-3.324
					c0.637-0.181,0.954-0.271,1.587-0.467c0.089,0.289,0.135,0.434,0.224,0.723c0.177,0.573,1.173,0.894,2.142,0.568
					c0.814-0.273,1.66-0.908,1.507-1.326c-0.259-0.71-0.947-0.625-2.489-0.558c-1.179,0.051-3.053,0.147-3.507-1.444
					c-0.369-1.291,0.667-2.687,2.286-3.23c1.032-0.347,1.615-0.082,1.913,0.295c-0.125-0.343-0.187-0.513-0.312-0.855
					c0.587-0.214,0.88-0.323,1.463-0.551c0.416,1.063,0.623,1.595,1.039,2.658c-0.608,0.237-0.914,0.352-1.526,0.574
					c-0.02-0.055-0.029-0.081-0.049-0.136c-0.152-0.417-0.848-0.954-2.046-0.552c-0.456,0.153-0.966,0.63-0.828,1.064
					c0.134,0.423,0.667,0.445,1.809,0.351C-2082.366,152.378-2080.333,152.045-2079.556,154.008z"/>
			</g>
		</g>
	</g>
	<g>
		<path fill="#E9E9EA" d="M-2028.292,47.776c-0.893,0-1.755,0.117-2.586,0.318c-8.769-28.625-38.907-49.726-74.753-49.726
			c-35.845,0-65.983,21.101-74.753,49.726c-0.83-0.201-1.693-0.318-2.586-0.318c-6.074,0-11,4.924-11,11c0,6.074,4.926,11,11,11
			c0.068,0,0.133-0.01,0.199-0.011c2.715,33.828,36.201,49.416,77.14,49.416c40.938,0,74.426-15.588,77.14-49.416
			c0.067,0.001,0.132,0.011,0.199,0.011c6.075,0,11-4.926,11-11C-2017.292,52.7-2022.217,47.776-2028.292,47.776z"/>
		<g>
			<circle cx="-2146.373" cy="55.483" r="7.5"/>
			<circle fill="#FFFFFF" cx="-2148.867" cy="53.44" r="3.03"/>
		</g>
		<g>
			<circle cx="-2065.873" cy="55.483" r="7.5"/>
			<circle fill="#FFFFFF" cx="-2068.367" cy="53.44" r="3.03"/>
		</g>
		<path fill="none" stroke="#000000" stroke-width="3" stroke-linecap="round" stroke-miterlimit="10" d="M-2105.631,50.411
			c0,0,0.812,8.268,4.312,12.572l-4.312,3.555"/>
		<path fill="none" stroke="#000000" stroke-width="3" stroke-linecap="round" stroke-miterlimit="10" d="M-2117.899,73.247
			c0,5.105,3.842,12.916,12.318,12.916s12.827-6.481,12.827-12.826"/>
		<path fill="#604E75" d="M-2105.327-25.229c-11.729,23.599-36.259,25.295-44.533,30.223c-1.883,0.93-3.639,1.908-5.252,2.928
			l-0.01,0.005h0.002c-2.632,1.663-4.881,3.431-6.616,5.279c-10.324,11.001-19.127,25.778-18.647,34.89c0,0,2.814,3.334,2.814,7.389
			h5.5c0,0,0.5-26.445,16-36.445c0,0,25.348-10.674,48.514-9.84c23.167,0.833,50.819,8.674,50.819,8.674
			c19.667,12.667,17.667,37.611,17.667,37.611h5.333c0.166-4.055,2.858-7.389,2.858-7.389
			c-1.796-21.188-14.808-32.051-22.938-38.055h0.001c-0.001,0-0.001,0-0.001,0c-1.28-0.946-2.444-1.775-3.42-2.502
			c-1.853-1.379-4.369-2.846-7.428-4.275C-2095.889-4.063-2105.327-25.229-2105.327-25.229z"/>
	</g>
</g>
<g>
	<g>
		<path fill="#E9E9EA" d="M-1613.832,115.113h2.438c5.94,0,10.8,4.86,10.8,10.8v32.733c0,5.939-4.859,10.8-10.8,10.8h-2.438V115.113
			z"/>
		<path fill="#E9E9EA" d="M-1692.739,115.113h-2.438c-5.94,0-10.801,4.86-10.801,10.8v32.733c0,5.939,4.86,10.8,10.801,10.8h2.438
			V115.113z"/>
		<path fill="#333333" d="M-1611.395,115.113h-2.438h-78.907h-2.438c-5.94,0-10.801,4.86-10.801,10.8v5.699h13.238v54.5h78.907
			v-54.5h13.237v-5.699C-1600.595,119.974-1605.454,115.113-1611.395,115.113z"/>
		<polygon fill="#B69FCC" points="-1692.739,186.112 -1692.739,202.779 -1692.739,242.446 -1663.95,242.446 -1663.95,202.779 
			-1642.622,202.779 -1642.622,242.446 -1613.832,242.446 -1613.832,202.779 -1613.832,186.112 		"/>
		<path d="M-1678.345,256.841c7.949,0,14.395-6.444,14.395-14.395h-28.789C-1692.739,250.396-1686.295,256.841-1678.345,256.841z"/>
		<path d="M-1628.228,256.841c7.951,0,14.396-6.444,14.396-14.395h-28.79C-1642.622,250.396-1636.177,256.841-1628.228,256.841z"/>
		<path fill="#B69FCC" d="M-1678.345,228.052c-7.95,0-14.395,6.444-14.395,14.395h28.789
			C-1663.95,234.496-1670.396,228.052-1678.345,228.052z"/>
		<path fill="#B69FCC" d="M-1628.228,228.052c-7.949,0-14.395,6.444-14.395,14.395h28.79
			C-1613.832,234.496-1620.276,228.052-1628.228,228.052z"/>
		<g>
			<g>
				<path fill="#B69FCC" d="M-1677.007,133.629c1.531-0.451,2.301-0.658,3.847-1.035c0.162,0.665,0.244,0.997,0.406,1.662
					c-0.458,0.111-0.689,0.17-1.146,0.288c-0.075,1.263-1.269,7.85-1.242,8.558c-0.533,0.164-0.797,0.248-1.328,0.422
					c-0.389-0.593-5.555-5.688-5.988-6.255c-0.439,0.167-0.66,0.251-1.097,0.424c-0.252-0.637-0.378-0.954-0.63-1.591
					c1.645-0.651,2.473-0.953,4.142-1.515c0.218,0.648,0.327,0.974,0.545,1.622c-0.148,0.05-0.222,0.073-0.37,0.124
					c0.648,0.689,3.132,3.495,3.132,3.495c0.152-0.039,0.689-3.631,0.781-4.725c-0.228,0.065-0.341,0.099-0.568,0.166
					C-1676.717,134.613-1676.813,134.285-1677.007,133.629z"/>
				<path fill="#B69FCC" d="M-1658.509,136.034c-0.112,1.588-0.161,2.383-0.25,3.971c-3.276,0.242-4.913,0.453-8.154,1.058
					c-0.125-0.673-0.189-1.011-0.315-1.684c0.355-0.066,0.533-0.097,0.888-0.158c-0.424-2.433-0.635-3.65-1.058-6.083
					c-0.384,0.067-0.577,0.102-0.961,0.173c-0.125-0.673-0.188-1.008-0.314-1.681c3.424-0.639,5.151-0.868,8.61-1.148
					c0.5,1.267,0.743,1.9,1.213,3.174c-0.761,0.053-1.14,0.084-1.9,0.154c-0.244-0.665-0.526-1.512-1.677-1.383
					c-1,0.112-1.501,0.177-2.499,0.319c0.117,0.818,0.175,1.229,0.292,2.047c0.525-0.075,0.79-0.111,1.316-0.178
					c-0.035-0.276-0.054-0.415-0.089-0.691c0.753-0.095,1.13-0.14,1.885-0.217c0.126,1.23,0.19,1.85,0.316,3.08
					c-0.726,0.074-1.088,0.115-1.813,0.206c-0.034-0.271-0.052-0.407-0.086-0.679c-0.515,0.064-0.773,0.101-1.287,0.174
					c0.136,0.948,0.204,1.421,0.34,2.369c1.138-0.163,1.709-0.235,2.85-0.354c0.525-0.055,0.766-1.286,0.864-2.326
					C-1659.606,136.11-1659.241,136.083-1658.509,136.034z"/>
				<path fill="#B69FCC" d="M-1645.597,138.479c-0.069,0.687-0.104,1.03-0.174,1.717c-0.966-0.099-1.449-0.139-2.417-0.205
					c-0.351-0.188-1.036-0.752-0.971-1.954c0.037-0.684-0.442-2.09-1.907-2.31c-0.027,0.958-0.041,1.435-0.068,2.393
					c0.365,0.011,0.547,0.017,0.912,0.031c-0.027,0.689-0.042,1.035-0.069,1.725c-1.61-0.065-2.415-0.075-4.025-0.053
					c-0.01-0.689-0.014-1.037-0.024-1.727c0.428-0.006,0.64-0.006,1.068-0.006c0-2.47,0.001-3.705,0.002-6.174
					c-0.462,0-0.692,0.001-1.155,0.008c-0.009-0.685-0.015-1.024-0.024-1.709c1.901-0.026,2.852-0.013,4.751,0.068
					c2.531,0.108,3.188,1.734,3.087,2.948c-0.084,1.022-1.069,1.938-1.099,2.14c-0.041,0.281,0.787,1.623,0.704,2.634
					c-0.028,0.341,0.342,0.374,0.342,0.374C-1646.237,138.417-1646.023,138.437-1645.597,138.479z M-1650.253,134.043
					c0.886,0.033,1.335-0.447,1.363-0.967c0.028-0.519-0.328-1.063-1.083-1.093c-0.394-0.016-0.591-0.024-0.985-0.035
					c-0.023,0.826-0.037,1.241-0.06,2.067C-1650.711,134.024-1650.56,134.031-1650.253,134.043z"/>
				<path fill="#B69FCC" d="M-1631.672,138.021c-0.751,2.646-3.405,3.997-5.967,3.445c-1.638-0.353-2.461-0.507-4.112-0.766
					c0.106-0.682,0.16-1.023,0.267-1.705c0.339,0.053,0.509,0.081,0.848,0.138c0.407-2.419,0.61-3.623,1.019-6.042
					c-0.366-0.062-0.549-0.093-0.916-0.15c0.108-0.687,0.162-1.031,0.27-1.718c1.865,0.293,2.795,0.465,4.645,0.863
					C-1632.509,132.757-1630.92,135.375-1631.672,138.021z M-1638.328,139.562c0.292,0.059,0.438,0.089,0.73,0.15
					c2.09,0.44,3.183-0.838,3.555-2.324c0.376-1.5-0.246-3.243-2.292-3.675c-0.315-0.066-0.474-0.1-0.79-0.163
					C-1637.607,135.954-1637.847,137.156-1638.328,139.562z"/>
				<path fill="#B69FCC" d="M-1626.706,134.57c1.735,0.58,2.597,0.893,4.306,1.569c-0.252,0.637-0.378,0.954-0.63,1.591
					c-0.368-0.146-0.552-0.219-0.921-0.359c-0.879,2.301-1.319,3.451-2.198,5.752c0.341,0.131,0.511,0.199,0.852,0.334
					c-0.25,0.631-0.375,0.947-0.625,1.578c-1.514-0.6-2.277-0.878-3.814-1.392c0.215-0.644,0.323-0.969,0.538-1.612
					c0.345,0.115,0.516,0.179,0.86,0.298c0.808-2.327,1.212-3.491,2.021-5.818c-0.372-0.129-0.556-0.195-0.929-0.32
					C-1627.03,135.541-1626.923,135.22-1626.706,134.57z"/>
			</g>
		</g>
	</g>
	<g>
		<path fill="#E9E9EA" d="M-1576.251,49.481c-0.893,0-1.756,0.117-2.586,0.318c-8.77-28.624-38.908-49.725-74.753-49.725
			s-65.983,21.101-74.753,49.725c-0.83-0.201-1.693-0.318-2.586-0.318c-6.074,0-11,4.925-11,11c0,6.074,4.926,11,11,11
			c0.068,0,0.133-0.009,0.199-0.01c2.715,33.828,36.201,49.416,77.14,49.416c40.938,0,74.425-15.588,77.14-49.416
			c0.066,0.001,0.131,0.01,0.199,0.01c6.074,0,11-4.926,11-11C-1565.251,54.406-1570.177,49.481-1576.251,49.481z"/>
		<path fill="none" stroke="#000000" stroke-width="3" stroke-linecap="round" stroke-miterlimit="10" d="M-1653.59,52.116
			c0,0,0.812,8.269,4.312,12.573l-4.312,3.555"/>
		<g>
			<path fill="#FFFFFF" d="M-1641.018,87.959c0,6.346-4.351,12.827-12.827,12.827s-12.318-7.812-12.318-12.917
				c2.218,2.538,6.267,4.654,12.506,4.654C-1647.652,92.523-1643.463,90.282-1641.018,87.959z"/>
			<path fill="none" stroke="#000000" stroke-width="3" stroke-linecap="round" stroke-miterlimit="10" d="M-1666.163,87.869
				c2.218,2.538,6.267,4.654,12.506,4.654c6.005,0,10.194-2.241,12.64-4.564"/>
			<path fill="none" stroke="#000000" stroke-width="3" stroke-linecap="round" stroke-miterlimit="10" d="M-1666.163,87.869
				c0,5.105,3.842,12.917,12.318,12.917s12.827-6.481,12.827-12.827"/>
		</g>
		<path fill="#E9E9EA" d="M-1576.45,71.471c0.066,0.001,0.131,0.011,0.199,0.011c6.074,0,11-4.926,11-11c0-6.076-4.926-11-11-11
			c-0.893,0-1.756,0.117-2.586,0.318l-5.525,12.45L-1576.45,71.471z"/>
		<path fill="#E9E9EA" d="M-1730.729,71.471c-0.066,0.001-0.131,0.011-0.199,0.011c-6.074,0-11-4.926-11-11c0-6.076,4.926-11,11-11
			c0.893,0,1.756,0.117,2.586,0.318l5.525,12.45L-1730.729,71.471z"/>
		<circle fill="#C4C4C3" cx="-1699.457" cy="83.848" r="9.595"/>
		<circle fill="#C4C4C3" cx="-1607.213" cy="83.848" r="9.595"/>
		<path fill="#604E75" d="M-1731.028,17.477c-22.223,21.149-24.334,70.333-6,91.667c18.334,21.333,2.333,36.333-8,38
			c-10.333,1.666-19.334-9.334-19.334-9.334c0.396,3.443,1.352,6.446,2.728,9.068c-2.298-1.246-4.663-2.779-5.65-4.242
			c0,0,4.06,8.138,10.563,10.582c1.052,0.96,2.184,1.832,3.389,2.613c-4.779,3.223-11.028,3.232-11.028,3.232
			c21.871,4.82,29.543,3.684,32.228,2.422c0.044,0.001,0.088,0.002,0.131,0.003c-6.029,5.187-15.043,5.575-15.043,5.575
			c15.602-0.252,24.275-3.078,29.048-5.824c-3.5,4.729-7.381,7.491-7.381,7.491c6.907-1.829,11.89-7.023,15.076-11.569
			c0.249-0.113,0.495-0.229,0.737-0.348c-1.121,7.074-2.813,8.917-2.813,8.917c7.493-7.067,11.745-14.213,14.116-19.517
			c1.328-2.516,2.225-5.242,2.737-8.047c0.056-0.271,0.08-0.419,0.08-0.419s-0.004,0.002-0.005,0.002
			c2.012-11.918-2.79-25.031-10.526-28.589c-11.635-5.352-33.218-30.908-22.365-59.361c9.969-26.136,31.093-24.861,41.511-29.656
			c10.137-4.667,17.804-17.667,17.804-17.667C-1682.695-12.19-1708.189-4.259-1731.028,17.477z"/>
		<path fill="#604E75" d="M-1611.743,144.286c-0.075,12.131,5.55,21.568,17.363,32.11c0,0-1.79-4.335,3.293-7.784
			c0.05,0.024,0.098,0.05,0.147,0.074c2.565,4.865,9.68,11.211,29.393,10.377c0,0-5.979-0.935-10.978-5.67
			c5.228,1.792,15.366,3.506,31.978-0.363c0,0-9.593,0.265-8.694-6.748c13.529-8.509,9.918-19.139,9.918-19.139s-4,8.999-16,8.999
			s-31.332-16.667-16.666-52.333s12.495-75.284-14.373-98c-17.742-15-44.627-27-74.627-17.334c0,0-24.965,11-16.982,23.334
			s22.943-1.666,44.315,0c12.527,0.977,45.949,10.863,55.192,37.99c8.352,24.51-6.813,49.141-15.473,54.742
			C-1600.826,109-1611.693,132.167-1611.743,144.286z"/>
		<path fill="none" stroke="#000000" stroke-width="3" stroke-linecap="round" stroke-miterlimit="10" d="M-1706.463,50.724
			c0,2.075,1.561,5.25,5.006,5.25s5.214-2.635,5.214-5.213"/>
		<path fill="none" stroke="#000000" stroke-width="3" stroke-linecap="round" stroke-miterlimit="10" d="M-1701.354,45.934
			c0,2.075,1.561,5.25,5.006,5.25c1.54,0,2.744-0.526,3.605-1.338"/>
		<path fill="none" stroke="#000000" stroke-width="3" stroke-linecap="round" stroke-miterlimit="10" d="M-1601.438,45.934
			c0,2.075-1.561,5.25-5.006,5.25c-1.539,0-2.744-0.526-3.605-1.338"/>
		<path fill="none" stroke="#000000" stroke-width="3" stroke-linecap="round" stroke-miterlimit="10" d="M-1606.625,50.724
			c0,2.075,1.561,5.25,5.006,5.25s5.214-2.635,5.214-5.213"/>
		<g>
			<circle cx="-1691.743" cy="53.448" r="7.5"/>
			<circle fill="#FFFFFF" cx="-1694.237" cy="51.405" r="3.03"/>
		</g>
		<g>
			<circle cx="-1611.243" cy="53.448" r="7.5"/>
			<circle fill="#FFFFFF" cx="-1613.737" cy="51.405" r="3.03"/>
		</g>
	</g>
</g>
<g>
	<path fill="#E9E9EA" d="M-69.231-86.598h2.438c5.939,0,10.799,4.86,10.799,10.8v32.733c0,5.939-4.859,10.799-10.799,10.799h-2.438
		V-86.598z"/>
	<path fill="#E9E9EA" d="M-148.14-86.598h-2.438c-5.939,0-10.8,4.86-10.8,10.8v32.733c0,5.939,4.86,10.799,10.8,10.799h2.438
		V-86.598z"/>
	<path fill="#5B5C5C" d="M-66.794-86.598h-2.438h-78.908h-2.438c-5.939,0-10.8,4.86-10.8,10.8v5.699h13.237V-15.6h78.908v-54.499
		h13.236v-5.699C-55.995-81.737-60.854-86.598-66.794-86.598z"/>
	<polygon fill="#B69FCC" points="-148.14,-15.6 -148.14,1.068 -148.14,40.734 -119.351,40.734 -119.351,1.068 -98.021,1.068 
		-98.021,40.734 -69.231,40.734 -69.231,1.068 -69.231,-15.6 	"/>
	<path d="M-133.745,55.129c7.95,0,14.395-6.443,14.395-14.395h-28.789C-148.14,48.686-141.694,55.129-133.745,55.129z"/>
	<path d="M-83.627,55.129c7.95,0,14.396-6.443,14.396-14.395h-28.79C-98.021,48.686-91.577,55.129-83.627,55.129z"/>
	<path fill="#B69FCC" d="M-133.745,26.34c-7.949,0-14.395,6.445-14.395,14.395h28.789C-119.351,32.785-125.795,26.34-133.745,26.34z
		"/>
	<path fill="#B69FCC" d="M-83.627,26.34c-7.95,0-14.395,6.445-14.395,14.395h28.79C-69.231,32.785-75.677,26.34-83.627,26.34z"/>
	<text transform="matrix(1 0 0 1 -127.0098 -54.5977)" fill="#FFFFFF" font-family="'Cubano-Regular'" font-size="25.3327">IUP</text>
	<g>
		<path fill="#E9E9EA" d="M-31.651-149.979c-0.893,0-1.755,0.118-2.586,0.318c-8.769-28.624-38.907-49.725-74.752-49.725
			c-35.846,0-65.984,21.101-74.753,49.725c-0.831-0.201-1.693-0.318-2.586-0.318c-6.075,0-11,4.925-11,11c0,6.075,4.925,11,11,11
			c0.067,0,0.132-0.009,0.199-0.01c2.714,33.829,36.201,49.417,77.14,49.417c40.938,0,74.425-15.588,77.139-49.417
			c0.067,0.001,0.132,0.01,0.199,0.01c6.075,0,11-4.925,11-11C-20.651-145.055-25.576-149.979-31.651-149.979z"/>
		<g>
			<circle cx="-149.731" cy="-142.271" r="7.5"/>
			<circle fill="#FFFFFF" cx="-152.226" cy="-144.314" r="3.03"/>
		</g>
		<g>
			<circle cx="-69.231" cy="-142.271" r="7.5"/>
			<circle fill="#FFFFFF" cx="-71.726" cy="-144.314" r="3.03"/>
		</g>
		<path fill="none" stroke="#000000" stroke-width="3" stroke-linecap="round" stroke-miterlimit="10" d="M-108.989-147.344
			c0,0,0.811,8.268,4.311,12.573l-4.311,3.555"/>
		<polyline fill="none" stroke="#000000" stroke-width="3" stroke-linecap="round" stroke-miterlimit="10" points="
			-139.459,-107.43 -119.959,-115.43 -110.459,-105.93 -94.209,-108.68 -74.209,-104.68 		"/>
		<path fill="#B69FCC" d="M-52.198-183.791c4.996-0.186,8.113,0.749,8.113,0.749l-15.553-7.126c2.65-2.747,5.841-3.124,5.841-3.124
			h-11.794c-8.636-4.534-22.997-9.039-39.662-9.562c-11.713-0.368-24.909,1.739-36.254,5.403c-9.66-1.631-13.749-7.341-13.749-7.341
			c0.601,4.374,0.153,7.658-0.63,10.056c-1.809,0.167-4.194,0.563-6.949,1.444c0,0,2.784,0.495,5.567,1.577
			c-1.049,1.701-2.063,2.43-2.063,2.43h0.001c-2.268,1.502-4.22,3.087-5.766,4.734c-10.324,11.001-19.127,25.778-18.647,34.889
			c0,0,2.813,3.335,2.813,7.39h5.5c0,0,0.5-26.445,16-36.445c0,0,7.5-0.833,10.166,4.833c0,0,4.228-3.333,2.031-6.5
			c0,0,24.428-4.833,39.928,10.792c0,0,3.125-5.542,0.875-7.542c0,0,16.125,0.667,22.375,7.917c0,0,0.875-2.417,0-5
			c-0.445-1.313,23.625-1.875,29.75,7.25c0,0,0.667-8.583-5.791-12.917c19.666,12.667,17.666,37.612,17.666,37.612h5.333
			c0.166-4.055,2.858-7.39,2.858-7.39C-35.696-166.878-44.563-177.274-52.198-183.791z"/>
		<path fill="none" stroke="#000000" stroke-width="2" stroke-linecap="round" stroke-miterlimit="10" d="M-160.335-137.047
			c0,0-0.194,7.785,10.109,7.266"/>
		<path fill="none" stroke="#000000" stroke-width="2" stroke-linecap="round" stroke-miterlimit="10" d="M-68.916-130.729
			c0,0,6.94,3.533,10.915-5.987"/>
	</g>
</g>
<g>
	<rect x="4.082" y="4.748" fill="#564868" width="101.667" height="21.592"/>
	<polygon fill="#443756" points="140.721,44.334 105.749,26.34 105.749,4.748 140.721,22.742 	"/>
</g>
<g>
	<polygon fill="#443756" points="-376.3,-52.1 -411.271,-70.094 -411.271,-91.686 -376.3,-73.691 	"/>
	<g>
		<rect x="-376.605" y="-73.691" fill="#6A5B7C" width="101.667" height="21.592"/>
		<g>
			<path fill="#B69FCC" d="M-370.978-67.268c2.468,0,3.281,0.998,3.281,3.15v2.873c0,2.152-0.813,3.164-3.281,3.164h-2.927
				c-0.249,0-0.394-0.145-0.394-0.395v-8.385c0-0.264,0.132-0.395,0.394-0.408H-370.978z M-370.938-60.338
				c0.631,0,0.945-0.105,0.945-0.893c0-0.014,0-2.873,0-2.887c0-0.814-0.314-0.893-0.945-0.893h-0.708
				c-0.249,0-0.395,0.131-0.395,0.395v3.883c0,0.25,0.146,0.395,0.395,0.395H-370.938z"/>
			<path fill="#B69FCC" d="M-360.055-61.033c0,0.865-0.183,3.189-3.293,3.189s-3.295-2.324-3.295-3.189v-3.281
				c0-0.865,0.185-3.189,3.295-3.189s3.293,2.324,3.293,3.189V-61.033z M-362.312-63.619c0-1.01-0.064-1.627-1.036-1.627
				s-1.037,0.617-1.037,1.627v1.891c0,1.01,0.065,1.627,1.037,1.627s1.036-0.617,1.036-1.627V-63.619z"/>
			<path fill="#B69FCC" d="M-359.001-64.314c0-0.865,0.185-3.189,3.295-3.189c2.796,0,3.229,1.877,3.28,2.889
				c0.013,0.184-0.104,0.328-0.288,0.367l-1.457,0.328c-0.275,0.053-0.486-0.133-0.524-0.408c-0.066-0.576-0.303-0.918-1.011-0.918
				c-0.972,0-1.037,0.617-1.037,1.627v1.891c0,1.01,0.065,1.627,1.037,1.627c0.722,0,0.919-0.342,0.997-0.945
				c0.039-0.275,0.25-0.445,0.512-0.381l1.483,0.328c0.184,0.039,0.301,0.184,0.288,0.381c-0.052,0.998-0.484,2.875-3.28,2.875
				c-3.11,0-3.295-2.324-3.295-3.189V-64.314z"/>
			<path fill="#B69FCC" d="M-349.416-64.615c0-0.264-0.132-0.395-0.394-0.395h-1.838c-0.249,0-0.394-0.145-0.394-0.395v-1.469
				c0-0.264,0.145-0.395,0.394-0.395h6.72c0.263,0,0.394,0.131,0.394,0.395v1.469c0,0.25-0.131,0.395-0.394,0.395h-1.837
				c-0.249,0-0.395,0.131-0.395,0.395v6.141c0,0.25-0.131,0.395-0.394,0.395h-1.471c-0.249,0-0.393-0.145-0.393-0.395V-64.615z"/>
			<path fill="#B69FCC" d="M-337.417-61.033c0,0.865-0.183,3.189-3.293,3.189c-3.111,0-3.295-2.324-3.295-3.189v-3.281
				c0-0.865,0.184-3.189,3.295-3.189c3.11,0,3.293,2.324,3.293,3.189V-61.033z M-339.674-63.619c0-1.01-0.065-1.627-1.036-1.627
				c-0.972,0-1.037,0.617-1.037,1.627v1.891c0,1.01,0.065,1.627,1.037,1.627c0.971,0,1.036-0.617,1.036-1.627V-63.619z"/>
			<path fill="#B69FCC" d="M-329.315-58.789c0.184,0.342-0.025,0.709-0.433,0.709h-1.496c-0.132,0-0.249-0.066-0.303-0.184
				l-1.364-2.639c-0.026-0.039-0.065-0.066-0.105-0.066h-0.524c-0.236,0-0.407,0.172-0.407,0.408v2.072
				c0,0.236-0.171,0.408-0.407,0.408h-1.469c-0.236,0-0.407-0.172-0.407-0.408v-8.371c0-0.236,0.171-0.408,0.407-0.408h2.873
				c2.336,0,3.282,0.998,3.282,3.15c0,1.221-0.303,2.074-0.998,2.572c-0.053,0.039-0.065,0.105-0.04,0.17L-329.315-58.789z
				 M-333.541-65.01c-0.236,0-0.407,0.17-0.407,0.406v0.971c0,0.236,0.171,0.408,0.407,0.408h0.669c0.631,0,0.944-0.08,0.944-0.893
				c0-0.814-0.313-0.893-0.944-0.893H-333.541z"/>
			<path fill="#B69FCC" d="M-322.08-58.527c0,0.289-0.13,0.447-0.394,0.447h-1.469c-0.25,0-0.395-0.131-0.395-0.395v-1.141
				c0-0.264-0.132-0.395-0.394-0.395h-1.129c-0.249,0-0.394,0.131-0.394,0.395v1.141c0,0.264-0.132,0.395-0.394,0.395h-1.47
				c-0.249,0-0.394-0.158-0.394-0.447v-5.564c0-1.652,0.262-3.412,3.216-3.412c2.952,0,3.214,1.76,3.214,3.412V-58.527z
				 M-324.337-64.092c0-0.629-0.092-0.943-0.957-0.943c-0.867,0-0.959,0.314-0.959,0.943v1.432c0,0.248,0.145,0.393,0.394,0.393
				h1.129c0.262-0.012,0.394-0.145,0.394-0.406V-64.092z"/>
			<path fill="#B69FCC" d="M-318.965-67.268c0.263,0,0.393,0.131,0.393,0.395v6.141c0,0.25,0.146,0.395,0.395,0.395h2.927
				c0.262,0,0.394,0.131,0.394,0.395v1.469c0,0.264-0.132,0.395-0.394,0.395h-5.185c-0.249,0-0.394-0.145-0.394-0.395v-8.398
				c0-0.264,0.145-0.395,0.394-0.395H-318.965z"/>
			<path fill="#B69FCC" d="M-310.573-66.834c-0.053-0.275,0.079-0.434,0.354-0.434h1.562c0.236,0,0.407,0.119,0.433,0.342
				l0.748,5.473c0.026,0.131,0.132,0.131,0.158,0l0.88-5.473c0.038-0.223,0.196-0.342,0.433-0.342h1.128
				c0.236,0,0.394,0.119,0.434,0.342l0.879,5.473c0.027,0.131,0.132,0.131,0.157,0l0.749-5.473c0.025-0.223,0.196-0.342,0.433-0.342
				h1.562c0.275,0,0.407,0.158,0.354,0.434l-1.614,8.412c-0.04,0.223-0.197,0.342-0.433,0.342h-1.852
				c-0.235,0-0.38-0.119-0.433-0.342l-0.721-3.229c-0.027-0.131-0.132-0.131-0.158,0l-0.722,3.229
				c-0.053,0.223-0.196,0.342-0.434,0.342h-1.85c-0.236,0-0.395-0.119-0.434-0.342L-310.573-66.834z"/>
			<path fill="#B69FCC" d="M-293.009-61.033c0,0.865-0.184,3.189-3.293,3.189c-3.111,0-3.295-2.324-3.295-3.189v-3.281
				c0-0.865,0.184-3.189,3.295-3.189c3.109,0,3.293,2.324,3.293,3.189V-61.033z M-295.266-63.619c0-1.01-0.065-1.627-1.036-1.627
				c-0.972,0-1.037,0.617-1.037,1.627v1.891c0,1.01,0.065,1.627,1.037,1.627c0.971,0,1.036-0.617,1.036-1.627V-63.619z"/>
			<path fill="#B69FCC" d="M-284.906-58.789c0.184,0.342-0.025,0.709-0.433,0.709h-1.496c-0.132,0-0.249-0.066-0.303-0.184
				l-1.364-2.639c-0.025-0.039-0.065-0.066-0.104-0.066h-0.525c-0.236,0-0.407,0.172-0.407,0.408v2.072
				c0,0.236-0.171,0.408-0.407,0.408h-1.469c-0.236,0-0.407-0.172-0.407-0.408v-8.371c0-0.236,0.171-0.408,0.407-0.408h2.873
				c2.336,0,3.282,0.998,3.282,3.15c0,1.221-0.303,2.074-0.998,2.572c-0.053,0.039-0.065,0.105-0.04,0.17L-284.906-58.789z
				 M-289.132-65.01c-0.236,0-0.407,0.17-0.407,0.406v0.971c0,0.236,0.171,0.408,0.407,0.408h0.669c0.631,0,0.945-0.08,0.945-0.893
				c0-0.814-0.314-0.893-0.945-0.893H-289.132z"/>
			<path fill="#B69FCC" d="M-276.661-58.553c0.185,0.264,0.066,0.473-0.249,0.473h-1.968c-0.211,0-0.355-0.08-0.474-0.264
				l-1.626-2.492c-0.054-0.08-0.132-0.08-0.185,0l-0.538,0.734c-0.04,0.053-0.053,0.105-0.053,0.17v1.457
				c0,0.25-0.131,0.395-0.393,0.395h-1.498c-0.248,0-0.393-0.145-0.393-0.395v-8.398c0-0.264,0.145-0.395,0.393-0.395h1.498
				c0.262,0,0.393,0.131,0.393,0.395v2.637c0,0.133,0.092,0.158,0.157,0.053l2.062-2.834c0.117-0.17,0.262-0.25,0.473-0.25h1.941
				c0.328,0,0.434,0.211,0.25,0.486l-2.651,3.648c-0.04,0.064-0.053,0.117,0,0.184L-276.661-58.553z"/>
		</g>
	</g>
</g>
<g>
	<polygon fill="#9F8BB7" points="128.649,-82.958 45.037,-82.958 10.415,-100.849 94.027,-100.849 	"/>
	<polygon fill="#E9E9EA" points="48.037,-82.958 15.04,-100.052 15.04,-115.385 48.037,-98.292 	"/>
	<polygon fill="#9F8BB7" points="128.649,-98.292 45.037,-98.292 10.415,-116.182 94.027,-116.182 	"/>
	<rect x="45.037" y="-98.292" fill="#B69FCC" width="83.612" height="15.334"/>
</g>
<polygon fill="#E9E9EA" points="137.385,-96.038 47.293,-98.245 10.461,-118.436 100.553,-116.229 "/>
<g>
	<polygon fill="#4A494A" points="119.481,-101.54 45.771,-101.54 15.249,-117.313 88.96,-117.313 	"/>
	<polygon fill="#E9E9EA" points="48.416,-101.54 19.326,-116.61 19.326,-130.127 48.416,-115.057 	"/>
	<polygon fill="#4A494A" points="119.481,-115.057 45.771,-115.057 15.249,-130.83 88.96,-130.83 	"/>
	<rect x="45.771" y="-115.057" fill="#5B5C5C" width="73.711" height="13.518"/>
</g>
<g>
	<polygon fill="#D6D6D6" points="131.649,-115.073 48.037,-115.073 13.415,-132.963 97.027,-132.963 	"/>
	<polygon fill="#E0E0E0" points="131.649,-128.573 48.037,-128.573 13.415,-146.463 97.027,-146.463 	"/>
	<rect x="48.037" y="-128.573" fill="#E9E9EA" width="83.612" height="13.5"/>
	<polygon fill="#E9E9EA" points="48.037,-115.073 13.415,-132.963 13.415,-146.463 48.037,-128.573 	"/>
	<polygon fill="#C1C1C0" points="48.037,-122.887 123.037,-122.649 48.037,-122.411 	"/>
	<polygon fill="#C1C1C0" points="48.037,-122.411 28.721,-131.732 48.037,-122.887 	"/>
	<polygon fill="#C1C1C0" points="131.639,-124.448 56.639,-124.686 131.639,-124.924 	"/>
	<polygon fill="#C1C1C0" points="48.037,-119.256 88.115,-119.018 48.037,-118.78 	"/>
	<polygon fill="#C1C1C0" points="48.037,-118.78 20.365,-132.482 48.037,-119.256 	"/>
	<polygon fill="#C1C1C0" points="131.639,-117.709 81.365,-117.948 131.639,-118.186 	"/>
	<polygon fill="#C1C1C0" points="48.037,-127.666 103.115,-127.427 48.037,-127.189 	"/>
	<polygon fill="#C1C1C0" points="48.037,-127.189 15.615,-142.857 48.037,-127.666 	"/>
</g>
<g>
	<polygon fill="#403254" points="133.04,-133.09 49.428,-133.09 14.806,-150.981 98.418,-150.981 	"/>
	<polygon fill="#E9E9EA" points="52.428,-133.09 19.431,-150.184 19.431,-165.517 52.428,-148.423 	"/>
	<polygon fill="#403254" points="133.04,-148.423 49.428,-148.423 14.806,-166.314 98.418,-166.314 	"/>
	<rect x="49.428" y="-148.423" fill="#604E75" width="83.612" height="15.333"/>
</g>
<g>
	<polygon fill="#9F8BB7" points="130.325,-151.701 46.713,-151.701 12.091,-169.592 95.703,-169.592 	"/>
	<polygon fill="#E9E9EA" points="49.713,-151.701 16.716,-168.795 16.716,-184.128 49.713,-167.034 	"/>
	<polygon fill="#9F8BB7" points="130.325,-167.034 46.713,-167.034 12.091,-184.925 95.703,-184.925 	"/>
	<rect x="46.713" y="-167.034" fill="#B69FCC" width="83.612" height="15.333"/>
</g>
<polygon fill="#E9E9EA" points="139.061,-164.781 48.969,-166.988 12.137,-187.179 102.229,-184.972 "/>
<g>
	<polygon fill="#4A494A" points="121.157,-170.283 47.446,-170.283 16.925,-186.056 90.636,-186.056 	"/>
	<polygon fill="#E9E9EA" points="50.092,-170.283 21.002,-185.353 21.002,-198.87 50.092,-183.8 	"/>
	<polygon fill="#4A494A" points="121.157,-183.8 47.446,-183.8 16.925,-199.573 90.636,-199.573 	"/>
	<rect x="47.446" y="-183.8" fill="#5B5C5C" width="73.711" height="13.517"/>
</g>
<g>
	<polygon fill="#D6D6D6" points="133.325,-183.815 49.713,-183.815 15.091,-201.707 98.703,-201.707 	"/>
	<polygon fill="#E0E0E0" points="133.325,-197.315 49.713,-197.315 15.091,-215.207 98.703,-215.207 	"/>
	<rect x="49.713" y="-197.315" fill="#E9E9EA" width="83.612" height="13.5"/>
	<polygon fill="#E9E9EA" points="49.713,-183.815 15.091,-201.707 15.091,-215.207 49.713,-197.315 	"/>
	<polygon fill="#C1C1C0" points="49.713,-191.63 124.713,-191.392 49.713,-191.153 	"/>
	<polygon fill="#C1C1C0" points="49.713,-191.153 30.396,-200.475 49.713,-191.63 	"/>
	<polygon fill="#C1C1C0" points="133.314,-193.19 58.314,-193.429 133.314,-193.667 	"/>
	<polygon fill="#C1C1C0" points="49.713,-188 89.791,-187.761 49.713,-187.523 	"/>
	<polygon fill="#C1C1C0" points="49.713,-187.523 22.041,-201.225 49.713,-188 	"/>
	<polygon fill="#C1C1C0" points="133.314,-186.453 83.041,-186.691 133.314,-186.929 	"/>
	<polygon fill="#C1C1C0" points="49.713,-196.409 104.791,-196.17 49.713,-195.932 	"/>
	<polygon fill="#C1C1C0" points="49.713,-195.932 17.291,-211.6 49.713,-196.409 	"/>
</g>
<g>
	<polygon fill="#403254" points="134.716,-201.833 51.104,-201.833 16.481,-219.724 100.094,-219.724 	"/>
	<polygon fill="#E9E9EA" points="54.104,-201.833 21.106,-218.927 21.106,-234.26 54.104,-217.166 	"/>
	<polygon fill="#403254" points="134.716,-217.166 51.104,-217.166 16.481,-235.057 100.094,-235.057 	"/>
	<rect x="51.104" y="-217.166" fill="#604E75" width="83.612" height="15.333"/>
</g>
<g>
	<polygon fill="#D6D6D6" points="134.716,-219.362 51.104,-219.362 16.481,-237.253 100.094,-237.253 	"/>
	<polygon fill="#E0E0E0" points="134.716,-232.862 51.104,-232.862 16.481,-250.753 100.094,-250.753 	"/>
	<rect x="51.104" y="-232.862" fill="#E9E9EA" width="83.612" height="13.5"/>
	<polygon fill="#E9E9EA" points="51.104,-219.362 16.481,-237.253 16.481,-250.753 51.104,-232.862 	"/>
	<polygon fill="#C1C1C0" points="51.104,-227.176 126.104,-226.938 51.104,-226.7 	"/>
	<polygon fill="#C1C1C0" points="51.104,-226.7 31.787,-236.021 51.104,-227.176 	"/>
	<polygon fill="#C1C1C0" points="134.705,-228.737 59.705,-228.975 134.705,-229.213 	"/>
	<polygon fill="#C1C1C0" points="51.104,-223.546 91.182,-223.308 51.104,-223.069 	"/>
	<polygon fill="#C1C1C0" points="51.104,-223.069 23.432,-236.771 51.104,-223.546 	"/>
	<polygon fill="#C1C1C0" points="134.705,-221.999 84.432,-222.237 134.705,-222.476 	"/>
	<polygon fill="#C1C1C0" points="51.104,-231.955 106.182,-231.717 51.104,-231.479 	"/>
	<polygon fill="#C1C1C0" points="51.104,-231.479 18.682,-247.146 51.104,-231.955 	"/>
</g>
<g>
	<g>
		<path fill="#E9E9EA" d="M-842.436-129.921h2.438c5.939,0,10.799,4.86,10.799,10.8v32.733c0,5.939-4.859,10.8-10.799,10.8h-2.438
			V-129.921z"/>
		<path fill="#E9E9EA" d="M-921.344-129.921h-2.438c-5.939,0-10.801,4.86-10.801,10.8v32.733c0,5.939,4.861,10.8,10.801,10.8h2.438
			V-129.921z"/>
		<path fill="#333333" d="M-839.998-129.921h-2.438h-78.908h-2.438c-5.939,0-10.801,4.86-10.801,10.8v5.699h13.238v54.5h78.908
			v-54.5h13.236v-5.699C-829.199-125.061-834.059-129.921-839.998-129.921z"/>
		<polygon fill="#B69FCC" points="-921.344,-58.921 -921.344,-42.256 -921.344,-2.588 -892.555,-2.588 -892.555,-42.256 
			-871.227,-42.256 -871.227,-2.588 -842.436,-2.588 -842.436,-42.256 -842.436,-58.921 		"/>
		<path d="M-906.949,11.807c7.949,0,14.395-6.445,14.395-14.395h-28.789C-921.344,5.361-914.898,11.807-906.949,11.807z"/>
		<path d="M-856.832,11.807c7.951,0,14.396-6.445,14.396-14.395h-28.791C-871.227,5.361-864.781,11.807-856.832,11.807z"/>
		<path fill="#B69FCC" d="M-906.949-16.982c-7.949,0-14.395,6.443-14.395,14.395h28.789C-892.555-10.539-899-16.982-906.949-16.982z
			"/>
		<path fill="#B69FCC" d="M-856.832-16.982c-7.949,0-14.395,6.443-14.395,14.395h28.791
			C-842.436-10.539-848.881-16.982-856.832-16.982z"/>
		<g>
			<g>
				<path fill="#604E75" d="M-900.848-111.06c0.692-0.213,1.112-0.07,1.254,0.418c1.804,6.229,2.703,9.343,4.508,15.572
					c0.134,0.461-0.036,0.801-0.54,0.956c-1.107,0.341-1.656,0.529-2.746,0.939c-0.471,0.177-0.846,0.026-1.022-0.42
					c-2.388-6.03-3.583-9.044-5.97-15.074c-0.187-0.472,0.094-0.855,0.741-1.099C-903.125-110.332-902.37-110.591-900.848-111.06z"
					/>
				<path fill="#604E75" d="M-891.508-113.196c0.71-0.108,1.1,0.097,1.168,0.6c0.533,3.935,0.799,5.902,1.332,9.837
					c0.262,1.934,0.561,3.052,2.64,2.863s2.163-1.344,2.07-3.293c-0.188-3.967-0.284-5.95-0.472-9.917
					c-0.024-0.507,0.359-0.78,1.04-0.801c1.604-0.05,2.407-0.049,4.011,0c0.716,0.022,1.063,0.294,1.039,0.802
					c-0.215,4.504-0.323,6.755-0.536,11.259c-0.079,1.67-0.667,5.734-6.759,6.288c-6.091,0.554-7.427-3.328-7.808-4.956
					c-1.027-4.391-1.54-6.586-2.567-10.977c-0.115-0.495,0.214-0.831,0.883-0.976C-893.89-112.808-893.099-112.954-891.508-113.196z
					"/>
				<path fill="#604E75" d="M-866.433-112.113c6.238,1.511,7.92,4.528,6.391,8.391s-4.181,4.655-9.252,3.427
					c-0.547-0.132-0.82-0.196-1.37-0.314c-0.543-0.116-0.908,0.071-1.006,0.569c-0.313,1.591-0.47,2.388-0.783,3.979
					c-0.098,0.497-0.405,0.693-0.92,0.601c-1.153-0.207-1.732-0.293-2.893-0.428c-0.492-0.057-0.746-0.362-0.698-0.84
					c0.642-6.443,0.958-9.664,1.601-16.107c0.051-0.505,0.432-0.724,1.147-0.667C-871.081-113.139-869.517-112.86-866.433-112.113z
					 M-868.084-104.485c1.479,0.363,2.254,0.444,2.689-1.065s-0.297-1.896-1.865-2.282c-0.706-0.173-1.062-0.255-1.771-0.407
					c-0.624-0.134-1.037,0.047-1.135,0.543c-0.148,0.756-0.223,1.134-0.371,1.89c-0.093,0.472,0.196,0.812,0.784,0.938
					C-869.084-104.725-868.75-104.649-868.084-104.485z"/>
			</g>
		</g>
	</g>
	<path fill="#E9E9EA" d="M-956.947-193.234c-0.83-0.201-1.693-0.318-2.586-0.318c-6.074,0-11,4.925-11,11c0,6.075,4.926,11,11,11
		c0.068,0,0.133-0.009,0.199-0.01c2.715,33.829,36.201,49.417,77.141,49.417c40.938,0,74.424-15.588,77.139-49.417
		c0.066,0.001,0.131,0.01,0.199,0.01c6.074,0,11-4.925,11-11c0-6.075-4.926-11-11-11c-0.893,0-1.756,0.118-2.586,0.318
		c-6.889-22.486-26.969-40.323-52.639-46.942h-44.228C-929.979-233.558-950.059-215.721-956.947-193.234z"/>
	<path fill="none" stroke="#000000" stroke-width="3" stroke-linecap="round" stroke-miterlimit="10" d="M-937.656-188.569
		c0,2.075,1.561,5.25,5.006,5.25s5.215-2.635,5.215-5.213"/>
	<path fill="none" stroke="#000000" stroke-width="3" stroke-linecap="round" stroke-miterlimit="10" d="M-932.547-193.359
		c0,2.075,1.561,5.25,5.006,5.25c1.541,0,2.744-0.526,3.605-1.338"/>
	<path fill="none" stroke="#000000" stroke-width="3" stroke-linecap="round" stroke-miterlimit="10" d="M-832.631-193.359
		c0,2.075-1.561,5.25-5.006,5.25c-1.539,0-2.744-0.526-3.605-1.338"/>
	<path fill="none" stroke="#000000" stroke-width="3" stroke-linecap="round" stroke-miterlimit="10" d="M-837.818-188.569
		c0,2.075,1.561,5.25,5.006,5.25s5.215-2.635,5.215-5.213"/>
	<g>
		<circle cx="-922.936" cy="-185.845" r="7.5"/>
		<circle fill="#FFFFFF" cx="-925.431" cy="-187.888" r="3.03"/>
	</g>
	<g>
		<circle cx="-842.436" cy="-185.845" r="7.5"/>
		<circle fill="#FFFFFF" cx="-844.931" cy="-187.888" r="3.03"/>
	</g>
	<path fill="none" stroke="#000000" stroke-width="3" stroke-linecap="round" stroke-miterlimit="10" d="M-882.193-190.917
		c0,0,0.811,8.268,4.311,12.573l-4.311,3.555"/>
	<path fill="none" stroke="#000000" stroke-width="3" stroke-linecap="round" stroke-miterlimit="10" d="M-894.463-168.082
		c0,5.106,3.842,12.917,12.318,12.917s12.828-6.482,12.828-12.827"/>
	<path fill="#4E4060" d="M-906.576-231.225c7.982,12.333,22.943-1.667,44.316,0c12.527,0.977,45.949,10.863,55.191,37.99
		c8.352,24.51-6.813,49.14-15.473,54.742c-8.66,5.604-22.547,31.751-16.387,45.648c6.162,13.897,28.668,28.954,52.334,20.286
		c23.666-8.667,18.666-23.333,18.666-23.333s-4,8.999-16,8.999s-31.332-16.667-16.666-52.333c14.666-35.667,12.496-75.284-14.373-98
		c-1.183-1-2.408-1.984-3.67-2.952h-88.603C-908.502-237.382-908.597-234.347-906.576-231.225z"/>
	<path fill="#E9E9EA" d="M-805.055-171.563c0.066,0.001,0.131,0.01,0.199,0.01c6.074,0,11-4.925,11-11c0-6.075-4.926-11-11-11
		c-0.893,0-1.756,0.118-2.586,0.318l-5.525,12.451L-805.055-171.563z"/>
	<path fill="#4E4060" d="M-959.633-225.558c-22.223,21.149-24.334,70.333-6,91.667c18.334,21.333,2.334,36.333-8,38
		c-10.332,1.666-19.334-9.334-19.334-9.334c3.334,29,45.334,27.667,60.186,15.667s9.834-38.966-1.801-44.315
		c-11.635-5.352-33.217-30.908-22.365-59.361c9.969-26.136,31.094-24.861,41.512-29.657c9.113-4.195,16.226-15.12,17.57-17.285
		h-42.608C-946.86-236.469-953.347-231.54-959.633-225.558z"/>
	<path fill="#E9E9EA" d="M-959.332-171.563c-0.066,0.001-0.131,0.01-0.199,0.01c-6.074,0-11-4.925-11-11c0-6.075,4.926-11,11-11
		c0.893,0,1.756,0.118,2.586,0.318l5.525,12.451L-959.332-171.563z"/>
	<circle fill="#C4C4C3" cx="-928.062" cy="-159.187" r="9.595"/>
	<circle fill="#C4C4C3" cx="-835.817" cy="-159.187" r="9.595"/>
	<g>
		<path fill="#604E75" d="M-684.199-70.605c-1.192-14.58-16.694-48.279-35.773-48.279c-7.009,0-13.215,1.173-18.27,2.657
			l-44.327-96.634c-6.891-15.023-26.052-27.314-42.58-27.314h-156.928c-16.528,0-35.689,12.291-42.58,27.314l-44.327,96.634
			c-5.055-1.484-11.261-2.657-18.27-2.657c-19.079,0-34.582,33.699-35.774,48.279c-1.192,14.583,0,71.81,0,71.81
			c0,11.936,3.578,25.053,22.657,39.362c19.08,14.311,116.862,31.578,196.758,31.578v0.001c79.896,0,177.678-17.269,196.758-31.579
			c19.079-14.31,22.656-27.427,22.656-39.361C-684.199,1.204-683.007-56.023-684.199-70.605z M-903.613-127.573
			c-54.851,0-151.376,17.373-151.389,17.375l41.155-89.716c6.891-15.023,26.052-27.314,42.579-27.314h135.309
			c16.527,0,35.688,12.291,42.579,27.314l41.155,89.717C-752.225-110.197-848.76-127.572-903.613-127.573z"/>
		<g>
			<circle fill="#E9E9EA" cx="-1084.869" cy="-77.264" r="22.458"/>
			<circle fill="#E9E9EA" cx="-722.357" cy="-77.264" r="22.459"/>
			<circle fill="#E9E9EA" cx="-1084.868" cy="-21.254" r="10.685"/>
			<circle fill="#E9E9EA" cx="-722.357" cy="-21.254" r="10.685"/>
			<path fill="#E9E9EA" d="M-838.425,37.784c0-5.982-4.85-10.833-10.832-10.833H-957.97c-5.982,0-10.832,4.851-10.832,10.833l0,0
				c0,5.981,4.85,10.832,10.832,10.832h108.713C-843.274,48.616-838.425,43.766-838.425,37.784L-838.425,37.784z"/>
			<path fill="#E9E9EA" d="M-901.526-84.645c0-3.512-1.958-6.359-4.373-6.359l0,0c-2.415,0-4.373,2.847-4.373,6.359v54.508
				c0,3.514,1.958,6.36,4.373,6.36l0,0c2.415,0,4.373-2.847,4.373-6.36V-84.645z"/>
			<path fill="#E9E9EA" d="M-883.427-83.355c0-3.346-1.957-6.058-4.372-6.058l0,0c-2.415,0-4.373,2.712-4.373,6.058v51.93
				c0,3.347,1.958,6.059,4.373,6.059l0,0c2.415,0,4.372-2.712,4.372-6.059V-83.355z"/>
			<path fill="#E9E9EA" d="M-865.326-82.227c0-3.2-1.958-5.795-4.373-5.795l0,0c-2.415,0-4.372,2.595-4.372,5.795v49.672
				c0,3.201,1.957,5.796,4.372,5.796l0,0c2.415,0,4.373-2.595,4.373-5.796V-82.227z"/>
			<path fill="#E9E9EA" d="M-847.226-80.615c0-2.992-1.958-5.42-4.373-5.42l0,0c-2.415,0-4.373,2.428-4.373,5.42v46.449
				c0,2.994,1.958,5.42,4.373,5.42l0,0c2.415,0,4.373-2.426,4.373-5.42V-80.615z"/>
			<path fill="#E9E9EA" d="M-829.127-78.656c0-2.74-1.958-4.963-4.373-4.963l0,0c-2.415,0-4.373,2.223-4.373,4.963v42.531
				c0,2.742,1.958,4.962,4.373,4.962l0,0c2.415,0,4.373-2.22,4.373-4.962V-78.656z"/>
			<path fill="#E9E9EA" d="M-811.027-76.4c0-2.449-1.957-4.436-4.372-4.436l0,0c-2.415,0-4.373,1.986-4.373,4.436v38.02
				c0,2.451,1.958,4.436,4.373,4.436l0,0c2.415,0,4.372-1.984,4.372-4.436V-76.4z"/>
			<path fill="#E9E9EA" d="M-792.927-73.017c0-2.013-1.958-3.646-4.373-3.646l0,0c-2.415,0-4.372,1.634-4.372,3.646v31.252
				c0,2.014,1.957,3.646,4.372,3.646l0,0c2.415,0,4.373-1.632,4.373-3.646V-73.017z"/>
			<path fill="#E9E9EA" d="M-774.826-69.149c0-1.515-1.958-2.743-4.373-2.743l0,0c-2.415,0-4.373,1.229-4.373,2.743v23.518
				c0,1.515,1.958,2.743,4.373,2.743l0,0c2.415,0,4.373-1.229,4.373-2.743V-69.149z"/>
			<path fill="#E9E9EA" d="M-919.627-83.355c0-3.346-1.957-6.058-4.372-6.058l0,0c-2.416,0-4.373,2.712-4.373,6.058v51.93
				c0,3.347,1.957,6.059,4.373,6.059l0,0c2.415,0,4.372-2.712,4.372-6.059V-83.355z"/>
			<path fill="#E9E9EA" d="M-937.727-82.227c0-3.2-1.958-5.795-4.373-5.795l0,0c-2.415,0-4.373,2.595-4.373,5.795v49.672
				c0,3.201,1.958,5.796,4.373,5.796l0,0c2.415,0,4.373-2.595,4.373-5.796V-82.227z"/>
			<path fill="#E9E9EA" d="M-955.827-80.615c0-2.992-1.957-5.42-4.372-5.42l0,0c-2.416,0-4.373,2.428-4.373,5.42v46.449
				c0,2.994,1.957,5.42,4.373,5.42l0,0c2.415,0,4.372-2.426,4.372-5.42V-80.615z"/>
			<path fill="#E9E9EA" d="M-973.926-78.656c0-2.74-1.958-4.963-4.373-4.963l0,0c-2.415,0-4.373,2.223-4.373,4.963v42.531
				c0,2.742,1.958,4.962,4.373,4.962l0,0c2.415,0,4.373-2.22,4.373-4.962V-78.656z"/>
			<path fill="#E9E9EA" d="M-992.026-76.4c0-2.449-1.957-4.436-4.372-4.436l0,0c-2.416,0-4.373,1.986-4.373,4.436v38.02
				c0,2.451,1.957,4.436,4.373,4.436l0,0c2.415,0,4.372-1.984,4.372-4.436V-76.4z"/>
			<path fill="#E9E9EA" d="M-1010.126-73.017c0-2.013-1.958-3.646-4.373-3.646l0,0c-2.415,0-4.373,1.634-4.373,3.646v31.252
				c0,2.014,1.958,3.646,4.373,3.646l0,0c2.415,0,4.373-1.632,4.373-3.646V-73.017z"/>
			<path fill="#E9E9EA" d="M-1028.227-69.149c0-1.515-1.957-2.743-4.373-2.743l0,0c-2.415,0-4.372,1.229-4.372,2.743v23.518
				c0,1.515,1.957,2.743,4.372,2.743l0,0c2.416,0,4.373-1.229,4.373-2.743V-69.149z"/>
		</g>
		<path fill="#604E75" d="M-1044.922,96.016c0,7.355-5.962,13.316-13.316,13.316h-23.85c-7.354,0-13.315-5.961-13.315-13.316V43.547
			c0-7.354,5.962-13.314,13.315-13.314h23.85c7.354,0,13.316,5.961,13.316,13.314V96.016z"/>
		<path fill="#604E75" d="M-711.823,96.016c0,7.355-5.962,13.316-13.316,13.316h-23.85c-7.354,0-13.315-5.961-13.315-13.316V43.547
			c0-7.354,5.961-13.314,13.315-13.314h23.85c7.354,0,13.316,5.961,13.316,13.314V96.016z"/>
	</g>
</g>
</svg>
