<?xml version="1.0" encoding="utf-8"?>
<!-- Generator: Adobe Illustrator 15.0.0, SVG Export Plug-In . SVG Version: 6.00 Build 0)  -->
<!DOCTYPE svg PUBLIC "-//W3C//DTD SVG 1.1//EN" "http://www.w3.org/Graphics/SVG/1.1/DTD/svg11.dtd">
<svg version="1.1" id="Layer_1" xmlns="http://www.w3.org/2000/svg" xmlns:xlink="http://www.w3.org/1999/xlink" x="0px" y="0px"
	 width="600px" height="449px" viewBox="96.5 78.5 600 449" enable-background="new 96.5 78.5 600 449" xml:space="preserve">
<g>
	<g>
		<path fill="#E9E9EA" d="M611.591,215.195h2.438c5.94,0,10.8,4.86,10.8,10.8v32.733c0,5.938-4.859,10.799-10.8,10.799h-2.438
			V215.195z"/>
		<path fill="#E9E9EA" d="M532.683,215.195h-2.438c-5.939,0-10.8,4.86-10.8,10.8v32.733c0,5.938,4.86,10.799,10.8,10.799h2.438
			V215.195z"/>
		<path fill="#5B5C5C" d="M614.028,215.195h-2.438h-78.908h-2.438c-5.939,0-10.8,4.86-10.8,10.8v5.699h13.237v54.499h78.908v-54.499
			h13.236v-5.699C624.828,220.055,619.968,215.195,614.028,215.195z"/>
		<polygon fill="#B69FCC" points="532.683,286.193 532.683,302.861 532.683,342.527 561.472,342.527 561.472,302.861 
			582.802,302.861 582.802,342.527 611.591,342.527 611.591,302.861 611.591,286.193 		"/>
		<path d="M547.077,356.922c7.95,0,14.395-6.443,14.395-14.395h-28.789C532.683,350.479,539.128,356.922,547.077,356.922z"/>
		<path d="M597.196,356.922c7.95,0,14.395-6.443,14.395-14.395h-28.789C582.802,350.479,589.246,356.922,597.196,356.922z"/>
		<path fill="#B69FCC" d="M547.077,328.135c-7.949,0-14.395,6.443-14.395,14.395h28.789
			C561.472,334.578,555.028,328.135,547.077,328.135z"/>
		<path fill="#B69FCC" d="M597.196,328.135c-7.95,0-14.395,6.443-14.395,14.395h28.789
			C611.591,334.578,605.146,328.135,597.196,328.135z"/>
		<text transform="matrix(1 0 0 1 553.8125 247.1953)" fill="#FFFFFF" font-family="'Cubano-Regular'" font-size="25.3327">IUP</text>
	</g>
	<g>
		<path fill="#E9E9EA" d="M649.171,151.813c-0.893,0-1.755,0.118-2.586,0.318c-8.769-28.624-38.906-49.725-74.752-49.725
			c-35.845,0-65.984,21.101-74.752,49.725c-0.83-0.201-1.693-0.318-2.586-0.318c-6.074,0-11,4.925-11,11c0,6.075,4.926,11,11,11
			c0.067,0,0.133-0.009,0.199-0.01c2.714,33.829,36.201,49.417,77.139,49.417c40.938,0,74.426-15.588,77.139-49.417
			c0.067,0.001,0.133,0.01,0.199,0.01c6.075,0,11-4.925,11-11C660.171,156.738,655.246,151.813,649.171,151.813z"/>
		<g>
			<circle cx="531.091" cy="159.521" r="7.5"/>
			<circle fill="#FFFFFF" cx="528.597" cy="157.478" r="3.03"/>
		</g>
		<g>
			<circle cx="611.591" cy="159.521" r="7.5"/>
			<circle fill="#FFFFFF" cx="609.097" cy="157.478" r="3.03"/>
		</g>
		<path fill="#B69FCC" d="M620.228,111.576c-7.168-5.333-24.172-11.994-44.658-12.637c-22.176-0.696-49.676,7.471-59.842,18.304
			c-10.324,11.001-19.127,25.778-18.647,34.889c0,0,2.813,3.335,2.813,7.39h5.5c0,0,0.5-26.445,16-36.445
			c0,0,7.5-0.833,10.166,4.833c0,0,4.228-3.333,2.031-6.5c0,0,24.428-4.833,39.928,10.792c0,0,3.125-5.542,0.875-7.542
			c0,0,16.125,0.667,22.375,7.917c0,0,0.875-2.417,0-5c-0.445-1.313,23.625-1.875,29.75,7.25c0,0,0.666-8.583-5.793-12.917
			c19.667,12.667,17.668,37.612,17.668,37.612h5.332c0.166-4.055,2.859-7.39,2.859-7.39
			C644.507,127.607,627.394,116.909,620.228,111.576z"/>
		<path fill="none" stroke="#000000" stroke-width="3" stroke-linecap="round" stroke-miterlimit="10" d="M571.833,154.449
			c0,0,0.811,8.268,4.311,12.573l-4.311,3.555"/>
		<path fill="none" stroke="#000000" stroke-width="3" stroke-linecap="round" stroke-miterlimit="10" d="M559.564,177.284
			c0,5.106,3.842,12.917,12.319,12.917c8.477,0,12.826-6.482,12.826-12.827"/>
	</g>
</g>
<g>
	<g>
		<path fill="#E9E9EA" d="M251.075,220.136h2.438c5.939,0,10.8,4.86,10.8,10.8v32.733c0,5.938-4.859,10.8-10.8,10.8h-2.438V220.136z
			"/>
		<path fill="#E9E9EA" d="M172.168,220.136h-2.438c-5.939,0-10.801,4.86-10.801,10.8v32.733c0,5.938,4.859,10.8,10.801,10.8h2.438
			V220.136z"/>
		<path fill="#333333" d="M253.513,220.136h-2.438h-78.906h-2.438c-5.94,0-10.802,4.86-10.802,10.8v5.699h13.238v54.5h78.907v-54.5
			h13.237v-5.699C264.313,224.996,259.453,220.136,253.513,220.136z"/>
		<polygon fill="#B69FCC" points="172.168,291.135 172.168,307.802 172.168,347.469 200.957,347.469 200.957,307.802 
			222.285,307.802 222.285,347.469 251.075,347.469 251.075,307.802 251.075,291.135 		"/>
		<path d="M186.563,361.863c7.949,0,14.395-6.443,14.395-14.395h-28.789C172.168,355.418,178.612,361.863,186.563,361.863z"/>
		<path d="M236.68,361.863c7.951,0,14.396-6.443,14.396-14.395h-28.79C222.285,355.418,228.73,361.863,236.68,361.863z"/>
		<path fill="#B69FCC" d="M186.563,333.075c-7.95,0-14.395,6.443-14.395,14.395h28.789
			C200.957,339.519,194.512,333.075,186.563,333.075z"/>
		<path fill="#B69FCC" d="M236.68,333.075c-7.949,0-14.396,6.443-14.396,14.395h28.79
			C251.075,339.519,244.631,333.075,236.68,333.075z"/>
		<g>
			<g>
				<path fill="#604E75" d="M192.666,238.997c0.691-0.213,1.111-0.069,1.252,0.418c1.805,6.229,2.707,9.343,4.512,15.572
					c0.135,0.461-0.041,0.801-0.545,0.955c-1.106,0.342-1.656,0.529-2.746,0.939c-0.471,0.177-0.844,0.027-1.021-0.42
					c-2.388-6.03-3.58-9.045-5.968-15.074c-0.187-0.473,0.092-0.855,0.739-1.1C190.387,239.725,191.143,239.466,192.666,238.997z"/>
				<path fill="#604E75" d="M202.004,236.86c0.711-0.107,1.101,0.098,1.168,0.602c0.533,3.935,0.799,5.902,1.332,9.838
					c0.263,1.934,0.559,3.053,2.639,2.863c2.08-0.19,2.165-1.346,2.072-3.295c-0.188-3.967-0.281-5.949-0.469-9.916
					c-0.023-0.507,0.357-0.779,1.038-0.801c1.604-0.05,2.407-0.049,4.011,0c0.717,0.022,1.062,0.294,1.037,0.801
					c-0.216,4.504-0.32,6.754-0.533,11.258c-0.08,1.671-0.666,5.736-6.76,6.289c-6.093,0.555-7.426-3.328-7.807-4.957
					c-1.027-4.391-1.541-6.584-2.566-10.976c-0.117-0.495,0.211-0.832,0.881-0.977C199.619,237.249,200.414,237.103,202.004,236.86z
					"/>
				<path fill="#604E75" d="M227.078,237.944c6.24,1.51,7.921,4.527,6.393,8.391c-1.529,3.863-4.181,4.654-9.252,3.427
					c-0.548-0.132-0.821-0.194-1.371-0.312c-0.544-0.117-0.907,0.069-1.005,0.567c-0.313,1.591-0.473,2.388-0.784,3.978
					c-0.099,0.498-0.402,0.693-0.917,0.602c-1.153-0.207-1.732-0.294-2.894-0.43c-0.492-0.057-0.75-0.361-0.701-0.84
					c0.641-6.442,0.957-9.662,1.602-16.105c0.05-0.505,0.432-0.725,1.147-0.667C222.431,236.917,223.993,237.196,227.078,237.944z
					 M225.428,245.571c1.479,0.363,2.252,0.443,2.688-1.064c0.437-1.508-0.297-1.896-1.865-2.281
					c-0.706-0.173-1.062-0.255-1.771-0.406c-0.624-0.135-1.033,0.045-1.131,0.543c-0.148,0.756-0.228,1.133-0.375,1.889
					c-0.093,0.473,0.196,0.813,0.786,0.938C224.429,245.331,224.762,245.409,225.428,245.571z"/>
			</g>
		</g>
	</g>
	<g>
		<path fill="#E9E9EA" d="M288.656,156.504c-0.893,0-1.756,0.118-2.586,0.318c-8.77-28.624-38.908-49.725-74.753-49.725
			s-65.983,21.101-74.753,49.725c-0.83-0.201-1.693-0.318-2.586-0.318c-6.074,0-11,4.925-11,11c0,6.075,4.926,11,11,11
			c0.068,0,0.133-0.009,0.199-0.01c2.715,33.829,36.201,49.417,77.14,49.417s74.425-15.588,77.14-49.417
			c0.066,0.001,0.132,0.01,0.199,0.01c6.074,0,11-4.925,11-11C299.656,161.429,294.73,156.504,288.656,156.504z"/>
		<path fill="none" stroke="#000000" stroke-width="3" stroke-linecap="round" stroke-miterlimit="10" d="M155.855,161.488
			c0,2.075,1.561,5.25,5.006,5.25s5.214-2.635,5.214-5.213"/>
		<path fill="none" stroke="#000000" stroke-width="3" stroke-linecap="round" stroke-miterlimit="10" d="M160.965,156.698
			c0,2.075,1.562,5.25,5.006,5.25c1.541,0,2.744-0.526,3.605-1.338"/>
		<path fill="none" stroke="#000000" stroke-width="3" stroke-linecap="round" stroke-miterlimit="10" d="M260.881,156.698
			c0,2.075-1.562,5.25-5.007,5.25c-1.539,0-2.743-0.526-3.604-1.338"/>
		<path fill="none" stroke="#000000" stroke-width="3" stroke-linecap="round" stroke-miterlimit="10" d="M255.693,161.488
			c0,2.075,1.561,5.25,5.006,5.25s5.214-2.635,5.214-5.213"/>
		<g>
			<circle cx="170.575" cy="164.211" r="7.5"/>
			<circle fill="#FFFFFF" cx="168.082" cy="162.169" r="3.03"/>
		</g>
		<g>
			<circle cx="251.075" cy="164.211" r="7.5"/>
			<circle fill="#FFFFFF" cx="248.581" cy="162.169" r="3.03"/>
		</g>
		<path fill="none" stroke="#000000" stroke-width="3" stroke-linecap="round" stroke-miterlimit="10" d="M211.317,159.14
			c0,0,0.812,8.268,4.312,12.573l-4.312,3.555"/>
		<path fill="none" stroke="#000000" stroke-width="3" stroke-linecap="round" stroke-miterlimit="10" d="M199.049,181.975
			c0,5.106,3.842,12.917,12.317,12.917c8.477,0,12.827-6.482,12.827-12.827"/>
		<path fill="#604E75" d="M203.918,95.499c0,0-24.965,11-16.981,23.333s22.942-1.667,44.314,0
			c12.527,0.977,45.949,10.863,55.192,37.99c8.352,24.51-6.813,49.14-15.473,54.742c-8.66,5.604-22.549,31.751-16.388,45.648
			c6.161,13.896,28.668,28.953,52.334,20.285c23.666-8.666,18.666-23.332,18.666-23.332s-4,8.998-16,8.998
			s-31.332-16.666-16.666-52.333c14.666-35.667,12.495-75.284-14.373-98C260.803,97.832,233.918,85.832,203.918,95.499z"/>
		<path fill="#E9E9EA" d="M288.457,178.494c0.066,0.001,0.131,0.01,0.199,0.01c6.074,0,11-4.925,11-11c0-6.075-4.926-11-11-11
			c-0.893,0-1.756,0.118-2.586,0.318l-5.525,12.451L288.457,178.494z"/>
		<path fill="#604E75" d="M195.879,109.499c0,0-7.666,13-17.804,17.667c-10.418,4.796-31.542,3.521-41.511,29.657
			c-10.854,28.453,10.73,54.01,22.365,59.361c11.635,5.35,16.652,32.315,1.801,44.315s-56.854,13.332-60.186-15.668
			c0,0,9,11,19.334,9.334c10.332-1.666,26.334-16.666,8-38c-18.334-21.334-16.224-70.518,6-91.667
			C156.717,102.765,182.213,94.833,195.879,109.499z"/>
		<path fill="#E9E9EA" d="M134.178,178.494c-0.065,0.001-0.131,0.01-0.198,0.01c-6.074,0-11-4.925-11-11c0-6.075,4.926-11,11-11
			c0.894,0,1.756,0.118,2.586,0.318l5.524,12.451L134.178,178.494z"/>
		<circle fill="#C4C4C3" cx="165.45" cy="190.87" r="9.595"/>
		<circle fill="#C4C4C3" cx="257.694" cy="190.87" r="9.595"/>
	</g>
</g>
<g>
	<g>
		<path fill="#E9E9EA" d="M441.193,211.838h2.438c5.94,0,10.8,4.861,10.8,10.8v32.733c0,5.939-4.858,10.801-10.8,10.801h-2.438
			V211.838z"/>
		<path fill="#E9E9EA" d="M362.285,211.838h-2.438c-5.939,0-10.801,4.861-10.801,10.8v32.733c0,5.939,4.859,10.801,10.801,10.801
			h2.438V211.838z"/>
		<path fill="#604E75" d="M443.631,211.838h-2.438h-78.907h-2.438c-5.939,0-10.801,4.861-10.801,10.8v5.699h13.238v54.5h78.906
			v-54.5h13.237v-5.699C454.431,216.699,449.57,211.838,443.631,211.838z"/>
		<polygon fill="#5B5C5C" points="362.285,282.838 362.285,299.504 362.285,339.172 391.074,339.172 391.074,299.504 
			412.404,299.504 412.404,339.172 441.193,339.172 441.193,299.504 441.193,282.838 		"/>
		<path d="M376.681,353.566c7.949,0,14.396-6.443,14.396-14.395h-28.789C362.285,347.123,368.73,353.566,376.681,353.566z"/>
		<path d="M426.798,353.566c7.951,0,14.396-6.443,14.396-14.395h-28.789C412.404,347.123,418.849,353.566,426.798,353.566z"/>
		<path fill="#5B5C5C" d="M376.681,324.777c-7.95,0-14.396,6.443-14.396,14.396h28.789
			C391.074,331.221,384.63,324.777,376.681,324.777z"/>
		<path fill="#5B5C5C" d="M426.798,324.777c-7.949,0-14.396,6.443-14.396,14.396h28.79
			C441.193,331.221,434.749,324.777,426.798,324.777z"/>
		<g>
			<g>
				<path fill="#B69FCC" d="M382.783,230.701c0.691-0.213,1.111-0.072,1.252,0.416c1.806,6.229,2.707,9.342,4.511,15.571
					c0.134,0.463-0.042,0.803-0.545,0.957c-1.107,0.342-1.656,0.527-2.746,0.939c-0.472,0.176-0.845,0.025-1.022-0.422
					c-2.387-6.029-3.58-9.041-5.967-15.071c-0.188-0.471,0.094-0.854,0.741-1.1C380.506,231.427,381.261,231.169,382.783,230.701z"
					/>
				<path fill="#B69FCC" d="M392.122,228.562c0.71-0.107,1.1,0.098,1.168,0.6c0.532,3.936,0.798,5.905,1.332,9.84
					c0.262,1.934,0.558,3.053,2.637,2.863s2.166-1.344,2.073-3.293c-0.188-3.967-0.282-5.95-0.471-9.918
					c-0.023-0.506,0.358-0.779,1.039-0.801c1.604-0.051,2.406-0.051,4.01,0c0.716,0.021,1.063,0.295,1.039,0.801
					c-0.215,4.504-0.321,6.756-0.534,11.258c-0.079,1.67-0.668,5.736-6.759,6.291c-6.092,0.555-7.428-3.328-7.809-4.955
					c-1.027-4.391-1.539-6.588-2.566-10.979c-0.114-0.494,0.211-0.832,0.881-0.977C389.738,228.951,390.531,228.804,392.122,228.562
					z"/>
				<path fill="#B69FCC" d="M417.195,229.646c6.239,1.512,7.923,4.53,6.394,8.393s-4.183,4.652-9.253,3.426
					c-0.547-0.133-0.821-0.197-1.371-0.314c-0.543-0.115-0.91,0.074-1.007,0.57c-0.313,1.592-0.47,2.385-0.782,3.977
					c-0.098,0.498-0.402,0.691-0.918,0.602c-1.152-0.207-1.732-0.293-2.893-0.428c-0.491-0.059-0.75-0.359-0.703-0.84
					c0.641-6.443,0.962-9.662,1.604-16.106c0.051-0.506,0.432-0.725,1.148-0.666C412.55,228.621,414.111,228.9,417.195,229.646z
					 M415.547,237.275c1.479,0.363,2.251,0.443,2.688-1.064c0.436-1.508-0.297-1.898-1.865-2.284
					c-0.706-0.174-1.062-0.252-1.771-0.404c-0.624-0.133-1.035,0.045-1.133,0.542c-0.148,0.758-0.223,1.135-0.371,1.891
					c-0.093,0.473,0.195,0.813,0.783,0.938C414.547,237.035,414.881,237.113,415.547,237.275z"/>
			</g>
		</g>
	</g>
	<g>
		<path fill="#E9E9EA" d="M478.774,147.206c-0.893,0-1.756,0.118-2.586,0.317c-8.77-28.624-38.907-49.726-74.753-49.726
			c-35.845,0-65.982,21.102-74.753,49.726c-0.829-0.199-1.692-0.317-2.586-0.317c-6.073,0-11,4.925-11,11s4.927,11,11,11
			c0.068,0,0.134-0.009,0.199-0.011c2.715,33.828,36.201,49.417,77.14,49.417s74.426-15.589,77.141-49.417
			c0.065,0.002,0.131,0.011,0.198,0.011c6.073,0,10.999-4.925,10.999-11S484.848,147.206,478.774,147.206z"/>
		<path fill="none" stroke="#000000" stroke-width="3" stroke-linecap="round" stroke-miterlimit="10" d="M401.436,149.842
			c0,0,0.813,8.269,4.313,12.572l-4.313,3.555"/>
		<path fill="none" stroke="#000000" stroke-width="3" stroke-linecap="round" stroke-miterlimit="10" d="M389.167,172.677
			c0,5.106,3.842,12.917,12.317,12.917c8.477,0,12.828-6.481,12.828-12.827"/>
		<path fill="#604E75" d="M352.105,226.916c4.59-11.506-4.857-20.418-10.388-24.649c-8.19-6.268-23.824-30.231-15.474-54.742
			c9.244-27.128,42.666-37.013,55.193-37.989c21.371-1.667,36.332,12.333,44.314,0c7.981-12.333-16.982-23.333-16.982-23.333
			c-30-9.668-56.885,2.333-74.627,17.333c-26.867,22.716-31.902,63.649-14.373,98c5.551,10.875,8.467,16.333-1.199,21.167
			c0,0-5.5,3.832-7.5,0.666c0,0-0.168,4.334,7,5c0,0-1.334,3.051-4.334,2.107c0,0,3.813,1.742,6.771,0.434
			c0,0-0.375,1.813-2.75,1.875C315.172,232.853,345.372,243.789,352.105,226.916z"/>
		<path fill="#604E75" d="M451.958,230.201c-10.229-10.832-3.266-19.167,1.801-23.315c9.908-8.114,33.218-30.908,22.365-59.361
			c-9.969-26.136-31.093-24.859-41.511-29.656c-10.138-4.666-17.805-17.666-17.805-17.666c13.667-14.666,39.161-6.734,62,15
			c22.223,21.147,20.734,67.705,6,91.667c-5.739,9.333-2.334,15.333,8,17c0,0,5.094,1.76,7.094-0.537s-1.332,4.371-5.5,4.371
			c-4.166,0-1.498,1.498,2.168,1.832c0,0-2.928,1.5-6.797,1.334c0,0-1.037,0.666,0.963,1.5
			C490.736,232.369,461.173,239.961,451.958,230.201z"/>
		<path fill="#E9E9EA" d="M478.575,169.195c0.065,0.002,0.131,0.01,0.198,0.01c6.074,0,11-4.925,11-11c0-6.074-4.926-11-11-11
			c-0.893,0-1.756,0.118-2.586,0.317l-5.524,12.451L478.575,169.195z"/>
		<path fill="#E9E9EA" d="M324.297,169.195c-0.066,0.002-0.131,0.01-0.199,0.01c-6.074,0-11-4.925-11-11c0-6.074,4.926-11,11-11
			c0.893,0,1.756,0.118,2.586,0.317l5.525,12.451L324.297,169.195z"/>
		<circle fill="#C4C4C3" cx="355.568" cy="181.572" r="9.595"/>
		<circle fill="#C4C4C3" cx="447.813" cy="181.572" r="9.595"/>
		<path fill="none" stroke="#000000" stroke-width="3" stroke-linecap="round" stroke-miterlimit="10" d="M348.563,150.628
			c0,2.075,1.562,5.25,5.006,5.25c3.445,0,5.215-2.635,5.215-5.213"/>
		<path fill="none" stroke="#000000" stroke-width="3" stroke-linecap="round" stroke-miterlimit="10" d="M353.673,145.838
			c0,2.075,1.562,5.25,5.006,5.25c1.54,0,2.744-0.526,3.604-1.338"/>
		<path fill="none" stroke="#000000" stroke-width="3" stroke-linecap="round" stroke-miterlimit="10" d="M453.588,145.838
			c0,2.075-1.562,5.25-5.006,5.25c-1.539,0-2.744-0.526-3.605-1.338"/>
		<path fill="none" stroke="#000000" stroke-width="3" stroke-linecap="round" stroke-miterlimit="10" d="M448.4,150.628
			c0,2.075,1.562,5.25,5.007,5.25c3.444,0,5.214-2.635,5.214-5.213"/>
		<g>
			<circle cx="363.281" cy="153.353" r="7.5"/>
			<circle fill="#FFFFFF" cx="360.787" cy="151.31" r="3.03"/>
		</g>
		<g>
			<circle cx="443.782" cy="153.353" r="7.5"/>
			<circle fill="#FFFFFF" cx="441.288" cy="151.31" r="3.03"/>
		</g>
	</g>
</g>
<g>
	<g>
		<path fill="#E9E9EA" d="M441.506,378.138h2.438c5.94,0,10.801,4.86,10.801,10.8v32.732c0,5.939-4.859,10.801-10.801,10.801h-2.438
			V378.138z"/>
		<path fill="#E9E9EA" d="M362.599,378.138h-2.438c-5.938,0-10.8,4.86-10.8,10.8v32.732c0,5.939,4.86,10.801,10.8,10.801h2.438
			V378.138z"/>
		<path fill="#5B5C5C" d="M443.943,378.138h-2.438h-78.907h-2.438c-5.938,0-10.8,4.86-10.8,10.8v5.699h13.237v54.5h78.907v-54.5
			h13.237v-5.699C454.744,382.998,449.884,378.138,443.943,378.138z"/>
		<polygon fill="#604E75" points="362.599,449.137 362.599,465.804 362.599,505.471 391.389,505.471 391.389,465.804 
			412.717,465.804 412.717,505.471 441.506,505.471 441.506,465.804 441.506,449.137 		"/>
		<path d="M376.993,519.865c7.95,0,14.396-6.443,14.396-14.395H362.6C362.599,513.42,369.044,519.865,376.993,519.865z"/>
		<path d="M427.111,519.865c7.95,0,14.396-6.443,14.396-14.395h-28.789C412.717,513.42,419.162,519.865,427.111,519.865z"/>
		<path fill="#604E75" d="M376.993,491.076c-7.948,0-14.395,6.444-14.395,14.396h28.79
			C391.389,497.521,384.943,491.076,376.993,491.076z"/>
		<path fill="#604E75" d="M427.111,491.076c-7.949,0-14.395,6.444-14.395,14.396h28.789
			C441.506,497.521,435.062,491.076,427.111,491.076z"/>
		<g>
			<g>
				<path fill="#E9E9EA" d="M368.71,400.22c1.461-0.578,2.193-0.851,3.673-1.364c0.196,0.567,0.299,0.852,0.495,1.418
					c-0.318,0.111-0.479,0.167-0.799,0.28c0.729,2.032,1.092,3.048,1.818,5.081c0.3-0.107,0.449-0.16,0.749-0.264
					c0.195,0.562,0.293,0.842,0.488,1.404c-1.344,0.467-2.011,0.713-3.337,1.239c-0.22-0.554-0.328-0.83-0.548-1.383
					c0.298-0.118,0.442-0.175,0.74-0.29c-0.774-2.016-1.161-3.021-1.937-5.036c-0.316,0.122-0.477,0.183-0.791,0.308
					C369.044,401.057,368.93,400.777,368.71,400.22z"/>
				<path fill="#E9E9EA" d="M380.362,396.464c1.384-0.343,2.08-0.501,3.474-0.789c0.12,0.587,0.182,0.881,0.303,1.469
					c-0.328,0.067-0.493,0.104-0.82,0.174c0.585,2.701,0.88,4.05,1.464,6.751c-0.479,0.104-0.722,0.158-1.2,0.27
					c-2.035-1.686-3.1-2.497-5.316-4.053c0.41,1.444,0.616,2.168,1.024,3.612c0.157-0.044,0.918-0.257,0.918-0.257
					c0.157,0.579,0.234,0.869,0.393,1.447c-1.251,0.34-1.873,0.521-3.113,0.912c-0.18-0.572-0.268-0.857-0.447-1.431
					c0.359-0.112,0.54-0.169,0.9-0.278c-0.625-2.07-0.938-3.106-1.563-5.178c-0.385,0.115-0.576,0.176-0.959,0.295
					c-0.181-0.572-0.271-0.858-0.449-1.431c1.163-0.364,1.746-0.539,2.918-0.864c1.862,1.352,2.764,2.051,4.5,3.488
					c-0.275-1.167-0.415-1.75-0.69-2.918c-0.389,0.092-0.585,0.139-0.973,0.234C380.578,397.336,380.507,397.045,380.362,396.464z"
					/>
				<path fill="#E9E9EA" d="M395.19,398.274c0.198,2.403-1.542,4.328-3.812,4.63c-1.451,0.193-2.178,0.307-3.62,0.564
					c-0.106-0.596-0.16-0.893-0.268-1.488c0.295-0.053,0.442-0.079,0.737-0.128c-0.358-2.119-0.537-3.178-0.896-5.298
					c-0.313,0.053-0.472,0.08-0.784,0.136c-0.107-0.6-0.16-0.899-0.269-1.499c1.59-0.283,2.388-0.408,3.985-0.621
					C392.952,394.214,394.993,395.873,395.19,398.274z M390.249,401.535c0.258-0.037,0.388-0.054,0.645-0.088
					c1.84-0.252,2.342-1.638,2.199-2.974c-0.145-1.347-1.151-2.593-2.926-2.351c-0.272,0.037-0.41,0.056-0.684,0.096
					C389.791,398.346,389.942,399.408,390.249,401.535z"/>
				<path fill="#E9E9EA" d="M396.743,393.979c1.541-0.094,2.313-0.125,3.856-0.154c0.012,0.601,0.02,0.899,0.031,1.5
					c-0.333,0.006-0.502,0.01-0.835,0.02c0.061,2.158,0.093,3.236,0.152,5.395c0.313-0.01,0.469-0.014,0.782-0.02
					c0.012,0.595,0.016,0.893,0.027,1.488c-1.401,0.025-2.101,0.055-3.499,0.141c-0.036-0.594-0.058-0.891-0.094-1.484
					c0.313-0.02,0.474-0.029,0.785-0.046c-0.111-2.155-0.171-3.233-0.283-5.39c-0.333,0.018-0.499,0.027-0.832,0.047
					C396.8,394.875,396.78,394.578,396.743,393.979z"/>
				<path fill="#E9E9EA" d="M408.532,394.007c0,0,2.489,6.833,2.62,7.137c0.371,0.039,0.556,0.06,0.927,0.103
					c-0.068,0.596-0.103,0.894-0.172,1.488c-1.398-0.162-2.104-0.229-3.507-0.333c0.044-0.593,0.066-0.889,0.11-1.481
					c0.184,0.014,0.274,0.021,0.459,0.035c-0.125-0.312-0.228-0.619-0.367-0.943c-0.993-0.073-1.488-0.104-2.482-0.146
					c-0.156,0.357-0.233,0.537-0.389,0.896c0.184,0.007,0.275,0.011,0.46,0.021c-0.027,0.594-0.04,0.892-0.067,1.485
					c-1.216-0.056-1.823-0.071-3.041-0.083c0.007-0.6,0.009-0.9,0.015-1.5c0.373,0.003,0.558,0.006,0.931,0.014
					c0.316-0.894,3.299-6.764,3.299-6.764c0.494,0.027,0.74,0.042,1.234,0.075C408.55,394.008,408.544,394.007,408.532,394.007z
					 M408.15,398.477c-0.256-0.686-0.385-1.027-0.652-1.711c-0.324,0.648-0.487,0.973-0.803,1.625
					C407.277,398.42,407.568,398.438,408.15,398.477z"/>
				<path fill="#E9E9EA" d="M420.635,395.636c1.394,0.284,2.088,0.44,3.472,0.78c-0.143,0.582-0.217,0.873-0.359,1.455
					c-0.325-0.08-0.486-0.117-0.813-0.194c-0.634,2.69-0.952,4.032-1.586,6.723c-0.479-0.112-0.718-0.167-1.197-0.272
					c-1.113-2.396-1.723-3.586-3.046-5.942c-0.252,1.479-0.375,2.22-0.626,3.7c0.16,0.027,0.933,0.164,0.933,0.164
					c-0.106,0.59-0.16,0.885-0.268,1.475c-1.27-0.23-1.905-0.332-3.182-0.513c0.084-0.595,0.126-0.89,0.211-1.483
					c0.369,0.053,0.556,0.078,0.926,0.135c0.327-2.139,0.492-3.207,0.818-5.347c-0.394-0.06-0.594-0.088-0.986-0.144
					c0.084-0.594,0.128-0.891,0.212-1.485c1.195,0.169,1.793,0.263,2.983,0.472c1.094,2.02,1.603,3.037,2.55,5.082
					c0.254-1.172,0.383-1.758,0.637-2.93c-0.392-0.084-0.586-0.126-0.979-0.206C420.454,396.517,420.515,396.224,420.635,395.636z"
					/>
				<path fill="#E9E9EA" d="M431.799,398.681c0,0,0.684,7.256,0.733,7.584c0.354,0.136,0.53,0.205,0.884,0.345
					c-0.221,0.559-0.333,0.838-0.554,1.395c-1.332-0.526-2.001-0.774-3.35-1.242c0.194-0.563,0.292-0.844,0.486-1.406
					c0.178,0.061,0.266,0.092,0.44,0.154c-0.042-0.333-0.062-0.659-0.115-1.008c-0.953-0.332-1.433-0.489-2.394-0.793
					c-0.245,0.306-0.367,0.459-0.609,0.766c0.178,0.055,0.266,0.083,0.442,0.141c-0.181,0.566-0.27,0.851-0.448,1.418
					c-1.173-0.371-1.762-0.545-2.944-0.871c0.159-0.578,0.242-0.867,0.401-1.445c0.363,0.1,0.542,0.15,0.904,0.255
					c0.539-0.782,4.957-5.679,4.957-5.679c0.477,0.154,0.715,0.233,1.188,0.396C431.814,398.686,431.81,398.684,431.799,398.681z
					 M430.275,402.899c-0.075-0.729-0.113-1.093-0.2-1.823c-0.484,0.541-0.725,0.813-1.199,1.36
					C429.438,402.617,429.716,402.709,430.275,402.899z"/>
			</g>
		</g>
	</g>
	<g>
		<path fill="#E9E9EA" d="M479.078,314.506c-0.893,0-1.756,0.117-2.586,0.318c-8.77-28.625-38.907-49.726-74.753-49.726
			s-65.983,21.101-74.752,49.726c-0.831-0.201-1.692-0.318-2.586-0.318c-6.076,0-11,4.925-11,11c0,6.074,4.924,11,11,11
			c0.066,0,0.132-0.01,0.199-0.01c2.713,33.828,36.201,49.416,77.139,49.416c40.938,0,74.425-15.588,77.142-49.416
			c0.064,0,0.131,0.01,0.197,0.01c6.074,0,11-4.926,11-11C490.078,319.431,485.152,314.506,479.078,314.506z"/>
		<g>
			<circle cx="360.997" cy="322.213" r="7.5"/>
			<circle fill="#FFFFFF" cx="358.503" cy="320.17" r="3.029"/>
		</g>
		<g>
			<circle cx="441.497" cy="322.213" r="7.5"/>
			<circle fill="#FFFFFF" cx="439.003" cy="320.171" r="3.03"/>
		</g>
		<path fill="none" stroke="#000000" stroke-width="3" stroke-linecap="round" stroke-miterlimit="10" d="M401.739,317.142
			c0,0,0.813,8.269,4.313,12.573l-4.313,3.555"/>
		<path fill="none" stroke="#000000" stroke-width="3" stroke-linecap="round" stroke-miterlimit="10" d="M389.471,339.977
			c0,5.105,3.842,12.917,12.317,12.917c8.477,0,12.827-6.481,12.827-12.827"/>
		<path fill="#B69FCC" d="M453.554,276.77L453.554,276.77L453.554,276.77c-1.28-0.945-2.444-1.775-3.42-2.501
			c-1.854-1.379-4.369-2.847-7.43-4.276c-16.111-12.401-23.727-29.563-23.727-29.563c-3,9.667-8.751,6.667-8.751,6.667
			c-2.751-1-3.083-6-3.083-6c-0.5,3.5-4,6.5-6.666,4.167c-2.667-2.333-4-11.5-4-11.5s-1.5,18-8.334,16.833
			c-6.833-1.167-6.166-5.167-6.166-5.167c-0.968,10.89-16.194,21.368-24.47,26.295c-1.881,0.931-3.638,1.909-5.25,2.928
			c-0.002,0-0.013,0.005-0.013,0.005h0.002c-2.631,1.663-4.881,3.432-6.614,5.279c-10.324,11.001-19.127,25.778-18.646,34.889
			c0,0,2.813,3.336,2.813,7.391h5.5c0,0,0.5-26.445,16-36.445c0,0,25.348-10.674,48.515-9.841
			c23.166,0.833,50.819,8.674,50.819,8.674c19.667,12.667,17.667,37.612,17.667,37.612h5.332c0.166-4.055,2.859-7.391,2.859-7.391
			C474.697,293.638,461.685,282.774,453.554,276.77z"/>
	</g>
</g>
<g>
	<g>
		<path fill="#E9E9EA" d="M279.084,380.673h2.438c5.939,0,10.8,4.86,10.8,10.8v32.733c0,5.938-4.86,10.8-10.8,10.8h-2.438V380.673z"
			/>
		<path fill="#E9E9EA" d="M200.176,380.673h-2.438c-5.94,0-10.8,4.86-10.8,10.8v32.733c0,5.938,4.859,10.8,10.8,10.8h2.438V380.673z
			"/>
		<path fill="#B69FCC" d="M281.522,380.673h-2.438h-78.908h-2.438c-5.94,0-10.8,4.86-10.8,10.8v5.699h13.237v54.5h78.908v-54.5
			h13.237v-5.699C292.321,385.533,287.461,380.673,281.522,380.673z"/>
		<polygon fill="#C4C4C3" points="200.176,451.672 200.176,468.339 200.176,508.006 228.966,508.006 228.966,468.339 
			250.294,468.339 250.294,508.006 279.084,508.006 279.084,468.339 279.084,451.672 		"/>
		<path d="M214.57,522.4c7.95,0,14.396-6.443,14.396-14.395h-28.79C200.176,515.956,206.62,522.4,214.57,522.4z"/>
		<path d="M264.689,522.4c7.95,0,14.396-6.443,14.396-14.395h-28.79C250.294,515.956,256.739,522.4,264.689,522.4z"/>
		<path fill="#C4C4C3" d="M214.57,493.611c-7.95,0-14.395,6.444-14.395,14.396h28.79
			C228.966,500.056,222.521,493.611,214.57,493.611z"/>
		<path fill="#C4C4C3" d="M264.689,493.611c-7.949,0-14.395,6.444-14.395,14.396h28.79
			C279.084,500.056,272.639,493.611,264.689,493.611z"/>
		<g>
			<g>
				<path fill="#5B5C5C" d="M213.475,404.897c0.005,1.075-0.327,2.527-2.473,3.265c-2.124,0.729-4.295-0.305-5.158-2.48
					c-0.926-2.34,0.151-4.52,2.486-5.318c0.799-0.273,1.464-0.328,1.833-0.276c-0.054-0.168-0.082-0.253-0.135-0.421
					c0.628-0.201,0.942-0.298,1.573-0.487c0.373,1.239,0.56,1.858,0.932,3.098c-0.608,0.184-0.912,0.278-1.518,0.474
					c-0.055-0.172-0.083-0.26-0.139-0.433c-0.177-0.552-0.978-0.919-2.066-0.546c-0.762,0.262-1.616,1.199-0.909,3.126
					c0.659,1.796,1.905,2.118,2.622,1.872c1.172-0.401,1.433-1.561,1.387-1.704C212.537,404.99,212.851,404.958,213.475,404.897z"/>
				<path fill="#5B5C5C" d="M222.77,403.527c0.104,0.575,0.158,0.863,0.263,1.438c-0.802,0.146-1.203,0.222-2.002,0.388
					c-0.327-0.074-1.008-0.378-1.227-1.375c-0.124-0.565-0.823-1.606-2.049-1.47c0.189,0.79,0.285,1.185,0.474,1.975
					c0.297-0.07,0.446-0.106,0.744-0.176c0.131,0.569,0.196,0.856,0.327,1.426c-1.323,0.305-1.982,0.471-3.295,0.829
					c-0.154-0.563-0.231-0.847-0.386-1.41c0.347-0.095,0.521-0.143,0.868-0.232c-0.53-2.023-0.795-3.033-1.326-5.057
					c-0.369,0.097-0.553,0.144-0.921,0.243c-0.153-0.56-0.229-0.839-0.382-1.397c1.506-0.412,2.262-0.604,3.78-0.948
					c2.024-0.461,2.909,0.712,3.108,1.725c0.168,0.854-0.406,1.818-0.383,1.994c0.032,0.242,1.002,1.148,1.168,1.99
					c0.056,0.284,0.361,0.224,0.361,0.224C222.244,403.625,222.418,403.592,222.77,403.527z M218.034,400.955
					c0.715-0.166,0.963-0.656,0.869-1.087c-0.094-0.432-0.498-0.796-1.103-0.656c-0.316,0.073-0.475,0.108-0.791,0.185
					c0.163,0.682,0.244,1.023,0.407,1.704C217.664,401.041,217.787,401.013,218.034,400.955z"/>
				<path fill="#5B5C5C" d="M223.993,396.585c1.458-0.226,2.189-0.321,3.652-0.487c0.065,0.576,0.098,0.864,0.163,1.44
					c-0.316,0.036-0.475,0.054-0.791,0.092c0.253,2.072,0.38,3.106,0.634,5.179c0.297-0.036,0.447-0.054,0.745-0.088
					c0.065,0.571,0.097,0.856,0.162,1.428c-1.333,0.151-1.999,0.242-3.327,0.447c-0.088-0.568-0.132-0.853-0.22-1.421
					c0.296-0.046,0.446-0.069,0.743-0.112c-0.3-2.064-0.451-3.099-0.751-5.164c-0.315,0.046-0.473,0.069-0.788,0.118
					C224.126,397.443,224.081,397.158,223.993,396.585z"/>
				<path fill="#5B5C5C" d="M238.681,395.495c1.024,0.009,1.537,0.021,2.561,0.059c-0.021,0.579-0.031,0.869-0.053,1.448
					c-0.378-0.014-0.568-0.019-0.946-0.027c-0.055,2.092-0.082,3.136-0.137,5.229c0.356,0.009,0.535,0.015,0.891,0.026
					c-0.021,0.579-0.032,0.867-0.054,1.446c-1.339-0.049-2.008-0.06-3.347-0.055c-0.002-0.579-0.002-0.868-0.004-1.448
					c0.233-0.001,0.348-0.001,0.581,0c0.003-1.049,0.004-1.574,0.008-2.622c-0.798,1.625-1.178,2.443-1.902,4.086
					c-0.354,0.007-0.532,0.011-0.886,0.021c0,0-1.741-2.982-2.418-4.095c0.062,1.099,0.095,1.646,0.157,2.743
					c0.237-0.014,0.354-0.02,0.591-0.031c0.029,0.579,0.042,0.867,0.071,1.446c-1.166,0.059-1.746,0.097-2.91,0.195
					c-0.049-0.577-0.074-0.866-0.123-1.444c0.36-0.03,0.539-0.044,0.899-0.07c-0.155-2.086-0.233-3.128-0.388-5.214
					c-0.382,0.028-0.574,0.042-0.956,0.074c-0.049-0.578-0.072-0.866-0.121-1.444c0.96-0.08,1.441-0.115,2.403-0.172
					c1.404,2.069,2.069,3.118,3.323,5.237C236.958,398.713,237.51,397.633,238.681,395.495z"/>
				<path fill="#5B5C5C" d="M250.01,402.165c-0.329,2.295-2.647,1.992-3.379,1.915c-0.731-0.077-1.565-0.441-1.824-1.045
					c-0.029,0.347-0.042,0.521-0.071,0.866c-0.582-0.048-0.873-0.068-1.455-0.106c0.086-1.333,0.129-1.999,0.216-3.332
					c0.605,0.039,0.909,0.063,1.514,0.113c-0.024,0.291-0.036,0.437-0.06,0.728c-0.048,0.578,0.65,1.216,1.537,1.308
					c0.745,0.075,1.656-0.121,1.708-0.549c0.088-0.726-0.487-0.962-1.804-1.501c-1.007-0.412-2.679-0.956-2.572-2.553
					c0.086-1.295,1.586-2.237,3.347-2.058c1.123,0.113,1.543,0.615,1.641,1.071c0.042-0.35,0.064-0.526,0.106-0.877
					c0.642,0.078,0.962,0.119,1.603,0.209c-0.153,1.095-0.227,1.642-0.38,2.734c-0.622-0.087-0.934-0.126-1.557-0.201
					c0.007-0.056,0.012-0.084,0.019-0.14c0.052-0.426-0.324-1.215-1.579-1.343c-0.477-0.05-1.131,0.182-1.17,0.62
					c-0.038,0.428,0.438,0.638,1.464,1.021C248.481,399.484,250.3,400.145,250.01,402.165z"/>
				<path fill="#5B5C5C" d="M260.198,402.475c-0.795,3.004-3.098,3.481-4.874,3.101c-1.901-0.408-3.645-1.896-3.159-4.824
					c0.465-2.803,2.818-3.778,4.911-3.328C259.031,397.842,260.965,399.582,260.198,402.475z M258.059,401.938
					c0.381-1.602-0.182-2.811-1.298-3.051c-1.265-0.271-2.256,0.607-2.564,2.225c-0.304,1.595,0.251,2.758,1.44,3.014
					C256.687,404.35,257.683,403.517,258.059,401.938z"/>
				<path fill="#5B5C5C" d="M268.264,400.695c1.289,0.455,1.931,0.694,3.206,1.199c-0.213,0.539-0.32,0.81-0.534,1.349
					c-0.301-0.119-0.452-0.179-0.753-0.294c-0.961,2.491-1.441,3.738-2.402,6.23c-0.443-0.171-0.665-0.254-1.109-0.418
					c-0.746-2.441-1.168-3.662-2.111-6.093c-0.439,1.384-0.659,2.076-1.098,3.46c0.149,0.048,0.869,0.282,0.869,0.282
					c-0.181,0.551-0.272,0.823-0.454,1.375c-1.181-0.39-1.773-0.571-2.964-0.915c0.161-0.558,0.24-0.834,0.401-1.392
					c0.346,0.101,0.519,0.151,0.864,0.255c0.601-2.004,0.901-3.009,1.502-5.013c-0.366-0.108-0.549-0.164-0.916-0.27
					c0.161-0.558,0.24-0.837,0.401-1.395c1.113,0.321,1.667,0.492,2.773,0.851c0.768,2.075,1.118,3.113,1.75,5.196
					c0.398-1.089,0.598-1.633,0.996-2.722c-0.361-0.132-0.543-0.196-0.905-0.324C267.973,401.515,268.071,401.243,268.264,400.695z"
					/>
			</g>
		</g>
		<g>
			<g>
				<path fill="#5B5C5C" d="M217.808,418.058c1.414,0.45,2.125,0.654,3.556,1.025c-0.15,0.58-0.224,0.872-0.375,1.452
					c-0.307-0.08-0.461-0.121-0.768-0.204c-0.565,2.084-0.848,3.126-1.413,5.21c0.331,0.09,0.496,0.132,0.827,0.218
					c-0.15,0.581-0.226,0.871-0.376,1.452c-1.608-0.417-2.408-0.647-3.997-1.153c0.182-0.571,0.273-0.856,0.455-1.429
					c0.395,0.126,0.592,0.187,0.988,0.307c0.244-0.804,0.364-1.204,0.608-2.008c-1.149-0.349-1.721-0.534-2.858-0.932
					c-0.277,0.793-0.415,1.188-0.691,1.979c0.392,0.137,0.588,0.206,0.981,0.337c-0.189,0.569-0.285,0.853-0.475,1.421
					c-1.583-0.527-2.371-0.813-3.931-1.432c0.221-0.558,0.332-0.837,0.553-1.395c0.321,0.127,0.481,0.189,0.804,0.313
					c0.771-2.017,1.157-3.026,1.929-5.043c-0.299-0.114-0.448-0.17-0.746-0.288c0.221-0.558,0.331-0.838,0.552-1.396
					c1.388,0.55,2.087,0.805,3.496,1.273c-0.189,0.569-0.285,0.854-0.475,1.424c-0.365-0.122-0.546-0.186-0.91-0.313
					c-0.237,0.68-0.356,1.02-0.594,1.699c1.114,0.389,1.674,0.572,2.8,0.914c0.209-0.688,0.313-1.035,0.522-1.725
					c-0.367-0.11-0.551-0.168-0.917-0.284C217.536,418.915,217.626,418.629,217.808,418.058z"/>
				<path fill="#5B5C5C" d="M228.465,420.521c0,0,2.186,6.922,2.331,7.228c0.402,0.041,0.602,0.059,1.004,0.094
					c-0.052,0.598-0.079,0.895-0.131,1.492c-1.577-0.14-2.363-0.226-3.934-0.445c0.083-0.589,0.122-0.886,0.205-1.475
					c0.198,0.026,0.297,0.042,0.495,0.067c-0.121-0.317-0.213-0.632-0.341-0.966c-1.045-0.146-1.566-0.229-2.607-0.413
					c-0.211,0.333-0.318,0.498-0.533,0.83c0.197,0.036,0.296,0.052,0.493,0.086c-0.103,0.586-0.154,0.88-0.257,1.466
					c-1.353-0.236-2.026-0.371-3.37-0.67c0.13-0.585,0.195-0.878,0.326-1.463c0.396,0.088,0.596,0.132,0.993,0.215
					c0.501-0.814,4.235-6.215,4.235-6.215c0.445,0.073,0.668,0.108,1.114,0.174C228.48,420.524,228.475,420.521,228.465,420.521z
					 M227.735,424.947c-0.207-0.705-0.306-1.059-0.499-1.765c-0.382,0.614-0.577,0.922-0.972,1.531
					C226.852,424.814,227.146,424.859,227.735,424.947z"/>
				<path fill="#5B5C5C" d="M240.767,421.184c1.221-0.045,1.831-0.08,3.049-0.18c0.049,0.603,0.072,0.906,0.122,1.509
					c-0.314,0.025-0.471,0.036-0.785,0.06c-0.15,0.011-0.141,0.139-0.141,0.139c-0.755,2.768-1.178,4.147-2.117,6.894
					c-0.555,0.02-0.832,0.026-1.386,0.035c-0.649-1.735-0.956-2.606-1.533-4.354c-0.655,1.742-1.003,2.609-1.736,4.338
					c-0.483-0.014-0.725-0.022-1.208-0.043c-0.847-2.684-1.228-4.031-1.906-6.732c0.013-0.168-0.127-0.309-0.289-0.321
					c-0.314-0.024-0.471-0.037-0.785-0.065c0.055-0.603,0.083-0.903,0.137-1.505c1.466,0.133,2.201,0.179,3.67,0.231
					c-0.022,0.604-0.033,0.907-0.055,1.512c-0.25-0.01-0.374-0.015-0.624-0.025c0.32,1.216,0.488,1.82,0.84,3.032
					c0.714-1.782,1.049-2.68,1.681-4.478c0.425,0.004,0.639,0.003,1.063,0c0.627,1.801,0.961,2.698,1.671,4.482
					c0.355-1.211,0.525-1.817,0.848-3.032c-0.185,0.008-0.277,0.013-0.462,0.021C240.799,422.093,240.789,421.787,240.767,421.184z"
					/>
				<path fill="#5B5C5C" d="M255.411,426.159c0.333-0.078,0.499-0.12,0.831-0.202c0.143,0.577,0.215,0.868,0.358,1.444
					c-1.611,0.399-2.422,0.576-4.048,0.888c-0.112-0.584-0.168-0.876-0.279-1.46c-1.127-0.825-1.674-1.249-2.74-2.115
					c0.16,1.01,0.239,1.514,0.398,2.523c0.336-0.054,0.503-0.081,0.839-0.139c0.1,0.587,0.149,0.881,0.249,1.468
					c-1.56,0.266-2.343,0.377-3.911,0.561c-0.069-0.591-0.103-0.887-0.172-1.479c0.338-0.039,0.506-0.06,0.843-0.103
					c-0.275-2.151-0.412-3.229-0.688-5.378c-0.313,0.04-0.469,0.062-0.782,0.098c-0.069-0.591-0.104-0.889-0.173-1.479
					c1.395-0.162,2.091-0.265,3.479-0.499c0.1,0.587,0.15,0.883,0.25,1.47c-0.312,0.053-0.467,0.077-0.779,0.126
					c0.084,0.535,0.126,0.805,0.211,1.34c0.842-0.855,1.251-1.292,2.041-2.173c-0.08-0.415-0.122-0.621-0.202-1.036
					c1.205-0.232,1.805-0.365,3.001-0.653c0.139,0.578,0.21,0.87,0.35,1.448c-0.372,0.09-0.559,0.133-0.932,0.217
					c-0.22,0.051-0.331,0.226-0.662,0.625c-0.242,0.292-1.033,1.279-1.585,1.835c1.238,0.988,1.878,1.471,3.196,2.403
					C254.766,426.077,255.081,426.236,255.411,426.159z"/>
				<path fill="#5B5C5C" d="M265.392,422.072c0.883,2.229-1.73,3.213-2.56,3.495c-0.83,0.283-1.902,0.31-2.42-0.158
					c0.106,0.344,0.159,0.516,0.265,0.858c-0.664,0.204-0.997,0.303-1.664,0.491c-0.376-1.329-0.566-1.995-0.942-3.324
					c0.637-0.181,0.955-0.271,1.588-0.468c0.089,0.289,0.135,0.435,0.224,0.724c0.176,0.573,1.173,0.895,2.143,0.568
					c0.814-0.273,1.659-0.907,1.507-1.325c-0.259-0.71-0.946-0.626-2.488-0.56c-1.179,0.051-3.053,0.149-3.508-1.441
					c-0.369-1.291,0.667-2.688,2.286-3.231c1.032-0.348,1.615-0.082,1.913,0.295c-0.125-0.344-0.187-0.514-0.312-0.855
					c0.587-0.214,0.88-0.323,1.464-0.551c0.416,1.063,0.623,1.595,1.038,2.658c-0.608,0.236-0.914,0.353-1.526,0.575
					c-0.02-0.056-0.028-0.082-0.048-0.138c-0.152-0.417-0.849-0.956-2.047-0.554c-0.456,0.153-0.966,0.63-0.828,1.064
					c0.134,0.423,0.667,0.446,1.808,0.353C262.581,420.442,264.615,420.109,265.392,422.072z"/>
			</g>
		</g>
	</g>
	<g>
		<path fill="#E9E9EA" d="M316.655,315.841c-0.893,0-1.755,0.117-2.586,0.318c-8.769-28.625-38.907-49.727-74.753-49.727
			c-35.845,0-65.983,21.102-74.753,49.727c-0.83-0.201-1.693-0.318-2.586-0.318c-6.074,0-11,4.924-11,11c0,6.074,4.926,11,11,11
			c0.068,0,0.133-0.01,0.199-0.011c2.715,33.828,36.201,49.416,77.14,49.416c40.938,0,74.426-15.588,77.14-49.416
			c0.067,0.001,0.132,0.011,0.199,0.011c6.075,0,11-4.926,11-11C327.655,320.765,322.731,315.841,316.655,315.841z"/>
		<g>
			<circle cx="198.574" cy="323.548" r="7.5"/>
			<circle fill="#FFFFFF" cx="196.08" cy="321.505" r="3.03"/>
		</g>
		<g>
			<circle cx="279.074" cy="323.548" r="7.5"/>
			<circle fill="#FFFFFF" cx="276.581" cy="321.505" r="3.03"/>
		</g>
		<path fill="none" stroke="#000000" stroke-width="3" stroke-linecap="round" stroke-miterlimit="10" d="M239.317,318.476
			c0,0,0.812,8.269,4.312,12.572l-4.312,3.555"/>
		<path fill="none" stroke="#000000" stroke-width="3" stroke-linecap="round" stroke-miterlimit="10" d="M227.048,341.312
			c0,5.105,3.842,12.916,12.318,12.916s12.827-6.48,12.827-12.826"/>
		<path fill="#604E75" d="M239.62,242.835c-11.729,23.599-36.259,25.295-44.533,30.223c-1.883,0.931-3.639,1.908-5.252,2.928
			l-0.01,0.006h0.002c-2.632,1.663-4.881,3.431-6.616,5.278c-10.324,11.001-19.127,25.778-18.647,34.891
			c0,0,2.814,3.334,2.814,7.389h5.5c0,0,0.5-26.445,16-36.445c0,0,25.348-10.674,48.514-9.84
			c23.167,0.833,50.819,8.674,50.819,8.674c19.667,12.667,17.667,37.611,17.667,37.611h5.333c0.166-4.055,2.858-7.389,2.858-7.389
			c-1.796-21.188-14.808-32.052-22.938-38.056h0.001c-0.001,0-0.001,0-0.001,0c-1.28-0.945-2.444-1.774-3.42-2.502
			c-1.853-1.379-4.369-2.846-7.428-4.274C249.059,264.002,239.62,242.835,239.62,242.835z"/>
	</g>
</g>
<g>
	<g>
		<path fill="#E9E9EA" d="M616.509,376.813h2.438c5.94,0,10.8,4.86,10.8,10.8v32.733c0,5.938-4.858,10.8-10.8,10.8h-2.438V376.813z"
			/>
		<path fill="#E9E9EA" d="M537.602,376.813h-2.438c-5.939,0-10.801,4.86-10.801,10.8v32.733c0,5.938,4.86,10.8,10.801,10.8h2.438
			V376.813z"/>
		<path fill="#333333" d="M618.946,376.813h-2.438h-78.907h-2.438c-5.939,0-10.801,4.86-10.801,10.8v5.699h13.238v54.5h78.907v-54.5
			h13.236v-5.699C629.746,381.674,624.887,376.813,618.946,376.813z"/>
		<polygon fill="#B69FCC" points="537.602,447.813 537.602,464.479 537.602,504.146 566.391,504.146 566.391,464.479 
			587.719,464.479 587.719,504.146 616.509,504.146 616.509,464.479 616.509,447.813 		"/>
		<path d="M551.996,518.54c7.949,0,14.396-6.443,14.396-14.395h-28.789C537.602,512.097,544.046,518.54,551.996,518.54z"/>
		<path d="M602.113,518.54c7.951,0,14.396-6.443,14.396-14.395h-28.79C587.719,512.097,594.164,518.54,602.113,518.54z"/>
		<path fill="#B69FCC" d="M551.996,489.752c-7.95,0-14.395,6.443-14.395,14.395h28.789
			C566.391,496.196,559.945,489.752,551.996,489.752z"/>
		<path fill="#B69FCC" d="M602.113,489.752c-7.949,0-14.395,6.443-14.395,14.395h28.79
			C616.509,496.196,610.064,489.752,602.113,489.752z"/>
		<g>
			<g>
				<path fill="#B69FCC" d="M553.334,395.329c1.531-0.45,2.302-0.657,3.848-1.034c0.162,0.665,0.243,0.997,0.405,1.661
					c-0.459,0.112-0.688,0.17-1.146,0.287c-0.075,1.264-1.269,7.852-1.242,8.56c-0.533,0.164-0.798,0.248-1.328,0.422
					c-0.389-0.593-5.555-5.688-5.987-6.256c-0.439,0.167-0.659,0.252-1.098,0.425c-0.252-0.637-0.378-0.954-0.63-1.591
					c1.646-0.651,2.474-0.953,4.143-1.516c0.218,0.648,0.328,0.973,0.546,1.62c-0.147,0.05-0.225,0.075-0.371,0.126
					c0.647,0.689,3.134,3.495,3.134,3.495c0.151-0.039,0.689-3.631,0.781-4.725c-0.229,0.064-0.342,0.099-0.569,0.166
					C553.624,396.313,553.527,395.985,553.334,395.329z"/>
				<path fill="#B69FCC" d="M571.833,397.733c-0.11,1.588-0.162,2.381-0.252,3.969c-3.275,0.242-4.915,0.455-8.155,1.061
					c-0.125-0.673-0.186-1.01-0.311-1.684c0.354-0.065,0.53-0.097,0.886-0.157c-0.424-2.434-0.635-3.651-1.059-6.084
					c-0.384,0.066-0.576,0.103-0.96,0.174c-0.125-0.673-0.188-1.007-0.313-1.681c3.425-0.639,5.149-0.868,8.608-1.148
					c0.501,1.267,0.742,1.9,1.213,3.174c-0.761,0.053-1.14,0.084-1.899,0.154c-0.243-0.665-0.527-1.514-1.679-1.384
					c-1,0.111-1.5,0.175-2.498,0.316c0.117,0.818,0.179,1.229,0.295,2.048c0.525-0.074,0.786-0.109,1.313-0.177
					c-0.035-0.276-0.055-0.414-0.089-0.689c0.753-0.096,1.131-0.141,1.886-0.218c0.126,1.23,0.189,1.851,0.316,3.08
					c-0.727,0.074-1.09,0.115-1.813,0.206c-0.034-0.271-0.051-0.407-0.085-0.679c-0.515,0.063-0.773,0.099-1.287,0.172
					c0.136,0.948,0.204,1.422,0.34,2.37c1.139-0.163,1.707-0.234,2.85-0.354c0.524-0.055,0.766-1.287,0.863-2.326
					C570.734,397.81,571.101,397.782,571.833,397.733z"/>
				<path fill="#B69FCC" d="M584.743,400.18c-0.068,0.687-0.104,1.03-0.174,1.717c-0.966-0.099-1.449-0.139-2.417-0.205
					c-0.351-0.188-1.036-0.752-0.972-1.954c0.037-0.684-0.438-2.09-1.903-2.31c-0.027,0.958-0.043,1.435-0.069,2.393
					c0.365,0.012,0.549,0.02,0.912,0.033c-0.026,0.689-0.043,1.033-0.069,1.723c-1.609-0.064-2.414-0.074-4.024-0.053
					c-0.01-0.688-0.013-1.037-0.021-1.727c0.428-0.006,0.64-0.006,1.066-0.006c0-2.471-0.001-3.706,0.001-6.176
					c-0.462,0-0.693,0.001-1.156,0.009c-0.01-0.686-0.014-1.023-0.021-1.708c1.9-0.026,2.852-0.014,4.751,0.067
					c2.531,0.108,3.188,1.734,3.088,2.948c-0.085,1.021-1.07,1.938-1.1,2.14c-0.041,0.281,0.788,1.623,0.705,2.635
					c-0.028,0.341,0.341,0.373,0.341,0.373C584.104,400.117,584.317,400.137,584.743,400.18z M580.091,395.74
					c0.886,0.033,1.333-0.443,1.36-0.964c0.028-0.519-0.329-1.063-1.084-1.094c-0.395-0.016-0.593-0.024-0.986-0.035
					c-0.023,0.826-0.035,1.241-0.06,2.067C579.63,395.724,579.784,395.729,580.091,395.74z"/>
				<path fill="#B69FCC" d="M598.667,399.722c-0.751,2.646-3.4,3.994-5.964,3.441c-1.639-0.353-2.461-0.505-4.111-0.764
					c0.105-0.682,0.158-1.021,0.266-1.704c0.339,0.054,0.507,0.081,0.846,0.139c0.407-2.42,0.61-3.623,1.021-6.042
					c-0.366-0.063-0.549-0.094-0.915-0.15c0.107-0.688,0.162-1.03,0.271-1.717c1.864,0.293,2.793,0.464,4.644,0.861
					C597.83,394.456,599.419,397.075,598.667,399.722z M592.014,401.262c0.292,0.059,0.438,0.09,0.729,0.15
					c2.09,0.44,3.18-0.839,3.553-2.324c0.375-1.5-0.242-3.243-2.289-3.676c-0.315-0.065-0.476-0.1-0.79-0.162
					C592.733,397.654,592.495,398.856,592.014,401.262z"/>
				<path fill="#B69FCC" d="M603.636,396.271c1.733,0.58,2.596,0.893,4.305,1.569c-0.252,0.637-0.378,0.954-0.63,1.591
					c-0.367-0.146-0.552-0.219-0.921-0.359c-0.88,2.301-1.321,3.451-2.2,5.752c0.341,0.131,0.512,0.199,0.852,0.334
					c-0.25,0.632-0.373,0.947-0.623,1.578c-1.515-0.6-2.276-0.878-3.813-1.392c0.215-0.645,0.32-0.967,0.536-1.61
					c0.345,0.115,0.518,0.175,0.86,0.294c0.81-2.327,1.213-3.488,2.021-5.815c-0.372-0.129-0.557-0.195-0.929-0.32
					C603.311,397.241,603.419,396.92,603.636,396.271z"/>
			</g>
		</g>
	</g>
	<g>
		<path fill="#E9E9EA" d="M654.09,311.182c-0.894,0-1.757,0.117-2.587,0.318c-8.77-28.624-38.907-49.726-74.753-49.726
			c-35.845,0-65.982,21.102-74.753,49.726c-0.83-0.201-1.692-0.318-2.586-0.318c-6.073,0-11,4.925-11,11c0,6.074,4.927,11,11,11
			c0.068,0,0.133-0.009,0.199-0.01c2.715,33.828,36.201,49.416,77.14,49.416s74.426-15.589,77.141-49.416
			c0.065,0.001,0.131,0.01,0.199,0.01c6.073,0,11-4.926,11-11C665.09,316.106,660.164,311.182,654.09,311.182z"/>
		<path fill="none" stroke="#000000" stroke-width="3" stroke-linecap="round" stroke-miterlimit="10" d="M576.751,313.816
			c0,0,0.813,8.27,4.313,12.573l-4.313,3.555"/>
		<g>
			<path fill="#FFFFFF" d="M589.323,349.659c0,6.347-4.351,12.827-12.827,12.827c-8.476,0-12.317-7.812-12.317-12.917
				c2.218,2.538,6.267,4.654,12.506,4.654C582.688,354.224,586.878,351.982,589.323,349.659z"/>
			<path fill="none" stroke="#000000" stroke-width="3" stroke-linecap="round" stroke-miterlimit="10" d="M564.178,349.569
				c2.218,2.538,6.267,4.654,12.506,4.654c6.005,0,10.193-2.241,12.64-4.564"/>
			<path fill="none" stroke="#000000" stroke-width="3" stroke-linecap="round" stroke-miterlimit="10" d="M564.178,349.569
				c0,5.105,3.842,12.917,12.317,12.917c8.477,0,12.827-6.48,12.827-12.827"/>
		</g>
		<path fill="#E9E9EA" d="M653.891,333.171c0.065,0.001,0.131,0.011,0.198,0.011c6.074,0,11-4.926,11-11c0-6.076-4.926-11-11-11
			c-0.893,0-1.756,0.117-2.586,0.318l-5.524,12.449L653.891,333.171z"/>
		<path fill="#E9E9EA" d="M499.612,333.171c-0.065,0.001-0.131,0.011-0.199,0.011c-6.073,0-11-4.926-11-11c0-6.076,4.927-11,11-11
			c0.894,0,1.756,0.117,2.586,0.318l5.525,12.449L499.612,333.171z"/>
		<circle fill="#C4C4C3" cx="530.884" cy="345.547" r="9.595"/>
		<circle fill="#C4C4C3" cx="623.128" cy="345.547" r="9.595"/>
		<path fill="#604E75" d="M499.313,279.177c-22.223,21.148-24.334,70.333-6,91.667c18.334,21.333,2.333,36.333-8,38
			c-10.333,1.666-19.334-9.334-19.334-9.334c0.396,3.442,1.352,6.445,2.728,9.067c-2.298-1.246-4.663-2.778-5.649-4.241
			c0,0,4.06,8.138,10.563,10.582c1.052,0.96,2.185,1.831,3.39,2.612c-4.779,3.224-11.028,3.232-11.028,3.232
			c21.871,4.82,29.543,3.684,32.228,2.422c0.045,0.001,0.089,0.002,0.132,0.003c-6.029,5.187-15.043,5.575-15.043,5.575
			c15.602-0.252,24.274-3.078,29.048-5.824c-3.5,4.729-7.381,7.491-7.381,7.491c6.906-1.829,11.89-7.023,15.075-11.569
			c0.249-0.113,0.495-0.229,0.737-0.348c-1.121,7.074-2.813,8.917-2.813,8.917c7.492-7.067,11.744-14.213,14.115-19.518
			c1.328-2.516,2.226-5.241,2.737-8.047c0.056-0.271,0.08-0.419,0.08-0.419s-0.004,0.002-0.005,0.002
			c2.012-11.918-2.79-25.03-10.526-28.589c-11.635-5.352-33.218-30.908-22.364-59.36c9.969-26.137,31.093-24.861,41.511-29.656
			c10.137-4.667,17.804-17.667,17.804-17.667C547.646,249.51,522.151,257.441,499.313,279.177z"/>
		<path fill="#604E75" d="M618.598,405.986c-0.075,12.131,5.55,21.568,17.362,32.11c0,0-1.789-4.335,3.293-7.784
			c0.051,0.024,0.099,0.05,0.147,0.074c2.565,4.865,9.68,11.211,29.393,10.377c0,0-5.979-0.936-10.978-5.67
			c5.228,1.792,15.366,3.506,31.978-0.363c0,0-9.593,0.265-8.693-6.748c13.528-8.509,9.918-19.139,9.918-19.139s-4,8.999-16,8.999
			s-31.332-16.667-16.666-52.333s12.495-75.284-14.373-98c-17.742-15-44.627-27-74.627-17.334c0,0-24.965,11-16.982,23.334
			c7.983,12.334,22.943-1.666,44.315,0c12.526,0.977,45.949,10.863,55.191,37.99c8.353,24.51-6.813,49.141-15.473,54.741
			C629.515,370.7,618.647,393.867,618.598,405.986z"/>
		<path fill="none" stroke="#000000" stroke-width="3" stroke-linecap="round" stroke-miterlimit="10" d="M523.878,312.424
			c0,2.075,1.562,5.25,5.007,5.25c3.444,0,5.214-2.636,5.214-5.213"/>
		<path fill="none" stroke="#000000" stroke-width="3" stroke-linecap="round" stroke-miterlimit="10" d="M528.987,307.634
			c0,2.075,1.562,5.25,5.006,5.25c1.54,0,2.744-0.526,3.605-1.338"/>
		<path fill="none" stroke="#000000" stroke-width="3" stroke-linecap="round" stroke-miterlimit="10" d="M628.903,307.634
			c0,2.075-1.561,5.25-5.006,5.25c-1.539,0-2.744-0.526-3.605-1.338"/>
		<path fill="none" stroke="#000000" stroke-width="3" stroke-linecap="round" stroke-miterlimit="10" d="M623.716,312.424
			c0,2.075,1.561,5.25,5.006,5.25c3.444,0,5.214-2.636,5.214-5.213"/>
		<g>
			<circle cx="538.598" cy="315.148" r="7.5"/>
			<circle fill="#FFFFFF" cx="536.104" cy="313.105" r="3.03"/>
		</g>
		<g>
			<circle cx="619.098" cy="315.148" r="7.5"/>
			<circle fill="#FFFFFF" cx="616.604" cy="313.105" r="3.03"/>
		</g>
	</g>
</g>
</svg>
