<?xml version="1.0" encoding="utf-8"?>
<!-- Generator: Adobe Illustrator 16.0.0, SVG Export Plug-In . SVG Version: 6.00 Build 0)  -->
<!DOCTYPE svg PUBLIC "-//W3C//DTD SVG 1.1//EN" "http://www.w3.org/Graphics/SVG/1.1/DTD/svg11.dtd">
<svg version="1.1" id="Layer_1" xmlns="http://www.w3.org/2000/svg" xmlns:xlink="http://www.w3.org/1999/xlink" x="0px" y="0px"
	 width="545.563px" height="342.098px" viewBox="-156.106 -65.397 545.563 342.098"
	 enable-background="new -156.106 -65.397 545.563 342.098" xml:space="preserve">
<g>
	<polygon fill="#C5B6D8" points="-69.957,-65.397 -53.676,-40.006 -26.882,-53.854 -25.479,-23.727 4.652,-22.322 -9.199,4.473 
		16.192,20.752 -9.199,37.033 4.652,63.827 -25.479,65.23 -26.882,95.358 -53.676,81.512 -69.957,106.901 -86.237,81.512 
		-113.03,95.358 -114.434,65.23 -144.565,63.827 -130.712,37.033 -156.105,20.752 -130.712,4.473 -144.565,-22.322 
		-114.434,-23.727 -113.03,-53.854 -86.237,-40.006 	"/>
	<circle fill="#B69FCC" cx="-69.957" cy="20.753" r="59.967"/>
</g>
<path fill="#786B89" d="M354.562,55.432c-10.258-4.949-17.258-13.638-21.547-26.825c-8.43,22.665-26.17,31.971-48.834,31.971
	c-25.949,0-41.496-9.416-48.834-31.971c-8.43,22.665-25.871,31.971-48.537,31.971c-25.949,0-41.2-9.416-48.538-31.971
	c-8.43,22.665-26.168,31.971-48.832,31.971c-25.95,0-41.497-9.416-48.834-31.971c-8.43,22.665-25.872,31.971-48.537,31.971
	c-25.949,0-41.2-9.416-48.537-31.971c-8.43,22.665-26.169,31.971-48.833,31.971v129.407h459.863V55.432z"/>
<radialGradient id="SVGID_1_" cx="99.229" cy="133.8594" r="189.3483" gradientTransform="matrix(1 0 0 -1 0 253.666)" gradientUnits="userSpaceOnUse">
	<stop  offset="0" style="stop-color:#604E75"/>
	<stop  offset="1" style="stop-color:#604E75"/>
</radialGradient>
<path fill="url(#SVGID_1_)" d="M354.562,66.634c-7.004,3.043-15.014,4.455-23.814,4.455c-25.949,0-41.199-9.416-48.537-31.971
	c-8.43,22.665-26.168,31.971-48.832,31.971c-25.949,0-41.498-9.416-48.834-31.971c-8.432,22.665-25.873,31.971-48.538,31.971
	c-25.949,0-41.2-9.416-48.537-31.971C79.039,61.783,61.3,71.088,38.636,71.088c-25.949,0-41.497-9.416-48.834-31.971
	c-8.43,22.665-25.872,31.971-48.537,31.971c-25.949,0-41.2-9.416-48.537-31.971c-8.43,22.665-26.168,31.971-48.833,31.971v129.407
	h510.667V66.634z"/>
<path fill="#C4C4C3" d="M70.76,120.944c148.032-18.132,161.171-23.038,283.802-22.602v50.813V276.7h-510.668V149.156v-24.972
	C-156.106,124.185-77.272,139.076,70.76,120.944z"/>
<line fill="none" stroke="#604E75" stroke-miterlimit="10" x1="-156.106" y1="71.087" x2="-156.106" y2="276.702"/>
<path d="M68.161,249.534c7.95,0,14.396-6.444,14.396-14.395h-28.79C53.766,243.089,60.21,249.534,68.161,249.534z"/>
<path fill="#B69FCC" d="M53.766,193.2v16.667v25.667h28.79v-25.667h21.329v24.272l0,0c0,0.002,0,0.006,0,0.01v0.385h0.02
	c0.211,7.766,6.559,14,14.376,14s14.164-6.234,14.376-14h0.02v-24.667V193.2H53.766z"/>
<path fill="#9B85B5" d="M68.161,204.745c-7.95,0-14.395,6.443-14.395,14.395v16h28.79v-16
	C82.556,211.188,76.111,204.745,68.161,204.745z"/>
<path fill="#5B5C5C" d="M132.657,122.201H53.896c2.379,5.5-0.799,10.999-0.343,16.499h0.213v54.5h78.908v-54.5h0.558
	C130.956,133.2,132.553,127.701,132.657,122.201z"/>
<g>
	<ellipse fill="#A28BBB" cx="79.028" cy="153.542" rx="2.365" ry="6.75"/>
	<polygon fill="#A28BBB" points="105.793,176.417 100.411,171.417 100.411,160.292 105.793,165.292 	"/>
	<rect x="79.027" y="160.292" fill="#A893C0" width="21.384" height="11.125"/>
	<rect x="79.027" y="146.792" fill="#B69FCC" width="21.384" height="13.5"/>
	<path fill="#A28BBB" d="M100.411,146.792c-1.308,0.002-2.365,3.023-2.365,6.75s1.059,6.748,2.365,6.75V146.792z"/>
	<path fill="#C4C4C3" d="M96.187,155.283l2.758-2.688l-1.422-1.359h-1.796l1.378-1.344l-2.58-2.47H89.11l-2.579,2.468l1.378,1.346
		h-1.87l-1.422,1.358l2.757,2.689c-3.018,1.588-5.077,4.749-5.077,8.395c0,5.238,4.246,9.484,9.484,9.484
		c5.238,0,9.484-4.246,9.484-9.484C101.266,160.031,99.206,156.87,96.187,155.283z M95.567,154.983
		c-0.908-0.396-1.89-0.653-2.92-0.746l1.077-1.051L95.567,154.983z M89.874,153.149l1.11,1.084
		c-1.057,0.088-2.063,0.347-2.993,0.752L89.874,153.149z M91.781,171.037c-4.064,0-7.359-3.295-7.359-7.359
		c0-4.063,3.295-7.358,7.359-7.358c4.064,0,7.359,3.296,7.359,7.358C99.141,167.742,95.846,171.037,91.781,171.037z"/>
	<polygon fill="#A28BBB" points="84.41,176.417 79.027,171.417 79.027,160.292 84.41,165.292 	"/>
	<rect x="84.41" y="165.292" fill="#B69FCC" width="21.383" height="11.125"/>
	<polygon fill="#FFFFFF" points="91.781,137.485 92.173,148.96 99.235,139.907 92.808,149.421 103.842,146.248 93.05,150.167 
		103.842,154.085 92.808,150.913 99.235,160.427 92.173,151.373 91.781,162.849 91.39,151.373 84.327,160.427 90.755,150.913 
		79.72,154.085 90.513,150.167 79.72,146.248 90.755,149.421 84.327,139.907 91.39,148.96 	"/>
</g>
<path fill="#E9E9EA" d="M51.328,122.201h2.438v25.466h0.039l28.725,20.714l-1.427,1.978c-3.472,4.818-11.151,5.271-17.062,1.01
	l-17.978-12.965c0,0-5.534-3.902-5.534-10.735V133C40.529,127.062,45.388,122.201,51.328,122.201z"/>
<g>
	<path fill="#E9E9EA" d="M170.254,56.819c-0.894,0-1.756,0.118-2.586,0.318C158.9,28.513,128.761,7.412,92.916,7.412
		S26.932,28.513,18.164,57.137c-0.831-0.201-1.693-0.318-2.586-0.318c-6.075,0-11,4.925-11,11c0,6.075,4.925,11,11,11
		c0.067,0,0.132-0.009,0.199-0.01c2.714,33.829,36.201,49.417,77.139,49.417s74.424-15.587,77.139-49.417
		c0.066,0.001,0.132,0.01,0.199,0.01c6.074,0,11-4.925,11-11C181.254,61.744,176.331,56.819,170.254,56.819z"/>
	<g>
		<circle cx="52.174" cy="64.527" r="7.5"/>
		<circle fill="#FFFFFF" cx="49.68" cy="62.484" r="3.03"/>
	</g>
	<g>
		<circle cx="132.674" cy="64.527" r="7.5"/>
		<circle fill="#FFFFFF" cx="130.18" cy="62.484" r="3.03"/>
	</g>
	<path fill="#B69FCC" d="M141.311,16.582c-7.167-5.333-24.172-11.994-44.658-12.637c-22.176-0.696-49.676,7.471-59.842,18.304
		c-10.325,11-19.127,25.777-18.647,34.888c0,0,2.813,3.335,2.813,7.39h5.5c0,0,0.5-26.445,16-36.445c0,0,7.5-0.833,10.167,4.833
		c0,0,4.227-3.333,2.03-6.5c0,0,24.428-4.833,39.928,10.792c0,0,3.125-5.542,0.875-7.542c0,0,16.125,0.667,22.375,7.917
		c0,0,0.875-2.417,0-5c-0.445-1.313,23.625-1.875,29.75,7.25c0,0,0.667-8.583-5.791-12.917
		c19.666,12.667,17.666,37.612,17.666,37.612h5.333c0.166-4.055,2.858-7.39,2.858-7.39C165.59,32.613,148.477,21.915,141.311,16.582
		z"/>
	<path fill="none" stroke="#000000" stroke-width="3" stroke-linecap="round" stroke-miterlimit="10" d="M92.916,59.454
		c0,0,0.811,8.268,4.311,12.573l-4.311,3.555"/>
	<path fill="none" stroke="#000000" stroke-width="3" stroke-linecap="round" stroke-miterlimit="10" d="M80.647,82.29
		c0,5.106,3.842,12.917,12.319,12.917s12.828-6.482,12.828-12.827"/>
</g>
<path fill="#5B5C5C" d="M53.896,122.201h-0.13h-2.438c-5.94,0-10.8,4.86-10.8,10.8v5.699h13.024
	C53.097,133.2,56.275,127.701,53.896,122.201z"/>
<path fill="#E9E9EA" d="M135.113,122.201h-2.438v25.466h-0.038l-28.726,20.714l1.428,1.978c3.472,4.818,11.15,5.271,17.062,1.01
	l17.978-12.965c0,0,5.535-3.902,5.535-10.735V133C145.913,127.062,141.051,122.201,135.113,122.201z"/>
<g>
	<path fill="#E9E9EA" d="M273.246,130.299h2.439c5.939,0,10.799,4.86,10.799,10.8v32.733c0,5.938-4.859,10.8-10.799,10.8h-2.439
		V130.299z"/>
	<path fill="#E9E9EA" d="M194.339,130.299H191.9c-5.938,0-10.801,4.86-10.801,10.8v32.733c0,5.938,4.861,10.8,10.801,10.8h2.439
		V130.299z"/>
	<path fill="#333333" d="M275.685,130.299h-2.439h-78.906H191.9c-5.938,0-10.801,4.86-10.801,10.8v5.699h13.238v54.5h78.908v-54.5
		h13.236v-5.699C286.482,135.16,281.625,130.299,275.685,130.299z"/>
	<polygon fill="#B69FCC" points="194.339,201.298 194.339,217.965 194.339,257.632 223.128,257.632 223.128,217.965 
		244.457,217.965 244.457,257.632 273.246,257.632 273.246,217.965 273.246,201.298 	"/>
	<path d="M208.732,272.027c7.949,0,14.396-6.444,14.396-14.396h-28.789C194.339,265.582,200.783,272.027,208.732,272.027z"/>
	<path d="M258.851,272.027c7.951,0,14.395-6.444,14.395-14.396h-28.789C244.457,265.582,250.9,272.027,258.851,272.027z"/>
	<path fill="#B69FCC" d="M208.732,243.238c-7.949,0-14.395,6.444-14.395,14.395h28.789
		C223.128,249.683,216.683,243.238,208.732,243.238z"/>
	<path fill="#B69FCC" d="M258.851,243.238c-7.949,0-14.395,6.444-14.395,14.395h28.791
		C273.246,249.683,266.802,243.238,258.851,243.238z"/>
	<g>
		<path fill="#604E75" d="M337.55,146.405c0,0-3.639,8.182-14.547,8.182s-28.484-15.152-15.15-47.578
			c8.184-19.902,10.588-41.154,5.584-59.379v-0.043l-0.014-0.012c-3.152-11.444-9.219-21.696-18.639-29.659
			c-16.131-13.639-40.57-24.548-67.846-15.76c0,0-7.768,3.427-12.76,8.515c-13.051-6.99-32.891,0.697-50.914,17.85
			c-20.203,19.227-22.123,63.942-5.455,83.337s2.121,33.032-7.273,34.547c-9.393,1.515-17.574-8.485-17.574-8.485
			c1.758,15.297,15.35,21.298,29.09,21.521l-0.008,0.02c0,0,0.113-0.005,0.32-0.013c2.197,0.021,4.395-0.104,6.545-0.363
			c0.854-0.058,1.766-0.12,2.729-0.192c-4.191,7.426-7.055,9.018-8.5,9.248c11.434,1.022,26.732-3.394,36.965-7.015
			c-1.83,5-3.348,6.415-4.203,6.785c16.377-1.794,25.922-8.649,31.314-14.854l0.164-0.111c1.871,6.07,5.688,14.591,12.771,17.039
			c0,0-2.443-4.873-2.127-9.573c6.1,4.875,14.313,9.043,24.855,9.53c0,0-6.359-4.705-9.248-11.549
			c9.68,7.49,25.842,16.881,46.066,16.881c0,0-3.326-0.181-5.742-5.894c3.721,0.54,7.521,0.753,11.336,0.486l-0.002-0.007
			c4.902,0.307,10.064-0.326,15.289-2.24C342.095,159.739,337.55,146.405,337.55,146.405z"/>
		<path fill="#604E75" d="M195.9,167.909c-0.254,0.027-0.494,0.064-0.752,0.091C195.148,167.999,195.421,168.118,195.9,167.909z"/>
		<path fill="#604E75" d="M163.138,168.138c-0.365-0.031-0.736-0.06-1.094-0.104C162.044,168.034,162.416,168.254,163.138,168.138z"
			/>
	</g>
</g>
<path fill="#5B5C5C" d="M145.911,133c0-5.938-4.859-10.8-10.799-10.8h-2.438h-0.02c-0.104,5.5-1.699,10.999,0.576,16.499h12.68V133
	L145.911,133z"/>
<rect x="52.042" y="122.201" fill="#5B5C5C" width="6.125" height="16.499"/>
<rect x="128.954" y="122.201" fill="#5B5C5C" width="6.125" height="16.499"/>
<g>
	<path fill="#B69FCC" d="M389.457-5.024c0-33.343-32.459-60.373-72.5-60.373s-72.5,27.03-72.5,60.373
		c0,33.343,32.459,60.373,72.5,60.373c1.516,0,3.016-0.051,4.506-0.127c1.424,7.44-2.766,14.947-23.006,17.382
		c0,0,45,7.442,63.145-30.076C378.552,31.476,389.457,14.292,389.457-5.024z"/>
	<text transform="matrix(1 0 0 1 253.2427 15.0205)" fill="#604E75" font-family="'Cubano-Regular'" font-size="55.7451">OMG!</text>
</g>
</svg>
