<?xml version="1.0" encoding="utf-8"?>
<!-- Generator: Adobe Illustrator 16.0.0, SVG Export Plug-In . SVG Version: 6.00 Build 0)  -->
<!DOCTYPE svg PUBLIC "-//W3C//DTD SVG 1.1//EN" "http://www.w3.org/Graphics/SVG/1.1/DTD/svg11.dtd">
<svg version="1.1" id="Layer_1" xmlns="http://www.w3.org/2000/svg" xmlns:xlink="http://www.w3.org/1999/xlink" x="0px" y="0px"
	 width="508px" height="284px" viewBox="0 -79 508 284" enable-background="new 0 -79 508 284" xml:space="preserve">
<g>
	<g>
		<path fill="#B69FCC" d="M53.425,17.528c2.092-0.233,3.754,0.986,3.964,2.901c1.726,15.74,3.444,31.482,5.166,47.223
			c2.091,16.191-9.639,27.233-25.103,29.127C23.256,98.518,9.347,92.023,6.367,77.192c-0.291-1.446,0.525-2.778,2.059-3.318
			c4.855-1.763,7.289-2.636,12.163-4.365c2.316-0.74,4.362,0.533,4.949,2.692c1.225,4.506,3.553,7.081,9.62,6.318
			c8.314-1.045,8.276-6.085,7.291-14.265c-1.668-13.844-3.336-27.689-5.006-41.533c-0.23-1.912,1.114-3.477,3.204-3.725
			C45.756,18.391,48.311,18.098,53.425,17.528z"/>
		<path fill="#B69FCC" d="M128.981,61.647c1.479,16.246-10.688,26.805-26.154,28.16c-15.459,1.354-29.3-6.919-30.661-23.18
			c-1.105-10.642-1.659-15.962-2.764-26.604c-2.021-16.8,10.669-27.27,26.551-28.662c15.884-1.393,30.185,6.716,31.121,23.607
			C127.836,45.639,128.219,50.975,128.981,61.647z M107.766,42.141c-0.678-8.21-1.669-13.196-10.207-12.447
			s-8.648,5.83-7.887,14.033c0.569,6.137,0.854,9.203,1.423,15.34c0.761,8.204,1.787,13.14,10.126,12.409
			c8.34-0.731,8.491-5.77,7.813-13.98C108.527,51.353,108.272,48.283,107.766,42.141z"/>
		<path fill="#B69FCC" d="M152.171,9.234c2.332-0.132,3.558,0.874,3.675,3.01c1.247,22.792,2.498,45.583,3.744,68.374
			c0.111,2.03-0.94,3.266-3.177,3.393c-4.921,0.279-7.381,0.427-12.301,0.741c-2.124,0.135-3.432-0.957-3.565-2.986
			c-1.497-22.777-2.994-45.553-4.488-68.33c-0.14-2.135,1.07-3.288,3.285-3.429C144.474,9.68,147.04,9.525,152.171,9.234z"/>
		<path fill="#B69FCC" d="M187.986,7.556c1.984-0.073,3.296,0.63,4.172,2.313c5.684,11.668,11.28,23.378,16.78,35.134
			c0.482,0.951,1.391,0.713,1.364-0.356c-0.291-11.516-0.583-23.033-0.874-34.549c-0.054-2.139,1.202-3.242,3.419-3.293
			c5.23-0.123,7.845-0.174,13.075-0.259c2.334-0.038,3.519,1.017,3.55,3.156c0.323,22.823,0.651,45.646,0.979,68.469
			c0.029,2.033-1.075,3.224-3.313,3.26c-6.583,0.107-9.874,0.176-16.456,0.345c-1.903,0.049-3.155-0.665-3.987-2.354
			c-5.421-11.749-10.935-23.455-16.546-35.114c-0.492-0.945-1.399-0.697-1.359,0.372c0.429,11.512,0.86,23.023,1.289,34.535
			c0.076,2.032-0.998,3.249-3.236,3.336c-5.013,0.197-7.521,0.304-12.533,0.537c-2.125,0.099-3.413-1.017-3.511-3.048
			c-1.103-22.798-2.208-45.597-3.31-68.396c-0.104-2.137,1.128-3.269,3.345-3.372C177.693,7.953,181.124,7.81,187.986,7.556z"/>
		<path fill="#B69FCC" d="M292.008,6.669c2.336,0.047,3.479,1.144,3.432,3.283c-0.306,13.977-0.61,27.954-0.918,41.931
			c-0.181,8.237,0.275,13.258,8.638,13.483c8.362,0.226,9.089-4.765,9.353-12.999c0.444-13.973,0.895-27.946,1.341-41.919
			c0.068-2.139,1.385-3.167,3.602-3.092c5.229,0.177,7.845,0.275,13.072,0.49c2.333,0.096,3.454,1.215,3.361,3.353
			c-0.686,15.856-1.361,31.712-2.046,47.568c-0.382,16.3-13.662,25.413-29.179,24.994c-15.513-0.418-28.286-10.232-27.785-26.528
			c0.17-15.87,0.351-31.74,0.519-47.61c0.023-2.14,1.317-3.196,3.535-3.167C284.161,6.522,286.777,6.565,292.008,6.669z"/>
		<path fill="#B69FCC" d="M383.798,37.416c-2.328,0.263-3.391-0.801-3.607-2.935c-0.448-4.39-4.122-7.474-9.553-7.82
			c-4.504-0.287-7.804,2.768-7.106,4.491c4.674,11.57,38.486,13.65,35.354,35.314c-2.036,14.074-18.582,20.693-32.049,19.883
			c-14.001-0.842-27.744-9.417-27.965-24.694c-0.028-1.924,1.053-3.057,3.117-3.385c5.181-0.819,7.772-1.219,12.969-2
			c2.295-0.3,3.504,0.747,3.586,2.99c0.188,5.12,4.157,8.385,9.462,8.723c5.531,0.353,10.193-3.231,9.329-5.386
			c-4.847-12.087-36.373-11.323-34.723-33.757c1.073-14.598,15.921-21.39,29.198-20.545c13.646,0.868,28.579,9.126,28.56,24.155
			c-0.003,1.894-1.169,3.02-3.271,3.283C391.771,36.387,389.111,36.723,383.798,37.416z"/>
		<path fill="#C4C4C3" d="M502.396,75.456c1.143,1.673,0.914,3.263-0.851,4.419c-1.764,1.156-4.055,2.443-5.751,3.522
			c-0.621,0.395-0.705,0.983-0.314,1.468c0.801,1.147,1.202,1.72,2.001,2.867c1.345,1.807,0.896,3.366-0.952,4.405
			c-3.295,1.791-4.939,2.69-8.218,4.497c-1.838,1.05-3.473,0.615-4.599-1.151c-0.829-1.274-1.246-1.91-2.079-3.184
			c-0.377-0.588-0.954-0.67-1.534-0.416c-6.676,2.922-14.066,3.942-20.632,3.172c-10.461-1.229-17.709-7.643-20.234-14.306
			c-4.207-11.095,3.467-22.682,13.382-27.614c0.715-0.354,0.849-0.875,0.396-1.462c-3.442-4.47-6.747-12.475-3.458-21.475
			c4.074-11.15,16.724-14.583,27.337-12.259c11.183,2.448,20.98,12.97,16.673,24.777c-2.188,5.997-6.113,11.455-14.881,16.307
			c-0.619,0.342-0.8,0.869-0.301,1.471c2.478,3.417,3.713,5.129,6.164,8.555c0.383,0.589,0.945,0.659,1.564,0.313
			c1.724-0.963,3.873-2.291,5.509-3.374c1.774-1.175,3.472-0.938,4.726,0.854C498.778,70.283,499.987,72.006,502.396,75.456z
			 M470.157,77.802c0.719-0.321,0.797-0.89,0.409-1.459c-1.68-2.465-4.745-7.045-6.537-9.408c-0.358-0.473-0.954-0.649-1.443-0.385
			c-4.265,2.304-8.128,5.311-5.246,9.732C459.375,79.404,465.362,79.947,470.157,77.802z M468.016,44.997
			c0.369,0.581,0.972,0.768,1.565,0.511c3.521-1.523,6.696-3.962,7.501-6.2c0.761-2.118-0.295-6.183-4.271-7.099
			c-3.865-0.891-6.583,1.167-7.429,3.537C464.501,38.213,464.767,39.885,468.016,44.997z"/>
		<path fill="#604E75" d="M13.026,128.096c-2.268-13.244,7.306-22.945,20.066-24.543c11.695-1.464,23.235,4.389,25.289,16.643
			c0.202,1.205-0.474,2.294-1.718,2.707c-3.941,1.354-5.908,2.039-9.836,3.416c-1.866,0.586-3.506-0.488-3.976-2.291
			c-0.981-3.758-2.874-5.928-7.805-5.293c-6.759,0.871-6.662,5.093-5.758,11.886c0.676,5.082,1.013,7.623,1.689,12.705
			c0.903,6.793,1.899,10.866,8.521,10.015c4.921-0.633,5.953-3.117,6.011-7.22c0.027-1.876,1.338-3.216,3.192-2.995
			c4.177,0.385,6.263,0.584,10.432,0.996c1.29,0.119,2.183,1.027,2.273,2.334c0.822,11.943-8.568,20.63-19.952,22.068
			c-12.503,1.58-23.804-5.404-25.291-18.396C14.908,141.314,14.28,136.907,13.026,128.096z"/>
		<path fill="#604E75" d="M104.211,97.488c1.847-0.161,2.846,0.646,2.998,2.421c0.34,3.973,0.51,5.959,0.851,9.932
			c0.145,1.685-0.688,2.738-2.519,2.897c-8.862,0.772-13.291,1.188-22.145,2.076c-1.738,0.174-2.655,1.164-2.475,2.935
			c0.115,1.133,0.174,1.7,0.29,2.833c0.171,1.682,1.271,2.553,3,2.38c5.644-0.565,8.466-0.838,14.114-1.356
			c1.822-0.168,2.813,0.64,2.974,2.412c0.358,3.972,0.54,5.957,0.898,9.928c0.152,1.686-0.664,2.74-2.47,2.906
			c-5.597,0.516-8.395,0.783-13.988,1.344c-1.714,0.173-2.617,1.16-2.437,2.931c0.115,1.133,0.174,1.7,0.289,2.833
			c0.171,1.684,1.258,2.557,2.964,2.385c8.692-0.871,13.04-1.279,21.739-2.039c1.797-0.156,2.771,0.653,2.923,2.428
			c0.34,3.973,0.51,5.959,0.851,9.933c0.152,1.772-0.663,2.737-2.443,2.894c-12.472,1.084-24.932,2.311-37.376,3.68
			c-1.689,0.187-2.775-0.676-2.963-2.357c-2.103-18.871-4.206-37.74-6.309-56.611c-0.197-1.771,0.717-2.769,2.469-2.961
			C78.354,99.887,91.276,98.616,104.211,97.488z"/>
		<path fill="#604E75" d="M127.215,95.635c1.849-0.137,2.836,0.686,2.965,2.46c1.001,13.849,2.001,27.697,3.004,41.546
			c0.122,1.687,1.183,2.592,2.892,2.471c8.024-0.566,12.039-0.827,20.068-1.299c1.8-0.106,2.75,0.731,2.851,2.508
			c0.228,3.981,0.343,5.972,0.57,9.953c0.102,1.776-0.74,2.716-2.523,2.82c-11.746,0.689-23.486,1.5-35.214,2.441
			c-1.693,0.135-2.754-0.762-2.891-2.446c-1.542-18.925-3.083-37.85-4.627-56.774c-0.145-1.773,0.8-2.744,2.555-2.885
			C121.003,96.1,123.074,95.941,127.215,95.635z"/>
		<path fill="#604E75" d="M203.548,91.675c1.852-0.055,2.803,0.81,2.853,2.589c0.113,3.985,0.169,5.978,0.282,9.963
			c0.048,1.69-0.843,2.695-2.679,2.75c-8.885,0.267-13.326,0.428-22.207,0.808c-1.744,0.075-2.713,1.01-2.634,2.789
			c0.05,1.138,0.078,1.706,0.128,2.844c0.075,1.688,1.121,2.622,2.856,2.548c5.661-0.242,8.493-0.352,14.155-0.547
			c1.827-0.063,2.77,0.797,2.828,2.577c0.131,3.985,0.198,5.979,0.329,9.964c0.056,1.689-0.819,2.697-2.63,2.76
			c-5.612,0.194-8.417,0.303-14.027,0.542c-1.72,0.074-2.676,1.007-2.597,2.784c0.05,1.139,0.076,1.708,0.126,2.846
			c0.075,1.69,1.108,2.625,2.82,2.551c8.718-0.373,13.08-0.531,21.801-0.793c1.802-0.054,2.726,0.812,2.776,2.592
			c0.113,3.986,0.17,5.979,0.283,9.965c0.05,1.779-0.818,2.693-2.603,2.747c-12.501,0.375-24.998,0.888-37.487,1.539
			c-1.695,0.088-2.729-0.837-2.82-2.524c-1.022-18.96-2.043-37.92-3.066-56.88c-0.096-1.778,0.875-2.721,2.633-2.813
			C177.622,92.594,190.583,92.063,203.548,91.675z"/>
		<path fill="#604E75" d="M235.68,91.012c13.79-0.882,24.454,6.956,24.031,21.254c-0.087,2.941-4.757,12.428-4.662,12.899
			c0.151,0.756,6.223,6.365,6.406,11.669c0.428,12.339-10.983,16.932-21.758,16.441c-8.824,0.082-13.237,0.154-22.059,0.354
			c-1.696,0.038-2.702-0.917-2.743-2.607c-0.46-18.951-0.917-37.904-1.376-56.856c-0.043-1.78,0.862-2.692,2.711-2.824
			C224.01,91.167,227.899,91.102,235.68,91.012z M238.405,140.648c4.319-0.043,6.478-0.498,6.451-4.682
			c-0.026-4.183-2.021-4.796-6.364-4.753c-2.353,0.022-3.529,0.037-5.882,0.068c-1.719,0.022-2.701,0.929-2.674,2.709
			c0.025,1.638,0.038,2.456,0.063,4.094c0.027,1.78,1.029,2.654,2.739,2.631C235.006,140.686,236.138,140.672,238.405,140.648z
			 M237.451,118.407c4.376-0.046,6.561-0.591,6.524-6.109s-2.244-6.042-6.651-5.995c-1.983,0.021-2.975,0.032-4.958,0.059
			c-1.744,0.023-2.742,0.931-2.715,2.711c0.041,2.705,0.062,4.058,0.103,6.764c0.027,1.78,1.042,2.654,2.773,2.631
			C234.497,118.439,235.482,118.428,237.451,118.407z"/>
		<path fill="#604E75" d="M314.519,149.428c1.174,2.356-0.348,4.797-3.114,4.704c-4.071-0.136-6.105-0.198-10.178-0.309
			c-0.894-0.024-1.685-0.49-2.021-1.3c-3.531-7.25-5.319-10.873-8.931-18.104c-0.176-0.271-0.441-0.455-0.713-0.46
			c-1.444-0.028-2.168-0.042-3.612-0.067c-1.626-0.029-2.819,1.107-2.847,2.709c-0.092,5.625-0.137,8.438-0.229,14.062
			c-0.025,1.603-1.206,2.741-2.814,2.718c-4-0.059-5.998-0.082-10-0.115c-1.607-0.015-2.761-1.18-2.75-2.781
			c0.129-18.928,0.266-37.856,0.396-56.784c0.011-1.603,1.223-2.75,2.891-2.735c8.113,0.07,12.172,0.128,20.283,0.292
			c13.648-0.421,23.26,8.15,22.436,21.974c-0.48,8.047-2.654,13.963-7.469,17.218c-0.369,0.25-0.476,0.698-0.308,1.147
			C309.17,138.72,310.968,142.286,314.519,149.428z M286.439,106.482c-1.652-0.029-2.864,1.109-2.892,2.711
			c-0.043,2.635-0.063,3.951-0.106,6.586c-0.025,1.602,1.139,2.777,2.779,2.808c1.858,0.033,2.789,0.052,4.648,0.09
			c4.376,0.091,6.576-0.387,6.712-5.903c0.135-5.518-2.056-6.108-6.461-6.199C289.248,106.536,288.313,106.518,286.439,106.482z"/>
		<path fill="#604E75" d="M363.705,153.656c-0.126,1.955-1.086,2.961-2.869,2.85c-3.995-0.251-5.995-0.371-9.991-0.598
			c-1.694-0.096-2.627-1.039-2.527-2.815c0.171-3.093,0.258-4.64,0.429-7.731c0.099-1.777-0.753-2.717-2.551-2.813
			c-3.095-0.166-4.643-0.247-7.735-0.398c-1.708-0.084-2.739,0.759-2.823,2.537c-0.146,3.095-0.222,4.643-0.368,7.736
			c-0.084,1.778-1.018,2.625-2.803,2.543c-3.998-0.183-5.997-0.27-9.996-0.429c-1.694-0.067-2.639-1.172-2.563-3.129
			c0.479-12.57,0.97-25.14,1.444-37.71c-0.49-14.389,9.581-22.825,23.583-22.106c13.999,0.718,23.163,10.142,21.198,24.405
			C365.323,128.549,364.512,141.104,363.705,153.656z M350.419,115.057c0.235-4.267-0.287-6.443-6.342-6.755
			c-6.054-0.311-6.8,1.804-7.002,6.07c-0.185,3.876-0.278,5.813-0.462,9.69c-0.08,1.688,0.872,2.713,2.596,2.797
			c3.122,0.154,4.685,0.233,7.806,0.4c1.818,0.01,2.773-0.828,2.872-2.605C350.099,120.814,350.207,118.895,350.419,115.057z"/>
		<path fill="#604E75" d="M387.859,113.965c0.137-1.775-0.711-2.734-2.543-2.872c-5.132-0.387-7.695-0.571-12.828-0.92
			c-1.74-0.118-2.687-1.161-2.573-2.848c0.264-3.979,0.397-5.968,0.661-9.946c0.118-1.775,1.192-2.598,2.949-2.479
			c15.785,1.072,31.558,2.358,47.309,3.861c1.846,0.176,2.68,1.151,2.508,2.924c-0.385,3.969-0.575,5.953-0.96,9.922
			c-0.163,1.683-1.174,2.566-3.003,2.393c-5.124-0.489-7.687-0.723-12.813-1.173c-1.739-0.153-2.822,0.647-2.977,2.421
			c-1.193,13.833-2.384,27.667-3.58,41.5c-0.146,1.686-1.119,2.583-2.9,2.432c-3.99-0.337-5.987-0.501-9.979-0.813
			c-1.692-0.134-2.598-1.183-2.468-2.869C385.729,141.652,386.791,127.809,387.859,113.965z"/>
		<path fill="#604E75" d="M470.621,104.23c1.841,0.229,2.651,1.229,2.429,2.996c-0.499,3.957-0.748,5.935-1.247,9.891
			c-0.212,1.678-1.248,2.533-3.072,2.306c-8.837-1.1-13.26-1.621-22.104-2.606c-1.736-0.192-2.839,0.582-3.033,2.353
			c-0.124,1.132-0.187,1.699-0.311,2.832c-0.186,1.681,0.709,2.763,2.438,2.955c5.64,0.628,8.457,0.953,14.092,1.628
			c1.819,0.218,2.617,1.214,2.402,2.98c-0.479,3.959-0.717,5.938-1.197,9.896c-0.204,1.68-1.224,2.541-3.025,2.325
			c-5.585-0.669-8.379-0.993-13.968-1.616c-1.714-0.191-2.8,0.585-2.993,2.354c-0.124,1.133-0.188,1.699-0.313,2.832
			c-0.185,1.682,0.695,2.764,2.4,2.953c8.684,0.967,13.022,1.479,21.697,2.56c1.79,0.223,2.575,1.217,2.354,2.983
			c-0.499,3.955-0.747,5.937-1.246,9.893c-0.223,1.766-1.221,2.535-2.996,2.314c-12.428-1.55-24.874-2.955-37.334-4.224
			c-1.688-0.172-2.573-1.243-2.403-2.926c1.893-18.894,3.786-37.787,5.681-56.681c0.178-1.771,1.282-2.555,3.034-2.377
			C444.824,101.167,457.731,102.626,470.621,104.23z"/>
		<path fill="#604E75" d="M498.132,107.878c1.838,0.259,2.722,1.284,2.38,3.034c-2.365,12.25-4.725,24.501-7.063,36.756
			c-0.325,1.662-1.269,2.516-3.063,2.266c-4.019-0.562-6.028-0.836-10.051-1.375c-1.704-0.228-2.475-1.314-2.345-3.004
			c1.028-12.433,2.048-24.867,3.052-37.302c0.138-1.776,1.361-2.517,3.11-2.285C489.747,106.71,492.541,107.092,498.132,107.878z
			 M489.792,154.165c1.791,0.25,2.561,1.257,2.312,3.021c-0.558,3.947-0.839,5.924-1.396,9.871c-0.236,1.674-1.257,2.517-3.031,2.27
			c-3.973-0.555-5.957-0.825-9.932-1.356c-1.685-0.225-2.537-1.323-2.316-2.999c0.521-3.953,0.785-5.932,1.308-9.885
			c0.231-1.766,1.332-2.516,3.03-2.289C483.776,153.331,485.783,153.605,489.792,154.165z"/>
	</g>
</g>
</svg>
