<?xml version="1.0" encoding="utf-8"?>
<!-- Generator: Adobe Illustrator 15.0.0, SVG Export Plug-In . SVG Version: 6.00 Build 0)  -->
<!DOCTYPE svg PUBLIC "-//W3C//DTD SVG 1.1//EN" "http://www.w3.org/Graphics/SVG/1.1/DTD/svg11.dtd">
<svg version="1.1" id="Layer_1" xmlns="http://www.w3.org/2000/svg" xmlns:xlink="http://www.w3.org/1999/xlink" x="0px" y="0px"
	 width="151.333px" height="147.333px" viewBox="0 0 151.333 147.333" enable-background="new 0 0 151.333 147.333"
	 xml:space="preserve">
<g>
	<path fill="#B69FCC" d="M148.932,63.717c0-33.343-32.459-60.373-72.5-60.373s-72.5,27.03-72.5,60.373
		c0,33.343,32.459,60.374,72.5,60.374c1.515,0,3.014-0.051,4.505-0.127c1.423,7.439-2.767,14.947-23.004,17.383
		c0,0,44.999,7.441,63.144-30.076C138.025,100.217,148.932,83.034,148.932,63.717z"/>
	<g enable-background="new    ">
		<path fill="#604E75" d="M29.885,44.744c0.948,0,1.561,0.391,1.895,1.282l4.125,10.368c0.223,0.501,0.558,0.501,0.78,0
			l4.125-10.368c0.334-0.892,0.947-1.282,1.895-1.282h7.971c1.282,0,1.839,0.78,1.282,1.951L41.98,68.991
			c-0.111,0.224-0.111,0.446-0.111,0.669V82.09c0,1.059-0.558,1.672-1.672,1.672h-7.804c-1.059,0-1.672-0.613-1.672-1.672V69.66
			c0-0.223,0-0.445-0.111-0.669L20.576,46.695c-0.558-1.171,0-1.951,1.282-1.951H29.885z"/>
		<path fill="#604E75" d="M80.89,44.744c1.114,0,1.673,0.558,1.673,1.673v6.242c0,1.06-0.559,1.673-1.673,1.673H67.401
			c-1.059,0-1.672,0.558-1.672,1.672v1.784c0,1.059,0.613,1.672,1.672,1.672h8.64c1.115,0,1.672,0.558,1.672,1.672v6.243
			c0,1.06-0.558,1.672-1.672,1.672h-8.64c-1.059,0-1.672,0.558-1.672,1.673v1.783c0,1.06,0.613,1.673,1.672,1.673H80.89
			c1.114,0,1.673,0.557,1.673,1.672v6.243c0,1.114-0.559,1.672-1.673,1.672H57.479c-1.059,0-1.672-0.613-1.672-1.672V46.417
			c0-1.115,0.613-1.673,1.672-1.673H80.89z"/>
		<path fill="#604E75" d="M105.196,58.568c-1.115,0.223-1.672-0.279-1.84-1.394c-0.391-2.285-2.229-3.734-4.85-3.734
			c-2.174,0-3.512,1.281-3.289,2.563c0.781,4.348,18.395,4.236,18.395,17.057c0,1.672-1.895,11.538-15.105,11.538
			c-11.705,0-14.213-7.692-14.492-12.04c-0.056-1.003,0.445-1.616,1.449-1.839l6.299-1.394c1.115-0.224,1.729,0.278,1.84,1.449
			c0.223,2.676,2.285,4.236,4.904,4.236c2.731,0,4.738-1.617,4.404-3.122c-1.06-4.737-17.838-3.679-17.838-16.499
			c-0.055-1.672,0.948-11.538,13.434-11.538c11.482,0,14.158,7.47,14.492,11.482c0.057,1.004-0.445,1.616-1.449,1.84L105.196,58.568
			z"/>
		<path fill="#604E75" d="M128.331,44.744c1.114,0,1.728,0.558,1.672,1.673l-1.115,23.41c-0.056,1.06-0.557,1.673-1.672,1.673
			h-6.243c-1.06,0-1.616-0.613-1.672-1.673l-1.115-23.41c-0.056-1.115,0.613-1.673,1.673-1.673H128.331z M127.215,74.175
			c1.115,0,1.672,0.557,1.672,1.672v6.243c0,1.059-0.557,1.672-1.672,1.672h-6.243c-1.06,0-1.672-0.613-1.672-1.672v-6.243
			c0-1.115,0.612-1.672,1.672-1.672H127.215z"/>
	</g>
</g>
</svg>
