<?xml version="1.0" encoding="utf-8"?>
<!-- Generator: Adobe Illustrator 15.0.0, SVG Export Plug-In . SVG Version: 6.00 Build 0)  -->
<!DOCTYPE svg PUBLIC "-//W3C//DTD SVG 1.1//EN" "http://www.w3.org/Graphics/SVG/1.1/DTD/svg11.dtd">
<svg version="1.1" id="Layer_1" xmlns="http://www.w3.org/2000/svg" xmlns:xlink="http://www.w3.org/1999/xlink" x="0px" y="0px"
	 width="184px" height="133.189px" viewBox="0 0 184 133.189" enable-background="new 0 0 184 133.189" xml:space="preserve">
<g>
	<path fill="#E9E9EA" d="M-121.089-30.042h2.438c5.94,0,10.8,4.86,10.8,10.8v32.733c0,5.939-4.859,10.8-10.8,10.8h-2.438V-30.042z"
		/>
	<path fill="#E9E9EA" d="M-199.996-30.042h-2.438c-5.94,0-10.801,4.86-10.801,10.8v32.733c0,5.939,4.86,10.8,10.801,10.8h2.438
		V-30.042z"/>
	<path fill="#604E75" d="M-118.651-30.042h-2.438h-78.907h-2.438c-5.94,0-10.801,4.86-10.801,10.8v5.699h13.238v54.5h78.907v-54.5
		h13.237v-5.699C-107.852-25.182-112.711-30.042-118.651-30.042z"/>
	<polygon fill="#333333" points="-199.996,40.957 -199.996,57.624 -199.996,97.291 -171.207,97.291 -171.207,57.624 
		-149.879,57.624 -149.879,97.291 -121.089,97.291 -121.089,57.624 -121.089,40.957 	"/>
	<path d="M-185.602,111.686c7.949,0,14.395-6.444,14.395-14.395h-28.789C-199.996,105.241-193.552,111.686-185.602,111.686z"/>
	<path d="M-135.484,111.686c7.951,0,14.396-6.444,14.396-14.395h-28.79C-149.879,105.241-143.434,111.686-135.484,111.686z"/>
	<path fill="#333333" d="M-185.602,82.896c-7.95,0-14.395,6.444-14.395,14.395h28.789
		C-171.207,89.341-177.652,82.896-185.602,82.896z"/>
	<path fill="#333333" d="M-135.484,82.896c-7.949,0-14.395,6.444-14.395,14.395h28.79
		C-121.089,89.341-127.533,82.896-135.484,82.896z"/>
	<g>
		<path fill="#E9E9EA" d="M-83.508-93.424c-0.893,0-1.756,0.117-2.586,0.318c-8.77-28.624-38.908-49.725-74.753-49.725
			s-65.983,21.101-74.753,49.725c-0.83-0.201-1.693-0.318-2.586-0.318c-6.074,0-11,4.925-11,11c0,6.074,4.926,11,11,11
			c0.068,0,0.133-0.009,0.199-0.01c2.715,33.828,36.201,49.416,77.14,49.416c40.938,0,74.425-15.588,77.14-49.416
			c0.066,0.001,0.131,0.01,0.199,0.01c6.074,0,11-4.926,11-11C-72.508-88.499-77.434-93.424-83.508-93.424z"/>
		<g>
			<circle cx="-201.589" cy="-85.716" r="7.5"/>
			<circle fill="#FFFFFF" cx="-204.083" cy="-87.759" r="3.03"/>
		</g>
		<g>
			<circle cx="-121.089" cy="-85.716" r="7.5"/>
			<circle fill="#FFFFFF" cx="-123.583" cy="-87.759" r="3.03"/>
		</g>
		<path fill="#B69FCC" d="M-112.452-133.661c-7.167-5.333-24.171-11.994-44.657-12.637c-22.176-0.696-49.676,7.471-59.843,18.304
			c-10.324,11.001-19.127,25.778-18.647,34.889c0,0,2.814,3.335,2.814,7.39h5.5c0,0,0.5-26.445,16-36.445
			c0,0,7.499-0.833,10.166,4.833c0,0,4.227-3.333,2.03-6.5c0,0,24.429-4.833,39.929,10.792c0,0,3.125-5.542,0.875-7.542
			c0,0,16.125,0.667,22.375,7.917c0,0,0.875-2.417,0-5c-0.445-1.313,23.625-1.875,29.75,7.25c0,0,0.666-8.583-5.792-12.917
			c19.667,12.667,17.667,37.612,17.667,37.612h5.332c0.166-4.055,2.859-7.39,2.859-7.39
			C-88.172-117.63-105.285-128.328-112.452-133.661z"/>
		<path fill="none" stroke="#000000" stroke-width="3" stroke-linecap="round" stroke-miterlimit="10" d="M-160.847-90.789
			c0,0,0.812,8.269,4.312,12.573l-4.312,3.555"/>
		<path fill="none" stroke="#000000" stroke-width="3" stroke-linecap="round" stroke-miterlimit="10" d="M-147.971-55.036
			c0-5.105-3.842-12.917-12.318-12.917s-12.826,6.481-12.826,12.827"/>
	</g>
</g>
<g>
	<g>
		<path fill="#E9E9EA" d="M-1602.617,15.99h2.438c5.94,0,10.8,4.86,10.8,10.8v32.733c0,5.939-4.859,10.8-10.8,10.8h-2.438V15.99z"/>
		<path fill="#E9E9EA" d="M-1681.524,15.99h-2.438c-5.94,0-10.801,4.86-10.801,10.8v32.733c0,5.939,4.86,10.8,10.801,10.8h2.438
			V15.99z"/>
		<path fill="#604E75" d="M-1600.18,15.99h-2.438h-78.907h-2.438c-5.94,0-10.801,4.86-10.801,10.8v5.699h13.238v54.5h78.907v-54.5
			h13.237V26.79C-1589.38,20.851-1594.239,15.99-1600.18,15.99z"/>
		<polygon fill="#5B5C5C" points="-1681.524,86.989 -1681.524,103.656 -1681.524,143.323 -1652.735,143.323 -1652.735,103.656 
			-1631.407,103.656 -1631.407,143.323 -1602.617,143.323 -1602.617,103.656 -1602.617,86.989 		"/>
		<path d="M-1667.13,157.718c7.949,0,14.395-6.444,14.395-14.395h-28.789C-1681.524,151.273-1675.08,157.718-1667.13,157.718z"/>
		<path d="M-1617.013,157.718c7.951,0,14.396-6.444,14.396-14.395h-28.79C-1631.407,151.273-1624.962,157.718-1617.013,157.718z"/>
		<path fill="#5B5C5C" d="M-1667.13,128.929c-7.95,0-14.395,6.444-14.395,14.395h28.789
			C-1652.735,135.373-1659.181,128.929-1667.13,128.929z"/>
		<path fill="#5B5C5C" d="M-1617.013,128.929c-7.949,0-14.395,6.444-14.395,14.395h28.79
			C-1602.617,135.373-1609.062,128.929-1617.013,128.929z"/>
		<g>
			<g>
				<path fill="#B69FCC" d="M-1661.027,34.852c0.692-0.213,1.112-0.066,1.253,0.42c1.805,6.228,2.708,9.34,4.512,15.567
					c0.134,0.462-0.043,0.804-0.547,0.959c-1.107,0.341-1.656,0.526-2.746,0.937c-0.471,0.178-0.845,0.029-1.022-0.418
					c-2.387-6.029-3.579-9.044-5.967-15.073c-0.187-0.472,0.093-0.854,0.74-1.098C-1663.305,35.581-1662.55,35.32-1661.027,34.852z"
					/>
				<path fill="#B69FCC" d="M-1651.688,32.716c0.71-0.108,1.1,0.097,1.168,0.599c0.533,3.936,0.798,5.904,1.332,9.84
					c0.262,1.934,0.559,3.051,2.638,2.861s2.166-1.344,2.073-3.293c-0.188-3.967-0.281-5.953-0.469-9.92
					c-0.024-0.506,0.357-0.776,1.037-0.798c1.604-0.05,2.407-0.05,4.011,0c0.715,0.022,1.061,0.294,1.037,0.8
					c-0.214,4.504-0.321,6.756-0.534,11.26c-0.079,1.67-0.667,5.734-6.759,6.289c-6.091,0.555-7.427-3.329-7.808-4.957
					c-1.027-4.39-1.541-6.585-2.567-10.975c-0.115-0.493,0.212-0.833,0.881-0.978C-1654.073,33.104-1653.279,32.958-1651.688,32.716
					z"/>
				<path fill="#B69FCC" d="M-1626.614,33.798c6.239,1.512,7.921,4.529,6.392,8.392s-4.182,4.655-9.253,3.426
					c-0.547-0.133-0.822-0.194-1.372-0.313c-0.543-0.116-0.909,0.073-1.006,0.57c-0.313,1.591-0.469,2.384-0.782,3.975
					c-0.098,0.497-0.402,0.694-0.917,0.602c-1.153-0.207-1.732-0.294-2.892-0.429c-0.492-0.058-0.751-0.36-0.703-0.84
					c0.641-6.443,0.961-9.663,1.604-16.106c0.05-0.504,0.432-0.724,1.148-0.666C-1631.261,32.772-1629.698,33.051-1626.614,33.798z
					 M-1628.264,41.428c1.479,0.363,2.251,0.443,2.687-1.065s-0.297-1.895-1.865-2.28c-0.706-0.174-1.061-0.256-1.771-0.408
					c-0.624-0.134-1.035,0.048-1.133,0.545c-0.148,0.756-0.223,1.131-0.371,1.887c-0.093,0.473,0.195,0.813,0.783,0.938
					C-1629.264,41.188-1628.93,41.264-1628.264,41.428z"/>
			</g>
		</g>
	</g>
	<g>
		<path fill="#E9E9EA" d="M-1565.036-48.642c-0.893,0-1.756,0.118-2.586,0.318c-8.77-28.624-38.908-49.726-74.753-49.726
			s-65.983,21.102-74.753,49.726c-0.83-0.2-1.693-0.318-2.586-0.318c-6.074,0-11,4.925-11,11s4.926,11,11,11
			c0.068,0,0.133-0.009,0.199-0.011c2.715,33.829,36.201,49.417,77.14,49.417c40.938,0,74.425-15.588,77.14-49.417
			c0.066,0.002,0.131,0.011,0.199,0.011c6.074,0,11-4.925,11-11S-1558.962-48.642-1565.036-48.642z"/>
		<path fill="none" stroke="#000000" stroke-width="3" stroke-linecap="round" stroke-miterlimit="10" d="M-1642.375-46.006
			c0,0,0.812,8.268,4.312,12.572l-4.312,3.555"/>
		<path fill="none" stroke="#000000" stroke-width="3" stroke-linecap="round" stroke-miterlimit="10" d="M-1654.644-23.171
			c0,5.106,3.842,12.917,12.318,12.917s12.827-6.482,12.827-12.827"/>
		<path fill="#604E75" d="M-1691.706,31.067c4.591-11.506-4.857-20.418-10.387-24.648c-8.191-6.268-23.824-30.232-15.473-54.742
			c9.243-27.128,42.665-37.013,55.192-37.99c21.372-1.667,36.333,12.333,44.315,0s-16.982-23.333-16.982-23.333
			c-30-9.668-56.885,2.333-74.627,17.333c-26.868,22.716-31.902,63.65-14.373,98c5.55,10.875,8.467,16.334-1.2,21.167
			c0,0-5.5,3.833-7.5,0.667c0,0-0.167,4.333,7,5c0,0-1.333,3.05-4.333,2.107c0,0,3.812,1.742,6.771,0.434
			c0,0-0.375,1.813-2.75,1.875C-1728.639,37.005-1698.438,47.94-1691.706,31.067z"/>
		<path fill="#604E75" d="M-1591.853,34.354c-10.229-10.833-3.265-19.167,1.801-23.315c9.908-8.114,33.218-30.908,22.365-59.361
			c-9.969-26.136-31.093-24.86-41.511-29.657c-10.137-4.666-17.804-17.666-17.804-17.666c13.667-14.666,39.161-6.734,62,15
			c22.223,21.148,20.735,67.705,6,91.667c-5.739,9.333-2.333,15.333,8,17c0,0,5.095,1.76,7.095-0.537s-1.333,4.37-5.5,4.37
			s-1.499,1.499,2.167,1.833c0,0-2.927,1.5-6.797,1.334c0,0-1.037,0.666,0.963,1.5
			C-1553.073,36.521-1582.638,44.112-1591.853,34.354z"/>
		<path fill="#E9E9EA" d="M-1565.235-26.652c0.066,0.002,0.131,0.01,0.199,0.01c6.074,0,11-4.925,11-11c0-6.074-4.926-11-11-11
			c-0.893,0-1.756,0.118-2.586,0.318l-5.525,12.451L-1565.235-26.652z"/>
		<path fill="#E9E9EA" d="M-1719.514-26.652c-0.066,0.002-0.131,0.01-0.199,0.01c-6.074,0-11-4.925-11-11c0-6.074,4.926-11,11-11
			c0.893,0,1.756,0.118,2.586,0.318l5.525,12.451L-1719.514-26.652z"/>
		<circle fill="#C4C4C3" cx="-1688.242" cy="-14.275" r="9.595"/>
		<circle fill="#C4C4C3" cx="-1595.998" cy="-14.275" r="9.595"/>
		<path fill="none" stroke="#000000" stroke-width="3" stroke-linecap="round" stroke-miterlimit="10" d="M-1695.248-45.22
			c0,2.075,1.561,5.25,5.006,5.25s5.214-2.635,5.214-5.213"/>
		<path fill="none" stroke="#000000" stroke-width="3" stroke-linecap="round" stroke-miterlimit="10" d="M-1690.138-50.01
			c0,2.075,1.561,5.25,5.006,5.25c1.54,0,2.744-0.526,3.605-1.338"/>
		<path fill="none" stroke="#000000" stroke-width="3" stroke-linecap="round" stroke-miterlimit="10" d="M-1590.223-50.01
			c0,2.075-1.561,5.25-5.006,5.25c-1.539,0-2.744-0.526-3.605-1.338"/>
		<path fill="none" stroke="#000000" stroke-width="3" stroke-linecap="round" stroke-miterlimit="10" d="M-1595.41-45.22
			c0,2.075,1.561,5.25,5.006,5.25s5.214-2.635,5.214-5.213"/>
		<g>
			<circle cx="-1680.528" cy="-42.495" r="7.5"/>
			<circle fill="#FFFFFF" cx="-1683.022" cy="-44.538" r="3.03"/>
		</g>
		<g>
			<circle cx="-1600.028" cy="-42.495" r="7.5"/>
			<circle fill="#FFFFFF" cx="-1602.522" cy="-44.538" r="3.03"/>
		</g>
	</g>
</g>
<g>
	<g>
		<path fill="#E9E9EA" d="M-1039.739-226.259h2.438c5.94,0,10.801,4.86,10.801,10.8v32.733c0,5.939-4.86,10.8-10.801,10.8h-2.438
			V-226.259z"/>
		<path fill="#E9E9EA" d="M-1118.646-226.259h-2.438c-5.939,0-10.8,4.86-10.8,10.8v32.733c0,5.939,4.86,10.8,10.8,10.8h2.438
			V-226.259z"/>
		<path fill="#5B5C5C" d="M-1037.302-226.259h-2.438h-78.907h-2.438c-5.939,0-10.8,4.86-10.8,10.8v5.699h13.237v54.5h78.907v-54.5
			h13.238v-5.699C-1026.501-221.398-1031.361-226.259-1037.302-226.259z"/>
		<polygon fill="#604E75" points="-1118.646,-155.26 -1118.646,-138.593 -1118.646,-98.926 -1089.856,-98.926 -1089.856,-138.593 
			-1068.528,-138.593 -1068.528,-98.926 -1039.739,-98.926 -1039.739,-138.593 -1039.739,-155.26 		"/>
		<path d="M-1104.252-84.531c7.95,0,14.396-6.444,14.396-14.395h-28.79C-1118.646-90.976-1112.201-84.531-1104.252-84.531z"/>
		<path d="M-1054.134-84.531c7.95,0,14.395-6.444,14.395-14.395h-28.789C-1068.528-90.976-1062.083-84.531-1054.134-84.531z"/>
		<path fill="#604E75" d="M-1104.252-113.32c-7.949,0-14.395,6.444-14.395,14.395h28.79
			C-1089.856-106.876-1096.302-113.32-1104.252-113.32z"/>
		<path fill="#604E75" d="M-1054.134-113.32c-7.949,0-14.395,6.444-14.395,14.395h28.789
			C-1039.739-106.876-1046.184-113.32-1054.134-113.32z"/>
		<g>
			<g>
				<path fill="#E9E9EA" d="M-1112.532-204.177c1.461-0.578,2.197-0.851,3.676-1.364c0.197,0.567,0.295,0.851,0.492,1.418
					c-0.319,0.111-0.479,0.167-0.797,0.28c0.727,2.033,1.088,3.048,1.815,5.081c0.299-0.107,0.45-0.16,0.75-0.264
					c0.195,0.562,0.292,0.843,0.487,1.405c-1.343,0.466-2.011,0.713-3.338,1.239c-0.219-0.553-0.329-0.83-0.548-1.383
					c0.296-0.118,0.446-0.175,0.743-0.29c-0.776-2.015-1.162-3.021-1.938-5.036c-0.316,0.122-0.476,0.183-0.792,0.308
					C-1112.201-203.34-1112.312-203.619-1112.532-204.177z"/>
				<path fill="#E9E9EA" d="M-1100.879-207.933c1.383-0.343,2.078-0.5,3.471-0.789c0.122,0.587,0.182,0.88,0.304,1.468
					c-0.328,0.068-0.493,0.103-0.82,0.173c0.584,2.701,0.877,4.051,1.461,6.752c-0.48,0.104-0.72,0.157-1.199,0.268
					c-2.036-1.685-3.1-2.496-5.317-4.051c0.41,1.444,0.613,2.167,1.023,3.611c0.157-0.044,0.918-0.256,0.918-0.256
					c0.157,0.579,0.236,0.869,0.394,1.447c-1.25,0.339-1.873,0.521-3.113,0.911c-0.18-0.572-0.271-0.858-0.45-1.43
					c0.36-0.113,0.541-0.169,0.902-0.278c-0.625-2.071-0.936-3.105-1.561-5.177c-0.384,0.116-0.577,0.173-0.96,0.293
					c-0.18-0.572-0.27-0.857-0.449-1.429c1.163-0.365,1.747-0.539,2.918-0.864c1.862,1.35,2.763,2.05,4.499,3.488
					c-0.275-1.167-0.414-1.75-0.689-2.918c-0.389,0.092-0.583,0.139-0.971,0.235
					C-1100.663-207.06-1100.735-207.351-1100.879-207.933z"/>
				<path fill="#E9E9EA" d="M-1086.054-206.122c0.198,2.403-1.544,4.328-3.814,4.63c-1.451,0.193-2.176,0.308-3.619,0.565
					c-0.106-0.595-0.158-0.894-0.264-1.489c0.295-0.053,0.442-0.078,0.738-0.128c-0.359-2.119-0.539-3.178-0.897-5.298
					c-0.314,0.053-0.47,0.08-0.784,0.136c-0.107-0.6-0.161-0.899-0.268-1.499c1.59-0.284,2.388-0.408,3.986-0.621
					C-1088.292-210.183-1086.252-208.524-1086.054-206.122z M-1090.994-202.86c0.257-0.037,0.386-0.055,0.643-0.09
					c1.84-0.251,2.342-1.638,2.2-2.974c-0.144-1.347-1.153-2.593-2.926-2.351c-0.273,0.037-0.411,0.057-0.684,0.096
					C-1091.454-206.051-1091.302-204.988-1090.994-202.86z"/>
				<path fill="#E9E9EA" d="M-1084.499-210.418c1.541-0.094,2.313-0.126,3.856-0.155c0.011,0.6,0.018,0.9,0.029,1.5
					c-0.333,0.006-0.5,0.01-0.833,0.02c0.061,2.158,0.091,3.236,0.152,5.394c0.313-0.009,0.469-0.013,0.783-0.019
					c0.011,0.595,0.018,0.893,0.029,1.487c-1.401,0.026-2.103,0.055-3.502,0.141c-0.037-0.594-0.055-0.891-0.092-1.484
					c0.313-0.019,0.471-0.029,0.784-0.045c-0.112-2.155-0.167-3.233-0.279-5.389c-0.333,0.017-0.501,0.027-0.834,0.048
					C-1084.444-209.52-1084.462-209.819-1084.499-210.418z"/>
				<path fill="#E9E9EA" d="M-1072.71-210.39c0,0,2.488,6.833,2.619,7.136c0.372,0.039,0.556,0.059,0.927,0.102
					c-0.069,0.596-0.103,0.894-0.172,1.49c-1.399-0.163-2.102-0.229-3.506-0.332c0.043-0.593,0.067-0.89,0.11-1.483
					c0.184,0.014,0.276,0.021,0.459,0.035c-0.125-0.311-0.23-0.621-0.37-0.944c-0.993-0.073-1.488-0.103-2.482-0.146
					c-0.157,0.358-0.235,0.539-0.389,0.897c0.184,0.007,0.275,0.011,0.459,0.02c-0.027,0.594-0.04,0.892-0.067,1.486
					c-1.215-0.056-1.824-0.072-3.04-0.083c0.005-0.6,0.009-0.9,0.015-1.5c0.373,0.003,0.559,0.005,0.932,0.013
					c0.316-0.894,3.297-6.763,3.297-6.763c0.494,0.027,0.742,0.041,1.236,0.075C-1072.693-210.39-1072.7-210.39-1072.71-210.39z
					 M-1073.091-205.92c-0.256-0.686-0.389-1.027-0.657-1.711c-0.325,0.649-0.485,0.973-0.8,1.625
					C-1073.965-205.977-1073.673-205.959-1073.091-205.92z"/>
				<path fill="#E9E9EA" d="M-1060.61-208.761c1.393,0.285,2.087,0.44,3.471,0.78c-0.143,0.583-0.214,0.874-0.357,1.456
					c-0.326-0.08-0.489-0.119-0.815-0.196c-0.634,2.69-0.95,4.035-1.584,6.725c-0.479-0.113-0.718-0.167-1.198-0.273
					c-1.113-2.396-1.722-3.587-3.045-5.943c-0.251,1.48-0.377,2.221-0.629,3.701c0.16,0.027,0.934,0.163,0.934,0.163
					c-0.107,0.59-0.161,0.885-0.268,1.475c-1.269-0.23-1.904-0.333-3.18-0.513c0.084-0.594,0.126-0.89,0.21-1.484
					c0.37,0.052,0.554,0.08,0.924,0.136c0.327-2.139,0.49-3.209,0.817-5.348c-0.394-0.06-0.589-0.088-0.983-0.144
					c0.084-0.594,0.126-0.891,0.21-1.484c1.196,0.169,1.793,0.264,2.985,0.473c1.093,2.019,1.603,3.038,2.55,5.083
					c0.253-1.172,0.379-1.759,0.633-2.931c-0.39-0.084-0.586-0.126-0.977-0.206C-1060.792-207.879-1060.73-208.173-1060.61-208.761z
					"/>
				<path fill="#E9E9EA" d="M-1049.446-205.716c0,0,0.684,7.259,0.734,7.587c0.354,0.136,0.532,0.204,0.885,0.343
					c-0.221,0.558-0.332,0.837-0.552,1.395c-1.332-0.527-2.002-0.776-3.35-1.244c0.195-0.562,0.293-0.844,0.488-1.406
					c0.176,0.061,0.265,0.092,0.441,0.154c-0.043-0.333-0.065-0.658-0.119-1.007c-0.954-0.331-1.432-0.49-2.392-0.792
					c-0.245,0.305-0.367,0.459-0.609,0.766c0.178,0.055,0.267,0.083,0.444,0.14c-0.179,0.567-0.269,0.851-0.448,1.418
					c-1.173-0.371-1.764-0.545-2.947-0.872c0.159-0.578,0.24-0.867,0.399-1.445c0.363,0.1,0.545,0.151,0.907,0.255
					c0.538-0.782,4.958-5.679,4.958-5.679c0.477,0.155,0.713,0.234,1.188,0.396C-1049.431-205.71-1049.436-205.713-1049.446-205.716
					z M-1050.966-201.496c-0.075-0.729-0.114-1.094-0.201-1.825c-0.485,0.542-0.726,0.814-1.201,1.362
					C-1051.806-201.779-1051.526-201.686-1050.966-201.496z"/>
			</g>
		</g>
	</g>
	<g>
		<path fill="#E9E9EA" d="M-1002.167-289.891c-0.893,0-1.756,0.118-2.586,0.318c-8.77-28.624-38.908-49.725-74.753-49.725
			c-35.846,0-65.984,21.101-74.752,49.725c-0.831-0.201-1.693-0.318-2.586-0.318c-6.076,0-11,4.925-11,11c0,6.075,4.924,11,11,11
			c0.066,0,0.132-0.009,0.199-0.01c2.713,33.829,36.201,49.417,77.139,49.417s74.425-15.588,77.14-49.417
			c0.066,0.001,0.131,0.01,0.199,0.01c6.074,0,11-4.925,11-11C-991.167-284.966-996.093-289.891-1002.167-289.891z"/>
		<g>
			<circle cx="-1120.248" cy="-282.183" r="7.5"/>
			<circle fill="#FFFFFF" cx="-1122.742" cy="-284.226" r="3.029"/>
		</g>
		<g>
			<circle cx="-1039.748" cy="-282.183" r="7.5"/>
			<circle fill="#FFFFFF" cx="-1042.242" cy="-284.226" r="3.03"/>
		</g>
		<path fill="none" stroke="#000000" stroke-width="3" stroke-linecap="round" stroke-miterlimit="10" d="M-1079.506-287.255
			c0,0,0.812,8.268,4.312,12.573l-4.312,3.555"/>
		<path fill="none" stroke="#000000" stroke-width="3" stroke-linecap="round" stroke-miterlimit="10" d="M-1091.774-264.42
			c0,5.106,3.842,12.917,12.318,12.917s12.827-6.482,12.827-12.827"/>
		<path fill="#B69FCC" d="M-1027.691-327.626L-1027.691-327.626C-1027.691-327.626-1027.691-327.627-1027.691-327.626
			c-1.28-0.946-2.444-1.776-3.42-2.501c-1.853-1.379-4.369-2.847-7.429-4.276c-16.112-12.402-23.727-29.564-23.727-29.564
			c-3,9.667-8.751,6.667-8.751,6.667c-2.751-1-3.083-6-3.083-6c-0.5,3.5-4,6.5-6.666,4.167c-2.667-2.333-4-11.5-4-11.5
			s-1.5,18-8.334,16.833c-6.833-1.167-6.166-5.167-6.166-5.167c-0.968,10.89-16.194,21.368-24.47,26.295
			c-1.881,0.93-3.637,1.909-5.25,2.928c-0.002,0-0.012,0.005-0.012,0.005h0.002c-2.631,1.663-4.881,3.431-6.615,5.279
			c-10.324,11.001-19.127,25.778-18.646,34.889c0,0,2.813,3.335,2.813,7.39h5.5c0,0,0.5-26.445,16-36.445
			c0,0,25.348-10.674,48.515-9.841c23.166,0.833,50.819,8.674,50.819,8.674c19.667,12.667,17.667,37.612,17.667,37.612h5.332
			c0.166-4.055,2.859-7.39,2.859-7.39C-1006.549-310.759-1019.561-321.622-1027.691-327.626z"/>
	</g>
</g>
<g>
	<g>
		<path fill="#E9E9EA" d="M-1322.862,47.298h2.438c5.939,0,10.8,4.86,10.8,10.8v32.733c0,5.939-4.86,10.8-10.8,10.8h-2.438V47.298z"
			/>
		<path fill="#E9E9EA" d="M-1401.771,47.298h-2.438c-5.94,0-10.8,4.86-10.8,10.8v32.733c0,5.939,4.859,10.8,10.8,10.8h2.438V47.298z
			"/>
		<path fill="#B69FCC" d="M-1320.425,47.298h-2.438h-78.908h-2.438c-5.94,0-10.8,4.86-10.8,10.8v5.699h13.237v54.5h78.908v-54.5
			h13.237v-5.699C-1309.625,52.158-1314.485,47.298-1320.425,47.298z"/>
		<polygon fill="#C4C4C3" points="-1401.771,118.297 -1401.771,134.964 -1401.771,174.631 -1372.98,174.631 -1372.98,134.964 
			-1351.652,134.964 -1351.652,174.631 -1322.862,174.631 -1322.862,134.964 -1322.862,118.297 		"/>
		<path d="M-1387.376,189.025c7.95,0,14.396-6.444,14.396-14.395h-28.79C-1401.771,182.581-1395.326,189.025-1387.376,189.025z"/>
		<path d="M-1337.258,189.025c7.95,0,14.396-6.444,14.396-14.395h-28.79C-1351.652,182.581-1345.207,189.025-1337.258,189.025z"/>
		<path fill="#C4C4C3" d="M-1387.376,160.236c-7.95,0-14.395,6.444-14.395,14.395h28.79
			C-1372.98,166.681-1379.426,160.236-1387.376,160.236z"/>
		<path fill="#C4C4C3" d="M-1337.258,160.236c-7.949,0-14.395,6.444-14.395,14.395h28.79
			C-1322.862,166.681-1329.308,160.236-1337.258,160.236z"/>
		<g>
			<g>
				<path fill="#5B5C5C" d="M-1388.471,71.522c0.005,1.075-0.328,2.528-2.475,3.265c-2.124,0.729-4.295-0.305-5.157-2.481
					c-0.926-2.34,0.151-4.519,2.486-5.318c0.799-0.273,1.464-0.33,1.833-0.278c-0.054-0.168-0.082-0.252-0.135-0.42
					c0.628-0.201,0.943-0.298,1.574-0.487c0.373,1.239,0.559,1.858,0.932,3.098c-0.608,0.183-0.912,0.279-1.518,0.474
					c-0.055-0.172-0.083-0.26-0.139-0.432c-0.177-0.552-0.978-0.92-2.066-0.547c-0.762,0.261-1.616,1.199-0.909,3.126
					c0.659,1.796,1.906,2.118,2.623,1.872c1.172-0.402,1.433-1.561,1.387-1.704C-1389.409,71.615-1389.095,71.583-1388.471,71.522z"
					/>
				<path fill="#5B5C5C" d="M-1379.175,70.153c0.104,0.575,0.157,0.861,0.261,1.437c-0.802,0.146-1.203,0.223-2.002,0.389
					c-0.327-0.074-1.008-0.379-1.227-1.376c-0.124-0.566-0.823-1.606-2.049-1.469c0.189,0.79,0.285,1.186,0.474,1.976
					c0.298-0.071,0.446-0.107,0.744-0.176c0.131,0.569,0.196,0.856,0.327,1.426c-1.323,0.304-1.981,0.471-3.294,0.829
					c-0.154-0.563-0.231-0.848-0.386-1.411c0.347-0.095,0.521-0.144,0.869-0.234c-0.53-2.023-0.797-3.032-1.327-5.056
					c-0.369,0.097-0.552,0.144-0.92,0.244c-0.153-0.56-0.229-0.838-0.381-1.397c1.506-0.412,2.261-0.601,3.779-0.946
					c2.024-0.461,2.909,0.709,3.108,1.722c0.168,0.854-0.407,1.818-0.384,1.994c0.032,0.242,1.002,1.147,1.168,1.989
					c0.056,0.284,0.361,0.226,0.361,0.226C-1379.703,70.251-1379.527,70.218-1379.175,70.153z M-1383.911,67.58
					c0.715-0.166,0.962-0.656,0.868-1.087s-0.498-0.796-1.104-0.656c-0.316,0.073-0.474,0.11-0.79,0.186
					c0.163,0.681,0.244,1.022,0.407,1.703C-1384.283,67.666-1384.158,67.638-1383.911,67.58z"/>
				<path fill="#5B5C5C" d="M-1377.953,63.21c1.458-0.225,2.188-0.323,3.651-0.489c0.065,0.576,0.097,0.866,0.163,1.442
					c-0.316,0.036-0.475,0.052-0.791,0.09c0.253,2.072,0.381,3.109,0.634,5.181c0.297-0.036,0.446-0.054,0.744-0.088
					c0.065,0.571,0.098,0.857,0.163,1.429c-1.333,0.151-1.999,0.241-3.327,0.446c-0.088-0.568-0.131-0.854-0.219-1.423
					c0.296-0.046,0.445-0.066,0.742-0.109c-0.3-2.065-0.451-3.1-0.751-5.165c-0.315,0.046-0.474,0.069-0.789,0.118
					C-1377.821,64.068-1377.865,63.783-1377.953,63.21z"/>
				<path fill="#5B5C5C" d="M-1363.266,62.12c1.024,0.009,1.537,0.021,2.561,0.059c-0.021,0.579-0.032,0.869-0.053,1.448
					c-0.378-0.014-0.567-0.018-0.945-0.027c-0.055,2.092-0.082,3.134-0.137,5.226c0.356,0.009,0.535,0.017,0.891,0.029
					c-0.021,0.579-0.031,0.868-0.053,1.447c-1.339-0.049-2.008-0.06-3.348-0.055c-0.002-0.579-0.004-0.869-0.006-1.449
					c0.233-0.001,0.349-0.001,0.582,0c0.003-1.049,0.004-1.574,0.008-2.622c-0.798,1.625-1.178,2.444-1.901,4.087
					c-0.354,0.007-0.533,0.013-0.888,0.023c0,0-1.739-2.986-2.416-4.098c0.062,1.098,0.092,1.646,0.154,2.744
					c0.237-0.014,0.356-0.02,0.593-0.031c0.029,0.579,0.043,0.868,0.072,1.447c-1.166,0.058-1.747,0.097-2.911,0.195
					c-0.049-0.577-0.075-0.865-0.124-1.443c0.36-0.03,0.54-0.046,0.9-0.072c-0.155-2.086-0.233-3.128-0.388-5.214
					c-0.382,0.028-0.574,0.042-0.956,0.074c-0.049-0.578-0.072-0.866-0.121-1.444c0.96-0.081,1.441-0.116,2.403-0.172
					c1.404,2.069,2.069,3.118,3.323,5.237C-1364.988,65.338-1364.437,64.258-1363.266,62.12z"/>
				<path fill="#5B5C5C" d="M-1351.936,68.789c-0.329,2.295-2.646,1.996-3.378,1.919c-0.731-0.077-1.565-0.444-1.824-1.048
					c-0.029,0.347-0.043,0.521-0.072,0.868c-0.582-0.048-0.872-0.069-1.455-0.107c0.086-1.333,0.129-2.001,0.215-3.334
					c0.605,0.039,0.909,0.063,1.514,0.113c-0.024,0.291-0.037,0.438-0.061,0.729c-0.048,0.578,0.651,1.216,1.538,1.307
					c0.745,0.076,1.655-0.121,1.707-0.548c0.088-0.726-0.486-0.962-1.803-1.501c-1.007-0.412-2.679-0.956-2.572-2.553
					c0.086-1.295,1.587-2.236,3.348-2.057c1.123,0.114,1.542,0.615,1.64,1.071c0.042-0.35,0.064-0.526,0.107-0.876
					c0.642,0.078,0.962,0.12,1.604,0.21c-0.153,1.094-0.229,1.641-0.382,2.733c-0.622-0.087-0.933-0.126-1.555-0.201
					c0.007-0.056,0.011-0.086,0.018-0.142c0.052-0.426-0.324-1.214-1.579-1.342c-0.477-0.049-1.13,0.182-1.169,0.621
					c-0.038,0.427,0.437,0.636,1.463,1.02C-1353.467,66.108-1351.646,66.769-1351.936,68.789z"/>
				<path fill="#5B5C5C" d="M-1341.748,69.1c-0.795,3.004-3.098,3.481-4.874,3.1c-1.901-0.408-3.645-1.896-3.159-4.824
					c0.465-2.803,2.818-3.776,4.911-3.326C-1342.916,64.469-1340.982,66.207-1341.748,69.1z M-1343.888,68.563
					c0.381-1.602-0.181-2.811-1.297-3.051c-1.265-0.271-2.257,0.607-2.565,2.225c-0.304,1.594,0.25,2.757,1.44,3.013
					C-1345.26,70.975-1344.263,70.142-1343.888,68.563z"/>
				<path fill="#5B5C5C" d="M-1333.683,67.319c1.289,0.455,1.931,0.696,3.206,1.201c-0.213,0.539-0.32,0.809-0.534,1.348
					c-0.301-0.119-0.452-0.178-0.753-0.294c-0.961,2.492-1.441,3.74-2.402,6.232c-0.443-0.171-0.664-0.255-1.109-0.419
					c-0.746-2.441-1.169-3.661-2.112-6.092c-0.439,1.384-0.658,2.075-1.097,3.459c0.149,0.048,0.869,0.28,0.869,0.28
					c-0.181,0.551-0.272,0.827-0.454,1.378c-1.181-0.389-1.773-0.571-2.964-0.915c0.161-0.557,0.241-0.835,0.401-1.392
					c0.346,0.1,0.519,0.148,0.863,0.252c0.601-2.004,0.901-3.006,1.502-5.01c-0.366-0.109-0.549-0.164-0.916-0.27
					c0.161-0.557,0.24-0.837,0.4-1.394c1.113,0.321,1.669,0.492,2.775,0.85c0.768,2.076,1.118,3.115,1.75,5.198
					c0.398-1.089,0.597-1.634,0.995-2.723c-0.361-0.132-0.543-0.196-0.905-0.324C-1333.973,68.14-1333.875,67.866-1333.683,67.319z"
					/>
			</g>
		</g>
		<g>
			<g>
				<path fill="#5B5C5C" d="M-1384.139,84.684c1.414,0.45,2.125,0.655,3.556,1.025c-0.15,0.58-0.224,0.871-0.375,1.451
					c-0.307-0.08-0.461-0.121-0.768-0.204c-0.565,2.084-0.848,3.125-1.413,5.209c0.331,0.09,0.496,0.132,0.827,0.218
					c-0.15,0.581-0.226,0.872-0.376,1.453c-1.608-0.417-2.409-0.646-3.998-1.151c0.182-0.571,0.274-0.858,0.456-1.43
					c0.395,0.126,0.591,0.186,0.987,0.306c0.244-0.804,0.367-1.204,0.61-2.008c-1.149-0.349-1.722-0.534-2.859-0.932
					c-0.277,0.793-0.415,1.188-0.691,1.981c0.392,0.137,0.589,0.204,0.982,0.335c-0.189,0.569-0.286,0.854-0.475,1.423
					c-1.583-0.528-2.372-0.816-3.931-1.434c0.221-0.558,0.332-0.837,0.553-1.395c0.321,0.127,0.481,0.19,0.804,0.313
					c0.771-2.017,1.157-3.025,1.929-5.042c-0.299-0.114-0.448-0.17-0.746-0.288c0.221-0.558,0.331-0.837,0.552-1.395
					c1.388,0.55,2.087,0.804,3.496,1.273c-0.189,0.569-0.285,0.854-0.475,1.424c-0.365-0.122-0.546-0.186-0.91-0.313
					c-0.237,0.68-0.355,1.02-0.593,1.699c1.114,0.389,1.673,0.572,2.799,0.913c0.209-0.688,0.313-1.034,0.522-1.723
					c-0.367-0.111-0.551-0.168-0.917-0.284C-1384.411,85.54-1384.32,85.255-1384.139,84.684z"/>
				<path fill="#5B5C5C" d="M-1373.481,87.145c0,0,2.184,6.922,2.329,7.227c0.402,0.041,0.603,0.059,1.005,0.094
					c-0.052,0.598-0.079,0.898-0.131,1.496c-1.577-0.139-2.364-0.229-3.934-0.449c0.083-0.589,0.124-0.885,0.207-1.474
					c0.198,0.028,0.297,0.04,0.495,0.066c-0.121-0.318-0.214-0.632-0.342-0.965c-1.045-0.146-1.566-0.229-2.607-0.413
					c-0.211,0.333-0.317,0.498-0.532,0.83c0.197,0.036,0.296,0.053,0.493,0.087c-0.103,0.586-0.155,0.88-0.258,1.466
					c-1.353-0.237-2.026-0.368-3.37-0.667c0.13-0.585,0.196-0.882,0.327-1.467c0.396,0.088,0.595,0.132,0.993,0.215
					c0.501-0.815,4.235-6.216,4.235-6.216c0.445,0.073,0.669,0.11,1.115,0.176C-1373.465,87.149-1373.471,87.146-1373.481,87.145z
					 M-1374.211,91.572c-0.207-0.705-0.307-1.059-0.499-1.765c-0.382,0.614-0.577,0.923-0.972,1.532
					C-1375.095,91.439-1374.801,91.485-1374.211,91.572z"/>
				<path fill="#5B5C5C" d="M-1361.181,87.809c1.221-0.045,1.832-0.08,3.05-0.18c0.049,0.603,0.072,0.906,0.122,1.509
					c-0.314,0.025-0.47,0.036-0.784,0.059c-0.15,0.011-0.141,0.139-0.141,0.139c-0.755,2.768-1.179,4.148-2.118,6.894
					c-0.555,0.019-0.832,0.026-1.387,0.035c-0.648-1.736-0.956-2.607-1.532-4.356c-0.655,1.743-1.003,2.611-1.736,4.339
					c-0.483-0.013-0.725-0.022-1.208-0.043c-0.847-2.683-1.228-4.031-1.906-6.732c0.013-0.168-0.127-0.309-0.289-0.321
					c-0.314-0.025-0.471-0.038-0.785-0.066c0.055-0.602,0.083-0.903,0.137-1.505c1.466,0.133,2.201,0.179,3.67,0.232
					c-0.022,0.604-0.033,0.907-0.055,1.511c-0.25-0.009-0.375-0.014-0.624-0.025c0.32,1.216,0.488,1.82,0.841,3.032
					c0.714-1.782,1.05-2.679,1.682-4.477c0.425,0.004,0.638,0.003,1.063,0c0.627,1.8,0.961,2.698,1.671,4.482
					c0.355-1.211,0.524-1.817,0.847-3.032c-0.185,0.008-0.276,0.013-0.46,0.02C-1361.146,88.718-1361.159,88.412-1361.181,87.809z"
					/>
				<path fill="#5B5C5C" d="M-1346.536,92.785c0.333-0.078,0.499-0.121,0.831-0.203c0.143,0.577,0.215,0.87,0.358,1.447
					c-1.611,0.4-2.421,0.575-4.047,0.886c-0.112-0.584-0.167-0.879-0.278-1.463c-1.127-0.825-1.675-1.247-2.742-2.113
					c0.16,1.01,0.239,1.514,0.398,2.523c0.336-0.054,0.504-0.079,0.84-0.136c0.1,0.587,0.149,0.88,0.249,1.467
					c-1.56,0.265-2.343,0.377-3.911,0.56c-0.069-0.591-0.103-0.888-0.172-1.479c0.337-0.039,0.505-0.062,0.843-0.104
					c-0.275-2.151-0.413-3.226-0.688-5.376c-0.313,0.04-0.47,0.062-0.783,0.098c-0.069-0.591-0.103-0.887-0.171-1.478
					c1.395-0.162,2.09-0.266,3.478-0.501c0.1,0.587,0.15,0.881,0.25,1.468c-0.312,0.053-0.467,0.079-0.779,0.128
					c0.084,0.535,0.126,0.805,0.211,1.34c0.842-0.856,1.25-1.293,2.04-2.174c-0.08-0.415-0.121-0.623-0.201-1.038
					c1.205-0.233,1.806-0.362,3.001-0.65c0.139,0.578,0.209,0.87,0.349,1.448c-0.372,0.09-0.558,0.132-0.931,0.216
					c-0.22,0.05-0.331,0.225-0.662,0.625c-0.242,0.292-1.033,1.28-1.585,1.835c1.238,0.989,1.878,1.471,3.197,2.404
					C-1347.18,92.702-1346.866,92.863-1346.536,92.785z"/>
				<path fill="#5B5C5C" d="M-1336.555,88.697c0.883,2.23-1.729,3.214-2.56,3.497c-0.83,0.283-1.902,0.308-2.42-0.16
					c0.106,0.344,0.16,0.517,0.266,0.86c-0.664,0.204-0.996,0.303-1.663,0.491c-0.376-1.329-0.565-1.994-0.941-3.323
					c0.637-0.181,0.954-0.274,1.587-0.47c0.089,0.289,0.134,0.434,0.223,0.723c0.176,0.573,1.173,0.894,2.142,0.568
					c0.814-0.273,1.66-0.908,1.508-1.326c-0.259-0.71-0.949-0.624-2.491-0.558c-1.179,0.051-3.052,0.149-3.506-1.442
					c-0.369-1.291,0.668-2.688,2.286-3.231c1.032-0.347,1.615-0.082,1.913,0.295c-0.125-0.343-0.187-0.513-0.312-0.855
					c0.587-0.214,0.88-0.324,1.463-0.552c0.416,1.063,0.623,1.597,1.039,2.66c-0.608,0.237-0.913,0.351-1.525,0.573
					c-0.02-0.055-0.031-0.081-0.05-0.136c-0.152-0.417-0.848-0.956-2.046-0.554c-0.456,0.153-0.966,0.632-0.828,1.066
					c0.134,0.423,0.668,0.445,1.809,0.351C-1339.365,87.067-1337.332,86.734-1336.555,88.697z"/>
			</g>
		</g>
	</g>
	<g>
		<path fill="#E9E9EA" d="M-1285.291-17.534c-0.893,0-1.755,0.117-2.586,0.318c-8.769-28.625-38.907-49.726-74.753-49.726
			c-35.845,0-65.983,21.101-74.753,49.726c-0.83-0.201-1.693-0.318-2.586-0.318c-6.074,0-11,4.924-11,11c0,6.074,4.926,11,11,11
			c0.068,0,0.133-0.01,0.199-0.011c2.715,33.828,36.201,49.416,77.14,49.416c40.938,0,74.426-15.588,77.14-49.416
			c0.067,0.001,0.132,0.011,0.199,0.011c6.075,0,11-4.926,11-11C-1274.291-12.61-1279.216-17.534-1285.291-17.534z"/>
		<g>
			<circle cx="-1403.372" cy="-9.827" r="7.5"/>
			<circle fill="#FFFFFF" cx="-1405.866" cy="-11.87" r="3.03"/>
		</g>
		<g>
			<circle cx="-1322.872" cy="-9.827" r="7.5"/>
			<circle fill="#FFFFFF" cx="-1325.366" cy="-11.87" r="3.03"/>
		</g>
		<path fill="none" stroke="#000000" stroke-width="3" stroke-linecap="round" stroke-miterlimit="10" d="M-1362.63-14.899
			c0,0,0.812,8.268,4.312,12.572l-4.312,3.555"/>
		<path fill="none" stroke="#000000" stroke-width="3" stroke-linecap="round" stroke-miterlimit="10" d="M-1374.898,7.937
			c0,5.105,3.842,12.916,12.318,12.916s12.827-6.481,12.827-12.826"/>
		<path fill="#604E75" d="M-1362.326-90.54c-11.729,23.599-36.259,25.295-44.533,30.223c-1.883,0.93-3.639,1.908-5.252,2.928
			l-0.01,0.005h0.002c-2.632,1.663-4.881,3.431-6.616,5.279c-10.324,11.001-19.127,25.778-18.647,34.89c0,0,2.814,3.334,2.814,7.389
			h5.5c0,0,0.5-26.445,16-36.445c0,0,25.348-10.674,48.514-9.84c23.167,0.833,50.819,8.674,50.819,8.674
			c19.667,12.667,17.667,37.611,17.667,37.611h5.333c0.166-4.055,2.858-7.389,2.858-7.389
			c-1.796-21.188-14.808-32.051-22.938-38.055h0.001c-0.001,0-0.001,0-0.001,0c-1.28-0.946-2.444-1.775-3.42-2.502
			c-1.853-1.379-4.369-2.846-7.428-4.275C-1352.888-69.373-1362.326-90.54-1362.326-90.54z"/>
	</g>
</g>
<g>
	<g>
		<path fill="#E9E9EA" d="M-1049.322,69.165h2.438c5.94,0,10.8,4.86,10.8,10.8v32.733c0,5.939-4.859,10.8-10.8,10.8h-2.438V69.165z"
			/>
		<path fill="#E9E9EA" d="M-1128.229,69.165h-2.438c-5.94,0-10.801,4.86-10.801,10.8v32.733c0,5.939,4.86,10.8,10.801,10.8h2.438
			V69.165z"/>
		<path fill="#333333" d="M-1046.885,69.165h-2.438h-78.907h-2.438c-5.94,0-10.801,4.86-10.801,10.8v5.699h13.238v54.5h78.907v-54.5
			h13.237v-5.699C-1036.085,74.025-1040.944,69.165-1046.885,69.165z"/>
		<polygon fill="#B69FCC" points="-1128.229,140.164 -1128.229,156.831 -1128.229,196.498 -1099.44,196.498 -1099.44,156.831 
			-1078.112,156.831 -1078.112,196.498 -1049.322,196.498 -1049.322,156.831 -1049.322,140.164 		"/>
		<path d="M-1113.835,210.893c7.949,0,14.395-6.444,14.395-14.395h-28.789C-1128.229,204.448-1121.785,210.893-1113.835,210.893z"/>
		<path d="M-1063.718,210.893c7.951,0,14.396-6.444,14.396-14.395h-28.79C-1078.112,204.448-1071.667,210.893-1063.718,210.893z"/>
		<path fill="#B69FCC" d="M-1113.835,182.104c-7.95,0-14.395,6.444-14.395,14.395h28.789
			C-1099.44,188.548-1105.886,182.104-1113.835,182.104z"/>
		<path fill="#B69FCC" d="M-1063.718,182.104c-7.949,0-14.395,6.444-14.395,14.395h28.79
			C-1049.322,188.548-1055.767,182.104-1063.718,182.104z"/>
		<g>
			<g>
				<path fill="#B69FCC" d="M-1112.498,87.681c1.531-0.451,2.302-0.657,3.848-1.034c0.162,0.665,0.243,0.995,0.405,1.66
					c-0.458,0.111-0.688,0.171-1.146,0.289c-0.075,1.263-1.269,7.85-1.242,8.558c-0.533,0.164-0.797,0.249-1.328,0.423
					c-0.389-0.593-5.556-5.69-5.989-6.258c-0.439,0.167-0.659,0.253-1.096,0.426c-0.252-0.637-0.378-0.954-0.63-1.591
					c1.645-0.651,2.473-0.953,4.142-1.515c0.218,0.648,0.327,0.974,0.545,1.622c-0.148,0.05-0.221,0.073-0.369,0.124
					c0.648,0.689,3.13,3.495,3.13,3.495c0.152-0.039,0.69-3.631,0.782-4.725c-0.228,0.065-0.341,0.101-0.568,0.168
					C-1112.207,88.667-1112.305,88.337-1112.498,87.681z"/>
				<path fill="#B69FCC" d="M-1093.998,90.084c-0.112,1.588-0.163,2.382-0.252,3.97c-3.276,0.242-4.913,0.455-8.155,1.06
					c-0.125-0.673-0.188-1.008-0.313-1.681c0.355-0.066,0.533-0.101,0.889-0.162c-0.424-2.433-0.636-3.648-1.059-6.081
					c-0.384,0.067-0.577,0.103-0.96,0.174c-0.125-0.673-0.188-1.009-0.314-1.682c3.424-0.639,5.152-0.868,8.61-1.148
					c0.5,1.267,0.742,1.9,1.212,3.174c-0.761,0.053-1.14,0.084-1.9,0.154c-0.244-0.665-0.527-1.512-1.678-1.383
					c-1,0.112-1.5,0.177-2.498,0.319c0.117,0.818,0.176,1.226,0.293,2.044c0.525-0.075,0.788-0.107,1.314-0.174
					c-0.035-0.276-0.053-0.416-0.088-0.692c0.753-0.095,1.13-0.138,1.885-0.215c0.126,1.23,0.19,1.846,0.316,3.076
					c-0.726,0.074-1.089,0.119-1.813,0.21c-0.034-0.271-0.052-0.41-0.086-0.682c-0.515,0.064-0.773,0.1-1.287,0.173
					c0.136,0.948,0.203,1.424,0.339,2.372c1.138-0.163,1.709-0.234,2.851-0.354c0.525-0.055,0.765-1.288,0.864-2.328
					C-1095.098,90.162-1094.73,90.133-1093.998,90.084z"/>
				<path fill="#B69FCC" d="M-1081.088,92.533c-0.069,0.687-0.104,1.028-0.173,1.715c-0.966-0.099-1.449-0.141-2.417-0.207
					c-0.351-0.188-1.035-0.748-0.97-1.95c0.037-0.684-0.443-2.094-1.909-2.313c-0.027,0.958-0.039,1.437-0.066,2.395
					c0.365,0.011,0.547,0.019,0.912,0.033c-0.028,0.689-0.042,1.033-0.069,1.723c-1.61-0.065-2.416-0.077-4.026-0.055
					c-0.01-0.689-0.015-1.033-0.024-1.723c0.428-0.006,0.641-0.008,1.068-0.008c0-2.469,0.002-3.703,0.003-6.172
					c-0.462,0-0.694-0.001-1.156,0.006c-0.009-0.685-0.014-1.026-0.023-1.711c1.901-0.026,2.852-0.011,4.751,0.07
					c2.531,0.108,3.188,1.736,3.087,2.95c-0.084,1.022-1.069,1.938-1.099,2.14c-0.041,0.281,0.789,1.623,0.706,2.634
					c-0.028,0.341,0.34,0.372,0.34,0.372C-1081.727,92.469-1081.514,92.49-1081.088,92.533z M-1085.743,88.092
					c0.886,0.033,1.335-0.442,1.363-0.962c0.028-0.519-0.33-1.063-1.084-1.093c-0.394-0.016-0.591-0.024-0.985-0.035
					c-0.023,0.826-0.035,1.24-0.059,2.066C-1086.201,88.077-1086.049,88.08-1085.743,88.092z"/>
				<path fill="#B69FCC" d="M-1067.162,92.071c-0.751,2.646-3.405,3.998-5.967,3.446c-1.638-0.353-2.461-0.506-4.113-0.766
					c0.106-0.682,0.16-1.021,0.267-1.702c0.339,0.053,0.509,0.081,0.848,0.138c0.407-2.419,0.609-3.627,1.018-6.046
					c-0.366-0.062-0.549-0.091-0.916-0.148c0.108-0.687,0.163-1.032,0.271-1.719c1.865,0.293,2.795,0.466,4.645,0.864
					C-1067.999,86.809-1066.41,89.425-1067.162,92.071z M-1073.819,93.611c0.292,0.059,0.44,0.089,0.732,0.15
					c2.09,0.44,3.182-0.837,3.555-2.323c0.376-1.5-0.246-3.242-2.292-3.674c-0.315-0.066-0.474-0.098-0.79-0.161
					C-1073.097,90.008-1073.338,91.206-1073.819,93.611z"/>
				<path fill="#B69FCC" d="M-1062.196,88.62c1.735,0.579,2.597,0.895,4.306,1.571c-0.252,0.637-0.378,0.954-0.63,1.591
					c-0.368-0.146-0.552-0.217-0.921-0.357c-0.879,2.301-1.319,3.45-2.199,5.751c0.341,0.131,0.512,0.196,0.852,0.331
					c-0.25,0.631-0.375,0.949-0.625,1.58c-1.514-0.6-2.278-0.878-3.815-1.392c0.215-0.644,0.324-0.966,0.539-1.609
					c0.345,0.115,0.516,0.174,0.86,0.293c0.808-2.327,1.212-3.491,2.021-5.818c-0.372-0.129-0.558-0.191-0.931-0.316
					C-1062.522,89.595-1062.413,89.27-1062.196,88.62z"/>
			</g>
		</g>
	</g>
	<g>
		<path fill="#E9E9EA" d="M-1011.741,3.533c-0.893,0-1.756,0.117-2.586,0.318c-8.77-28.624-38.908-49.725-74.753-49.725
			s-65.983,21.101-74.753,49.725c-0.83-0.201-1.693-0.318-2.586-0.318c-6.074,0-11,4.925-11,11c0,6.074,4.926,11,11,11
			c0.068,0,0.133-0.009,0.199-0.01c2.715,33.828,36.201,49.416,77.14,49.416c40.938,0,74.425-15.588,77.14-49.416
			c0.066,0.001,0.131,0.01,0.199,0.01c6.074,0,11-4.926,11-11C-1000.741,8.458-1005.667,3.533-1011.741,3.533z"/>
		<path fill="none" stroke="#000000" stroke-width="3" stroke-linecap="round" stroke-miterlimit="10" d="M-1089.08,6.168
			c0,0,0.812,8.269,4.312,12.573l-4.312,3.555"/>
		<g>
			<path fill="#FFFFFF" d="M-1076.508,42.011c0,6.346-4.351,12.827-12.827,12.827s-12.318-7.812-12.318-12.917
				c2.218,2.538,6.267,4.654,12.506,4.654C-1083.143,46.575-1078.953,44.334-1076.508,42.011z"/>
			<path fill="none" stroke="#000000" stroke-width="3" stroke-linecap="round" stroke-miterlimit="10" d="M-1101.653,41.921
				c2.218,2.538,6.267,4.654,12.506,4.654c6.005,0,10.194-2.241,12.64-4.564"/>
			<path fill="none" stroke="#000000" stroke-width="3" stroke-linecap="round" stroke-miterlimit="10" d="M-1101.653,41.921
				c0,5.105,3.842,12.917,12.318,12.917s12.827-6.481,12.827-12.827"/>
		</g>
		<path fill="#E9E9EA" d="M-1011.94,25.522c0.066,0.001,0.131,0.011,0.199,0.011c6.074,0,11-4.926,11-11c0-6.076-4.926-11-11-11
			c-0.893,0-1.756,0.117-2.586,0.318l-5.525,12.45L-1011.94,25.522z"/>
		<path fill="#E9E9EA" d="M-1166.219,25.522c-0.066,0.001-0.131,0.011-0.199,0.011c-6.074,0-11-4.926-11-11c0-6.076,4.926-11,11-11
			c0.893,0,1.756,0.117,2.586,0.318l5.525,12.45L-1166.219,25.522z"/>
		<circle fill="#C4C4C3" cx="-1134.947" cy="37.899" r="9.595"/>
		<circle fill="#C4C4C3" cx="-1042.703" cy="37.899" r="9.595"/>
		<path fill="#604E75" d="M-1166.519-28.472c-22.223,21.149-24.334,70.333-6,91.667c18.334,21.333,2.333,36.333-8,38
			c-10.333,1.666-19.334-9.334-19.334-9.334c0.396,3.443,1.352,6.446,2.728,9.068c-2.298-1.246-4.663-2.779-5.65-4.242
			c0,0,4.06,8.138,10.563,10.582c1.052,0.96,2.184,1.832,3.389,2.613c-4.779,3.223-11.028,3.232-11.028,3.232
			c21.871,4.82,29.543,3.684,32.228,2.422c0.044,0.001,0.088,0.002,0.131,0.003c-6.029,5.187-15.043,5.575-15.043,5.575
			c15.602-0.252,24.275-3.078,29.048-5.824c-3.5,4.729-7.381,7.491-7.381,7.491c6.907-1.829,11.89-7.023,15.076-11.569
			c0.249-0.113,0.495-0.229,0.737-0.348c-1.121,7.074-2.813,8.917-2.813,8.917c7.493-7.067,11.745-14.213,14.116-19.517
			c1.328-2.516,2.225-5.242,2.737-8.047c0.056-0.271,0.08-0.419,0.08-0.419s-0.004,0.002-0.005,0.002
			c2.012-11.918-2.79-25.031-10.526-28.589c-11.635-5.352-33.218-30.908-22.365-59.361c9.969-26.136,31.093-24.861,41.511-29.656
			c10.137-4.667,17.804-17.667,17.804-17.667C-1118.186-58.139-1143.68-50.207-1166.519-28.472z"/>
		<path fill="#604E75" d="M-1047.233,98.338c-0.075,12.131,5.55,21.568,17.363,32.11c0,0-1.79-4.335,3.293-7.784
			c0.05,0.024,0.098,0.05,0.147,0.074c2.565,4.865,9.68,11.211,29.393,10.377c0,0-5.979-0.935-10.978-5.67
			c5.228,1.792,15.366,3.506,31.978-0.363c0,0-9.593,0.265-8.694-6.748c13.529-8.509,9.918-19.139,9.918-19.139s-4,8.999-16,8.999
			s-31.332-16.667-16.666-52.333s12.495-75.284-14.373-98c-17.742-15-44.627-27-74.627-17.334c0,0-24.965,11-16.982,23.334
			s22.943-1.666,44.315,0c12.527,0.977,45.949,10.863,55.192,37.99c8.352,24.51-6.813,49.141-15.473,54.742
			C-1036.316,63.052-1047.184,86.219-1047.233,98.338z"/>
		<path fill="none" stroke="#000000" stroke-width="3" stroke-linecap="round" stroke-miterlimit="10" d="M-1141.953,4.775
			c0,2.075,1.561,5.25,5.006,5.25s5.214-2.635,5.214-5.213"/>
		<path fill="none" stroke="#000000" stroke-width="3" stroke-linecap="round" stroke-miterlimit="10" d="M-1136.844-0.015
			c0,2.075,1.561,5.25,5.006,5.25c1.54,0,2.744-0.526,3.605-1.338"/>
		<path fill="none" stroke="#000000" stroke-width="3" stroke-linecap="round" stroke-miterlimit="10" d="M-1036.928-0.015
			c0,2.075-1.561,5.25-5.006,5.25c-1.539,0-2.744-0.526-3.605-1.338"/>
		<path fill="none" stroke="#000000" stroke-width="3" stroke-linecap="round" stroke-miterlimit="10" d="M-1042.115,4.775
			c0,2.075,1.561,5.25,5.006,5.25s5.214-2.635,5.214-5.213"/>
		<g>
			<circle cx="-1127.233" cy="7.5" r="7.5"/>
			<circle fill="#FFFFFF" cx="-1129.728" cy="5.457" r="3.03"/>
		</g>
		<g>
			<circle cx="-1046.733" cy="7.5" r="7.5"/>
			<circle fill="#FFFFFF" cx="-1049.228" cy="5.457" r="3.03"/>
		</g>
	</g>
</g>
<g>
	
		<rect x="-769.412" y="-371.759" transform="matrix(0.9999 -0.0109 0.0109 0.9999 3.2075 -6.8894)" fill="#333333" width="274.833" height="146.666"/>
	
		<rect x="-764.089" y="-367.25" transform="matrix(0.9999 -0.0109 0.0109 0.9999 3.2075 -6.8895)" fill="#5B5C5C" width="264.187" height="137.649"/>
	<g opacity="0.67">
		<line fill="none" stroke="#FFFFFF" stroke-miterlimit="10" x1="-759.987" y1="-357.862" x2="-509.668" y2="-360.584"/>
		<line fill="none" stroke="#FFFFFF" stroke-miterlimit="10" x1="-759.613" y1="-323.531" x2="-509.295" y2="-326.253"/>
		<g>
			<g>
				<line fill="none" stroke="#FFFFFF" stroke-miterlimit="10" x1="-759.8" y1="-340.697" x2="-758.8" y2="-340.708"/>
				
					<line fill="none" stroke="#FFFFFF" stroke-miterlimit="10" stroke-dasharray="1.9867,1.9867" x1="-756.814" y1="-340.729" x2="-511.475" y2="-343.397"/>
				<line fill="none" stroke="#FFFFFF" stroke-miterlimit="10" x1="-510.482" y1="-343.408" x2="-509.482" y2="-343.419"/>
			</g>
		</g>
	</g>
	
		<text transform="matrix(0.9999 -0.0109 0.0109 0.9999 -753.0796 -325.2305)" fill="#FFFFFF" font-family="'Mission-Script'" font-size="42.4576">Aa Bb Cc</text>
</g>
<g>
	<g>
		<path fill="#E9E9EA" d="M21.941-340.82h2.438c5.94,0,10.8,4.86,10.8,10.8v32.733c0,5.939-4.859,10.8-10.8,10.8h-2.438V-340.82z"/>
		<path fill="#E9E9EA" d="M-56.966-340.82h-2.438c-5.94,0-10.801,4.86-10.801,10.8v32.733c0,5.939,4.86,10.8,10.801,10.8h2.438
			V-340.82z"/>
		<polygon fill="#E9E9EA" points="-56.966,-269.821 -56.966,-253.154 -56.966,-213.487 -28.177,-213.487 -28.177,-253.154 
			-6.849,-253.154 -6.849,-213.487 21.941,-213.487 21.941,-253.154 21.941,-269.821 		"/>
		<path d="M-42.571-199.093c7.949,0,14.395-6.444,14.395-14.395h-28.789C-56.966-205.537-50.521-199.093-42.571-199.093z"/>
		<path d="M7.546-199.093c7.951,0,14.396-6.444,14.396-14.395h-28.79C-6.849-205.537-0.403-199.093,7.546-199.093z"/>
		<path fill="#E9E9EA" d="M-42.571-227.882c-7.95,0-14.395,6.444-14.395,14.395h28.789
			C-28.177-221.438-34.622-227.882-42.571-227.882z"/>
		<path fill="#E9E9EA" d="M7.546-227.882c-7.949,0-14.395,6.444-14.395,14.395h28.79C21.941-221.438,15.497-227.882,7.546-227.882z"
			/>
		<path fill="#B69FCC" d="M-17.512-242.983h48.546c-6.617-9.619-9.093-26.838-9.093-26.838v-54.5h13.237v-5.699
			c0-5.939-4.859-10.8-10.8-10.8h-2.438h-78.907h-2.438c-5.94,0-10.801,4.86-10.801,10.8v5.699h13.238v54.5
			c0,0-2.476,17.219-9.093,26.838H-17.512L-17.512-242.983z"/>
	</g>
	<g>
		<path fill="#E9E9EA" d="M59.522-404.452c-0.893,0-1.756,0.118-2.586,0.318c-8.77-28.624-38.908-49.725-74.753-49.725
			s-65.983,21.101-74.753,49.725c-0.83-0.2-1.693-0.318-2.586-0.318c-6.074,0-11,4.925-11,11s4.926,11,11,11
			c0.068,0,0.133-0.009,0.199-0.011c2.715,33.829,36.201,49.417,77.14,49.417c40.938,0,74.425-15.588,77.14-49.417
			c0.066,0.002,0.131,0.011,0.199,0.011c6.074,0,11-4.925,11-11S65.597-404.452,59.522-404.452z"/>
		<path fill="none" stroke="#000000" stroke-width="3" stroke-linecap="round" stroke-miterlimit="10" d="M-73.278-399.469
			c0,2.075,1.561,5.25,5.006,5.25s5.214-2.635,5.214-5.213"/>
		<path fill="none" stroke="#000000" stroke-width="3" stroke-linecap="round" stroke-miterlimit="10" d="M-68.168-404.259
			c0,2.075,1.561,5.25,5.006,5.25c1.539,0,2.744-0.526,3.605-1.338"/>
		<path fill="none" stroke="#000000" stroke-width="3" stroke-linecap="round" stroke-miterlimit="10" d="M31.747-404.259
			c0,2.075-1.561,5.25-5.006,5.25c-1.539,0-2.744-0.526-3.605-1.338"/>
		<path fill="none" stroke="#000000" stroke-width="3" stroke-linecap="round" stroke-miterlimit="10" d="M26.56-399.469
			c0,2.075,1.561,5.25,5.006,5.25s5.214-2.635,5.214-5.213"/>
		<g>
			<circle cx="-58.559" cy="-396.744" r="7.5"/>
			<circle fill="#FFFFFF" cx="-61.053" cy="-398.787" r="3.03"/>
		</g>
		<g>
			<circle cx="21.941" cy="-396.744" r="7.5"/>
			<circle fill="#FFFFFF" cx="19.447" cy="-398.787" r="3.03"/>
		</g>
		<path fill="none" stroke="#000000" stroke-width="3" stroke-linecap="round" stroke-miterlimit="10" d="M-17.816-401.816
			c0,0,0.812,8.268,4.312,12.572l-4.312,3.555"/>
		<path fill="none" stroke="#000000" stroke-width="3" stroke-linecap="round" stroke-miterlimit="10" d="M-30.085-378.981
			c0,5.106,3.842,12.917,12.318,12.917s12.827-6.482,12.827-12.827"/>
		<path fill="#604E75" d="M-25.216-465.458c0,0-24.965,11-16.982,23.333s22.943-1.667,44.315,0
			c12.527,0.977,45.949,10.863,55.192,37.99c8.352,24.51-6.813,49.14-15.473,54.742c-8.66,5.604-22.548,31.751-16.387,45.648
			s28.668,28.953,52.334,20.286S96.45-306.79,96.45-306.79s-4,8.999-16,8.999s-31.332-16.667-16.666-52.333
			c14.666-35.667,12.495-75.284-14.373-98C31.669-463.124,4.784-475.125-25.216-465.458z"/>
		<path fill="#E9E9EA" d="M59.323-382.463c0.066,0.002,0.131,0.01,0.199,0.01c6.074,0,11-4.925,11-11c0-6.074-4.926-11-11-11
			c-0.893,0-1.756,0.118-2.586,0.318l-5.525,12.451L59.323-382.463z"/>
		<path fill="#604E75" d="M-33.255-451.457c0,0-7.667,13-17.804,17.667c-10.418,4.796-31.542,3.521-41.511,29.657
			c-10.853,28.453,10.73,54.01,22.365,59.361c11.635,5.35,16.652,32.315,1.801,44.315s-56.853,13.333-60.186-15.667
			c0,0,9.001,11,19.334,9.334c10.333-1.667,26.334-16.667,8-38c-18.334-21.334-16.223-70.519,6-91.667
			C-72.416-458.192-46.922-466.124-33.255-451.457z"/>
		<path fill="#E9E9EA" d="M-94.955-382.463c-0.066,0.002-0.131,0.01-0.199,0.01c-6.074,0-11-4.925-11-11c0-6.074,4.926-11,11-11
			c0.893,0,1.756,0.118,2.586,0.318l5.525,12.451L-94.955-382.463z"/>
		<circle fill="#C4C4C3" cx="-63.684" cy="-370.086" r="9.595"/>
		<circle fill="#C4C4C3" cx="28.561" cy="-370.086" r="9.595"/>
	</g>
</g>
<g>
	<path fill="#3A2E4C" d="M55.615,18.721c0,0,2.671,1.458,3.318,4.372c0.648,2.914,5.02,2.555,5.02,2.555l-2.105,13.485l7.124,7.482
		v2.867l1.781,24.123c0,0,12.304,3.238,15.219,1.296c2.914-1.943,4.047,9.39,4.047,9.39s-8.742,9.899-9.066,14.179
		c-0.323,4.278-37.562-39.874-37.562-39.874L55.615,18.721z"/>
	<path fill="#6C5E7F" d="M55.615,18.721c-14.214,4.986-32.543,18.7-37.399,35.457c-4.857,16.757-4.372,35.456,11.899,47.6
		c16.271,12.143,32.785,13.356,57.557,6.313c0,0,0-4.979,0-11.231c0,0-8.986,2.975-17-1.396c0,0,1.942-12.629-3.157-21.371
		l8.014-3.623L71.4,52.964l-13.357-5.101c0,0,2.914-6.187,2.914-10.379s0-6.021-2.914-8.627
		C55.129,26.25,54.887,21.636,55.615,18.721z"/>
	<path fill="#4E4063" d="M155.188,45.289l3.903-7.805c0,0-3.306-7.637-8.764-7.175l-8.014,5.169L155.188,45.289z"/>
	<polygon fill="#3A2E4C" points="118.622,48.025 107.181,57.416 110.257,66.358 105.562,72.797 117.219,76.495 	"/>
	<path fill="#6C5E7F" d="M92.528,106.391l6.314-12.385c0,0-7.528-6.8-8.015-8.5l13.357-15.037l5.586,2.408
		c0,0,4.613-12.628,8.014-17.485l-3.643-9.714l6.8-8.193c0,0-6.8-7.35-5.101-17.306c0,0,20.643,5.828,31.328,15.542
		s11.657,18.7,11.657,18.7s2.672,29.749-8.985,42.438c-11.657,12.688-24.771,16.465-36.428,15.549
		C101.757,111.491,92.528,106.391,92.528,106.391z"/>
	<path fill="#4E4063" d="M25.016,27.864c0,0,0.242,10.13,1.942,12.757c1.7,2.628,1.457,7,9.229,5.785
		c7.771-1.214,13.338-5.343,15.412-10.199c2.073-4.857,0-8.343,0-8.343l-6.912-9.144c0,0-2.914-4.856-9.229-1.942
		S24.772,23.505,25.016,27.864z"/>
	<path fill="#4E4063" d="M126.042,14.135l-6.557,9.929c0,0-1.943,2.773,0,5.273c1.942,2.498,4.614,6.269,10.928,8.147
		c6.314,1.879,11.9,3.094,13.357-1.764c1.457-4.856,2.186-13.356,2.186-13.356s0.729-6.558-8.015-9.229
		C129.199,10.464,126.042,14.135,126.042,14.135z"/>
	<path fill="#4E4063" d="M144.984,75.063c0,0,2.914-17,13.843-20.643c0,0,14.814,7.231,16.757,11.144c0,0,6.071,5.816,2.186,18.1
		c-3.886,12.284-8.014,14.713-12.871,14.713c0,0-7.609,0.81-13.356-0.891s-5.991-4.452-6.558-6.638S143.365,80.982,144.984,75.063z"
		/>
	
		<ellipse transform="matrix(0.9107 0.4131 -0.4131 0.9107 48.7738 -61.866)" fill="#3A2E4C" cx="167.455" cy="81.859" rx="1.862" ry="5.829"/>
	
		<ellipse transform="matrix(0.9108 0.4129 -0.4129 0.9108 50.7138 -63.5979)" fill="#3A2E4C" cx="172.527" cy="85.557" rx="1.722" ry="5.39"/>
	<circle cx="126.366" cy="100.077" r="4.291"/>
	<circle cx="142.313" cy="104.691" r="3.076"/>
	<ellipse fill="#FFFFFF" cx="124.948" cy="98.47" rx="1.417" ry="1.607"/>
	<circle fill="#FFFFFF" cx="140.7" cy="103.924" r="0.768"/>
	<path fill="#604E75" d="M66.705,117.968c0,0,11.981-1.405,18.619-5.56l5.504,4.75c0,0,9.714,2.96,9.876,3.584
		c0.162,0.625-5.989,6.453-17.809,5.158S66.705,117.968,66.705,117.968z"/>
	<polygon fill="#604E75" points="97.467,114.567 98.275,117.644 104.104,117.644 100.785,114.567 	"/>
</g>
</svg>
