<?xml version="1.0" encoding="utf-8"?>
<!-- Generator: Adobe Illustrator 15.0.0, SVG Export Plug-In . SVG Version: 6.00 Build 0)  -->
<!DOCTYPE svg PUBLIC "-//W3C//DTD SVG 1.1//EN" "http://www.w3.org/Graphics/SVG/1.1/DTD/svg11.dtd">
<svg version="1.1" id="Layer_1" xmlns="http://www.w3.org/2000/svg" xmlns:xlink="http://www.w3.org/1999/xlink" x="0px" y="0px"
	 width="210px" height="297.235px" viewBox="0 0 210 297.235" enable-background="new 0 0 210 297.235" xml:space="preserve">
<g>
	<g>
		<path fill="#E9E9EA" d="M-733.997,16.139h2.438c5.94,0,10.8,4.86,10.8,10.8v32.733c0,5.939-4.859,10.8-10.8,10.8h-2.438V16.139z"
			/>
		<path fill="#E9E9EA" d="M-812.904,16.139h-2.438c-5.94,0-10.801,4.86-10.801,10.8v32.733c0,5.939,4.86,10.8,10.801,10.8h2.438
			V16.139z"/>
		<path fill="#333333" d="M-731.559,16.139h-2.438h-78.907h-2.438c-5.94,0-10.801,4.86-10.801,10.8v5.699h13.238v54.5h78.907v-54.5
			h13.237v-5.699C-720.759,20.999-725.619,16.139-731.559,16.139z"/>
		<polygon fill="#B69FCC" points="-812.904,87.138 -812.904,103.805 -812.904,143.472 -784.115,143.472 -784.115,103.805 
			-762.787,103.805 -762.787,143.472 -733.997,143.472 -733.997,103.805 -733.997,87.138 		"/>
		<path d="M-798.509,157.866c7.949,0,14.395-6.444,14.395-14.395h-28.789C-812.904,151.422-806.459,157.866-798.509,157.866z"/>
		<path d="M-748.392,157.866c7.951,0,14.396-6.444,14.396-14.395h-28.79C-762.787,151.422-756.341,157.866-748.392,157.866z"/>
		<path fill="#B69FCC" d="M-798.509,129.077c-7.95,0-14.395,6.444-14.395,14.395h28.789
			C-784.115,135.521-790.56,129.077-798.509,129.077z"/>
		<path fill="#B69FCC" d="M-748.392,129.077c-7.949,0-14.395,6.444-14.395,14.395h28.79
			C-733.997,135.521-740.441,129.077-748.392,129.077z"/>
		<g>
			<g>
				<path fill="#604E75" d="M-792.406,35c0.692-0.213,1.111-0.07,1.252,0.418c1.805,6.229,2.708,9.343,4.513,15.572
					c0.134,0.461-0.042,0.8-0.545,0.955c-1.107,0.341-1.658,0.529-2.748,0.939c-0.471,0.177-0.843,0.027-1.02-0.419
					c-2.388-6.03-3.581-9.044-5.969-15.074c-0.187-0.472,0.092-0.856,0.739-1.1C-794.686,35.728-793.929,35.469-792.406,35z"/>
				<path fill="#604E75" d="M-783.068,32.864c0.709-0.108,1.101,0.096,1.169,0.6c0.533,3.935,0.799,5.902,1.332,9.837
					c0.262,1.934,0.558,3.055,2.637,2.865s2.166-1.346,2.074-3.295c-0.188-3.967-0.284-5.949-0.472-9.917
					c-0.024-0.507,0.358-0.78,1.039-0.801c1.604-0.05,2.407-0.049,4.01,0c0.716,0.022,1.061,0.293,1.036,0.801
					c-0.214,4.504-0.319,6.755-0.532,11.259c-0.079,1.67-0.666,5.734-6.759,6.288c-6.093,0.554-7.428-3.329-7.809-4.957
					c-1.027-4.391-1.54-6.585-2.567-10.976c-0.116-0.495,0.212-0.831,0.881-0.976C-785.452,33.252-784.658,33.106-783.068,32.864z"
					/>
				<path fill="#604E75" d="M-757.993,33.946c6.239,1.511,7.922,4.528,6.393,8.391s-4.182,4.655-9.254,3.427
					c-0.547-0.132-0.821-0.196-1.371-0.314c-0.543-0.116-0.907,0.072-1.005,0.57c-0.313,1.591-0.47,2.386-0.783,3.977
					c-0.098,0.497-0.403,0.693-0.917,0.601c-1.153-0.207-1.73-0.292-2.891-0.427c-0.492-0.057-0.751-0.362-0.704-0.84
					c0.641-6.443,0.96-9.664,1.604-16.107c0.05-0.505,0.431-0.724,1.147-0.666C-762.641,32.921-761.077,33.2-757.993,33.946z
					 M-759.643,41.574c1.479,0.363,2.251,0.444,2.687-1.064s-0.297-1.895-1.866-2.28c-0.706-0.173-1.062-0.256-1.771-0.408
					c-0.624-0.134-1.035,0.046-1.132,0.543c-0.149,0.756-0.224,1.134-0.373,1.89c-0.093,0.472,0.195,0.812,0.783,0.938
					C-760.645,41.334-760.309,41.411-759.643,41.574z"/>
			</g>
		</g>
	</g>
	<g>
		<path fill="#E9E9EA" d="M-696.416-47.493c-0.893,0-1.756,0.118-2.586,0.318c-8.77-28.624-38.908-49.725-74.753-49.725
			s-65.983,21.101-74.753,49.725c-0.83-0.201-1.693-0.318-2.586-0.318c-6.074,0-11,4.925-11,11c0,6.075,4.926,11,11,11
			c0.068,0,0.133-0.009,0.199-0.01c2.715,33.829,36.201,49.417,77.14,49.417c40.938,0,74.425-15.588,77.14-49.417
			c0.066,0.001,0.131,0.01,0.199,0.01c6.074,0,11-4.925,11-11C-685.416-42.568-690.341-47.493-696.416-47.493z"/>
		<path fill="none" stroke="#000000" stroke-width="3" stroke-linecap="round" stroke-miterlimit="10" d="M-829.216-42.51
			c0,2.075,1.561,5.25,5.006,5.25s5.214-2.635,5.214-5.213"/>
		<path fill="none" stroke="#000000" stroke-width="3" stroke-linecap="round" stroke-miterlimit="10" d="M-824.106-47.3
			c0,2.075,1.561,5.25,5.006,5.25c1.54,0,2.744-0.526,3.605-1.338"/>
		<path fill="none" stroke="#000000" stroke-width="3" stroke-linecap="round" stroke-miterlimit="10" d="M-724.191-47.3
			c0,2.075-1.561,5.25-5.006,5.25c-1.539,0-2.744-0.526-3.605-1.338"/>
		<path fill="none" stroke="#000000" stroke-width="3" stroke-linecap="round" stroke-miterlimit="10" d="M-729.378-42.51
			c0,2.075,1.561,5.25,5.006,5.25s5.214-2.635,5.214-5.213"/>
		<g>
			<circle cx="-814.497" cy="-39.785" r="7.5"/>
			<circle fill="#FFFFFF" cx="-816.991" cy="-41.828" r="3.03"/>
		</g>
		<g>
			<circle cx="-733.997" cy="-39.785" r="7.5"/>
			<circle fill="#FFFFFF" cx="-736.491" cy="-41.828" r="3.03"/>
		</g>
		<path fill="none" stroke="#000000" stroke-width="3" stroke-linecap="round" stroke-miterlimit="10" d="M-773.754-44.858
			c0,0,0.812,8.268,4.312,12.573l-4.312,3.555"/>
		<path fill="none" stroke="#000000" stroke-width="3" stroke-linecap="round" stroke-miterlimit="10" d="M-786.023-22.022
			c0,5.106,3.842,12.917,12.318,12.917s12.827-6.482,12.827-12.827"/>
		<path fill="#604E75" d="M-781.154-108.499c0,0-24.965,11-16.982,23.333s22.943-1.667,44.315,0
			c12.527,0.977,45.949,10.863,55.192,37.99c8.352,24.51-6.813,49.14-15.473,54.742c-8.66,5.604-22.548,31.751-16.387,45.648
			s28.668,28.953,52.334,20.286s18.666-23.333,18.666-23.333s-4,8.999-16,8.999s-31.332-16.667-16.666-52.333
			c14.666-35.667,12.495-75.284-14.373-98C-724.269-106.165-751.154-118.166-781.154-108.499z"/>
		<path fill="#E9E9EA" d="M-696.615-25.504c0.066,0.001,0.131,0.01,0.199,0.01c6.074,0,11-4.925,11-11c0-6.075-4.926-11-11-11
			c-0.893,0-1.756,0.118-2.586,0.318l-5.525,12.451L-696.615-25.504z"/>
		<path fill="#604E75" d="M-789.193-94.498c0,0-7.667,13-17.804,17.667c-10.418,4.796-31.542,3.521-41.511,29.657
			c-10.853,28.453,10.73,54.01,22.365,59.361c11.635,5.35,16.652,32.315,1.801,44.315s-56.853,13.333-60.186-15.667
			c0,0,9.001,11,19.334,9.334c10.333-1.667,26.334-16.667,8-38c-18.334-21.334-16.223-70.518,6-91.667
			C-828.354-101.233-802.86-109.165-789.193-94.498z"/>
		<path fill="#E9E9EA" d="M-850.893-25.504c-0.066,0.001-0.131,0.01-0.199,0.01c-6.074,0-11-4.925-11-11c0-6.075,4.926-11,11-11
			c0.893,0,1.756,0.118,2.586,0.318l5.525,12.451L-850.893-25.504z"/>
		<circle fill="#C4C4C3" cx="-819.622" cy="-13.127" r="9.595"/>
		<circle fill="#C4C4C3" cx="-727.377" cy="-13.127" r="9.595"/>
	</g>
</g>
<g>
	<g>
		<path fill="#E9E9EA" d="M-750.027,309.058h2.438c5.94,0,10.8,4.86,10.8,10.8v32.733c0,5.939-4.859,10.8-10.8,10.8h-2.438V309.058z
			"/>
		<path fill="#E9E9EA" d="M-828.934,309.058h-2.438c-5.94,0-10.801,4.86-10.801,10.8v32.733c0,5.939,4.86,10.8,10.801,10.8h2.438
			V309.058z"/>
		<path fill="#604E75" d="M-747.589,309.058h-2.438h-78.907h-2.438c-5.94,0-10.801,4.86-10.801,10.8v5.699h13.238v54.5h78.907v-54.5
			h13.237v-5.699C-736.79,313.918-741.649,309.058-747.589,309.058z"/>
		<polygon fill="#5B5C5C" points="-828.934,380.057 -828.934,396.724 -828.934,436.391 -800.145,436.391 -800.145,396.724 
			-778.817,396.724 -778.817,436.391 -750.027,436.391 -750.027,396.724 -750.027,380.057 		"/>
		<path d="M-814.54,450.785c7.949,0,14.395-6.444,14.395-14.395h-28.789C-828.934,444.341-822.49,450.785-814.54,450.785z"/>
		<path d="M-764.422,450.785c7.951,0,14.396-6.444,14.396-14.395h-28.79C-778.817,444.341-772.372,450.785-764.422,450.785z"/>
		<path fill="#5B5C5C" d="M-814.54,421.996c-7.95,0-14.395,6.444-14.395,14.395h28.789
			C-800.145,428.44-806.59,421.996-814.54,421.996z"/>
		<path fill="#5B5C5C" d="M-764.422,421.996c-7.949,0-14.395,6.444-14.395,14.395h28.79
			C-750.027,428.44-756.471,421.996-764.422,421.996z"/>
		<g>
			<g>
				<path fill="#B69FCC" d="M-808.438,327.92c0.692-0.213,1.112-0.071,1.253,0.416c1.805,6.229,2.705,9.343,4.509,15.572
					c0.134,0.463-0.042,0.802-0.546,0.957c-1.107,0.341-1.656,0.527-2.746,0.938c-0.471,0.177-0.844,0.026-1.021-0.421
					c-2.387-6.029-3.58-9.041-5.967-15.07c-0.187-0.472,0.093-0.855,0.74-1.1C-810.715,328.646-809.96,328.389-808.438,327.92z"/>
				<path fill="#B69FCC" d="M-799.099,325.782c0.71-0.108,1.1,0.096,1.168,0.598c0.533,3.937,0.798,5.905,1.332,9.841
					c0.262,1.934,0.559,3.053,2.638,2.863s2.166-1.344,2.073-3.293c-0.188-3.967-0.282-5.95-0.47-9.918
					c-0.024-0.506,0.357-0.779,1.037-0.801c1.604-0.05,2.407-0.05,4.01,0c0.715,0.022,1.061,0.295,1.037,0.801
					c-0.214,4.504-0.32,6.755-0.533,11.258c-0.079,1.67-0.668,5.736-6.759,6.291c-6.091,0.555-7.426-3.331-7.807-4.959
					c-1.027-4.39-1.541-6.584-2.567-10.975c-0.115-0.493,0.212-0.832,0.881-0.977C-801.483,326.171-800.689,326.024-799.099,325.782
					z"/>
				<path fill="#B69FCC" d="M-774.024,326.866c6.239,1.511,7.922,4.529,6.393,8.392s-4.182,4.651-9.253,3.424
					c-0.547-0.133-0.821-0.196-1.371-0.313c-0.543-0.116-0.91,0.074-1.007,0.571c-0.313,1.591-0.469,2.385-0.782,3.976
					c-0.098,0.497-0.402,0.692-0.917,0.601c-1.153-0.206-1.732-0.292-2.892-0.427c-0.492-0.058-0.752-0.36-0.704-0.84
					c0.641-6.443,0.962-9.663,1.605-16.106c0.05-0.505,0.432-0.724,1.147-0.666C-778.671,325.841-777.108,326.119-774.024,326.866z
					 M-775.674,334.494c1.479,0.363,2.252,0.443,2.688-1.065s-0.297-1.896-1.866-2.28c-0.706-0.174-1.061-0.254-1.771-0.406
					c-0.624-0.134-1.035,0.044-1.133,0.541c-0.148,0.756-0.223,1.133-0.371,1.889c-0.093,0.473,0.195,0.813,0.783,0.939
					C-776.674,334.255-776.34,334.33-775.674,334.494z"/>
			</g>
		</g>
	</g>
	<g>
		<path fill="#E9E9EA" d="M-712.446,244.426c-0.893,0-1.756,0.118-2.586,0.318c-8.77-28.624-38.908-49.726-74.753-49.726
			s-65.983,21.102-74.753,49.726c-0.83-0.2-1.693-0.318-2.586-0.318c-6.074,0-11,4.925-11,11s4.926,11,11,11
			c0.068,0,0.133-0.009,0.199-0.011c2.715,33.829,36.201,49.417,77.14,49.417c40.938,0,74.425-15.588,77.14-49.417
			c0.066,0.002,0.131,0.011,0.199,0.011c6.074,0,11-4.925,11-11S-706.372,244.426-712.446,244.426z"/>
		<path fill="none" stroke="#000000" stroke-width="3" stroke-linecap="round" stroke-miterlimit="10" d="M-789.785,247.062
			c0,0,0.812,8.268,4.312,12.572l-4.312,3.555"/>
		<path fill="none" stroke="#000000" stroke-width="3" stroke-linecap="round" stroke-miterlimit="10" d="M-802.053,269.896
			c0,5.106,3.842,12.917,12.318,12.917s12.827-6.482,12.827-12.827"/>
		<path fill="#604E75" d="M-839.116,324.135c4.591-11.506-4.857-20.418-10.387-24.648c-8.191-6.268-23.824-30.232-15.473-54.742
			c9.243-27.128,42.665-37.013,55.192-37.99c21.372-1.667,36.333,12.333,44.315,0s-16.982-23.333-16.982-23.333
			c-30-9.668-56.885,2.333-74.627,17.333c-26.868,22.716-31.902,63.65-14.373,98c5.55,10.875,8.467,16.334-1.2,21.167
			c0,0-5.5,3.833-7.5,0.667c0,0-0.167,4.333,7,5c0,0-1.333,3.05-4.333,2.107c0,0,3.812,1.742,6.771,0.434
			c0,0-0.375,1.813-2.75,1.875C-876.048,330.072-845.848,341.008-839.116,324.135z"/>
		<path fill="#604E75" d="M-739.262,327.421c-10.229-10.833-3.265-19.167,1.801-23.315c9.908-8.114,33.218-30.908,22.365-59.361
			c-9.969-26.136-31.093-24.86-41.511-29.657c-10.137-4.666-17.804-17.666-17.804-17.666c13.667-14.666,39.161-6.734,62,15
			c22.223,21.148,20.735,67.705,6,91.667c-5.739,9.333-2.333,15.333,8,17c0,0,5.095,1.76,7.095-0.537s-1.333,4.37-5.5,4.37
			s-1.499,1.499,2.167,1.833c0,0-2.927,1.5-6.797,1.334c0,0-1.037,0.666,0.963,1.5C-700.483,329.588-730.047,337.18-739.262,327.421
			z"/>
		<path fill="#E9E9EA" d="M-712.645,266.415c0.066,0.002,0.131,0.01,0.199,0.01c6.074,0,11-4.925,11-11c0-6.074-4.926-11-11-11
			c-0.893,0-1.756,0.118-2.586,0.318l-5.525,12.451L-712.645,266.415z"/>
		<path fill="#E9E9EA" d="M-866.923,266.415c-0.066,0.002-0.131,0.01-0.199,0.01c-6.074,0-11-4.925-11-11c0-6.074,4.926-11,11-11
			c0.893,0,1.756,0.118,2.586,0.318l5.525,12.451L-866.923,266.415z"/>
		<circle fill="#C4C4C3" cx="-835.652" cy="278.792" r="9.595"/>
		<circle fill="#C4C4C3" cx="-743.408" cy="278.792" r="9.595"/>
		<path fill="none" stroke="#000000" stroke-width="3" stroke-linecap="round" stroke-miterlimit="10" d="M-842.658,247.848
			c0,2.075,1.561,5.25,5.006,5.25s5.214-2.635,5.214-5.213"/>
		<path fill="none" stroke="#000000" stroke-width="3" stroke-linecap="round" stroke-miterlimit="10" d="M-837.548,243.058
			c0,2.075,1.561,5.25,5.006,5.25c1.54,0,2.744-0.526,3.605-1.338"/>
		<path fill="none" stroke="#000000" stroke-width="3" stroke-linecap="round" stroke-miterlimit="10" d="M-737.632,243.058
			c0,2.075-1.561,5.25-5.006,5.25c-1.539,0-2.744-0.526-3.605-1.338"/>
		<path fill="none" stroke="#000000" stroke-width="3" stroke-linecap="round" stroke-miterlimit="10" d="M-742.82,247.848
			c0,2.075,1.561,5.25,5.006,5.25s5.214-2.635,5.214-5.213"/>
		<g>
			<circle cx="-827.938" cy="250.572" r="7.5"/>
			<circle fill="#FFFFFF" cx="-830.432" cy="248.529" r="3.03"/>
		</g>
		<g>
			<circle cx="-747.438" cy="250.572" r="7.5"/>
			<circle fill="#FFFFFF" cx="-749.932" cy="248.529" r="3.03"/>
		</g>
	</g>
</g>
<g>
	<g>
		<path fill="#E9E9EA" d="M-511.104,16.139h2.438c5.94,0,10.801,4.86,10.801,10.8v32.733c0,5.939-4.86,10.8-10.801,10.8h-2.438
			V16.139z"/>
		<path fill="#E9E9EA" d="M-590.011,16.139h-2.438c-5.939,0-10.8,4.86-10.8,10.8v32.733c0,5.939,4.86,10.8,10.8,10.8h2.438V16.139z"
			/>
		<path fill="#5B5C5C" d="M-508.667,16.139h-2.438h-78.907h-2.438c-5.939,0-10.8,4.86-10.8,10.8v5.699h13.237v54.5h78.907v-54.5
			h13.238v-5.699C-497.866,20.999-502.726,16.139-508.667,16.139z"/>
		<polygon fill="#604E75" points="-590.011,87.138 -590.011,103.805 -590.011,143.472 -561.221,143.472 -561.221,103.805 
			-539.893,103.805 -539.893,143.472 -511.104,143.472 -511.104,103.805 -511.104,87.138 		"/>
		<path d="M-575.617,157.866c7.95,0,14.396-6.444,14.396-14.395h-28.79C-590.011,151.422-583.566,157.866-575.617,157.866z"/>
		<path d="M-525.499,157.866c7.95,0,14.395-6.444,14.395-14.395h-28.789C-539.893,151.422-533.448,157.866-525.499,157.866z"/>
		<path fill="#604E75" d="M-575.617,129.077c-7.949,0-14.395,6.444-14.395,14.395h28.79
			C-561.221,135.521-567.667,129.077-575.617,129.077z"/>
		<path fill="#604E75" d="M-525.499,129.077c-7.949,0-14.395,6.444-14.395,14.395h28.789
			C-511.104,135.521-517.548,129.077-525.499,129.077z"/>
		<g>
			<g>
				<path fill="#E9E9EA" d="M-583.897,38.221c1.461-0.578,2.197-0.851,3.676-1.364c0.197,0.567,0.295,0.851,0.492,1.418
					c-0.319,0.111-0.479,0.167-0.798,0.28c0.727,2.033,1.089,3.048,1.816,5.081c0.299-0.107,0.45-0.16,0.75-0.264
					c0.195,0.562,0.292,0.844,0.487,1.406c-1.343,0.466-2.01,0.713-3.337,1.239c-0.219-0.553-0.329-0.829-0.548-1.382
					c0.296-0.117,0.445-0.176,0.742-0.291c-0.776-2.015-1.163-3.021-1.938-5.036c-0.316,0.122-0.474,0.184-0.79,0.309
					C-583.566,39.058-583.677,38.779-583.897,38.221z"/>
				<path fill="#E9E9EA" d="M-572.245,34.464c1.383-0.343,2.078-0.5,3.471-0.788c0.122,0.587,0.183,0.88,0.305,1.468
					c-0.328,0.068-0.493,0.103-0.82,0.173c0.584,2.701,0.876,4.052,1.461,6.753c-0.48,0.104-0.719,0.157-1.198,0.268
					c-2.036-1.685-3.1-2.497-5.317-4.052c0.41,1.444,0.613,2.167,1.023,3.612c0.157-0.044,0.918-0.256,0.918-0.256
					c0.157,0.579,0.236,0.869,0.394,1.447c-1.25,0.339-1.874,0.521-3.113,0.91c-0.18-0.572-0.271-0.857-0.45-1.429
					c0.36-0.113,0.541-0.169,0.902-0.278c-0.625-2.071-0.936-3.107-1.561-5.179c-0.384,0.116-0.576,0.175-0.959,0.295
					c-0.18-0.572-0.27-0.858-0.449-1.43c1.163-0.365,1.747-0.539,2.918-0.864c1.862,1.35,2.763,2.05,4.499,3.488
					c-0.275-1.167-0.413-1.75-0.688-2.918c-0.389,0.092-0.583,0.138-0.972,0.234C-572.028,35.337-572.101,35.046-572.245,34.464z"/>
				<path fill="#E9E9EA" d="M-557.419,36.275c0.198,2.403-1.544,4.328-3.813,4.631c-1.451,0.193-2.176,0.307-3.619,0.564
					c-0.106-0.595-0.159-0.893-0.265-1.488c0.295-0.053,0.441-0.078,0.737-0.128c-0.359-2.119-0.537-3.179-0.896-5.298
					c-0.314,0.053-0.472,0.08-0.786,0.136c-0.107-0.6-0.16-0.898-0.267-1.498c1.59-0.284,2.388-0.408,3.986-0.621
					C-559.657,32.215-557.617,33.874-557.419,36.275z M-562.36,39.537c0.257-0.037,0.387-0.055,0.644-0.09
					c1.84-0.251,2.342-1.638,2.2-2.974c-0.144-1.347-1.154-2.592-2.927-2.35c-0.273,0.037-0.41,0.057-0.683,0.096
					C-562.819,36.346-562.667,37.41-562.36,39.537z"/>
				<path fill="#E9E9EA" d="M-555.864,31.979c1.541-0.094,2.313-0.125,3.856-0.154c0.011,0.6,0.018,0.9,0.029,1.5
					c-0.333,0.006-0.501,0.01-0.834,0.02c0.061,2.158,0.092,3.235,0.153,5.393c0.313-0.009,0.47-0.013,0.783-0.019
					c0.011,0.595,0.017,0.893,0.028,1.487c-1.401,0.026-2.102,0.054-3.502,0.14c-0.037-0.594-0.055-0.891-0.091-1.484
					c0.313-0.019,0.469-0.029,0.782-0.045c-0.112-2.155-0.168-3.233-0.28-5.389c-0.333,0.017-0.498,0.027-0.831,0.048
					C-555.808,32.877-555.828,32.578-555.864,31.979z"/>
				<path fill="#E9E9EA" d="M-544.076,32.009c0,0,2.489,6.831,2.62,7.135c0.372,0.039,0.556,0.059,0.927,0.102
					c-0.069,0.596-0.104,0.894-0.173,1.49c-1.399-0.163-2.102-0.229-3.505-0.332c0.043-0.593,0.067-0.89,0.111-1.483
					c0.184,0.014,0.274,0.021,0.458,0.035c-0.125-0.311-0.227-0.621-0.367-0.944c-0.993-0.073-1.491-0.102-2.485-0.146
					c-0.157,0.358-0.234,0.538-0.388,0.896c0.184,0.007,0.275,0.011,0.459,0.02c-0.027,0.594-0.04,0.892-0.067,1.486
					c-1.215-0.056-1.823-0.073-3.039-0.084c0.005-0.6,0.007-0.899,0.013-1.499c0.373,0.003,0.56,0.006,0.933,0.014
					c0.316-0.894,3.296-6.764,3.296-6.764c0.494,0.027,0.742,0.042,1.236,0.076C-544.059,32.01-544.065,32.01-544.076,32.009z
					 M-544.458,36.478c-0.256-0.686-0.387-1.027-0.655-1.711c-0.325,0.649-0.485,0.973-0.799,1.625
					C-545.33,36.421-545.04,36.438-544.458,36.478z"/>
				<path fill="#E9E9EA" d="M-531.975,33.637c1.393,0.285,2.087,0.44,3.471,0.78c-0.143,0.583-0.214,0.874-0.357,1.456
					c-0.326-0.08-0.488-0.118-0.815-0.195c-0.634,2.69-0.952,4.034-1.586,6.724c-0.479-0.113-0.717-0.167-1.197-0.272
					c-1.113-2.396-1.722-3.587-3.045-5.943c-0.251,1.48-0.377,2.221-0.628,3.701c0.16,0.027,0.934,0.163,0.934,0.163
					c-0.107,0.59-0.161,0.886-0.268,1.476c-1.269-0.23-1.905-0.333-3.18-0.514c0.084-0.594,0.126-0.891,0.21-1.484
					c0.37,0.052,0.555,0.08,0.924,0.137c0.327-2.139,0.49-3.209,0.817-5.348c-0.394-0.06-0.589-0.088-0.983-0.144
					c0.084-0.594,0.126-0.89,0.21-1.484c1.196,0.169,1.793,0.265,2.985,0.474c1.093,2.019,1.602,3.036,2.549,5.081
					c0.253-1.172,0.381-1.758,0.634-2.931c-0.39-0.084-0.585-0.126-0.977-0.206C-532.156,34.518-532.095,34.224-531.975,33.637z"/>
				<path fill="#E9E9EA" d="M-520.812,36.681c0,0,0.686,7.258,0.736,7.586c0.354,0.136,0.53,0.204,0.883,0.343
					c-0.221,0.558-0.331,0.838-0.552,1.396c-1.332-0.527-2.002-0.776-3.35-1.244c0.195-0.562,0.294-0.844,0.489-1.406
					c0.176,0.061,0.264,0.092,0.44,0.154c-0.043-0.333-0.065-0.658-0.119-1.008c-0.954-0.331-1.431-0.489-2.392-0.791
					c-0.245,0.305-0.367,0.458-0.609,0.765c0.178,0.055,0.267,0.083,0.444,0.139c-0.179,0.567-0.27,0.852-0.449,1.419
					c-1.173-0.371-1.763-0.546-2.946-0.872c0.159-0.578,0.239-0.868,0.398-1.446c0.363,0.1,0.543,0.151,0.905,0.255
					c0.538-0.782,4.958-5.678,4.958-5.678c0.477,0.155,0.713,0.233,1.188,0.396C-520.796,36.687-520.801,36.685-520.812,36.681z
					 M-522.331,40.902c-0.075-0.729-0.115-1.094-0.202-1.825c-0.485,0.542-0.726,0.813-1.201,1.361
					C-523.172,40.619-522.891,40.712-522.331,40.902z"/>
			</g>
		</g>
	</g>
	<g>
		<path fill="#E9E9EA" d="M-473.532-47.493c-0.893,0-1.756,0.118-2.586,0.318c-8.77-28.624-38.908-49.725-74.753-49.725
			c-35.846,0-65.984,21.101-74.752,49.725c-0.831-0.201-1.693-0.318-2.586-0.318c-6.076,0-11,4.925-11,11c0,6.075,4.924,11,11,11
			c0.066,0,0.132-0.009,0.199-0.01c2.713,33.829,36.201,49.417,77.139,49.417s74.425-15.588,77.14-49.417
			c0.066,0.001,0.131,0.01,0.199,0.01c6.074,0,11-4.925,11-11C-462.532-42.568-467.458-47.493-473.532-47.493z"/>
		<g>
			<circle cx="-591.613" cy="-39.785" r="7.5"/>
			<circle fill="#FFFFFF" cx="-594.107" cy="-41.828" r="3.029"/>
		</g>
		<g>
			<circle cx="-511.113" cy="-39.785" r="7.5"/>
			<circle fill="#FFFFFF" cx="-513.607" cy="-41.828" r="3.03"/>
		</g>
		<path fill="none" stroke="#000000" stroke-width="3" stroke-linecap="round" stroke-miterlimit="10" d="M-550.871-44.858
			c0,0,0.812,8.268,4.312,12.573l-4.312,3.555"/>
		<path fill="none" stroke="#000000" stroke-width="3" stroke-linecap="round" stroke-miterlimit="10" d="M-563.139-22.022
			c0,5.106,3.842,12.917,12.318,12.917s12.827-6.482,12.827-12.827"/>
		<path fill="#B69FCC" d="M-499.056-85.229L-499.056-85.229C-499.056-85.229-499.056-85.229-499.056-85.229
			c-1.28-0.946-2.444-1.776-3.42-2.501c-1.853-1.379-4.369-2.847-7.429-4.276c-16.112-12.402-23.727-29.564-23.727-29.564
			c-3,9.667-8.751,6.667-8.751,6.667c-2.751-1-3.083-6-3.083-6c-0.5,3.5-4,6.5-6.666,4.167c-2.667-2.333-4-11.5-4-11.5
			s-1.5,18-8.334,16.833c-6.833-1.167-6.166-5.167-6.166-5.167c-0.968,10.89-16.194,21.368-24.47,26.295
			c-1.881,0.93-3.637,1.909-5.25,2.928c-0.002,0-0.012,0.005-0.012,0.005h0.002c-2.631,1.663-4.881,3.431-6.615,5.279
			c-10.324,11.001-19.127,25.778-18.646,34.889c0,0,2.813,3.335,2.813,7.39h5.5c0,0,0.5-26.445,16-36.445
			c0,0,25.348-10.674,48.515-9.841c23.166,0.833,50.819,8.674,50.819,8.674c19.667,12.667,17.667,37.612,17.667,37.612h5.332
			c0.166-4.055,2.859-7.39,2.859-7.39C-477.914-68.361-490.925-79.225-499.056-85.229z"/>
	</g>
</g>
<g>
	<g>
		<path fill="#E9E9EA" d="M-972.718,309.058h2.438c5.939,0,10.8,4.86,10.8,10.8v32.733c0,5.939-4.86,10.8-10.8,10.8h-2.438V309.058z
			"/>
		<path fill="#E9E9EA" d="M-1051.626,309.058h-2.438c-5.94,0-10.8,4.86-10.8,10.8v32.733c0,5.939,4.859,10.8,10.8,10.8h2.438
			V309.058z"/>
		<path fill="#B69FCC" d="M-970.281,309.058h-2.438h-78.908h-2.438c-5.94,0-10.8,4.86-10.8,10.8v5.699h13.237v54.5h78.908v-54.5
			h13.237v-5.699C-959.481,313.918-964.341,309.058-970.281,309.058z"/>
		<polygon fill="#C4C4C3" points="-1051.626,380.057 -1051.626,396.724 -1051.626,436.391 -1022.836,436.391 -1022.836,396.724 
			-1001.508,396.724 -1001.508,436.391 -972.718,436.391 -972.718,396.724 -972.718,380.057 		"/>
		<path d="M-1037.232,450.785c7.95,0,14.396-6.444,14.396-14.395h-28.79C-1051.626,444.341-1045.182,450.785-1037.232,450.785z"/>
		<path d="M-987.114,450.785c7.95,0,14.396-6.444,14.396-14.395h-28.79C-1001.508,444.341-995.063,450.785-987.114,450.785z"/>
		<path fill="#C4C4C3" d="M-1037.232,421.996c-7.95,0-14.395,6.444-14.395,14.395h28.79
			C-1022.836,428.44-1029.282,421.996-1037.232,421.996z"/>
		<path fill="#C4C4C3" d="M-987.114,421.996c-7.949,0-14.395,6.444-14.395,14.395h28.79
			C-972.718,428.44-979.164,421.996-987.114,421.996z"/>
		<g>
			<g>
				<path fill="#5B5C5C" d="M-1038.328,333.283c0.005,1.075-0.326,2.526-2.473,3.263c-2.124,0.729-4.296-0.304-5.158-2.48
					c-0.926-2.34,0.149-4.519,2.484-5.319c0.799-0.273,1.465-0.328,1.834-0.276c-0.054-0.168-0.081-0.253-0.135-0.421
					c0.628-0.201,0.943-0.299,1.574-0.488c0.373,1.239,0.56,1.86,0.932,3.1c-0.608,0.183-0.913,0.278-1.519,0.473
					c-0.055-0.172-0.083-0.26-0.139-0.432c-0.177-0.552-0.978-0.92-2.066-0.547c-0.762,0.261-1.616,1.199-0.909,3.126
					c0.659,1.796,1.906,2.12,2.623,1.874c1.172-0.402,1.433-1.562,1.387-1.705C-1039.266,333.376-1038.952,333.344-1038.328,333.283
					z"/>
				<path fill="#5B5C5C" d="M-1029.033,331.913c0.104,0.575,0.157,0.86,0.261,1.436c-0.802,0.146-1.202,0.224-2.001,0.39
					c-0.327-0.074-1.008-0.378-1.227-1.375c-0.124-0.566-0.824-1.607-2.049-1.47c0.189,0.79,0.285,1.186,0.474,1.976
					c0.297-0.071,0.446-0.107,0.744-0.176c0.131,0.569,0.197,0.855,0.328,1.425c-1.323,0.305-1.982,0.47-3.295,0.829
					c-0.154-0.563-0.23-0.847-0.385-1.41c0.347-0.095,0.52-0.142,0.867-0.232c-0.53-2.023-0.796-3.035-1.326-5.059
					c-0.369,0.097-0.552,0.145-0.92,0.245c-0.153-0.56-0.229-0.839-0.382-1.398c1.506-0.412,2.262-0.598,3.78-0.943
					c2.023-0.461,2.908,0.707,3.107,1.72c0.168,0.854-0.406,1.818-0.383,1.994c0.032,0.242,1.002,1.148,1.168,1.99
					c0.056,0.284,0.361,0.224,0.361,0.224C-1029.559,332.01-1029.384,331.978-1029.033,331.913z M-1033.768,329.34
					c0.715-0.166,0.963-0.656,0.869-1.087s-0.498-0.796-1.104-0.656c-0.316,0.073-0.474,0.109-0.79,0.185
					c0.163,0.681,0.244,1.023,0.407,1.704C-1034.139,329.426-1034.015,329.397-1033.768,329.34z"/>
				<path fill="#5B5C5C" d="M-1027.81,324.97c1.458-0.225,2.188-0.323,3.651-0.489c0.065,0.576,0.096,0.865,0.162,1.441
					c-0.316,0.036-0.474,0.051-0.79,0.09c0.253,2.072,0.381,3.11,0.634,5.182c0.297-0.036,0.446-0.054,0.744-0.088
					c0.065,0.571,0.097,0.856,0.162,1.428c-1.333,0.151-1.999,0.242-3.326,0.447c-0.088-0.568-0.131-0.854-0.219-1.423
					c0.297-0.046,0.445-0.067,0.742-0.11c-0.3-2.065-0.451-3.1-0.751-5.165c-0.315,0.046-0.473,0.069-0.788,0.118
					C-1027.677,325.827-1027.721,325.543-1027.81,324.97z"/>
				<path fill="#5B5C5C" d="M-1013.122,323.88c1.024,0.009,1.537,0.021,2.562,0.059c-0.021,0.579-0.032,0.869-0.053,1.448
					c-0.378-0.014-0.568-0.02-0.946-0.029c-0.055,2.092-0.082,3.136-0.137,5.228c0.356,0.009,0.535,0.017,0.891,0.029
					c-0.021,0.579-0.031,0.867-0.053,1.446c-1.339-0.049-2.009-0.06-3.348-0.055c-0.002-0.579-0.003-0.868-0.005-1.448
					c0.233-0.001,0.35-0.001,0.583,0c0.003-1.049,0.004-1.574,0.007-2.622c-0.798,1.625-1.178,2.443-1.901,4.086
					c-0.354,0.007-0.532,0.013-0.887,0.023c0,0-1.74-2.985-2.417-4.097c0.062,1.098,0.092,1.646,0.154,2.744
					c0.237-0.014,0.356-0.02,0.594-0.031c0.029,0.579,0.042,0.867,0.071,1.446c-1.166,0.058-1.747,0.097-2.911,0.195
					c-0.049-0.577-0.074-0.864-0.123-1.442c0.36-0.03,0.54-0.046,0.9-0.072c-0.155-2.086-0.232-3.13-0.387-5.216
					c-0.382,0.028-0.573,0.044-0.955,0.076c-0.049-0.578-0.074-0.866-0.123-1.444c0.96-0.081,1.441-0.116,2.403-0.172
					c1.404,2.069,2.069,3.118,3.323,5.237C-1014.845,327.098-1014.293,326.018-1013.122,323.88z"/>
				<path fill="#5B5C5C" d="M-1001.793,330.549c-0.329,2.295-2.646,1.993-3.378,1.916c-0.731-0.077-1.566-0.441-1.824-1.045
					c-0.029,0.347-0.042,0.521-0.071,0.867c-0.582-0.048-0.873-0.069-1.455-0.107c0.086-1.333,0.129-1.999,0.216-3.332
					c0.605,0.039,0.909,0.063,1.514,0.113c-0.024,0.291-0.035,0.437-0.059,0.728c-0.048,0.578,0.649,1.216,1.536,1.307
					c0.745,0.076,1.656-0.121,1.708-0.548c0.088-0.726-0.487-0.962-1.804-1.501c-1.006-0.412-2.678-0.956-2.572-2.553
					c0.086-1.295,1.587-2.236,3.348-2.057c1.123,0.114,1.542,0.614,1.641,1.07c0.042-0.35,0.064-0.525,0.106-0.875
					c0.642,0.078,0.962,0.117,1.604,0.207c-0.153,1.094-0.229,1.642-0.381,2.735c-0.622-0.087-0.933-0.126-1.555-0.201
					c0.007-0.056,0.01-0.084,0.017-0.14c0.052-0.426-0.322-1.215-1.578-1.343c-0.477-0.049-1.133,0.182-1.172,0.621
					c-0.038,0.427,0.439,0.637,1.465,1.021C-1003.323,327.869-1001.503,328.528-1001.793,330.549z"/>
				<path fill="#5B5C5C" d="M-991.604,330.857c-0.795,3.004-3.098,3.483-4.874,3.102c-1.901-0.408-3.645-1.896-3.159-4.824
					c0.465-2.803,2.818-3.775,4.911-3.325C-992.772,326.229-990.838,327.965-991.604,330.857z M-993.745,330.32
					c0.381-1.602-0.179-2.809-1.295-3.049c-1.265-0.271-2.258,0.607-2.566,2.225c-0.304,1.594,0.25,2.757,1.439,3.013
					C-995.117,332.734-994.12,331.899-993.745,330.32z"/>
				<path fill="#5B5C5C" d="M-983.54,329.079c1.289,0.455,1.932,0.696,3.207,1.201c-0.213,0.539-0.32,0.809-0.533,1.348
					c-0.301-0.119-0.453-0.178-0.754-0.294c-0.961,2.492-1.44,3.74-2.401,6.232c-0.443-0.171-0.665-0.253-1.11-0.417
					c-0.746-2.441-1.168-3.663-2.111-6.094c-0.439,1.384-0.658,2.075-1.097,3.459c0.149,0.048,0.869,0.282,0.869,0.282
					c-0.181,0.551-0.273,0.825-0.454,1.376c-1.181-0.389-1.773-0.571-2.964-0.915c0.161-0.557,0.241-0.835,0.401-1.392
					c0.346,0.1,0.519,0.149,0.863,0.253c0.601-2.004,0.901-3.007,1.502-5.011c-0.366-0.109-0.549-0.164-0.916-0.27
					c0.161-0.557,0.241-0.837,0.401-1.394c1.113,0.321,1.667,0.492,2.772,0.85c0.768,2.076,1.119,3.115,1.751,5.198
					c0.398-1.089,0.597-1.634,0.995-2.723c-0.361-0.132-0.542-0.196-0.903-0.324C-983.829,329.899-983.733,329.626-983.54,329.079z"
					/>
			</g>
		</g>
		<g>
			<g>
				<path fill="#5B5C5C" d="M-1033.994,346.443c1.414,0.45,2.125,0.652,3.556,1.023c-0.15,0.58-0.226,0.872-0.376,1.452
					c-0.307-0.079-0.459-0.12-0.766-0.203c-0.565,2.084-0.848,3.126-1.414,5.21c0.331,0.09,0.495,0.131,0.826,0.217
					c-0.15,0.581-0.225,0.872-0.375,1.453c-1.608-0.417-2.409-0.65-3.998-1.156c0.182-0.571,0.272-0.853,0.455-1.424
					c0.395,0.126,0.593,0.185,0.989,0.305c0.244-0.804,0.364-1.204,0.608-2.008c-1.149-0.349-1.721-0.534-2.858-0.932
					c-0.277,0.793-0.415,1.188-0.691,1.98c0.392,0.137,0.588,0.206,0.981,0.337c-0.19,0.569-0.286,0.852-0.475,1.421
					c-1.584-0.528-2.37-0.814-3.93-1.432c0.221-0.558,0.331-0.837,0.552-1.395c0.321,0.127,0.482,0.19,0.805,0.313
					c0.771-2.017,1.156-3.026,1.928-5.043c-0.299-0.114-0.447-0.17-0.745-0.288c0.221-0.558,0.331-0.837,0.551-1.395
					c1.388,0.55,2.088,0.804,3.497,1.273c-0.189,0.569-0.285,0.854-0.475,1.424c-0.365-0.122-0.547-0.186-0.911-0.313
					c-0.237,0.68-0.355,1.019-0.593,1.698c1.114,0.389,1.674,0.574,2.799,0.915c0.209-0.688,0.314-1.035,0.523-1.724
					c-0.367-0.111-0.552-0.168-0.918-0.284C-1034.268,347.3-1034.176,347.015-1033.994,346.443z"/>
				<path fill="#5B5C5C" d="M-1023.336,348.906c0,0,2.183,6.921,2.329,7.226c0.402,0.041,0.604,0.059,1.007,0.094
					c-0.053,0.598-0.079,0.896-0.131,1.494c-1.577-0.139-2.365-0.228-3.935-0.448c0.083-0.589,0.125-0.885,0.208-1.474
					c0.198,0.027,0.297,0.042,0.495,0.068c-0.121-0.318-0.213-0.632-0.341-0.966c-1.045-0.146-1.567-0.229-2.608-0.413
					c-0.211,0.333-0.317,0.498-0.531,0.83c0.197,0.036,0.294,0.052,0.491,0.086c-0.103,0.586-0.154,0.88-0.256,1.466
					c-1.353-0.237-2.026-0.371-3.37-0.67c0.13-0.585,0.195-0.878,0.325-1.463c0.396,0.088,0.595,0.132,0.993,0.215
					c0.501-0.815,4.236-6.216,4.236-6.216c0.445,0.073,0.669,0.108,1.115,0.174
					C-1023.321,348.908-1023.327,348.907-1023.336,348.906z M-1024.068,353.332c-0.207-0.705-0.307-1.059-0.499-1.765
					c-0.382,0.614-0.577,0.923-0.972,1.532C-1024.951,353.199-1024.657,353.245-1024.068,353.332z"/>
				<path fill="#5B5C5C" d="M-1011.036,349.568c1.221-0.045,1.831-0.08,3.049-0.18c0.049,0.603,0.074,0.906,0.124,1.509
					c-0.314,0.025-0.472,0.036-0.786,0.059c-0.149,0.011-0.14,0.139-0.14,0.139c-0.755,2.768-1.18,4.148-2.119,6.894
					c-0.555,0.019-0.832,0.026-1.387,0.035c-0.648-1.736-0.954-2.607-1.531-4.356c-0.655,1.743-1.003,2.611-1.737,4.339
					c-0.483-0.013-0.725-0.022-1.208-0.043c-0.847-2.683-1.228-4.031-1.906-6.732c0.013-0.168-0.127-0.309-0.289-0.321
					c-0.314-0.025-0.472-0.038-0.785-0.066c0.055-0.602,0.082-0.903,0.137-1.505c1.466,0.133,2.201,0.179,3.67,0.232
					c-0.022,0.604-0.032,0.907-0.054,1.511c-0.25-0.009-0.376-0.014-0.625-0.025c0.32,1.216,0.489,1.82,0.842,3.032
					c0.714-1.782,1.049-2.679,1.681-4.477c0.425,0.004,0.638,0.003,1.063,0c0.627,1.8,0.961,2.698,1.671,4.482
					c0.355-1.211,0.525-1.817,0.848-3.032c-0.185,0.008-0.278,0.013-0.463,0.02
					C-1011.003,350.478-1011.014,350.172-1011.036,349.568z"/>
				<path fill="#5B5C5C" d="M-996.392,354.545c0.333-0.078,0.499-0.121,0.831-0.203c0.143,0.577,0.216,0.868,0.359,1.445
					c-1.611,0.399-2.422,0.576-4.048,0.887c-0.111-0.584-0.168-0.878-0.279-1.462c-1.127-0.825-1.674-1.246-2.741-2.112
					c0.16,1.01,0.239,1.513,0.398,2.522c0.336-0.053,0.504-0.081,0.84-0.138c0.1,0.587,0.149,0.881,0.249,1.468
					c-1.56,0.265-2.342,0.377-3.91,0.56c-0.069-0.591-0.104-0.887-0.173-1.478c0.337-0.039,0.506-0.06,0.843-0.103
					c-0.275-2.151-0.414-3.226-0.689-5.376c-0.313,0.04-0.468,0.06-0.781,0.096c-0.069-0.591-0.102-0.886-0.171-1.477
					c1.396-0.162,2.09-0.266,3.478-0.501c0.1,0.587,0.149,0.88,0.249,1.467c-0.312,0.053-0.467,0.081-0.779,0.13
					c0.084,0.535,0.126,0.803,0.211,1.338c0.842-0.856,1.249-1.292,2.039-2.173c-0.08-0.415-0.119-0.622-0.199-1.037
					c1.205-0.233,1.805-0.363,3.001-0.651c0.139,0.578,0.208,0.869,0.347,1.447c-0.372,0.09-0.557,0.132-0.93,0.216
					c-0.221,0.05-0.332,0.225-0.663,0.625c-0.242,0.292-1.033,1.279-1.585,1.834c1.238,0.989,1.878,1.472,3.197,2.405
					C-997.037,354.462-996.721,354.623-996.392,354.545z"/>
				<path fill="#5B5C5C" d="M-986.411,350.456c0.883,2.23-1.729,3.214-2.559,3.497c-0.83,0.283-1.902,0.31-2.419-0.158
					c0.106,0.344,0.159,0.515,0.265,0.858c-0.664,0.204-0.997,0.302-1.664,0.491c-0.376-1.329-0.564-1.992-0.941-3.321
					c0.637-0.181,0.955-0.274,1.588-0.47c0.089,0.289,0.132,0.434,0.221,0.723c0.176,0.573,1.173,0.894,2.143,0.568
					c0.814-0.273,1.659-0.907,1.507-1.325c-0.259-0.71-0.947-0.626-2.489-0.559c-1.179,0.051-3.053,0.147-3.507-1.444
					c-0.369-1.291,0.668-2.687,2.286-3.23c1.032-0.347,1.615-0.081,1.913,0.296c-0.125-0.343-0.186-0.514-0.311-0.856
					c0.587-0.214,0.879-0.324,1.463-0.552c0.416,1.063,0.623,1.597,1.038,2.66c-0.608,0.237-0.913,0.352-1.524,0.574
					c-0.02-0.055-0.03-0.082-0.05-0.137c-0.152-0.417-0.847-0.956-2.045-0.554c-0.456,0.153-0.968,0.632-0.83,1.066
					c0.134,0.423,0.668,0.445,1.81,0.351C-989.221,348.827-987.188,348.492-986.411,350.456z"/>
			</g>
		</g>
	</g>
	<g>
		<path fill="#E9E9EA" d="M-935.147,244.226c-0.893,0-1.755,0.117-2.586,0.318c-8.769-28.625-38.907-49.726-74.753-49.726
			c-35.845,0-65.983,21.101-74.753,49.726c-0.83-0.201-1.693-0.318-2.586-0.318c-6.074,0-11,4.924-11,11c0,6.074,4.926,11,11,11
			c0.068,0,0.133-0.01,0.199-0.011c2.715,33.828,36.201,49.416,77.14,49.416c40.938,0,74.426-15.588,77.14-49.416
			c0.067,0.001,0.132,0.011,0.199,0.011c6.075,0,11-4.926,11-11C-924.147,249.149-929.072,244.226-935.147,244.226z"/>
		<g>
			<circle cx="-1053.228" cy="251.933" r="7.5"/>
			<circle fill="#FFFFFF" cx="-1055.722" cy="249.89" r="3.03"/>
		</g>
		<g>
			<circle cx="-972.728" cy="251.933" r="7.5"/>
			<circle fill="#FFFFFF" cx="-975.222" cy="249.89" r="3.03"/>
		</g>
		<path fill="none" stroke="#000000" stroke-width="3" stroke-linecap="round" stroke-miterlimit="10" d="M-1012.486,246.86
			c0,0,0.812,8.268,4.312,12.572l-4.312,3.555"/>
		<path fill="none" stroke="#000000" stroke-width="3" stroke-linecap="round" stroke-miterlimit="10" d="M-1024.754,269.696
			c0,5.105,3.842,12.916,12.318,12.916s12.827-6.481,12.827-12.826"/>
		<path fill="#604E75" d="M-1012.182,171.22c-11.729,23.599-36.259,25.295-44.533,30.223c-1.883,0.93-3.639,1.908-5.252,2.928
			l-0.01,0.005h0.002c-2.632,1.663-4.881,3.431-6.616,5.279c-10.324,11.001-19.127,25.778-18.647,34.89c0,0,2.814,3.334,2.814,7.389
			h5.5c0,0,0.5-26.445,16-36.445c0,0,25.348-10.674,48.514-9.84c23.167,0.833,50.819,8.674,50.819,8.674
			c19.667,12.667,17.667,37.611,17.667,37.611h5.333c0.166-4.055,2.858-7.389,2.858-7.389
			c-1.796-21.188-14.808-32.051-22.938-38.055h0.001c-0.001,0-0.001,0-0.001,0c-1.28-0.946-2.444-1.775-3.42-2.502
			c-1.853-1.379-4.369-2.846-7.428-4.275C-1002.744,192.387-1012.182,171.22-1012.182,171.22z"/>
	</g>
</g>
<g>
	<g>
		<path fill="#E9E9EA" d="M-520.687,311.563h2.438c5.94,0,10.8,4.86,10.8,10.8v32.733c0,5.939-4.859,10.8-10.8,10.8h-2.438V311.563z
			"/>
		<path fill="#E9E9EA" d="M-599.594,311.563h-2.438c-5.94,0-10.801,4.86-10.801,10.8v32.733c0,5.939,4.86,10.8,10.801,10.8h2.438
			V311.563z"/>
		<path fill="#333333" d="M-518.25,311.563h-2.438h-78.907h-2.438c-5.94,0-10.801,4.86-10.801,10.8v5.699h13.238v54.5h78.907v-54.5
			h13.237v-5.699C-507.45,316.423-512.309,311.563-518.25,311.563z"/>
		<polygon fill="#B69FCC" points="-599.594,382.562 -599.594,399.229 -599.594,438.896 -570.805,438.896 -570.805,399.229 
			-549.477,399.229 -549.477,438.896 -520.687,438.896 -520.687,399.229 -520.687,382.562 		"/>
		<path d="M-585.2,453.29c7.949,0,14.395-6.444,14.395-14.395h-28.789C-599.594,446.846-593.15,453.29-585.2,453.29z"/>
		<path d="M-535.083,453.29c7.951,0,14.396-6.444,14.396-14.395h-28.79C-549.477,446.846-543.032,453.29-535.083,453.29z"/>
		<path fill="#B69FCC" d="M-585.2,424.501c-7.95,0-14.395,6.444-14.395,14.395h28.789
			C-570.805,430.945-577.25,424.501-585.2,424.501z"/>
		<path fill="#B69FCC" d="M-535.083,424.501c-7.949,0-14.395,6.444-14.395,14.395h28.79
			C-520.687,430.945-527.131,424.501-535.083,424.501z"/>
		<g>
			<g>
				<path fill="#B69FCC" d="M-583.862,330.078c1.531-0.451,2.302-0.659,3.848-1.036c0.162,0.665,0.243,0.998,0.405,1.663
					c-0.458,0.111-0.688,0.169-1.145,0.287c-0.075,1.263-1.27,7.851-1.243,8.559c-0.533,0.164-0.799,0.248-1.33,0.422
					c-0.389-0.593-5.553-5.688-5.986-6.255c-0.439,0.167-0.661,0.251-1.098,0.424c-0.252-0.637-0.377-0.954-0.629-1.591
					c1.645-0.651,2.473-0.953,4.142-1.515c0.218,0.648,0.328,0.972,0.546,1.62c-0.148,0.05-0.221,0.075-0.369,0.126
					c0.648,0.689,3.131,3.495,3.131,3.495c0.152-0.039,0.69-3.631,0.782-4.725c-0.228,0.065-0.341,0.099-0.568,0.166
					C-583.571,331.063-583.669,330.734-583.862,330.078z"/>
				<path fill="#B69FCC" d="M-565.363,332.483c-0.112,1.588-0.162,2.383-0.252,3.971c-3.276,0.242-4.913,0.453-8.154,1.058
					c-0.125-0.673-0.188-1.011-0.313-1.684c0.355-0.066,0.532-0.097,0.887-0.158c-0.424-2.433-0.635-3.65-1.059-6.083
					c-0.384,0.067-0.576,0.102-0.959,0.173c-0.125-0.673-0.188-1.008-0.313-1.681c3.424-0.639,5.151-0.868,8.609-1.148
					c0.5,1.267,0.743,1.9,1.213,3.174c-0.761,0.053-1.141,0.084-1.901,0.154c-0.244-0.665-0.527-1.512-1.677-1.383
					c-1,0.112-1.5,0.175-2.497,0.317c0.117,0.818,0.176,1.229,0.293,2.048c0.525-0.075,0.788-0.11,1.314-0.177
					c-0.035-0.276-0.053-0.415-0.088-0.691c0.753-0.095,1.13-0.14,1.885-0.217c0.126,1.23,0.189,1.85,0.315,3.08
					c-0.726,0.074-1.087,0.115-1.812,0.206c-0.034-0.271-0.052-0.406-0.086-0.678c-0.515,0.064-0.774,0.098-1.288,0.171
					c0.136,0.948,0.204,1.422,0.339,2.37c1.138-0.163,1.708-0.234,2.849-0.354c0.525-0.055,0.766-1.286,0.865-2.326
					C-566.462,332.56-566.096,332.532-565.363,332.483z"/>
				<path fill="#B69FCC" d="M-552.454,334.929c-0.069,0.687-0.103,1.03-0.172,1.717c-0.966-0.099-1.449-0.139-2.417-0.205
					c-0.351-0.188-1.036-0.752-0.971-1.954c0.037-0.684-0.442-2.09-1.908-2.31c-0.027,0.958-0.041,1.435-0.068,2.393
					c0.365,0.011,0.547,0.017,0.912,0.031c-0.027,0.689-0.041,1.035-0.068,1.725c-1.61-0.065-2.416-0.075-4.026-0.053
					c-0.01-0.689-0.016-1.037-0.025-1.727c0.428-0.006,0.642-0.006,1.069-0.006c0-2.47,0.001-3.705,0.002-6.174
					c-0.462,0-0.693,0.001-1.156,0.008c-0.009-0.685-0.014-1.024-0.023-1.709c1.901-0.026,2.851-0.013,4.751,0.068
					c2.531,0.108,3.188,1.734,3.088,2.948c-0.084,1.022-1.069,1.938-1.098,2.14c-0.041,0.281,0.787,1.623,0.704,2.634
					c-0.028,0.341,0.34,0.374,0.34,0.374C-553.093,334.866-552.879,334.886-552.454,334.929z M-557.106,330.492
					c0.886,0.033,1.333-0.447,1.361-0.967c0.028-0.519-0.327-1.063-1.082-1.093c-0.394-0.016-0.592-0.022-0.986-0.033
					c-0.023,0.826-0.035,1.239-0.058,2.065C-557.565,330.474-557.413,330.48-557.106,330.492z"/>
				<path fill="#B69FCC" d="M-538.527,334.471c-0.751,2.646-3.405,3.995-5.967,3.443c-1.638-0.353-2.462-0.505-4.113-0.764
					c0.106-0.682,0.161-1.023,0.268-1.705c0.339,0.053,0.508,0.081,0.847,0.138c0.407-2.419,0.612-3.624,1.021-6.043
					c-0.366-0.062-0.55-0.092-0.917-0.149c0.108-0.687,0.163-1.03,0.271-1.717c1.865,0.293,2.794,0.464,4.644,0.862
					C-539.364,329.206-537.775,331.824-538.527,334.471z M-545.184,336.011c0.292,0.059,0.438,0.09,0.73,0.151
					c2.09,0.44,3.182-0.839,3.555-2.325c0.376-1.5-0.244-3.243-2.291-3.675c-0.315-0.066-0.474-0.1-0.79-0.163
					C-544.461,332.403-544.702,333.605-545.184,336.011z"/>
				<path fill="#B69FCC" d="M-533.562,331.018c1.735,0.579,2.597,0.895,4.306,1.571c-0.252,0.637-0.378,0.954-0.63,1.591
					c-0.368-0.146-0.551-0.219-0.92-0.359c-0.879,2.301-1.318,3.451-2.197,5.752c0.341,0.131,0.51,0.199,0.85,0.334
					c-0.25,0.631-0.375,0.947-0.625,1.578c-1.514-0.6-2.277-0.878-3.814-1.392c0.215-0.644,0.323-0.969,0.538-1.612
					c0.345,0.115,0.517,0.174,0.861,0.293c0.808-2.327,1.213-3.486,2.021-5.813c-0.372-0.129-0.559-0.195-0.932-0.32
					C-533.887,331.99-533.778,331.667-533.562,331.018z"/>
			</g>
		</g>
	</g>
	<g>
		<path fill="#E9E9EA" d="M-483.106,245.931c-0.893,0-1.756,0.117-2.586,0.318c-8.77-28.624-38.908-49.725-74.753-49.725
			s-65.983,21.101-74.753,49.725c-0.83-0.201-1.693-0.318-2.586-0.318c-6.074,0-11,4.925-11,11c0,6.074,4.926,11,11,11
			c0.068,0,0.133-0.009,0.199-0.01c2.715,33.828,36.201,49.416,77.14,49.416c40.938,0,74.425-15.588,77.14-49.416
			c0.066,0.001,0.131,0.01,0.199,0.01c6.074,0,11-4.926,11-11C-472.106,250.855-477.032,245.931-483.106,245.931z"/>
		<path fill="none" stroke="#000000" stroke-width="3" stroke-linecap="round" stroke-miterlimit="10" d="M-560.445,248.565
			c0,0,0.812,8.269,4.312,12.573l-4.312,3.555"/>
		<g>
			<path fill="#FFFFFF" d="M-547.873,284.408c0,6.346-4.351,12.827-12.827,12.827s-12.318-7.812-12.318-12.917
				c2.218,2.538,6.267,4.654,12.506,4.654C-554.507,288.973-550.318,286.731-547.873,284.408z"/>
			<path fill="none" stroke="#000000" stroke-width="3" stroke-linecap="round" stroke-miterlimit="10" d="M-573.018,284.318
				c2.218,2.538,6.267,4.654,12.506,4.654c6.005,0,10.194-2.241,12.64-4.564"/>
			<path fill="none" stroke="#000000" stroke-width="3" stroke-linecap="round" stroke-miterlimit="10" d="M-573.018,284.318
				c0,5.105,3.842,12.917,12.318,12.917s12.827-6.481,12.827-12.827"/>
		</g>
		<path fill="#E9E9EA" d="M-483.305,267.92c0.066,0.001,0.131,0.011,0.199,0.011c6.074,0,11-4.926,11-11c0-6.076-4.926-11-11-11
			c-0.893,0-1.756,0.117-2.586,0.318l-5.525,12.45L-483.305,267.92z"/>
		<path fill="#E9E9EA" d="M-637.583,267.92c-0.066,0.001-0.131,0.011-0.199,0.011c-6.074,0-11-4.926-11-11c0-6.076,4.926-11,11-11
			c0.893,0,1.756,0.117,2.586,0.318l5.525,12.45L-637.583,267.92z"/>
		<circle fill="#C4C4C3" cx="-606.312" cy="280.297" r="9.595"/>
		<circle fill="#C4C4C3" cx="-514.068" cy="280.297" r="9.595"/>
		<path fill="#604E75" d="M-637.883,213.926c-22.223,21.149-24.334,70.333-6,91.667c18.334,21.333,2.333,36.333-8,38
			c-10.333,1.666-19.334-9.334-19.334-9.334c0.396,3.443,1.352,6.446,2.728,9.068c-2.298-1.246-4.663-2.779-5.65-4.242
			c0,0,4.06,8.138,10.563,10.582c1.052,0.96,2.184,1.832,3.389,2.613c-4.779,3.223-11.028,3.232-11.028,3.232
			c21.871,4.82,29.543,3.684,32.228,2.422c0.044,0.001,0.088,0.002,0.131,0.003c-6.029,5.187-15.043,5.575-15.043,5.575
			c15.602-0.252,24.275-3.078,29.048-5.824c-3.5,4.729-7.381,7.491-7.381,7.491c6.907-1.829,11.89-7.023,15.076-11.569
			c0.249-0.113,0.495-0.229,0.737-0.348c-1.121,7.074-2.813,8.917-2.813,8.917c7.493-7.067,11.745-14.213,14.116-19.517
			c1.328-2.516,2.225-5.242,2.737-8.047c0.056-0.271,0.08-0.419,0.08-0.419s-0.004,0.002-0.005,0.002
			c2.012-11.918-2.79-25.031-10.526-28.589c-11.635-5.352-33.218-30.908-22.365-59.361c9.969-26.136,31.093-24.861,41.511-29.656
			c10.137-4.667,17.804-17.667,17.804-17.667C-589.55,184.259-615.044,192.19-637.883,213.926z"/>
		<path fill="#604E75" d="M-518.598,340.735c-0.075,12.131,5.55,21.568,17.363,32.11c0,0-1.79-4.335,3.293-7.784
			c0.05,0.024,0.098,0.05,0.147,0.074c2.565,4.865,9.68,11.211,29.393,10.377c0,0-5.979-0.935-10.978-5.67
			c5.228,1.792,15.366,3.506,31.978-0.363c0,0-9.593,0.265-8.694-6.748c13.529-8.509,9.918-19.139,9.918-19.139s-4,8.999-16,8.999
			s-31.332-16.667-16.666-52.333s12.495-75.284-14.373-98c-17.742-15-44.627-27-74.627-17.334c0,0-24.965,11-16.982,23.334
			s22.943-1.666,44.315,0c12.527,0.977,45.949,10.863,55.192,37.99c8.352,24.51-6.813,49.141-15.473,54.742
			C-507.681,305.449-518.548,328.616-518.598,340.735z"/>
		<path fill="none" stroke="#000000" stroke-width="3" stroke-linecap="round" stroke-miterlimit="10" d="M-613.318,247.173
			c0,2.075,1.561,5.25,5.006,5.25s5.214-2.635,5.214-5.213"/>
		<path fill="none" stroke="#000000" stroke-width="3" stroke-linecap="round" stroke-miterlimit="10" d="M-608.208,242.383
			c0,2.075,1.561,5.25,5.006,5.25c1.54,0,2.744-0.526,3.605-1.338"/>
		<path fill="none" stroke="#000000" stroke-width="3" stroke-linecap="round" stroke-miterlimit="10" d="M-508.292,242.383
			c0,2.075-1.561,5.25-5.006,5.25c-1.539,0-2.744-0.526-3.605-1.338"/>
		<path fill="none" stroke="#000000" stroke-width="3" stroke-linecap="round" stroke-miterlimit="10" d="M-513.48,247.173
			c0,2.075,1.561,5.25,5.006,5.25s5.214-2.635,5.214-5.213"/>
		<g>
			<circle cx="-598.598" cy="249.897" r="7.5"/>
			<circle fill="#FFFFFF" cx="-601.092" cy="247.854" r="3.03"/>
		</g>
		<g>
			<circle cx="-518.098" cy="249.897" r="7.5"/>
			<circle fill="#FFFFFF" cx="-520.592" cy="247.854" r="3.03"/>
		</g>
	</g>
</g>
<g>
	<path fill="#E9E9EA" d="M129.896,166.318l-0.636-2.353c-1.548-5.736,1.878-11.693,7.612-13.241l31.602-8.532
		c5.734-1.548,11.693,1.876,13.242,7.612l0.635,2.353L129.896,166.318z"/>
	<path fill="#E9E9EA" d="M54.094,152.285h-2.438c-5.94,0-10.801,4.86-10.801,10.8v32.733c0,5.939,4.86,10.8,10.801,10.8h2.438
		V152.285z"/>
	<polygon fill="#B69FCC" points="54.094,223.284 54.094,239.951 54.094,279.618 82.883,279.618 82.883,239.951 104.211,239.951 
		104.211,279.618 133.001,279.618 133.001,239.951 133.001,223.284 	"/>
	<path d="M68.488,294.013c7.949,0,14.395-6.444,14.395-14.395H54.094C54.094,287.568,60.538,294.013,68.488,294.013z"/>
	<path d="M118.605,294.013c7.951,0,14.396-6.444,14.396-14.395h-28.79C104.211,287.568,110.656,294.013,118.605,294.013z"/>
	<path fill="#B69FCC" d="M68.488,265.224c-7.95,0-14.395,6.444-14.395,14.395h28.789C82.883,271.668,76.438,265.224,68.488,265.224z
		"/>
	<path fill="#B69FCC" d="M118.605,265.224c-7.949,0-14.395,6.444-14.395,14.395h28.79
		C133.001,271.668,126.557,265.224,118.605,265.224z"/>
	<path d="M170.001,165l-7.764-21.124l-19.863,5.363l-5.502,1.486c-5.734,1.547-9.16,7.505-7.612,13.241l0.636,2.353l2.758-0.745
		C145.848,168.576,170.001,165,170.001,165z"/>
	<polygon fill="#FFFFFF" points="82.883,152.285 67.001,152.285 93.547,194.667 116.001,152.285 	"/>
	<polygon fill="#B69FCC" points="109.523,194.667 97.555,160.333 101.668,152 85.334,152 90.001,160.333 80.975,194.667 	"/>
	<path d="M133.001,223.284v-54.5v-16.499h-23.478l-16.29,36.382l-19.574-36.382H54.094h-2.438c-5.94,0-10.801,4.86-10.801,10.8
		v5.699L38.667,197c0,0,6.834,2.021,15.427,0.779v25.505L50.007,267c0,0,34.993,13.333,86.327,0L133.001,223.284z"/>
	<polygon fill="#FFFFFF" points="73.659,152.285 79.668,141.82 93.233,150.333 101.668,141.82 109.523,152.285 102.334,158 
		93.547,152.285 82.883,158 	"/>
	<path fill="#C4C4C3" d="M204.935,123.919c-9.363-9.008-18.099-5.892-18.099-5.892l-5.39,23.366
		c7.291,7.012,14.09,4.586,14.09,4.586L204.935,123.919z"/>
	<path fill="#C4C4C3" d="M192.983,153.823c0,0-6.8,2.425-14.091-4.587l-10.896,26.666c9.362,9.008,18.099,5.891,18.099,5.891
		L192.983,153.823z"/>
	<path fill="#604E75" d="M195.757,146.054c0,0-7.015,2.501-14.532-4.73l-2.633,8.089c7.518,7.231,14.531,4.73,14.531,4.73
		L195.757,146.054z"/>
</g>
<g>
	<g>
		<path fill="#E9E9EA" d="M170.582,85.903c-0.893,0-1.756,0.118-2.586,0.318c-8.77-28.624-38.908-49.725-74.753-49.725
			S27.26,57.598,18.49,86.222c-0.83-0.201-1.693-0.318-2.586-0.318c-6.074,0-11,4.925-11,11c0,6.075,4.926,11,11,11
			c0.068,0,0.133-0.009,0.199-0.01c2.715,33.829,36.201,49.417,77.14,49.417c40.938,0,74.425-15.588,77.14-49.417
			c0.066,0.001,0.131,0.01,0.199,0.01c6.074,0,11-4.925,11-11C181.582,90.828,176.656,85.903,170.582,85.903z"/>
		<g>
			<circle cx="52.501" cy="93.611" r="7.5"/>
			<circle fill="#FFFFFF" cx="50.007" cy="91.568" r="3.03"/>
		</g>
		<g>
			<circle cx="133.001" cy="93.611" r="7.5"/>
			<circle fill="#FFFFFF" cx="130.507" cy="91.568" r="3.03"/>
		</g>
		<path fill="#B69FCC" d="M141.638,45.666c-7.167-5.333-24.171-11.994-44.657-12.637C74.805,32.333,47.305,40.5,37.138,51.333
			C26.813,62.333,18.011,77.111,18.49,86.222c0,0,2.814,3.335,2.814,7.39h5.5c0,0,0.5-26.445,16-36.445
			c0,0,7.499-0.833,10.166,4.833c0,0,4.227-3.333,2.03-6.5c0,0,24.429-4.833,39.929,10.792c0,0,3.125-5.542,0.875-7.542
			c0,0,16.125,0.667,22.375,7.917c0,0,0.875-2.417,0-5c-0.445-1.313,23.625-1.875,29.75,7.25c0,0,0.666-8.583-5.792-12.917
			c19.667,12.667,17.667,37.612,17.667,37.612h5.332c0.166-4.055,2.859-7.39,2.859-7.39C165.918,61.697,148.805,51,141.638,45.666z"
			/>
		<path fill="none" stroke="#000000" stroke-width="3" stroke-linecap="round" stroke-miterlimit="10" d="M93.243,88.539
			c0,0,0.812,8.268,4.312,12.573l-4.312,3.555"/>
		<path fill="none" stroke="#000000" stroke-width="3" stroke-linecap="round" stroke-miterlimit="10" d="M80.975,111.374
			c0,5.106,3.842,12.917,12.318,12.917s12.827-6.482,12.827-12.827"/>
	</g>
	<path fill="#564968" d="M54.094,40.844c0,0,28.171-0.738,39.14,9.156c0,0,6.632-9.201,30.449-12.601V19.5
		c0,0-14.155-4.5-34.794-4.5s-34.795,4.5-34.795,4.5V40.844z"/>
	<polygon fill="#372D47" points="88.889,40.25 32,24.25 88.889,6.5 147.25,25.5 	"/>
	<path fill="#191422" d="M45.874,49.309c0.44-0.188,0.75-0.624,0.75-1.133c0-0.68-0.551-1.23-1.23-1.23s-1.23,0.551-1.23,1.23
		c0,0.536,0.347,0.98,0.824,1.149c-4.137,3.006-4.689,14.329-4.689,14.329l1.977-2.737l1.509,2.737l1.428-2.672l1.185,2.672
		l1.429-2.347l1.863,2.347C49.923,57.379,47.706,50.351,45.874,49.309z"/>
	<polygon fill="#191422" points="45.814,47.5 44.897,47.5 44.897,27.877 45.814,28.06 	"/>
	<polygon fill="#191422" points="86.559,17.821 86.765,18.714 45.814,28.149 44.897,27.877 	"/>
</g>
</svg>
