<?xml version="1.0" encoding="utf-8"?>
<!-- Generator: Adobe Illustrator 15.0.0, SVG Export Plug-In . SVG Version: 6.00 Build 0)  -->
<!DOCTYPE svg PUBLIC "-//W3C//DTD SVG 1.1//EN" "http://www.w3.org/Graphics/SVG/1.1/DTD/svg11.dtd">
<svg version="1.1" id="Layer_1" xmlns="http://www.w3.org/2000/svg" xmlns:xlink="http://www.w3.org/1999/xlink" x="0px" y="0px"
	 width="332px" height="287.241px" viewBox="0 0 332 287.241" enable-background="new 0 0 332 287.241" xml:space="preserve">
<g>
	<g>
		<path fill="#E9E9EA" d="M-1299.367,353.916h2.438c5.94,0,10.8,4.86,10.8,10.8v32.733c0,5.939-4.859,10.8-10.8,10.8h-2.438V353.916
			z"/>
		<path fill="#E9E9EA" d="M-1378.274,353.916h-2.438c-5.94,0-10.801,4.86-10.801,10.8v32.733c0,5.939,4.86,10.8,10.801,10.8h2.438
			V353.916z"/>
		<path fill="#604E75" d="M-1296.929,353.916h-2.438h-78.907h-2.438c-5.94,0-10.801,4.86-10.801,10.8v5.699h13.238v54.5h78.907
			v-54.5h13.237v-5.699C-1286.129,358.776-1290.989,353.916-1296.929,353.916z"/>
		<polygon fill="#5B5C5C" points="-1378.274,424.915 -1378.274,441.582 -1378.274,481.249 -1349.485,481.249 -1349.485,441.582 
			-1328.157,441.582 -1328.157,481.249 -1299.367,481.249 -1299.367,441.582 -1299.367,424.915 		"/>
		<path d="M-1363.879,495.643c7.949,0,14.395-6.444,14.395-14.395h-28.789C-1378.274,489.199-1371.83,495.643-1363.879,495.643z"/>
		<path d="M-1313.762,495.643c7.951,0,14.396-6.444,14.396-14.395h-28.79C-1328.157,489.199-1321.711,495.643-1313.762,495.643z"/>
		<path fill="#5B5C5C" d="M-1363.879,466.854c-7.95,0-14.395,6.444-14.395,14.395h28.789
			C-1349.485,473.298-1355.93,466.854-1363.879,466.854z"/>
		<path fill="#5B5C5C" d="M-1313.762,466.854c-7.949,0-14.395,6.444-14.395,14.395h28.79
			C-1299.367,473.298-1305.811,466.854-1313.762,466.854z"/>
		<g>
			<g>
				<path fill="#B69FCC" d="M-1357.777,372.777c0.692-0.213,1.112-0.066,1.253,0.42c1.805,6.228,2.705,9.341,4.509,15.568
					c0.134,0.463-0.041,0.803-0.544,0.958c-1.107,0.341-1.657,0.526-2.747,0.937c-0.471,0.178-0.844,0.028-1.021-0.419
					c-2.387-6.029-3.579-9.043-5.967-15.072c-0.187-0.472,0.093-0.854,0.74-1.098
					C-1360.055,373.506-1359.3,373.246-1357.777,372.777z"/>
				<path fill="#B69FCC" d="M-1348.438,370.641c0.71-0.108,1.1,0.096,1.168,0.598c0.533,3.936,0.798,5.906,1.332,9.842
					c0.262,1.934,0.559,3.05,2.638,2.86s2.166-1.344,2.073-3.293c-0.188-3.967-0.282-5.953-0.47-9.92
					c-0.024-0.506,0.357-0.776,1.038-0.798c1.604-0.05,2.407-0.05,4.011,0c0.715,0.022,1.06,0.294,1.036,0.8
					c-0.214,4.504-0.32,6.756-0.533,11.26c-0.079,1.67-0.668,5.734-6.759,6.289c-6.091,0.555-7.426-3.329-7.807-4.957
					c-1.027-4.39-1.541-6.585-2.567-10.975c-0.115-0.493,0.212-0.833,0.881-0.978
					C-1350.823,371.029-1350.029,370.883-1348.438,370.641z"/>
				<path fill="#B69FCC" d="M-1323.364,371.723c6.239,1.512,7.922,4.529,6.393,8.392s-4.182,4.655-9.253,3.426
					c-0.547-0.133-0.822-0.194-1.372-0.313c-0.543-0.116-0.909,0.072-1.006,0.569c-0.313,1.591-0.469,2.385-0.782,3.976
					c-0.098,0.497-0.402,0.696-0.917,0.604c-1.153-0.207-1.733-0.296-2.893-0.431c-0.492-0.058-0.75-0.36-0.702-0.84
					c0.641-6.443,0.96-9.663,1.603-16.106c0.05-0.504,0.432-0.724,1.148-0.666C-1328.011,370.698-1326.448,370.976-1323.364,371.723
					z M-1325.014,379.352c1.479,0.363,2.252,0.444,2.687-1.064s-0.296-1.895-1.865-2.28c-0.706-0.174-1.061-0.256-1.771-0.408
					c-0.624-0.134-1.035,0.048-1.133,0.545c-0.148,0.756-0.223,1.131-0.371,1.887c-0.093,0.473,0.195,0.813,0.783,0.938
					C-1326.014,379.113-1325.68,379.188-1325.014,379.352z"/>
			</g>
		</g>
	</g>
	<g>
		<path fill="#E9E9EA" d="M-1261.786,289.284c-0.893,0-1.756,0.118-2.586,0.318c-8.77-28.624-38.908-49.726-74.753-49.726
			s-65.983,21.102-74.753,49.726c-0.83-0.2-1.693-0.318-2.586-0.318c-6.074,0-11,4.925-11,11s4.926,11,11,11
			c0.068,0,0.133-0.009,0.199-0.011c2.715,33.829,36.201,49.417,77.14,49.417c40.938,0,74.425-15.588,77.14-49.417
			c0.066,0.002,0.131,0.011,0.199,0.011c6.074,0,11-4.925,11-11S-1255.711,289.284-1261.786,289.284z"/>
		<path fill="none" stroke="#000000" stroke-width="3" stroke-linecap="round" stroke-miterlimit="10" d="M-1339.125,291.919
			c0,0,0.812,8.268,4.312,12.572l-4.312,3.555"/>
		<path fill="none" stroke="#000000" stroke-width="3" stroke-linecap="round" stroke-miterlimit="10" d="M-1351.393,314.754
			c0,5.106,3.842,12.917,12.318,12.917s12.827-6.482,12.827-12.827"/>
		<path fill="#604E75" d="M-1388.456,368.993c4.591-11.506-4.857-20.418-10.387-24.648c-8.191-6.268-23.824-30.232-15.473-54.742
			c9.243-27.128,42.665-37.013,55.192-37.99c21.372-1.667,36.333,12.333,44.315,0s-16.982-23.333-16.982-23.333
			c-30-9.668-56.885,2.333-74.627,17.333c-26.868,22.716-31.902,63.65-14.373,98c5.55,10.875,8.467,16.334-1.2,21.167
			c0,0-5.5,3.833-7.5,0.667c0,0-0.167,4.333,7,5c0,0-1.333,3.05-4.333,2.107c0,0,3.812,1.742,6.771,0.434
			c0,0-0.375,1.813-2.75,1.875C-1425.388,374.93-1395.188,385.866-1388.456,368.993z"/>
		<path fill="#604E75" d="M-1288.602,372.279c-10.229-10.833-3.265-19.167,1.801-23.315c9.908-8.114,33.218-30.908,22.365-59.361
			c-9.969-26.136-31.093-24.86-41.511-29.657c-10.137-4.666-17.804-17.666-17.804-17.666c13.667-14.666,39.161-6.734,62,15
			c22.223,21.148,20.735,67.705,6,91.667c-5.739,9.333-2.333,15.333,8,17c0,0,5.095,1.76,7.095-0.537s-1.333,4.37-5.5,4.37
			s-1.499,1.499,2.167,1.833c0,0-2.927,1.5-6.797,1.334c0,0-1.037,0.666,0.963,1.5
			C-1249.823,374.446-1279.387,382.038-1288.602,372.279z"/>
		<path fill="#E9E9EA" d="M-1261.985,311.273c0.066,0.002,0.131,0.01,0.199,0.01c6.074,0,11-4.925,11-11c0-6.074-4.926-11-11-11
			c-0.893,0-1.756,0.118-2.586,0.318l-5.525,12.451L-1261.985,311.273z"/>
		<path fill="#E9E9EA" d="M-1416.263,311.273c-0.066,0.002-0.131,0.01-0.199,0.01c-6.074,0-11-4.925-11-11c0-6.074,4.926-11,11-11
			c0.893,0,1.756,0.118,2.586,0.318l5.525,12.451L-1416.263,311.273z"/>
		<circle fill="#C4C4C3" cx="-1384.992" cy="323.65" r="9.595"/>
		<circle fill="#C4C4C3" cx="-1292.748" cy="323.65" r="9.595"/>
		<path fill="none" stroke="#000000" stroke-width="3" stroke-linecap="round" stroke-miterlimit="10" d="M-1391.998,292.706
			c0,2.075,1.561,5.25,5.006,5.25s5.214-2.635,5.214-5.213"/>
		<path fill="none" stroke="#000000" stroke-width="3" stroke-linecap="round" stroke-miterlimit="10" d="M-1386.888,287.916
			c0,2.075,1.561,5.25,5.006,5.25c1.54,0,2.744-0.526,3.605-1.338"/>
		<path fill="none" stroke="#000000" stroke-width="3" stroke-linecap="round" stroke-miterlimit="10" d="M-1286.972,287.916
			c0,2.075-1.561,5.25-5.006,5.25c-1.539,0-2.744-0.526-3.605-1.338"/>
		<path fill="none" stroke="#000000" stroke-width="3" stroke-linecap="round" stroke-miterlimit="10" d="M-1292.16,292.706
			c0,2.075,1.561,5.25,5.006,5.25s5.214-2.635,5.214-5.213"/>
		<g>
			<circle cx="-1377.278" cy="295.43" r="7.5"/>
			<circle fill="#FFFFFF" cx="-1379.772" cy="293.387" r="3.03"/>
		</g>
		<g>
			<circle cx="-1296.778" cy="295.43" r="7.5"/>
			<circle fill="#FFFFFF" cx="-1299.272" cy="293.387" r="3.03"/>
		</g>
	</g>
</g>
<g>
	<g>
		<path fill="#E9E9EA" d="M-1060.444,60.997h2.438c5.94,0,10.801,4.86,10.801,10.8v32.733c0,5.939-4.86,10.8-10.801,10.8h-2.438
			V60.997z"/>
		<path fill="#E9E9EA" d="M-1139.351,60.997h-2.438c-5.939,0-10.8,4.86-10.8,10.8v32.733c0,5.939,4.86,10.8,10.8,10.8h2.438V60.997z
			"/>
		<path fill="#5B5C5C" d="M-1058.006,60.997h-2.438h-78.907h-2.438c-5.939,0-10.8,4.86-10.8,10.8v5.699h13.237v54.5h78.907v-54.5
			h13.238v-5.699C-1047.206,65.857-1052.066,60.997-1058.006,60.997z"/>
		<polygon fill="#604E75" points="-1139.351,131.996 -1139.351,148.663 -1139.351,188.33 -1110.561,188.33 -1110.561,148.663 
			-1089.233,148.663 -1089.233,188.33 -1060.444,188.33 -1060.444,148.663 -1060.444,131.996 		"/>
		<path d="M-1124.957,202.724c7.95,0,14.396-6.444,14.396-14.395h-28.79C-1139.351,196.28-1132.906,202.724-1124.957,202.724z"/>
		<path d="M-1074.838,202.724c7.95,0,14.395-6.444,14.395-14.395h-28.789C-1089.233,196.28-1082.788,202.724-1074.838,202.724z"/>
		<path fill="#604E75" d="M-1124.957,173.935c-7.949,0-14.395,6.444-14.395,14.395h28.79
			C-1110.561,180.379-1117.006,173.935-1124.957,173.935z"/>
		<path fill="#604E75" d="M-1074.838,173.935c-7.949,0-14.395,6.444-14.395,14.395h28.789
			C-1060.444,180.379-1066.888,173.935-1074.838,173.935z"/>
		<g>
			<g>
				<path fill="#E9E9EA" d="M-1133.237,83.079c1.461-0.578,2.197-0.851,3.675-1.364c0.197,0.567,0.295,0.85,0.492,1.417
					c-0.319,0.111-0.479,0.167-0.798,0.281c0.727,2.033,1.089,3.048,1.816,5.081c0.299-0.107,0.45-0.16,0.75-0.264
					c0.195,0.562,0.292,0.844,0.487,1.406c-1.343,0.466-2.011,0.713-3.338,1.239c-0.219-0.553-0.329-0.83-0.548-1.383
					c0.296-0.118,0.446-0.175,0.743-0.29c-0.776-2.015-1.162-3.021-1.938-5.036c-0.316,0.122-0.476,0.183-0.791,0.308
					C-1132.906,83.915-1133.016,83.637-1133.237,83.079z"/>
				<path fill="#E9E9EA" d="M-1121.584,79.323c1.383-0.343,2.078-0.5,3.471-0.788c0.122,0.587,0.182,0.879,0.304,1.467
					c-0.328,0.068-0.493,0.103-0.82,0.174c0.584,2.701,0.877,4.051,1.461,6.752c-0.48,0.104-0.719,0.157-1.198,0.269
					c-2.036-1.685-3.101-2.498-5.319-4.052c0.41,1.444,0.616,2.167,1.025,3.611c0.157-0.044,0.917-0.254,0.917-0.254
					c0.157,0.579,0.236,0.868,0.394,1.446c-1.25,0.339-1.873,0.521-3.113,0.911c-0.18-0.572-0.269-0.858-0.449-1.43
					c0.36-0.113,0.539-0.168,0.9-0.277c-0.625-2.071-0.936-3.106-1.561-5.178c-0.384,0.116-0.576,0.174-0.959,0.294
					c-0.18-0.572-0.27-0.858-0.449-1.431c1.163-0.365,1.747-0.538,2.918-0.863c1.862,1.351,2.762,2.049,4.499,3.488
					c-0.275-1.167-0.414-1.75-0.689-2.917c-0.389,0.092-0.583,0.139-0.971,0.235C-1121.368,80.196-1121.44,79.905-1121.584,79.323z"
					/>
				<path fill="#E9E9EA" d="M-1106.759,81.133c0.198,2.403-1.544,4.327-3.813,4.63c-1.451,0.193-2.176,0.307-3.619,0.564
					c-0.106-0.595-0.159-0.893-0.265-1.488c0.295-0.053,0.442-0.078,0.738-0.128c-0.359-2.119-0.537-3.179-0.896-5.298
					c-0.314,0.053-0.471,0.081-0.785,0.137c-0.107-0.6-0.161-0.899-0.268-1.499c1.59-0.284,2.387-0.408,3.985-0.621
					C-1108.997,77.073-1106.957,78.731-1106.759,81.133z M-1111.7,84.394c0.257-0.037,0.387-0.054,0.644-0.089
					c1.84-0.251,2.343-1.638,2.2-2.974c-0.144-1.347-1.154-2.592-2.928-2.35c-0.273,0.037-0.41,0.056-0.683,0.096
					C-1112.159,81.204-1112.008,82.267-1111.7,84.394z"/>
				<path fill="#E9E9EA" d="M-1105.204,76.837c1.541-0.094,2.313-0.125,3.856-0.154c0.011,0.6,0.018,0.899,0.029,1.499
					c-0.333,0.006-0.501,0.011-0.834,0.021c0.061,2.158,0.091,3.235,0.152,5.393c0.313-0.009,0.47-0.013,0.784-0.019
					c0.011,0.595,0.017,0.893,0.028,1.488c-1.401,0.026-2.103,0.054-3.503,0.14c-0.037-0.594-0.054-0.891-0.09-1.484
					c0.313-0.019,0.47-0.029,0.783-0.045c-0.112-2.155-0.167-3.233-0.28-5.389c-0.333,0.017-0.5,0.027-0.833,0.047
					C-1105.148,77.735-1105.167,77.437-1105.204,76.837z"/>
				<path fill="#E9E9EA" d="M-1093.416,76.866c0,0,2.488,6.832,2.62,7.135c0.372,0.039,0.556,0.059,0.927,0.102
					c-0.069,0.596-0.103,0.894-0.172,1.489c-1.399-0.163-2.102-0.229-3.506-0.332c0.043-0.593,0.066-0.889,0.11-1.482
					c0.184,0.014,0.275,0.021,0.458,0.035c-0.125-0.311-0.228-0.619-0.368-0.943c-0.993-0.073-1.49-0.103-2.484-0.146
					c-0.157,0.358-0.235,0.537-0.389,0.896c0.184,0.007,0.276,0.011,0.46,0.02c-0.027,0.594-0.041,0.891-0.068,1.485
					c-1.215-0.056-1.824-0.072-3.04-0.083c0.005-0.6,0.009-0.9,0.015-1.5c0.373,0.003,0.559,0.007,0.932,0.015
					c0.316-0.894,3.296-6.764,3.296-6.764c0.494,0.027,0.742,0.042,1.236,0.076C-1093.398,76.868-1093.405,76.867-1093.416,76.866z
					 M-1093.796,81.335c-0.256-0.686-0.389-1.027-0.657-1.711c-0.325,0.649-0.484,0.973-0.799,1.625
					C-1094.669,81.279-1094.378,81.296-1093.796,81.335z"/>
				<path fill="#E9E9EA" d="M-1081.315,78.496c1.393,0.285,2.087,0.439,3.471,0.779c-0.143,0.583-0.214,0.874-0.357,1.456
					c-0.326-0.08-0.488-0.118-0.815-0.195c-0.634,2.69-0.951,4.034-1.585,6.724c-0.479-0.113-0.717-0.167-1.197-0.273
					c-1.113-2.396-1.723-3.588-3.046-5.944c-0.251,1.48-0.375,2.22-0.627,3.701c0.16,0.027,0.934,0.166,0.934,0.166
					c-0.107,0.59-0.161,0.884-0.268,1.474c-1.269-0.23-1.904-0.333-3.18-0.513c0.084-0.594,0.126-0.89,0.21-1.484
					c0.37,0.052,0.554,0.079,0.924,0.135c0.327-2.139,0.49-3.207,0.817-5.346c-0.394-0.06-0.589-0.089-0.983-0.145
					c0.084-0.594,0.126-0.89,0.21-1.483c1.196,0.169,1.793,0.264,2.985,0.473c1.093,2.019,1.604,3.037,2.551,5.082
					c0.253-1.172,0.378-1.759,0.632-2.931c-0.39-0.084-0.585-0.125-0.976-0.205C-1081.496,79.377-1081.436,79.083-1081.315,78.496z"
					/>
				<path fill="#E9E9EA" d="M-1070.151,81.539c0,0,0.684,7.259,0.735,7.587c0.354,0.136,0.532,0.204,0.885,0.343
					c-0.221,0.558-0.332,0.837-0.552,1.395c-1.332-0.527-2.002-0.776-3.35-1.244c0.195-0.562,0.293-0.844,0.488-1.406
					c0.176,0.061,0.264,0.093,0.44,0.155c-0.043-0.333-0.064-0.658-0.118-1.008c-0.954-0.331-1.431-0.49-2.392-0.792
					c-0.245,0.305-0.368,0.459-0.61,0.766c0.178,0.055,0.267,0.082,0.444,0.138c-0.179,0.567-0.27,0.851-0.449,1.418
					c-1.173-0.371-1.764-0.544-2.947-0.871c0.159-0.578,0.24-0.867,0.399-1.445c0.363,0.1,0.545,0.151,0.907,0.255
					c0.538-0.782,4.957-5.679,4.957-5.679c0.477,0.155,0.713,0.235,1.188,0.397C-1070.136,81.545-1070.141,81.542-1070.151,81.539z
					 M-1071.672,85.76c-0.075-0.729-0.114-1.095-0.201-1.826c-0.485,0.542-0.725,0.814-1.2,1.362
					C-1072.511,85.477-1072.231,85.57-1071.672,85.76z"/>
			</g>
		</g>
	</g>
	<g>
		<path fill="#E9E9EA" d="M-1022.872-2.635c-0.893,0-1.756,0.118-2.586,0.318c-8.77-28.624-38.908-49.725-74.753-49.725
			c-35.846,0-65.984,21.101-74.752,49.725c-0.831-0.201-1.693-0.318-2.586-0.318c-6.076,0-11,4.925-11,11c0,6.075,4.924,11,11,11
			c0.066,0,0.132-0.009,0.199-0.01c2.713,33.829,36.201,49.417,77.139,49.417s74.425-15.588,77.14-49.417
			c0.066,0.001,0.131,0.01,0.199,0.01c6.074,0,11-4.925,11-11C-1011.872,2.29-1016.797-2.635-1022.872-2.635z"/>
		<g>
			<circle cx="-1140.953" cy="5.073" r="7.5"/>
			<circle fill="#FFFFFF" cx="-1143.447" cy="3.03" r="3.029"/>
		</g>
		<g>
			<circle cx="-1060.453" cy="5.073" r="7.5"/>
			<circle fill="#FFFFFF" cx="-1062.947" cy="3.03" r="3.03"/>
		</g>
		<path fill="none" stroke="#000000" stroke-width="3" stroke-linecap="round" stroke-miterlimit="10" d="M-1100.21,0
			c0,0,0.812,8.268,4.312,12.573l-4.312,3.555"/>
		<path fill="none" stroke="#000000" stroke-width="3" stroke-linecap="round" stroke-miterlimit="10" d="M-1112.479,22.835
			c0,5.106,3.842,12.917,12.318,12.917s12.827-6.482,12.827-12.827"/>
		<path fill="#B69FCC" d="M-1048.396-40.371L-1048.396-40.371C-1048.396-40.371-1048.396-40.372-1048.396-40.371
			c-1.28-0.946-2.444-1.776-3.42-2.501c-1.853-1.379-4.369-2.847-7.429-4.276c-16.112-12.402-23.727-29.564-23.727-29.564
			c-3,9.667-8.751,6.667-8.751,6.667c-2.751-1-3.083-6-3.083-6c-0.5,3.5-4,6.5-6.666,4.167c-2.667-2.333-4-11.5-4-11.5
			s-1.5,18-8.334,16.833c-6.833-1.167-6.166-5.167-6.166-5.167c-0.968,10.89-16.194,21.368-24.47,26.295
			c-1.881,0.93-3.637,1.909-5.25,2.928c-0.002,0-0.012,0.005-0.012,0.005h0.002c-2.631,1.663-4.881,3.431-6.615,5.279
			c-10.324,11.001-19.127,25.778-18.646,34.889c0,0,2.813,3.335,2.813,7.39h5.5c0,0,0.5-26.445,16-36.445
			c0,0,25.348-10.674,48.515-9.841c23.166,0.833,50.819,8.674,50.819,8.674c19.667,12.667,17.667,37.612,17.667,37.612h5.332
			c0.166-4.055,2.859-7.39,2.859-7.39C-1027.253-23.503-1040.265-34.367-1048.396-40.371z"/>
	</g>
</g>
<g>
	<g>
		<path fill="#E9E9EA" d="M-1522.058,353.916h2.438c5.939,0,10.8,4.86,10.8,10.8v32.733c0,5.939-4.86,10.8-10.8,10.8h-2.438V353.916
			z"/>
		<path fill="#E9E9EA" d="M-1600.966,353.916h-2.438c-5.94,0-10.8,4.86-10.8,10.8v32.733c0,5.939,4.859,10.8,10.8,10.8h2.438
			V353.916z"/>
		<path fill="#B69FCC" d="M-1519.621,353.916h-2.438h-78.908h-2.438c-5.94,0-10.8,4.86-10.8,10.8v5.699h13.237v54.5h78.908v-54.5
			h13.237v-5.699C-1508.821,358.776-1513.681,353.916-1519.621,353.916z"/>
		<polygon fill="#C4C4C3" points="-1600.966,424.915 -1600.966,441.582 -1600.966,481.249 -1572.176,481.249 -1572.176,441.582 
			-1550.848,441.582 -1550.848,481.249 -1522.058,481.249 -1522.058,441.582 -1522.058,424.915 		"/>
		<path d="M-1586.572,495.643c7.95,0,14.396-6.444,14.396-14.395h-28.79C-1600.966,489.199-1594.522,495.643-1586.572,495.643z"/>
		<path d="M-1536.454,495.643c7.95,0,14.396-6.444,14.396-14.395h-28.79C-1550.848,489.199-1544.403,495.643-1536.454,495.643z"/>
		<path fill="#C4C4C3" d="M-1586.572,466.854c-7.95,0-14.395,6.444-14.395,14.395h28.79
			C-1572.176,473.298-1578.622,466.854-1586.572,466.854z"/>
		<path fill="#C4C4C3" d="M-1536.454,466.854c-7.949,0-14.395,6.444-14.395,14.395h28.79
			C-1522.058,473.298-1528.503,466.854-1536.454,466.854z"/>
		<g>
			<g>
				<path fill="#5B5C5C" d="M-1587.667,378.14c0.005,1.075-0.328,2.529-2.474,3.265c-2.124,0.728-4.295-0.306-5.158-2.482
					c-0.926-2.339,0.151-4.519,2.486-5.318c0.799-0.273,1.463-0.328,1.833-0.276c-0.054-0.168-0.081-0.254-0.135-0.422
					c0.628-0.201,0.943-0.299,1.574-0.488c0.373,1.24,0.56,1.86,0.932,3.1c-0.608,0.183-0.913,0.278-1.519,0.473
					c-0.055-0.172-0.083-0.259-0.138-0.431c-0.177-0.552-0.978-0.921-2.066-0.548c-0.762,0.261-1.616,1.2-0.909,3.126
					c0.659,1.795,1.906,2.119,2.623,1.874c1.172-0.401,1.433-1.561,1.387-1.704C-1588.605,378.234-1588.291,378.201-1587.667,378.14
					z"/>
				<path fill="#5B5C5C" d="M-1578.373,376.773c0.104,0.575,0.158,0.86,0.262,1.436c-0.802,0.146-1.204,0.223-2.003,0.389
					c-0.327-0.074-1.007-0.378-1.226-1.375c-0.124-0.566-0.824-1.606-2.049-1.469c0.189,0.789,0.285,1.186,0.474,1.976
					c0.297-0.071,0.447-0.107,0.745-0.176c0.131,0.569,0.196,0.854,0.327,1.423c-1.323,0.304-1.981,0.469-3.294,0.827
					c-0.154-0.563-0.231-0.846-0.386-1.409c0.347-0.095,0.52-0.14,0.867-0.23c-0.53-2.023-0.795-3.033-1.326-5.057
					c-0.369,0.097-0.552,0.144-0.92,0.244c-0.153-0.56-0.229-0.839-0.382-1.398c1.506-0.412,2.261-0.602,3.78-0.947
					c2.023-0.461,2.908,0.71,3.107,1.723c0.168,0.854-0.406,1.817-0.383,1.993c0.032,0.243,1.002,1.147,1.168,1.989
					c0.056,0.284,0.361,0.227,0.361,0.227C-1578.899,376.87-1578.724,376.837-1578.373,376.773z M-1583.108,374.2
					c0.715-0.166,0.963-0.657,0.869-1.088s-0.499-0.795-1.104-0.655c-0.316,0.073-0.474,0.109-0.79,0.185
					c0.163,0.681,0.244,1.021,0.407,1.702C-1583.479,374.285-1583.355,374.257-1583.108,374.2z"/>
				<path fill="#5B5C5C" d="M-1577.149,369.829c1.458-0.225,2.188-0.323,3.651-0.489c0.065,0.576,0.097,0.866,0.163,1.442
					c-0.316,0.036-0.475,0.051-0.791,0.09c0.253,2.072,0.381,3.109,0.634,5.181c0.297-0.036,0.446-0.054,0.744-0.088
					c0.065,0.571,0.097,0.856,0.162,1.428c-1.333,0.151-1.999,0.24-3.326,0.445c-0.088-0.568-0.131-0.853-0.219-1.421
					c0.297-0.046,0.445-0.066,0.742-0.109c-0.3-2.065-0.451-3.1-0.751-5.165c-0.315,0.046-0.473,0.069-0.788,0.118
					C-1577.017,370.687-1577.061,370.402-1577.149,369.829z"/>
				<path fill="#5B5C5C" d="M-1562.462,368.739c1.024,0.009,1.536,0.021,2.561,0.059c-0.021,0.579-0.031,0.869-0.052,1.448
					c-0.378-0.014-0.567-0.021-0.946-0.031c-0.055,2.092-0.082,3.138-0.137,5.229c0.356,0.009,0.535,0.017,0.891,0.029
					c-0.021,0.579-0.032,0.867-0.054,1.446c-1.339-0.049-2.007-0.06-3.347-0.055c-0.002-0.58-0.004-0.868-0.006-1.448
					c0.233-0.001,0.35-0.001,0.583,0c0.003-1.049,0.004-1.574,0.008-2.622c-0.798,1.625-1.179,2.443-1.902,4.086
					c-0.354,0.007-0.532,0.011-0.887,0.021c0,0-1.74-2.984-2.417-4.097c0.062,1.098,0.093,1.648,0.155,2.746
					c0.237-0.014,0.354-0.02,0.592-0.031c0.029,0.579,0.042,0.867,0.071,1.446c-1.166,0.058-1.747,0.097-2.91,0.195
					c-0.049-0.577-0.073-0.864-0.123-1.442c0.36-0.03,0.54-0.046,0.9-0.072c-0.155-2.087-0.233-3.129-0.388-5.216
					c-0.382,0.028-0.573,0.044-0.956,0.076c-0.049-0.578-0.073-0.866-0.122-1.444c0.96-0.082,1.442-0.116,2.404-0.172
					c1.404,2.069,2.068,3.118,3.323,5.237C-1564.185,371.956-1563.633,370.876-1562.462,368.739z"/>
				<path fill="#5B5C5C" d="M-1551.132,375.409c-0.329,2.295-2.647,1.992-3.379,1.915c-0.731-0.077-1.565-0.441-1.824-1.045
					c-0.029,0.347-0.042,0.521-0.071,0.867c-0.582-0.048-0.873-0.069-1.455-0.107c0.086-1.333,0.129-1.999,0.216-3.332
					c0.605,0.039,0.909,0.063,1.514,0.113c-0.024,0.291-0.036,0.437-0.06,0.728c-0.048,0.578,0.65,1.216,1.537,1.307
					c0.745,0.076,1.655-0.121,1.707-0.548c0.088-0.726-0.486-0.962-1.803-1.501c-1.006-0.412-2.679-0.958-2.573-2.555
					c0.086-1.295,1.587-2.234,3.348-2.055c1.123,0.114,1.542,0.615,1.641,1.071c0.042-0.35,0.063-0.526,0.106-0.876
					c0.642,0.078,0.963,0.118,1.604,0.208c-0.153,1.094-0.229,1.641-0.381,2.734c-0.622-0.087-0.932-0.125-1.555-0.201
					c0.007-0.056,0.011-0.085,0.018-0.141c0.052-0.426-0.323-1.216-1.579-1.344c-0.477-0.049-1.132,0.184-1.171,0.623
					c-0.038,0.427,0.437,0.637,1.463,1.021C-1552.664,372.728-1550.842,373.388-1551.132,375.409z"/>
				<path fill="#5B5C5C" d="M-1540.944,375.717c-0.795,3.004-3.098,3.482-4.874,3.101c-1.901-0.408-3.646-1.896-3.159-4.824
					c0.465-2.803,2.818-3.776,4.911-3.327C-1542.112,371.086-1540.178,372.825-1540.944,375.717z M-1543.084,375.18
					c0.381-1.602-0.18-2.81-1.296-3.049c-1.265-0.271-2.258,0.604-2.566,2.222c-0.304,1.594,0.251,2.758,1.44,3.014
					C-1544.456,377.592-1543.459,376.759-1543.084,375.18z"/>
				<path fill="#5B5C5C" d="M-1532.88,373.938c1.289,0.455,1.932,0.694,3.207,1.199c-0.213,0.539-0.32,0.809-0.534,1.348
					c-0.3-0.119-0.452-0.178-0.753-0.294c-0.961,2.494-1.441,3.739-2.402,6.231c-0.443-0.171-0.665-0.254-1.109-0.418
					c-0.746-2.441-1.168-3.66-2.111-6.091c-0.439,1.384-0.659,2.073-1.098,3.457c0.149,0.047,0.869,0.283,0.869,0.283
					c-0.181,0.551-0.273,0.825-0.454,1.376c-1.181-0.389-1.773-0.571-2.964-0.915c0.161-0.557,0.241-0.836,0.401-1.393
					c0.346,0.1,0.519,0.15,0.863,0.254c0.601-2.004,0.901-3.004,1.502-5.008c-0.366-0.109-0.549-0.166-0.916-0.271
					c0.161-0.558,0.24-0.833,0.4-1.391c1.113,0.321,1.668,0.488,2.773,0.846c0.768,2.077,1.119,3.117,1.751,5.199
					c0.398-1.089,0.597-1.632,0.995-2.722c-0.361-0.132-0.543-0.198-0.905-0.326
					C-1533.169,374.756-1533.073,374.485-1532.88,373.938z"/>
			</g>
		</g>
		<g>
			<g>
				<path fill="#5B5C5C" d="M-1583.333,391.299c1.414,0.45,2.125,0.655,3.556,1.025c-0.15,0.58-0.226,0.871-0.376,1.451
					c-0.307-0.079-0.46-0.119-0.767-0.202c-0.565,2.084-0.849,3.124-1.414,5.208c0.331,0.09,0.498,0.136,0.829,0.222
					c-0.15,0.581-0.226,0.869-0.376,1.45c-1.608-0.417-2.408-0.647-3.997-1.153c0.182-0.571,0.272-0.857,0.455-1.429
					c0.395,0.126,0.592,0.187,0.988,0.307c0.244-0.804,0.365-1.206,0.608-2.01c-1.149-0.349-1.721-0.532-2.858-0.93
					c-0.277,0.793-0.416,1.188-0.692,1.98c0.392,0.137,0.589,0.206,0.982,0.337c-0.189,0.569-0.285,0.85-0.475,1.419
					c-1.583-0.528-2.37-0.814-3.929-1.432c0.221-0.558,0.331-0.835,0.551-1.393c0.321,0.127,0.482,0.19,0.804,0.313
					c0.771-2.017,1.157-3.026,1.928-5.043c-0.299-0.114-0.447-0.172-0.745-0.29c0.221-0.558,0.331-0.837,0.551-1.395
					c1.388,0.55,2.088,0.807,3.497,1.276c-0.189,0.569-0.285,0.852-0.475,1.421c-0.365-0.122-0.548-0.184-0.912-0.311
					c-0.237,0.68-0.354,1.019-0.592,1.698c1.114,0.389,1.673,0.571,2.799,0.912c0.209-0.688,0.313-1.032,0.522-1.721
					c-0.367-0.111-0.551-0.17-0.917-0.286C-1583.607,392.156-1583.515,391.871-1583.333,391.299z"/>
				<path fill="#5B5C5C" d="M-1572.676,393.765c0,0,2.183,6.918,2.329,7.223c0.402,0.041,0.604,0.061,1.007,0.096
					c-0.053,0.598-0.079,0.897-0.131,1.495c-1.577-0.139-2.365-0.229-3.935-0.449c0.083-0.589,0.125-0.885,0.208-1.474
					c0.198,0.027,0.297,0.042,0.495,0.068c-0.121-0.318-0.213-0.632-0.341-0.966c-1.045-0.146-1.568-0.23-2.609-0.415
					c-0.211,0.333-0.317,0.498-0.532,0.83c0.197,0.036,0.295,0.054,0.492,0.088c-0.103,0.586-0.154,0.88-0.256,1.466
					c-1.353-0.237-2.026-0.37-3.37-0.669c0.13-0.585,0.194-0.881,0.325-1.466c0.396,0.088,0.595,0.133,0.993,0.216
					c0.501-0.815,4.237-6.214,4.237-6.214c0.445,0.073,0.668,0.107,1.114,0.173
					C-1572.661,393.766-1572.667,393.766-1572.676,393.765z M-1573.407,398.19c-0.207-0.705-0.307-1.057-0.499-1.763
					c-0.382,0.614-0.578,0.919-0.973,1.528C-1574.291,398.055-1573.996,398.103-1573.407,398.19z"/>
				<path fill="#5B5C5C" d="M-1560.376,394.428c1.221-0.045,1.831-0.08,3.049-0.18c0.049,0.603,0.074,0.902,0.123,1.505
					c-0.314,0.025-0.471,0.038-0.785,0.061c-0.149,0.011-0.14,0.141-0.14,0.141c-0.755,2.768-1.18,4.148-2.119,6.894
					c-0.555,0.019-0.832,0.026-1.387,0.035c-0.648-1.736-0.955-2.608-1.532-4.356c-0.655,1.743-1.002,2.609-1.735,4.337
					c-0.483-0.013-0.725-0.022-1.208-0.043c-0.847-2.683-1.227-4.03-1.906-6.731c0.013-0.168-0.127-0.31-0.289-0.322
					c-0.314-0.025-0.472-0.038-0.785-0.066c0.055-0.602,0.082-0.905,0.137-1.507c1.466,0.133,2.201,0.181,3.671,0.234
					c-0.022,0.604-0.033,0.907-0.055,1.511c-0.25-0.009-0.375-0.014-0.625-0.025c0.32,1.215,0.489,1.82,0.842,3.032
					c0.714-1.782,1.049-2.677,1.681-4.475c0.425,0.004,0.638,0.003,1.063,0c0.627,1.8,0.961,2.696,1.671,4.48
					c0.355-1.211,0.525-1.815,0.848-3.03c-0.185,0.008-0.278,0.009-0.463,0.016
					C-1560.343,395.333-1560.354,395.032-1560.376,394.428z"/>
				<path fill="#5B5C5C" d="M-1545.731,399.403c0.333-0.078,0.499-0.12,0.831-0.202c0.143,0.577,0.215,0.865,0.358,1.442
					c-1.611,0.399-2.421,0.578-4.047,0.889c-0.111-0.584-0.167-0.878-0.278-1.462c-1.127-0.825-1.675-1.246-2.742-2.112
					c0.16,1.01,0.239,1.515,0.398,2.524c0.336-0.053,0.503-0.083,0.839-0.14c0.1,0.587,0.15,0.879,0.25,1.466
					c-1.56,0.265-2.343,0.379-3.911,0.562c-0.069-0.591-0.103-0.889-0.172-1.479c0.338-0.039,0.506-0.06,0.844-0.103
					c-0.275-2.151-0.414-3.224-0.689-5.374c-0.313,0.04-0.469,0.06-0.782,0.096c-0.069-0.591-0.103-0.889-0.171-1.479
					c1.395-0.162,2.09-0.264,3.478-0.499c0.1,0.587,0.149,0.882,0.249,1.469c-0.312,0.053-0.466,0.078-0.778,0.127
					c0.084,0.535,0.126,0.803,0.211,1.338c0.842-0.856,1.249-1.29,2.039-2.171c-0.08-0.415-0.12-0.621-0.2-1.036
					c1.205-0.233,1.805-0.365,3.001-0.653c0.139,0.578,0.208,0.868,0.348,1.446c-0.372,0.09-0.558,0.135-0.931,0.219
					c-0.221,0.05-0.331,0.224-0.662,0.624c-0.242,0.292-1.033,1.28-1.585,1.835c1.238,0.989,1.879,1.471,3.197,2.404
					C-1546.376,399.32-1546.061,399.481-1545.731,399.403z"/>
				<path fill="#5B5C5C" d="M-1535.751,395.316c0.883,2.23-1.729,3.212-2.56,3.495c-0.83,0.283-1.902,0.311-2.42-0.157
					c0.106,0.344,0.16,0.514,0.266,0.857c-0.664,0.204-0.997,0.305-1.664,0.494c-0.376-1.329-0.564-1.995-0.941-3.324
					c0.636-0.181,0.954-0.274,1.587-0.47c0.089,0.289,0.134,0.435,0.223,0.724c0.176,0.573,1.173,0.893,2.143,0.567
					c0.814-0.273,1.658-0.908,1.506-1.326c-0.259-0.71-0.947-0.623-2.489-0.557c-1.179,0.051-3.052,0.149-3.507-1.442
					c-0.369-1.291,0.668-2.69,2.286-3.234c1.032-0.347,1.615-0.081,1.913,0.296c-0.125-0.343-0.186-0.513-0.311-0.855
					c0.587-0.214,0.879-0.325,1.463-0.553c0.416,1.063,0.624,1.596,1.039,2.659c-0.608,0.237-0.913,0.354-1.525,0.576
					c-0.02-0.055-0.031-0.083-0.051-0.138c-0.152-0.417-0.848-0.953-2.046-0.551c-0.456,0.153-0.967,0.63-0.829,1.064
					c0.134,0.423,0.668,0.442,1.81,0.349C-1538.561,393.683-1536.528,393.353-1535.751,395.316z"/>
			</g>
		</g>
	</g>
	<g>
		<path fill="#E9E9EA" d="M-1484.487,289.083c-0.893,0-1.755,0.117-2.586,0.318c-8.769-28.625-38.907-49.726-74.753-49.726
			c-35.845,0-65.983,21.101-74.753,49.726c-0.83-0.201-1.693-0.318-2.586-0.318c-6.074,0-11,4.924-11,11c0,6.074,4.926,11,11,11
			c0.068,0,0.133-0.01,0.199-0.011c2.715,33.828,36.201,49.416,77.14,49.416c40.938,0,74.426-15.588,77.14-49.416
			c0.067,0.001,0.132,0.011,0.199,0.011c6.075,0,11-4.926,11-11C-1473.487,294.007-1478.412,289.083-1484.487,289.083z"/>
		<g>
			<circle cx="-1602.568" cy="296.791" r="7.5"/>
			<circle fill="#FFFFFF" cx="-1605.062" cy="294.748" r="3.03"/>
		</g>
		<g>
			<circle cx="-1522.068" cy="296.791" r="7.5"/>
			<circle fill="#FFFFFF" cx="-1524.562" cy="294.748" r="3.03"/>
		</g>
		<path fill="none" stroke="#000000" stroke-width="3" stroke-linecap="round" stroke-miterlimit="10" d="M-1561.826,291.718
			c0,0,0.812,8.268,4.312,12.572l-4.312,3.555"/>
		<path fill="none" stroke="#000000" stroke-width="3" stroke-linecap="round" stroke-miterlimit="10" d="M-1574.094,314.554
			c0,5.105,3.842,12.916,12.318,12.916s12.827-6.481,12.827-12.826"/>
		<path fill="#604E75" d="M-1561.522,216.078c-11.729,23.599-36.259,25.295-44.533,30.223c-1.883,0.93-3.639,1.908-5.252,2.928
			l-0.01,0.005h0.002c-2.632,1.663-4.881,3.431-6.616,5.279c-10.324,11.001-19.127,25.778-18.647,34.89c0,0,2.814,3.334,2.814,7.389
			h5.5c0,0,0.5-26.445,16-36.445c0,0,25.348-10.674,48.514-9.84c23.167,0.833,50.819,8.674,50.819,8.674
			c19.667,12.667,17.667,37.611,17.667,37.611h5.333c0.166-4.055,2.858-7.389,2.858-7.389
			c-1.796-21.188-14.808-32.051-22.938-38.055h0.001c-0.001,0-0.001,0-0.001,0c-1.28-0.946-2.444-1.775-3.42-2.502
			c-1.853-1.379-4.369-2.846-7.428-4.275C-1552.083,237.245-1561.522,216.078-1561.522,216.078z"/>
	</g>
</g>
<g>
	<polygon fill="#C5B6D8" points="-20.141,-169.694 -3.86,-144.304 22.934,-158.151 24.337,-128.024 54.468,-126.62 40.617,-99.825 
		66.008,-83.545 40.617,-67.265 54.468,-40.471 24.337,-39.066 22.934,-8.938 -3.86,-22.786 -20.141,2.604 -36.421,-22.786 
		-63.214,-8.938 -64.618,-39.066 -94.749,-40.471 -80.897,-67.265 -106.289,-83.545 -80.897,-99.825 -94.749,-126.62 
		-64.618,-128.024 -63.214,-158.151 -36.421,-144.304 	"/>
	<circle fill="#B69FCC" cx="-20.141" cy="-83.545" r="59.967"/>
</g>
<g>
	<g>
		<path fill="#E9E9EA" d="M-1070.027,356.42h2.438c5.94,0,10.8,4.86,10.8,10.8v32.733c0,5.939-4.859,10.8-10.8,10.8h-2.438V356.42z"
			/>
		<path fill="#E9E9EA" d="M-1148.934,356.42h-2.438c-5.94,0-10.801,4.86-10.801,10.8v32.733c0,5.939,4.86,10.8,10.801,10.8h2.438
			V356.42z"/>
		<path fill="#333333" d="M-1067.589,356.42h-2.438h-78.907h-2.438c-5.94,0-10.801,4.86-10.801,10.8v5.699h13.238v54.5h78.907v-54.5
			h13.237v-5.699C-1056.79,361.281-1061.649,356.42-1067.589,356.42z"/>
		<polygon fill="#B69FCC" points="-1148.934,427.419 -1148.934,444.086 -1148.934,483.753 -1120.145,483.753 -1120.145,444.086 
			-1098.817,444.086 -1098.817,483.753 -1070.027,483.753 -1070.027,444.086 -1070.027,427.419 		"/>
		<path d="M-1134.54,498.148c7.949,0,14.395-6.444,14.395-14.395h-28.789C-1148.934,491.704-1142.49,498.148-1134.54,498.148z"/>
		<path d="M-1084.422,498.148c7.951,0,14.396-6.444,14.396-14.395h-28.79C-1098.817,491.704-1092.372,498.148-1084.422,498.148z"/>
		<path fill="#B69FCC" d="M-1134.54,469.359c-7.95,0-14.395,6.444-14.395,14.395h28.789
			C-1120.145,475.803-1126.59,469.359-1134.54,469.359z"/>
		<path fill="#B69FCC" d="M-1084.422,469.359c-7.949,0-14.395,6.444-14.395,14.395h28.79
			C-1070.027,475.803-1076.471,469.359-1084.422,469.359z"/>
		<g>
			<g>
				<path fill="#B69FCC" d="M-1133.202,374.936c1.531-0.451,2.302-0.657,3.848-1.034c0.162,0.665,0.243,0.994,0.405,1.659
					c-0.458,0.112-0.688,0.171-1.145,0.289c-0.075,1.263-1.269,7.851-1.243,8.559c-0.533,0.164-0.799,0.249-1.33,0.423
					c-0.389-0.593-5.553-5.691-5.986-6.259c-0.439,0.167-0.661,0.254-1.098,0.427c-0.252-0.637-0.377-0.954-0.629-1.591
					c1.645-0.651,2.473-0.953,4.142-1.515c0.218,0.648,0.327,0.974,0.545,1.622c-0.148,0.05-0.222,0.073-0.369,0.124
					c0.648,0.689,3.132,3.494,3.132,3.494c0.152-0.039,0.689-3.63,0.781-4.724c-0.228,0.065-0.341,0.101-0.569,0.168
					C-1132.912,375.922-1133.009,375.592-1133.202,374.936z"/>
				<path fill="#B69FCC" d="M-1114.703,377.339c-0.112,1.588-0.163,2.382-0.252,3.97c-3.276,0.242-4.912,0.455-8.154,1.06
					c-0.125-0.673-0.188-1.008-0.313-1.681c0.355-0.066,0.532-0.101,0.888-0.162c-0.424-2.433-0.635-3.648-1.059-6.081
					c-0.384,0.067-0.576,0.103-0.96,0.174c-0.125-0.673-0.188-1.009-0.313-1.682c3.424-0.639,5.151-0.868,8.609-1.148
					c0.5,1.267,0.742,1.9,1.212,3.174c-0.761,0.053-1.141,0.084-1.9,0.154c-0.244-0.665-0.527-1.512-1.677-1.383
					c-1,0.112-1.5,0.177-2.498,0.319c0.117,0.818,0.176,1.226,0.293,2.044c0.525-0.075,0.788-0.108,1.314-0.175
					c-0.035-0.276-0.052-0.413-0.087-0.689c0.753-0.095,1.129-0.14,1.884-0.217c0.126,1.23,0.19,1.846,0.316,3.076
					c-0.726,0.074-1.087,0.118-1.812,0.209c-0.034-0.271-0.055-0.408-0.089-0.68c-0.515,0.064-0.773,0.099-1.287,0.172
					c0.136,0.948,0.205,1.424,0.34,2.372c1.138-0.163,1.708-0.234,2.849-0.354c0.525-0.055,0.766-1.288,0.865-2.328
					C-1115.802,377.417-1115.436,377.388-1114.703,377.339z"/>
				<path fill="#B69FCC" d="M-1101.792,379.789c-0.069,0.687-0.104,1.028-0.173,1.715c-0.966-0.099-1.449-0.141-2.417-0.207
					c-0.351-0.188-1.036-0.748-0.971-1.95c0.037-0.684-0.442-2.094-1.907-2.313c-0.027,0.958-0.042,1.438-0.068,2.396
					c0.365,0.011,0.547,0.017,0.912,0.031c-0.028,0.689-0.041,1.033-0.068,1.723c-1.61-0.065-2.416-0.077-4.026-0.055
					c-0.01-0.689-0.015-1.033-0.024-1.723c0.428-0.006,0.642-0.008,1.069-0.008c0-2.469,0.002-3.703,0.003-6.172
					c-0.462,0-0.694-0.001-1.157,0.006c-0.009-0.685-0.014-1.026-0.023-1.711c1.901-0.026,2.851-0.011,4.751,0.07
					c2.531,0.108,3.188,1.736,3.087,2.95c-0.084,1.022-1.068,1.938-1.097,2.14c-0.041,0.281,0.787,1.623,0.704,2.634
					c-0.028,0.341,0.341,0.372,0.341,0.372C-1102.432,379.724-1102.218,379.746-1101.792,379.789z M-1106.446,375.347
					c0.886,0.033,1.333-0.442,1.361-0.962c0.028-0.519-0.328-1.064-1.083-1.095c-0.394-0.016-0.591-0.022-0.986-0.033
					c-0.023,0.826-0.035,1.24-0.059,2.066C-1106.905,375.333-1106.753,375.335-1106.446,375.347z"/>
				<path fill="#B69FCC" d="M-1087.867,379.328c-0.751,2.646-3.404,3.997-5.966,3.445c-1.638-0.353-2.462-0.507-4.113-0.766
					c0.106-0.682,0.16-1.021,0.267-1.702c0.339,0.053,0.509,0.079,0.848,0.136c0.407-2.419,0.61-3.626,1.019-6.045
					c-0.366-0.062-0.55-0.09-0.917-0.147c0.108-0.687,0.164-1.032,0.272-1.719c1.865,0.293,2.794,0.466,4.644,0.864
					C-1088.704,374.064-1087.115,376.681-1087.867,379.328z M-1094.523,380.867c0.292,0.059,0.438,0.089,0.73,0.15
					c2.09,0.44,3.182-0.839,3.555-2.325c0.376-1.5-0.245-3.24-2.291-3.672c-0.315-0.066-0.473-0.098-0.789-0.161
					C-1093.801,377.263-1094.042,378.461-1094.523,380.867z"/>
				<path fill="#B69FCC" d="M-1082.901,375.875c1.735,0.579,2.597,0.895,4.306,1.571c-0.252,0.637-0.377,0.954-0.629,1.591
					c-0.368-0.146-0.551-0.217-0.92-0.357c-0.879,2.301-1.318,3.451-2.198,5.752c0.341,0.131,0.51,0.195,0.851,0.33
					c-0.25,0.631-0.375,0.949-0.625,1.58c-1.514-0.6-2.277-0.878-3.814-1.392c0.215-0.644,0.322-0.967,0.537-1.61
					c0.345,0.115,0.517,0.174,0.861,0.293c0.808-2.327,1.212-3.49,2.021-5.817c-0.372-0.129-0.557-0.191-0.93-0.316
					C-1083.227,376.85-1083.118,376.525-1082.901,375.875z"/>
			</g>
		</g>
	</g>
	<g>
		<path fill="#E9E9EA" d="M-1032.446,290.789c-0.893,0-1.756,0.117-2.586,0.318c-8.77-28.624-38.908-49.725-74.753-49.725
			s-65.983,21.101-74.753,49.725c-0.83-0.201-1.693-0.318-2.586-0.318c-6.074,0-11,4.925-11,11c0,6.074,4.926,11,11,11
			c0.068,0,0.133-0.009,0.199-0.01c2.715,33.828,36.201,49.416,77.14,49.416c40.938,0,74.425-15.588,77.14-49.416
			c0.066,0.001,0.131,0.01,0.199,0.01c6.074,0,11-4.926,11-11C-1021.446,295.713-1026.372,290.789-1032.446,290.789z"/>
		<path fill="none" stroke="#000000" stroke-width="3" stroke-linecap="round" stroke-miterlimit="10" d="M-1109.785,293.423
			c0,0,0.812,8.269,4.312,12.573l-4.312,3.555"/>
		<g>
			<path fill="#FFFFFF" d="M-1097.212,329.266c0,6.346-4.351,12.827-12.827,12.827s-12.318-7.812-12.318-12.917
				c2.218,2.538,6.267,4.654,12.506,4.654C-1103.847,333.831-1099.658,331.589-1097.212,329.266z"/>
			<path fill="none" stroke="#000000" stroke-width="3" stroke-linecap="round" stroke-miterlimit="10" d="M-1122.358,329.176
				c2.218,2.538,6.267,4.654,12.506,4.654c6.005,0,10.194-2.241,12.64-4.564"/>
			<path fill="none" stroke="#000000" stroke-width="3" stroke-linecap="round" stroke-miterlimit="10" d="M-1122.358,329.176
				c0,5.105,3.842,12.917,12.318,12.917s12.827-6.481,12.827-12.827"/>
		</g>
		<path fill="#E9E9EA" d="M-1032.645,312.778c0.066,0.001,0.131,0.011,0.199,0.011c6.074,0,11-4.926,11-11c0-6.076-4.926-11-11-11
			c-0.893,0-1.756,0.117-2.586,0.318l-5.525,12.45L-1032.645,312.778z"/>
		<path fill="#E9E9EA" d="M-1186.923,312.778c-0.066,0.001-0.131,0.011-0.199,0.011c-6.074,0-11-4.926-11-11c0-6.076,4.926-11,11-11
			c0.893,0,1.756,0.117,2.586,0.318l5.525,12.45L-1186.923,312.778z"/>
		<circle fill="#C4C4C3" cx="-1155.652" cy="325.155" r="9.595"/>
		<circle fill="#C4C4C3" cx="-1063.408" cy="325.155" r="9.595"/>
		<path fill="#604E75" d="M-1187.223,258.784c-22.223,21.149-24.334,70.333-6,91.667c18.334,21.333,2.333,36.333-8,38
			c-10.333,1.666-19.334-9.334-19.334-9.334c0.396,3.443,1.352,6.446,2.728,9.068c-2.298-1.246-4.663-2.779-5.65-4.242
			c0,0,4.06,8.138,10.563,10.582c1.052,0.96,2.184,1.832,3.389,2.613c-4.779,3.223-11.028,3.232-11.028,3.232
			c21.871,4.82,29.543,3.684,32.228,2.422c0.044,0.001,0.088,0.002,0.131,0.003c-6.029,5.187-15.043,5.575-15.043,5.575
			c15.602-0.252,24.275-3.078,29.048-5.824c-3.5,4.729-7.381,7.491-7.381,7.491c6.907-1.829,11.89-7.023,15.076-11.569
			c0.249-0.113,0.495-0.229,0.737-0.348c-1.121,7.074-2.813,8.917-2.813,8.917c7.493-7.067,11.745-14.213,14.116-19.517
			c1.328-2.516,2.225-5.242,2.737-8.047c0.056-0.271,0.08-0.419,0.08-0.419s-0.004,0.002-0.005,0.002
			c2.012-11.918-2.79-25.031-10.526-28.589c-11.635-5.352-33.218-30.908-22.365-59.361c9.969-26.136,31.093-24.861,41.511-29.656
			c10.137-4.667,17.804-17.667,17.804-17.667C-1138.89,229.117-1164.384,237.048-1187.223,258.784z"/>
		<path fill="#604E75" d="M-1067.938,385.593c-0.075,12.131,5.55,21.568,17.363,32.11c0,0-1.79-4.335,3.293-7.784
			c0.05,0.024,0.098,0.05,0.147,0.074c2.565,4.865,9.68,11.211,29.393,10.377c0,0-5.979-0.935-10.978-5.67
			c5.228,1.792,15.366,3.506,31.978-0.363c0,0-9.593,0.265-8.694-6.748c13.529-8.509,9.918-19.139,9.918-19.139s-4,8.999-16,8.999
			s-31.332-16.667-16.666-52.333s12.495-75.284-14.373-98c-17.742-15-44.627-27-74.627-17.334c0,0-24.965,11-16.982,23.334
			s22.943-1.666,44.315,0c12.527,0.977,45.949,10.863,55.192,37.99c8.352,24.51-6.813,49.141-15.473,54.742
			C-1057.021,350.307-1067.888,373.474-1067.938,385.593z"/>
		<path fill="none" stroke="#000000" stroke-width="3" stroke-linecap="round" stroke-miterlimit="10" d="M-1162.658,292.031
			c0,2.075,1.561,5.25,5.006,5.25s5.214-2.635,5.214-5.213"/>
		<path fill="none" stroke="#000000" stroke-width="3" stroke-linecap="round" stroke-miterlimit="10" d="M-1157.548,287.241
			c0,2.075,1.561,5.25,5.006,5.25c1.54,0,2.744-0.526,3.605-1.338"/>
		<path fill="none" stroke="#000000" stroke-width="3" stroke-linecap="round" stroke-miterlimit="10" d="M-1057.632,287.241
			c0,2.075-1.561,5.25-5.006,5.25c-1.539,0-2.744-0.526-3.605-1.338"/>
		<path fill="none" stroke="#000000" stroke-width="3" stroke-linecap="round" stroke-miterlimit="10" d="M-1062.82,292.031
			c0,2.075,1.561,5.25,5.006,5.25s5.214-2.635,5.214-5.213"/>
		<g>
			<circle cx="-1147.938" cy="294.755" r="7.5"/>
			<circle fill="#FFFFFF" cx="-1150.432" cy="292.712" r="3.03"/>
		</g>
		<g>
			<circle cx="-1067.438" cy="294.755" r="7.5"/>
			<circle fill="#FFFFFF" cx="-1069.932" cy="292.712" r="3.03"/>
		</g>
	</g>
</g>
<path fill="#786B89" d="M-259,81.678c-10.257-4.949-17.258-13.638-21.547-26.825c-8.43,22.665-26.169,31.971-48.834,31.971
	c-25.949,0-41.496-9.416-48.833-31.971c-8.43,22.665-25.872,31.971-48.537,31.971c-25.949,0-41.2-9.416-48.537-31.971
	c-8.43,22.665-26.169,31.971-48.833,31.971c-25.95,0-41.497-9.416-48.834-31.971c-8.43,22.665-25.872,31.971-48.537,31.971
	c-25.949,0-41.2-9.416-48.537-31.971c-8.43,22.665-26.169,31.971-48.833,31.971V216.23H-259V81.678z"/>
<radialGradient id="SVGID_1_" cx="-514.334" cy="146.0527" r="189.3491" gradientUnits="userSpaceOnUse">
	<stop  offset="0" style="stop-color:#604E75"/>
	<stop  offset="1" style="stop-color:#604E75"/>
</radialGradient>
<path fill="url(#SVGID_1_)" d="M-259,92.88c-7.004,3.043-15.014,4.455-23.814,4.455c-25.949,0-41.2-9.416-48.537-31.971
	c-8.43,22.665-26.169,31.971-48.833,31.971c-25.949,0-41.497-9.416-48.834-31.971c-8.43,22.665-25.872,31.971-48.537,31.971
	c-25.949,0-41.2-9.416-48.537-31.971c-8.43,22.665-26.169,31.971-48.833,31.971c-25.949,0-41.497-9.416-48.834-31.971
	c-8.43,22.665-25.872,31.971-48.537,31.971c-25.949,0-41.2-9.416-48.537-31.971c-8.43,22.665-26.168,31.971-48.833,31.971v129.407
	H-259V92.88z"/>
<path fill="#C4C4C3" d="M-542.801,147.191c148.032-18.132,161.17-23.038,283.801-22.602v50.814v127.544h-510.667V175.403v-24.972
	C-769.667,150.431-690.833,165.322-542.801,147.191z"/>
<g>
	<path fill="#E9E9EA" d="M133.154,133.338h2.438c5.939,0,10.8,4.86,10.8,10.8v32.733c0,5.939-4.86,10.8-10.8,10.8h-2.438V133.338z"
		/>
	<path fill="#E9E9EA" d="M54.246,133.338h-2.438c-5.939,0-10.799,4.86-10.799,10.8v32.733c0,5.939,4.859,10.8,10.799,10.8h2.438
		V133.338z"/>
	<path fill="#5B5C5C" d="M135.592,133.338h-2.438H54.246h-2.438c-5.939,0-10.799,4.86-10.799,10.8v5.699h13.236v54.5h78.908v-54.5
		h13.237v-5.699C146.392,138.198,141.531,133.338,135.592,133.338z"/>
	<polygon fill="#B69FCC" points="54.246,204.337 54.246,221.004 54.246,260.671 83.036,260.671 83.036,221.004 104.365,221.004 
		104.365,260.671 133.154,260.671 133.154,221.004 133.154,204.337 	"/>
	<path d="M68.641,275.066c7.951,0,14.396-6.445,14.396-14.395h-28.79C54.246,268.621,60.691,275.066,68.641,275.066z"/>
	<path d="M118.76,275.066c7.949,0,14.395-6.445,14.395-14.395h-28.789C104.365,268.621,110.81,275.066,118.76,275.066z"/>
	<path fill="#B69FCC" d="M68.641,246.277c-7.949,0-14.395,6.443-14.395,14.395h28.79C83.036,252.72,76.592,246.277,68.641,246.277z"
		/>
	<path fill="#B69FCC" d="M118.76,246.277c-7.95,0-14.395,6.443-14.395,14.395h28.789C133.154,252.72,126.709,246.277,118.76,246.277
		z"/>
	<g>
		<path fill="#E9E9EA" d="M170.734,69.956c-0.893,0-1.754,0.118-2.586,0.318c-8.768-28.624-38.906-49.725-74.752-49.725
			S27.412,41.65,18.645,70.274c-0.831-0.201-1.693-0.318-2.586-0.318c-6.076,0-11,4.925-11,11c0,6.075,4.924,11,11,11
			c0.066,0,0.132-0.009,0.199-0.01c2.713,33.829,36.201,49.417,77.139,49.417s74.426-15.588,77.139-49.417
			c0.068,0.001,0.133,0.01,0.199,0.01c6.076,0,11-4.925,11-11C181.734,74.881,176.811,69.956,170.734,69.956z"/>
		<path fill="#B69FCC" d="M168.148,70.274c-2.078-24.524-19.191-35.222-26.357-40.556S117.62,17.725,97.133,17.082
			c-22.176-0.696-49.676,7.471-59.842,18.304C26.967,46.386,18.164,61.164,18.645,70.274c0,0,2.813,3.335,2.813,7.39h1.119
			l-1.119,4.611c0,0-0.111,21.259,16.043,42.471v-7.191l5.5,7.191c0,0,1.283,4.188,25.642,0v-7.191L72,124.746c0,0,34.5,4.739,53,0
			l3-4.646v6.753l5.154-7.599v7.599L142,120.1c0,0,4.5,2.817,13-0.846c0,0,10.352-14.154,10.291-36.979l-1.083-4.611h1.083
			C165.457,73.609,168.148,70.274,168.148,70.274z"/>
	</g>
</g>
<g>
	<path fill="#E9E9EA" d="M259.045,136.152h2.438c5.939,0,10.799,4.86,10.799,10.8v32.733c0,5.939-4.859,10.8-10.799,10.8h-2.438
		V136.152z"/>
	<path fill="#E9E9EA" d="M180.137,136.152h-2.438c-5.939,0-10.801,4.86-10.801,10.8v32.733c0,5.939,4.861,10.8,10.801,10.8h2.438
		V136.152z"/>
	<path fill="#333333" d="M261.482,136.152h-2.438h-78.908h-2.438c-5.939,0-10.801,4.86-10.801,10.8v5.699h13.238v54.5h78.908v-54.5
		h13.236v-5.699C272.281,141.012,267.422,136.152,261.482,136.152z"/>
	<polygon fill="#B69FCC" points="180.137,207.151 180.137,223.818 180.137,263.485 208.926,263.485 208.926,223.818 
		230.254,223.818 230.254,263.485 259.045,263.485 259.045,223.818 259.045,207.151 	"/>
	<path d="M194.531,277.879c7.949,0,14.395-6.444,14.395-14.395h-28.789C180.137,271.435,186.582,277.879,194.531,277.879z"/>
	<path d="M244.648,277.879c7.951,0,14.396-6.444,14.396-14.395h-28.791C230.254,271.435,236.699,277.879,244.648,277.879z"/>
	<path fill="#B69FCC" d="M194.531,249.09c-7.949,0-14.395,6.444-14.395,14.395h28.789C208.926,255.535,202.48,249.09,194.531,249.09
		z"/>
	<path fill="#B69FCC" d="M244.648,249.09c-7.949,0-14.395,6.444-14.395,14.395h28.791C259.045,255.535,252.6,249.09,244.648,249.09z
		"/>
	<g>
		<path fill="#604E75" d="M323.348,152.257c0,0-3.637,8.182-14.546,8.182s-28.484-15.153-15.151-47.578
			c8.184-19.903,10.588-41.154,5.585-59.38l-0.001-0.043l-0.013-0.012c-3.152-11.444-9.22-21.696-18.639-29.659
			C264.453,10.13,240.012-0.78,212.738,8.009c0,0-7.768,3.427-12.761,8.515c-13.05-6.99-32.89,0.697-50.913,17.85
			c-20.203,19.227-22.123,63.942-5.455,83.337c16.668,19.395,2.121,33.032-7.273,34.547c-9.394,1.515-17.576-8.485-17.576-8.485
			c1.758,15.297,15.35,21.298,29.09,21.521l-0.008,0.019c0,0,0.115-0.004,0.321-0.013c2.198,0.021,4.394-0.104,6.546-0.363
			c0.852-0.056,1.764-0.12,2.728-0.192c-4.191,7.426-7.056,9.017-8.501,9.248c11.435,1.023,26.733-3.394,36.965-7.015
			c-1.83,5-3.348,6.415-4.202,6.786c16.376-1.794,25.921-8.651,31.314-14.854l0.163-0.112c1.871,6.071,5.689,14.591,12.773,17.039
			c0,0-2.445-4.873-2.127-9.573c6.099,4.875,14.312,9.042,24.854,9.531c0,0-6.359-4.706-9.247-11.549
			c9.68,7.491,25.842,16.882,46.066,16.882c0,0-3.325-0.181-5.742-5.894c3.72,0.541,7.521,0.753,11.336,0.486l-0.002-0.007
			c4.903,0.307,10.064-0.327,15.29-2.24C327.894,165.591,323.348,152.257,323.348,152.257z"/>
		<path fill="#604E75" d="M181.698,173.762c-0.254,0.028-0.494,0.065-0.751,0.09C180.947,173.852,181.219,173.97,181.698,173.762z"
			/>
		<path fill="#604E75" d="M148.936,173.991c-0.365-0.032-0.735-0.06-1.094-0.104C147.842,173.887,148.213,174.107,148.936,173.991z"
			/>
	</g>
</g>
<line fill="none" stroke="#604E75" stroke-miterlimit="10" x1="-769.667" y1="97.334" x2="-769.667" y2="302.948"/>
<line fill="none" stroke="#604E75" stroke-miterlimit="10" x1="-769.667" y1="302.948" x2="-259" y2="302.948"/>
<line fill="none" stroke="#604E75" stroke-miterlimit="10" x1="-259" y1="302.948" x2="-259" y2="81.678"/>
</svg>
