<?xml version="1.0" encoding="utf-8"?>
<!-- Generator: Adobe Illustrator 15.0.0, SVG Export Plug-In . SVG Version: 6.00 Build 0)  -->
<!DOCTYPE svg PUBLIC "-//W3C//DTD SVG 1.1//EN" "http://www.w3.org/Graphics/SVG/1.1/DTD/svg11.dtd">
<svg version="1.1" id="Layer_1" xmlns="http://www.w3.org/2000/svg" xmlns:xlink="http://www.w3.org/1999/xlink" x="0px" y="0px"
	 width="237px" height="280.763px" viewBox="0 0 237 280.763" enable-background="new 0 0 237 280.763" xml:space="preserve">
<path fill="#604E75" d="M229.471,166.059c0,0-4,8.998-16,8.998s-31.332-16.666-16.666-52.332c1.755-4.268,3.262-8.593,4.521-12.939
	c-4.577-0.885-9.119-2.007-13.65-3.524c-3.788,8.389-8.949,14.693-12.817,17.196c-8.66,5.604-22.549,31.75-16.387,45.648
	c6.16,13.896,28.668,28.953,52.334,20.285C234.471,180.725,229.471,166.059,229.471,166.059z"/>
<g>
	<g>
		<path fill="#E9E9EA" d="M-903.945-35.5h2.438c5.94,0,10.8,4.86,10.8,10.8V8.034c0,5.939-4.86,10.8-10.8,10.8h-2.438V-35.5z"/>
		<path fill="#E9E9EA" d="M-982.853-35.5h-2.438c-5.94,0-10.8,4.86-10.8,10.8V8.034c0,5.939,4.86,10.8,10.8,10.8h2.438V-35.5z"/>
		<path fill="#5B5C5C" d="M-901.507-35.5h-2.438h-78.908h-2.438c-5.94,0-10.8,4.86-10.8,10.8V-19h13.237v54.5h78.908V-19h13.237
			V-24.7C-890.708-30.639-895.567-35.5-901.507-35.5z"/>
		<polygon fill="#B69FCC" points="-982.853,35.5 -982.853,52.167 -982.853,91.833 -954.063,91.833 -954.063,52.167 -932.734,52.167 
			-932.734,91.833 -903.945,91.833 -903.945,52.167 -903.945,35.5 		"/>
		<path d="M-968.458,106.228c7.95,0,14.395-6.444,14.395-14.395h-28.79C-982.853,99.784-976.408,106.228-968.458,106.228z"/>
		<path d="M-918.34,106.228c7.95,0,14.395-6.444,14.395-14.395h-28.79C-932.734,99.784-926.29,106.228-918.34,106.228z"/>
		<path fill="#B69FCC" d="M-968.458,77.439c-7.95,0-14.395,6.444-14.395,14.395h28.79
			C-954.063,83.883-960.508,77.439-968.458,77.439z"/>
		<path fill="#B69FCC" d="M-918.34,77.439c-7.95,0-14.395,6.444-14.395,14.395h28.79C-903.945,83.883-910.39,77.439-918.34,77.439z"
			/>
		<text transform="matrix(1 0 0 1 -961.7231 -3.4995)" fill="#FFFFFF" font-family="'Cubano-Regular'" font-size="25.3327">IUP</text>
	</g>
	<g>
		<path fill="#E9E9EA" d="M-866.364-98.881c-0.893,0-1.755,0.118-2.586,0.318c-8.769-28.624-38.907-49.725-74.752-49.725
			s-65.984,21.101-74.752,49.725c-0.831-0.201-1.693-0.318-2.586-0.318c-6.075,0-11,4.925-11,11c0,6.075,4.925,11,11,11
			c0.067,0,0.132-0.009,0.199-0.01c2.714,33.829,36.201,49.417,77.139,49.417c40.938,0,74.425-15.588,77.139-49.417
			c0.067,0.001,0.132,0.01,0.199,0.01c6.075,0,11-4.925,11-11C-855.364-93.957-860.289-98.881-866.364-98.881z"/>
		<g>
			<circle cx="-984.445" cy="-91.173" r="7.5"/>
			<circle fill="#FFFFFF" cx="-986.939" cy="-93.216" r="3.03"/>
		</g>
		<g>
			<circle cx="-903.945" cy="-91.173" r="7.5"/>
			<circle fill="#FFFFFF" cx="-906.439" cy="-93.216" r="3.03"/>
		</g>
		<path fill="#B69FCC" d="M-895.308-139.119c-7.167-5.333-24.171-11.994-44.658-12.637c-22.176-0.696-49.676,7.471-59.842,18.304
			c-10.324,11.001-19.127,25.778-18.647,34.889c0,0,2.813,3.335,2.813,7.39h5.5c0,0,0.5-26.445,16-36.445
			c0,0,7.5-0.833,10.167,4.833c0,0,4.227-3.333,2.03-6.5c0,0,24.428-4.833,39.928,10.792c0,0,3.125-5.542,0.875-7.542
			c0,0,16.125,0.667,22.375,7.917c0,0,0.875-2.417,0-5c-0.445-1.313,23.625-1.875,29.75,7.25c0,0,0.667-8.583-5.792-12.917
			c19.667,12.667,17.667,37.612,17.667,37.612h5.333c0.166-4.055,2.858-7.39,2.858-7.39
			C-871.028-123.087-888.142-133.785-895.308-139.119z"/>
		<path fill="none" stroke="#000000" stroke-width="3" stroke-linecap="round" stroke-miterlimit="10" d="M-943.703-96.246
			c0,0,0.811,8.268,4.311,12.573l-4.311,3.555"/>
		<path fill="none" stroke="#000000" stroke-width="3" stroke-linecap="round" stroke-miterlimit="10" d="M-955.972-73.411
			c0,5.106,3.842,12.917,12.319,12.917s12.827-6.482,12.827-12.827"/>
	</g>
</g>
<path fill="#E9E9EA" d="M168.562,146.309c-1.081-8.552-7.522-14.849-14.316-13.989l-2.788,0.354l3.74,29.561
	c4.919-0.623,10.072-1.274,15.138-1.916L168.562,146.309z"/>
<path fill="#E9E9EA" d="M76.055,132.028h-2.438c-5.941,0-10.801,4.861-10.801,10.801v32.732c0,5.939,4.859,10.801,10.801,10.801
	h2.438V132.028z"/>
<path fill="#333333" d="M152.945,148.872l15.34-1.94l-0.716-5.654c-0.745-5.893-6.985-10.003-13.87-9.133l-2.825,0.358
	L152.945,148.872z"/>
<path fill="#333333" d="M154.961,148.528v54.5H76.055v-54.5H62.816v-5.699c0-5.939,4.859-10.801,10.801-10.801h2.438h78.906V148.528
	z"/>
<polygon fill="#B69FCC" points="76.055,203.028 76.055,219.694 76.055,259.362 104.844,259.362 104.844,219.694 126.172,219.694 
	126.172,259.362 154.961,259.362 154.961,219.694 154.961,203.028 "/>
<path d="M90.449,273.756c7.949,0,14.395-6.445,14.395-14.395H76.055C76.055,267.311,82.498,273.756,90.449,273.756z"/>
<path d="M140.566,273.756c7.951,0,14.395-6.445,14.395-14.395h-28.789C126.172,267.311,132.617,273.756,140.566,273.756z"/>
<path fill="#B69FCC" d="M90.449,244.967c-7.951,0-14.395,6.443-14.395,14.395h28.789C104.844,251.411,98.398,244.967,90.449,244.967
	z"/>
<path fill="#B69FCC" d="M140.566,244.967c-7.949,0-14.395,6.443-14.395,14.395h28.789
	C154.961,251.411,148.518,244.967,140.566,244.967z"/>
<path fill="#E9E9EA" d="M192.543,68.396c-0.893,0-1.756,0.118-2.586,0.318c-8.77-28.624-38.908-49.725-74.754-49.725
	c-35.844,0-65.982,21.101-74.752,49.725c-0.83-0.201-1.693-0.318-2.586-0.318c-6.075,0-11,4.925-11,11c0,6.075,4.926,11,11,11
	c0.068,0,0.133-0.009,0.199-0.01c2.715,33.829,36.201,49.417,77.139,49.417s74.426-15.588,77.141-49.417
	c0.066,0.001,0.131,0.01,0.199,0.01c6.074,0,11-4.925,11-11C203.543,73.321,198.617,68.396,192.543,68.396z"/>
<path fill="none" stroke="#000000" stroke-width="3" stroke-linecap="round" stroke-miterlimit="10" d="M59.742,73.38
	c0,2.075,1.561,5.25,5.006,5.25s5.213-2.635,5.213-5.213"/>
<path fill="none" stroke="#000000" stroke-width="3" stroke-linecap="round" stroke-miterlimit="10" d="M64.852,68.59
	c0,2.075,1.561,5.25,5.006,5.25c1.539,0,2.744-0.526,3.605-1.338"/>
<path fill="none" stroke="#000000" stroke-width="3" stroke-linecap="round" stroke-miterlimit="10" d="M164.768,68.59
	c0,2.075-1.561,5.25-5.006,5.25c-1.539,0-2.744-0.526-3.605-1.338"/>
<path fill="none" stroke="#000000" stroke-width="3" stroke-linecap="round" stroke-miterlimit="10" d="M159.58,73.38
	c0,2.075,1.561,5.25,5.006,5.25s5.213-2.635,5.213-5.213"/>
<g>
	<circle cx="74.461" cy="76.104" r="7.5"/>
	<circle fill="#FFFFFF" cx="71.968" cy="74.062" r="3.03"/>
</g>
<g>
	<circle cx="154.961" cy="76.104" r="7.5"/>
	<circle fill="#FFFFFF" cx="152.468" cy="74.062" r="3.03"/>
</g>
<path fill="none" stroke="#000000" stroke-width="3" stroke-linecap="round" stroke-miterlimit="10" d="M115.203,71.032
	c0,0,0.813,8.268,4.313,12.573l-4.313,3.555"/>
<path fill="none" stroke="#000000" stroke-width="3" stroke-linecap="round" stroke-miterlimit="10" d="M102.936,93.867
	c0,5.106,3.842,12.917,12.318,12.917s12.826-6.482,12.826-12.827"/>
<path fill="#604E75" d="M182.432,24.725c-17.742-15-44.627-27-74.627-17.333c0,0-24.965,11-16.982,23.333s22.943-1.667,44.314,0
	c12.527,0.977,45.949,10.863,55.193,37.99c4.621,13.562,2.596,27.338-2.098,37.73c4.531,1.518,8.516,2.457,13.093,3.341
	C210.59,77.818,206.084,44.722,182.432,24.725z"/>
<path fill="#E9E9EA" d="M192.344,90.386c0.066,0.001,0.131,0.01,0.199,0.01c6.074,0,11-4.925,11-11c0-6.075-4.926-11-11-11
	c-0.893,0-1.756,0.118-2.586,0.318l-5.525,12.451L192.344,90.386z"/>
<path fill="#604E75" d="M99.766,21.392c0,0-7.668,13-17.805,17.667c-10.418,4.796-31.541,3.521-41.51,29.657
	c-10.853,28.453,10.73,54.01,22.365,59.362c11.635,5.35,16.652,32.314,1.801,44.314S7.764,185.725,4.431,156.725
	c0,0,9.001,11,19.334,9.334c10.333-1.668,26.334-16.668,8-38c-18.334-21.334-16.223-70.519,6-91.667
	C60.604,14.657,86.098,6.725,99.766,21.392z"/>
<path fill="#E9E9EA" d="M38.064,90.386c-0.066,0.001-0.131,0.01-0.199,0.01c-6.074,0-11-4.925-11-11c0-6.075,4.926-11,11-11
	c0.893,0,1.756,0.118,2.586,0.318l5.525,12.451L38.064,90.386z"/>
<circle fill="#C4C4C3" cx="69.337" cy="102.763" r="9.595"/>
<circle fill="#C4C4C3" cx="161.581" cy="102.763" r="9.595"/>
<g>
	<g>
		<path fill="#E9E9EA" d="M-701.027,257.419h2.438c5.94,0,10.8,4.86,10.8,10.8v32.733c0,5.939-4.859,10.8-10.8,10.8h-2.438V257.419z
			"/>
		<path fill="#E9E9EA" d="M-779.934,257.419h-2.438c-5.94,0-10.801,4.86-10.801,10.8v32.733c0,5.939,4.86,10.8,10.801,10.8h2.438
			V257.419z"/>
		<path fill="#604E75" d="M-698.589,257.419h-2.438h-78.907h-2.438c-5.94,0-10.801,4.86-10.801,10.8v5.699h13.238v54.5h78.907v-54.5
			h13.237v-5.699C-687.79,262.28-692.649,257.419-698.589,257.419z"/>
		<polygon fill="#5B5C5C" points="-779.934,328.418 -779.934,345.085 -779.934,384.752 -751.145,384.752 -751.145,345.085 
			-729.817,345.085 -729.817,384.752 -701.027,384.752 -701.027,345.085 -701.027,328.418 		"/>
		<path d="M-765.54,399.147c7.949,0,14.395-6.444,14.395-14.395h-28.789C-779.934,392.703-773.49,399.147-765.54,399.147z"/>
		<path d="M-715.422,399.147c7.951,0,14.396-6.444,14.396-14.395h-28.79C-729.817,392.703-723.372,399.147-715.422,399.147z"/>
		<path fill="#5B5C5C" d="M-765.54,370.358c-7.95,0-14.395,6.444-14.395,14.395h28.789
			C-751.145,376.802-757.59,370.358-765.54,370.358z"/>
		<path fill="#5B5C5C" d="M-715.422,370.358c-7.949,0-14.395,6.444-14.395,14.395h28.79
			C-701.027,376.802-707.471,370.358-715.422,370.358z"/>
		<g>
			<g>
				<path fill="#B69FCC" d="M-759.438,276.282c0.692-0.213,1.112-0.071,1.253,0.416c1.805,6.229,2.707,9.343,4.511,15.572
					c0.134,0.463-0.043,0.802-0.547,0.957c-1.107,0.341-1.656,0.527-2.746,0.938c-0.471,0.177-0.844,0.027-1.021-0.42
					c-2.387-6.029-3.58-9.042-5.967-15.071c-0.187-0.472,0.093-0.855,0.74-1.1C-761.716,277.008-760.96,276.75-759.438,276.282z"/>
				<path fill="#B69FCC" d="M-750.099,274.144c0.71-0.108,1.1,0.096,1.168,0.598c0.533,3.937,0.798,5.904,1.332,9.84
					c0.262,1.934,0.558,3.054,2.637,2.864s2.166-1.344,2.073-3.293c-0.188-3.967-0.282-5.95-0.47-9.918
					c-0.024-0.506,0.358-0.779,1.039-0.801c1.604-0.05,2.407-0.05,4.01,0c0.715,0.022,1.061,0.295,1.037,0.801
					c-0.214,4.504-0.32,6.755-0.533,11.258c-0.079,1.67-0.668,5.736-6.759,6.291c-6.091,0.555-7.426-3.33-7.807-4.958
					c-1.027-4.39-1.541-6.585-2.567-10.976c-0.115-0.493,0.212-0.832,0.881-0.977C-752.483,274.533-751.689,274.386-750.099,274.144
					z"/>
				<path fill="#B69FCC" d="M-725.024,275.228c6.239,1.511,7.922,4.528,6.393,8.391s-4.181,4.653-9.253,3.425
					c-0.547-0.133-0.821-0.195-1.371-0.313c-0.543-0.116-0.91,0.072-1.007,0.569c-0.313,1.591-0.469,2.388-0.782,3.979
					c-0.098,0.497-0.402,0.69-0.917,0.599c-1.153-0.206-1.732-0.292-2.892-0.427c-0.492-0.058-0.75-0.36-0.703-0.84
					c0.641-6.443,0.961-9.663,1.604-16.106c0.05-0.505,0.431-0.724,1.147-0.666C-729.671,274.203-728.108,274.481-725.024,275.228z
					 M-726.674,282.857c1.479,0.363,2.252,0.442,2.687-1.066s-0.297-1.897-1.866-2.282c-0.706-0.174-1.061-0.252-1.771-0.404
					c-0.624-0.134-1.034,0.044-1.132,0.541c-0.148,0.756-0.224,1.133-0.372,1.889c-0.093,0.473,0.195,0.813,0.783,0.938
					C-727.674,282.616-727.34,282.694-726.674,282.857z"/>
			</g>
		</g>
	</g>
	<g>
		<path fill="#E9E9EA" d="M-663.446,192.788c-0.893,0-1.756,0.118-2.586,0.318c-8.77-28.624-38.908-49.726-74.753-49.726
			s-65.983,21.102-74.753,49.726c-0.83-0.2-1.693-0.318-2.586-0.318c-6.074,0-11,4.925-11,11s4.926,11,11,11
			c0.068,0,0.133-0.009,0.199-0.011c2.715,33.829,36.201,49.417,77.14,49.417c40.938,0,74.425-15.588,77.14-49.417
			c0.066,0.002,0.131,0.011,0.199,0.011c6.074,0,11-4.925,11-11S-657.372,192.788-663.446,192.788z"/>
		<path fill="none" stroke="#000000" stroke-width="3" stroke-linecap="round" stroke-miterlimit="10" d="M-740.785,195.423
			c0,0,0.812,8.268,4.312,12.572l-4.312,3.555"/>
		<path fill="none" stroke="#000000" stroke-width="3" stroke-linecap="round" stroke-miterlimit="10" d="M-753.053,218.258
			c0,5.106,3.842,12.917,12.318,12.917s12.827-6.482,12.827-12.827"/>
		<path fill="#604E75" d="M-790.116,272.497c4.591-11.506-4.857-20.418-10.387-24.648c-8.191-6.268-23.824-30.232-15.473-54.742
			c9.243-27.128,42.665-37.013,55.192-37.99c21.372-1.667,36.333,12.333,44.315,0s-16.982-23.333-16.982-23.333
			c-30-9.668-56.885,2.333-74.627,17.333c-26.868,22.716-31.902,63.65-14.373,98c5.55,10.875,8.467,16.334-1.2,21.167
			c0,0-5.5,3.833-7.5,0.667c0,0-0.167,4.333,7,5c0,0-1.333,3.05-4.333,2.107c0,0,3.812,1.742,6.771,0.434
			c0,0-0.375,1.813-2.75,1.875C-827.048,278.434-796.848,289.37-790.116,272.497z"/>
		<path fill="#604E75" d="M-690.262,275.783c-10.229-10.833-3.265-19.167,1.801-23.315c9.908-8.114,33.218-30.908,22.365-59.361
			c-9.969-26.136-31.093-24.86-41.511-29.657c-10.137-4.666-17.804-17.666-17.804-17.666c13.667-14.666,39.161-6.734,62,15
			c22.223,21.148,20.735,67.705,6,91.667c-5.739,9.333-2.333,15.333,8,17c0,0,5.095,1.76,7.095-0.537s-1.333,4.37-5.5,4.37
			s-1.499,1.499,2.167,1.833c0,0-2.927,1.5-6.797,1.334c0,0-1.037,0.666,0.963,1.5C-651.483,277.95-681.047,285.542-690.262,275.783
			z"/>
		<path fill="#E9E9EA" d="M-663.645,214.777c0.066,0.002,0.131,0.01,0.199,0.01c6.074,0,11-4.925,11-11c0-6.074-4.926-11-11-11
			c-0.893,0-1.756,0.118-2.586,0.318l-5.525,12.451L-663.645,214.777z"/>
		<path fill="#E9E9EA" d="M-817.923,214.777c-0.066,0.002-0.131,0.01-0.199,0.01c-6.074,0-11-4.925-11-11c0-6.074,4.926-11,11-11
			c0.893,0,1.756,0.118,2.586,0.318l5.525,12.451L-817.923,214.777z"/>
		<circle fill="#C4C4C3" cx="-786.652" cy="227.154" r="9.595"/>
		<circle fill="#C4C4C3" cx="-694.408" cy="227.154" r="9.595"/>
		<path fill="none" stroke="#000000" stroke-width="3" stroke-linecap="round" stroke-miterlimit="10" d="M-793.658,196.209
			c0,2.075,1.561,5.25,5.006,5.25s5.214-2.635,5.214-5.213"/>
		<path fill="none" stroke="#000000" stroke-width="3" stroke-linecap="round" stroke-miterlimit="10" d="M-788.548,191.419
			c0,2.075,1.561,5.25,5.006,5.25c1.54,0,2.744-0.526,3.605-1.338"/>
		<path fill="none" stroke="#000000" stroke-width="3" stroke-linecap="round" stroke-miterlimit="10" d="M-688.632,191.419
			c0,2.075-1.561,5.25-5.006,5.25c-1.539,0-2.744-0.526-3.605-1.338"/>
		<path fill="none" stroke="#000000" stroke-width="3" stroke-linecap="round" stroke-miterlimit="10" d="M-693.82,196.209
			c0,2.075,1.561,5.25,5.006,5.25s5.214-2.635,5.214-5.213"/>
		<g>
			<circle cx="-778.938" cy="198.934" r="7.5"/>
			<circle fill="#FFFFFF" cx="-781.432" cy="196.891" r="3.03"/>
		</g>
		<g>
			<circle cx="-698.438" cy="198.934" r="7.5"/>
			<circle fill="#FFFFFF" cx="-700.932" cy="196.891" r="3.03"/>
		</g>
	</g>
</g>
<g>
	<g>
		<path fill="#E9E9EA" d="M-462.104-35.5h2.438c5.94,0,10.801,4.86,10.801,10.8V8.034c0,5.939-4.86,10.8-10.801,10.8h-2.438V-35.5z"
			/>
		<path fill="#E9E9EA" d="M-541.011-35.5h-2.438c-5.939,0-10.8,4.86-10.8,10.8V8.034c0,5.939,4.86,10.8,10.8,10.8h2.438V-35.5z"/>
		<path fill="#5B5C5C" d="M-459.667-35.5h-2.438h-78.907h-2.438c-5.939,0-10.8,4.86-10.8,10.8V-19h13.237v54.5h78.907V-19h13.238
			V-24.7C-448.866-30.639-453.726-35.5-459.667-35.5z"/>
		<polygon fill="#604E75" points="-541.011,35.5 -541.011,52.167 -541.011,91.833 -512.221,91.833 -512.221,52.167 -490.893,52.167 
			-490.893,91.833 -462.104,91.833 -462.104,52.167 -462.104,35.5 		"/>
		<path d="M-526.617,106.228c7.95,0,14.396-6.444,14.396-14.395h-28.79C-541.011,99.784-534.566,106.228-526.617,106.228z"/>
		<path d="M-476.499,106.228c7.95,0,14.395-6.444,14.395-14.395h-28.789C-490.893,99.784-484.448,106.228-476.499,106.228z"/>
		<path fill="#604E75" d="M-526.617,77.439c-7.949,0-14.395,6.444-14.395,14.395h28.79
			C-512.221,83.883-518.667,77.439-526.617,77.439z"/>
		<path fill="#604E75" d="M-476.499,77.439c-7.949,0-14.395,6.444-14.395,14.395h28.789
			C-462.104,83.883-468.548,77.439-476.499,77.439z"/>
		<g>
			<g>
				<path fill="#E9E9EA" d="M-534.897-13.417c1.461-0.578,2.197-0.851,3.675-1.364c0.197,0.567,0.295,0.85,0.492,1.417
					c-0.319,0.111-0.479,0.167-0.797,0.281c0.727,2.033,1.088,3.048,1.815,5.081c0.299-0.107,0.45-0.16,0.75-0.264
					c0.195,0.562,0.292,0.844,0.487,1.406c-1.343,0.466-2.011,0.713-3.338,1.239c-0.219-0.553-0.329-0.829-0.548-1.382
					c0.296-0.117,0.446-0.176,0.744-0.291c-0.776-2.015-1.163-3.021-1.938-5.035c-0.316,0.122-0.476,0.183-0.791,0.308
					C-534.566-12.581-534.676-12.859-534.897-13.417z"/>
				<path fill="#E9E9EA" d="M-523.244-17.174c1.383-0.343,2.078-0.5,3.471-0.789c0.122,0.587,0.181,0.88,0.303,1.468
					c-0.328,0.068-0.492,0.103-0.819,0.173c0.584,2.701,0.876,4.052,1.461,6.753c-0.48,0.104-0.719,0.157-1.198,0.268
					c-2.036-1.685-3.1-2.497-5.317-4.052c0.41,1.444,0.613,2.167,1.023,3.611c0.157-0.044,0.918-0.256,0.918-0.256
					c0.157,0.579,0.236,0.869,0.394,1.447c-1.25,0.339-1.873,0.521-3.113,0.91c-0.18-0.572-0.269-0.859-0.449-1.431
					c0.36-0.113,0.539-0.167,0.9-0.276c-0.625-2.071-0.938-3.106-1.563-5.178c-0.384,0.116-0.575,0.175-0.958,0.295
					c-0.18-0.572-0.27-0.858-0.449-1.431c1.163-0.365,1.746-0.539,2.917-0.864c1.862,1.35,2.763,2.049,4.5,3.488
					c-0.275-1.167-0.413-1.75-0.688-2.917c-0.389,0.092-0.584,0.139-0.972,0.235C-523.028-16.301-523.1-16.592-523.244-17.174z"/>
				<path fill="#E9E9EA" d="M-508.419-15.363c0.198,2.403-1.544,4.328-3.814,4.63c-1.451,0.193-2.176,0.307-3.62,0.564
					c-0.106-0.595-0.159-0.893-0.266-1.488c0.295-0.053,0.443-0.078,0.739-0.128c-0.359-2.119-0.538-3.178-0.897-5.298
					c-0.314,0.053-0.471,0.08-0.785,0.136c-0.107-0.6-0.16-0.899-0.267-1.499c1.59-0.284,2.388-0.408,3.986-0.621
					C-510.656-19.423-508.617-17.765-508.419-15.363z M-513.359-12.102c0.257-0.037,0.384-0.055,0.641-0.09
					c1.84-0.251,2.344-1.637,2.201-2.973c-0.144-1.347-1.154-2.593-2.927-2.351c-0.273,0.037-0.41,0.057-0.683,0.096
					C-513.819-15.292-513.667-14.229-513.359-12.102z"/>
				<path fill="#E9E9EA" d="M-506.863-19.659c1.541-0.094,2.312-0.125,3.855-0.154c0.011,0.6,0.018,0.899,0.029,1.5
					c-0.333,0.006-0.5,0.01-0.833,0.019c0.061,2.158,0.091,3.236,0.152,5.394c0.313-0.009,0.469-0.012,0.783-0.018
					c0.011,0.595,0.017,0.893,0.028,1.487c-1.401,0.026-2.102,0.055-3.502,0.141c-0.037-0.594-0.054-0.89-0.091-1.484
					c0.313-0.019,0.469-0.03,0.782-0.046c-0.112-2.155-0.166-3.233-0.278-5.389c-0.333,0.017-0.501,0.027-0.834,0.047
					C-506.809-18.761-506.827-19.06-506.863-19.659z"/>
				<path fill="#E9E9EA" d="M-495.076-19.629c0,0,2.488,6.831,2.62,7.135c0.372,0.039,0.556,0.059,0.927,0.102
					c-0.069,0.596-0.104,0.894-0.173,1.49c-1.399-0.163-2.102-0.229-3.505-0.332c0.043-0.593,0.067-0.89,0.111-1.483
					c0.184,0.014,0.275,0.02,0.458,0.034c-0.125-0.311-0.229-0.619-0.369-0.942c-0.993-0.073-1.489-0.103-2.483-0.146
					c-0.157,0.358-0.234,0.538-0.388,0.896c0.184,0.007,0.276,0.011,0.46,0.02c-0.027,0.594-0.041,0.892-0.068,1.486
					c-1.215-0.056-1.824-0.072-3.04-0.083c0.005-0.6,0.008-0.9,0.014-1.5c0.373,0.003,0.56,0.005,0.933,0.013
					c0.316-0.894,3.296-6.763,3.296-6.763c0.494,0.027,0.742,0.042,1.236,0.076C-495.059-19.628-495.065-19.628-495.076-19.629z
					 M-495.458-15.161c-0.256-0.686-0.387-1.028-0.655-1.712c-0.325,0.649-0.484,0.974-0.799,1.626
					C-496.33-15.217-496.04-15.2-495.458-15.161z"/>
				<path fill="#E9E9EA" d="M-482.976-18.001c1.393,0.285,2.088,0.44,3.472,0.78c-0.143,0.583-0.215,0.873-0.358,1.456
					c-0.326-0.08-0.488-0.118-0.814-0.195c-0.634,2.69-0.952,4.034-1.586,6.724c-0.479-0.113-0.717-0.167-1.197-0.272
					c-1.113-2.396-1.722-3.587-3.045-5.943c-0.251,1.48-0.377,2.22-0.628,3.701c0.16,0.027,0.934,0.164,0.934,0.164
					c-0.107,0.59-0.162,0.886-0.269,1.476c-1.269-0.23-1.904-0.333-3.18-0.514c0.084-0.594,0.126-0.889,0.21-1.483
					c0.37,0.052,0.554,0.078,0.924,0.134c0.327-2.139,0.49-3.208,0.817-5.347c-0.394-0.06-0.589-0.089-0.983-0.145
					c0.084-0.594,0.126-0.89,0.21-1.484c1.196,0.169,1.793,0.264,2.985,0.473c1.093,2.019,1.602,3.037,2.549,5.082
					c0.253-1.172,0.38-1.758,0.634-2.931c-0.39-0.084-0.584-0.126-0.976-0.206C-483.155-17.12-483.096-17.414-482.976-18.001z"/>
				<path fill="#E9E9EA" d="M-471.812-14.958c0,0,0.685,7.259,0.736,7.587c0.354,0.136,0.53,0.204,0.883,0.343
					c-0.221,0.558-0.331,0.838-0.552,1.396c-1.332-0.527-2.002-0.776-3.35-1.244c0.195-0.562,0.293-0.843,0.488-1.405
					c0.176,0.061,0.264,0.091,0.44,0.153c-0.043-0.333-0.064-0.657-0.118-1.007c-0.954-0.331-1.432-0.49-2.392-0.792
					c-0.245,0.305-0.368,0.459-0.61,0.766c0.178,0.055,0.267,0.083,0.444,0.14c-0.179,0.567-0.269,0.85-0.448,1.417
					c-1.173-0.371-1.763-0.545-2.946-0.871c0.159-0.578,0.239-0.868,0.398-1.446c0.363,0.1,0.545,0.152,0.907,0.256
					c0.538-0.782,4.956-5.678,4.956-5.678c0.477,0.155,0.713,0.233,1.188,0.396C-471.796-14.952-471.801-14.954-471.812-14.958z
					 M-473.332-10.736c-0.075-0.729-0.115-1.095-0.202-1.826c-0.485,0.542-0.725,0.814-1.2,1.362
					C-474.171-11.02-473.891-10.926-473.332-10.736z"/>
			</g>
		</g>
	</g>
	<g>
		<path fill="#E9E9EA" d="M-424.532-99.131c-0.893,0-1.756,0.118-2.586,0.318c-8.77-28.624-38.908-49.725-74.753-49.725
			c-35.846,0-65.984,21.101-74.752,49.725c-0.831-0.201-1.693-0.318-2.586-0.318c-6.076,0-11,4.925-11,11c0,6.075,4.924,11,11,11
			c0.066,0,0.132-0.009,0.199-0.01c2.713,33.829,36.201,49.417,77.139,49.417s74.425-15.588,77.14-49.417
			c0.066,0.001,0.131,0.01,0.199,0.01c6.074,0,11-4.925,11-11C-413.532-94.207-418.458-99.131-424.532-99.131z"/>
		<g>
			<circle cx="-542.613" cy="-91.423" r="7.5"/>
			<circle fill="#FFFFFF" cx="-545.107" cy="-93.466" r="3.029"/>
		</g>
		<g>
			<circle cx="-462.113" cy="-91.423" r="7.5"/>
			<circle fill="#FFFFFF" cx="-464.607" cy="-93.466" r="3.03"/>
		</g>
		<path fill="none" stroke="#000000" stroke-width="3" stroke-linecap="round" stroke-miterlimit="10" d="M-501.871-96.496
			c0,0,0.812,8.268,4.312,12.573l-4.312,3.555"/>
		<path fill="none" stroke="#000000" stroke-width="3" stroke-linecap="round" stroke-miterlimit="10" d="M-514.139-73.661
			c0,5.106,3.842,12.917,12.318,12.917s12.827-6.482,12.827-12.827"/>
		<path fill="#B69FCC" d="M-450.056-136.867L-450.056-136.867C-450.056-136.867-450.056-136.868-450.056-136.867
			c-1.28-0.946-2.444-1.776-3.42-2.501c-1.853-1.379-4.369-2.847-7.429-4.276c-16.112-12.402-23.727-29.564-23.727-29.564
			c-3,9.667-8.751,6.667-8.751,6.667c-2.751-1-3.083-6-3.083-6c-0.5,3.5-4,6.5-6.666,4.167c-2.667-2.333-4-11.5-4-11.5
			s-1.5,18-8.334,16.833c-6.833-1.167-6.166-5.167-6.166-5.167c-0.968,10.89-16.194,21.368-24.47,26.295
			c-1.881,0.93-3.637,1.909-5.25,2.928c-0.002,0-0.012,0.005-0.012,0.005h0.002c-2.631,1.663-4.881,3.431-6.615,5.279
			c-10.324,11.001-19.127,25.778-18.646,34.889c0,0,2.813,3.335,2.813,7.39h5.5c0,0,0.5-26.445,16-36.445
			c0,0,25.348-10.674,48.515-9.841c23.166,0.833,50.819,8.674,50.819,8.674c19.667,12.667,17.667,37.612,17.667,37.612h5.332
			c0.166-4.055,2.859-7.39,2.859-7.39C-428.914-120-441.925-130.863-450.056-136.867z"/>
	</g>
</g>
<g>
	<g>
		<path fill="#E9E9EA" d="M-923.718,257.419h2.438c5.939,0,10.8,4.86,10.8,10.8v32.733c0,5.939-4.86,10.8-10.8,10.8h-2.438V257.419z
			"/>
		<path fill="#E9E9EA" d="M-1002.626,257.419h-2.438c-5.94,0-10.8,4.86-10.8,10.8v32.733c0,5.939,4.859,10.8,10.8,10.8h2.438
			V257.419z"/>
		<path fill="#B69FCC" d="M-921.281,257.419h-2.438h-78.908h-2.438c-5.94,0-10.8,4.86-10.8,10.8v5.699h13.237v54.5h78.908v-54.5
			h13.237v-5.699C-910.481,262.28-915.341,257.419-921.281,257.419z"/>
		<polygon fill="#C4C4C3" points="-1002.626,328.418 -1002.626,345.085 -1002.626,384.752 -973.836,384.752 -973.836,345.085 
			-952.508,345.085 -952.508,384.752 -923.718,384.752 -923.718,345.085 -923.718,328.418 		"/>
		<path d="M-988.232,399.147c7.95,0,14.396-6.444,14.396-14.395h-28.79C-1002.626,392.703-996.182,399.147-988.232,399.147z"/>
		<path d="M-938.114,399.147c7.95,0,14.396-6.444,14.396-14.395h-28.79C-952.508,392.703-946.063,399.147-938.114,399.147z"/>
		<path fill="#C4C4C3" d="M-988.232,370.358c-7.95,0-14.395,6.444-14.395,14.395h28.79
			C-973.836,376.802-980.282,370.358-988.232,370.358z"/>
		<path fill="#C4C4C3" d="M-938.114,370.358c-7.949,0-14.395,6.444-14.395,14.395h28.79
			C-923.718,376.802-930.164,370.358-938.114,370.358z"/>
		<g>
			<g>
				<path fill="#5B5C5C" d="M-989.328,281.644c0.005,1.075-0.326,2.528-2.472,3.265c-2.124,0.729-4.296-0.305-5.159-2.481
					c-0.926-2.34,0.151-4.52,2.486-5.319c0.799-0.273,1.463-0.328,1.833-0.276c-0.054-0.168-0.082-0.253-0.135-0.421
					c0.628-0.201,0.943-0.299,1.574-0.488c0.373,1.239,0.56,1.86,0.932,3.1c-0.609,0.183-0.913,0.278-1.519,0.473
					c-0.055-0.172-0.083-0.261-0.138-0.433c-0.177-0.552-0.979-0.92-2.068-0.547c-0.762,0.261-1.615,1.2-0.908,3.127
					c0.659,1.796,1.907,2.12,2.624,1.874c1.172-0.402,1.432-1.562,1.386-1.705C-990.266,281.738-989.952,281.705-989.328,281.644z"
					/>
				<path fill="#5B5C5C" d="M-980.033,280.274c0.104,0.575,0.157,0.863,0.261,1.438c-0.802,0.146-1.203,0.222-2.002,0.388
					c-0.327-0.074-1.007-0.379-1.226-1.376c-0.124-0.566-0.824-1.607-2.049-1.469c0.189,0.79,0.285,1.185,0.474,1.975
					c0.297-0.071,0.446-0.106,0.744-0.175c0.131,0.569,0.197,0.854,0.328,1.424c-1.323,0.304-1.983,0.469-3.295,0.828
					c-0.154-0.563-0.229-0.845-0.384-1.408c0.347-0.095,0.52-0.143,0.867-0.233c-0.53-2.023-0.797-3.034-1.327-5.058
					c-0.369,0.097-0.553,0.145-0.921,0.245c-0.153-0.56-0.229-0.838-0.381-1.397c1.506-0.412,2.262-0.603,3.781-0.948
					c2.023-0.461,2.907,0.711,3.106,1.724c0.168,0.854-0.406,1.818-0.383,1.994c0.032,0.242,1.002,1.148,1.168,1.99
					c0.056,0.284,0.36,0.224,0.36,0.224C-980.561,280.372-980.384,280.338-980.033,280.274z M-984.768,277.702
					c0.715-0.166,0.962-0.657,0.868-1.088s-0.498-0.795-1.103-0.655c-0.316,0.073-0.474,0.109-0.79,0.185
					c0.163,0.681,0.245,1.023,0.408,1.704C-985.139,277.788-985.015,277.759-984.768,277.702z"/>
				<path fill="#5B5C5C" d="M-978.81,273.332c1.458-0.225,2.189-0.323,3.652-0.489c0.065,0.576,0.097,0.866,0.162,1.442
					c-0.316,0.036-0.475,0.052-0.791,0.09c0.253,2.072,0.381,3.109,0.634,5.181c0.297-0.036,0.446-0.054,0.744-0.088
					c0.065,0.571,0.097,0.856,0.162,1.428c-1.333,0.151-1.999,0.241-3.326,0.446c-0.088-0.568-0.131-0.852-0.219-1.42
					c0.297-0.046,0.445-0.068,0.742-0.111c-0.3-2.065-0.452-3.1-0.752-5.165c-0.315,0.046-0.473,0.069-0.788,0.118
					C-978.677,274.19-978.722,273.905-978.81,273.332z"/>
				<path fill="#5B5C5C" d="M-964.122,272.244c1.024,0.009,1.536,0.02,2.561,0.057c-0.021,0.579-0.031,0.869-0.053,1.448
					c-0.378-0.014-0.567-0.02-0.946-0.029c-0.055,2.092-0.082,3.136-0.136,5.228c0.356,0.009,0.534,0.017,0.89,0.029
					c-0.021,0.579-0.031,0.867-0.052,1.446c-1.339-0.049-2.009-0.06-3.348-0.055c-0.002-0.579-0.003-0.868-0.005-1.448
					c0.233-0.001,0.35-0.001,0.583,0c0.003-1.049,0.004-1.574,0.008-2.622c-0.798,1.625-1.179,2.443-1.902,4.086
					c-0.354,0.007-0.532,0.011-0.887,0.021c0,0-1.74-2.983-2.417-4.095c0.062,1.098,0.093,1.646,0.155,2.744
					c0.237-0.014,0.355-0.02,0.592-0.031c0.029,0.579,0.042,0.867,0.071,1.446c-1.166,0.058-1.747,0.097-2.911,0.195
					c-0.049-0.577-0.074-0.864-0.123-1.442c0.36-0.03,0.54-0.046,0.9-0.072c-0.155-2.086-0.233-3.13-0.388-5.216
					c-0.382,0.028-0.574,0.044-0.956,0.076c-0.049-0.578-0.072-0.866-0.122-1.444c0.96-0.081,1.441-0.116,2.403-0.172
					c1.404,2.069,2.07,3.118,3.324,5.237C-965.844,275.459-965.293,274.381-964.122,272.244z"/>
				<path fill="#5B5C5C" d="M-952.793,278.911c-0.329,2.295-2.646,1.993-3.378,1.916c-0.731-0.077-1.565-0.441-1.824-1.045
					c-0.029,0.347-0.042,0.521-0.071,0.867c-0.582-0.048-0.873-0.069-1.455-0.107c0.086-1.333,0.129-1.999,0.216-3.332
					c0.605,0.039,0.908,0.063,1.513,0.113c-0.024,0.291-0.036,0.437-0.06,0.728c-0.048,0.578,0.651,1.216,1.538,1.307
					c0.745,0.076,1.656-0.121,1.708-0.548c0.088-0.726-0.487-0.962-1.804-1.501c-1.007-0.412-2.678-0.954-2.571-2.551
					c0.086-1.295,1.585-2.238,3.346-2.059c1.123,0.114,1.543,0.614,1.642,1.07c0.042-0.35,0.063-0.525,0.106-0.875
					c0.642,0.078,0.962,0.118,1.604,0.208c-0.153,1.094-0.229,1.641-0.381,2.734c-0.622-0.087-0.933-0.126-1.555-0.201
					c0.007-0.056,0.011-0.084,0.018-0.14c0.052-0.426-0.324-1.215-1.579-1.343c-0.477-0.049-1.131,0.182-1.17,0.621
					c-0.038,0.427,0.438,0.636,1.464,1.02C-954.323,276.23-952.503,276.89-952.793,278.911z"/>
				<path fill="#5B5C5C" d="M-942.604,279.221c-0.795,3.004-3.098,3.481-4.874,3.1c-1.901-0.408-3.645-1.896-3.158-4.824
					c0.465-2.803,2.817-3.775,4.91-3.325C-943.772,274.591-941.838,276.329-942.604,279.221z M-944.744,278.684
					c0.381-1.602-0.181-2.811-1.297-3.051c-1.265-0.271-2.257,0.606-2.565,2.224c-0.304,1.595,0.251,2.758,1.44,3.014
					C-946.116,281.096-945.12,280.263-944.744,278.684z"/>
				<path fill="#5B5C5C" d="M-934.541,277.443c1.289,0.455,1.933,0.694,3.208,1.199c-0.213,0.539-0.32,0.809-0.534,1.348
					c-0.3-0.119-0.451-0.178-0.752-0.294c-0.961,2.492-1.442,3.739-2.403,6.231c-0.443-0.171-0.664-0.255-1.109-0.419
					c-0.746-2.441-1.168-3.661-2.111-6.092c-0.439,1.384-0.658,2.076-1.097,3.46c0.149,0.048,0.869,0.282,0.869,0.282
					c-0.181,0.551-0.271,0.824-0.453,1.375c-1.181-0.389-1.774-0.571-2.965-0.915c0.161-0.557,0.241-0.834,0.401-1.391
					c0.346,0.1,0.519,0.148,0.863,0.252c0.601-2.004,0.901-3.006,1.502-5.01c-0.366-0.109-0.549-0.164-0.916-0.27
					c0.161-0.557,0.24-0.837,0.4-1.394c1.113,0.321,1.669,0.492,2.775,0.85c0.768,2.076,1.118,3.114,1.75,5.197
					c0.398-1.089,0.597-1.633,0.995-2.722c-0.361-0.132-0.543-0.196-0.905-0.324C-934.83,278.261-934.734,277.99-934.541,277.443z"
					/>
			</g>
		</g>
		<g>
			<g>
				<path fill="#5B5C5C" d="M-984.994,294.803c1.414,0.45,2.126,0.657,3.556,1.027c-0.15,0.58-0.226,0.871-0.376,1.451
					c-0.307-0.079-0.46-0.122-0.767-0.205c-0.565,2.084-0.848,3.127-1.413,5.211c0.331,0.09,0.496,0.131,0.827,0.217
					c-0.15,0.581-0.226,0.872-0.376,1.453c-1.608-0.417-2.408-0.648-3.997-1.154c0.182-0.571,0.272-0.854,0.455-1.426
					c0.395,0.126,0.593,0.185,0.989,0.305c0.244-0.804,0.365-1.204,0.608-2.008c-1.149-0.349-1.721-0.534-2.858-0.932
					c-0.277,0.793-0.415,1.188-0.691,1.98c0.392,0.137,0.589,0.205,0.982,0.336c-0.19,0.569-0.285,0.853-0.475,1.422
					c-1.583-0.528-2.371-0.814-3.93-1.432c0.221-0.558,0.331-0.837,0.552-1.395c0.321,0.127,0.482,0.19,0.804,0.313
					c0.771-2.017,1.157-3.025,1.928-5.042c-0.299-0.114-0.447-0.172-0.745-0.29c0.221-0.558,0.331-0.836,0.551-1.394
					c1.388,0.55,2.087,0.802,3.496,1.271c-0.189,0.569-0.284,0.856-0.474,1.426c-0.365-0.122-0.548-0.185-0.912-0.312
					c-0.237,0.68-0.355,1.019-0.592,1.698c1.114,0.389,1.674,0.572,2.8,0.913c0.209-0.688,0.312-1.033,0.521-1.722
					c-0.367-0.111-0.55-0.168-0.917-0.284C-985.268,295.663-985.176,295.375-984.994,294.803z"/>
				<path fill="#5B5C5C" d="M-974.336,297.267c0,0,2.183,6.922,2.329,7.227c0.402,0.041,0.604,0.059,1.007,0.094
					c-0.053,0.598-0.079,0.896-0.131,1.493c-1.577-0.139-2.365-0.225-3.935-0.445c0.083-0.589,0.125-0.887,0.208-1.476
					c0.198,0.027,0.298,0.042,0.496,0.068c-0.121-0.318-0.214-0.632-0.342-0.966c-1.045-0.146-1.567-0.229-2.608-0.413
					c-0.211,0.333-0.316,0.498-0.531,0.83c0.197,0.036,0.294,0.052,0.491,0.086c-0.103,0.586-0.154,0.882-0.256,1.468
					c-1.353-0.237-2.026-0.374-3.37-0.673c0.13-0.585,0.195-0.877,0.325-1.462c0.396,0.088,0.595,0.132,0.992,0.215
					c0.501-0.815,4.237-6.215,4.237-6.215c0.445,0.073,0.668,0.105,1.114,0.171C-974.321,297.268-974.327,297.268-974.336,297.267z
					 M-975.068,301.694c-0.207-0.705-0.307-1.057-0.499-1.763c-0.382,0.614-0.577,0.921-0.972,1.53
					C-975.951,301.561-975.657,301.607-975.068,301.694z"/>
				<path fill="#5B5C5C" d="M-962.036,297.93c1.221-0.045,1.831-0.08,3.049-0.18c0.049,0.603,0.075,0.906,0.124,1.509
					c-0.314,0.025-0.472,0.036-0.786,0.059c-0.149,0.011-0.141,0.139-0.141,0.139c-0.755,2.768-1.178,4.148-2.118,6.894
					c-0.555,0.019-0.833,0.026-1.387,0.035c-0.648-1.736-0.954-2.607-1.531-4.356c-0.655,1.743-1.003,2.611-1.736,4.339
					c-0.483-0.013-0.726-0.022-1.209-0.043c-0.847-2.683-1.228-4.031-1.906-6.732c0.013-0.168-0.127-0.309-0.289-0.321
					c-0.314-0.025-0.471-0.038-0.785-0.066c0.055-0.602,0.083-0.903,0.137-1.505c1.466,0.133,2.201,0.179,3.67,0.232
					c-0.022,0.604-0.032,0.907-0.054,1.511c-0.25-0.009-0.375-0.014-0.625-0.025c0.32,1.216,0.489,1.82,0.841,3.032
					c0.714-1.782,1.05-2.679,1.682-4.477c0.425,0.004,0.638,0.003,1.063,0c0.627,1.8,0.961,2.698,1.671,4.482
					c0.355-1.211,0.524-1.817,0.847-3.032c-0.185,0.008-0.277,0.013-0.461,0.02C-962.002,298.839-962.014,298.534-962.036,297.93z"
					/>
				<path fill="#5B5C5C" d="M-947.392,302.907c0.333-0.078,0.498-0.119,0.83-0.201c0.143,0.577,0.216,0.866,0.359,1.443
					c-1.611,0.399-2.421,0.576-4.047,0.887c-0.111-0.584-0.168-0.878-0.279-1.462c-1.127-0.825-1.674-1.247-2.741-2.113
					c0.16,1.01,0.238,1.514,0.397,2.523c0.336-0.053,0.503-0.079,0.839-0.136c0.1,0.587,0.151,0.879,0.251,1.466
					c-1.56,0.265-2.343,0.377-3.911,0.56c-0.069-0.591-0.104-0.887-0.173-1.478c0.337-0.039,0.506-0.06,0.844-0.103
					c-0.275-2.151-0.414-3.228-0.689-5.378c-0.313,0.04-0.469,0.062-0.782,0.098c-0.069-0.591-0.103-0.887-0.171-1.478
					c1.395-0.162,2.09-0.266,3.478-0.501c0.1,0.587,0.149,0.881,0.249,1.468c-0.312,0.053-0.466,0.079-0.778,0.128
					c0.084,0.535,0.127,0.805,0.212,1.34c0.842-0.856,1.249-1.292,2.039-2.173c-0.08-0.415-0.12-0.621-0.2-1.036
					c1.205-0.233,1.805-0.365,3.001-0.653c0.139,0.578,0.208,0.87,0.348,1.448c-0.372,0.09-0.559,0.133-0.931,0.217
					c-0.22,0.05-0.33,0.225-0.662,0.625c-0.242,0.292-1.033,1.278-1.585,1.833c1.238,0.989,1.879,1.472,3.197,2.405
					C-948.036,302.824-947.721,302.985-947.392,302.907z"/>
				<path fill="#5B5C5C" d="M-937.411,298.819c0.883,2.23-1.729,3.213-2.559,3.496c-0.83,0.283-1.901,0.311-2.419-0.157
					c0.106,0.344,0.158,0.514,0.264,0.857c-0.664,0.204-0.997,0.302-1.664,0.491c-0.376-1.329-0.564-1.994-0.94-3.323
					c0.637-0.181,0.954-0.272,1.587-0.468c0.089,0.289,0.134,0.434,0.223,0.723c0.177,0.573,1.173,0.894,2.143,0.568
					c0.814-0.273,1.659-0.907,1.507-1.325c-0.259-0.71-0.947-0.626-2.489-0.559c-1.179,0.051-3.053,0.149-3.507-1.442
					c-0.369-1.291,0.668-2.688,2.286-3.232c1.032-0.347,1.615-0.081,1.913,0.296c-0.125-0.343-0.186-0.514-0.311-0.856
					c0.587-0.214,0.879-0.323,1.463-0.551c0.416,1.063,0.623,1.595,1.039,2.658c-0.608,0.237-0.914,0.352-1.526,0.574
					c-0.02-0.055-0.029-0.081-0.049-0.136c-0.152-0.417-0.847-0.956-2.046-0.554c-0.456,0.153-0.967,0.632-0.829,1.066
					c0.134,0.423,0.667,0.445,1.809,0.351C-940.221,297.189-938.188,296.856-937.411,298.819z"/>
			</g>
		</g>
	</g>
	<g>
		<path fill="#E9E9EA" d="M-886.147,192.587c-0.893,0-1.755,0.117-2.586,0.318c-8.769-28.625-38.907-49.726-74.753-49.726
			c-35.845,0-65.983,21.101-74.753,49.726c-0.83-0.201-1.693-0.318-2.586-0.318c-6.074,0-11,4.924-11,11c0,6.074,4.926,11,11,11
			c0.068,0,0.133-0.01,0.199-0.011c2.715,33.828,36.201,49.416,77.14,49.416c40.938,0,74.426-15.588,77.14-49.416
			c0.067,0.001,0.132,0.011,0.199,0.011c6.075,0,11-4.926,11-11C-875.147,197.511-880.072,192.587-886.147,192.587z"/>
		<g>
			<circle cx="-1004.228" cy="200.294" r="7.5"/>
			<circle fill="#FFFFFF" cx="-1006.722" cy="198.251" r="3.03"/>
		</g>
		<g>
			<circle cx="-923.728" cy="200.294" r="7.5"/>
			<circle fill="#FFFFFF" cx="-926.222" cy="198.251" r="3.03"/>
		</g>
		<path fill="none" stroke="#000000" stroke-width="3" stroke-linecap="round" stroke-miterlimit="10" d="M-963.486,195.222
			c0,0,0.812,8.268,4.312,12.572l-4.312,3.555"/>
		<path fill="none" stroke="#000000" stroke-width="3" stroke-linecap="round" stroke-miterlimit="10" d="M-975.754,218.058
			c0,5.105,3.842,12.916,12.318,12.916s12.827-6.481,12.827-12.826"/>
		<path fill="#604E75" d="M-963.182,119.582c-11.729,23.599-36.259,25.295-44.533,30.223c-1.883,0.93-3.639,1.908-5.252,2.928
			l-0.01,0.005h0.002c-2.632,1.663-4.881,3.431-6.616,5.279c-10.324,11.001-19.127,25.778-18.647,34.89c0,0,2.814,3.334,2.814,7.389
			h5.5c0,0,0.5-26.445,16-36.445c0,0,25.348-10.674,48.514-9.84c23.167,0.833,50.819,8.674,50.819,8.674
			c19.667,12.667,17.667,37.611,17.667,37.611h5.333c0.166-4.055,2.858-7.389,2.858-7.389
			c-1.796-21.188-14.808-32.051-22.938-38.055h0.001c-0.001,0-0.001,0-0.001,0c-1.28-0.946-2.444-1.775-3.42-2.502
			c-1.853-1.379-4.369-2.846-7.428-4.275C-953.744,140.749-963.182,119.582-963.182,119.582z"/>
	</g>
</g>
<g>
	<g>
		<path fill="#E9E9EA" d="M-471.687,259.924h2.438c5.94,0,10.8,4.86,10.8,10.8v32.733c0,5.939-4.859,10.8-10.8,10.8h-2.438V259.924z
			"/>
		<path fill="#E9E9EA" d="M-550.594,259.924h-2.438c-5.94,0-10.801,4.86-10.801,10.8v32.733c0,5.939,4.86,10.8,10.801,10.8h2.438
			V259.924z"/>
		<path fill="#333333" d="M-469.25,259.924h-2.438h-78.907h-2.438c-5.94,0-10.801,4.86-10.801,10.8v5.699h13.238v54.5h78.907v-54.5
			h13.237v-5.699C-458.45,264.785-463.309,259.924-469.25,259.924z"/>
		<polygon fill="#B69FCC" points="-550.594,330.923 -550.594,347.59 -550.594,387.257 -521.805,387.257 -521.805,347.59 
			-500.477,347.59 -500.477,387.257 -471.687,387.257 -471.687,347.59 -471.687,330.923 		"/>
		<path d="M-536.2,401.652c7.949,0,14.395-6.444,14.395-14.395h-28.789C-550.594,395.208-544.15,401.652-536.2,401.652z"/>
		<path d="M-486.083,401.652c7.951,0,14.396-6.444,14.396-14.395h-28.79C-500.477,395.208-494.032,401.652-486.083,401.652z"/>
		<path fill="#B69FCC" d="M-536.2,372.863c-7.95,0-14.395,6.444-14.395,14.395h28.789
			C-521.805,379.307-528.25,372.863-536.2,372.863z"/>
		<path fill="#B69FCC" d="M-486.083,372.863c-7.949,0-14.395,6.444-14.395,14.395h28.79
			C-471.687,379.307-478.131,372.863-486.083,372.863z"/>
		<g>
			<g>
				<path fill="#B69FCC" d="M-534.862,278.44c1.531-0.451,2.301-0.659,3.847-1.036c0.162,0.665,0.243,0.998,0.405,1.663
					c-0.458,0.111-0.687,0.17-1.144,0.288c-0.075,1.263-1.27,7.85-1.243,8.558c-0.533,0.164-0.799,0.247-1.33,0.421
					c-0.389-0.593-5.553-5.688-5.986-6.255c-0.439,0.167-0.661,0.252-1.098,0.425c-0.252-0.637-0.377-0.954-0.629-1.591
					c1.645-0.651,2.474-0.953,4.142-1.515c0.218,0.648,0.327,0.972,0.545,1.62c-0.148,0.05-0.221,0.075-0.369,0.126
					c0.648,0.689,3.13,3.495,3.13,3.495c0.152-0.039,0.691-3.631,0.783-4.725c-0.228,0.065-0.341,0.099-0.569,0.166
					C-534.572,279.424-534.669,279.096-534.862,278.44z"/>
				<path fill="#B69FCC" d="M-516.363,280.844c-0.112,1.588-0.163,2.381-0.252,3.969c-3.276,0.242-4.912,0.455-8.153,1.06
					c-0.125-0.673-0.188-1.01-0.314-1.683c0.355-0.066,0.532-0.097,0.888-0.158c-0.424-2.433-0.635-3.65-1.059-6.083
					c-0.384,0.067-0.576,0.103-0.96,0.174c-0.125-0.673-0.188-1.008-0.313-1.681c3.424-0.639,5.151-0.869,8.609-1.149
					c0.5,1.267,0.742,1.9,1.212,3.174c-0.761,0.053-1.14,0.084-1.9,0.154c-0.244-0.665-0.527-1.512-1.678-1.383
					c-1,0.112-1.5,0.175-2.498,0.317c0.117,0.818,0.176,1.229,0.293,2.047c0.525-0.075,0.788-0.11,1.314-0.177
					c-0.035-0.276-0.052-0.414-0.087-0.69c0.753-0.095,1.13-0.14,1.885-0.217c0.126,1.23,0.189,1.85,0.315,3.08
					c-0.726,0.074-1.088,0.116-1.813,0.207c-0.034-0.271-0.054-0.407-0.088-0.679c-0.515,0.064-0.773,0.1-1.287,0.173
					c0.136,0.948,0.205,1.42,0.341,2.368c1.138-0.163,1.708-0.234,2.85-0.354c0.525-0.055,0.766-1.287,0.864-2.327
					C-517.462,280.92-517.096,280.893-516.363,280.844z"/>
				<path fill="#B69FCC" d="M-503.454,283.291c-0.069,0.687-0.103,1.03-0.172,1.717c-0.966-0.099-1.449-0.139-2.417-0.205
					c-0.351-0.188-1.036-0.752-0.971-1.954c0.037-0.684-0.441-2.09-1.907-2.31c-0.027,0.958-0.041,1.435-0.068,2.393
					c0.365,0.011,0.547,0.017,0.912,0.031c-0.027,0.689-0.041,1.035-0.068,1.725c-1.61-0.065-2.416-0.075-4.026-0.053
					c-0.01-0.689-0.015-1.037-0.025-1.727c0.428-0.006,0.642-0.006,1.07-0.006c0-2.47,0.001-3.705,0.002-6.174
					c-0.462,0-0.695,0.001-1.157,0.008c-0.009-0.685-0.013-1.024-0.022-1.709c1.901-0.026,2.851-0.013,4.751,0.068
					c2.531,0.108,3.188,1.734,3.088,2.948c-0.084,1.022-1.07,1.938-1.1,2.14c-0.041,0.281,0.789,1.623,0.706,2.634
					c-0.028,0.341,0.341,0.374,0.341,0.374C-504.091,283.228-503.879,283.248-503.454,283.291z M-508.106,278.853
					c0.886,0.033,1.333-0.446,1.361-0.966c0.028-0.519-0.327-1.063-1.082-1.093c-0.394-0.016-0.592-0.024-0.986-0.035
					c-0.023,0.826-0.036,1.24-0.059,2.066C-508.566,278.834-508.413,278.841-508.106,278.853z"/>
				<path fill="#B69FCC" d="M-489.527,282.833c-0.751,2.646-3.405,3.996-5.967,3.444c-1.638-0.353-2.461-0.507-4.113-0.766
					c0.106-0.682,0.16-1.022,0.267-1.704c0.339,0.053,0.508,0.082,0.847,0.139c0.407-2.419,0.612-3.624,1.021-6.043
					c-0.366-0.062-0.55-0.093-0.917-0.15c0.108-0.687,0.163-1.03,0.271-1.717c1.865,0.293,2.794,0.464,4.644,0.862
					C-490.364,277.568-488.775,280.186-489.527,282.833z M-496.183,284.373c0.292,0.059,0.438,0.087,0.73,0.148
					c2.09,0.44,3.182-0.836,3.555-2.322c0.376-1.5-0.245-3.243-2.291-3.675c-0.315-0.066-0.473-0.1-0.789-0.163
					C-495.461,280.765-495.702,281.967-496.183,284.373z"/>
				<path fill="#B69FCC" d="M-484.562,279.381c1.735,0.58,2.597,0.893,4.306,1.569c-0.252,0.637-0.378,0.954-0.63,1.591
					c-0.368-0.146-0.55-0.219-0.919-0.359c-0.879,2.301-1.319,3.453-2.198,5.754c0.341,0.131,0.51,0.197,0.85,0.332
					c-0.25,0.631-0.375,0.947-0.625,1.578c-1.514-0.6-2.277-0.878-3.814-1.392c0.215-0.644,0.322-0.967,0.537-1.61
					c0.345,0.115,0.518,0.172,0.862,0.291c0.808-2.327,1.213-3.486,2.021-5.813c-0.372-0.129-0.559-0.195-0.932-0.32
					C-484.887,280.352-484.778,280.031-484.562,279.381z"/>
			</g>
		</g>
	</g>
	<g>
		<path fill="#E9E9EA" d="M-434.106,194.292c-0.893,0-1.756,0.117-2.586,0.318c-8.77-28.624-38.908-49.725-74.753-49.725
			s-65.983,21.101-74.753,49.725c-0.83-0.201-1.693-0.318-2.586-0.318c-6.074,0-11,4.925-11,11c0,6.074,4.926,11,11,11
			c0.068,0,0.133-0.009,0.199-0.01c2.715,33.828,36.201,49.416,77.14,49.416c40.938,0,74.425-15.588,77.14-49.416
			c0.066,0.001,0.131,0.01,0.199,0.01c6.074,0,11-4.926,11-11C-423.106,199.217-428.032,194.292-434.106,194.292z"/>
		<path fill="none" stroke="#000000" stroke-width="3" stroke-linecap="round" stroke-miterlimit="10" d="M-511.445,196.927
			c0,0,0.812,8.269,4.312,12.573l-4.312,3.555"/>
		<g>
			<path fill="#FFFFFF" d="M-498.873,232.77c0,6.346-4.351,12.827-12.827,12.827s-12.318-7.812-12.318-12.917
				c2.218,2.538,6.267,4.654,12.506,4.654C-505.507,237.334-501.318,235.093-498.873,232.77z"/>
			<path fill="none" stroke="#000000" stroke-width="3" stroke-linecap="round" stroke-miterlimit="10" d="M-524.018,232.68
				c2.218,2.538,6.267,4.654,12.506,4.654c6.005,0,10.194-2.241,12.64-4.564"/>
			<path fill="none" stroke="#000000" stroke-width="3" stroke-linecap="round" stroke-miterlimit="10" d="M-524.018,232.68
				c0,5.105,3.842,12.917,12.318,12.917s12.827-6.481,12.827-12.827"/>
		</g>
		<path fill="#E9E9EA" d="M-434.305,216.282c0.066,0.001,0.131,0.011,0.199,0.011c6.074,0,11-4.926,11-11c0-6.076-4.926-11-11-11
			c-0.893,0-1.756,0.117-2.586,0.318l-5.525,12.45L-434.305,216.282z"/>
		<path fill="#E9E9EA" d="M-588.583,216.282c-0.066,0.001-0.131,0.011-0.199,0.011c-6.074,0-11-4.926-11-11c0-6.076,4.926-11,11-11
			c0.893,0,1.756,0.117,2.586,0.318l5.525,12.45L-588.583,216.282z"/>
		<circle fill="#C4C4C3" cx="-557.312" cy="228.659" r="9.595"/>
		<circle fill="#C4C4C3" cx="-465.068" cy="228.659" r="9.595"/>
		<path fill="#604E75" d="M-588.883,162.288c-22.223,21.149-24.334,70.333-6,91.667c18.334,21.333,2.333,36.333-8,38
			c-10.333,1.666-19.334-9.334-19.334-9.334c0.396,3.443,1.352,6.446,2.728,9.068c-2.298-1.246-4.663-2.779-5.65-4.242
			c0,0,4.06,8.138,10.563,10.582c1.052,0.96,2.184,1.832,3.389,2.613c-4.779,3.223-11.028,3.232-11.028,3.232
			c21.871,4.82,29.543,3.684,32.228,2.422c0.044,0.001,0.088,0.002,0.131,0.003c-6.029,5.187-15.043,5.575-15.043,5.575
			c15.602-0.252,24.275-3.078,29.048-5.824c-3.5,4.729-7.381,7.491-7.381,7.491c6.907-1.829,11.89-7.023,15.076-11.569
			c0.249-0.113,0.495-0.229,0.737-0.348c-1.121,7.074-2.813,8.917-2.813,8.917c7.493-7.067,11.745-14.213,14.116-19.517
			c1.328-2.516,2.225-5.242,2.737-8.047c0.056-0.271,0.08-0.419,0.08-0.419s-0.004,0.002-0.005,0.002
			c2.012-11.918-2.79-25.031-10.526-28.589c-11.635-5.352-33.218-30.908-22.365-59.361c9.969-26.136,31.093-24.861,41.511-29.656
			c10.137-4.667,17.804-17.667,17.804-17.667C-540.55,132.621-566.044,140.552-588.883,162.288z"/>
		<path fill="#604E75" d="M-469.598,289.097c-0.075,12.131,5.55,21.568,17.363,32.11c0,0-1.79-4.335,3.293-7.784
			c0.05,0.024,0.098,0.05,0.147,0.074c2.565,4.865,9.68,11.211,29.393,10.377c0,0-5.979-0.935-10.978-5.67
			c5.228,1.792,15.366,3.506,31.978-0.363c0,0-9.593,0.265-8.694-6.748c13.529-8.509,9.918-19.139,9.918-19.139s-4,8.999-16,8.999
			s-31.332-16.667-16.666-52.333s12.495-75.284-14.373-98c-17.742-15-44.627-27-74.627-17.334c0,0-24.965,11-16.982,23.334
			s22.943-1.666,44.315,0c12.527,0.977,45.949,10.863,55.192,37.99c8.352,24.51-6.813,49.141-15.473,54.742
			C-458.681,253.811-469.548,276.978-469.598,289.097z"/>
		<path fill="none" stroke="#000000" stroke-width="3" stroke-linecap="round" stroke-miterlimit="10" d="M-564.318,195.535
			c0,2.075,1.561,5.25,5.006,5.25s5.214-2.635,5.214-5.213"/>
		<path fill="none" stroke="#000000" stroke-width="3" stroke-linecap="round" stroke-miterlimit="10" d="M-559.208,190.745
			c0,2.075,1.561,5.25,5.006,5.25c1.54,0,2.744-0.526,3.605-1.338"/>
		<path fill="none" stroke="#000000" stroke-width="3" stroke-linecap="round" stroke-miterlimit="10" d="M-459.292,190.745
			c0,2.075-1.561,5.25-5.006,5.25c-1.539,0-2.744-0.526-3.605-1.338"/>
		<path fill="none" stroke="#000000" stroke-width="3" stroke-linecap="round" stroke-miterlimit="10" d="M-464.48,195.535
			c0,2.075,1.561,5.25,5.006,5.25s5.214-2.635,5.214-5.213"/>
		<g>
			<circle cx="-549.598" cy="198.259" r="7.5"/>
			<circle fill="#FFFFFF" cx="-552.092" cy="196.216" r="3.03"/>
		</g>
		<g>
			<circle cx="-469.098" cy="198.259" r="7.5"/>
			<circle fill="#FFFFFF" cx="-471.592" cy="196.216" r="3.03"/>
		</g>
	</g>
</g>
<g>
	<path fill="#5B5C5C" d="M171.312,127.868c-0.768,1.443-2.671,1.934-4.253,1.094l0,0c-1.584-0.841-2.244-2.692-1.479-4.138
		l20.529-38.666c0.77-1.443,2.673-1.933,4.255-1.092l0,0c1.583,0.84,2.245,2.692,1.478,4.136L171.312,127.868z"/>
	<path fill="#B69FCC" d="M182.606,103.241c-0.405,0.765-1.415,1.025-2.256,0.579l0,0c-0.839-0.445-1.19-1.428-0.783-2.193
		l7.665-14.437c0.407-0.766,1.415-1.025,2.256-0.579l0,0c0.839,0.446,1.19,1.428,0.783,2.193L182.606,103.241z"/>
</g>
<path fill="#E9E9EA" d="M178.759,120.083l-5.384-2.774l-18.414,45.629c-1.789,12.504,10.039,9.621,11.879,5.843l14.705-29.894
	C185.343,131.169,184.091,122.707,178.759,120.083z"/>
<g>
	<path fill="#B69FCC" d="M480.996-89.297c0-33.343-32.459-60.373-72.5-60.373s-72.5,27.03-72.5,60.373
		c0,33.343,32.459,60.374,72.5,60.374c1.514,0,3.014-0.051,4.504-0.127c1.424,7.439-2.766,14.947-23.004,17.383
		c0,0,45,7.441,63.145-30.076C470.088-52.796,480.996-69.98,480.996-89.297z"/>
	
		<text transform="matrix(1 0 0 1 353.1846 -69.2515)" fill="#614F76" font-family="'Cubano-Regular'" font-size="55.7451" letter-spacing="11">!!!!</text>
</g>
</svg>
