<?xml version="1.0" encoding="utf-8"?>
<!-- Generator: Adobe Illustrator 15.0.0, SVG Export Plug-In . SVG Version: 6.00 Build 0)  -->
<!DOCTYPE svg PUBLIC "-//W3C//DTD SVG 1.1//EN" "http://www.w3.org/Graphics/SVG/1.1/DTD/svg11.dtd">
<svg version="1.1" id="Layer_1" xmlns="http://www.w3.org/2000/svg" xmlns:xlink="http://www.w3.org/1999/xlink" x="0px" y="0px"
	 width="526px" height="258px" viewBox="0 0 526 258" enable-background="new 0 0 526 258" xml:space="preserve">
<g>
	<g>
		<path fill="#E9E9EA" d="M-521.367,304.693h2.438c5.94,0,10.8,4.86,10.8,10.8v32.733c0,5.939-4.859,10.8-10.8,10.8h-2.438V304.693z
			"/>
		<path fill="#E9E9EA" d="M-600.274,304.693h-2.438c-5.94,0-10.801,4.86-10.801,10.8v32.733c0,5.939,4.86,10.8,10.801,10.8h2.438
			V304.693z"/>
		<path fill="#604E75" d="M-518.929,304.693h-2.438h-78.907h-2.438c-5.94,0-10.801,4.86-10.801,10.8v5.699h13.238v54.5h78.907v-54.5
			h13.237v-5.699C-508.129,309.554-512.989,304.693-518.929,304.693z"/>
		<polygon fill="#5B5C5C" points="-600.274,375.692 -600.274,392.359 -600.274,432.026 -571.485,432.026 -571.485,392.359 
			-550.157,392.359 -550.157,432.026 -521.367,432.026 -521.367,392.359 -521.367,375.692 		"/>
		<path d="M-585.879,446.421c7.949,0,14.395-6.444,14.395-14.395h-28.789C-600.274,439.977-593.83,446.421-585.879,446.421z"/>
		<path d="M-535.762,446.421c7.951,0,14.396-6.444,14.396-14.395h-28.79C-550.157,439.977-543.711,446.421-535.762,446.421z"/>
		<path fill="#5B5C5C" d="M-585.879,417.632c-7.95,0-14.395,6.444-14.395,14.395h28.789
			C-571.485,424.076-577.93,417.632-585.879,417.632z"/>
		<path fill="#5B5C5C" d="M-535.762,417.632c-7.949,0-14.395,6.444-14.395,14.395h28.79
			C-521.367,424.076-527.811,417.632-535.762,417.632z"/>
		<g>
			<g>
				<path fill="#B69FCC" d="M-579.777,323.555c0.692-0.213,1.112-0.066,1.253,0.42c1.805,6.228,2.705,9.341,4.509,15.568
					c0.134,0.463-0.041,0.803-0.544,0.958c-1.107,0.341-1.657,0.526-2.747,0.937c-0.471,0.178-0.844,0.028-1.021-0.419
					c-2.387-6.029-3.579-9.043-5.967-15.072c-0.187-0.472,0.093-0.854,0.74-1.098C-582.055,324.284-581.3,324.023-579.777,323.555z"
					/>
				<path fill="#B69FCC" d="M-570.438,321.419c0.71-0.108,1.1,0.096,1.168,0.598c0.533,3.936,0.798,5.906,1.332,9.842
					c0.262,1.934,0.559,3.05,2.638,2.86s2.166-1.344,2.073-3.293c-0.188-3.967-0.282-5.953-0.47-9.92
					c-0.024-0.506,0.357-0.776,1.038-0.798c1.604-0.05,2.407-0.05,4.011,0c0.715,0.022,1.06,0.294,1.036,0.8
					c-0.214,4.504-0.32,6.756-0.533,11.26c-0.079,1.67-0.668,5.734-6.759,6.289c-6.091,0.555-7.426-3.329-7.807-4.957
					c-1.027-4.39-1.541-6.585-2.567-10.975c-0.115-0.493,0.212-0.833,0.881-0.978C-572.823,321.807-572.029,321.661-570.438,321.419
					z"/>
				<path fill="#B69FCC" d="M-545.364,322.501c6.239,1.512,7.922,4.529,6.393,8.392s-4.182,4.655-9.253,3.426
					c-0.547-0.133-0.822-0.194-1.372-0.313c-0.543-0.116-0.909,0.072-1.006,0.569c-0.313,1.591-0.469,2.385-0.782,3.976
					c-0.098,0.497-0.402,0.696-0.917,0.604c-1.153-0.207-1.733-0.296-2.893-0.431c-0.492-0.058-0.75-0.36-0.702-0.84
					c0.641-6.443,0.96-9.663,1.603-16.106c0.05-0.504,0.432-0.724,1.148-0.666C-550.011,321.476-548.448,321.754-545.364,322.501z
					 M-547.014,330.13c1.479,0.363,2.252,0.444,2.687-1.064s-0.296-1.895-1.865-2.28c-0.706-0.174-1.061-0.256-1.771-0.408
					c-0.624-0.134-1.035,0.048-1.133,0.545c-0.148,0.756-0.223,1.131-0.371,1.887c-0.093,0.473,0.195,0.813,0.783,0.938
					C-548.014,329.891-547.68,329.966-547.014,330.13z"/>
			</g>
		</g>
	</g>
	<g>
		<path fill="#E9E9EA" d="M-483.786,240.062c-0.893,0-1.756,0.118-2.586,0.318c-8.77-28.624-38.908-49.726-74.753-49.726
			s-65.983,21.102-74.753,49.726c-0.83-0.2-1.693-0.318-2.586-0.318c-6.074,0-11,4.925-11,11s4.926,11,11,11
			c0.068,0,0.133-0.009,0.199-0.011c2.715,33.829,36.201,49.417,77.14,49.417c40.938,0,74.425-15.588,77.14-49.417
			c0.066,0.002,0.131,0.011,0.199,0.011c6.074,0,11-4.925,11-11S-477.711,240.062-483.786,240.062z"/>
		<path fill="none" stroke="#000000" stroke-width="3" stroke-linecap="round" stroke-miterlimit="10" d="M-561.125,242.697
			c0,0,0.812,8.268,4.312,12.572l-4.312,3.555"/>
		<path fill="none" stroke="#000000" stroke-width="3" stroke-linecap="round" stroke-miterlimit="10" d="M-573.393,265.532
			c0,5.106,3.842,12.917,12.318,12.917s12.827-6.482,12.827-12.827"/>
		<path fill="#604E75" d="M-610.456,319.771c4.591-11.506-4.857-20.418-10.387-24.648c-8.191-6.268-23.824-30.232-15.473-54.742
			c9.243-27.128,42.665-37.013,55.192-37.99c21.372-1.667,36.333,12.333,44.315,0s-16.982-23.333-16.982-23.333
			c-30-9.668-56.885,2.333-74.627,17.333c-26.868,22.716-31.902,63.65-14.373,98c5.55,10.875,8.467,16.334-1.2,21.167
			c0,0-5.5,3.833-7.5,0.667c0,0-0.167,4.333,7,5c0,0-1.333,3.05-4.333,2.107c0,0,3.812,1.742,6.771,0.434
			c0,0-0.375,1.813-2.75,1.875C-647.388,325.708-617.188,336.644-610.456,319.771z"/>
		<path fill="#604E75" d="M-510.602,323.057c-10.229-10.833-3.265-19.167,1.801-23.315c9.908-8.114,33.218-30.908,22.365-59.361
			c-9.969-26.136-31.093-24.86-41.511-29.657c-10.137-4.666-17.804-17.666-17.804-17.666c13.667-14.666,39.161-6.734,62,15
			c22.223,21.148,20.735,67.705,6,91.667c-5.739,9.333-2.333,15.333,8,17c0,0,5.095,1.76,7.095-0.537s-1.333,4.37-5.5,4.37
			s-1.499,1.499,2.167,1.833c0,0-2.927,1.5-6.797,1.334c0,0-1.037,0.666,0.963,1.5
			C-471.823,325.224-501.387,332.815-510.602,323.057z"/>
		<path fill="#E9E9EA" d="M-483.985,262.051c0.066,0.002,0.131,0.01,0.199,0.01c6.074,0,11-4.925,11-11c0-6.074-4.926-11-11-11
			c-0.893,0-1.756,0.118-2.586,0.318l-5.525,12.451L-483.985,262.051z"/>
		<path fill="#E9E9EA" d="M-638.263,262.051c-0.066,0.002-0.131,0.01-0.199,0.01c-6.074,0-11-4.925-11-11c0-6.074,4.926-11,11-11
			c0.893,0,1.756,0.118,2.586,0.318l5.525,12.451L-638.263,262.051z"/>
		<circle fill="#C4C4C3" cx="-606.992" cy="274.428" r="9.595"/>
		<circle fill="#C4C4C3" cx="-514.748" cy="274.428" r="9.595"/>
		<path fill="none" stroke="#000000" stroke-width="3" stroke-linecap="round" stroke-miterlimit="10" d="M-613.998,243.483
			c0,2.075,1.561,5.25,5.006,5.25s5.214-2.635,5.214-5.213"/>
		<path fill="none" stroke="#000000" stroke-width="3" stroke-linecap="round" stroke-miterlimit="10" d="M-608.888,238.693
			c0,2.075,1.561,5.25,5.006,5.25c1.54,0,2.744-0.526,3.605-1.338"/>
		<path fill="none" stroke="#000000" stroke-width="3" stroke-linecap="round" stroke-miterlimit="10" d="M-508.972,238.693
			c0,2.075-1.561,5.25-5.006,5.25c-1.539,0-2.744-0.526-3.605-1.338"/>
		<path fill="none" stroke="#000000" stroke-width="3" stroke-linecap="round" stroke-miterlimit="10" d="M-514.16,243.483
			c0,2.075,1.561,5.25,5.006,5.25s5.214-2.635,5.214-5.213"/>
		<g>
			<circle cx="-599.278" cy="246.208" r="7.5"/>
			<circle fill="#FFFFFF" cx="-601.772" cy="244.165" r="3.03"/>
		</g>
		<g>
			<circle cx="-518.778" cy="246.208" r="7.5"/>
			<circle fill="#FFFFFF" cx="-521.272" cy="244.165" r="3.03"/>
		</g>
	</g>
</g>
<g>
	<g>
		<path fill="#E9E9EA" d="M-282.444,11.774h2.438c5.94,0,10.801,4.86,10.801,10.8v32.733c0,5.939-4.86,10.8-10.801,10.8h-2.438
			V11.774z"/>
		<path fill="#E9E9EA" d="M-361.351,11.774h-2.438c-5.939,0-10.8,4.86-10.8,10.8v32.733c0,5.939,4.86,10.8,10.8,10.8h2.438V11.774z"
			/>
		<path fill="#5B5C5C" d="M-280.006,11.774h-2.438h-78.907h-2.438c-5.939,0-10.8,4.86-10.8,10.8v5.699h13.237v54.5h78.907v-54.5
			h13.238v-5.699C-269.206,16.635-274.066,11.774-280.006,11.774z"/>
		<polygon fill="#604E75" points="-361.351,82.773 -361.351,99.44 -361.351,139.107 -332.561,139.107 -332.561,99.44 
			-311.233,99.44 -311.233,139.107 -282.444,139.107 -282.444,99.44 -282.444,82.773 		"/>
		<path d="M-346.957,153.502c7.95,0,14.396-6.444,14.396-14.395h-28.79C-361.351,147.058-354.906,153.502-346.957,153.502z"/>
		<path d="M-296.838,153.502c7.95,0,14.395-6.444,14.395-14.395h-28.789C-311.233,147.058-304.788,153.502-296.838,153.502z"/>
		<path fill="#604E75" d="M-346.957,124.713c-7.949,0-14.395,6.444-14.395,14.395h28.79
			C-332.561,131.157-339.006,124.713-346.957,124.713z"/>
		<path fill="#604E75" d="M-296.838,124.713c-7.949,0-14.395,6.444-14.395,14.395h28.789
			C-282.444,131.157-288.888,124.713-296.838,124.713z"/>
		<g>
			<g>
				<path fill="#E9E9EA" d="M-355.237,33.856c1.461-0.578,2.197-0.851,3.675-1.364c0.197,0.567,0.295,0.85,0.492,1.417
					c-0.319,0.111-0.479,0.167-0.798,0.281c0.727,2.033,1.089,3.048,1.816,5.081c0.299-0.107,0.45-0.16,0.75-0.264
					c0.195,0.562,0.292,0.844,0.487,1.406c-1.343,0.466-2.011,0.713-3.338,1.239c-0.219-0.553-0.329-0.83-0.548-1.383
					c0.296-0.118,0.446-0.175,0.743-0.29c-0.776-2.015-1.162-3.021-1.938-5.036c-0.316,0.122-0.476,0.183-0.791,0.308
					C-354.906,34.693-355.016,34.415-355.237,33.856z"/>
				<path fill="#E9E9EA" d="M-343.584,30.101c1.383-0.343,2.078-0.5,3.471-0.788c0.122,0.587,0.182,0.879,0.304,1.467
					c-0.328,0.068-0.493,0.103-0.82,0.174c0.584,2.701,0.877,4.051,1.461,6.752c-0.48,0.104-0.719,0.157-1.198,0.269
					c-2.036-1.685-3.101-2.498-5.319-4.052c0.41,1.444,0.616,2.167,1.025,3.611c0.157-0.044,0.917-0.254,0.917-0.254
					c0.157,0.579,0.236,0.868,0.394,1.446c-1.25,0.339-1.873,0.521-3.113,0.911c-0.18-0.572-0.269-0.858-0.449-1.43
					c0.36-0.113,0.539-0.168,0.9-0.277c-0.625-2.071-0.936-3.106-1.561-5.178c-0.384,0.116-0.576,0.174-0.959,0.294
					c-0.18-0.572-0.27-0.858-0.449-1.431c1.163-0.365,1.747-0.538,2.918-0.863c1.862,1.351,2.762,2.049,4.499,3.488
					c-0.275-1.167-0.414-1.75-0.689-2.917c-0.389,0.092-0.583,0.139-0.971,0.235C-343.368,30.974-343.44,30.683-343.584,30.101z"/>
				<path fill="#E9E9EA" d="M-328.759,31.911c0.198,2.403-1.544,4.327-3.813,4.63c-1.451,0.193-2.176,0.307-3.619,0.564
					c-0.106-0.595-0.159-0.893-0.265-1.488c0.295-0.053,0.442-0.078,0.738-0.128c-0.359-2.119-0.537-3.179-0.896-5.298
					c-0.314,0.053-0.471,0.081-0.785,0.137c-0.107-0.6-0.161-0.899-0.268-1.499c1.59-0.284,2.387-0.408,3.985-0.621
					C-330.997,27.851-328.957,29.509-328.759,31.911z M-333.7,35.172c0.257-0.037,0.387-0.054,0.644-0.089
					c1.84-0.251,2.343-1.638,2.2-2.974c-0.144-1.347-1.154-2.592-2.928-2.35c-0.273,0.037-0.41,0.056-0.683,0.096
					C-334.159,31.982-334.008,33.044-333.7,35.172z"/>
				<path fill="#E9E9EA" d="M-327.204,27.615c1.541-0.094,2.313-0.125,3.856-0.154c0.011,0.6,0.018,0.899,0.029,1.499
					c-0.333,0.006-0.501,0.011-0.834,0.021c0.061,2.158,0.091,3.235,0.152,5.393c0.313-0.009,0.47-0.013,0.784-0.019
					c0.011,0.595,0.017,0.893,0.028,1.488c-1.401,0.026-2.103,0.054-3.503,0.14c-0.037-0.594-0.054-0.891-0.09-1.484
					c0.313-0.019,0.47-0.029,0.783-0.045c-0.112-2.155-0.167-3.233-0.28-5.389c-0.333,0.017-0.5,0.027-0.833,0.047
					C-327.148,28.513-327.167,28.214-327.204,27.615z"/>
				<path fill="#E9E9EA" d="M-315.416,27.644c0,0,2.488,6.832,2.62,7.135c0.372,0.039,0.556,0.059,0.927,0.102
					c-0.069,0.596-0.103,0.894-0.172,1.489c-1.399-0.163-2.102-0.229-3.506-0.332c0.043-0.593,0.066-0.889,0.11-1.482
					c0.184,0.014,0.275,0.021,0.458,0.035c-0.125-0.311-0.228-0.619-0.368-0.943c-0.993-0.073-1.49-0.103-2.484-0.146
					c-0.157,0.358-0.235,0.537-0.389,0.896c0.184,0.007,0.276,0.011,0.46,0.02c-0.027,0.594-0.041,0.891-0.068,1.485
					c-1.215-0.056-1.824-0.072-3.04-0.083c0.005-0.6,0.009-0.9,0.015-1.5c0.373,0.003,0.559,0.007,0.932,0.015
					c0.316-0.894,3.296-6.764,3.296-6.764c0.494,0.027,0.742,0.042,1.236,0.076C-315.398,27.646-315.405,27.645-315.416,27.644z
					 M-315.796,32.113c-0.256-0.686-0.389-1.027-0.657-1.711c-0.325,0.649-0.484,0.973-0.799,1.625
					C-316.669,32.057-316.378,32.074-315.796,32.113z"/>
				<path fill="#E9E9EA" d="M-303.315,29.273c1.393,0.285,2.087,0.439,3.471,0.779c-0.143,0.583-0.214,0.874-0.357,1.456
					c-0.326-0.08-0.488-0.118-0.815-0.195c-0.634,2.69-0.951,4.034-1.585,6.724c-0.479-0.113-0.717-0.167-1.197-0.273
					c-1.113-2.396-1.723-3.588-3.046-5.944c-0.251,1.48-0.375,2.22-0.627,3.701c0.16,0.027,0.934,0.166,0.934,0.166
					c-0.107,0.59-0.161,0.884-0.268,1.474c-1.269-0.23-1.904-0.333-3.18-0.513c0.084-0.594,0.126-0.89,0.21-1.484
					c0.37,0.052,0.554,0.079,0.924,0.135c0.327-2.139,0.49-3.207,0.817-5.346c-0.394-0.06-0.589-0.089-0.983-0.145
					c0.084-0.594,0.126-0.89,0.21-1.483c1.196,0.169,1.793,0.264,2.985,0.473c1.093,2.019,1.604,3.037,2.551,5.082
					c0.253-1.172,0.378-1.759,0.632-2.931c-0.39-0.084-0.585-0.125-0.976-0.205C-303.496,30.155-303.436,29.861-303.315,29.273z"/>
				<path fill="#E9E9EA" d="M-292.151,32.316c0,0,0.684,7.259,0.735,7.587c0.354,0.136,0.532,0.204,0.885,0.343
					c-0.221,0.558-0.332,0.837-0.552,1.395c-1.332-0.527-2.002-0.776-3.35-1.244c0.195-0.562,0.293-0.844,0.488-1.406
					c0.176,0.061,0.264,0.093,0.44,0.155c-0.043-0.333-0.064-0.658-0.118-1.008c-0.954-0.331-1.431-0.49-2.392-0.792
					c-0.245,0.305-0.368,0.459-0.61,0.766c0.178,0.055,0.267,0.082,0.444,0.138c-0.179,0.567-0.27,0.851-0.449,1.418
					c-1.173-0.371-1.764-0.544-2.947-0.871c0.159-0.578,0.24-0.867,0.399-1.445c0.363,0.1,0.545,0.151,0.907,0.255
					c0.538-0.782,4.957-5.679,4.957-5.679c0.477,0.155,0.713,0.235,1.188,0.397C-292.136,32.323-292.141,32.32-292.151,32.316z
					 M-293.672,36.538c-0.075-0.729-0.114-1.095-0.201-1.826c-0.485,0.542-0.725,0.814-1.2,1.362
					C-294.511,36.254-294.231,36.348-293.672,36.538z"/>
			</g>
		</g>
	</g>
	<g>
		<path fill="#E9E9EA" d="M-244.872-51.857c-0.893,0-1.756,0.118-2.586,0.318c-8.77-28.624-38.908-49.725-74.753-49.725
			c-35.846,0-65.984,21.101-74.752,49.725c-0.831-0.201-1.693-0.318-2.586-0.318c-6.076,0-11,4.925-11,11c0,6.075,4.924,11,11,11
			c0.066,0,0.132-0.009,0.199-0.01c2.713,33.829,36.201,49.417,77.139,49.417s74.425-15.588,77.14-49.417
			c0.066,0.001,0.131,0.01,0.199,0.01c6.074,0,11-4.925,11-11C-233.872-46.933-238.797-51.857-244.872-51.857z"/>
		<g>
			<circle cx="-362.953" cy="-44.149" r="7.5"/>
			<circle fill="#FFFFFF" cx="-365.447" cy="-46.192" r="3.029"/>
		</g>
		<g>
			<circle cx="-282.453" cy="-44.149" r="7.5"/>
			<circle fill="#FFFFFF" cx="-284.947" cy="-46.192" r="3.03"/>
		</g>
		<path fill="none" stroke="#000000" stroke-width="3" stroke-linecap="round" stroke-miterlimit="10" d="M-322.21-49.222
			c0,0,0.812,8.268,4.312,12.573l-4.312,3.555"/>
		<path fill="none" stroke="#000000" stroke-width="3" stroke-linecap="round" stroke-miterlimit="10" d="M-334.479-26.387
			c0,5.106,3.842,12.917,12.318,12.917s12.827-6.482,12.827-12.827"/>
		<path fill="#B69FCC" d="M-270.396-89.593L-270.396-89.593C-270.396-89.593-270.396-89.594-270.396-89.593
			c-1.28-0.946-2.444-1.776-3.42-2.501c-1.853-1.379-4.369-2.847-7.429-4.276c-16.112-12.402-23.727-29.564-23.727-29.564
			c-3,9.667-8.751,6.667-8.751,6.667c-2.751-1-3.083-6-3.083-6c-0.5,3.5-4,6.5-6.666,4.167c-2.667-2.333-4-11.5-4-11.5
			s-1.5,18-8.334,16.833c-6.833-1.167-6.166-5.167-6.166-5.167c-0.968,10.89-16.194,21.368-24.47,26.295
			c-1.881,0.93-3.637,1.909-5.25,2.928c-0.002,0-0.012,0.005-0.012,0.005h0.002c-2.631,1.663-4.881,3.431-6.615,5.279
			c-10.324,11.001-19.127,25.778-18.646,34.889c0,0,2.813,3.335,2.813,7.39h5.5c0,0,0.5-26.445,16-36.445
			c0,0,25.348-10.674,48.515-9.841c23.166,0.833,50.819,8.674,50.819,8.674c19.667,12.667,17.667,37.612,17.667,37.612h5.332
			c0.166-4.055,2.859-7.39,2.859-7.39C-249.253-72.726-262.265-83.589-270.396-89.593z"/>
	</g>
</g>
<g>
	<g>
		<path fill="#E9E9EA" d="M-744.058,304.693h2.438c5.939,0,10.8,4.86,10.8,10.8v32.733c0,5.939-4.86,10.8-10.8,10.8h-2.438V304.693z
			"/>
		<path fill="#E9E9EA" d="M-822.966,304.693h-2.438c-5.94,0-10.8,4.86-10.8,10.8v32.733c0,5.939,4.859,10.8,10.8,10.8h2.438V304.693
			z"/>
		<path fill="#B69FCC" d="M-741.621,304.693h-2.438h-78.908h-2.438c-5.94,0-10.8,4.86-10.8,10.8v5.699h13.237v54.5h78.908v-54.5
			h13.237v-5.699C-730.821,309.554-735.681,304.693-741.621,304.693z"/>
		<polygon fill="#C4C4C3" points="-822.966,375.692 -822.966,392.359 -822.966,432.026 -794.176,432.026 -794.176,392.359 
			-772.848,392.359 -772.848,432.026 -744.058,432.026 -744.058,392.359 -744.058,375.692 		"/>
		<path d="M-808.572,446.421c7.95,0,14.396-6.444,14.396-14.395h-28.79C-822.966,439.977-816.522,446.421-808.572,446.421z"/>
		<path d="M-758.454,446.421c7.95,0,14.396-6.444,14.396-14.395h-28.79C-772.848,439.977-766.403,446.421-758.454,446.421z"/>
		<path fill="#C4C4C3" d="M-808.572,417.632c-7.95,0-14.395,6.444-14.395,14.395h28.79
			C-794.176,424.076-800.622,417.632-808.572,417.632z"/>
		<path fill="#C4C4C3" d="M-758.454,417.632c-7.949,0-14.395,6.444-14.395,14.395h28.79
			C-744.058,424.076-750.503,417.632-758.454,417.632z"/>
		<g>
			<g>
				<path fill="#5B5C5C" d="M-809.667,328.918c0.005,1.075-0.328,2.529-2.474,3.265c-2.124,0.728-4.295-0.306-5.158-2.482
					c-0.926-2.339,0.151-4.519,2.486-5.318c0.799-0.273,1.463-0.328,1.833-0.276c-0.054-0.168-0.081-0.254-0.135-0.422
					c0.628-0.201,0.943-0.299,1.574-0.488c0.373,1.24,0.56,1.86,0.932,3.1c-0.608,0.183-0.913,0.278-1.519,0.473
					c-0.055-0.172-0.083-0.259-0.138-0.431c-0.177-0.552-0.978-0.921-2.066-0.548c-0.762,0.261-1.616,1.2-0.909,3.126
					c0.659,1.795,1.906,2.119,2.623,1.874c1.172-0.401,1.433-1.561,1.387-1.704C-810.605,329.012-810.291,328.979-809.667,328.918z"
					/>
				<path fill="#5B5C5C" d="M-800.373,327.551c0.104,0.575,0.158,0.86,0.262,1.436c-0.802,0.146-1.204,0.223-2.003,0.389
					c-0.327-0.074-1.007-0.378-1.226-1.375c-0.124-0.566-0.824-1.606-2.049-1.469c0.189,0.789,0.285,1.186,0.474,1.976
					c0.297-0.071,0.447-0.107,0.745-0.176c0.131,0.569,0.196,0.854,0.327,1.423c-1.323,0.304-1.981,0.469-3.294,0.827
					c-0.154-0.563-0.231-0.846-0.386-1.409c0.347-0.095,0.52-0.14,0.867-0.23c-0.53-2.023-0.795-3.033-1.326-5.057
					c-0.369,0.097-0.552,0.144-0.92,0.244c-0.153-0.56-0.229-0.839-0.382-1.398c1.506-0.412,2.261-0.602,3.78-0.947
					c2.023-0.461,2.908,0.71,3.107,1.723c0.168,0.854-0.406,1.817-0.383,1.993c0.032,0.243,1.002,1.147,1.168,1.989
					c0.056,0.284,0.361,0.227,0.361,0.227C-800.899,327.647-800.724,327.615-800.373,327.551z M-805.108,324.978
					c0.715-0.166,0.963-0.657,0.869-1.088s-0.499-0.795-1.104-0.655c-0.316,0.073-0.474,0.109-0.79,0.185
					c0.163,0.681,0.244,1.021,0.407,1.702C-805.479,325.063-805.355,325.035-805.108,324.978z"/>
				<path fill="#5B5C5C" d="M-799.149,320.606c1.458-0.225,2.188-0.323,3.651-0.489c0.065,0.576,0.097,0.866,0.163,1.442
					c-0.316,0.036-0.475,0.051-0.791,0.09c0.253,2.072,0.381,3.109,0.634,5.181c0.297-0.036,0.446-0.054,0.744-0.088
					c0.065,0.571,0.097,0.856,0.162,1.428c-1.333,0.151-1.999,0.24-3.326,0.445c-0.088-0.568-0.131-0.853-0.219-1.421
					c0.297-0.046,0.445-0.066,0.742-0.109c-0.3-2.065-0.451-3.1-0.751-5.165c-0.315,0.046-0.473,0.069-0.788,0.118
					C-799.017,321.465-799.061,321.18-799.149,320.606z"/>
				<path fill="#5B5C5C" d="M-784.462,319.517c1.024,0.009,1.536,0.021,2.561,0.059c-0.021,0.579-0.031,0.869-0.052,1.448
					c-0.378-0.014-0.567-0.021-0.946-0.031c-0.055,2.092-0.082,3.138-0.137,5.229c0.356,0.009,0.535,0.017,0.891,0.029
					c-0.021,0.579-0.032,0.867-0.054,1.446c-1.339-0.049-2.007-0.06-3.347-0.055c-0.002-0.58-0.004-0.868-0.006-1.448
					c0.233-0.001,0.35-0.001,0.583,0c0.003-1.049,0.004-1.574,0.008-2.622c-0.798,1.625-1.179,2.443-1.902,4.086
					c-0.354,0.007-0.532,0.011-0.887,0.021c0,0-1.74-2.984-2.417-4.097c0.062,1.098,0.093,1.648,0.155,2.746
					c0.237-0.014,0.354-0.02,0.592-0.031c0.029,0.579,0.042,0.867,0.071,1.446c-1.166,0.058-1.747,0.097-2.91,0.195
					c-0.049-0.577-0.073-0.864-0.123-1.442c0.36-0.03,0.54-0.046,0.9-0.072c-0.155-2.087-0.233-3.129-0.388-5.216
					c-0.382,0.028-0.573,0.044-0.956,0.076c-0.049-0.578-0.073-0.866-0.122-1.444c0.96-0.082,1.442-0.116,2.404-0.172
					c1.404,2.069,2.068,3.118,3.323,5.237C-786.185,322.733-785.633,321.654-784.462,319.517z"/>
				<path fill="#5B5C5C" d="M-773.132,326.187c-0.329,2.295-2.647,1.992-3.379,1.915c-0.731-0.077-1.565-0.441-1.824-1.045
					c-0.029,0.347-0.042,0.521-0.071,0.867c-0.582-0.048-0.873-0.069-1.455-0.107c0.086-1.333,0.129-1.999,0.216-3.332
					c0.605,0.039,0.909,0.063,1.514,0.113c-0.024,0.291-0.036,0.437-0.06,0.728c-0.048,0.578,0.65,1.216,1.537,1.307
					c0.745,0.076,1.655-0.121,1.707-0.548c0.088-0.726-0.486-0.962-1.803-1.501c-1.006-0.412-2.679-0.958-2.573-2.555
					c0.086-1.295,1.587-2.234,3.348-2.055c1.123,0.114,1.542,0.615,1.641,1.071c0.042-0.35,0.063-0.526,0.106-0.876
					c0.642,0.078,0.963,0.118,1.604,0.208c-0.153,1.094-0.229,1.641-0.381,2.734c-0.622-0.087-0.932-0.125-1.555-0.201
					c0.007-0.056,0.011-0.085,0.018-0.141c0.052-0.426-0.323-1.216-1.579-1.344c-0.477-0.049-1.132,0.184-1.171,0.623
					c-0.038,0.427,0.437,0.637,1.463,1.021C-774.664,323.506-772.842,324.166-773.132,326.187z"/>
				<path fill="#5B5C5C" d="M-762.944,326.495c-0.795,3.004-3.098,3.482-4.874,3.101c-1.901-0.408-3.646-1.896-3.159-4.824
					c0.465-2.803,2.818-3.776,4.911-3.327C-764.112,321.864-762.178,323.603-762.944,326.495z M-765.084,325.958
					c0.381-1.602-0.18-2.81-1.296-3.049c-1.265-0.271-2.258,0.604-2.566,2.222c-0.304,1.594,0.251,2.758,1.44,3.014
					C-766.456,328.37-765.459,327.537-765.084,325.958z"/>
				<path fill="#5B5C5C" d="M-754.88,324.716c1.289,0.455,1.932,0.694,3.207,1.199c-0.213,0.539-0.32,0.809-0.534,1.348
					c-0.3-0.119-0.452-0.178-0.753-0.294c-0.961,2.494-1.441,3.739-2.402,6.231c-0.443-0.171-0.665-0.254-1.109-0.418
					c-0.746-2.441-1.168-3.66-2.111-6.091c-0.439,1.384-0.659,2.073-1.098,3.457c0.149,0.047,0.869,0.283,0.869,0.283
					c-0.181,0.551-0.273,0.825-0.454,1.376c-1.181-0.389-1.773-0.571-2.964-0.915c0.161-0.557,0.241-0.836,0.401-1.393
					c0.346,0.1,0.519,0.15,0.863,0.254c0.601-2.004,0.901-3.004,1.502-5.008c-0.366-0.109-0.549-0.166-0.916-0.271
					c0.161-0.558,0.24-0.833,0.4-1.391c1.113,0.321,1.668,0.488,2.773,0.846c0.768,2.077,1.119,3.117,1.751,5.199
					c0.398-1.089,0.597-1.632,0.995-2.722c-0.361-0.132-0.543-0.198-0.905-0.326C-755.169,325.534-755.073,325.263-754.88,324.716z"
					/>
			</g>
		</g>
		<g>
			<g>
				<path fill="#5B5C5C" d="M-805.333,342.077c1.414,0.45,2.125,0.655,3.556,1.025c-0.15,0.58-0.226,0.871-0.376,1.451
					c-0.307-0.079-0.46-0.119-0.767-0.202c-0.565,2.084-0.849,3.124-1.414,5.208c0.331,0.09,0.498,0.136,0.829,0.222
					c-0.15,0.581-0.226,0.869-0.376,1.45c-1.608-0.417-2.408-0.647-3.997-1.153c0.182-0.571,0.272-0.857,0.455-1.429
					c0.395,0.126,0.592,0.187,0.988,0.307c0.244-0.804,0.365-1.206,0.608-2.01c-1.149-0.349-1.721-0.532-2.858-0.93
					c-0.277,0.793-0.416,1.188-0.692,1.98c0.392,0.137,0.589,0.206,0.982,0.337c-0.189,0.569-0.285,0.85-0.475,1.419
					c-1.583-0.528-2.37-0.814-3.929-1.432c0.221-0.558,0.331-0.835,0.551-1.393c0.321,0.127,0.482,0.19,0.804,0.313
					c0.771-2.017,1.157-3.026,1.928-5.043c-0.299-0.114-0.447-0.172-0.745-0.29c0.221-0.558,0.331-0.837,0.551-1.395
					c1.388,0.55,2.088,0.807,3.497,1.276c-0.189,0.569-0.285,0.852-0.475,1.421c-0.365-0.122-0.548-0.184-0.912-0.311
					c-0.237,0.68-0.354,1.019-0.592,1.698c1.114,0.389,1.673,0.571,2.799,0.912c0.209-0.688,0.313-1.032,0.522-1.721
					c-0.367-0.111-0.551-0.17-0.917-0.286C-805.607,342.934-805.515,342.648-805.333,342.077z"/>
				<path fill="#5B5C5C" d="M-794.676,344.543c0,0,2.183,6.918,2.329,7.223c0.402,0.041,0.604,0.061,1.007,0.096
					c-0.053,0.598-0.079,0.897-0.131,1.495c-1.577-0.139-2.365-0.229-3.935-0.449c0.083-0.589,0.125-0.885,0.208-1.474
					c0.198,0.027,0.297,0.042,0.495,0.068c-0.121-0.318-0.213-0.632-0.341-0.966c-1.045-0.146-1.568-0.23-2.609-0.415
					c-0.211,0.333-0.317,0.498-0.532,0.83c0.197,0.036,0.295,0.054,0.492,0.088c-0.103,0.586-0.154,0.88-0.256,1.466
					c-1.353-0.237-2.026-0.37-3.37-0.669c0.13-0.585,0.194-0.881,0.325-1.466c0.396,0.088,0.595,0.133,0.993,0.216
					c0.501-0.815,4.237-6.214,4.237-6.214c0.445,0.073,0.668,0.107,1.114,0.173C-794.661,344.544-794.667,344.544-794.676,344.543z
					 M-795.407,348.968c-0.207-0.705-0.307-1.057-0.499-1.763c-0.382,0.614-0.578,0.919-0.973,1.528
					C-796.291,348.833-795.996,348.881-795.407,348.968z"/>
				<path fill="#5B5C5C" d="M-782.376,345.206c1.221-0.045,1.831-0.08,3.049-0.18c0.049,0.603,0.074,0.902,0.123,1.505
					c-0.314,0.025-0.471,0.038-0.785,0.061c-0.149,0.011-0.14,0.141-0.14,0.141c-0.755,2.768-1.18,4.148-2.119,6.894
					c-0.555,0.019-0.832,0.026-1.387,0.035c-0.648-1.736-0.955-2.608-1.532-4.356c-0.655,1.743-1.002,2.609-1.735,4.337
					c-0.483-0.013-0.725-0.022-1.208-0.043c-0.847-2.683-1.227-4.03-1.906-6.731c0.013-0.168-0.127-0.31-0.289-0.322
					c-0.314-0.025-0.472-0.038-0.785-0.066c0.055-0.602,0.082-0.905,0.137-1.507c1.466,0.133,2.201,0.181,3.671,0.234
					c-0.022,0.604-0.033,0.907-0.055,1.511c-0.25-0.009-0.375-0.014-0.625-0.025c0.32,1.215,0.489,1.82,0.842,3.032
					c0.714-1.782,1.049-2.677,1.681-4.475c0.425,0.004,0.638,0.003,1.063,0c0.627,1.8,0.961,2.696,1.671,4.48
					c0.355-1.211,0.525-1.815,0.848-3.03c-0.185,0.008-0.278,0.009-0.463,0.016C-782.343,346.111-782.354,345.81-782.376,345.206z"
					/>
				<path fill="#5B5C5C" d="M-767.731,350.181c0.333-0.078,0.499-0.12,0.831-0.202c0.143,0.577,0.215,0.865,0.358,1.442
					c-1.611,0.399-2.421,0.578-4.047,0.889c-0.111-0.584-0.167-0.878-0.278-1.462c-1.127-0.825-1.675-1.246-2.742-2.112
					c0.16,1.01,0.239,1.515,0.398,2.524c0.336-0.053,0.503-0.083,0.839-0.14c0.1,0.587,0.15,0.879,0.25,1.466
					c-1.56,0.265-2.343,0.379-3.911,0.562c-0.069-0.591-0.103-0.889-0.172-1.479c0.338-0.039,0.506-0.06,0.844-0.103
					c-0.275-2.151-0.414-3.224-0.689-5.374c-0.313,0.04-0.469,0.06-0.782,0.096c-0.069-0.591-0.103-0.889-0.171-1.479
					c1.395-0.162,2.09-0.264,3.478-0.499c0.1,0.587,0.149,0.882,0.249,1.469c-0.312,0.053-0.466,0.078-0.778,0.127
					c0.084,0.535,0.126,0.803,0.211,1.338c0.842-0.856,1.249-1.29,2.039-2.171c-0.08-0.415-0.12-0.621-0.2-1.036
					c1.205-0.233,1.805-0.365,3.001-0.653c0.139,0.578,0.208,0.868,0.348,1.446c-0.372,0.09-0.558,0.135-0.931,0.219
					c-0.221,0.05-0.331,0.224-0.662,0.624c-0.242,0.292-1.033,1.28-1.585,1.835c1.238,0.989,1.879,1.471,3.197,2.404
					C-768.376,350.098-768.061,350.259-767.731,350.181z"/>
				<path fill="#5B5C5C" d="M-757.751,346.094c0.883,2.23-1.729,3.212-2.56,3.495c-0.83,0.283-1.902,0.311-2.42-0.157
					c0.106,0.344,0.16,0.514,0.266,0.857c-0.664,0.204-0.997,0.305-1.664,0.494c-0.376-1.329-0.564-1.995-0.941-3.324
					c0.636-0.181,0.954-0.274,1.587-0.47c0.089,0.289,0.134,0.435,0.223,0.724c0.176,0.573,1.173,0.893,2.143,0.567
					c0.814-0.273,1.658-0.908,1.506-1.326c-0.259-0.71-0.947-0.623-2.489-0.557c-1.179,0.051-3.052,0.149-3.507-1.442
					c-0.369-1.291,0.668-2.69,2.286-3.234c1.032-0.347,1.615-0.081,1.913,0.296c-0.125-0.343-0.186-0.513-0.311-0.855
					c0.587-0.214,0.879-0.325,1.463-0.553c0.416,1.063,0.624,1.596,1.039,2.659c-0.608,0.237-0.913,0.354-1.525,0.576
					c-0.02-0.055-0.031-0.083-0.051-0.138c-0.152-0.417-0.848-0.953-2.046-0.551c-0.456,0.153-0.967,0.63-0.829,1.064
					c0.134,0.423,0.668,0.442,1.81,0.349C-760.561,344.461-758.528,344.131-757.751,346.094z"/>
			</g>
		</g>
	</g>
	<g>
		<path fill="#E9E9EA" d="M-706.487,239.861c-0.893,0-1.755,0.117-2.586,0.318c-8.769-28.625-38.907-49.726-74.753-49.726
			c-35.845,0-65.983,21.101-74.753,49.726c-0.83-0.201-1.693-0.318-2.586-0.318c-6.074,0-11,4.924-11,11c0,6.074,4.926,11,11,11
			c0.068,0,0.133-0.01,0.199-0.011c2.715,33.828,36.201,49.416,77.14,49.416c40.938,0,74.426-15.588,77.14-49.416
			c0.067,0.001,0.132,0.011,0.199,0.011c6.075,0,11-4.926,11-11C-695.487,244.785-700.412,239.861-706.487,239.861z"/>
		<g>
			<circle cx="-824.568" cy="247.568" r="7.5"/>
			<circle fill="#FFFFFF" cx="-827.062" cy="245.525" r="3.03"/>
		</g>
		<g>
			<circle cx="-744.068" cy="247.568" r="7.5"/>
			<circle fill="#FFFFFF" cx="-746.562" cy="245.525" r="3.03"/>
		</g>
		<path fill="none" stroke="#000000" stroke-width="3" stroke-linecap="round" stroke-miterlimit="10" d="M-783.826,242.496
			c0,0,0.812,8.268,4.312,12.572l-4.312,3.555"/>
		<path fill="none" stroke="#000000" stroke-width="3" stroke-linecap="round" stroke-miterlimit="10" d="M-796.094,265.332
			c0,5.105,3.842,12.916,12.318,12.916s12.827-6.481,12.827-12.826"/>
		<path fill="#604E75" d="M-783.522,166.855c-11.729,23.599-36.259,25.295-44.533,30.223c-1.883,0.93-3.639,1.908-5.252,2.928
			l-0.01,0.005h0.002c-2.632,1.663-4.881,3.431-6.616,5.279c-10.324,11.001-19.127,25.778-18.647,34.89c0,0,2.814,3.334,2.814,7.389
			h5.5c0,0,0.5-26.445,16-36.445c0,0,25.348-10.674,48.514-9.84c23.167,0.833,50.819,8.674,50.819,8.674
			c19.667,12.667,17.667,37.611,17.667,37.611h5.333c0.166-4.055,2.858-7.389,2.858-7.389
			c-1.796-21.188-14.808-32.051-22.938-38.055h0.001c-0.001,0-0.001,0-0.001,0c-1.28-0.946-2.444-1.775-3.42-2.502
			c-1.853-1.379-4.369-2.846-7.428-4.275C-774.083,188.022-783.522,166.855-783.522,166.855z"/>
	</g>
</g>
<g>
	<polygon fill="#C5B6D8" points="757.859,-218.917 774.14,-193.526 800.934,-207.374 802.337,-177.246 832.468,-175.842 
		818.617,-149.047 844.008,-132.767 818.617,-116.487 832.468,-89.693 802.337,-88.289 800.934,-58.161 774.14,-72.008 
		757.859,-46.618 741.579,-72.008 714.786,-58.161 713.382,-88.289 683.251,-89.693 697.103,-116.487 671.711,-132.767 
		697.103,-149.047 683.251,-175.842 713.382,-177.246 714.786,-207.374 741.579,-193.526 	"/>
	<circle fill="#B69FCC" cx="757.859" cy="-132.767" r="59.967"/>
</g>
<g>
	<g>
		<path fill="#E9E9EA" d="M-292.027,307.198h2.438c5.94,0,10.8,4.86,10.8,10.8v32.733c0,5.939-4.859,10.8-10.8,10.8h-2.438V307.198z
			"/>
		<path fill="#E9E9EA" d="M-370.934,307.198h-2.438c-5.94,0-10.801,4.86-10.801,10.8v32.733c0,5.939,4.86,10.8,10.801,10.8h2.438
			V307.198z"/>
		<path fill="#333333" d="M-289.589,307.198h-2.438h-78.907h-2.438c-5.94,0-10.801,4.86-10.801,10.8v5.699h13.238v54.5h78.907v-54.5
			h13.237v-5.699C-278.79,312.059-283.649,307.198-289.589,307.198z"/>
		<polygon fill="#B69FCC" points="-370.934,378.197 -370.934,394.864 -370.934,434.531 -342.145,434.531 -342.145,394.864 
			-320.817,394.864 -320.817,434.531 -292.027,434.531 -292.027,394.864 -292.027,378.197 		"/>
		<path d="M-356.54,448.926c7.949,0,14.395-6.444,14.395-14.395h-28.789C-370.934,442.481-364.49,448.926-356.54,448.926z"/>
		<path d="M-306.422,448.926c7.951,0,14.396-6.444,14.396-14.395h-28.79C-320.817,442.481-314.372,448.926-306.422,448.926z"/>
		<path fill="#B69FCC" d="M-356.54,420.137c-7.95,0-14.395,6.444-14.395,14.395h28.789
			C-342.145,426.581-348.59,420.137-356.54,420.137z"/>
		<path fill="#B69FCC" d="M-306.422,420.137c-7.949,0-14.395,6.444-14.395,14.395h28.79
			C-292.027,426.581-298.471,420.137-306.422,420.137z"/>
		<g>
			<g>
				<path fill="#B69FCC" d="M-355.202,325.714c1.531-0.451,2.302-0.657,3.848-1.034c0.162,0.665,0.243,0.994,0.405,1.659
					c-0.458,0.112-0.688,0.171-1.145,0.289c-0.075,1.263-1.269,7.851-1.243,8.559c-0.533,0.164-0.799,0.249-1.33,0.423
					c-0.389-0.593-5.553-5.691-5.986-6.259c-0.439,0.167-0.661,0.254-1.098,0.427c-0.252-0.637-0.377-0.954-0.629-1.591
					c1.645-0.651,2.473-0.953,4.142-1.515c0.218,0.648,0.327,0.974,0.545,1.622c-0.148,0.05-0.222,0.073-0.369,0.124
					c0.648,0.689,3.132,3.494,3.132,3.494c0.152-0.039,0.689-3.63,0.781-4.724c-0.228,0.065-0.341,0.101-0.569,0.168
					C-354.912,326.7-355.009,326.37-355.202,325.714z"/>
				<path fill="#B69FCC" d="M-336.703,328.117c-0.112,1.588-0.163,2.382-0.252,3.97c-3.276,0.242-4.912,0.455-8.154,1.06
					c-0.125-0.673-0.188-1.008-0.313-1.681c0.355-0.066,0.532-0.101,0.888-0.162c-0.424-2.433-0.635-3.648-1.059-6.081
					c-0.384,0.067-0.576,0.103-0.96,0.174c-0.125-0.673-0.188-1.009-0.313-1.682c3.424-0.639,5.151-0.868,8.609-1.148
					c0.5,1.267,0.742,1.9,1.212,3.174c-0.761,0.053-1.141,0.084-1.9,0.154c-0.244-0.665-0.527-1.512-1.677-1.383
					c-1,0.112-1.5,0.177-2.498,0.319c0.117,0.818,0.176,1.226,0.293,2.044c0.525-0.075,0.788-0.108,1.314-0.175
					c-0.035-0.276-0.052-0.413-0.087-0.689c0.753-0.095,1.129-0.14,1.884-0.217c0.126,1.23,0.19,1.846,0.316,3.076
					c-0.726,0.074-1.087,0.118-1.812,0.209c-0.034-0.271-0.055-0.408-0.089-0.68c-0.515,0.064-0.773,0.099-1.287,0.172
					c0.136,0.948,0.205,1.424,0.34,2.372c1.138-0.163,1.708-0.234,2.849-0.354c0.525-0.055,0.766-1.288,0.865-2.328
					C-337.802,328.195-337.436,328.166-336.703,328.117z"/>
				<path fill="#B69FCC" d="M-323.792,330.566c-0.069,0.687-0.104,1.028-0.173,1.715c-0.966-0.099-1.449-0.141-2.417-0.207
					c-0.351-0.188-1.036-0.748-0.971-1.95c0.037-0.684-0.442-2.094-1.907-2.313c-0.027,0.958-0.042,1.438-0.068,2.396
					c0.365,0.011,0.547,0.017,0.912,0.031c-0.028,0.689-0.041,1.033-0.068,1.723c-1.61-0.065-2.416-0.077-4.026-0.055
					c-0.01-0.689-0.015-1.033-0.024-1.723c0.428-0.006,0.642-0.008,1.069-0.008c0-2.469,0.002-3.703,0.003-6.172
					c-0.462,0-0.694-0.001-1.157,0.006c-0.009-0.685-0.014-1.026-0.023-1.711c1.901-0.026,2.851-0.011,4.751,0.07
					c2.531,0.108,3.188,1.736,3.087,2.95c-0.084,1.022-1.068,1.938-1.097,2.14c-0.041,0.281,0.787,1.623,0.704,2.634
					c-0.028,0.341,0.341,0.372,0.341,0.372C-324.432,330.502-324.218,330.523-323.792,330.566z M-328.446,326.125
					c0.886,0.033,1.333-0.442,1.361-0.962c0.028-0.519-0.328-1.064-1.083-1.095c-0.394-0.016-0.591-0.022-0.986-0.033
					c-0.023,0.826-0.035,1.24-0.059,2.066C-328.905,326.11-328.753,326.113-328.446,326.125z"/>
				<path fill="#B69FCC" d="M-309.867,330.105c-0.751,2.646-3.404,3.997-5.966,3.445c-1.638-0.353-2.462-0.507-4.113-0.766
					c0.106-0.682,0.16-1.021,0.267-1.702c0.339,0.053,0.509,0.079,0.848,0.136c0.407-2.419,0.61-3.626,1.019-6.045
					c-0.366-0.062-0.55-0.09-0.917-0.147c0.108-0.687,0.164-1.032,0.272-1.719c1.865,0.293,2.794,0.466,4.644,0.864
					C-310.704,324.842-309.115,327.459-309.867,330.105z M-316.523,331.645c0.292,0.059,0.438,0.089,0.73,0.15
					c2.09,0.44,3.182-0.839,3.555-2.325c0.376-1.5-0.245-3.24-2.291-3.672c-0.315-0.066-0.473-0.098-0.789-0.161
					C-315.801,328.041-316.042,329.239-316.523,331.645z"/>
				<path fill="#B69FCC" d="M-304.901,326.653c1.735,0.579,2.597,0.895,4.306,1.571c-0.252,0.637-0.377,0.954-0.629,1.591
					c-0.368-0.146-0.551-0.217-0.92-0.357c-0.879,2.301-1.318,3.451-2.198,5.752c0.341,0.131,0.51,0.195,0.851,0.33
					c-0.25,0.631-0.375,0.949-0.625,1.58c-1.514-0.6-2.277-0.878-3.814-1.392c0.215-0.644,0.322-0.967,0.537-1.61
					c0.345,0.115,0.517,0.174,0.861,0.293c0.808-2.327,1.212-3.49,2.021-5.817c-0.372-0.129-0.557-0.191-0.93-0.316
					C-305.227,327.628-305.118,327.303-304.901,326.653z"/>
			</g>
		</g>
	</g>
	<g>
		<path fill="#E9E9EA" d="M-254.446,241.566c-0.893,0-1.756,0.117-2.586,0.318c-8.77-28.624-38.908-49.725-74.753-49.725
			s-65.983,21.101-74.753,49.725c-0.83-0.201-1.693-0.318-2.586-0.318c-6.074,0-11,4.925-11,11c0,6.074,4.926,11,11,11
			c0.068,0,0.133-0.009,0.199-0.01c2.715,33.828,36.201,49.416,77.14,49.416c40.938,0,74.425-15.588,77.14-49.416
			c0.066,0.001,0.131,0.01,0.199,0.01c6.074,0,11-4.926,11-11C-243.446,246.491-248.372,241.566-254.446,241.566z"/>
		<path fill="none" stroke="#000000" stroke-width="3" stroke-linecap="round" stroke-miterlimit="10" d="M-331.785,244.201
			c0,0,0.812,8.269,4.312,12.573l-4.312,3.555"/>
		<g>
			<path fill="#FFFFFF" d="M-319.212,280.044c0,6.346-4.351,12.827-12.827,12.827s-12.318-7.812-12.318-12.917
				c2.218,2.538,6.267,4.654,12.506,4.654C-325.847,284.608-321.658,282.367-319.212,280.044z"/>
			<path fill="none" stroke="#000000" stroke-width="3" stroke-linecap="round" stroke-miterlimit="10" d="M-344.358,279.954
				c2.218,2.538,6.267,4.654,12.506,4.654c6.005,0,10.194-2.241,12.64-4.564"/>
			<path fill="none" stroke="#000000" stroke-width="3" stroke-linecap="round" stroke-miterlimit="10" d="M-344.358,279.954
				c0,5.105,3.842,12.917,12.318,12.917s12.827-6.481,12.827-12.827"/>
		</g>
		<path fill="#E9E9EA" d="M-254.645,263.556c0.066,0.001,0.131,0.011,0.199,0.011c6.074,0,11-4.926,11-11c0-6.076-4.926-11-11-11
			c-0.893,0-1.756,0.117-2.586,0.318l-5.525,12.45L-254.645,263.556z"/>
		<path fill="#E9E9EA" d="M-408.923,263.556c-0.066,0.001-0.131,0.011-0.199,0.011c-6.074,0-11-4.926-11-11c0-6.076,4.926-11,11-11
			c0.893,0,1.756,0.117,2.586,0.318l5.525,12.45L-408.923,263.556z"/>
		<circle fill="#C4C4C3" cx="-377.652" cy="275.933" r="9.595"/>
		<circle fill="#C4C4C3" cx="-285.408" cy="275.933" r="9.595"/>
		<path fill="#604E75" d="M-409.223,209.562c-22.223,21.149-24.334,70.333-6,91.667c18.334,21.333,2.333,36.333-8,38
			c-10.333,1.666-19.334-9.334-19.334-9.334c0.396,3.443,1.352,6.446,2.728,9.068c-2.298-1.246-4.663-2.779-5.65-4.242
			c0,0,4.06,8.138,10.563,10.582c1.052,0.96,2.184,1.832,3.389,2.613c-4.779,3.223-11.028,3.232-11.028,3.232
			c21.871,4.82,29.543,3.684,32.228,2.422c0.044,0.001,0.088,0.002,0.131,0.003c-6.029,5.187-15.043,5.575-15.043,5.575
			c15.602-0.252,24.275-3.078,29.048-5.824c-3.5,4.729-7.381,7.491-7.381,7.491c6.907-1.829,11.89-7.023,15.076-11.569
			c0.249-0.113,0.495-0.229,0.737-0.348c-1.121,7.074-2.813,8.917-2.813,8.917c7.493-7.067,11.745-14.213,14.116-19.517
			c1.328-2.516,2.225-5.242,2.737-8.047c0.056-0.271,0.08-0.419,0.08-0.419s-0.004,0.002-0.005,0.002
			c2.012-11.918-2.79-25.031-10.526-28.589c-11.635-5.352-33.218-30.908-22.365-59.361c9.969-26.136,31.093-24.861,41.511-29.656
			c10.137-4.667,17.804-17.667,17.804-17.667C-360.89,179.895-386.384,187.826-409.223,209.562z"/>
		<path fill="#604E75" d="M-289.938,336.371c-0.075,12.131,5.55,21.568,17.363,32.11c0,0-1.79-4.335,3.293-7.784
			c0.05,0.024,0.098,0.05,0.147,0.074c2.565,4.865,9.68,11.211,29.393,10.377c0,0-5.979-0.935-10.978-5.67
			c5.228,1.792,15.366,3.506,31.978-0.363c0,0-9.593,0.265-8.694-6.748c13.529-8.509,9.918-19.139,9.918-19.139s-4,8.999-16,8.999
			s-31.332-16.667-16.666-52.333s12.495-75.284-14.373-98c-17.742-15-44.627-27-74.627-17.334c0,0-24.965,11-16.982,23.334
			s22.943-1.666,44.315,0c12.527,0.977,45.949,10.863,55.192,37.99c8.352,24.51-6.813,49.141-15.473,54.742
			C-279.021,301.085-289.888,324.252-289.938,336.371z"/>
		<path fill="none" stroke="#000000" stroke-width="3" stroke-linecap="round" stroke-miterlimit="10" d="M-384.658,242.809
			c0,2.075,1.561,5.25,5.006,5.25s5.214-2.635,5.214-5.213"/>
		<path fill="none" stroke="#000000" stroke-width="3" stroke-linecap="round" stroke-miterlimit="10" d="M-379.548,238.019
			c0,2.075,1.561,5.25,5.006,5.25c1.54,0,2.744-0.526,3.605-1.338"/>
		<path fill="none" stroke="#000000" stroke-width="3" stroke-linecap="round" stroke-miterlimit="10" d="M-279.632,238.019
			c0,2.075-1.561,5.25-5.006,5.25c-1.539,0-2.744-0.526-3.605-1.338"/>
		<path fill="none" stroke="#000000" stroke-width="3" stroke-linecap="round" stroke-miterlimit="10" d="M-284.82,242.809
			c0,2.075,1.561,5.25,5.006,5.25s5.214-2.635,5.214-5.213"/>
		<g>
			<circle cx="-369.938" cy="245.533" r="7.5"/>
			<circle fill="#FFFFFF" cx="-372.432" cy="243.49" r="3.03"/>
		</g>
		<g>
			<circle cx="-289.438" cy="245.533" r="7.5"/>
			<circle fill="#FFFFFF" cx="-291.932" cy="243.49" r="3.03"/>
		</g>
	</g>
</g>
<path fill="#786B89" d="M519,32.456c-10.257-4.949-17.258-13.638-21.547-26.825c-8.43,22.665-26.169,31.971-48.834,31.971
	c-25.949,0-41.496-9.416-48.833-31.971c-8.43,22.665-25.872,31.971-48.537,31.971c-25.949,0-41.2-9.416-48.537-31.971
	c-8.43,22.665-26.169,31.971-48.833,31.971c-25.95,0-41.497-9.416-48.834-31.971c-8.43,22.665-25.872,31.971-48.537,31.971
	c-25.949,0-41.2-9.416-48.537-31.971c-8.43,22.665-26.169,31.971-48.833,31.971v129.407H519V32.456z"/>
<radialGradient id="SVGID_1_" cx="263.666" cy="96.8306" r="189.3491" gradientUnits="userSpaceOnUse">
	<stop  offset="0" style="stop-color:#604E75"/>
	<stop  offset="1" style="stop-color:#604E75"/>
</radialGradient>
<path fill="url(#SVGID_1_)" d="M519,43.658c-7.004,3.043-15.014,4.455-23.814,4.455c-25.949,0-41.2-9.416-48.537-31.971
	c-8.43,22.665-26.169,31.971-48.833,31.971c-25.949,0-41.497-9.416-48.834-31.971c-8.43,22.665-25.872,31.971-48.537,31.971
	c-25.949,0-41.2-9.416-48.537-31.971c-8.43,22.665-26.169,31.971-48.833,31.971c-25.949,0-41.497-9.416-48.834-31.971
	c-8.43,22.665-25.872,31.971-48.537,31.971c-25.949,0-41.2-9.416-48.537-31.971c-8.43,22.665-26.168,31.971-48.833,31.971V177.52
	H519V43.658z"/>
<path fill="#C4C4C3" d="M235.199,97.969C383.231,79.837,396.369,74.931,519,75.367v50.814v127.544H8.333V126.181v-24.972
	C8.333,101.209,87.167,116.1,235.199,97.969z"/>
<g>
	<path fill="#E9E9EA" d="M911.154,84.116h2.438c5.939,0,10.8,4.86,10.8,10.8v32.733c0,5.939-4.86,10.8-10.8,10.8h-2.438V84.116z"/>
	<path fill="#E9E9EA" d="M832.246,84.116h-2.438c-5.939,0-10.799,4.86-10.799,10.8v32.733c0,5.939,4.859,10.8,10.799,10.8h2.438
		V84.116z"/>
	<path fill="#5B5C5C" d="M913.592,84.116h-2.438h-78.908h-2.438c-5.939,0-10.799,4.86-10.799,10.8v5.699h13.236v54.5h78.908v-54.5
		h13.237v-5.699C924.392,88.976,919.531,84.116,913.592,84.116z"/>
	<polygon fill="#B69FCC" points="832.246,155.115 832.246,171.782 832.246,211.449 861.036,211.449 861.036,171.782 
		882.365,171.782 882.365,211.449 911.154,211.449 911.154,171.782 911.154,155.115 	"/>
	<path d="M846.641,225.844c7.951,0,14.396-6.445,14.396-14.395h-28.79C832.246,219.398,838.691,225.844,846.641,225.844z"/>
	<path d="M896.76,225.844c7.949,0,14.395-6.445,14.395-14.395h-28.789C882.365,219.398,888.81,225.844,896.76,225.844z"/>
	<path fill="#B69FCC" d="M846.641,197.055c-7.949,0-14.395,6.443-14.395,14.395h28.79
		C861.036,203.498,854.592,197.055,846.641,197.055z"/>
	<path fill="#B69FCC" d="M896.76,197.055c-7.95,0-14.395,6.443-14.395,14.395h28.789
		C911.154,203.498,904.709,197.055,896.76,197.055z"/>
	<g>
		<path fill="#E9E9EA" d="M948.734,20.734c-0.893,0-1.754,0.118-2.586,0.318c-8.768-28.624-38.906-49.725-74.752-49.725
			s-65.984,21.101-74.752,49.725c-0.831-0.201-1.693-0.318-2.586-0.318c-6.076,0-11,4.925-11,11c0,6.075,4.924,11,11,11
			c0.066,0,0.132-0.009,0.199-0.01c2.713,33.829,36.201,49.417,77.139,49.417s74.426-15.588,77.139-49.417
			c0.068,0.001,0.133,0.01,0.199,0.01c6.076,0,11-4.925,11-11C959.734,25.659,954.811,20.734,948.734,20.734z"/>
		<path fill="#B69FCC" d="M946.148,21.052c-2.078-24.524-19.191-35.222-26.357-40.556s-24.171-11.994-44.658-12.637
			c-22.176-0.696-49.676,7.471-59.842,18.304c-10.324,11.001-19.127,25.778-18.646,34.889c0,0,2.813,3.335,2.813,7.39h1.119
			l-1.119,4.611c0,0-0.111,21.259,16.043,42.471v-7.191l5.5,7.191c0,0,1.283,4.188,25.642,0v-7.191L850,75.523c0,0,34.5,4.739,53,0
			l3-4.646v6.753l5.154-7.599v7.599L920,70.877c0,0,4.5,2.817,13-0.846c0,0,10.352-14.154,10.291-36.979l-1.083-4.611h1.083
			C943.457,24.387,946.148,21.052,946.148,21.052z"/>
	</g>
</g>
<g>
	<path fill="#E9E9EA" d="M1037.045,86.93h2.438c5.939,0,10.799,4.86,10.799,10.8v32.733c0,5.939-4.859,10.8-10.799,10.8h-2.438
		V86.93z"/>
	<path fill="#E9E9EA" d="M958.137,86.93h-2.438c-5.939,0-10.801,4.86-10.801,10.8v32.733c0,5.939,4.861,10.8,10.801,10.8h2.438
		V86.93z"/>
	<path fill="#333333" d="M1039.482,86.93h-2.438h-78.908h-2.438c-5.939,0-10.801,4.86-10.801,10.8v5.699h13.238v54.5h78.908v-54.5
		h13.236v-5.699C1050.281,91.79,1045.422,86.93,1039.482,86.93z"/>
	<polygon fill="#B69FCC" points="958.137,157.929 958.137,174.596 958.137,214.263 986.926,214.263 986.926,174.596 
		1008.254,174.596 1008.254,214.263 1037.045,214.263 1037.045,174.596 1037.045,157.929 	"/>
	<path d="M972.531,228.657c7.949,0,14.395-6.444,14.395-14.395h-28.789C958.137,222.213,964.582,228.657,972.531,228.657z"/>
	<path d="M1022.648,228.657c7.951,0,14.396-6.444,14.396-14.395h-28.791C1008.254,222.213,1014.699,228.657,1022.648,228.657z"/>
	<path fill="#B69FCC" d="M972.531,199.868c-7.949,0-14.395,6.444-14.395,14.395h28.789
		C986.926,206.313,980.48,199.868,972.531,199.868z"/>
	<path fill="#B69FCC" d="M1022.648,199.868c-7.949,0-14.395,6.444-14.395,14.395h28.791
		C1037.045,206.313,1030.6,199.868,1022.648,199.868z"/>
	<g>
		<path fill="#604E75" d="M1101.348,103.035c0,0-3.637,8.182-14.546,8.182s-28.484-15.153-15.151-47.578
			c8.184-19.903,10.588-41.154,5.585-59.38l-0.001-0.043l-0.013-0.012c-3.152-11.444-9.22-21.696-18.639-29.659
			c-16.13-13.637-40.571-24.547-67.845-15.758c0,0-7.768,3.427-12.761,8.515c-13.05-6.99-32.89,0.697-50.913,17.85
			c-20.203,19.227-22.123,63.942-5.455,83.337c16.668,19.395,2.121,33.032-7.273,34.547c-9.394,1.515-17.576-8.485-17.576-8.485
			c1.758,15.297,15.35,21.298,29.09,21.521l-0.008,0.019c0,0,0.115-0.004,0.321-0.013c2.198,0.021,4.394-0.104,6.546-0.363
			c0.852-0.056,1.764-0.12,2.728-0.192c-4.191,7.426-7.056,9.017-8.501,9.248c11.435,1.023,26.733-3.394,36.965-7.015
			c-1.83,5-3.348,6.415-4.202,6.786c16.376-1.794,25.921-8.651,31.314-14.854l0.163-0.112c1.871,6.071,5.689,14.591,12.773,17.039
			c0,0-2.445-4.873-2.127-9.573c6.099,4.875,14.312,9.042,24.854,9.531c0,0-6.359-4.706-9.247-11.549
			c9.68,7.491,25.842,16.882,46.066,16.882c0,0-3.325-0.181-5.742-5.894c3.72,0.541,7.521,0.753,11.336,0.486l-0.002-0.007
			c4.903,0.307,10.064-0.327,15.29-2.24C1105.894,116.369,1101.348,103.035,1101.348,103.035z"/>
		<path fill="#604E75" d="M959.698,124.54c-0.254,0.028-0.494,0.065-0.751,0.09C958.947,124.63,959.219,124.748,959.698,124.54z"/>
		<path fill="#604E75" d="M926.936,124.769c-0.365-0.032-0.735-0.06-1.094-0.104C925.842,124.665,926.213,124.885,926.936,124.769z"
			/>
	</g>
</g>
<line fill="none" stroke="#604E75" stroke-miterlimit="10" x1="8.333" y1="48.112" x2="8.333" y2="253.726"/>
<line fill="none" stroke="#604E75" stroke-miterlimit="10" x1="8.333" y1="253.726" x2="519" y2="253.726"/>
<line fill="none" stroke="#604E75" stroke-miterlimit="10" x1="519" y1="253.726" x2="519" y2="32.456"/>
</svg>
