<?xml version="1.0" encoding="utf-8"?>
<!-- Generator: Adobe Illustrator 15.0.0, SVG Export Plug-In . SVG Version: 6.00 Build 0)  -->
<!DOCTYPE svg PUBLIC "-//W3C//DTD SVG 1.1//EN" "http://www.w3.org/Graphics/SVG/1.1/DTD/svg11.dtd">
<svg version="1.1" id="Layer_1" xmlns="http://www.w3.org/2000/svg" xmlns:xlink="http://www.w3.org/1999/xlink" x="0px" y="0px"
	 width="393.955px" height="200px" viewBox="-144.164 -312.879 393.955 200" enable-background="new -144.164 -312.879 393.955 200"
	 xml:space="preserve">
<g>
	<path fill="#6D5D84" d="M54.247-308.714c-105.396,0-190.835,85.439-190.835,190.835h26.868c0-90.557,73.41-163.967,163.967-163.967
		c90.557,0,163.967,73.411,163.967,163.967h26.867C245.081-223.275,159.642-308.714,54.247-308.714z"/>
	<path fill="#B59ECB" d="M54.247-281.847c-90.557,0-163.967,73.411-163.967,163.967h32.232v0
		c0-72.755,58.979-131.735,131.734-131.735S185.98-190.635,185.98-117.88v0h32.233C218.214-208.436,144.804-281.847,54.247-281.847z
		"/>
	<path fill="#C4C3C3" d="M54.247-249.615c-72.755,0-131.734,58.979-131.734,131.735v0h29.725c0-1.761,0.044-3.511,0.133-5.25
		c2.732-53.899,47.299-96.761,101.877-96.761s99.144,42.862,101.876,96.761c0.089,1.738,0.133,3.489,0.133,5.25h29.725v0
		C185.98-190.635,127.002-249.615,54.247-249.615z"/>
</g>
<g>
	<g>
		<path fill="#E9E9EA" d="M-1299.367,353.916h2.438c5.939,0,10.8,4.861,10.8,10.801v32.732c0,5.939-4.859,10.801-10.8,10.801h-2.438
			V353.916z"/>
		<path fill="#E9E9EA" d="M-1378.274,353.916h-2.438c-5.94,0-10.801,4.861-10.801,10.801v32.732c0,5.939,4.86,10.801,10.801,10.801
			h2.438V353.916z"/>
		<path fill="#604E75" d="M-1296.929,353.916h-2.438h-78.907h-2.438c-5.94,0-10.801,4.861-10.801,10.801v5.699h13.238v54.5h78.907
			v-54.5h13.237v-5.699C-1286.129,358.777-1290.989,353.916-1296.929,353.916z"/>
		<polygon fill="#5B5C5C" points="-1378.274,424.916 -1378.274,441.582 -1378.274,481.25 -1349.485,481.25 -1349.485,441.582 
			-1328.157,441.582 -1328.157,481.25 -1299.367,481.25 -1299.367,441.582 -1299.367,424.916 		"/>
		<path d="M-1363.879,495.642c7.949,0,14.395-6.443,14.395-14.395h-28.789C-1378.274,489.199-1371.83,495.642-1363.879,495.642z"/>
		<path d="M-1313.762,495.642c7.951,0,14.396-6.443,14.396-14.395h-28.79C-1328.157,489.199-1321.711,495.642-1313.762,495.642z"/>
		<path fill="#5B5C5C" d="M-1363.879,466.853c-7.95,0-14.395,6.445-14.395,14.396h28.789
			C-1349.485,473.298-1355.93,466.853-1363.879,466.853z"/>
		<path fill="#5B5C5C" d="M-1313.762,466.853c-7.949,0-14.396,6.445-14.396,14.396h28.79
			C-1299.367,473.298-1305.811,466.853-1313.762,466.853z"/>
		<g>
			<g>
				<path fill="#B69FCC" d="M-1357.777,372.777c0.692-0.213,1.112-0.066,1.253,0.42c1.805,6.229,2.705,9.342,4.509,15.568
					c0.134,0.463-0.041,0.803-0.544,0.957c-1.107,0.342-1.657,0.527-2.747,0.938c-0.471,0.178-0.844,0.029-1.021-0.418
					c-2.387-6.029-3.579-9.043-5.967-15.072c-0.187-0.473,0.093-0.854,0.74-1.098
					C-1360.055,373.505-1359.3,373.246-1357.777,372.777z"/>
				<path fill="#B69FCC" d="M-1348.438,370.64c0.71-0.107,1.1,0.098,1.168,0.6c0.533,3.936,0.798,5.904,1.332,9.842
					c0.262,1.934,0.559,3.049,2.638,2.859c2.079-0.189,2.166-1.344,2.073-3.293c-0.188-3.967-0.282-5.953-0.47-9.92
					c-0.024-0.506,0.357-0.775,1.038-0.799c1.604-0.049,2.407-0.049,4.011,0c0.715,0.023,1.06,0.295,1.036,0.801
					c-0.214,4.504-0.32,6.756-0.533,11.26c-0.079,1.67-0.668,5.734-6.759,6.289c-6.091,0.555-7.426-3.328-7.807-4.957
					c-1.027-4.391-1.541-6.584-2.567-10.975c-0.115-0.494,0.212-0.834,0.881-0.979
					C-1350.823,371.029-1350.029,370.882-1348.438,370.64z"/>
				<path fill="#B69FCC" d="M-1323.364,371.722c6.239,1.514,7.922,4.529,6.393,8.393c-1.529,3.863-4.182,4.654-9.253,3.426
					c-0.547-0.133-0.822-0.193-1.372-0.313c-0.543-0.115-0.909,0.072-1.006,0.568c-0.313,1.592-0.469,2.385-0.782,3.977
					c-0.098,0.496-0.402,0.695-0.917,0.604c-1.153-0.207-1.733-0.295-2.893-0.43c-0.492-0.059-0.75-0.361-0.702-0.84
					c0.641-6.443,0.96-9.664,1.603-16.107c0.05-0.504,0.432-0.723,1.148-0.666C-1328.011,370.699-1326.448,370.976-1323.364,371.722
					z M-1325.014,379.351c1.479,0.363,2.252,0.445,2.687-1.063s-0.296-1.896-1.865-2.281c-0.706-0.174-1.061-0.256-1.771-0.408
					c-0.624-0.133-1.035,0.049-1.133,0.545c-0.148,0.758-0.223,1.133-0.371,1.889c-0.093,0.473,0.195,0.813,0.783,0.938
					C-1326.014,379.113-1325.68,379.187-1325.014,379.351z"/>
			</g>
		</g>
	</g>
	<g>
		<path fill="#E9E9EA" d="M-1261.786,289.285c-0.893,0-1.756,0.117-2.586,0.317c-8.77-28.624-38.908-49.726-74.753-49.726
			c-35.845,0-65.983,21.102-74.753,49.726c-0.83-0.2-1.693-0.317-2.586-0.317c-6.074,0-11,4.924-11,11c0,6.074,4.926,11,11,11
			c0.068,0,0.133-0.01,0.199-0.012c2.715,33.828,36.201,49.418,77.14,49.418c40.938,0,74.425-15.59,77.14-49.418
			c0.066,0.002,0.131,0.012,0.199,0.012c6.074,0,11-4.926,11-11C-1250.786,294.208-1255.711,289.285-1261.786,289.285z"/>
		<path fill="none" stroke="#000000" stroke-width="3" stroke-linecap="round" stroke-miterlimit="10" d="M-1339.125,291.919
			c0,0,0.812,8.268,4.312,12.572l-4.312,3.555"/>
		<path fill="none" stroke="#000000" stroke-width="3" stroke-linecap="round" stroke-miterlimit="10" d="M-1351.393,314.753
			c0,5.107,3.842,12.918,12.318,12.918c8.476,0,12.827-6.482,12.827-12.828"/>
		<path fill="#604E75" d="M-1388.456,368.994c4.591-11.506-4.857-20.418-10.387-24.648c-8.191-6.268-23.824-30.232-15.473-54.742
			c9.243-27.128,42.665-37.014,55.192-37.99c21.372-1.667,36.333,12.333,44.315,0s-16.982-23.333-16.982-23.333
			c-30-9.668-56.885,2.333-74.627,17.333c-26.868,22.717-31.902,63.65-14.373,98c5.55,10.875,8.467,16.334-1.2,21.168
			c0,0-5.5,3.832-7.5,0.666c0,0-0.167,4.334,7,5c0,0-1.333,3.051-4.333,2.107c0,0,3.812,1.742,6.771,0.434
			c0,0-0.375,1.813-2.75,1.875C-1425.388,374.929-1395.188,385.867-1388.456,368.994z"/>
		<path fill="#604E75" d="M-1288.602,372.279c-10.229-10.832-3.265-19.166,1.801-23.314c9.908-8.115,33.218-30.908,22.365-59.361
			c-9.969-26.137-31.093-24.859-41.511-29.657c-10.137-4.666-17.804-17.666-17.804-17.666c13.667-14.666,39.161-6.733,62,15
			c22.223,21.147,20.735,67.706,6,91.667c-5.739,9.334-2.333,15.334,8,17c0,0,5.095,1.76,7.095-0.537s-1.333,4.371-5.5,4.371
			s-1.499,1.498,2.167,1.832c0,0-2.927,1.5-6.797,1.334c0,0-1.037,0.666,0.963,1.5
			C-1249.823,374.447-1279.387,382.039-1288.602,372.279z"/>
		<path fill="#E9E9EA" d="M-1261.985,311.273c0.066,0.002,0.131,0.01,0.199,0.01c6.074,0,11-4.924,11-11c0-6.074-4.926-11-11-11
			c-0.893,0-1.756,0.118-2.586,0.318l-5.525,12.451L-1261.985,311.273z"/>
		<path fill="#E9E9EA" d="M-1416.263,311.273c-0.066,0.002-0.131,0.01-0.199,0.01c-6.074,0-11-4.924-11-11c0-6.074,4.926-11,11-11
			c0.893,0,1.756,0.118,2.586,0.318l5.525,12.451L-1416.263,311.273z"/>
		<circle fill="#C4C4C3" cx="-1384.992" cy="323.65" r="9.596"/>
		<circle fill="#C4C4C3" cx="-1292.748" cy="323.65" r="9.596"/>
		<path fill="none" stroke="#000000" stroke-width="3" stroke-linecap="round" stroke-miterlimit="10" d="M-1391.998,292.707
			c0,2.074,1.561,5.25,5.006,5.25c3.445,0,5.214-2.636,5.214-5.213"/>
		<path fill="none" stroke="#000000" stroke-width="3" stroke-linecap="round" stroke-miterlimit="10" d="M-1386.888,287.916
			c0,2.076,1.561,5.25,5.006,5.25c1.54,0,2.744-0.525,3.605-1.338"/>
		<path fill="none" stroke="#000000" stroke-width="3" stroke-linecap="round" stroke-miterlimit="10" d="M-1286.972,287.916
			c0,2.076-1.561,5.25-5.006,5.25c-1.539,0-2.744-0.525-3.605-1.338"/>
		<path fill="none" stroke="#000000" stroke-width="3" stroke-linecap="round" stroke-miterlimit="10" d="M-1292.16,292.707
			c0,2.074,1.561,5.25,5.006,5.25c3.445,0,5.214-2.636,5.214-5.213"/>
		<g>
			<circle cx="-1377.278" cy="295.43" r="7.5"/>
			<circle fill="#FFFFFF" cx="-1379.772" cy="293.387" r="3.03"/>
		</g>
		<g>
			<circle cx="-1296.778" cy="295.43" r="7.5"/>
			<circle fill="#FFFFFF" cx="-1299.272" cy="293.387" r="3.03"/>
		</g>
	</g>
</g>
<g>
	<g>
		<path fill="#E9E9EA" d="M-1060.444,60.997h2.438c5.94,0,10.801,4.86,10.801,10.8v32.733c0,5.939-4.86,10.8-10.801,10.8h-2.438
			V60.997z"/>
		<path fill="#E9E9EA" d="M-1139.351,60.997h-2.438c-5.939,0-10.8,4.86-10.8,10.8v32.733c0,5.939,4.86,10.8,10.8,10.8h2.438V60.997z
			"/>
		<path fill="#5B5C5C" d="M-1058.006,60.997h-2.438h-78.907h-2.438c-5.939,0-10.8,4.86-10.8,10.8v5.699h13.237v54.5h78.907v-54.5
			h13.238v-5.699C-1047.206,65.857-1052.066,60.997-1058.006,60.997z"/>
		<polygon fill="#604E75" points="-1139.351,131.996 -1139.351,148.664 -1139.351,188.33 -1110.561,188.33 -1110.561,148.664 
			-1089.233,148.664 -1089.233,188.33 -1060.444,188.33 -1060.444,148.664 -1060.444,131.996 		"/>
		<path d="M-1124.957,202.724c7.95,0,14.396-6.444,14.396-14.395h-28.79C-1139.351,196.28-1132.906,202.724-1124.957,202.724z"/>
		<path d="M-1074.838,202.724c7.95,0,14.395-6.444,14.395-14.395h-28.789C-1089.233,196.28-1082.788,202.724-1074.838,202.724z"/>
		<path fill="#604E75" d="M-1124.957,173.935c-7.949,0-14.395,6.443-14.395,14.395h28.79
			C-1110.561,180.378-1117.006,173.935-1124.957,173.935z"/>
		<path fill="#604E75" d="M-1074.838,173.935c-7.949,0-14.395,6.443-14.395,14.395h28.789
			C-1060.444,180.378-1066.888,173.935-1074.838,173.935z"/>
		<g>
			<g>
				<path fill="#E9E9EA" d="M-1133.237,83.079c1.461-0.578,2.197-0.851,3.675-1.364c0.197,0.567,0.295,0.85,0.492,1.417
					c-0.319,0.111-0.479,0.167-0.798,0.281c0.727,2.033,1.089,3.048,1.816,5.081c0.299-0.107,0.45-0.16,0.75-0.264
					c0.195,0.562,0.292,0.844,0.487,1.406c-1.343,0.466-2.011,0.713-3.338,1.239c-0.219-0.553-0.329-0.83-0.548-1.383
					c0.296-0.118,0.446-0.175,0.743-0.29c-0.776-2.015-1.162-3.021-1.938-5.036c-0.316,0.122-0.476,0.183-0.791,0.308
					C-1132.906,83.915-1133.016,83.637-1133.237,83.079z"/>
				<path fill="#E9E9EA" d="M-1121.584,79.323c1.383-0.343,2.078-0.5,3.471-0.788c0.122,0.587,0.182,0.879,0.304,1.467
					c-0.328,0.068-0.493,0.103-0.82,0.174c0.584,2.701,0.877,4.051,1.461,6.752c-0.48,0.104-0.719,0.157-1.198,0.27
					c-2.036-1.685-3.101-2.498-5.319-4.052c0.41,1.444,0.616,2.167,1.025,3.611c0.157-0.044,0.917-0.254,0.917-0.254
					c0.157,0.579,0.236,0.868,0.395,1.446c-1.25,0.339-1.873,0.521-3.113,0.911c-0.18-0.572-0.269-0.858-0.449-1.43
					c0.36-0.113,0.539-0.168,0.9-0.277c-0.625-2.071-0.936-3.106-1.561-5.178c-0.384,0.116-0.576,0.174-0.959,0.294
					c-0.18-0.572-0.27-0.858-0.449-1.431c1.163-0.365,1.747-0.538,2.918-0.863c1.862,1.351,2.762,2.049,4.499,3.488
					c-0.275-1.167-0.414-1.75-0.689-2.917c-0.389,0.092-0.583,0.139-0.971,0.235C-1121.368,80.196-1121.44,79.905-1121.584,79.323z"
					/>
				<path fill="#E9E9EA" d="M-1106.759,81.133c0.198,2.403-1.544,4.327-3.813,4.63c-1.451,0.193-2.176,0.307-3.619,0.564
					c-0.106-0.595-0.159-0.893-0.265-1.488c0.295-0.053,0.442-0.078,0.738-0.128c-0.359-2.119-0.537-3.179-0.896-5.298
					c-0.313,0.053-0.471,0.081-0.785,0.137c-0.107-0.6-0.161-0.899-0.268-1.499c1.59-0.284,2.387-0.408,3.985-0.621
					C-1108.997,77.073-1106.957,78.731-1106.759,81.133z M-1111.7,84.394c0.257-0.037,0.387-0.054,0.645-0.089
					c1.84-0.251,2.343-1.638,2.2-2.974c-0.144-1.347-1.154-2.592-2.928-2.35c-0.272,0.037-0.41,0.056-0.683,0.096
					C-1112.159,81.204-1112.008,82.267-1111.7,84.394z"/>
				<path fill="#E9E9EA" d="M-1105.204,76.837c1.541-0.094,2.313-0.125,3.856-0.154c0.011,0.6,0.018,0.899,0.029,1.499
					c-0.333,0.006-0.501,0.011-0.834,0.021c0.061,2.158,0.091,3.235,0.152,5.393c0.313-0.009,0.47-0.013,0.784-0.019
					c0.011,0.595,0.017,0.893,0.028,1.488c-1.401,0.026-2.103,0.054-3.503,0.14c-0.037-0.594-0.054-0.891-0.09-1.484
					c0.313-0.019,0.47-0.029,0.783-0.045c-0.112-2.155-0.167-3.233-0.28-5.389c-0.333,0.017-0.5,0.027-0.833,0.047
					C-1105.148,77.735-1105.167,77.437-1105.204,76.837z"/>
				<path fill="#E9E9EA" d="M-1093.416,76.866c0,0,2.488,6.832,2.62,7.135c0.372,0.039,0.556,0.059,0.927,0.102
					c-0.069,0.596-0.103,0.894-0.172,1.489c-1.399-0.163-2.102-0.229-3.506-0.332c0.043-0.593,0.066-0.889,0.11-1.482
					c0.184,0.014,0.275,0.021,0.458,0.035c-0.125-0.311-0.228-0.619-0.368-0.943c-0.993-0.073-1.49-0.103-2.484-0.146
					c-0.157,0.358-0.235,0.537-0.389,0.896c0.184,0.007,0.276,0.011,0.46,0.02c-0.027,0.594-0.041,0.891-0.068,1.485
					c-1.215-0.056-1.824-0.072-3.04-0.083c0.005-0.6,0.009-0.9,0.015-1.5c0.373,0.003,0.559,0.007,0.932,0.015
					c0.316-0.894,3.296-6.764,3.296-6.764c0.494,0.027,0.742,0.042,1.236,0.076C-1093.398,76.868-1093.405,76.867-1093.416,76.866z
					 M-1093.796,81.335c-0.256-0.686-0.389-1.027-0.657-1.711c-0.325,0.649-0.484,0.973-0.799,1.625
					C-1094.669,81.279-1094.378,81.296-1093.796,81.335z"/>
				<path fill="#E9E9EA" d="M-1081.315,78.496c1.393,0.285,2.087,0.439,3.471,0.779c-0.143,0.583-0.214,0.874-0.357,1.456
					c-0.326-0.08-0.488-0.118-0.815-0.195c-0.634,2.69-0.951,4.034-1.585,6.724c-0.479-0.113-0.717-0.167-1.197-0.273
					c-1.113-2.396-1.723-3.588-3.046-5.944c-0.251,1.48-0.375,2.22-0.627,3.701c0.16,0.027,0.934,0.166,0.934,0.166
					c-0.107,0.59-0.161,0.884-0.268,1.474c-1.27-0.23-1.904-0.333-3.18-0.513c0.084-0.594,0.126-0.89,0.21-1.484
					c0.37,0.052,0.554,0.079,0.924,0.135c0.327-2.139,0.49-3.207,0.817-5.346c-0.394-0.06-0.589-0.089-0.983-0.145
					c0.084-0.594,0.126-0.89,0.21-1.483c1.196,0.169,1.793,0.264,2.985,0.473c1.093,2.019,1.604,3.037,2.551,5.082
					c0.253-1.172,0.378-1.759,0.632-2.931c-0.39-0.084-0.585-0.125-0.976-0.205C-1081.496,79.377-1081.436,79.083-1081.315,78.496z"
					/>
				<path fill="#E9E9EA" d="M-1070.151,81.539c0,0,0.684,7.259,0.735,7.587c0.354,0.136,0.532,0.204,0.885,0.343
					c-0.221,0.558-0.332,0.837-0.552,1.396c-1.332-0.527-2.002-0.776-3.35-1.244c0.195-0.562,0.293-0.844,0.488-1.406
					c0.176,0.061,0.264,0.093,0.44,0.155c-0.043-0.333-0.064-0.658-0.118-1.008c-0.954-0.331-1.431-0.49-2.392-0.792
					c-0.245,0.305-0.368,0.459-0.61,0.766c0.178,0.055,0.267,0.082,0.444,0.138c-0.179,0.567-0.27,0.851-0.449,1.418
					c-1.173-0.371-1.764-0.544-2.947-0.871c0.159-0.578,0.24-0.867,0.399-1.445c0.363,0.1,0.545,0.151,0.907,0.255
					c0.538-0.782,4.957-5.679,4.957-5.679c0.477,0.155,0.713,0.235,1.188,0.397C-1070.136,81.545-1070.141,81.542-1070.151,81.539z
					 M-1071.672,85.76c-0.075-0.729-0.114-1.095-0.201-1.826c-0.485,0.542-0.725,0.814-1.2,1.362
					C-1072.511,85.477-1072.231,85.57-1071.672,85.76z"/>
			</g>
		</g>
	</g>
	<g>
		<path fill="#E9E9EA" d="M-1022.872-2.635c-0.893,0-1.756,0.118-2.586,0.318c-8.77-28.624-38.908-49.725-74.753-49.725
			c-35.846,0-65.984,21.101-74.752,49.725c-0.831-0.201-1.693-0.318-2.586-0.318c-6.076,0-11,4.925-11,11c0,6.075,4.924,11,11,11
			c0.066,0,0.132-0.009,0.199-0.01c2.713,33.829,36.201,49.417,77.139,49.417s74.425-15.588,77.14-49.417
			c0.066,0.001,0.131,0.01,0.199,0.01c6.074,0,11-4.925,11-11C-1011.872,2.29-1016.797-2.635-1022.872-2.635z"/>
		<g>
			<circle cx="-1140.953" cy="5.073" r="7.5"/>
			<circle fill="#FFFFFF" cx="-1143.447" cy="3.03" r="3.029"/>
		</g>
		<g>
			<circle cx="-1060.453" cy="5.073" r="7.5"/>
			<circle fill="#FFFFFF" cx="-1062.947" cy="3.03" r="3.03"/>
		</g>
		<path fill="none" stroke="#000000" stroke-width="3" stroke-linecap="round" stroke-miterlimit="10" d="M-1100.21,0
			c0,0,0.812,8.268,4.312,12.573l-4.312,3.555"/>
		<path fill="none" stroke="#000000" stroke-width="3" stroke-linecap="round" stroke-miterlimit="10" d="M-1112.479,22.835
			c0,5.106,3.842,12.917,12.318,12.917c8.476,0,12.827-6.482,12.827-12.827"/>
		<path fill="#B69FCC" d="M-1048.396-40.371L-1048.396-40.371C-1048.396-40.371-1048.396-40.372-1048.396-40.371
			c-1.28-0.946-2.444-1.776-3.42-2.501c-1.853-1.379-4.369-2.847-7.429-4.276c-16.112-12.402-23.727-29.564-23.727-29.564
			c-3,9.667-8.751,6.667-8.751,6.667c-2.751-1-3.083-6-3.083-6c-0.5,3.5-4,6.5-6.666,4.167c-2.667-2.333-4-11.5-4-11.5
			s-1.5,18-8.334,16.833c-6.833-1.167-6.166-5.167-6.166-5.167c-0.968,10.89-16.194,21.368-24.47,26.295
			c-1.881,0.93-3.637,1.909-5.25,2.928c-0.002,0-0.012,0.005-0.012,0.005h0.002c-2.631,1.663-4.881,3.431-6.615,5.279
			c-10.324,11.001-19.127,25.778-18.646,34.889c0,0,2.813,3.335,2.813,7.39h5.5c0,0,0.5-26.445,16-36.445
			c0,0,25.348-10.674,48.515-9.841c23.166,0.833,50.819,8.674,50.819,8.674c19.667,12.667,17.667,37.612,17.667,37.612h5.332
			c0.166-4.055,2.859-7.39,2.859-7.39C-1027.253-23.503-1040.265-34.367-1048.396-40.371z"/>
	</g>
</g>
<g>
	<g>
		<path fill="#E9E9EA" d="M-1522.058,353.916h2.438c5.939,0,10.8,4.861,10.8,10.801v32.732c0,5.939-4.86,10.801-10.8,10.801h-2.438
			V353.916z"/>
		<path fill="#E9E9EA" d="M-1600.966,353.916h-2.438c-5.94,0-10.8,4.861-10.8,10.801v32.732c0,5.939,4.859,10.801,10.8,10.801h2.438
			V353.916z"/>
		<path fill="#B69FCC" d="M-1519.621,353.916h-2.438h-78.908h-2.438c-5.94,0-10.8,4.861-10.8,10.801v5.699h13.237v54.5h78.908v-54.5
			h13.237v-5.699C-1508.821,358.777-1513.681,353.916-1519.621,353.916z"/>
		<polygon fill="#C4C4C3" points="-1600.966,424.916 -1600.966,441.582 -1600.966,481.25 -1572.176,481.25 -1572.176,441.582 
			-1550.848,441.582 -1550.848,481.25 -1522.058,481.25 -1522.058,441.582 -1522.058,424.916 		"/>
		<path d="M-1586.572,495.642c7.95,0,14.396-6.443,14.396-14.395h-28.79C-1600.966,489.199-1594.522,495.642-1586.572,495.642z"/>
		<path d="M-1536.454,495.642c7.95,0,14.396-6.443,14.396-14.395h-28.79C-1550.848,489.199-1544.403,495.642-1536.454,495.642z"/>
		<path fill="#C4C4C3" d="M-1586.572,466.853c-7.95,0-14.395,6.445-14.395,14.396h28.79
			C-1572.176,473.298-1578.622,466.853-1586.572,466.853z"/>
		<path fill="#C4C4C3" d="M-1536.454,466.853c-7.949,0-14.395,6.445-14.395,14.396h28.79
			C-1522.058,473.298-1528.503,466.853-1536.454,466.853z"/>
		<g>
			<g>
				<path fill="#5B5C5C" d="M-1587.667,378.14c0.005,1.074-0.328,2.529-2.474,3.266c-2.124,0.727-4.295-0.307-5.158-2.482
					c-0.926-2.34,0.151-4.52,2.486-5.318c0.799-0.273,1.463-0.328,1.833-0.275c-0.054-0.168-0.081-0.254-0.135-0.422
					c0.628-0.201,0.943-0.299,1.574-0.488c0.373,1.24,0.56,1.859,0.932,3.1c-0.608,0.184-0.913,0.277-1.519,0.473
					c-0.055-0.172-0.083-0.258-0.138-0.432c-0.177-0.551-0.978-0.92-2.066-0.547c-0.762,0.262-1.616,1.199-0.909,3.125
					c0.659,1.795,1.906,2.119,2.623,1.875c1.172-0.4,1.433-1.561,1.387-1.705C-1588.605,378.234-1588.291,378.201-1587.667,378.14z"
					/>
				<path fill="#5B5C5C" d="M-1578.373,376.773c0.104,0.574,0.158,0.859,0.262,1.436c-0.802,0.146-1.204,0.223-2.003,0.389
					c-0.327-0.072-1.007-0.377-1.226-1.375c-0.124-0.564-0.824-1.605-2.049-1.469c0.189,0.789,0.285,1.188,0.474,1.977
					c0.297-0.07,0.447-0.107,0.745-0.176c0.131,0.568,0.196,0.854,0.327,1.422c-1.323,0.305-1.981,0.471-3.294,0.828
					c-0.154-0.563-0.231-0.846-0.386-1.408c0.347-0.096,0.52-0.141,0.867-0.23c-0.53-2.023-0.795-3.033-1.326-5.057
					c-0.369,0.096-0.552,0.143-0.92,0.242c-0.153-0.559-0.229-0.838-0.382-1.396c1.506-0.412,2.261-0.604,3.78-0.947
					c2.023-0.461,2.908,0.709,3.107,1.723c0.168,0.854-0.406,1.816-0.383,1.992c0.032,0.244,1.002,1.148,1.168,1.99
					c0.056,0.283,0.361,0.227,0.361,0.227C-1578.899,376.871-1578.724,376.837-1578.373,376.773z M-1583.108,374.201
					c0.715-0.166,0.963-0.658,0.869-1.088c-0.094-0.432-0.499-0.795-1.104-0.656c-0.316,0.074-0.474,0.109-0.79,0.186
					c0.163,0.682,0.244,1.021,0.407,1.701C-1583.479,374.285-1583.355,374.257-1583.108,374.201z"/>
				<path fill="#5B5C5C" d="M-1577.149,369.83c1.458-0.227,2.188-0.324,3.651-0.49c0.065,0.576,0.097,0.867,0.163,1.443
					c-0.316,0.035-0.475,0.051-0.791,0.09c0.253,2.072,0.381,3.109,0.634,5.18c0.297-0.035,0.446-0.053,0.744-0.088
					c0.065,0.572,0.097,0.857,0.162,1.428c-1.333,0.152-1.999,0.24-3.326,0.445c-0.088-0.568-0.131-0.852-0.219-1.42
					c0.297-0.047,0.445-0.066,0.742-0.109c-0.3-2.064-0.451-3.1-0.751-5.166c-0.315,0.047-0.473,0.07-0.788,0.119
					C-1577.017,370.687-1577.061,370.402-1577.149,369.83z"/>
				<path fill="#5B5C5C" d="M-1562.462,368.74c1.024,0.008,1.536,0.02,2.561,0.059c-0.021,0.578-0.031,0.869-0.052,1.447
					c-0.378-0.014-0.567-0.021-0.946-0.031c-0.055,2.092-0.082,3.139-0.137,5.23c0.356,0.008,0.535,0.016,0.891,0.027
					c-0.021,0.58-0.032,0.867-0.054,1.447c-1.339-0.049-2.007-0.061-3.347-0.055c-0.002-0.58-0.004-0.869-0.006-1.449
					c0.233,0,0.35,0,0.583,0c0.003-1.049,0.004-1.574,0.008-2.621c-0.798,1.625-1.179,2.443-1.902,4.086
					c-0.354,0.006-0.532,0.01-0.887,0.021c0,0-1.74-2.984-2.417-4.098c0.062,1.098,0.093,1.648,0.155,2.746
					c0.237-0.014,0.354-0.02,0.592-0.031c0.029,0.578,0.042,0.867,0.071,1.445c-1.166,0.059-1.747,0.098-2.91,0.195
					c-0.049-0.576-0.073-0.863-0.123-1.441c0.36-0.029,0.54-0.047,0.9-0.072c-0.155-2.088-0.233-3.129-0.388-5.217
					c-0.382,0.029-0.573,0.045-0.956,0.076c-0.049-0.578-0.073-0.865-0.122-1.443c0.96-0.082,1.442-0.115,2.404-0.172
					c1.404,2.068,2.068,3.117,3.323,5.236C-1564.185,371.957-1563.633,370.876-1562.462,368.74z"/>
				<path fill="#5B5C5C" d="M-1551.132,375.41c-0.329,2.295-2.647,1.992-3.379,1.914c-0.731-0.076-1.565-0.441-1.824-1.045
					c-0.029,0.348-0.042,0.521-0.071,0.867c-0.582-0.049-0.873-0.068-1.455-0.107c0.086-1.332,0.129-1.998,0.216-3.332
					c0.605,0.039,0.909,0.063,1.514,0.113c-0.024,0.291-0.036,0.438-0.06,0.729c-0.048,0.578,0.65,1.215,1.537,1.307
					c0.745,0.076,1.655-0.121,1.707-0.549c0.088-0.725-0.486-0.961-1.803-1.5c-1.006-0.412-2.679-0.959-2.573-2.555
					c0.086-1.295,1.587-2.234,3.348-2.055c1.123,0.113,1.542,0.613,1.641,1.07c0.042-0.35,0.063-0.525,0.106-0.877
					c0.642,0.078,0.963,0.119,1.604,0.209c-0.153,1.094-0.229,1.641-0.381,2.734c-0.622-0.088-0.932-0.125-1.555-0.201
					c0.007-0.057,0.011-0.086,0.018-0.141c0.052-0.426-0.323-1.217-1.579-1.344c-0.477-0.051-1.132,0.184-1.171,0.623
					c-0.038,0.426,0.437,0.637,1.463,1.02C-1552.664,372.728-1550.842,373.388-1551.132,375.41z"/>
				<path fill="#5B5C5C" d="M-1540.944,375.716c-0.795,3.004-3.098,3.482-4.874,3.102c-1.901-0.408-3.646-1.896-3.159-4.824
					c0.465-2.803,2.818-3.775,4.911-3.326C-1542.112,371.085-1540.178,372.826-1540.944,375.716z M-1543.084,375.179
					c0.381-1.602-0.18-2.809-1.296-3.049c-1.265-0.27-2.258,0.605-2.566,2.223c-0.304,1.594,0.251,2.758,1.44,3.014
					C-1544.456,377.591-1543.459,376.759-1543.084,375.179z"/>
				<path fill="#5B5C5C" d="M-1532.88,373.937c1.289,0.455,1.932,0.695,3.207,1.199c-0.213,0.539-0.32,0.811-0.534,1.35
					c-0.3-0.119-0.452-0.18-0.753-0.295c-0.961,2.494-1.441,3.738-2.402,6.23c-0.443-0.17-0.665-0.254-1.109-0.418
					c-0.746-2.441-1.168-3.66-2.111-6.09c-0.439,1.383-0.659,2.072-1.098,3.457c0.149,0.047,0.869,0.283,0.869,0.283
					c-0.181,0.551-0.273,0.824-0.454,1.375c-1.181-0.389-1.773-0.57-2.964-0.914c0.161-0.559,0.241-0.836,0.401-1.395
					c0.346,0.102,0.519,0.15,0.863,0.254c0.601-2.004,0.901-3.004,1.502-5.008c-0.366-0.107-0.549-0.166-0.916-0.27
					c0.161-0.559,0.24-0.834,0.4-1.393c1.113,0.322,1.668,0.488,2.773,0.848c0.768,2.076,1.119,3.115,1.751,5.197
					c0.398-1.088,0.597-1.631,0.995-2.721c-0.361-0.133-0.543-0.199-0.905-0.326
					C-1533.169,374.755-1533.073,374.486-1532.88,373.937z"/>
			</g>
		</g>
		<g>
			<g>
				<path fill="#5B5C5C" d="M-1583.333,391.298c1.414,0.451,2.125,0.656,3.556,1.025c-0.15,0.58-0.226,0.871-0.376,1.451
					c-0.307-0.078-0.46-0.119-0.767-0.201c-0.565,2.084-0.849,3.123-1.414,5.207c0.331,0.09,0.498,0.137,0.829,0.223
					c-0.15,0.58-0.226,0.869-0.376,1.449c-1.608-0.416-2.408-0.646-3.997-1.152c0.182-0.572,0.272-0.857,0.455-1.43
					c0.395,0.127,0.592,0.188,0.988,0.307c0.244-0.803,0.365-1.205,0.608-2.01c-1.149-0.348-1.721-0.531-2.858-0.93
					c-0.277,0.793-0.416,1.188-0.692,1.98c0.392,0.137,0.589,0.205,0.982,0.336c-0.189,0.57-0.285,0.852-0.475,1.42
					c-1.583-0.527-2.37-0.814-3.929-1.432c0.221-0.559,0.331-0.836,0.551-1.393c0.321,0.127,0.482,0.189,0.804,0.313
					c0.771-2.018,1.157-3.027,1.928-5.043c-0.299-0.115-0.447-0.172-0.745-0.291c0.221-0.557,0.331-0.836,0.551-1.395
					c1.388,0.551,2.088,0.807,3.497,1.275c-0.189,0.57-0.285,0.854-0.475,1.422c-0.365-0.123-0.548-0.184-0.912-0.311
					c-0.237,0.68-0.354,1.018-0.592,1.697c1.114,0.389,1.673,0.57,2.799,0.912c0.209-0.688,0.313-1.031,0.521-1.721
					c-0.367-0.111-0.551-0.17-0.917-0.287C-1583.607,392.156-1583.515,391.871-1583.333,391.298z"/>
				<path fill="#5B5C5C" d="M-1572.676,393.765c0,0,2.183,6.918,2.329,7.223c0.402,0.041,0.604,0.061,1.007,0.096
					c-0.053,0.598-0.079,0.898-0.131,1.496c-1.577-0.139-2.365-0.23-3.935-0.449c0.083-0.59,0.125-0.885,0.208-1.475
					c0.198,0.027,0.297,0.043,0.495,0.068c-0.121-0.318-0.213-0.633-0.341-0.967c-1.045-0.145-1.568-0.229-2.609-0.414
					c-0.211,0.332-0.317,0.498-0.532,0.83c0.197,0.035,0.295,0.053,0.492,0.088c-0.103,0.586-0.154,0.879-0.256,1.465
					c-1.353-0.236-2.026-0.369-3.37-0.668c0.13-0.586,0.194-0.881,0.325-1.467c0.396,0.088,0.595,0.133,0.993,0.217
					c0.501-0.814,4.237-6.215,4.237-6.215c0.445,0.074,0.668,0.107,1.114,0.174
					C-1572.661,393.765-1572.667,393.765-1572.676,393.765z M-1573.407,398.191c-0.207-0.705-0.307-1.059-0.499-1.764
					c-0.382,0.613-0.578,0.918-0.973,1.527C-1574.291,398.054-1573.996,398.103-1573.407,398.191z"/>
				<path fill="#5B5C5C" d="M-1560.376,394.427c1.221-0.045,1.831-0.08,3.049-0.18c0.049,0.604,0.074,0.902,0.123,1.506
					c-0.314,0.025-0.471,0.037-0.785,0.061c-0.149,0.012-0.14,0.141-0.14,0.141c-0.755,2.768-1.18,4.148-2.119,6.895
					c-0.555,0.02-0.832,0.025-1.387,0.035c-0.648-1.736-0.955-2.607-1.532-4.355c-0.655,1.742-1.002,2.607-1.735,4.336
					c-0.483-0.014-0.725-0.021-1.208-0.043c-0.847-2.684-1.227-4.029-1.906-6.73c0.013-0.168-0.127-0.311-0.289-0.322
					c-0.314-0.025-0.472-0.037-0.785-0.066c0.055-0.602,0.082-0.904,0.137-1.506c1.466,0.133,2.201,0.18,3.671,0.232
					c-0.021,0.605-0.033,0.908-0.055,1.512c-0.25-0.01-0.375-0.014-0.625-0.025c0.32,1.215,0.489,1.82,0.842,3.033
					c0.714-1.783,1.049-2.678,1.681-4.477c0.425,0.006,0.638,0.004,1.063,0c0.627,1.801,0.961,2.697,1.671,4.48
					c0.355-1.211,0.525-1.814,0.848-3.029c-0.185,0.008-0.278,0.008-0.463,0.016
					C-1560.343,395.333-1560.354,395.033-1560.376,394.427z"/>
				<path fill="#5B5C5C" d="M-1545.731,399.404c0.333-0.078,0.499-0.121,0.831-0.203c0.143,0.578,0.215,0.865,0.358,1.441
					c-1.611,0.4-2.421,0.578-4.047,0.891c-0.111-0.584-0.167-0.879-0.278-1.463c-1.127-0.824-1.675-1.246-2.742-2.111
					c0.16,1.01,0.239,1.514,0.398,2.523c0.336-0.053,0.503-0.082,0.839-0.141c0.1,0.588,0.15,0.879,0.25,1.467
					c-1.56,0.266-2.343,0.379-3.911,0.563c-0.069-0.592-0.103-0.889-0.172-1.48c0.338-0.039,0.506-0.059,0.844-0.102
					c-0.275-2.152-0.414-3.225-0.689-5.375c-0.313,0.041-0.469,0.061-0.782,0.096c-0.069-0.59-0.103-0.889-0.171-1.479
					c1.395-0.162,2.09-0.264,3.478-0.498c0.1,0.586,0.149,0.881,0.249,1.469c-0.312,0.053-0.466,0.078-0.778,0.127
					c0.084,0.535,0.126,0.803,0.211,1.338c0.842-0.855,1.249-1.291,2.039-2.172c-0.08-0.414-0.12-0.621-0.2-1.035
					c1.205-0.232,1.805-0.365,3.001-0.652c0.139,0.576,0.208,0.867,0.348,1.445c-0.372,0.09-0.558,0.135-0.931,0.219
					c-0.221,0.051-0.331,0.225-0.662,0.623c-0.242,0.293-1.033,1.281-1.585,1.836c1.238,0.988,1.879,1.471,3.197,2.404
					C-1546.376,399.32-1546.061,399.482-1545.731,399.404z"/>
				<path fill="#5B5C5C" d="M-1535.751,395.316c0.883,2.23-1.729,3.213-2.56,3.494c-0.83,0.283-1.902,0.313-2.42-0.156
					c0.106,0.344,0.16,0.514,0.266,0.857c-0.664,0.203-0.997,0.305-1.664,0.494c-0.376-1.33-0.564-1.996-0.941-3.324
					c0.636-0.182,0.954-0.273,1.587-0.471c0.089,0.289,0.134,0.436,0.223,0.725c0.176,0.572,1.173,0.893,2.143,0.566
					c0.814-0.273,1.658-0.908,1.506-1.326c-0.259-0.709-0.947-0.623-2.489-0.557c-1.179,0.051-3.052,0.148-3.507-1.441
					c-0.369-1.291,0.668-2.689,2.286-3.234c1.032-0.348,1.615-0.08,1.913,0.297c-0.125-0.344-0.186-0.514-0.311-0.855
					c0.587-0.215,0.879-0.326,1.463-0.553c0.416,1.063,0.624,1.596,1.039,2.658c-0.608,0.236-0.913,0.354-1.525,0.576
					c-0.02-0.055-0.031-0.084-0.051-0.139c-0.152-0.416-0.848-0.953-2.046-0.551c-0.456,0.154-0.967,0.631-0.829,1.064
					c0.134,0.424,0.668,0.441,1.81,0.35C-1538.561,393.683-1536.528,393.353-1535.751,395.316z"/>
			</g>
		</g>
	</g>
	<g>
		<path fill="#E9E9EA" d="M-1484.487,289.083c-0.893,0-1.755,0.117-2.586,0.317c-8.769-28.625-38.907-49.726-74.753-49.726
			c-35.845,0-65.983,21.101-74.753,49.726c-0.83-0.2-1.693-0.317-2.586-0.317c-6.074,0-11,4.924-11,11c0,6.074,4.926,11,11,11
			c0.068,0,0.133-0.01,0.199-0.012c2.715,33.828,36.201,49.416,77.14,49.416c40.938,0,74.426-15.588,77.14-49.416
			c0.067,0.002,0.132,0.012,0.199,0.012c6.075,0,11-4.926,11-11C-1473.487,294.007-1478.412,289.083-1484.487,289.083z"/>
		<g>
			<circle cx="-1602.568" cy="296.791" r="7.5"/>
			<circle fill="#FFFFFF" cx="-1605.062" cy="294.748" r="3.03"/>
		</g>
		<g>
			<circle cx="-1522.068" cy="296.791" r="7.5"/>
			<circle fill="#FFFFFF" cx="-1524.562" cy="294.748" r="3.03"/>
		</g>
		<path fill="none" stroke="#000000" stroke-width="3" stroke-linecap="round" stroke-miterlimit="10" d="M-1561.826,291.718
			c0,0,0.812,8.268,4.312,12.572l-4.312,3.555"/>
		<path fill="none" stroke="#000000" stroke-width="3" stroke-linecap="round" stroke-miterlimit="10" d="M-1574.094,314.554
			c0,5.105,3.842,12.916,12.318,12.916s12.827-6.48,12.827-12.826"/>
		<path fill="#604E75" d="M-1561.522,216.078c-11.729,23.6-36.259,25.295-44.533,30.223c-1.883,0.931-3.639,1.908-5.252,2.929
			l-0.01,0.005h0.002c-2.632,1.663-4.881,3.432-6.616,5.279c-10.324,11.001-19.127,25.777-18.647,34.89c0,0,2.814,3.334,2.814,7.39
			h5.5c0,0,0.5-26.445,16-36.445c0,0,25.348-10.674,48.514-9.84c23.167,0.832,50.819,8.674,50.819,8.674
			c19.667,12.667,17.667,37.611,17.667,37.611h5.333c0.166-4.056,2.858-7.39,2.858-7.39c-1.796-21.188-14.808-32.051-22.938-38.055
			h0.001c-0.001,0-0.001,0-0.001,0c-1.28-0.946-2.444-1.774-3.42-2.502c-1.854-1.38-4.369-2.847-7.428-4.274
			C-1552.083,237.246-1561.522,216.078-1561.522,216.078z"/>
	</g>
</g>
<g>
	<g>
		<path fill="#E9E9EA" d="M-1070.027,356.419h2.438c5.94,0,10.8,4.861,10.8,10.801v32.732c0,5.939-4.859,10.801-10.8,10.801h-2.438
			V356.419z"/>
		<path fill="#E9E9EA" d="M-1148.934,356.419h-2.438c-5.94,0-10.801,4.861-10.801,10.801v32.732c0,5.939,4.86,10.801,10.801,10.801
			h2.438V356.419z"/>
		<path fill="#333333" d="M-1067.589,356.419h-2.438h-78.907h-2.438c-5.94,0-10.801,4.861-10.801,10.801v5.699h13.238v54.5h78.907
			v-54.5h13.237v-5.699C-1056.79,361.281-1061.649,356.419-1067.589,356.419z"/>
		<polygon fill="#B69FCC" points="-1148.934,427.419 -1148.934,444.085 -1148.934,483.753 -1120.145,483.753 -1120.145,444.085 
			-1098.817,444.085 -1098.817,483.753 -1070.027,483.753 -1070.027,444.085 -1070.027,427.419 		"/>
		<path d="M-1134.54,498.148c7.949,0,14.395-6.443,14.395-14.395h-28.789C-1148.934,491.705-1142.49,498.148-1134.54,498.148z"/>
		<path d="M-1084.422,498.148c7.951,0,14.396-6.443,14.396-14.395h-28.79C-1098.817,491.705-1092.372,498.148-1084.422,498.148z"/>
		<path fill="#B69FCC" d="M-1134.54,469.359c-7.95,0-14.395,6.443-14.395,14.395h28.789
			C-1120.145,475.802-1126.59,469.359-1134.54,469.359z"/>
		<path fill="#B69FCC" d="M-1084.422,469.359c-7.949,0-14.395,6.443-14.395,14.395h28.79
			C-1070.027,475.802-1076.471,469.359-1084.422,469.359z"/>
		<g>
			<g>
				<path fill="#B69FCC" d="M-1133.202,374.935c1.531-0.449,2.302-0.656,3.848-1.033c0.162,0.666,0.243,0.994,0.405,1.658
					c-0.458,0.113-0.688,0.172-1.145,0.289c-0.075,1.264-1.27,7.852-1.243,8.561c-0.533,0.164-0.799,0.248-1.33,0.422
					c-0.389-0.592-5.553-5.691-5.986-6.258c-0.439,0.166-0.661,0.254-1.098,0.426c-0.252-0.637-0.377-0.953-0.629-1.59
					c1.645-0.652,2.473-0.953,4.142-1.516c0.218,0.648,0.327,0.975,0.545,1.621c-0.148,0.051-0.222,0.074-0.369,0.125
					c0.648,0.689,3.132,3.494,3.132,3.494c0.152-0.039,0.689-3.631,0.781-4.725c-0.228,0.064-0.341,0.102-0.569,0.168
					C-1132.912,375.921-1133.009,375.591-1133.202,374.935z"/>
				<path fill="#B69FCC" d="M-1114.703,377.339c-0.112,1.588-0.163,2.381-0.252,3.969c-3.276,0.242-4.912,0.455-8.154,1.061
					c-0.125-0.672-0.188-1.008-0.313-1.682c0.355-0.064,0.532-0.1,0.888-0.16c-0.424-2.434-0.635-3.648-1.059-6.082
					c-0.384,0.066-0.576,0.104-0.96,0.174c-0.125-0.672-0.188-1.008-0.313-1.682c3.424-0.639,5.151-0.867,8.609-1.148
					c0.5,1.268,0.742,1.9,1.212,3.174c-0.761,0.053-1.141,0.084-1.9,0.154c-0.244-0.664-0.527-1.512-1.677-1.383
					c-1,0.111-1.5,0.178-2.498,0.318c0.117,0.818,0.176,1.227,0.293,2.045c0.525-0.074,0.788-0.107,1.314-0.176
					c-0.035-0.275-0.052-0.412-0.087-0.688c0.753-0.096,1.129-0.141,1.884-0.219c0.126,1.23,0.189,1.848,0.316,3.076
					c-0.726,0.074-1.087,0.119-1.812,0.209c-0.034-0.27-0.055-0.408-0.089-0.68c-0.515,0.064-0.773,0.1-1.287,0.172
					c0.136,0.949,0.205,1.424,0.34,2.373c1.138-0.164,1.708-0.234,2.849-0.355c0.525-0.055,0.766-1.287,0.865-2.326
					C-1115.802,377.417-1115.436,377.388-1114.703,377.339z"/>
				<path fill="#B69FCC" d="M-1101.792,379.789c-0.069,0.688-0.104,1.029-0.173,1.715c-0.966-0.098-1.449-0.141-2.417-0.207
					c-0.351-0.188-1.036-0.748-0.971-1.949c0.037-0.684-0.442-2.094-1.907-2.313c-0.027,0.957-0.042,1.438-0.068,2.395
					c0.365,0.012,0.547,0.018,0.912,0.031c-0.028,0.689-0.041,1.033-0.068,1.723c-1.61-0.064-2.416-0.076-4.026-0.055
					c-0.01-0.688-0.015-1.033-0.024-1.723c0.428-0.006,0.642-0.008,1.069-0.008c0-2.469,0.002-3.703,0.003-6.172
					c-0.462,0-0.694-0.002-1.157,0.006c-0.009-0.686-0.014-1.025-0.022-1.711c1.901-0.025,2.851-0.012,4.751,0.07
					c2.531,0.107,3.188,1.736,3.087,2.949c-0.084,1.023-1.068,1.939-1.097,2.141c-0.041,0.281,0.787,1.623,0.704,2.635
					c-0.028,0.34,0.341,0.371,0.341,0.371C-1102.432,379.724-1102.218,379.746-1101.792,379.789z M-1106.446,375.347
					c0.886,0.033,1.333-0.441,1.361-0.963c0.028-0.518-0.328-1.063-1.083-1.094c-0.394-0.016-0.591-0.023-0.986-0.033
					c-0.022,0.826-0.035,1.24-0.059,2.066C-1106.905,375.333-1106.753,375.335-1106.446,375.347z"/>
				<path fill="#B69FCC" d="M-1087.867,379.328c-0.751,2.646-3.404,3.998-5.966,3.445c-1.638-0.354-2.462-0.508-4.113-0.766
					c0.106-0.682,0.16-1.021,0.267-1.703c0.339,0.055,0.509,0.08,0.848,0.137c0.407-2.418,0.61-3.625,1.019-6.045
					c-0.366-0.063-0.55-0.09-0.917-0.146c0.108-0.688,0.164-1.033,0.272-1.719c1.865,0.293,2.794,0.465,4.644,0.863
					C-1088.704,374.064-1087.115,376.681-1087.867,379.328z M-1094.523,380.867c0.292,0.059,0.438,0.09,0.73,0.15
					c2.09,0.439,3.182-0.84,3.555-2.324c0.376-1.5-0.245-3.24-2.291-3.674c-0.315-0.064-0.473-0.098-0.789-0.16
					C-1093.801,377.263-1094.042,378.46-1094.523,380.867z"/>
				<path fill="#B69FCC" d="M-1082.901,375.875c1.735,0.58,2.597,0.895,4.306,1.572c-0.252,0.637-0.377,0.953-0.629,1.59
					c-0.368-0.146-0.551-0.217-0.92-0.357c-0.879,2.303-1.318,3.451-2.198,5.752c0.341,0.133,0.51,0.195,0.851,0.33
					c-0.25,0.631-0.375,0.949-0.625,1.58c-1.514-0.6-2.277-0.877-3.814-1.391c0.215-0.645,0.322-0.967,0.537-1.611
					c0.345,0.115,0.517,0.174,0.861,0.293c0.808-2.326,1.212-3.49,2.021-5.816c-0.372-0.129-0.557-0.191-0.93-0.316
					C-1083.227,376.849-1083.118,376.525-1082.901,375.875z"/>
			</g>
		</g>
	</g>
	<g>
		<path fill="#E9E9EA" d="M-1032.446,290.789c-0.893,0-1.756,0.117-2.586,0.318c-8.77-28.624-38.908-49.725-74.753-49.725
			s-65.983,21.101-74.753,49.725c-0.83-0.201-1.693-0.318-2.586-0.318c-6.074,0-11,4.926-11,11s4.926,11,11,11
			c0.068,0,0.133-0.008,0.199-0.01c2.715,33.828,36.201,49.416,77.14,49.416c40.938,0,74.425-15.588,77.14-49.416
			c0.066,0.002,0.131,0.01,0.199,0.01c6.074,0,11-4.926,11-11C-1021.446,295.712-1026.372,290.789-1032.446,290.789z"/>
		<path fill="none" stroke="#000000" stroke-width="3" stroke-linecap="round" stroke-miterlimit="10" d="M-1109.785,293.423
			c0,0,0.812,8.269,4.312,12.572l-4.312,3.555"/>
		<g>
			<path fill="#FFFFFF" d="M-1097.212,329.265c0,6.348-4.351,12.828-12.827,12.828s-12.318-7.813-12.318-12.918
				c2.218,2.539,6.267,4.654,12.506,4.654C-1103.847,333.832-1099.658,331.589-1097.212,329.265z"/>
			<path fill="none" stroke="#000000" stroke-width="3" stroke-linecap="round" stroke-miterlimit="10" d="M-1122.358,329.175
				c2.218,2.539,6.267,4.654,12.506,4.654c6.005,0,10.194-2.24,12.64-4.564"/>
			<path fill="none" stroke="#000000" stroke-width="3" stroke-linecap="round" stroke-miterlimit="10" d="M-1122.358,329.175
				c0,5.105,3.842,12.918,12.318,12.918s12.827-6.48,12.827-12.828"/>
		</g>
		<path fill="#E9E9EA" d="M-1032.645,312.779c0.066,0,0.131,0.01,0.199,0.01c6.074,0,11-4.926,11-11c0-6.076-4.926-11-11-11
			c-0.893,0-1.756,0.117-2.586,0.318l-5.525,12.45L-1032.645,312.779z"/>
		<path fill="#E9E9EA" d="M-1186.923,312.779c-0.066,0-0.131,0.01-0.199,0.01c-6.074,0-11-4.926-11-11c0-6.076,4.926-11,11-11
			c0.893,0,1.756,0.117,2.586,0.318l5.525,12.45L-1186.923,312.779z"/>
		<circle fill="#C4C4C3" cx="-1155.652" cy="325.155" r="9.595"/>
		<circle fill="#C4C4C3" cx="-1063.408" cy="325.155" r="9.595"/>
		<path fill="#604E75" d="M-1187.223,258.785c-22.223,21.148-24.334,70.332-6,91.666s2.333,36.334-8,38s-19.334-9.334-19.334-9.334
			c0.396,3.443,1.352,6.447,2.728,9.068c-2.298-1.246-4.663-2.779-5.65-4.242c0,0,4.06,8.139,10.563,10.582
			c1.052,0.961,2.184,1.832,3.389,2.613c-4.779,3.223-11.028,3.232-11.028,3.232c21.871,4.82,29.543,3.684,32.228,2.422
			c0.044,0,0.088,0.002,0.131,0.002c-6.029,5.188-15.043,5.576-15.043,5.576c15.602-0.252,24.275-3.078,29.048-5.824
			c-3.5,4.729-7.381,7.49-7.381,7.49c6.907-1.828,11.89-7.023,15.076-11.568c0.249-0.113,0.495-0.229,0.737-0.348
			c-1.121,7.074-2.813,8.916-2.813,8.916c7.493-7.066,11.745-14.213,14.116-19.518c1.328-2.516,2.225-5.24,2.737-8.047
			c0.056-0.27,0.08-0.418,0.08-0.418s-0.004,0.002-0.005,0.002c2.012-11.918-2.79-25.031-10.526-28.59
			c-11.635-5.352-33.218-30.908-22.365-59.36c9.969-26.136,31.093-24.86,41.511-29.655c10.137-4.668,17.804-17.668,17.804-17.668
			C-1138.89,229.117-1164.384,237.048-1187.223,258.785z"/>
		<path fill="#604E75" d="M-1067.938,385.593c-0.075,12.131,5.55,21.568,17.363,32.109c0,0-1.79-4.334,3.293-7.783
			c0.05,0.023,0.098,0.049,0.147,0.074c2.564,4.865,9.68,11.211,29.393,10.377c0,0-5.979-0.936-10.978-5.67
			c5.228,1.791,15.366,3.506,31.978-0.363c0,0-9.593,0.264-8.694-6.748c13.529-8.51,9.918-19.139,9.918-19.139s-4,8.998-16,8.998
			s-31.332-16.666-16.666-52.332s12.495-75.285-14.373-98c-17.742-15-44.627-27-74.627-17.334c0,0-24.965,11-16.982,23.334
			s22.943-1.666,44.315,0c12.527,0.977,45.949,10.862,55.192,37.989c8.353,24.511-6.813,49.142-15.473,54.741
			C-1057.021,350.306-1067.888,373.474-1067.938,385.593z"/>
		<path fill="none" stroke="#000000" stroke-width="3" stroke-linecap="round" stroke-miterlimit="10" d="M-1162.658,292.031
			c0,2.075,1.562,5.25,5.006,5.25s5.214-2.635,5.214-5.213"/>
		<path fill="none" stroke="#000000" stroke-width="3" stroke-linecap="round" stroke-miterlimit="10" d="M-1157.548,287.242
			c0,2.074,1.561,5.25,5.006,5.25c1.54,0,2.744-0.527,3.605-1.339"/>
		<path fill="none" stroke="#000000" stroke-width="3" stroke-linecap="round" stroke-miterlimit="10" d="M-1057.632,287.242
			c0,2.074-1.561,5.25-5.006,5.25c-1.539,0-2.744-0.527-3.605-1.339"/>
		<path fill="none" stroke="#000000" stroke-width="3" stroke-linecap="round" stroke-miterlimit="10" d="M-1062.82,292.031
			c0,2.075,1.561,5.25,5.006,5.25s5.214-2.635,5.214-5.213"/>
		<g>
			<circle cx="-1147.938" cy="294.755" r="7.5"/>
			<circle fill="#FFFFFF" cx="-1150.432" cy="292.712" r="3.03"/>
		</g>
		<g>
			<circle cx="-1067.438" cy="294.755" r="7.5"/>
			<circle fill="#FFFFFF" cx="-1069.932" cy="292.712" r="3.03"/>
		</g>
	</g>
</g>
<path fill="#786B89" d="M315.698-47.246c-10.257-4.949-17.258-13.638-21.547-26.825C285.721-51.406,267.982-42.1,245.317-42.1
	c-25.949,0-41.496-9.416-48.833-31.971c-8.43,22.665-25.872,31.971-48.537,31.971c-25.949,0-41.2-9.416-48.537-31.971
	C90.98-51.406,73.241-42.1,50.577-42.1c-25.95,0-41.497-9.416-48.834-31.971C-6.687-51.406-24.129-42.1-46.794-42.1
	c-25.949,0-41.2-9.416-48.537-31.971C-103.761-51.406-121.5-42.1-144.164-42.1V87.306h459.862V-47.246z"/>
<radialGradient id="SVGID_1_" cx="60.3652" cy="271.1118" r="189.3483" gradientTransform="matrix(1 0 0 -1 0 288.2412)" gradientUnits="userSpaceOnUse">
	<stop  offset="0" style="stop-color:#604E75"/>
	<stop  offset="1" style="stop-color:#604E75"/>
</radialGradient>
<path fill="url(#SVGID_1_)" d="M315.698-36.044c-7.004,3.043-15.015,4.455-23.813,4.455c-25.949,0-41.201-9.416-48.537-31.971
	c-8.43,22.665-26.17,31.971-48.834,31.971c-25.948,0-41.496-9.416-48.834-31.971c-8.43,22.665-25.871,31.971-48.537,31.971
	c-25.948,0-41.199-9.416-48.536-31.971c-8.43,22.665-26.169,31.971-48.833,31.971c-25.949,0-41.497-9.416-48.834-31.971
	c-8.43,22.665-25.872,31.971-48.537,31.971c-25.949,0-41.2-9.416-48.537-31.971c-8.43,22.665-26.168,31.971-48.833,31.971V97.818
	h510.666V-36.044z"/>
<path fill="#C4C4C3" d="M31.897,18.267C179.93,0.135,193.067-4.771,315.698-4.335v50.814v127.544h-510.667V46.479V21.507
	C-194.969,21.507-116.135,36.398,31.897,18.267z"/>
<g>
	<path fill="#E9E9EA" d="M180.765,78.549h1.51c3.678,0,6.687,3.009,6.687,6.687V105.5c0,3.677-3.009,6.687-6.687,6.687h-1.51V78.549
		z"/>
	<path fill="#E9E9EA" d="M131.914,78.549h-1.509c-3.677,0-6.686,3.009-6.686,6.687V105.5c0,3.677,3.008,6.687,6.686,6.687h1.509
		V78.549z"/>
	<path fill="#5B5C5C" d="M182.274,78.549h-1.51h-48.851h-1.509c-3.677,0-6.686,3.009-6.686,6.687v3.528h8.194v33.741h48.852V88.764
		h8.195v-3.528C188.961,81.558,185.952,78.549,182.274,78.549z"/>
	<polygon fill="#B69FCC" points="131.914,122.505 131.914,132.822 131.914,157.38 149.738,157.38 149.738,132.822 162.942,132.822 
		162.942,157.38 180.765,157.38 180.765,132.822 180.765,122.505 	"/>
	<path d="M140.826,166.292c4.922,0,8.913-3.99,8.913-8.912h-17.824C131.914,162.302,135.904,166.292,140.826,166.292z"/>
	<path d="M171.854,166.292c4.921,0,8.911-3.99,8.911-8.912h-17.823C162.942,162.302,166.932,166.292,171.854,166.292z"/>
	<path fill="#B69FCC" d="M140.826,148.468c-4.921,0-8.912,3.99-8.912,8.912h17.824C149.738,152.458,145.748,148.468,140.826,148.468
		z"/>
	<path fill="#B69FCC" d="M171.854,148.468c-4.923,0-8.912,3.99-8.912,8.912h17.822C180.765,152.458,176.775,148.468,171.854,148.468
		z"/>
	<g>
		<path fill="#E9E9EA" d="M204.031,39.31c-0.554,0-1.086,0.073-1.601,0.197c-5.43-17.721-24.087-30.784-46.279-30.784
			c-22.192,0-40.85,13.063-46.278,30.784c-0.515-0.124-1.048-0.197-1.601-0.197c-3.762,0-6.81,3.049-6.81,6.81
			c0,3.761,3.048,6.81,6.81,6.81c0.041,0,0.082-0.005,0.123-0.006c1.68,20.943,22.412,30.594,47.756,30.594
			c25.345,0,46.077-9.65,47.756-30.594c0.042,0.001,0.082,0.006,0.123,0.006c3.762,0,6.81-3.049,6.81-6.81
			C210.841,42.359,207.793,39.31,204.031,39.31z"/>
		<path fill="#B69FCC" d="M202.431,39.506c-1.287-15.182-11.882-21.806-16.318-25.108s-14.964-7.424-27.647-7.823
			c-13.729-0.431-30.754,4.625-37.048,11.332c-6.392,6.81-11.841,15.959-11.543,21.599c0,0,1.742,2.065,1.742,4.575h0.693
			l-0.693,2.855c0,0-0.069,13.161,9.932,26.293v-4.452l3.405,4.452c0,0,0.794,2.593,15.875,0v-4.452l2.078,4.452
			c0,0,21.359,2.934,32.813,0l1.857-2.876v4.181l3.189-4.705v4.705l5.477-4.181c0,0,2.787,1.744,8.049-0.524
			c0,0,6.408-8.762,6.371-22.893l-0.67-2.855h0.67C200.765,41.571,202.431,39.506,202.431,39.506z"/>
	</g>
</g>
<g>
	<path fill="#E9E9EA" d="M258.704,80.291h1.509c3.677,0,6.686,3.009,6.686,6.687v20.265c0,3.677-3.008,6.687-6.686,6.687h-1.509
		V80.291z"/>
	<path fill="#E9E9EA" d="M209.853,80.291h-1.51c-3.677,0-6.687,3.009-6.687,6.687v20.265c0,3.677,3.009,6.687,6.687,6.687h1.51
		V80.291z"/>
	<path fill="#333333" d="M260.213,80.291h-1.51h-48.851h-1.51c-3.678,0-6.688,3.009-6.688,6.687v3.528h8.195v33.74h48.852v-33.74
		h8.194v-3.528C266.898,83.3,263.89,80.291,260.213,80.291z"/>
	<polygon fill="#B69FCC" points="209.853,124.246 209.853,134.564 209.853,159.123 227.675,159.123 227.675,134.564 
		240.879,134.564 240.879,159.123 258.704,159.123 258.704,134.564 258.704,124.246 	"/>
	<path d="M218.764,168.033c4.921,0,8.911-3.988,8.911-8.91h-17.822C209.853,164.044,213.843,168.033,218.764,168.033z"/>
	<path d="M249.791,168.033c4.922,0,8.912-3.988,8.912-8.91h-17.824C240.879,164.044,244.869,168.033,249.791,168.033z"/>
	<path fill="#B69FCC" d="M218.764,150.21c-4.921,0-8.911,3.99-8.911,8.912h17.822C227.675,154.201,223.685,150.21,218.764,150.21z"
		/>
	<path fill="#B69FCC" d="M249.791,150.21c-4.922,0-8.912,3.99-8.912,8.912h17.824C258.704,154.201,254.713,150.21,249.791,150.21z"
		/>
	<g>
		<path fill="#604E75" d="M298.513,90.262c0,0-2.251,5.065-9.005,5.065s-17.634-9.381-9.38-29.455
			c5.066-12.322,6.556-25.479,3.458-36.762l-0.001-0.027l-0.008-0.007c-1.951-7.085-5.708-13.432-11.539-18.362
			c-9.986-8.442-25.118-15.197-42.003-9.756c0,0-4.809,2.122-7.9,5.272c-8.079-4.328-20.362,0.432-31.52,11.051
			c-12.508,11.903-13.696,39.586-3.378,51.593c10.32,12.007,1.314,20.451-4.502,21.387c-5.816,0.938-10.881-5.252-10.881-5.252
			c1.088,9.47,9.502,13.185,18.01,13.324l-0.006,0.012c0,0,0.071-0.003,0.199-0.008c1.36,0.013,2.721-0.064,4.053-0.225
			c0.527-0.035,1.092-0.075,1.688-0.119c-2.595,4.598-4.368,5.582-5.263,5.726c7.079,0.633,16.55-2.102,22.884-4.344
			c-1.133,3.096-2.072,3.972-2.601,4.202c10.139-1.111,16.048-5.356,19.387-9.196l0.101-0.069c1.158,3.758,3.522,9.033,7.907,10.549
			c0,0-1.514-3.017-1.316-5.927c3.775,3.018,8.86,5.598,15.387,5.9c0,0-3.938-2.913-5.725-7.15
			c5.993,4.638,15.999,10.452,28.52,10.452c0,0-2.059-0.112-3.556-3.649c2.304,0.335,4.656,0.467,7.019,0.302l-0.001-0.005
			c3.035,0.19,6.229-0.202,9.466-1.387C301.328,98.517,298.513,90.262,298.513,90.262z"/>
		<path fill="#604E75" d="M210.818,103.575c-0.157,0.018-0.306,0.041-0.465,0.056C210.354,103.631,210.521,103.704,210.818,103.575z
			"/>
		<path fill="#604E75" d="M190.536,103.718c-0.227-0.021-0.455-0.038-0.678-0.064C189.858,103.653,190.089,103.789,190.536,103.718z
			"/>
	</g>
</g>
<line fill="none" stroke="#604E75" stroke-miterlimit="10" x1="-769.667" y1="97.334" x2="-769.667" y2="302.949"/>
<line fill="none" stroke="#604E75" stroke-miterlimit="10" x1="-769.667" y1="302.949" x2="-259" y2="302.949"/>
<line fill="none" stroke="#604E75" stroke-miterlimit="10" x1="315.698" y1="174.025" x2="315.698" y2="-47.246"/>
<line fill="none" stroke="#604E75" stroke-miterlimit="10" x1="315.698" y1="174.023" x2="-194.969" y2="174.023"/>
<line fill="none" stroke="#604E75" stroke-miterlimit="10" x1="-194.969" y1="174.023" x2="-194.969" y2="21.507"/>
</svg>
