<?xml version="1.0" encoding="utf-8"?>
<!-- Generator: Adobe Illustrator 15.0.0, SVG Export Plug-In . SVG Version: 6.00 Build 0)  -->
<!DOCTYPE svg PUBLIC "-//W3C//DTD SVG 1.1//EN" "http://www.w3.org/Graphics/SVG/1.1/DTD/svg11.dtd">
<svg version="1.1" id="Layer_1" xmlns="http://www.w3.org/2000/svg" xmlns:xlink="http://www.w3.org/1999/xlink" x="0px" y="0px"
	 width="191.99px" height="274.364px" viewBox="0 0 191.99 274.364" enable-background="new 0 0 191.99 274.364"
	 xml:space="preserve">
<g>
	<g>
		<path fill="#E9E9EA" d="M-1639.717,323.387h2.438c5.94,0,10.8,4.86,10.8,10.8v32.733c0,5.939-4.859,10.8-10.8,10.8h-2.438V323.387
			z"/>
		<path fill="#E9E9EA" d="M-1718.624,323.387h-2.438c-5.94,0-10.801,4.86-10.801,10.8v32.733c0,5.939,4.86,10.8,10.801,10.8h2.438
			V323.387z"/>
		<path fill="#604E75" d="M-1637.279,323.387h-2.438h-78.907h-2.438c-5.94,0-10.801,4.86-10.801,10.8v5.699h13.238v54.5h78.907
			v-54.5h13.237v-5.699C-1626.479,328.247-1631.339,323.387-1637.279,323.387z"/>
		<polygon fill="#5B5C5C" points="-1718.624,394.386 -1718.624,411.053 -1718.624,450.72 -1689.835,450.72 -1689.835,411.053 
			-1668.507,411.053 -1668.507,450.72 -1639.717,450.72 -1639.717,411.053 -1639.717,394.386 		"/>
		<path d="M-1704.229,465.114c7.949,0,14.395-6.444,14.395-14.395h-28.789C-1718.624,458.67-1712.18,465.114-1704.229,465.114z"/>
		<path d="M-1654.112,465.114c7.951,0,14.396-6.444,14.396-14.395h-28.79C-1668.507,458.67-1662.062,465.114-1654.112,465.114z"/>
		<path fill="#5B5C5C" d="M-1704.229,436.325c-7.95,0-14.395,6.444-14.395,14.395h28.789
			C-1689.835,442.77-1696.28,436.325-1704.229,436.325z"/>
		<path fill="#5B5C5C" d="M-1654.112,436.325c-7.949,0-14.395,6.444-14.395,14.395h28.79
			C-1639.717,442.77-1646.161,436.325-1654.112,436.325z"/>
		<g>
			<g>
				<path fill="#B69FCC" d="M-1698.127,342.249c0.692-0.213,1.112-0.071,1.253,0.416c1.805,6.229,2.706,9.343,4.51,15.572
					c0.134,0.463-0.042,0.802-0.545,0.957c-1.107,0.341-1.656,0.527-2.746,0.938c-0.471,0.177-0.844,0.027-1.021-0.42
					c-2.387-6.029-3.58-9.042-5.967-15.071c-0.187-0.472,0.093-0.855,0.74-1.1C-1700.405,342.976-1699.649,342.718-1698.127,342.249
					z"/>
				<path fill="#B69FCC" d="M-1688.788,340.111c0.71-0.108,1.101,0.097,1.168,0.599c0.533,3.937,0.798,5.905,1.331,9.841
					c0.262,1.934,0.559,3.052,2.638,2.862s2.166-1.343,2.073-3.292c-0.188-3.967-0.282-5.951-0.47-9.919
					c-0.024-0.506,0.358-0.779,1.038-0.801c1.604-0.05,2.407-0.05,4.01,0c0.715,0.022,1.061,0.295,1.037,0.801
					c-0.214,4.504-0.32,6.755-0.533,11.258c-0.079,1.67-0.668,5.736-6.759,6.291c-6.091,0.555-7.428-3.329-7.809-4.957
					c-1.027-4.39-1.539-6.586-2.566-10.977c-0.115-0.493,0.212-0.832,0.881-0.977
					C-1691.172,340.5-1690.378,340.354-1688.788,340.111z"/>
				<path fill="#B69FCC" d="M-1663.714,341.195c6.239,1.511,7.922,4.529,6.393,8.392s-4.181,4.651-9.253,3.424
					c-0.547-0.133-0.822-0.196-1.372-0.313c-0.543-0.116-0.909,0.072-1.006,0.569c-0.313,1.591-0.469,2.389-0.782,3.979
					c-0.098,0.497-0.402,0.694-0.917,0.603c-1.153-0.206-1.731-0.296-2.891-0.431c-0.492-0.058-0.751-0.36-0.703-0.84
					c0.641-6.443,0.961-9.663,1.604-16.106c0.05-0.505,0.431-0.724,1.147-0.666C-1668.361,340.17-1666.798,340.448-1663.714,341.195
					z M-1665.363,348.825c1.479,0.363,2.252,0.44,2.687-1.068s-0.297-1.895-1.866-2.28c-0.706-0.174-1.061-0.253-1.771-0.405
					c-0.624-0.134-1.034,0.044-1.131,0.541c-0.149,0.756-0.224,1.133-0.373,1.889c-0.093,0.473,0.195,0.813,0.784,0.938
					C-1666.363,348.583-1666.029,348.661-1665.363,348.825z"/>
			</g>
		</g>
	</g>
	<g>
		<path fill="#E9E9EA" d="M-1602.136,258.755c-0.893,0-1.756,0.118-2.586,0.318c-8.77-28.624-38.908-49.726-74.753-49.726
			s-65.983,21.102-74.753,49.726c-0.83-0.2-1.693-0.318-2.586-0.318c-6.074,0-11,4.925-11,11s4.926,11,11,11
			c0.068,0,0.133-0.009,0.199-0.011c2.715,33.829,36.201,49.417,77.14,49.417c40.938,0,74.425-15.588,77.14-49.417
			c0.066,0.002,0.131,0.011,0.199,0.011c6.074,0,11-4.925,11-11S-1596.062,258.755-1602.136,258.755z"/>
		<path fill="none" stroke="#000000" stroke-width="3" stroke-linecap="round" stroke-miterlimit="10" d="M-1679.475,261.391
			c0,0,0.812,8.268,4.312,12.572l-4.312,3.555"/>
		<path fill="none" stroke="#000000" stroke-width="3" stroke-linecap="round" stroke-miterlimit="10" d="M-1691.743,284.226
			c0,5.106,3.842,12.917,12.318,12.917s12.827-6.482,12.827-12.827"/>
		<path fill="#604E75" d="M-1728.806,338.464c4.591-11.506-4.857-20.418-10.387-24.648c-8.191-6.268-23.824-30.232-15.473-54.742
			c9.243-27.128,42.665-37.013,55.192-37.99c21.372-1.667,36.333,12.333,44.315,0s-16.982-23.333-16.982-23.333
			c-30-9.668-56.885,2.333-74.627,17.333c-26.868,22.716-31.902,63.65-14.373,98c5.55,10.875,8.467,16.334-1.2,21.167
			c0,0-5.5,3.833-7.5,0.667c0,0-0.167,4.333,7,5c0,0-1.333,3.05-4.333,2.107c0,0,3.812,1.742,6.771,0.434
			c0,0-0.375,1.813-2.75,1.875C-1765.738,344.401-1735.538,355.337-1728.806,338.464z"/>
		<path fill="#604E75" d="M-1628.952,341.75c-10.229-10.833-3.265-19.167,1.801-23.315c9.908-8.114,33.218-30.908,22.365-59.361
			c-9.969-26.136-31.093-24.86-41.511-29.657c-10.137-4.666-17.804-17.666-17.804-17.666c13.667-14.666,39.161-6.734,62,15
			c22.223,21.148,20.735,67.705,6,91.667c-5.739,9.333-2.333,15.333,8,17c0,0,5.095,1.76,7.095-0.537s-1.333,4.37-5.5,4.37
			s-1.499,1.499,2.167,1.833c0,0-2.927,1.5-6.797,1.334c0,0-1.037,0.666,0.963,1.5
			C-1590.173,343.917-1619.737,351.509-1628.952,341.75z"/>
		<path fill="#E9E9EA" d="M-1602.335,280.744c0.066,0.002,0.131,0.01,0.199,0.01c6.074,0,11-4.925,11-11c0-6.074-4.926-11-11-11
			c-0.893,0-1.756,0.118-2.586,0.318l-5.525,12.451L-1602.335,280.744z"/>
		<path fill="#E9E9EA" d="M-1756.613,280.744c-0.066,0.002-0.131,0.01-0.199,0.01c-6.074,0-11-4.925-11-11c0-6.074,4.926-11,11-11
			c0.893,0,1.756,0.118,2.586,0.318l5.525,12.451L-1756.613,280.744z"/>
		<circle fill="#C4C4C3" cx="-1725.342" cy="293.121" r="9.595"/>
		<circle fill="#C4C4C3" cx="-1633.098" cy="293.121" r="9.595"/>
		<path fill="none" stroke="#000000" stroke-width="3" stroke-linecap="round" stroke-miterlimit="10" d="M-1732.348,262.177
			c0,2.075,1.561,5.25,5.006,5.25s5.214-2.635,5.214-5.213"/>
		<path fill="none" stroke="#000000" stroke-width="3" stroke-linecap="round" stroke-miterlimit="10" d="M-1727.238,257.387
			c0,2.075,1.561,5.25,5.006,5.25c1.54,0,2.744-0.526,3.605-1.338"/>
		<path fill="none" stroke="#000000" stroke-width="3" stroke-linecap="round" stroke-miterlimit="10" d="M-1627.322,257.387
			c0,2.075-1.561,5.25-5.006,5.25c-1.539,0-2.744-0.526-3.605-1.338"/>
		<path fill="none" stroke="#000000" stroke-width="3" stroke-linecap="round" stroke-miterlimit="10" d="M-1632.51,262.177
			c0,2.075,1.561,5.25,5.006,5.25s5.214-2.635,5.214-5.213"/>
		<g>
			<circle cx="-1717.628" cy="264.901" r="7.5"/>
			<circle fill="#FFFFFF" cx="-1720.122" cy="262.858" r="3.03"/>
		</g>
		<g>
			<circle cx="-1637.128" cy="264.901" r="7.5"/>
			<circle fill="#FFFFFF" cx="-1639.622" cy="262.858" r="3.03"/>
		</g>
	</g>
</g>
<g>
	<g>
		<path fill="#E9E9EA" d="M-1400.794,30.468h2.438c5.94,0,10.801,4.86,10.801,10.8v32.733c0,5.939-4.86,10.8-10.801,10.8h-2.438
			V30.468z"/>
		<path fill="#E9E9EA" d="M-1479.701,30.468h-2.438c-5.939,0-10.8,4.86-10.8,10.8v32.733c0,5.939,4.86,10.8,10.8,10.8h2.438V30.468z
			"/>
		<path fill="#5B5C5C" d="M-1398.356,30.468h-2.438h-78.907h-2.438c-5.939,0-10.8,4.86-10.8,10.8v5.699h13.237v54.5h78.907v-54.5
			h13.238v-5.699C-1387.556,35.328-1392.416,30.468-1398.356,30.468z"/>
		<polygon fill="#604E75" points="-1479.701,101.467 -1479.701,118.134 -1479.701,157.801 -1450.911,157.801 -1450.911,118.134 
			-1429.583,118.134 -1429.583,157.801 -1400.794,157.801 -1400.794,118.134 -1400.794,101.467 		"/>
		<path d="M-1465.307,172.195c7.95,0,14.396-6.444,14.396-14.395h-28.79C-1479.701,165.751-1473.256,172.195-1465.307,172.195z"/>
		<path d="M-1415.188,172.195c7.95,0,14.395-6.444,14.395-14.395h-28.789C-1429.583,165.751-1423.138,172.195-1415.188,172.195z"/>
		<path fill="#604E75" d="M-1465.307,143.406c-7.949,0-14.395,6.444-14.395,14.395h28.79
			C-1450.911,149.851-1457.356,143.406-1465.307,143.406z"/>
		<path fill="#604E75" d="M-1415.188,143.406c-7.949,0-14.395,6.444-14.395,14.395h28.789
			C-1400.794,149.851-1407.238,143.406-1415.188,143.406z"/>
		<g>
			<g>
				<path fill="#E9E9EA" d="M-1473.586,52.55c1.461-0.578,2.197-0.851,3.675-1.364c0.197,0.567,0.295,0.851,0.492,1.418
					c-0.319,0.111-0.479,0.167-0.798,0.28c0.727,2.033,1.089,3.048,1.816,5.081c0.299-0.107,0.45-0.16,0.75-0.264
					c0.195,0.562,0.292,0.843,0.487,1.405c-1.343,0.466-2.011,0.714-3.338,1.239c-0.219-0.553-0.329-0.83-0.548-1.383
					c0.296-0.118,0.446-0.175,0.743-0.29c-0.776-2.015-1.162-3.021-1.938-5.036c-0.316,0.122-0.476,0.183-0.791,0.308
					C-1473.256,53.386-1473.366,53.108-1473.586,52.55z"/>
				<path fill="#E9E9EA" d="M-1461.935,48.793c1.383-0.343,2.079-0.5,3.472-0.788c0.122,0.587,0.182,0.88,0.304,1.467
					c-0.328,0.068-0.493,0.103-0.82,0.174c0.584,2.701,0.876,4.052,1.461,6.753c-0.48,0.104-0.719,0.157-1.198,0.268
					c-2.036-1.685-3.101-2.498-5.318-4.053c0.41,1.444,0.615,2.167,1.025,3.612c0.157-0.044,0.918-0.256,0.918-0.256
					c0.157,0.579,0.235,0.869,0.393,1.447c-1.25,0.339-1.874,0.521-3.113,0.91c-0.18-0.572-0.27-0.858-0.449-1.43
					c0.36-0.113,0.541-0.168,0.901-0.277c-0.625-2.071-0.936-3.107-1.561-5.179c-0.384,0.116-0.577,0.175-0.96,0.295
					c-0.18-0.572-0.27-0.858-0.449-1.431c1.163-0.365,1.747-0.538,2.918-0.863c1.862,1.351,2.763,2.048,4.499,3.487
					c-0.275-1.167-0.414-1.75-0.689-2.917c-0.389,0.092-0.582,0.138-0.97,0.234C-1461.716,49.666-1461.791,49.375-1461.935,48.793z"
					/>
				<path fill="#E9E9EA" d="M-1447.108,50.604c0.198,2.403-1.544,4.328-3.814,4.63c-1.451,0.193-2.175,0.307-3.619,0.564
					c-0.106-0.595-0.159-0.893-0.266-1.488c0.295-0.053,0.443-0.078,0.738-0.128c-0.359-2.119-0.538-3.179-0.897-5.298
					c-0.314,0.053-0.471,0.081-0.785,0.137c-0.107-0.6-0.161-0.899-0.268-1.499c1.59-0.284,2.388-0.409,3.986-0.622
					C-1449.346,46.544-1447.306,48.203-1447.108,50.604z M-1452.049,53.866c0.257-0.037,0.385-0.055,0.642-0.09
					c1.84-0.251,2.344-1.638,2.202-2.974c-0.144-1.347-1.154-2.592-2.927-2.35c-0.273,0.037-0.411,0.057-0.684,0.096
					C-1452.509,50.675-1452.356,51.738-1452.049,53.866z"/>
				<path fill="#E9E9EA" d="M-1445.553,46.309c1.541-0.094,2.313-0.125,3.856-0.154c0.011,0.6,0.018,0.9,0.029,1.5
					c-0.333,0.006-0.5,0.01-0.833,0.02c0.061,2.158,0.09,3.235,0.151,5.393c0.313-0.009,0.47-0.012,0.783-0.018
					c0.011,0.595,0.018,0.892,0.029,1.487c-1.401,0.026-2.103,0.054-3.502,0.14c-0.037-0.594-0.054-0.891-0.09-1.484
					c0.313-0.019,0.469-0.028,0.782-0.044c-0.112-2.155-0.167-3.231-0.279-5.387c-0.333,0.017-0.5,0.025-0.833,0.046
					C-1445.498,47.207-1445.517,46.908-1445.553,46.309z"/>
				<path fill="#E9E9EA" d="M-1433.765,46.337c0,0,2.488,6.832,2.62,7.136c0.372,0.039,0.556,0.059,0.927,0.102
					c-0.069,0.596-0.104,0.894-0.173,1.49c-1.399-0.163-2.101-0.229-3.505-0.332c0.043-0.593,0.065-0.89,0.108-1.483
					c0.184,0.014,0.276,0.02,0.459,0.034c-0.125-0.311-0.228-0.619-0.367-0.942c-0.993-0.073-1.49-0.102-2.484-0.146
					c-0.157,0.358-0.235,0.537-0.389,0.896c0.184,0.007,0.275,0.011,0.459,0.02c-0.027,0.594-0.04,0.892-0.067,1.486
					c-1.215-0.056-1.823-0.072-3.04-0.083c0.005-0.6,0.008-0.899,0.014-1.499c0.373,0.003,0.56,0.006,0.933,0.014
					c0.316-0.894,3.296-6.765,3.296-6.765c0.494,0.027,0.742,0.043,1.236,0.077C-1433.748,46.339-1433.754,46.338-1433.765,46.337z
					 M-1434.147,50.807c-0.256-0.686-0.388-1.028-0.656-1.712c-0.325,0.649-0.484,0.974-0.799,1.626
					C-1435.019,50.75-1434.729,50.768-1434.147,50.807z"/>
				<path fill="#E9E9EA" d="M-1421.665,47.966c1.393,0.285,2.087,0.441,3.471,0.781c-0.143,0.583-0.214,0.873-0.357,1.455
					c-0.326-0.08-0.489-0.119-0.816-0.196c-0.634,2.69-0.95,4.034-1.584,6.724c-0.479-0.113-0.718-0.167-1.198-0.273
					c-1.113-2.396-1.723-3.588-3.046-5.944c-0.251,1.48-0.376,2.222-0.627,3.702c0.16,0.027,0.934,0.163,0.934,0.163
					c-0.107,0.59-0.161,0.886-0.268,1.476c-1.269-0.23-1.905-0.333-3.18-0.514c0.084-0.594,0.126-0.891,0.21-1.484
					c0.37,0.052,0.555,0.08,0.924,0.137c0.327-2.139,0.491-3.208,0.818-5.348c-0.394-0.06-0.589-0.089-0.983-0.145
					c0.084-0.594,0.126-0.891,0.21-1.485c1.196,0.169,1.793,0.265,2.985,0.474c1.093,2.019,1.603,3.036,2.55,5.081
					c0.253-1.172,0.379-1.758,0.632-2.93c-0.39-0.084-0.584-0.126-0.976-0.206C-1421.845,48.847-1421.785,48.554-1421.665,47.966z"
					/>
				<path fill="#E9E9EA" d="M-1410.5,51.01c0,0,0.684,7.258,0.734,7.586c0.354,0.136,0.531,0.205,0.884,0.344
					c-0.221,0.558-0.331,0.837-0.552,1.395c-1.332-0.527-2.002-0.776-3.35-1.244c0.195-0.562,0.294-0.844,0.489-1.406
					c0.176,0.061,0.264,0.092,0.44,0.154c-0.043-0.333-0.065-0.658-0.119-1.007c-0.954-0.331-1.431-0.489-2.392-0.792
					c-0.245,0.305-0.368,0.458-0.61,0.765c0.178,0.055,0.268,0.083,0.446,0.14c-0.179,0.567-0.27,0.851-0.449,1.418
					c-1.173-0.371-1.764-0.545-2.947-0.871c0.159-0.578,0.24-0.868,0.399-1.446c0.363,0.1,0.545,0.151,0.907,0.255
					c0.538-0.782,4.957-5.68,4.957-5.68c0.477,0.155,0.713,0.235,1.188,0.397C-1410.485,51.016-1410.49,51.013-1410.5,51.01z
					 M-1412.021,55.231c-0.075-0.729-0.115-1.095-0.202-1.826c-0.485,0.542-0.725,0.813-1.2,1.361
					C-1412.861,54.947-1412.58,55.042-1412.021,55.231z"/>
			</g>
		</g>
	</g>
	<g>
		<path fill="#E9E9EA" d="M-1363.222-33.164c-0.893,0-1.756,0.118-2.586,0.318c-8.77-28.624-38.908-49.725-74.753-49.725
			c-35.846,0-65.984,21.101-74.752,49.725c-0.831-0.201-1.693-0.318-2.586-0.318c-6.076,0-11,4.925-11,11c0,6.075,4.924,11,11,11
			c0.066,0,0.132-0.009,0.199-0.01c2.713,33.829,36.201,49.417,77.139,49.417s74.425-15.588,77.14-49.417
			c0.066,0.001,0.131,0.01,0.199,0.01c6.074,0,11-4.925,11-11C-1352.222-28.239-1357.147-33.164-1363.222-33.164z"/>
		<g>
			<circle cx="-1481.303" cy="-25.456" r="7.5"/>
			<circle fill="#FFFFFF" cx="-1483.797" cy="-27.499" r="3.029"/>
		</g>
		<g>
			<circle cx="-1400.803" cy="-25.456" r="7.5"/>
			<circle fill="#FFFFFF" cx="-1403.297" cy="-27.499" r="3.03"/>
		</g>
		<path fill="none" stroke="#000000" stroke-width="3" stroke-linecap="round" stroke-miterlimit="10" d="M-1440.561-30.529
			c0,0,0.812,8.268,4.312,12.573l-4.312,3.555"/>
		<path fill="none" stroke="#000000" stroke-width="3" stroke-linecap="round" stroke-miterlimit="10" d="M-1452.829-7.693
			c0,5.106,3.842,12.917,12.318,12.917s12.827-6.482,12.827-12.827"/>
		<path fill="#B69FCC" d="M-1388.746-70.9L-1388.746-70.9C-1388.746-70.9-1388.746-70.9-1388.746-70.9
			c-1.28-0.946-2.444-1.776-3.42-2.501c-1.853-1.379-4.369-2.847-7.429-4.276c-16.112-12.402-23.727-29.564-23.727-29.564
			c-3,9.667-8.751,6.667-8.751,6.667c-2.751-1-3.083-6-3.083-6c-0.5,3.5-4,6.5-6.666,4.167c-2.667-2.333-4-11.5-4-11.5
			s-1.5,18-8.334,16.833c-6.833-1.167-6.166-5.167-6.166-5.167c-0.968,10.89-16.194,21.368-24.47,26.295
			c-1.881,0.93-3.637,1.909-5.25,2.928c-0.002,0-0.012,0.005-0.012,0.005h0.002c-2.631,1.663-4.881,3.431-6.615,5.279
			c-10.324,11.001-19.127,25.778-18.646,34.889c0,0,2.813,3.335,2.813,7.39h5.5c0,0,0.5-26.445,16-36.445
			c0,0,25.348-10.674,48.515-9.841c23.166,0.833,50.819,8.674,50.819,8.674c19.667,12.667,17.667,37.612,17.667,37.612h5.332
			c0.166-4.055,2.859-7.39,2.859-7.39C-1367.604-54.032-1380.615-64.896-1388.746-70.9z"/>
	</g>
</g>
<g>
	<g>
		<path fill="#E9E9EA" d="M-1862.408,323.387h2.438c5.939,0,10.8,4.86,10.8,10.8v32.733c0,5.939-4.86,10.8-10.8,10.8h-2.438V323.387
			z"/>
		<path fill="#E9E9EA" d="M-1941.316,323.387h-2.438c-5.94,0-10.8,4.86-10.8,10.8v32.733c0,5.939,4.859,10.8,10.8,10.8h2.438
			V323.387z"/>
		<path fill="#B69FCC" d="M-1859.971,323.387h-2.438h-78.908h-2.438c-5.94,0-10.8,4.86-10.8,10.8v5.699h13.237v54.5h78.908v-54.5
			h13.237v-5.699C-1849.171,328.247-1854.031,323.387-1859.971,323.387z"/>
		<polygon fill="#C4C4C3" points="-1941.316,394.386 -1941.316,411.053 -1941.316,450.72 -1912.526,450.72 -1912.526,411.053 
			-1891.198,411.053 -1891.198,450.72 -1862.408,450.72 -1862.408,411.053 -1862.408,394.386 		"/>
		<path d="M-1926.922,465.114c7.95,0,14.396-6.444,14.396-14.395h-28.79C-1941.316,458.67-1934.872,465.114-1926.922,465.114z"/>
		<path d="M-1876.804,465.114c7.95,0,14.396-6.444,14.396-14.395h-28.79C-1891.198,458.67-1884.753,465.114-1876.804,465.114z"/>
		<path fill="#C4C4C3" d="M-1926.922,436.325c-7.95,0-14.395,6.444-14.395,14.395h28.79
			C-1912.526,442.77-1918.972,436.325-1926.922,436.325z"/>
		<path fill="#C4C4C3" d="M-1876.804,436.325c-7.949,0-14.395,6.444-14.395,14.395h28.79
			C-1862.408,442.77-1868.854,436.325-1876.804,436.325z"/>
		<g>
			<g>
				<path fill="#5B5C5C" d="M-1928.018,347.611c0.005,1.075-0.327,2.525-2.473,3.262c-2.124,0.729-4.295-0.303-5.158-2.479
					c-0.926-2.34,0.151-4.519,2.486-5.318c0.799-0.273,1.463-0.328,1.833-0.276c-0.054-0.168-0.081-0.253-0.135-0.421
					c0.628-0.201,0.943-0.298,1.574-0.487c0.373,1.239,0.559,1.858,0.931,3.098c-0.608,0.183-0.912,0.277-1.518,0.472
					c-0.055-0.172-0.083-0.258-0.138-0.43c-0.177-0.552-0.979-0.92-2.067-0.547c-0.762,0.261-1.616,1.2-0.909,3.127
					c0.659,1.796,1.906,2.119,2.623,1.873c1.172-0.402,1.433-1.563,1.387-1.706
					C-1928.955,347.704-1928.642,347.672-1928.018,347.611z"/>
				<path fill="#5B5C5C" d="M-1918.722,346.242c0.104,0.575,0.157,0.86,0.261,1.436c-0.802,0.146-1.202,0.224-2.001,0.39
					c-0.327-0.074-1.008-0.378-1.227-1.375c-0.124-0.566-0.823-1.607-2.049-1.47c0.189,0.79,0.285,1.186,0.474,1.976
					c0.297-0.071,0.446-0.107,0.744-0.176c0.131,0.569,0.197,0.855,0.328,1.425c-1.323,0.305-1.982,0.471-3.294,0.83
					c-0.154-0.563-0.231-0.848-0.386-1.411c0.347-0.095,0.521-0.144,0.868-0.234c-0.53-2.023-0.797-3.032-1.327-5.056
					c-0.369,0.097-0.552,0.144-0.92,0.244c-0.153-0.56-0.229-0.839-0.382-1.398c1.506-0.412,2.262-0.603,3.78-0.948
					c2.024-0.461,2.908,0.712,3.107,1.725c0.168,0.854-0.406,1.818-0.383,1.994c0.032,0.242,1.002,1.148,1.168,1.99
					c0.056,0.284,0.361,0.225,0.361,0.225C-1919.249,346.34-1919.074,346.307-1918.722,346.242z M-1923.457,343.669
					c0.715-0.166,0.962-0.657,0.868-1.088s-0.498-0.795-1.104-0.655c-0.316,0.073-0.474,0.109-0.79,0.185
					c0.163,0.681,0.244,1.023,0.407,1.704C-1923.829,343.755-1923.704,343.727-1923.457,343.669z"/>
				<path fill="#5B5C5C" d="M-1917.499,339.299c1.458-0.225,2.188-0.323,3.651-0.489c0.065,0.576,0.096,0.865,0.162,1.441
					c-0.316,0.036-0.473,0.051-0.789,0.09c0.253,2.072,0.38,3.109,0.633,5.181c0.297-0.036,0.446-0.054,0.744-0.088
					c0.065,0.571,0.098,0.857,0.163,1.429c-1.333,0.151-1.999,0.242-3.327,0.447c-0.088-0.568-0.131-0.854-0.219-1.422
					c0.297-0.046,0.445-0.068,0.742-0.111c-0.3-2.065-0.451-3.1-0.751-5.165c-0.315,0.046-0.473,0.069-0.788,0.118
					C-1917.366,340.156-1917.41,339.872-1917.499,339.299z"/>
				<path fill="#5B5C5C" d="M-1902.812,338.209c1.024,0.009,1.536,0.021,2.561,0.059c-0.021,0.579-0.031,0.869-0.052,1.448
					c-0.378-0.014-0.566-0.02-0.945-0.029c-0.055,2.092-0.083,3.136-0.138,5.228c0.356,0.009,0.535,0.017,0.891,0.029
					c-0.021,0.579-0.031,0.867-0.053,1.446c-1.339-0.049-2.008-0.06-3.348-0.055c-0.002-0.579-0.004-0.868-0.006-1.448
					c0.233-0.001,0.349-0.001,0.582,0c0.003-1.049,0.005-1.574,0.009-2.622c-0.798,1.625-1.179,2.443-1.903,4.086
					c-0.354,0.007-0.532,0.013-0.886,0.023c0,0-1.74-2.984-2.417-4.096c0.062,1.098,0.093,1.646,0.155,2.743
					c0.237-0.014,0.354-0.02,0.592-0.031c0.029,0.579,0.042,0.867,0.071,1.446c-1.166,0.058-1.748,0.097-2.911,0.195
					c-0.049-0.577-0.073-0.864-0.122-1.442c0.36-0.03,0.54-0.046,0.9-0.072c-0.155-2.086-0.233-3.13-0.388-5.216
					c-0.382,0.028-0.573,0.044-0.956,0.076c-0.049-0.578-0.073-0.866-0.122-1.444c0.96-0.081,1.441-0.116,2.403-0.172
					c1.404,2.069,2.069,3.118,3.324,5.237C-1904.534,341.427-1903.982,340.347-1902.812,338.209z"/>
				<path fill="#5B5C5C" d="M-1891.481,344.878c-0.329,2.295-2.647,1.993-3.379,1.916c-0.731-0.077-1.566-0.441-1.824-1.045
					c-0.029,0.347-0.042,0.521-0.071,0.867c-0.582-0.048-0.873-0.069-1.455-0.107c0.086-1.333,0.129-2,0.216-3.333
					c0.605,0.039,0.909,0.063,1.514,0.113c-0.024,0.291-0.037,0.438-0.061,0.729c-0.048,0.578,0.651,1.216,1.538,1.307
					c0.745,0.076,1.655-0.121,1.707-0.548c0.088-0.726-0.486-0.963-1.803-1.502c-1.007-0.412-2.679-0.955-2.573-2.552
					c0.086-1.295,1.588-2.237,3.349-2.058c1.123,0.114,1.542,0.615,1.641,1.071c0.042-0.35,0.062-0.526,0.104-0.876
					c0.642,0.078,0.963,0.118,1.604,0.208c-0.153,1.094-0.229,1.644-0.381,2.736c-0.622-0.087-0.933-0.126-1.555-0.201
					c0.007-0.056,0.011-0.085,0.018-0.141c0.052-0.426-0.323-1.215-1.578-1.343c-0.477-0.049-1.131,0.182-1.171,0.621
					c-0.038,0.427,0.437,0.636,1.463,1.02C-1893.013,342.197-1891.192,342.857-1891.481,344.878z"/>
				<path fill="#5B5C5C" d="M-1881.294,345.188c-0.795,3.004-3.098,3.481-4.874,3.1c-1.901-0.408-3.645-1.897-3.159-4.825
					c0.465-2.803,2.818-3.776,4.911-3.326C-1882.461,340.557-1880.528,342.296-1881.294,345.188z M-1883.434,344.651
					c0.381-1.602-0.181-2.811-1.297-3.051c-1.265-0.271-2.257,0.607-2.565,2.225c-0.304,1.594,0.251,2.757,1.44,3.013
					C-1884.806,347.063-1883.809,346.23-1883.434,344.651z"/>
				<path fill="#5B5C5C" d="M-1873.23,343.408c1.289,0.455,1.933,0.696,3.208,1.201c-0.213,0.539-0.32,0.809-0.534,1.348
					c-0.3-0.119-0.452-0.178-0.753-0.294c-0.961,2.492-1.441,3.74-2.402,6.232c-0.443-0.171-0.664-0.253-1.109-0.417
					c-0.746-2.441-1.168-3.664-2.111-6.095c-0.439,1.384-0.658,2.076-1.097,3.46c0.149,0.048,0.869,0.28,0.869,0.28
					c-0.181,0.551-0.273,0.827-0.454,1.378c-1.181-0.389-1.773-0.571-2.964-0.915c0.161-0.557,0.241-0.835,0.401-1.392
					c0.346,0.1,0.519,0.149,0.863,0.253c0.601-2.004,0.901-3.007,1.502-5.011c-0.366-0.109-0.549-0.164-0.916-0.27
					c0.161-0.557,0.24-0.836,0.4-1.393c1.113,0.321,1.668,0.491,2.774,0.849c0.768,2.076,1.119,3.114,1.751,5.197
					c0.398-1.089,0.597-1.633,0.995-2.722c-0.361-0.132-0.543-0.196-0.905-0.324
					C-1873.519,344.229-1873.423,343.955-1873.23,343.408z"/>
			</g>
		</g>
		<g>
			<g>
				<path fill="#5B5C5C" d="M-1923.685,360.771c1.414,0.45,2.125,0.657,3.556,1.027c-0.15,0.58-0.225,0.871-0.375,1.451
					c-0.307-0.08-0.461-0.121-0.768-0.204c-0.565,2.084-0.847,3.126-1.413,5.21c0.331,0.09,0.496,0.132,0.827,0.218
					c-0.15,0.581-0.226,0.871-0.376,1.452c-1.608-0.417-2.409-0.65-3.998-1.156c0.182-0.571,0.273-0.853,0.455-1.424
					c0.395,0.126,0.592,0.183,0.988,0.303c0.244-0.804,0.365-1.202,0.609-2.006c-1.149-0.349-1.721-0.534-2.858-0.932
					c-0.277,0.793-0.415,1.188-0.691,1.98c0.392,0.137,0.588,0.206,0.981,0.337c-0.189,0.569-0.285,0.852-0.475,1.421
					c-1.584-0.528-2.37-0.814-3.93-1.432c0.221-0.558,0.332-0.837,0.553-1.395c0.321,0.127,0.482,0.19,0.804,0.313
					c0.771-2.017,1.156-3.026,1.927-5.043c-0.299-0.114-0.448-0.17-0.746-0.288c0.221-0.558,0.332-0.837,0.552-1.395
					c1.388,0.55,2.087,0.804,3.496,1.273c-0.189,0.569-0.286,0.854-0.476,1.424c-0.365-0.122-0.547-0.188-0.91-0.314
					c-0.237,0.68-0.355,1.021-0.593,1.7c1.114,0.389,1.674,0.574,2.8,0.915c0.209-0.688,0.313-1.037,0.522-1.726
					c-0.367-0.111-0.551-0.166-0.917-0.282C-1923.957,361.629-1923.866,361.342-1923.685,360.771z"/>
				<path fill="#5B5C5C" d="M-1913.027,363.233c0,0,2.185,6.922,2.33,7.227c0.402,0.041,0.603,0.059,1.005,0.094
					c-0.053,0.598-0.079,0.896-0.131,1.494c-1.577-0.139-2.363-0.227-3.933-0.447c0.083-0.589,0.123-0.885,0.206-1.474
					c0.198,0.027,0.297,0.042,0.495,0.068c-0.121-0.318-0.213-0.634-0.341-0.967c-1.045-0.146-1.567-0.229-2.608-0.413
					c-0.211,0.333-0.318,0.498-0.532,0.83c0.197,0.036,0.296,0.053,0.494,0.087c-0.103,0.586-0.155,0.882-0.258,1.468
					c-1.353-0.237-2.027-0.374-3.37-0.673c0.13-0.585,0.196-0.877,0.327-1.462c0.396,0.088,0.595,0.131,0.993,0.214
					c0.501-0.815,4.235-6.214,4.235-6.214c0.445,0.073,0.668,0.106,1.114,0.172
					C-1913.012,363.236-1913.018,363.234-1913.027,363.233z M-1913.757,367.661c-0.207-0.705-0.307-1.058-0.5-1.764
					c-0.382,0.614-0.576,0.922-0.971,1.531C-1914.64,367.528-1914.347,367.574-1913.757,367.661z"/>
				<path fill="#5B5C5C" d="M-1900.725,363.897c1.221-0.045,1.831-0.08,3.049-0.18c0.049,0.603,0.073,0.906,0.122,1.509
					c-0.314,0.025-0.472,0.036-0.786,0.059c-0.149,0.011-0.139,0.139-0.139,0.139c-0.755,2.768-1.179,4.148-2.119,6.894
					c-0.555,0.019-0.832,0.026-1.386,0.035c-0.649-1.736-0.956-2.607-1.533-4.356c-0.655,1.743-1.003,2.611-1.737,4.339
					c-0.483-0.013-0.724-0.022-1.208-0.043c-0.847-2.683-1.228-4.03-1.906-6.731c0.013-0.167-0.127-0.31-0.289-0.322
					c-0.314-0.025-0.472-0.038-0.786-0.066c0.055-0.602,0.083-0.903,0.137-1.505c1.466,0.133,2.201,0.179,3.671,0.232
					c-0.022,0.604-0.034,0.907-0.056,1.511c-0.25-0.009-0.374-0.014-0.623-0.025c0.32,1.216,0.488,1.82,0.841,3.032
					c0.714-1.782,1.05-2.679,1.682-4.477c0.425,0.004,0.638,0.003,1.063,0c0.627,1.8,0.961,2.698,1.67,4.482
					c0.355-1.211,0.525-1.817,0.848-3.032c-0.185,0.008-0.278,0.013-0.463,0.02
					C-1900.694,364.807-1900.703,364.501-1900.725,363.897z"/>
				<path fill="#5B5C5C" d="M-1886.081,368.874c0.333-0.078,0.498-0.121,0.83-0.203c0.143,0.577,0.215,0.868,0.358,1.445
					c-1.611,0.4-2.421,0.574-4.047,0.885c-0.112-0.584-0.168-0.876-0.28-1.46c-1.127-0.825-1.674-1.247-2.741-2.113
					c0.16,1.01,0.239,1.514,0.398,2.523c0.336-0.054,0.505-0.079,0.841-0.136c0.1,0.587,0.149,0.879,0.249,1.466
					c-1.56,0.265-2.343,0.377-3.912,0.56c-0.069-0.591-0.104-0.887-0.172-1.478c0.338-0.039,0.506-0.061,0.843-0.104
					c-0.275-2.151-0.413-3.225-0.689-5.375c-0.313,0.04-0.47,0.06-0.783,0.096c-0.069-0.591-0.103-0.887-0.171-1.478
					c1.395-0.162,2.091-0.266,3.479-0.501c0.1,0.587,0.149,0.879,0.249,1.466c-0.312,0.053-0.466,0.083-0.778,0.132
					c0.084,0.535,0.125,0.803,0.21,1.338c0.842-0.856,1.25-1.293,2.04-2.174c-0.08-0.415-0.12-0.62-0.2-1.035
					c1.205-0.233,1.805-0.365,3.001-0.653c0.139,0.578,0.209,0.871,0.349,1.449c-0.372,0.09-0.558,0.131-0.931,0.215
					c-0.221,0.05-0.33,0.225-0.662,0.625c-0.242,0.292-1.033,1.279-1.585,1.834c1.238,0.989,1.877,1.472,3.196,2.405
					C-1886.727,368.791-1886.411,368.952-1886.081,368.874z"/>
				<path fill="#5B5C5C" d="M-1876.101,364.786c0.883,2.23-1.73,3.213-2.561,3.496c-0.83,0.283-1.901,0.309-2.419-0.159
					c0.106,0.344,0.16,0.519,0.266,0.862c-0.664,0.204-0.997,0.299-1.664,0.488c-0.376-1.329-0.565-1.995-0.941-3.324
					c0.637-0.181,0.954-0.271,1.587-0.467c0.089,0.289,0.135,0.434,0.224,0.723c0.177,0.573,1.173,0.894,2.142,0.568
					c0.814-0.273,1.66-0.908,1.507-1.326c-0.259-0.71-0.947-0.625-2.489-0.558c-1.179,0.051-3.053,0.147-3.507-1.444
					c-0.369-1.291,0.667-2.687,2.286-3.23c1.032-0.347,1.615-0.082,1.913,0.295c-0.125-0.343-0.187-0.513-0.312-0.855
					c0.587-0.214,0.88-0.323,1.463-0.551c0.416,1.063,0.623,1.595,1.039,2.658c-0.608,0.237-0.914,0.352-1.526,0.574
					c-0.02-0.055-0.029-0.081-0.049-0.136c-0.152-0.417-0.848-0.954-2.046-0.552c-0.456,0.153-0.966,0.63-0.828,1.064
					c0.134,0.423,0.667,0.445,1.809,0.351C-1878.911,363.156-1876.878,362.823-1876.101,364.786z"/>
			</g>
		</g>
	</g>
	<g>
		<path fill="#E9E9EA" d="M-1824.837,258.555c-0.893,0-1.755,0.117-2.586,0.318c-8.769-28.625-38.907-49.726-74.753-49.726
			c-35.845,0-65.983,21.101-74.753,49.726c-0.83-0.201-1.693-0.318-2.586-0.318c-6.074,0-11,4.924-11,11c0,6.074,4.926,11,11,11
			c0.068,0,0.133-0.01,0.199-0.011c2.715,33.828,36.201,49.416,77.14,49.416c40.938,0,74.426-15.588,77.14-49.416
			c0.067,0.001,0.132,0.011,0.199,0.011c6.075,0,11-4.926,11-11C-1813.837,263.479-1818.762,258.555-1824.837,258.555z"/>
		<g>
			<circle cx="-1942.918" cy="266.262" r="7.5"/>
			<circle fill="#FFFFFF" cx="-1945.412" cy="264.219" r="3.03"/>
		</g>
		<g>
			<circle cx="-1862.418" cy="266.262" r="7.5"/>
			<circle fill="#FFFFFF" cx="-1864.912" cy="264.219" r="3.03"/>
		</g>
		<path fill="none" stroke="#000000" stroke-width="3" stroke-linecap="round" stroke-miterlimit="10" d="M-1902.176,261.189
			c0,0,0.812,8.268,4.312,12.572l-4.312,3.555"/>
		<path fill="none" stroke="#000000" stroke-width="3" stroke-linecap="round" stroke-miterlimit="10" d="M-1914.444,284.025
			c0,5.105,3.842,12.916,12.318,12.916s12.827-6.481,12.827-12.826"/>
		<path fill="#604E75" d="M-1901.872,185.549c-11.729,23.599-36.259,25.295-44.533,30.223c-1.883,0.93-3.639,1.908-5.252,2.928
			l-0.01,0.005h0.002c-2.632,1.663-4.881,3.431-6.616,5.279c-10.324,11.001-19.127,25.778-18.647,34.89c0,0,2.814,3.334,2.814,7.389
			h5.5c0,0,0.5-26.445,16-36.445c0,0,25.348-10.674,48.514-9.84c23.167,0.833,50.819,8.674,50.819,8.674
			c19.667,12.667,17.667,37.611,17.667,37.611h5.333c0.166-4.055,2.858-7.389,2.858-7.389
			c-1.796-21.188-14.808-32.051-22.938-38.055h0.001c-0.001,0-0.001,0-0.001,0c-1.28-0.946-2.444-1.775-3.42-2.502
			c-1.853-1.379-4.369-2.846-7.428-4.275C-1892.434,206.716-1901.872,185.549-1901.872,185.549z"/>
	</g>
</g>
<g>
	<g>
		<path fill="#E9E9EA" d="M-1410.377,325.892h2.438c5.94,0,10.8,4.86,10.8,10.8v32.733c0,5.939-4.859,10.8-10.8,10.8h-2.438V325.892
			z"/>
		<path fill="#E9E9EA" d="M-1489.284,325.892h-2.438c-5.94,0-10.801,4.86-10.801,10.8v32.733c0,5.939,4.86,10.8,10.801,10.8h2.438
			V325.892z"/>
		<path fill="#333333" d="M-1407.939,325.892h-2.438h-78.907h-2.438c-5.94,0-10.801,4.86-10.801,10.8v5.699h13.238v54.5h78.907
			v-54.5h13.237v-5.699C-1397.14,330.752-1401.999,325.892-1407.939,325.892z"/>
		<polygon fill="#B69FCC" points="-1489.284,396.891 -1489.284,413.558 -1489.284,453.225 -1460.495,453.225 -1460.495,413.558 
			-1439.167,413.558 -1439.167,453.225 -1410.377,453.225 -1410.377,413.558 -1410.377,396.891 		"/>
		<path d="M-1474.89,467.619c7.949,0,14.395-6.444,14.395-14.395h-28.789C-1489.284,461.175-1482.84,467.619-1474.89,467.619z"/>
		<path d="M-1424.772,467.619c7.951,0,14.396-6.444,14.396-14.395h-28.79C-1439.167,461.175-1432.722,467.619-1424.772,467.619z"/>
		<path fill="#B69FCC" d="M-1474.89,438.83c-7.95,0-14.395,6.444-14.395,14.395h28.789
			C-1460.495,445.274-1466.94,438.83-1474.89,438.83z"/>
		<path fill="#B69FCC" d="M-1424.772,438.83c-7.949,0-14.395,6.444-14.395,14.395h28.79
			C-1410.377,445.274-1416.821,438.83-1424.772,438.83z"/>
		<g>
			<g>
				<path fill="#B69FCC" d="M-1473.552,344.407c1.531-0.451,2.301-0.658,3.847-1.035c0.162,0.665,0.244,0.997,0.406,1.662
					c-0.458,0.111-0.689,0.17-1.146,0.288c-0.075,1.263-1.269,7.85-1.242,8.558c-0.533,0.164-0.797,0.248-1.328,0.422
					c-0.389-0.593-5.555-5.688-5.988-6.255c-0.439,0.167-0.66,0.251-1.097,0.424c-0.252-0.637-0.378-0.954-0.63-1.591
					c1.645-0.651,2.473-0.953,4.142-1.515c0.218,0.648,0.327,0.974,0.545,1.622c-0.148,0.05-0.222,0.073-0.37,0.124
					c0.648,0.689,3.132,3.495,3.132,3.495c0.152-0.039,0.689-3.631,0.781-4.725c-0.228,0.065-0.341,0.099-0.568,0.166
					C-1473.262,345.392-1473.358,345.063-1473.552,344.407z"/>
				<path fill="#B69FCC" d="M-1455.054,346.813c-0.112,1.588-0.161,2.383-0.25,3.971c-3.276,0.242-4.913,0.453-8.154,1.058
					c-0.125-0.673-0.189-1.011-0.315-1.684c0.355-0.066,0.533-0.097,0.888-0.158c-0.424-2.433-0.635-3.65-1.058-6.083
					c-0.384,0.067-0.577,0.102-0.961,0.173c-0.125-0.673-0.188-1.008-0.314-1.681c3.424-0.639,5.151-0.868,8.61-1.148
					c0.5,1.267,0.743,1.9,1.213,3.174c-0.761,0.053-1.14,0.084-1.9,0.154c-0.244-0.665-0.526-1.512-1.677-1.383
					c-1,0.112-1.501,0.177-2.499,0.319c0.117,0.818,0.175,1.229,0.292,2.047c0.525-0.075,0.79-0.111,1.316-0.178
					c-0.035-0.276-0.054-0.415-0.089-0.691c0.753-0.095,1.13-0.14,1.885-0.217c0.126,1.23,0.19,1.85,0.316,3.08
					c-0.726,0.074-1.088,0.115-1.813,0.206c-0.034-0.271-0.052-0.407-0.086-0.679c-0.515,0.064-0.773,0.101-1.287,0.174
					c0.136,0.948,0.204,1.421,0.34,2.369c1.138-0.163,1.709-0.235,2.85-0.354c0.525-0.055,0.766-1.286,0.864-2.326
					C-1456.151,346.889-1455.786,346.861-1455.054,346.813z"/>
				<path fill="#B69FCC" d="M-1442.142,349.258c-0.069,0.687-0.104,1.03-0.174,1.717c-0.966-0.099-1.449-0.139-2.417-0.205
					c-0.351-0.188-1.036-0.752-0.971-1.954c0.037-0.684-0.442-2.09-1.907-2.31c-0.027,0.958-0.041,1.435-0.068,2.393
					c0.365,0.011,0.547,0.017,0.912,0.031c-0.027,0.689-0.042,1.035-0.069,1.725c-1.61-0.065-2.415-0.075-4.025-0.053
					c-0.01-0.689-0.014-1.037-0.024-1.727c0.428-0.006,0.64-0.006,1.068-0.006c0-2.47,0.001-3.705,0.002-6.174
					c-0.462,0-0.692,0.001-1.155,0.008c-0.009-0.685-0.015-1.024-0.024-1.709c1.901-0.026,2.852-0.013,4.751,0.068
					c2.531,0.108,3.188,1.734,3.087,2.948c-0.084,1.022-1.069,1.938-1.099,2.14c-0.041,0.281,0.787,1.623,0.704,2.634
					c-0.028,0.341,0.342,0.374,0.342,0.374C-1442.782,349.195-1442.568,349.215-1442.142,349.258z M-1446.798,344.821
					c0.886,0.033,1.335-0.447,1.363-0.967c0.028-0.519-0.328-1.063-1.083-1.093c-0.394-0.016-0.591-0.024-0.985-0.035
					c-0.023,0.826-0.037,1.241-0.06,2.067C-1447.256,344.803-1447.104,344.81-1446.798,344.821z"/>
				<path fill="#B69FCC" d="M-1428.217,348.8c-0.751,2.646-3.405,3.997-5.967,3.445c-1.638-0.353-2.461-0.507-4.112-0.766
					c0.106-0.682,0.16-1.023,0.267-1.705c0.339,0.053,0.509,0.081,0.848,0.138c0.407-2.419,0.61-3.623,1.019-6.042
					c-0.366-0.062-0.549-0.093-0.916-0.15c0.108-0.687,0.162-1.031,0.27-1.718c1.865,0.293,2.795,0.465,4.645,0.863
					C-1429.054,343.535-1427.465,346.153-1428.217,348.8z M-1434.873,350.34c0.292,0.059,0.438,0.089,0.73,0.15
					c2.09,0.44,3.183-0.838,3.555-2.324c0.376-1.5-0.246-3.243-2.292-3.675c-0.315-0.066-0.474-0.1-0.79-0.163
					C-1434.152,346.732-1434.392,347.935-1434.873,350.34z"/>
				<path fill="#B69FCC" d="M-1423.251,345.349c1.735,0.58,2.597,0.893,4.306,1.569c-0.252,0.637-0.378,0.954-0.63,1.591
					c-0.368-0.146-0.552-0.219-0.921-0.359c-0.879,2.301-1.319,3.451-2.198,5.752c0.341,0.131,0.511,0.199,0.852,0.334
					c-0.25,0.631-0.375,0.947-0.625,1.578c-1.514-0.6-2.277-0.878-3.814-1.392c0.215-0.644,0.323-0.969,0.538-1.612
					c0.345,0.115,0.516,0.179,0.86,0.298c0.808-2.327,1.212-3.491,2.021-5.818c-0.372-0.129-0.556-0.195-0.929-0.32
					C-1423.575,346.319-1423.468,345.998-1423.251,345.349z"/>
			</g>
		</g>
	</g>
	<g>
		<path fill="#E9E9EA" d="M-1372.796,260.26c-0.893,0-1.756,0.117-2.586,0.318c-8.77-28.624-38.908-49.725-74.753-49.725
			s-65.983,21.101-74.753,49.725c-0.83-0.201-1.693-0.318-2.586-0.318c-6.074,0-11,4.925-11,11c0,6.074,4.926,11,11,11
			c0.068,0,0.133-0.009,0.199-0.01c2.715,33.828,36.201,49.416,77.14,49.416c40.938,0,74.425-15.588,77.14-49.416
			c0.066,0.001,0.131,0.01,0.199,0.01c6.074,0,11-4.926,11-11C-1361.796,265.185-1366.722,260.26-1372.796,260.26z"/>
		<path fill="none" stroke="#000000" stroke-width="3" stroke-linecap="round" stroke-miterlimit="10" d="M-1450.135,262.895
			c0,0,0.812,8.269,4.312,12.573l-4.312,3.555"/>
		<g>
			<path fill="#FFFFFF" d="M-1437.563,298.737c0,6.346-4.351,12.827-12.827,12.827s-12.318-7.812-12.318-12.917
				c2.218,2.538,6.267,4.654,12.506,4.654C-1444.197,303.302-1440.008,301.061-1437.563,298.737z"/>
			<path fill="none" stroke="#000000" stroke-width="3" stroke-linecap="round" stroke-miterlimit="10" d="M-1462.708,298.647
				c2.218,2.538,6.267,4.654,12.506,4.654c6.005,0,10.194-2.241,12.64-4.564"/>
			<path fill="none" stroke="#000000" stroke-width="3" stroke-linecap="round" stroke-miterlimit="10" d="M-1462.708,298.647
				c0,5.105,3.842,12.917,12.318,12.917s12.827-6.481,12.827-12.827"/>
		</g>
		<path fill="#E9E9EA" d="M-1372.995,282.249c0.066,0.001,0.131,0.011,0.199,0.011c6.074,0,11-4.926,11-11c0-6.076-4.926-11-11-11
			c-0.893,0-1.756,0.117-2.586,0.318l-5.525,12.45L-1372.995,282.249z"/>
		<path fill="#E9E9EA" d="M-1527.273,282.249c-0.066,0.001-0.131,0.011-0.199,0.011c-6.074,0-11-4.926-11-11c0-6.076,4.926-11,11-11
			c0.893,0,1.756,0.117,2.586,0.318l5.525,12.45L-1527.273,282.249z"/>
		<circle fill="#C4C4C3" cx="-1496.002" cy="294.626" r="9.595"/>
		<circle fill="#C4C4C3" cx="-1403.758" cy="294.626" r="9.595"/>
		<path fill="#604E75" d="M-1527.573,228.255c-22.223,21.149-24.334,70.333-6,91.667c18.334,21.333,2.333,36.333-8,38
			c-10.333,1.666-19.334-9.334-19.334-9.334c0.396,3.443,1.352,6.446,2.728,9.068c-2.298-1.246-4.663-2.779-5.65-4.242
			c0,0,4.06,8.138,10.563,10.582c1.052,0.96,2.184,1.832,3.389,2.613c-4.779,3.223-11.028,3.232-11.028,3.232
			c21.871,4.82,29.543,3.684,32.228,2.422c0.044,0.001,0.088,0.002,0.131,0.003c-6.029,5.187-15.043,5.575-15.043,5.575
			c15.602-0.252,24.275-3.078,29.048-5.824c-3.5,4.729-7.381,7.491-7.381,7.491c6.907-1.829,11.89-7.023,15.076-11.569
			c0.249-0.113,0.495-0.229,0.737-0.348c-1.121,7.074-2.813,8.917-2.813,8.917c7.493-7.067,11.745-14.213,14.116-19.517
			c1.328-2.516,2.225-5.242,2.737-8.047c0.056-0.271,0.08-0.419,0.08-0.419s-0.004,0.002-0.005,0.002
			c2.012-11.918-2.79-25.031-10.526-28.589c-11.635-5.352-33.218-30.908-22.365-59.361c9.969-26.136,31.093-24.861,41.511-29.656
			c10.137-4.667,17.804-17.667,17.804-17.667C-1479.24,198.588-1504.734,206.52-1527.573,228.255z"/>
		<path fill="#604E75" d="M-1408.288,355.064c-0.075,12.131,5.55,21.568,17.363,32.11c0,0-1.79-4.335,3.293-7.784
			c0.05,0.024,0.098,0.05,0.147,0.074c2.565,4.865,9.68,11.211,29.393,10.377c0,0-5.979-0.935-10.978-5.67
			c5.228,1.792,15.366,3.506,31.978-0.363c0,0-9.593,0.265-8.694-6.748c13.529-8.509,9.918-19.139,9.918-19.139s-4,8.999-16,8.999
			s-31.332-16.667-16.666-52.333s12.495-75.284-14.373-98c-17.742-15-44.627-27-74.627-17.334c0,0-24.965,11-16.982,23.334
			s22.943-1.666,44.315,0c12.527,0.977,45.949,10.863,55.192,37.99c8.352,24.51-6.813,49.141-15.473,54.742
			C-1397.371,319.778-1408.238,342.945-1408.288,355.064z"/>
		<path fill="none" stroke="#000000" stroke-width="3" stroke-linecap="round" stroke-miterlimit="10" d="M-1503.008,261.502
			c0,2.075,1.561,5.25,5.006,5.25s5.214-2.635,5.214-5.213"/>
		<path fill="none" stroke="#000000" stroke-width="3" stroke-linecap="round" stroke-miterlimit="10" d="M-1497.898,256.712
			c0,2.075,1.561,5.25,5.006,5.25c1.54,0,2.744-0.526,3.605-1.338"/>
		<path fill="none" stroke="#000000" stroke-width="3" stroke-linecap="round" stroke-miterlimit="10" d="M-1397.982,256.712
			c0,2.075-1.561,5.25-5.006,5.25c-1.539,0-2.744-0.526-3.605-1.338"/>
		<path fill="none" stroke="#000000" stroke-width="3" stroke-linecap="round" stroke-miterlimit="10" d="M-1403.17,261.502
			c0,2.075,1.561,5.25,5.006,5.25s5.214-2.635,5.214-5.213"/>
		<g>
			<circle cx="-1488.288" cy="264.227" r="7.5"/>
			<circle fill="#FFFFFF" cx="-1490.782" cy="262.184" r="3.03"/>
		</g>
		<g>
			<circle cx="-1407.788" cy="264.227" r="7.5"/>
			<circle fill="#FFFFFF" cx="-1410.282" cy="262.184" r="3.03"/>
		</g>
	</g>
</g>
<g>
	<path fill="#E9E9EA" d="M134.224,124.181h2.438c5.939,0,10.799,4.86,10.799,10.8v32.733c0,5.939-4.859,10.799-10.799,10.799h-2.438
		V124.181z"/>
	<path fill="#E9E9EA" d="M55.315,124.181h-2.438c-5.939,0-10.8,4.86-10.8,10.8v32.733c0,5.939,4.86,10.799,10.8,10.799h2.438
		V124.181z"/>
	<path fill="#5B5C5C" d="M136.661,124.181h-2.438H55.315h-2.438c-5.939,0-10.8,4.86-10.8,10.8v5.699h13.237v54.499h78.908V140.68
		h13.236v-5.699C147.46,129.041,142.601,124.181,136.661,124.181z"/>
	<polygon fill="#B69FCC" points="55.315,195.179 55.315,211.847 55.315,251.513 84.104,251.513 84.104,211.847 105.434,211.847 
		105.434,251.513 134.224,251.513 134.224,211.847 134.224,195.179 	"/>
	<path d="M69.71,265.907c7.95,0,14.395-6.443,14.395-14.395H55.315C55.315,259.464,61.761,265.907,69.71,265.907z"/>
	<path d="M119.828,265.907c7.95,0,14.396-6.443,14.396-14.395h-28.79C105.434,259.464,111.878,265.907,119.828,265.907z"/>
	<path fill="#B69FCC" d="M69.71,237.118c-7.949,0-14.395,6.445-14.395,14.395h28.789C84.104,243.563,77.66,237.118,69.71,237.118z"
		/>
	<path fill="#B69FCC" d="M119.828,237.118c-7.95,0-14.395,6.445-14.395,14.395h28.79
		C134.224,243.563,127.778,237.118,119.828,237.118z"/>
	<text transform="matrix(1 0 0 1 76.4453 156.1807)" fill="#FFFFFF" font-family="'Cubano-Regular'" font-size="25.3327">IUP</text>
	<g>
		<path fill="#E9E9EA" d="M171.804,60.799c-0.893,0-1.755,0.118-2.586,0.318c-8.769-28.624-38.907-49.725-74.752-49.725
			c-35.846,0-65.984,21.101-74.753,49.725c-0.831-0.201-1.693-0.318-2.586-0.318c-6.075,0-11,4.925-11,11c0,6.075,4.925,11,11,11
			c0.067,0,0.132-0.009,0.199-0.01c2.714,33.829,36.201,49.417,77.14,49.417c40.938,0,74.425-15.588,77.139-49.417
			c0.067,0.001,0.132,0.01,0.199,0.01c6.075,0,11-4.925,11-11C182.804,65.724,177.879,60.799,171.804,60.799z"/>
		<g>
			<circle cx="53.724" cy="68.507" r="7.5"/>
			<circle fill="#FFFFFF" cx="51.229" cy="66.464" r="3.03"/>
		</g>
		<g>
			<circle cx="134.224" cy="68.507" r="7.5"/>
			<circle fill="#FFFFFF" cx="131.729" cy="66.464" r="3.03"/>
		</g>
		<path fill="none" stroke="#000000" stroke-width="3" stroke-linecap="round" stroke-miterlimit="10" d="M94.466,63.434
			c0,0,0.811,8.268,4.311,12.573l-4.311,3.555"/>
		<polyline fill="none" stroke="#000000" stroke-width="3" stroke-linecap="round" stroke-miterlimit="10" points="63.996,103.349 
			83.496,95.349 92.996,104.849 109.246,102.099 129.246,106.099 		"/>
		<path fill="#B69FCC" d="M151.257,26.988c4.996-0.186,8.113,0.749,8.113,0.749l-15.553-7.126c2.65-2.747,5.841-3.124,5.841-3.124
			h-11.794c-8.636-4.534-22.997-9.039-39.662-9.562c-11.713-0.368-24.909,1.739-36.254,5.403c-9.66-1.631-13.749-7.341-13.749-7.341
			c0.601,4.374,0.153,7.658-0.63,10.056c-1.809,0.167-4.194,0.563-6.949,1.444c0,0,2.784,0.495,5.567,1.577
			c-1.049,1.701-2.063,2.43-2.063,2.43h0.001c-2.268,1.502-4.22,3.087-5.766,4.734C28.036,37.229,19.233,52.006,19.713,61.117
			c0,0,2.813,3.335,2.813,7.39h5.5c0,0,0.5-26.445,16-36.445c0,0,7.5-0.833,10.166,4.833c0,0,4.228-3.333,2.031-6.5
			c0,0,24.428-4.833,39.928,10.792c0,0,3.125-5.542,0.875-7.542c0,0,16.125,0.667,22.375,7.917c0,0,0.875-2.417,0-5
			c-0.445-1.313,23.625-1.875,29.75,7.25c0,0,0.667-8.583-5.791-12.917c19.666,12.667,17.666,37.612,17.666,37.612h5.333
			c0.166-4.055,2.858-7.39,2.858-7.39C167.759,43.9,158.892,33.504,151.257,26.988z"/>
		<path fill="none" stroke="#000000" stroke-width="2" stroke-linecap="round" stroke-miterlimit="10" d="M43.12,73.731
			c0,0-0.194,7.785,10.109,7.266"/>
		<path fill="none" stroke="#000000" stroke-width="2" stroke-linecap="round" stroke-miterlimit="10" d="M134.539,80.05
			c0,0,6.94,3.533,10.915-5.987"/>
	</g>
</g>
<g>
	<rect x="207.537" y="215.526" fill="#564868" width="101.667" height="21.592"/>
	<polygon fill="#443756" points="344.176,255.112 309.204,237.118 309.204,215.526 344.176,233.521 	"/>
</g>
<g>
	<polygon fill="#443756" points="242.509,255.112 207.537,237.118 207.537,215.526 242.509,233.521 	"/>
	<g>
		<rect x="242.203" y="233.521" fill="#6A5B7C" width="101.667" height="21.592"/>
		<g>
			<path fill="#B69FCC" d="M247.831,239.944c2.468,0,3.281,0.998,3.281,3.15v2.873c0,2.152-0.813,3.164-3.281,3.164h-2.927
				c-0.249,0-0.394-0.145-0.394-0.395v-8.385c0-0.264,0.132-0.395,0.394-0.408H247.831z M247.87,246.874
				c0.631,0,0.945-0.105,0.945-0.893c0-0.014,0-2.873,0-2.887c0-0.814-0.314-0.893-0.945-0.893h-0.708
				c-0.249,0-0.395,0.131-0.395,0.395v3.883c0,0.25,0.146,0.395,0.395,0.395H247.87z"/>
			<path fill="#B69FCC" d="M258.754,246.179c0,0.865-0.183,3.189-3.293,3.189s-3.295-2.324-3.295-3.189v-3.281
				c0-0.865,0.185-3.189,3.295-3.189s3.293,2.324,3.293,3.189V246.179z M256.497,243.593c0-1.01-0.064-1.627-1.036-1.627
				s-1.037,0.617-1.037,1.627v1.891c0,1.01,0.065,1.627,1.037,1.627s1.036-0.617,1.036-1.627V243.593z"/>
			<path fill="#B69FCC" d="M259.808,242.897c0-0.865,0.185-3.189,3.295-3.189c2.796,0,3.229,1.877,3.28,2.889
				c0.013,0.184-0.104,0.328-0.288,0.367l-1.457,0.328c-0.275,0.053-0.486-0.133-0.524-0.408c-0.066-0.576-0.303-0.918-1.011-0.918
				c-0.972,0-1.037,0.617-1.037,1.627v1.891c0,1.01,0.065,1.627,1.037,1.627c0.722,0,0.919-0.342,0.997-0.945
				c0.039-0.275,0.25-0.445,0.512-0.381l1.483,0.328c0.184,0.039,0.301,0.184,0.288,0.381c-0.052,0.998-0.484,2.875-3.28,2.875
				c-3.11,0-3.295-2.324-3.295-3.189V242.897z"/>
			<path fill="#B69FCC" d="M269.393,242.597c0-0.264-0.132-0.395-0.394-0.395h-1.838c-0.249,0-0.394-0.145-0.394-0.395v-1.469
				c0-0.264,0.145-0.395,0.394-0.395h6.72c0.263,0,0.394,0.131,0.394,0.395v1.469c0,0.25-0.131,0.395-0.394,0.395h-1.837
				c-0.249,0-0.395,0.131-0.395,0.395v6.141c0,0.25-0.131,0.395-0.394,0.395h-1.471c-0.249,0-0.393-0.145-0.393-0.395V242.597z"/>
			<path fill="#B69FCC" d="M281.392,246.179c0,0.865-0.183,3.189-3.293,3.189c-3.111,0-3.295-2.324-3.295-3.189v-3.281
				c0-0.865,0.184-3.189,3.295-3.189c3.11,0,3.293,2.324,3.293,3.189V246.179z M279.135,243.593c0-1.01-0.065-1.627-1.036-1.627
				c-0.972,0-1.037,0.617-1.037,1.627v1.891c0,1.01,0.065,1.627,1.037,1.627c0.971,0,1.036-0.617,1.036-1.627V243.593z"/>
			<path fill="#B69FCC" d="M289.493,248.423c0.184,0.342-0.025,0.709-0.433,0.709h-1.496c-0.132,0-0.249-0.066-0.303-0.184
				l-1.364-2.639c-0.026-0.039-0.065-0.066-0.105-0.066h-0.524c-0.236,0-0.407,0.172-0.407,0.408v2.072
				c0,0.236-0.171,0.408-0.407,0.408h-1.469c-0.236,0-0.407-0.172-0.407-0.408v-8.371c0-0.236,0.171-0.408,0.407-0.408h2.873
				c2.336,0,3.282,0.998,3.282,3.15c0,1.221-0.303,2.074-0.998,2.572c-0.053,0.039-0.065,0.105-0.04,0.17L289.493,248.423z
				 M285.268,242.202c-0.236,0-0.407,0.17-0.407,0.406v0.971c0,0.236,0.171,0.408,0.407,0.408h0.669c0.631,0,0.944-0.08,0.944-0.893
				c0-0.814-0.313-0.893-0.944-0.893H285.268z"/>
			<path fill="#B69FCC" d="M296.729,248.685c0,0.289-0.13,0.447-0.394,0.447h-1.469c-0.25,0-0.395-0.131-0.395-0.395v-1.141
				c0-0.264-0.132-0.395-0.394-0.395h-1.129c-0.249,0-0.394,0.131-0.394,0.395v1.141c0,0.264-0.132,0.395-0.394,0.395h-1.47
				c-0.249,0-0.394-0.158-0.394-0.447v-5.564c0-1.652,0.262-3.412,3.216-3.412c2.952,0,3.214,1.76,3.214,3.412V248.685z
				 M294.472,243.12c0-0.629-0.092-0.943-0.957-0.943c-0.867,0-0.959,0.314-0.959,0.943v1.432c0,0.248,0.145,0.393,0.394,0.393
				h1.129c0.262-0.012,0.394-0.145,0.394-0.406V243.12z"/>
			<path fill="#B69FCC" d="M299.844,239.944c0.263,0,0.393,0.131,0.393,0.395v6.141c0,0.25,0.146,0.395,0.395,0.395h2.927
				c0.262,0,0.394,0.131,0.394,0.395v1.469c0,0.264-0.132,0.395-0.394,0.395h-5.185c-0.249,0-0.394-0.145-0.394-0.395v-8.398
				c0-0.264,0.145-0.395,0.394-0.395H299.844z"/>
			<path fill="#B69FCC" d="M308.235,240.378c-0.053-0.275,0.079-0.434,0.354-0.434h1.562c0.236,0,0.407,0.119,0.433,0.342
				l0.748,5.473c0.026,0.131,0.132,0.131,0.158,0l0.88-5.473c0.038-0.223,0.196-0.342,0.433-0.342h1.128
				c0.236,0,0.394,0.119,0.434,0.342l0.879,5.473c0.027,0.131,0.132,0.131,0.157,0l0.749-5.473c0.025-0.223,0.196-0.342,0.433-0.342
				h1.562c0.275,0,0.407,0.158,0.354,0.434l-1.614,8.412c-0.04,0.223-0.197,0.342-0.433,0.342H314.6
				c-0.235,0-0.38-0.119-0.433-0.342l-0.721-3.229c-0.027-0.131-0.132-0.131-0.158,0l-0.722,3.229
				c-0.053,0.223-0.196,0.342-0.434,0.342h-1.85c-0.236,0-0.395-0.119-0.434-0.342L308.235,240.378z"/>
			<path fill="#B69FCC" d="M325.8,246.179c0,0.865-0.184,3.189-3.293,3.189c-3.111,0-3.295-2.324-3.295-3.189v-3.281
				c0-0.865,0.184-3.189,3.295-3.189c3.109,0,3.293,2.324,3.293,3.189V246.179z M323.543,243.593c0-1.01-0.065-1.627-1.036-1.627
				c-0.972,0-1.037,0.617-1.037,1.627v1.891c0,1.01,0.065,1.627,1.037,1.627c0.971,0,1.036-0.617,1.036-1.627V243.593z"/>
			<path fill="#B69FCC" d="M333.902,248.423c0.184,0.342-0.025,0.709-0.433,0.709h-1.496c-0.132,0-0.249-0.066-0.303-0.184
				l-1.364-2.639c-0.025-0.039-0.065-0.066-0.104-0.066h-0.525c-0.236,0-0.407,0.172-0.407,0.408v2.072
				c0,0.236-0.171,0.408-0.407,0.408h-1.469c-0.236,0-0.407-0.172-0.407-0.408v-8.371c0-0.236,0.171-0.408,0.407-0.408h2.873
				c2.336,0,3.282,0.998,3.282,3.15c0,1.221-0.303,2.074-0.998,2.572c-0.053,0.039-0.065,0.105-0.04,0.17L333.902,248.423z
				 M329.677,242.202c-0.236,0-0.407,0.17-0.407,0.406v0.971c0,0.236,0.171,0.408,0.407,0.408h0.669c0.631,0,0.945-0.08,0.945-0.893
				c0-0.814-0.314-0.893-0.945-0.893H329.677z"/>
			<path fill="#B69FCC" d="M342.147,248.659c0.185,0.264,0.066,0.473-0.249,0.473h-1.968c-0.211,0-0.355-0.08-0.474-0.264
				l-1.626-2.492c-0.054-0.08-0.132-0.08-0.185,0l-0.538,0.734c-0.04,0.053-0.053,0.105-0.053,0.17v1.457
				c0,0.25-0.131,0.395-0.393,0.395h-1.498c-0.248,0-0.393-0.145-0.393-0.395v-8.398c0-0.264,0.145-0.395,0.393-0.395h1.498
				c0.262,0,0.393,0.131,0.393,0.395v2.637c0,0.133,0.092,0.158,0.157,0.053l2.062-2.834c0.117-0.17,0.262-0.25,0.473-0.25h1.941
				c0.328,0,0.434,0.211,0.25,0.486l-2.651,3.648c-0.04,0.064-0.053,0.117,0,0.184L342.147,248.659z"/>
		</g>
	</g>
</g>
<g>
	<polygon fill="#9F8BB7" points="332.104,127.821 248.492,127.821 213.87,109.929 297.482,109.929 	"/>
	<polygon fill="#E9E9EA" points="251.492,127.821 218.495,110.726 218.495,95.393 251.492,112.487 	"/>
	<polygon fill="#9F8BB7" points="332.104,112.487 248.492,112.487 213.87,94.596 297.482,94.596 	"/>
	<rect x="248.492" y="112.487" fill="#B69FCC" width="83.612" height="15.334"/>
</g>
<polygon fill="#E9E9EA" points="340.84,114.741 250.748,112.534 213.916,92.342 304.008,94.549 "/>
<g>
	<polygon fill="#4A494A" points="322.937,109.239 249.226,109.239 218.704,93.465 292.415,93.465 	"/>
	<polygon fill="#E9E9EA" points="251.871,109.239 222.781,94.168 222.781,80.651 251.871,95.721 	"/>
	<polygon fill="#4A494A" points="322.937,95.721 249.226,95.721 218.704,79.949 292.415,79.949 	"/>
	<rect x="249.226" y="95.721" fill="#5B5C5C" width="73.711" height="13.518"/>
</g>
<g>
	<polygon fill="#D6D6D6" points="335.104,95.706 251.492,95.706 216.87,77.815 300.482,77.815 	"/>
	<polygon fill="#E0E0E0" points="335.104,82.206 251.492,82.206 216.87,64.315 300.482,64.315 	"/>
	<rect x="251.492" y="82.206" fill="#E9E9EA" width="83.612" height="13.5"/>
	<polygon fill="#E9E9EA" points="251.492,95.706 216.87,77.815 216.87,64.315 251.492,82.206 	"/>
	<polygon fill="#C1C1C0" points="251.492,87.891 326.492,88.129 251.492,88.368 	"/>
	<polygon fill="#C1C1C0" points="251.492,88.368 232.176,79.046 251.492,87.891 	"/>
	<polygon fill="#C1C1C0" points="335.094,86.331 260.094,86.092 335.094,85.854 	"/>
	<polygon fill="#C1C1C0" points="251.492,91.522 291.57,91.76 251.492,91.999 	"/>
	<polygon fill="#C1C1C0" points="251.492,91.999 223.82,78.296 251.492,91.522 	"/>
	<polygon fill="#C1C1C0" points="335.094,93.069 284.82,92.831 335.094,92.592 	"/>
	<polygon fill="#C1C1C0" points="251.492,83.113 306.57,83.351 251.492,83.589 	"/>
	<polygon fill="#C1C1C0" points="251.492,83.589 219.07,67.921 251.492,83.113 	"/>
</g>
<g>
	<polygon fill="#403254" points="336.495,77.688 252.883,77.688 218.261,59.797 301.873,59.797 	"/>
	<polygon fill="#E9E9EA" points="255.883,77.688 222.886,60.594 222.886,45.261 255.883,62.355 	"/>
	<polygon fill="#403254" points="336.495,62.355 252.883,62.355 218.261,44.464 301.873,44.464 	"/>
	<rect x="252.883" y="62.355" fill="#604E75" width="83.612" height="15.333"/>
</g>
<g>
	<polygon fill="#9F8BB7" points="333.78,59.077 250.168,59.077 215.546,41.186 299.158,41.186 	"/>
	<polygon fill="#E9E9EA" points="253.168,59.077 220.171,41.983 220.171,26.65 253.168,43.744 	"/>
	<polygon fill="#9F8BB7" points="333.78,43.744 250.168,43.744 215.546,25.853 299.158,25.853 	"/>
	<rect x="250.168" y="43.744" fill="#B69FCC" width="83.612" height="15.333"/>
</g>
<polygon fill="#E9E9EA" points="342.516,45.998 252.424,43.791 215.592,23.6 305.684,25.807 "/>
<g>
	<polygon fill="#4A494A" points="324.612,40.495 250.901,40.495 220.38,24.723 294.091,24.723 	"/>
	<polygon fill="#E9E9EA" points="253.547,40.495 224.457,25.425 224.457,11.908 253.547,26.978 	"/>
	<polygon fill="#4A494A" points="324.612,26.978 250.901,26.978 220.38,11.206 294.091,11.206 	"/>
	<rect x="250.901" y="26.978" fill="#5B5C5C" width="73.711" height="13.517"/>
</g>
<g>
	<polygon fill="#D6D6D6" points="336.78,26.963 253.168,26.963 218.546,9.072 302.158,9.072 	"/>
	<polygon fill="#E0E0E0" points="336.78,13.463 253.168,13.463 218.546,-4.428 302.158,-4.428 	"/>
	<rect x="253.168" y="13.463" fill="#E9E9EA" width="83.612" height="13.5"/>
	<polygon fill="#E9E9EA" points="253.168,26.963 218.546,9.072 218.546,-4.428 253.168,13.463 	"/>
	<polygon fill="#C1C1C0" points="253.168,19.148 328.168,19.387 253.168,19.625 	"/>
	<polygon fill="#C1C1C0" points="253.168,19.625 233.852,10.303 253.168,19.148 	"/>
	<polygon fill="#C1C1C0" points="336.77,17.588 261.77,17.35 336.77,17.111 	"/>
	<polygon fill="#C1C1C0" points="253.168,22.779 293.246,23.017 253.168,23.255 	"/>
	<polygon fill="#C1C1C0" points="253.168,23.255 225.496,9.553 253.168,22.779 	"/>
	<polygon fill="#C1C1C0" points="336.77,24.326 286.496,24.087 336.77,23.849 	"/>
	<polygon fill="#C1C1C0" points="253.168,14.37 308.246,14.608 253.168,14.846 	"/>
	<polygon fill="#C1C1C0" points="253.168,14.846 220.746,-0.822 253.168,14.37 	"/>
</g>
<g>
	<polygon fill="#403254" points="338.171,8.945 254.559,8.945 219.937,-8.946 303.549,-8.946 	"/>
	<polygon fill="#E9E9EA" points="257.559,8.945 224.562,-8.149 224.562,-23.482 257.559,-6.388 	"/>
	<polygon fill="#403254" points="338.171,-6.388 254.559,-6.388 219.937,-24.279 303.549,-24.279 	"/>
	<rect x="254.559" y="-6.388" fill="#604E75" width="83.612" height="15.333"/>
</g>
<g>
	<polygon fill="#D6D6D6" points="338.171,-8.583 254.559,-8.583 219.937,-26.475 303.549,-26.475 	"/>
	<polygon fill="#E0E0E0" points="338.171,-22.083 254.559,-22.083 219.937,-39.975 303.549,-39.975 	"/>
	<rect x="254.559" y="-22.083" fill="#E9E9EA" width="83.612" height="13.5"/>
	<polygon fill="#E9E9EA" points="254.559,-8.583 219.937,-26.475 219.937,-39.975 254.559,-22.083 	"/>
	<polygon fill="#C1C1C0" points="254.559,-16.398 329.559,-16.16 254.559,-15.921 	"/>
	<polygon fill="#C1C1C0" points="254.559,-15.921 235.242,-25.243 254.559,-16.398 	"/>
	<polygon fill="#C1C1C0" points="338.16,-17.958 263.16,-18.197 338.16,-18.435 	"/>
	<polygon fill="#C1C1C0" points="254.559,-12.768 294.637,-12.529 254.559,-12.291 	"/>
	<polygon fill="#C1C1C0" points="254.559,-12.291 226.887,-25.993 254.559,-12.768 	"/>
	<polygon fill="#C1C1C0" points="338.16,-11.221 287.887,-11.459 338.16,-11.697 	"/>
	<polygon fill="#C1C1C0" points="254.559,-21.177 309.637,-20.938 254.559,-20.7 	"/>
	<polygon fill="#C1C1C0" points="254.559,-20.7 222.137,-36.368 254.559,-21.177 	"/>
</g>
<g>
	<g>
		<path fill="#E9E9EA" d="M-638.98,80.857h2.438c5.939,0,10.799,4.86,10.799,10.8v32.733c0,5.939-4.859,10.8-10.799,10.8h-2.438
			V80.857z"/>
		<path fill="#E9E9EA" d="M-717.889,80.857h-2.438c-5.939,0-10.801,4.86-10.801,10.8v32.733c0,5.939,4.861,10.8,10.801,10.8h2.438
			V80.857z"/>
		<path fill="#333333" d="M-636.543,80.857h-2.438h-78.908h-2.438c-5.939,0-10.801,4.86-10.801,10.8v5.699h13.238v54.5h78.908v-54.5
			h13.236v-5.699C-625.744,85.718-630.604,80.857-636.543,80.857z"/>
		<polygon fill="#B69FCC" points="-717.889,151.857 -717.889,168.522 -717.889,208.19 -689.1,208.19 -689.1,168.522 
			-667.771,168.522 -667.771,208.19 -638.98,208.19 -638.98,168.522 -638.98,151.857 		"/>
		<path d="M-703.494,222.585c7.949,0,14.395-6.445,14.395-14.395h-28.789C-717.889,216.14-711.443,222.585-703.494,222.585z"/>
		<path d="M-653.377,222.585c7.951,0,14.396-6.445,14.396-14.395h-28.791C-667.771,216.14-661.326,222.585-653.377,222.585z"/>
		<path fill="#B69FCC" d="M-703.494,193.796c-7.949,0-14.395,6.443-14.395,14.395h28.789
			C-689.1,200.239-695.545,193.796-703.494,193.796z"/>
		<path fill="#B69FCC" d="M-653.377,193.796c-7.949,0-14.395,6.443-14.395,14.395h28.791
			C-638.98,200.239-645.426,193.796-653.377,193.796z"/>
		<g>
			<g>
				<path fill="#604E75" d="M-697.393,99.719c0.692-0.213,1.112-0.07,1.254,0.418c1.804,6.229,2.703,9.343,4.508,15.572
					c0.134,0.461-0.036,0.801-0.54,0.956c-1.107,0.341-1.656,0.529-2.746,0.939c-0.471,0.177-0.846,0.026-1.022-0.42
					c-2.388-6.03-3.583-9.044-5.97-15.074c-0.187-0.472,0.094-0.855,0.741-1.099C-699.67,100.446-698.915,100.188-697.393,99.719z"
					/>
				<path fill="#604E75" d="M-688.053,97.583c0.71-0.108,1.1,0.097,1.168,0.6c0.533,3.935,0.799,5.902,1.332,9.837
					c0.262,1.934,0.561,3.052,2.64,2.863s2.163-1.344,2.07-3.293c-0.188-3.967-0.284-5.95-0.472-9.917
					c-0.024-0.507,0.359-0.78,1.04-0.801c1.604-0.05,2.407-0.049,4.011,0c0.716,0.022,1.063,0.294,1.039,0.802
					c-0.215,4.504-0.323,6.755-0.536,11.259c-0.079,1.67-0.667,5.734-6.759,6.288c-6.091,0.554-7.427-3.328-7.808-4.956
					c-1.027-4.391-1.54-6.586-2.567-10.977c-0.115-0.495,0.214-0.831,0.883-0.976C-690.435,97.971-689.644,97.825-688.053,97.583z"
					/>
				<path fill="#604E75" d="M-662.978,98.665c6.238,1.511,7.92,4.528,6.391,8.391s-4.181,4.655-9.252,3.427
					c-0.547-0.132-0.82-0.196-1.37-0.314c-0.543-0.116-0.908,0.071-1.006,0.569c-0.313,1.591-0.47,2.388-0.783,3.979
					c-0.098,0.497-0.405,0.693-0.92,0.601c-1.153-0.207-1.732-0.293-2.893-0.428c-0.492-0.057-0.746-0.362-0.698-0.84
					c0.642-6.443,0.958-9.664,1.601-16.107c0.051-0.505,0.432-0.724,1.147-0.667C-667.626,97.64-666.062,97.918-662.978,98.665z
					 M-664.629,106.293c1.479,0.363,2.254,0.444,2.689-1.065s-0.297-1.896-1.865-2.282c-0.706-0.173-1.062-0.255-1.771-0.407
					c-0.624-0.134-1.037,0.047-1.135,0.543c-0.148,0.756-0.223,1.134-0.371,1.89c-0.093,0.472,0.196,0.812,0.784,0.938
					C-665.629,106.053-665.295,106.129-664.629,106.293z"/>
			</g>
		</g>
	</g>
	<path fill="#E9E9EA" d="M-753.492,17.544c-0.83-0.201-1.693-0.318-2.586-0.318c-6.074,0-11,4.925-11,11c0,6.075,4.926,11,11,11
		c0.068,0,0.133-0.009,0.199-0.01c2.715,33.829,36.201,49.417,77.141,49.417c40.938,0,74.424-15.588,77.139-49.417
		c0.066,0.001,0.131,0.01,0.199,0.01c6.074,0,11-4.925,11-11c0-6.075-4.926-11-11-11c-0.893,0-1.756,0.118-2.586,0.318
		c-6.889-22.486-26.969-40.323-52.639-46.942h-44.228C-726.523-22.779-746.604-4.942-753.492,17.544z"/>
	<path fill="none" stroke="#000000" stroke-width="3" stroke-linecap="round" stroke-miterlimit="10" d="M-734.201,22.209
		c0,2.075,1.561,5.25,5.006,5.25s5.215-2.635,5.215-5.213"/>
	<path fill="none" stroke="#000000" stroke-width="3" stroke-linecap="round" stroke-miterlimit="10" d="M-729.092,17.419
		c0,2.075,1.561,5.25,5.006,5.25c1.541,0,2.744-0.526,3.605-1.338"/>
	<path fill="none" stroke="#000000" stroke-width="3" stroke-linecap="round" stroke-miterlimit="10" d="M-629.176,17.419
		c0,2.075-1.561,5.25-5.006,5.25c-1.539,0-2.744-0.526-3.605-1.338"/>
	<path fill="none" stroke="#000000" stroke-width="3" stroke-linecap="round" stroke-miterlimit="10" d="M-634.363,22.209
		c0,2.075,1.561,5.25,5.006,5.25s5.215-2.635,5.215-5.213"/>
	<g>
		<circle cx="-719.48" cy="24.934" r="7.5"/>
		<circle fill="#FFFFFF" cx="-721.976" cy="22.891" r="3.03"/>
	</g>
	<g>
		<circle cx="-638.98" cy="24.934" r="7.5"/>
		<circle fill="#FFFFFF" cx="-641.476" cy="22.891" r="3.03"/>
	</g>
	<path fill="none" stroke="#000000" stroke-width="3" stroke-linecap="round" stroke-miterlimit="10" d="M-678.738,19.861
		c0,0,0.811,8.268,4.311,12.573l-4.311,3.555"/>
	<path fill="none" stroke="#000000" stroke-width="3" stroke-linecap="round" stroke-miterlimit="10" d="M-691.008,42.696
		c0,5.106,3.842,12.917,12.318,12.917s12.828-6.482,12.828-12.827"/>
	<path fill="#4E4060" d="M-703.121-20.446c7.982,12.333,22.943-1.667,44.316,0c12.527,0.977,45.949,10.863,55.191,37.99
		c8.352,24.51-6.813,49.14-15.473,54.742c-8.66,5.604-22.547,31.751-16.387,45.648c6.162,13.897,28.668,28.954,52.334,20.286
		c23.666-8.667,18.666-23.333,18.666-23.333s-4,8.999-16,8.999s-31.332-16.667-16.666-52.333c14.666-35.667,12.496-75.284-14.373-98
		c-1.183-1-2.408-1.984-3.67-2.952h-88.603C-705.047-26.604-705.142-23.568-703.121-20.446z"/>
	<path fill="#E9E9EA" d="M-601.6,39.215c0.066,0.001,0.131,0.01,0.199,0.01c6.074,0,11-4.925,11-11c0-6.075-4.926-11-11-11
		c-0.893,0-1.756,0.118-2.586,0.318l-5.525,12.451L-601.6,39.215z"/>
	<path fill="#4E4060" d="M-756.178-14.779c-22.223,21.149-24.334,70.333-6,91.667c18.334,21.333,2.334,36.333-8,38
		c-10.332,1.666-19.334-9.334-19.334-9.334c3.334,29,45.334,27.667,60.186,15.667s9.834-38.966-1.801-44.315
		c-11.635-5.352-33.217-30.908-22.365-59.361c9.969-26.136,31.094-24.861,41.512-29.657c9.113-4.195,16.226-15.12,17.57-17.285
		h-42.608C-743.405-25.69-749.892-20.761-756.178-14.779z"/>
	<path fill="#E9E9EA" d="M-755.877,39.215c-0.066,0.001-0.131,0.01-0.199,0.01c-6.074,0-11-4.925-11-11c0-6.075,4.926-11,11-11
		c0.893,0,1.756,0.118,2.586,0.318l5.525,12.451L-755.877,39.215z"/>
	<circle fill="#C4C4C3" cx="-724.606" cy="51.592" r="9.595"/>
	<circle fill="#C4C4C3" cx="-632.362" cy="51.592" r="9.595"/>
	<g>
		<path fill="#604E75" d="M-480.744,140.173c-1.192-14.58-16.694-48.279-35.773-48.279c-7.009,0-13.215,1.173-18.27,2.657
			l-44.327-96.634c-6.891-15.023-26.052-27.314-42.58-27.314h-156.928c-16.528,0-35.689,12.291-42.58,27.314l-44.327,96.634
			c-5.055-1.484-11.261-2.657-18.27-2.657c-19.079,0-34.582,33.699-35.774,48.279c-1.192,14.583,0,71.81,0,71.81
			c0,11.936,3.578,25.053,22.657,39.362c19.08,14.311,116.862,31.578,196.758,31.578v0.001c79.896,0,177.678-17.269,196.758-31.579
			c19.079-14.31,22.656-27.427,22.656-39.361C-480.744,211.982-479.552,154.755-480.744,140.173z M-700.158,83.206
			c-54.851,0-151.376,17.373-151.389,17.375l41.155-89.716c6.891-15.023,26.052-27.314,42.579-27.314h135.309
			c16.527,0,35.688,12.291,42.579,27.314l41.155,89.717C-548.77,100.581-645.305,83.206-700.158,83.206z"/>
		<g>
			<circle fill="#E9E9EA" cx="-881.414" cy="133.515" r="22.458"/>
			<circle fill="#E9E9EA" cx="-518.902" cy="133.515" r="22.459"/>
			<circle fill="#E9E9EA" cx="-881.413" cy="189.524" r="10.685"/>
			<circle fill="#E9E9EA" cx="-518.902" cy="189.524" r="10.685"/>
			<path fill="#E9E9EA" d="M-634.97,248.563c0-5.982-4.85-10.833-10.832-10.833h-108.713c-5.982,0-10.832,4.851-10.832,10.833l0,0
				c0,5.981,4.85,10.832,10.832,10.832h108.713C-639.819,259.395-634.97,254.544-634.97,248.563L-634.97,248.563z"/>
			<path fill="#E9E9EA" d="M-698.071,126.134c0-3.512-1.958-6.359-4.373-6.359l0,0c-2.415,0-4.373,2.847-4.373,6.359v54.508
				c0,3.514,1.958,6.36,4.373,6.36l0,0c2.415,0,4.373-2.847,4.373-6.36V126.134z"/>
			<path fill="#E9E9EA" d="M-679.972,127.423c0-3.346-1.957-6.058-4.372-6.058l0,0c-2.415,0-4.373,2.712-4.373,6.058v51.93
				c0,3.347,1.958,6.059,4.373,6.059l0,0c2.415,0,4.372-2.712,4.372-6.059V127.423z"/>
			<path fill="#E9E9EA" d="M-661.871,128.552c0-3.2-1.958-5.795-4.373-5.795l0,0c-2.415,0-4.372,2.595-4.372,5.795v49.672
				c0,3.201,1.957,5.796,4.372,5.796l0,0c2.415,0,4.373-2.595,4.373-5.796V128.552z"/>
			<path fill="#E9E9EA" d="M-643.771,130.163c0-2.992-1.958-5.42-4.373-5.42l0,0c-2.415,0-4.373,2.428-4.373,5.42v46.449
				c0,2.994,1.958,5.42,4.373,5.42l0,0c2.415,0,4.373-2.426,4.373-5.42V130.163z"/>
			<path fill="#E9E9EA" d="M-625.672,132.122c0-2.74-1.958-4.963-4.373-4.963l0,0c-2.415,0-4.373,2.223-4.373,4.963v42.531
				c0,2.742,1.958,4.962,4.373,4.962l0,0c2.415,0,4.373-2.22,4.373-4.962V132.122z"/>
			<path fill="#E9E9EA" d="M-607.572,134.378c0-2.449-1.957-4.436-4.372-4.436l0,0c-2.415,0-4.373,1.986-4.373,4.436v38.02
				c0,2.451,1.958,4.436,4.373,4.436l0,0c2.415,0,4.372-1.984,4.372-4.436V134.378z"/>
			<path fill="#E9E9EA" d="M-589.472,137.762c0-2.013-1.958-3.646-4.373-3.646l0,0c-2.415,0-4.372,1.634-4.372,3.646v31.252
				c0,2.014,1.957,3.646,4.372,3.646l0,0c2.415,0,4.373-1.632,4.373-3.646V137.762z"/>
			<path fill="#E9E9EA" d="M-571.371,141.629c0-1.515-1.958-2.743-4.373-2.743l0,0c-2.415,0-4.373,1.229-4.373,2.743v23.518
				c0,1.515,1.958,2.743,4.373,2.743l0,0c2.415,0,4.373-1.229,4.373-2.743V141.629z"/>
			<path fill="#E9E9EA" d="M-716.172,127.423c0-3.346-1.957-6.058-4.372-6.058l0,0c-2.416,0-4.373,2.712-4.373,6.058v51.93
				c0,3.347,1.957,6.059,4.373,6.059l0,0c2.415,0,4.372-2.712,4.372-6.059V127.423z"/>
			<path fill="#E9E9EA" d="M-734.271,128.552c0-3.2-1.958-5.795-4.373-5.795l0,0c-2.415,0-4.373,2.595-4.373,5.795v49.672
				c0,3.201,1.958,5.796,4.373,5.796l0,0c2.415,0,4.373-2.595,4.373-5.796V128.552z"/>
			<path fill="#E9E9EA" d="M-752.372,130.163c0-2.992-1.957-5.42-4.372-5.42l0,0c-2.416,0-4.373,2.428-4.373,5.42v46.449
				c0,2.994,1.957,5.42,4.373,5.42l0,0c2.415,0,4.372-2.426,4.372-5.42V130.163z"/>
			<path fill="#E9E9EA" d="M-770.471,132.122c0-2.74-1.958-4.963-4.373-4.963l0,0c-2.415,0-4.373,2.223-4.373,4.963v42.531
				c0,2.742,1.958,4.962,4.373,4.962l0,0c2.415,0,4.373-2.22,4.373-4.962V132.122z"/>
			<path fill="#E9E9EA" d="M-788.571,134.378c0-2.449-1.957-4.436-4.372-4.436l0,0c-2.416,0-4.373,1.986-4.373,4.436v38.02
				c0,2.451,1.957,4.436,4.373,4.436l0,0c2.415,0,4.372-1.984,4.372-4.436V134.378z"/>
			<path fill="#E9E9EA" d="M-806.671,137.762c0-2.013-1.958-3.646-4.373-3.646l0,0c-2.415,0-4.373,1.634-4.373,3.646v31.252
				c0,2.014,1.958,3.646,4.373,3.646l0,0c2.415,0,4.373-1.632,4.373-3.646V137.762z"/>
			<path fill="#E9E9EA" d="M-824.771,141.629c0-1.515-1.957-2.743-4.373-2.743l0,0c-2.415,0-4.372,1.229-4.372,2.743v23.518
				c0,1.515,1.957,2.743,4.372,2.743l0,0c2.416,0,4.373-1.229,4.373-2.743V141.629z"/>
		</g>
		<path fill="#604E75" d="M-841.467,306.794c0,7.355-5.962,13.316-13.316,13.316h-23.85c-7.354,0-13.315-5.961-13.315-13.316
			v-52.469c0-7.354,5.962-13.314,13.315-13.314h23.85c7.354,0,13.316,5.961,13.316,13.314V306.794z"/>
		<path fill="#604E75" d="M-508.368,306.794c0,7.355-5.962,13.316-13.316,13.316h-23.85c-7.354,0-13.315-5.961-13.315-13.316
			v-52.469c0-7.354,5.961-13.314,13.315-13.314h23.85c7.354,0,13.316,5.961,13.316,13.314V306.794z"/>
	</g>
</g>
</svg>
