<?xml version="1.0" encoding="utf-8"?>
<!-- Generator: Adobe Illustrator 16.0.0, SVG Export Plug-In . SVG Version: 6.00 Build 0)  -->
<!DOCTYPE svg PUBLIC "-//W3C//DTD SVG 1.1//EN" "http://www.w3.org/Graphics/SVG/1.1/DTD/svg11.dtd">
<svg version="1.1" id="Layer_1" xmlns="http://www.w3.org/2000/svg" xmlns:xlink="http://www.w3.org/1999/xlink" x="0px" y="0px"
	 width="594px" height="340.433px" viewBox="0 0 594 340.433" enable-background="new 0 0 594 340.433" xml:space="preserve">
<g>
	<g>
		<path fill="#E9E9EA" d="M-708.172,363.361h2.438c5.94,0,10.8,4.86,10.8,10.801v32.732c0,5.939-4.859,10.801-10.8,10.801h-2.438
			V363.361z"/>
		<path fill="#E9E9EA" d="M-787.079,363.361h-2.438c-5.94,0-10.801,4.86-10.801,10.801v32.732c0,5.939,4.86,10.801,10.801,10.801
			h2.438V363.361z"/>
		<path fill="#604E75" d="M-705.734,363.361h-2.438h-78.907h-2.438c-5.94,0-10.801,4.86-10.801,10.801v5.698h13.238v54.501h78.907
			V379.86h13.237v-5.698C-694.935,368.222-699.794,363.361-705.734,363.361z"/>
		<polygon fill="#5B5C5C" points="-787.079,434.361 -787.079,451.027 -787.079,490.695 -758.29,490.695 -758.29,451.027 
			-736.962,451.027 -736.962,490.695 -708.172,490.695 -708.172,451.027 -708.172,434.361 		"/>
		<path d="M-772.685,505.089c7.949,0,14.395-6.445,14.395-14.395h-28.789C-787.079,498.644-780.635,505.089-772.685,505.089z"/>
		<path d="M-722.567,505.089c7.951,0,14.396-6.445,14.396-14.395h-28.79C-736.962,498.644-730.517,505.089-722.567,505.089z"/>
		<path fill="#5B5C5C" d="M-772.685,476.3c-7.95,0-14.395,6.443-14.395,14.395h28.789C-758.29,482.744-764.735,476.3-772.685,476.3z
			"/>
		<path fill="#5B5C5C" d="M-722.567,476.3c-7.949,0-14.395,6.443-14.395,14.395h28.79C-708.172,482.744-714.616,476.3-722.567,476.3
			z"/>
		<g>
			<g>
				<path fill="#B69FCC" d="M-766.582,382.224c0.692-0.213,1.112-0.071,1.253,0.416c1.805,6.229,2.706,9.343,4.51,15.572
					c0.134,0.463-0.042,0.801-0.545,0.957c-1.107,0.34-1.656,0.527-2.746,0.938c-0.471,0.178-0.844,0.027-1.021-0.42
					c-2.387-6.029-3.58-9.042-5.967-15.071c-0.188-0.472,0.093-0.854,0.74-1.1C-768.86,382.951-768.104,382.692-766.582,382.224z"/>
				<path fill="#B69FCC" d="M-757.243,380.085c0.71-0.107,1.101,0.098,1.168,0.6c0.533,3.938,0.798,5.904,1.331,9.841
					c0.262,1.935,0.559,3.052,2.638,2.862s2.166-1.344,2.073-3.292c-0.188-3.968-0.282-5.951-0.47-9.919
					c-0.024-0.506,0.358-0.779,1.038-0.801c1.604-0.051,2.407-0.051,4.01,0c0.715,0.021,1.061,0.295,1.037,0.801
					c-0.214,4.504-0.32,6.755-0.533,11.258c-0.079,1.67-0.668,5.736-6.759,6.291s-7.428-3.329-7.809-4.957
					c-1.027-4.391-1.539-6.586-2.566-10.977c-0.115-0.494,0.212-0.832,0.881-0.978
					C-759.627,380.475-758.833,380.328-757.243,380.085z"/>
				<path fill="#B69FCC" d="M-732.169,381.169c6.239,1.512,7.922,4.529,6.393,8.393c-1.529,3.863-4.181,4.65-9.253,3.424
					c-0.547-0.133-0.822-0.195-1.372-0.313c-0.543-0.116-0.909,0.072-1.006,0.568c-0.313,1.592-0.469,2.389-0.782,3.979
					c-0.098,0.498-0.402,0.695-0.917,0.604c-1.153-0.205-1.731-0.295-2.891-0.432c-0.492-0.057-0.751-0.359-0.703-0.84
					c0.641-6.442,0.961-9.662,1.604-16.105c0.05-0.505,0.431-0.724,1.146-0.666C-736.816,380.145-735.253,380.423-732.169,381.169z
					 M-733.818,388.8c1.479,0.363,2.252,0.439,2.687-1.068s-0.297-1.895-1.866-2.279c-0.706-0.175-1.061-0.254-1.771-0.406
					c-0.624-0.133-1.034,0.045-1.131,0.541c-0.149,0.756-0.224,1.134-0.373,1.89c-0.093,0.474,0.195,0.813,0.784,0.938
					C-734.818,388.558-734.484,388.636-733.818,388.8z"/>
			</g>
		</g>
	</g>
	<g>
		<path fill="#E9E9EA" d="M-670.591,298.729c-0.893,0-1.756,0.118-2.586,0.317c-8.771-28.623-38.908-49.726-74.753-49.726
			c-35.845,0-65.983,21.103-74.753,49.726c-0.83-0.199-1.693-0.317-2.586-0.317c-6.074,0-11,4.925-11,11s4.926,11,11,11
			c0.068,0,0.133-0.009,0.199-0.011c2.715,33.828,36.201,49.416,77.14,49.416c40.938,0,74.425-15.588,77.14-49.416
			c0.066,0.002,0.131,0.011,0.199,0.011c6.074,0,11-4.925,11-11S-664.517,298.729-670.591,298.729z"/>
		<path fill="none" stroke="#000000" stroke-width="3" stroke-linecap="round" stroke-miterlimit="10" d="M-747.93,301.365
			c0,0,0.812,8.268,4.312,12.572l-4.312,3.555"/>
		<path fill="none" stroke="#000000" stroke-width="3" stroke-linecap="round" stroke-miterlimit="10" d="M-760.198,324.201
			c0,5.105,3.842,12.916,12.318,12.916s12.827-6.482,12.827-12.826"/>
		<path fill="#604E75" d="M-797.261,378.438c4.591-11.506-4.857-20.418-10.387-24.647c-8.191-6.269-23.824-30.232-15.473-54.742
			c9.243-27.129,42.665-37.014,55.192-37.99c21.372-1.667,36.333,12.333,44.315,0c7.982-12.333-16.982-23.333-16.982-23.333
			c-30-9.668-56.885,2.333-74.627,17.333c-26.868,22.716-31.902,63.65-14.373,98c5.55,10.875,8.467,16.334-1.2,21.167
			c0,0-5.5,3.833-7.5,0.667c0,0-0.167,4.333,7,5c0,0-1.333,3.05-4.333,2.107c0,0,3.812,1.742,6.771,0.434
			c0,0-0.375,1.813-2.75,1.875C-834.193,384.376-803.993,395.312-797.261,378.438z"/>
		<path fill="#604E75" d="M-697.407,381.725c-10.229-10.833-3.265-19.167,1.801-23.315c9.908-8.113,33.218-30.908,22.365-59.361
			c-9.969-26.135-31.093-24.859-41.511-29.656c-10.137-4.666-17.804-17.666-17.804-17.666c13.667-14.666,39.161-6.734,62,15
			c22.223,21.148,20.735,67.705,6,91.667c-5.739,9.333-2.333,15.333,8,17c0,0,5.095,1.76,7.095-0.537s-1.333,4.37-5.5,4.37
			s-1.499,1.499,2.167,1.833c0,0-2.927,1.5-6.797,1.334c0,0-1.037,0.666,0.963,1.5
			C-658.628,383.892-688.192,391.483-697.407,381.725z"/>
		<path fill="#E9E9EA" d="M-670.79,320.718c0.066,0.003,0.131,0.011,0.199,0.011c6.074,0,11-4.925,11-11c0-6.074-4.926-11-11-11
			c-0.893,0-1.756,0.118-2.586,0.317l-5.525,12.451L-670.79,320.718z"/>
		<path fill="#E9E9EA" d="M-825.068,320.718c-0.066,0.003-0.131,0.011-0.199,0.011c-6.074,0-11-4.925-11-11c0-6.074,4.926-11,11-11
			c0.893,0,1.756,0.118,2.586,0.317l5.525,12.451L-825.068,320.718z"/>
		<circle fill="#C4C4C3" cx="-793.797" cy="333.096" r="9.595"/>
		<circle fill="#C4C4C3" cx="-701.553" cy="333.096" r="9.595"/>
		<path fill="none" stroke="#000000" stroke-width="3" stroke-linecap="round" stroke-miterlimit="10" d="M-800.803,302.151
			c0,2.075,1.561,5.25,5.006,5.25c3.445,0,5.214-2.635,5.214-5.213"/>
		<path fill="none" stroke="#000000" stroke-width="3" stroke-linecap="round" stroke-miterlimit="10" d="M-795.693,297.361
			c0,2.075,1.561,5.25,5.006,5.25c1.54,0,2.744-0.525,3.605-1.338"/>
		<path fill="none" stroke="#000000" stroke-width="3" stroke-linecap="round" stroke-miterlimit="10" d="M-695.777,297.361
			c0,2.075-1.561,5.25-5.006,5.25c-1.539,0-2.744-0.525-3.604-1.338"/>
		<path fill="none" stroke="#000000" stroke-width="3" stroke-linecap="round" stroke-miterlimit="10" d="M-700.965,302.151
			c0,2.075,1.561,5.25,5.006,5.25c3.445,0,5.214-2.635,5.214-5.213"/>
		<g>
			<circle cx="-786.083" cy="304.876" r="7.5"/>
			<circle fill="#FFFFFF" cx="-788.577" cy="302.833" r="3.03"/>
		</g>
		<g>
			<circle cx="-705.583" cy="304.876" r="7.5"/>
			<circle fill="#FFFFFF" cx="-708.077" cy="302.833" r="3.03"/>
		</g>
	</g>
</g>
<g>
	<g>
		<path fill="#E9E9EA" d="M-469.249,70.442h2.438c5.94,0,10.801,4.86,10.801,10.8v32.733c0,5.939-4.86,10.8-10.801,10.8h-2.438
			V70.442z"/>
		<path fill="#E9E9EA" d="M-548.156,70.442h-2.438c-5.939,0-10.8,4.86-10.8,10.8v32.733c0,5.939,4.86,10.8,10.8,10.8h2.438V70.442z"
			/>
		<path fill="#5B5C5C" d="M-466.812,70.442h-2.438h-78.907h-2.438c-5.939,0-10.8,4.86-10.8,10.8v5.699h13.237v54.5h78.907v-54.5
			h13.238v-5.699C-456.011,75.303-460.871,70.442-466.812,70.442z"/>
		<polygon fill="#604E75" points="-548.156,141.441 -548.156,158.108 -548.156,197.775 -519.366,197.775 -519.366,158.108 
			-498.038,158.108 -498.038,197.775 -469.249,197.775 -469.249,158.108 -469.249,141.441 		"/>
		<path d="M-533.762,212.169c7.95,0,14.396-6.443,14.396-14.395h-28.79C-548.156,205.726-541.711,212.169-533.762,212.169z"/>
		<path d="M-483.644,212.169c7.95,0,14.395-6.443,14.395-14.395h-28.789C-498.038,205.726-491.593,212.169-483.644,212.169z"/>
		<path fill="#604E75" d="M-533.762,183.381c-7.949,0-14.395,6.445-14.395,14.395h28.79
			C-519.366,189.826-525.812,183.381-533.762,183.381z"/>
		<path fill="#604E75" d="M-483.644,183.381c-7.949,0-14.395,6.445-14.395,14.395h28.789
			C-469.249,189.826-475.693,183.381-483.644,183.381z"/>
		<g>
			<g>
				<path fill="#E9E9EA" d="M-542.042,92.524c1.461-0.578,2.197-0.851,3.675-1.364c0.197,0.567,0.295,0.851,0.492,1.418
					c-0.319,0.111-0.479,0.167-0.798,0.28c0.727,2.033,1.089,3.048,1.816,5.081c0.299-0.107,0.45-0.16,0.75-0.264
					c0.195,0.562,0.292,0.843,0.487,1.405c-1.343,0.466-2.011,0.714-3.338,1.239c-0.219-0.553-0.329-0.83-0.548-1.383
					c0.296-0.118,0.446-0.175,0.743-0.29c-0.776-2.015-1.162-3.021-1.938-5.036c-0.316,0.122-0.476,0.183-0.791,0.308
					C-541.711,93.361-541.821,93.083-542.042,92.524z"/>
				<path fill="#E9E9EA" d="M-530.39,88.768c1.383-0.343,2.079-0.5,3.472-0.788c0.122,0.587,0.182,0.88,0.304,1.467
					c-0.328,0.068-0.493,0.103-0.82,0.174c0.584,2.701,0.876,4.052,1.461,6.753c-0.48,0.104-0.719,0.157-1.198,0.268
					c-2.036-1.685-3.101-2.498-5.318-4.053c0.41,1.444,0.615,2.167,1.025,3.612c0.157-0.044,0.918-0.256,0.918-0.256
					c0.157,0.579,0.235,0.869,0.393,1.447c-1.25,0.339-1.874,0.521-3.113,0.91c-0.18-0.572-0.27-0.858-0.449-1.43
					c0.36-0.113,0.541-0.168,0.901-0.277c-0.625-2.071-0.936-3.107-1.561-5.179c-0.384,0.116-0.577,0.175-0.96,0.295
					c-0.18-0.572-0.27-0.858-0.449-1.431c1.163-0.365,1.747-0.538,2.918-0.863c1.862,1.351,2.763,2.048,4.499,3.487
					c-0.275-1.167-0.414-1.75-0.689-2.917c-0.389,0.092-0.582,0.138-0.97,0.234C-530.171,89.641-530.246,89.35-530.39,88.768z"/>
				<path fill="#E9E9EA" d="M-515.563,90.579c0.198,2.403-1.544,4.328-3.814,4.63c-1.451,0.193-2.175,0.307-3.619,0.564
					c-0.106-0.595-0.159-0.893-0.266-1.488c0.295-0.053,0.443-0.078,0.738-0.128c-0.359-2.119-0.538-3.179-0.897-5.298
					c-0.314,0.053-0.471,0.081-0.785,0.137c-0.107-0.6-0.161-0.899-0.268-1.499c1.59-0.284,2.388-0.409,3.986-0.622
					C-517.801,86.519-515.761,88.177-515.563,90.579z M-520.504,93.84c0.257-0.037,0.385-0.055,0.642-0.09
					c1.84-0.251,2.344-1.638,2.202-2.974c-0.144-1.347-1.154-2.592-2.927-2.35c-0.273,0.037-0.411,0.057-0.684,0.096
					C-520.964,90.65-520.812,91.713-520.504,93.84z"/>
				<path fill="#E9E9EA" d="M-514.008,86.283c1.541-0.094,2.313-0.125,3.856-0.154c0.011,0.6,0.018,0.9,0.029,1.5
					c-0.333,0.006-0.5,0.01-0.833,0.02c0.061,2.158,0.09,3.235,0.151,5.393c0.313-0.009,0.47-0.012,0.783-0.018
					c0.011,0.595,0.018,0.892,0.029,1.487c-1.401,0.026-2.103,0.054-3.502,0.14c-0.037-0.594-0.054-0.891-0.09-1.484
					c0.313-0.019,0.469-0.028,0.782-0.044c-0.112-2.155-0.167-3.231-0.279-5.387c-0.333,0.017-0.5,0.025-0.833,0.046
					C-513.953,87.181-513.972,86.882-514.008,86.283z"/>
				<path fill="#E9E9EA" d="M-502.22,86.312c0,0,2.488,6.832,2.62,7.136c0.372,0.039,0.556,0.059,0.927,0.102
					c-0.069,0.596-0.104,0.894-0.173,1.49c-1.399-0.163-2.101-0.229-3.505-0.332c0.043-0.593,0.065-0.89,0.108-1.483
					c0.184,0.014,0.276,0.02,0.459,0.034c-0.125-0.311-0.228-0.619-0.367-0.942c-0.993-0.073-1.49-0.102-2.484-0.146
					c-0.157,0.358-0.235,0.537-0.389,0.896c0.184,0.007,0.275,0.011,0.459,0.02c-0.027,0.594-0.04,0.892-0.067,1.486
					c-1.215-0.056-1.823-0.072-3.04-0.083c0.005-0.6,0.008-0.899,0.014-1.499c0.373,0.003,0.56,0.006,0.933,0.014
					c0.316-0.894,3.296-6.765,3.296-6.765c0.494,0.027,0.742,0.043,1.236,0.077C-502.203,86.313-502.209,86.313-502.22,86.312z
					 M-502.602,90.781c-0.256-0.687-0.388-1.028-0.656-1.712c-0.325,0.649-0.484,0.974-0.799,1.626
					C-503.474,90.725-503.184,90.742-502.602,90.781z"/>
				<path fill="#E9E9EA" d="M-490.12,87.941c1.393,0.285,2.087,0.441,3.471,0.781c-0.143,0.583-0.214,0.873-0.357,1.455
					c-0.326-0.08-0.489-0.119-0.816-0.196c-0.634,2.69-0.95,4.034-1.584,6.724c-0.479-0.113-0.718-0.167-1.198-0.273
					c-1.113-2.396-1.723-3.588-3.046-5.944c-0.251,1.48-0.376,2.222-0.627,3.702c0.16,0.027,0.934,0.163,0.934,0.163
					c-0.107,0.59-0.161,0.886-0.268,1.476c-1.269-0.23-1.905-0.333-3.18-0.514c0.084-0.594,0.126-0.891,0.21-1.484
					c0.37,0.052,0.555,0.08,0.924,0.137c0.327-2.139,0.491-3.208,0.818-5.348c-0.394-0.06-0.589-0.089-0.983-0.145
					c0.084-0.594,0.126-0.891,0.21-1.485c1.196,0.169,1.793,0.265,2.985,0.474c1.093,2.019,1.603,3.036,2.55,5.081
					c0.253-1.172,0.379-1.758,0.632-2.93c-0.39-0.084-0.584-0.126-0.976-0.206C-490.3,88.822-490.24,88.528-490.12,87.941z"/>
				<path fill="#E9E9EA" d="M-478.956,90.984c0,0,0.684,7.258,0.734,7.586c0.354,0.136,0.531,0.205,0.884,0.344
					c-0.221,0.558-0.331,0.837-0.552,1.395c-1.332-0.527-2.002-0.776-3.35-1.244c0.195-0.562,0.294-0.844,0.489-1.406
					c0.176,0.061,0.264,0.092,0.44,0.154c-0.043-0.333-0.065-0.658-0.119-1.007c-0.954-0.331-1.431-0.489-2.392-0.792
					c-0.245,0.305-0.368,0.458-0.61,0.765c0.178,0.055,0.268,0.083,0.446,0.14c-0.179,0.567-0.27,0.851-0.449,1.418
					c-1.173-0.371-1.764-0.545-2.947-0.871c0.159-0.578,0.24-0.868,0.399-1.446c0.363,0.1,0.545,0.151,0.907,0.255
					c0.538-0.782,4.957-5.68,4.957-5.68c0.477,0.155,0.713,0.235,1.188,0.397C-478.94,90.99-478.945,90.988-478.956,90.984z
					 M-480.476,95.206c-0.075-0.729-0.115-1.095-0.202-1.826c-0.485,0.542-0.725,0.813-1.2,1.361
					C-481.316,94.922-481.035,95.016-480.476,95.206z"/>
			</g>
		</g>
	</g>
	<g>
		<path fill="#E9E9EA" d="M-431.677,6.811c-0.893,0-1.756,0.118-2.586,0.318c-8.77-28.624-38.908-49.725-74.753-49.725
			c-35.846,0-65.984,21.101-74.752,49.725c-0.831-0.201-1.693-0.318-2.586-0.318c-6.076,0-11,4.925-11,11c0,6.075,4.924,11,11,11
			c0.066,0,0.132-0.009,0.199-0.01c2.713,33.829,36.201,49.417,77.139,49.417s74.425-15.588,77.14-49.417
			c0.066,0.001,0.131,0.01,0.199,0.01c6.074,0,11-4.925,11-11C-420.677,11.735-425.603,6.811-431.677,6.811z"/>
		<g>
			<circle cx="-549.758" cy="14.519" r="7.5"/>
			<circle fill="#FFFFFF" cx="-552.252" cy="12.476" r="3.029"/>
		</g>
		<g>
			<circle cx="-469.258" cy="14.519" r="7.5"/>
			<circle fill="#FFFFFF" cx="-471.752" cy="12.476" r="3.03"/>
		</g>
		<path fill="none" stroke="#000000" stroke-width="3" stroke-linecap="round" stroke-miterlimit="10" d="M-509.016,9.446
			c0,0,0.812,8.268,4.312,12.573l-4.312,3.555"/>
		<path fill="none" stroke="#000000" stroke-width="3" stroke-linecap="round" stroke-miterlimit="10" d="M-521.284,32.281
			c0,5.106,3.842,12.917,12.318,12.917c8.476,0,12.827-6.482,12.827-12.827"/>
		<path fill="#B69FCC" d="M-457.201-30.925L-457.201-30.925C-457.201-30.925-457.201-30.926-457.201-30.925
			c-1.28-0.946-2.444-1.776-3.42-2.501c-1.853-1.379-4.369-2.847-7.429-4.276c-16.112-12.402-23.727-29.564-23.727-29.564
			c-3,9.667-8.751,6.667-8.751,6.667c-2.751-1-3.083-6-3.083-6c-0.5,3.5-4,6.5-6.666,4.167c-2.667-2.333-4-11.5-4-11.5
			s-1.5,18-8.334,16.833c-6.833-1.167-6.166-5.167-6.166-5.167c-0.968,10.89-16.194,21.368-24.47,26.295
			c-1.881,0.93-3.637,1.909-5.25,2.928c-0.002,0-0.012,0.005-0.012,0.005h0.002c-2.631,1.663-4.881,3.431-6.615,5.279
			c-10.324,11.001-19.127,25.778-18.646,34.889c0,0,2.813,3.335,2.813,7.39h5.5c0,0,0.5-26.445,16-36.445
			c0,0,25.348-10.674,48.515-9.841c23.166,0.833,50.819,8.674,50.819,8.674c19.667,12.667,17.667,37.612,17.667,37.612h5.332
			c0.166-4.055,2.859-7.39,2.859-7.39C-436.059-14.058-449.07-24.921-457.201-30.925z"/>
	</g>
</g>
<g>
	<g>
		<path fill="#E9E9EA" d="M-930.863,363.361h2.438c5.939,0,10.8,4.86,10.8,10.801v32.732c0,5.939-4.86,10.801-10.8,10.801h-2.438
			V363.361z"/>
		<path fill="#E9E9EA" d="M-1009.771,363.361h-2.438c-5.94,0-10.8,4.86-10.8,10.801v32.732c0,5.939,4.859,10.801,10.8,10.801h2.438
			V363.361z"/>
		<path fill="#B69FCC" d="M-928.426,363.361h-2.438h-78.908h-2.438c-5.94,0-10.8,4.86-10.8,10.801v5.698h13.237v54.501h78.908
			V379.86h13.237v-5.698C-917.626,368.222-922.486,363.361-928.426,363.361z"/>
		<polygon fill="#C4C4C3" points="-1009.771,434.361 -1009.771,451.027 -1009.771,490.695 -980.981,490.695 -980.981,451.027 
			-959.653,451.027 -959.653,490.695 -930.863,490.695 -930.863,451.027 -930.863,434.361 		"/>
		<path d="M-995.377,505.089c7.95,0,14.396-6.445,14.396-14.395h-28.79C-1009.771,498.644-1003.327,505.089-995.377,505.089z"/>
		<path d="M-945.259,505.089c7.95,0,14.396-6.445,14.396-14.395h-28.79C-959.653,498.644-953.208,505.089-945.259,505.089z"/>
		<path fill="#C4C4C3" d="M-995.377,476.3c-7.95,0-14.395,6.443-14.395,14.395h28.79C-980.981,482.744-987.427,476.3-995.377,476.3z
			"/>
		<path fill="#C4C4C3" d="M-945.259,476.3c-7.949,0-14.395,6.443-14.395,14.395h28.79C-930.863,482.744-937.309,476.3-945.259,476.3
			z"/>
		<g>
			<g>
				<path fill="#5B5C5C" d="M-996.473,387.585c0.005,1.076-0.327,2.525-2.473,3.263c-2.124,0.729-4.295-0.304-5.158-2.479
					c-0.926-2.34,0.151-4.519,2.486-5.318c0.799-0.272,1.463-0.327,1.833-0.275c-0.054-0.168-0.081-0.253-0.135-0.421
					c0.628-0.201,0.943-0.298,1.574-0.487c0.373,1.239,0.559,1.858,0.931,3.098c-0.608,0.184-0.912,0.277-1.518,0.473
					c-0.055-0.172-0.083-0.258-0.138-0.43c-0.177-0.553-0.979-0.92-2.067-0.547c-0.762,0.261-1.616,1.199-0.909,3.127
					c0.659,1.795,1.906,2.119,2.623,1.873c1.172-0.402,1.433-1.563,1.387-1.707C-997.41,387.679-997.097,387.646-996.473,387.585z"
					/>
				<path fill="#5B5C5C" d="M-987.177,386.216c0.104,0.576,0.157,0.861,0.261,1.437c-0.802,0.146-1.202,0.224-2.001,0.39
					c-0.327-0.073-1.008-0.377-1.227-1.375c-0.124-0.565-0.823-1.606-2.049-1.469c0.189,0.789,0.285,1.186,0.474,1.975
					c0.297-0.07,0.446-0.106,0.744-0.176c0.131,0.569,0.197,0.855,0.328,1.426c-1.323,0.305-1.982,0.471-3.294,0.83
					c-0.154-0.563-0.231-0.848-0.386-1.412c0.347-0.094,0.521-0.143,0.868-0.233c-0.53-2.022-0.797-3.032-1.327-5.056
					c-0.369,0.097-0.552,0.144-0.92,0.244c-0.153-0.561-0.229-0.84-0.382-1.398c1.506-0.412,2.262-0.604,3.78-0.947
					c2.024-0.462,2.908,0.711,3.107,1.725c0.168,0.854-0.406,1.818-0.383,1.994c0.032,0.242,1.002,1.147,1.168,1.99
					c0.056,0.283,0.361,0.225,0.361,0.225C-987.704,386.314-987.529,386.281-987.177,386.216z M-991.912,383.644
					c0.715-0.166,0.962-0.657,0.868-1.088c-0.094-0.432-0.498-0.795-1.104-0.655c-0.316,0.073-0.474,0.108-0.79,0.185
					c0.163,0.682,0.244,1.023,0.407,1.705C-992.284,383.729-992.159,383.701-991.912,383.644z"/>
				<path fill="#5B5C5C" d="M-985.954,379.273c1.458-0.225,2.188-0.322,3.651-0.488c0.065,0.575,0.096,0.864,0.162,1.44
					c-0.316,0.036-0.473,0.051-0.789,0.09c0.253,2.072,0.38,3.108,0.633,5.181c0.297-0.035,0.446-0.054,0.744-0.088
					c0.065,0.571,0.098,0.857,0.163,1.43c-1.333,0.15-1.999,0.242-3.327,0.447c-0.088-0.568-0.131-0.854-0.219-1.423
					c0.297-0.046,0.445-0.067,0.742-0.11c-0.3-2.065-0.451-3.101-0.751-5.166c-0.315,0.047-0.473,0.069-0.788,0.119
					C-985.821,380.13-985.865,379.847-985.954,379.273z"/>
				<path fill="#5B5C5C" d="M-971.267,378.184c1.024,0.009,1.536,0.021,2.561,0.06c-0.021,0.578-0.031,0.868-0.052,1.447
					c-0.378-0.014-0.566-0.02-0.945-0.029c-0.055,2.092-0.083,3.137-0.138,5.229c0.356,0.009,0.535,0.018,0.891,0.029
					c-0.021,0.578-0.031,0.867-0.053,1.445c-1.339-0.049-2.008-0.06-3.348-0.055c-0.002-0.579-0.004-0.868-0.006-1.448
					c0.233-0.001,0.349-0.001,0.582,0c0.003-1.049,0.005-1.573,0.009-2.622c-0.798,1.625-1.179,2.443-1.903,4.086
					c-0.354,0.008-0.532,0.014-0.886,0.023c0,0-1.74-2.984-2.417-4.096c0.062,1.098,0.093,1.646,0.155,2.742
					c0.237-0.014,0.354-0.02,0.592-0.031c0.029,0.58,0.042,0.867,0.071,1.447c-1.166,0.058-1.748,0.096-2.911,0.194
					c-0.049-0.577-0.073-0.864-0.122-1.442c0.36-0.029,0.54-0.045,0.9-0.072c-0.155-2.086-0.233-3.129-0.388-5.215
					c-0.382,0.027-0.573,0.043-0.956,0.076c-0.049-0.578-0.073-0.867-0.122-1.445c0.96-0.08,1.441-0.115,2.403-0.172
					c1.404,2.07,2.069,3.119,3.324,5.238C-972.989,381.401-972.438,380.321-971.267,378.184z"/>
				<path fill="#5B5C5C" d="M-959.937,384.853c-0.329,2.295-2.647,1.993-3.379,1.916c-0.731-0.077-1.566-0.441-1.824-1.045
					c-0.029,0.347-0.042,0.521-0.071,0.867c-0.582-0.049-0.873-0.069-1.455-0.107c0.086-1.333,0.129-2,0.216-3.333
					c0.605,0.039,0.909,0.063,1.514,0.113c-0.024,0.291-0.037,0.438-0.061,0.729c-0.048,0.577,0.651,1.215,1.538,1.307
					c0.745,0.076,1.655-0.121,1.707-0.549c0.088-0.726-0.486-0.963-1.803-1.502c-1.007-0.412-2.679-0.955-2.573-2.552
					c0.086-1.295,1.588-2.237,3.349-2.058c1.123,0.113,1.542,0.615,1.641,1.07c0.042-0.35,0.062-0.525,0.104-0.875
					c0.642,0.078,0.963,0.117,1.604,0.207c-0.153,1.094-0.229,1.645-0.381,2.736c-0.622-0.087-0.933-0.126-1.555-0.201
					c0.007-0.056,0.011-0.084,0.018-0.141c0.052-0.426-0.323-1.215-1.578-1.344c-0.477-0.049-1.131,0.183-1.171,0.621
					c-0.038,0.428,0.437,0.637,1.463,1.021C-961.468,382.171-959.647,382.832-959.937,384.853z"/>
				<path fill="#5B5C5C" d="M-949.749,385.164c-0.795,3.004-3.098,3.48-4.874,3.1c-1.901-0.408-3.645-1.896-3.159-4.825
					c0.465-2.804,2.818-3.776,4.911-3.326C-950.917,380.531-948.983,382.271-949.749,385.164z M-951.889,384.626
					c0.381-1.603-0.181-2.812-1.297-3.051c-1.265-0.271-2.257,0.606-2.565,2.225c-0.304,1.594,0.251,2.757,1.44,3.013
					C-953.261,387.039-952.264,386.205-951.889,384.626z"/>
				<path fill="#5B5C5C" d="M-941.686,383.382c1.289,0.455,1.933,0.697,3.208,1.201c-0.213,0.539-0.32,0.81-0.534,1.349
					c-0.3-0.119-0.452-0.179-0.753-0.294c-0.961,2.492-1.441,3.74-2.402,6.232c-0.443-0.172-0.664-0.254-1.109-0.418
					c-0.746-2.441-1.168-3.664-2.111-6.095c-0.439,1.384-0.658,2.076-1.097,3.46c0.149,0.049,0.869,0.28,0.869,0.28
					c-0.181,0.551-0.273,0.827-0.454,1.378c-1.181-0.389-1.773-0.571-2.964-0.915c0.161-0.558,0.241-0.835,0.401-1.392
					c0.346,0.1,0.519,0.148,0.863,0.252c0.601-2.004,0.901-3.006,1.502-5.01c-0.366-0.109-0.549-0.164-0.916-0.271
					c0.161-0.558,0.24-0.836,0.4-1.394c1.113,0.321,1.668,0.491,2.774,0.85c0.768,2.076,1.119,3.113,1.751,5.197
					c0.398-1.09,0.597-1.633,0.995-2.723c-0.361-0.132-0.543-0.195-0.905-0.324C-941.974,384.203-941.878,383.93-941.686,383.382z"
					/>
			</g>
		</g>
		<g>
			<g>
				<path fill="#5B5C5C" d="M-992.14,400.746c1.414,0.449,2.125,0.656,3.556,1.027c-0.15,0.578-0.225,0.869-0.375,1.449
					c-0.307-0.08-0.461-0.121-0.768-0.203c-0.565,2.084-0.847,3.125-1.413,5.209c0.331,0.092,0.496,0.133,0.827,0.219
					c-0.15,0.582-0.226,0.871-0.376,1.453c-1.608-0.418-2.409-0.65-3.998-1.156c0.182-0.572,0.273-0.854,0.455-1.424
					c0.395,0.125,0.592,0.182,0.988,0.303c0.244-0.805,0.365-1.203,0.609-2.006c-1.149-0.35-1.721-0.535-2.858-0.934
					c-0.277,0.793-0.415,1.189-0.691,1.98c0.392,0.137,0.588,0.207,0.981,0.338c-0.189,0.568-0.285,0.852-0.475,1.42
					c-1.584-0.527-2.37-0.813-3.93-1.432c0.221-0.559,0.332-0.836,0.553-1.395c0.321,0.127,0.482,0.189,0.804,0.313
					c0.771-2.018,1.156-3.025,1.927-5.043c-0.299-0.113-0.448-0.17-0.746-0.287c0.221-0.559,0.332-0.838,0.552-1.396
					c1.388,0.551,2.087,0.805,3.496,1.273c-0.189,0.57-0.286,0.854-0.476,1.424c-0.365-0.121-0.547-0.188-0.91-0.313
					c-0.237,0.68-0.355,1.02-0.593,1.699c1.114,0.389,1.674,0.574,2.8,0.914c0.209-0.688,0.313-1.037,0.522-1.725
					c-0.367-0.111-0.551-0.166-0.917-0.283C-992.412,401.603-992.321,401.316-992.14,400.746z"/>
				<path fill="#5B5C5C" d="M-981.482,403.208c0,0,2.185,6.922,2.33,7.227c0.402,0.041,0.603,0.059,1.005,0.094
					c-0.053,0.598-0.079,0.896-0.131,1.494c-1.577-0.139-2.363-0.227-3.933-0.447c0.083-0.588,0.123-0.885,0.206-1.475
					c0.198,0.027,0.297,0.043,0.495,0.068c-0.121-0.318-0.213-0.633-0.341-0.967c-1.045-0.146-1.567-0.229-2.608-0.412
					c-0.211,0.332-0.318,0.498-0.532,0.83c0.197,0.035,0.296,0.053,0.494,0.086c-0.103,0.586-0.155,0.883-0.258,1.469
					c-1.353-0.238-2.027-0.375-3.37-0.674c0.13-0.584,0.196-0.877,0.327-1.461c0.396,0.088,0.595,0.131,0.993,0.213
					c0.501-0.814,4.235-6.213,4.235-6.213c0.445,0.072,0.668,0.105,1.114,0.172C-981.467,403.21-981.473,403.208-981.482,403.208z
					 M-982.212,407.636c-0.207-0.705-0.307-1.059-0.5-1.764c-0.382,0.613-0.576,0.922-0.971,1.531
					C-983.095,407.503-982.802,407.548-982.212,407.636z"/>
				<path fill="#5B5C5C" d="M-969.18,403.873c1.221-0.045,1.831-0.08,3.049-0.18c0.049,0.602,0.073,0.904,0.122,1.508
					c-0.314,0.025-0.472,0.037-0.786,0.059c-0.149,0.012-0.139,0.141-0.139,0.141c-0.755,2.768-1.179,4.146-2.119,6.893
					c-0.555,0.02-0.832,0.027-1.386,0.035c-0.649-1.736-0.956-2.607-1.533-4.355c-0.655,1.742-1.003,2.611-1.737,4.338
					c-0.483-0.012-0.724-0.021-1.208-0.043c-0.847-2.682-1.228-4.029-1.906-6.73c0.013-0.166-0.127-0.311-0.289-0.322
					c-0.314-0.023-0.472-0.037-0.786-0.064c0.055-0.604,0.083-0.904,0.137-1.506c1.466,0.133,2.201,0.18,3.671,0.232
					c-0.022,0.604-0.034,0.906-0.056,1.51c-0.25-0.008-0.374-0.014-0.623-0.023c0.32,1.215,0.488,1.818,0.841,3.031
					c0.714-1.781,1.05-2.68,1.682-4.477c0.425,0.004,0.638,0.002,1.063,0c0.627,1.799,0.961,2.697,1.67,4.482
					c0.355-1.211,0.525-1.818,0.848-3.033c-0.185,0.008-0.278,0.014-0.463,0.02C-969.149,404.781-969.158,404.476-969.18,403.873z"
					/>
				<path fill="#5B5C5C" d="M-954.536,408.849c0.333-0.078,0.498-0.121,0.83-0.203c0.143,0.576,0.215,0.867,0.358,1.445
					c-1.611,0.4-2.421,0.574-4.047,0.885c-0.112-0.584-0.168-0.877-0.28-1.461c-1.127-0.824-1.674-1.246-2.741-2.111
					c0.16,1.01,0.239,1.514,0.398,2.521c0.336-0.053,0.505-0.078,0.841-0.135c0.1,0.586,0.149,0.879,0.249,1.465
					c-1.56,0.266-2.343,0.377-3.912,0.561c-0.069-0.592-0.104-0.887-0.172-1.479c0.338-0.039,0.506-0.061,0.843-0.104
					c-0.275-2.15-0.413-3.225-0.689-5.375c-0.313,0.041-0.47,0.061-0.783,0.096c-0.069-0.59-0.103-0.887-0.171-1.479
					c1.395-0.16,2.091-0.266,3.479-0.5c0.1,0.588,0.149,0.879,0.249,1.467c-0.312,0.053-0.466,0.082-0.778,0.131
					c0.084,0.535,0.125,0.803,0.21,1.338c0.842-0.855,1.25-1.293,2.04-2.174c-0.08-0.414-0.12-0.619-0.2-1.035
					c1.205-0.232,1.805-0.365,3.001-0.652c0.139,0.578,0.209,0.871,0.349,1.449c-0.372,0.09-0.558,0.131-0.931,0.215
					c-0.221,0.049-0.33,0.225-0.662,0.625c-0.242,0.291-1.033,1.279-1.585,1.834c1.238,0.988,1.877,1.471,3.196,2.404
					C-955.182,408.765-954.866,408.927-954.536,408.849z"/>
				<path fill="#5B5C5C" d="M-944.556,404.761c0.883,2.23-1.73,3.213-2.561,3.496c-0.83,0.283-1.901,0.309-2.419-0.16
					c0.106,0.346,0.16,0.52,0.266,0.863c-0.664,0.203-0.997,0.299-1.664,0.488c-0.376-1.33-0.565-1.996-0.941-3.324
					c0.637-0.182,0.954-0.271,1.587-0.467c0.089,0.289,0.135,0.434,0.224,0.723c0.177,0.572,1.173,0.895,2.142,0.568
					c0.814-0.273,1.66-0.908,1.507-1.326c-0.259-0.711-0.947-0.625-2.489-0.559c-1.179,0.051-3.053,0.146-3.507-1.443
					c-0.369-1.291,0.667-2.688,2.286-3.23c1.032-0.348,1.615-0.082,1.913,0.295c-0.125-0.344-0.187-0.514-0.312-0.855
					c0.587-0.213,0.88-0.322,1.463-0.551c0.416,1.063,0.623,1.596,1.039,2.658c-0.608,0.236-0.914,0.352-1.526,0.574
					c-0.02-0.055-0.029-0.082-0.049-0.137c-0.152-0.416-0.848-0.953-2.046-0.551c-0.456,0.152-0.966,0.629-0.828,1.063
					c0.134,0.424,0.667,0.445,1.809,0.352C-947.366,403.13-945.333,402.798-944.556,404.761z"/>
			</g>
		</g>
	</g>
	<g>
		<path fill="#E9E9EA" d="M-893.292,298.529c-0.893,0-1.755,0.117-2.586,0.318c-8.769-28.625-38.907-49.727-74.753-49.727
			c-35.845,0-65.983,21.102-74.753,49.727c-0.83-0.201-1.693-0.318-2.586-0.318c-6.074,0-11,4.924-11,11c0,6.074,4.926,11,11,11
			c0.068,0,0.133-0.01,0.199-0.011c2.715,33.828,36.201,49.416,77.14,49.416c40.938,0,74.426-15.588,77.14-49.416
			c0.067,0.001,0.132,0.011,0.199,0.011c6.075,0,11-4.926,11-11C-882.292,303.453-887.217,298.529-893.292,298.529z"/>
		<g>
			<circle cx="-1011.373" cy="306.236" r="7.5"/>
			<circle fill="#FFFFFF" cx="-1013.867" cy="304.193" r="3.03"/>
		</g>
		<g>
			<circle cx="-930.873" cy="306.236" r="7.5"/>
			<circle fill="#FFFFFF" cx="-933.367" cy="304.193" r="3.03"/>
		</g>
		<path fill="none" stroke="#000000" stroke-width="3" stroke-linecap="round" stroke-miterlimit="10" d="M-970.631,301.164
			c0,0,0.812,8.269,4.312,12.572l-4.312,3.555"/>
		<path fill="none" stroke="#000000" stroke-width="3" stroke-linecap="round" stroke-miterlimit="10" d="M-982.899,324
			c0,5.105,3.842,12.916,12.318,12.916s12.827-6.48,12.827-12.826"/>
		<path fill="#604E75" d="M-970.327,225.523c-11.729,23.6-36.259,25.295-44.533,30.223c-1.883,0.93-3.639,1.908-5.252,2.928
			l-0.01,0.006h0.002c-2.632,1.662-4.881,3.431-6.616,5.279c-10.324,11-19.127,25.777-18.646,34.89c0,0,2.813,3.334,2.813,7.389h5.5
			c0,0,0.5-26.444,16-36.444c0,0,25.348-10.674,48.514-9.84c23.167,0.832,50.819,8.674,50.819,8.674
			c19.667,12.666,17.667,37.61,17.667,37.61h5.333c0.166-4.055,2.858-7.389,2.858-7.389c-1.796-21.188-14.808-32.052-22.938-38.056
			h0.001c-0.001,0-0.001,0-0.001,0c-1.28-0.945-2.444-1.774-3.42-2.502c-1.853-1.379-4.369-2.846-7.428-4.274
			C-960.889,246.69-970.327,225.523-970.327,225.523z"/>
	</g>
</g>
<g>
	<g>
		<path fill="#E9E9EA" d="M-478.832,365.867h2.438c5.94,0,10.8,4.859,10.8,10.799V409.4c0,5.938-4.859,10.799-10.8,10.799h-2.438
			V365.867z"/>
		<path fill="#E9E9EA" d="M-557.739,365.867h-2.438c-5.94,0-10.801,4.859-10.801,10.799V409.4c0,5.938,4.86,10.799,10.801,10.799
			h2.438V365.867z"/>
		<path fill="#333333" d="M-476.395,365.867h-2.438h-78.907h-2.438c-5.94,0-10.801,4.859-10.801,10.799v5.699h13.238v54.5h78.907
			v-54.5h13.237v-5.699C-465.595,370.727-470.454,365.867-476.395,365.867z"/>
		<polygon fill="#B69FCC" points="-557.739,436.865 -557.739,453.533 -557.739,493.199 -528.95,493.199 -528.95,453.533 
			-507.622,453.533 -507.622,493.199 -478.832,493.199 -478.832,453.533 -478.832,436.865 		"/>
		<path d="M-543.345,507.593c7.949,0,14.395-6.443,14.395-14.395h-28.789C-557.739,501.15-551.295,507.593-543.345,507.593z"/>
		<path d="M-493.228,507.593c7.951,0,14.396-6.443,14.396-14.395h-28.79C-507.622,501.15-501.177,507.593-493.228,507.593z"/>
		<path fill="#B69FCC" d="M-543.345,478.804c-7.95,0-14.396,6.445-14.396,14.396h28.789
			C-528.95,485.25-535.396,478.804-543.345,478.804z"/>
		<path fill="#B69FCC" d="M-493.228,478.804c-7.949,0-14.395,6.445-14.395,14.396h28.79
			C-478.832,485.25-485.276,478.804-493.228,478.804z"/>
		<g>
			<g>
				<path fill="#B69FCC" d="M-542.007,384.382c1.531-0.451,2.301-0.658,3.847-1.035c0.162,0.665,0.244,0.996,0.406,1.662
					c-0.458,0.111-0.689,0.17-1.146,0.287c-0.075,1.264-1.269,7.851-1.242,8.559c-0.533,0.164-0.797,0.248-1.328,0.422
					c-0.389-0.593-5.555-5.688-5.988-6.255c-0.439,0.167-0.66,0.251-1.097,0.424c-0.252-0.637-0.378-0.954-0.63-1.591
					c1.645-0.65,2.473-0.953,4.142-1.516c0.218,0.648,0.327,0.975,0.545,1.623c-0.148,0.049-0.222,0.072-0.37,0.123
					c0.648,0.689,3.132,3.496,3.132,3.496c0.152-0.039,0.689-3.631,0.781-4.726c-0.228,0.065-0.341,0.099-0.568,0.166
					C-541.717,385.367-541.813,385.039-542.007,384.382z"/>
				<path fill="#B69FCC" d="M-523.509,386.787c-0.112,1.588-0.161,2.383-0.25,3.971c-3.276,0.242-4.913,0.453-8.154,1.059
					c-0.125-0.673-0.189-1.011-0.315-1.684c0.355-0.066,0.533-0.098,0.888-0.158c-0.424-2.434-0.635-3.65-1.058-6.083
					c-0.384,0.067-0.577,0.103-0.961,0.173c-0.125-0.673-0.188-1.008-0.314-1.682c3.424-0.639,5.151-0.867,8.61-1.147
					c0.5,1.267,0.743,1.899,1.213,3.175c-0.761,0.053-1.14,0.084-1.9,0.153c-0.244-0.665-0.526-1.513-1.677-1.383
					c-1,0.112-1.501,0.177-2.499,0.319c0.117,0.817,0.175,1.229,0.292,2.047c0.525-0.075,0.79-0.111,1.316-0.178
					c-0.035-0.277-0.054-0.416-0.089-0.691c0.753-0.096,1.13-0.141,1.885-0.217c0.126,1.229,0.19,1.85,0.316,3.08
					c-0.726,0.073-1.088,0.114-1.813,0.205c-0.034-0.271-0.052-0.406-0.086-0.679c-0.515,0.063-0.773,0.101-1.287,0.175
					c0.136,0.947,0.204,1.42,0.34,2.368c1.138-0.163,1.709-0.235,2.85-0.354c0.525-0.055,0.766-1.285,0.864-2.325
					C-524.606,386.863-524.241,386.835-523.509,386.787z"/>
				<path fill="#B69FCC" d="M-510.597,389.232c-0.069,0.688-0.104,1.03-0.174,1.717c-0.966-0.099-1.449-0.139-2.417-0.205
					c-0.351-0.188-1.036-0.752-0.971-1.953c0.037-0.685-0.442-2.09-1.907-2.311c-0.027,0.958-0.041,1.436-0.068,2.393
					c0.365,0.012,0.547,0.018,0.912,0.031c-0.027,0.689-0.042,1.035-0.069,1.725c-1.61-0.064-2.415-0.074-4.025-0.053
					c-0.01-0.688-0.014-1.037-0.024-1.727c0.428-0.006,0.64-0.006,1.068-0.006c0-2.471,0.001-3.705,0.002-6.174
					c-0.462,0-0.692,0-1.155,0.008c-0.009-0.686-0.015-1.024-0.024-1.709c1.901-0.026,2.852-0.014,4.751,0.068
					c2.531,0.107,3.188,1.733,3.087,2.947c-0.084,1.021-1.069,1.938-1.099,2.141c-0.041,0.28,0.787,1.623,0.704,2.633
					c-0.028,0.342,0.342,0.375,0.342,0.375C-511.237,389.169-511.023,389.189-510.597,389.232z M-515.253,384.796
					c0.886,0.033,1.335-0.447,1.363-0.967c0.028-0.52-0.328-1.063-1.083-1.094c-0.394-0.016-0.591-0.023-0.985-0.035
					c-0.023,0.826-0.037,1.241-0.06,2.067C-515.711,384.777-515.56,384.785-515.253,384.796z"/>
				<path fill="#B69FCC" d="M-496.672,388.774c-0.751,2.646-3.405,3.997-5.967,3.444c-1.638-0.352-2.461-0.506-4.112-0.766
					c0.106-0.682,0.16-1.022,0.267-1.705c0.339,0.053,0.509,0.082,0.848,0.139c0.407-2.42,0.61-3.623,1.019-6.042
					c-0.366-0.062-0.549-0.093-0.916-0.15c0.108-0.687,0.162-1.03,0.27-1.718c1.865,0.293,2.795,0.465,4.645,0.863
					C-497.509,383.509-495.92,386.128-496.672,388.774z M-503.328,390.314c0.292,0.059,0.438,0.089,0.73,0.15
					c2.09,0.439,3.183-0.838,3.555-2.324c0.376-1.5-0.246-3.243-2.292-3.676c-0.315-0.065-0.474-0.1-0.79-0.162
					C-502.607,386.707-502.847,387.91-503.328,390.314z"/>
				<path fill="#B69FCC" d="M-491.706,385.324c1.735,0.579,2.597,0.893,4.306,1.568c-0.252,0.637-0.378,0.954-0.63,1.591
					c-0.368-0.146-0.552-0.219-0.921-0.358c-0.879,2.301-1.319,3.451-2.198,5.752c0.341,0.131,0.511,0.199,0.852,0.334
					c-0.25,0.631-0.375,0.947-0.625,1.578c-1.514-0.601-2.277-0.879-3.814-1.393c0.215-0.645,0.323-0.969,0.538-1.611
					c0.345,0.114,0.516,0.178,0.86,0.297c0.808-2.326,1.212-3.49,2.021-5.817c-0.372-0.129-0.556-0.195-0.929-0.32
					C-492.03,386.294-491.923,385.973-491.706,385.324z"/>
			</g>
		</g>
	</g>
	<g>
		<path fill="#E9E9EA" d="M-441.251,300.234c-0.893,0-1.756,0.117-2.586,0.318c-8.77-28.625-38.908-49.725-74.753-49.725
			c-35.845,0-65.983,21.1-74.753,49.725c-0.83-0.201-1.693-0.318-2.586-0.318c-6.074,0-11,4.926-11,11s4.926,11,11,11
			c0.068,0,0.133-0.009,0.199-0.01c2.715,33.828,36.201,49.416,77.14,49.416c40.938,0,74.425-15.588,77.14-49.416
			c0.066,0.001,0.131,0.01,0.199,0.01c6.074,0,11-4.926,11-11S-435.177,300.234-441.251,300.234z"/>
		<path fill="none" stroke="#000000" stroke-width="3" stroke-linecap="round" stroke-miterlimit="10" d="M-518.59,302.869
			c0,0,0.812,8.27,4.312,12.573l-4.312,3.556"/>
		<g>
			<path fill="#FFFFFF" d="M-506.018,338.712c0,6.346-4.351,12.826-12.827,12.826s-12.318-7.812-12.318-12.916
				c2.218,2.537,6.267,4.653,12.506,4.653C-512.652,343.276-508.463,341.035-506.018,338.712z"/>
			<path fill="none" stroke="#000000" stroke-width="3" stroke-linecap="round" stroke-miterlimit="10" d="M-531.163,338.623
				c2.218,2.537,6.267,4.653,12.506,4.653c6.005,0,10.194-2.241,12.64-4.563"/>
			<path fill="none" stroke="#000000" stroke-width="3" stroke-linecap="round" stroke-miterlimit="10" d="M-531.163,338.623
				c0,5.104,3.842,12.916,12.318,12.916s12.827-6.48,12.827-12.826"/>
		</g>
		<path fill="#E9E9EA" d="M-441.45,322.224c0.066,0.001,0.131,0.011,0.199,0.011c6.074,0,11-4.926,11-11c0-6.075-4.926-11-11-11
			c-0.893,0-1.756,0.117-2.586,0.317l-5.525,12.451L-441.45,322.224z"/>
		<path fill="#E9E9EA" d="M-595.729,322.224c-0.066,0.001-0.131,0.011-0.199,0.011c-6.074,0-11-4.926-11-11c0-6.075,4.926-11,11-11
			c0.893,0,1.756,0.117,2.586,0.317l5.525,12.451L-595.729,322.224z"/>
		<circle fill="#C4C4C3" cx="-564.457" cy="334.601" r="9.595"/>
		<circle fill="#C4C4C3" cx="-472.213" cy="334.601" r="9.595"/>
		<path fill="#604E75" d="M-596.028,268.229c-22.223,21.149-24.334,70.333-6,91.667c18.334,21.333,2.333,36.332-8,38
			c-10.333,1.666-19.334-9.334-19.334-9.334c0.396,3.443,1.352,6.445,2.728,9.068c-2.298-1.246-4.663-2.779-5.65-4.242
			c0,0,4.06,8.139,10.563,10.582c1.052,0.959,2.184,1.832,3.389,2.613c-4.779,3.223-11.028,3.232-11.028,3.232
			c21.871,4.818,29.543,3.684,32.228,2.422c0.044,0,0.088,0.002,0.131,0.002c-6.029,5.188-15.043,5.576-15.043,5.576
			c15.602-0.254,24.275-3.078,29.048-5.824c-3.5,4.729-7.381,7.49-7.381,7.49c6.907-1.828,11.89-7.023,15.076-11.568
			c0.249-0.113,0.495-0.23,0.737-0.348c-1.121,7.072-2.813,8.916-2.813,8.916c7.493-7.066,11.745-14.213,14.116-19.518
			c1.328-2.516,2.225-5.241,2.737-8.047c0.056-0.271,0.08-0.418,0.08-0.418s-0.004,0.002-0.005,0.002
			c2.012-11.918-2.79-25.031-10.526-28.59c-11.635-5.352-33.218-30.908-22.365-59.361c9.969-26.135,31.093-24.86,41.511-29.655
			c10.137-4.667,17.804-17.667,17.804-17.667C-547.695,238.563-573.189,246.494-596.028,268.229z"/>
		<path fill="#604E75" d="M-476.743,395.039c-0.075,12.131,5.55,21.568,17.363,32.111c0,0-1.79-4.336,3.293-7.785
			c0.05,0.023,0.098,0.051,0.147,0.074c2.565,4.865,9.68,11.211,29.393,10.377c0,0-5.979-0.936-10.978-5.67
			c5.228,1.791,15.366,3.506,31.978-0.363c0,0-9.593,0.266-8.694-6.748c13.529-8.508,9.918-19.139,9.918-19.139s-4,8.998-16,8.998
			s-31.332-16.666-16.666-52.332c14.666-35.666,12.495-75.284-14.373-98c-17.742-15-44.627-27-74.627-17.334
			c0,0-24.965,11-16.982,23.334c7.983,12.334,22.943-1.666,44.315,0c12.527,0.977,45.949,10.863,55.192,37.99
			c8.352,24.51-6.813,49.141-15.473,54.742C-465.826,359.753-476.693,382.919-476.743,395.039z"/>
		<path fill="none" stroke="#000000" stroke-width="3" stroke-linecap="round" stroke-miterlimit="10" d="M-571.463,301.477
			c0,2.075,1.561,5.25,5.006,5.25s5.214-2.636,5.214-5.213"/>
		<path fill="none" stroke="#000000" stroke-width="3" stroke-linecap="round" stroke-miterlimit="10" d="M-566.354,296.687
			c0,2.075,1.561,5.25,5.006,5.25c1.54,0,2.744-0.525,3.605-1.338"/>
		<path fill="none" stroke="#000000" stroke-width="3" stroke-linecap="round" stroke-miterlimit="10" d="M-466.438,296.687
			c0,2.075-1.561,5.25-5.006,5.25c-1.539,0-2.744-0.525-3.605-1.338"/>
		<path fill="none" stroke="#000000" stroke-width="3" stroke-linecap="round" stroke-miterlimit="10" d="M-471.625,301.477
			c0,2.075,1.561,5.25,5.006,5.25c3.445,0,5.214-2.636,5.214-5.213"/>
		<g>
			<circle cx="-556.743" cy="304.201" r="7.5"/>
			<circle fill="#FFFFFF" cx="-559.237" cy="302.158" r="3.03"/>
		</g>
		<g>
			<circle cx="-476.243" cy="304.201" r="7.5"/>
			<circle fill="#FFFFFF" cx="-478.737" cy="302.158" r="3.03"/>
		</g>
	</g>
</g>
<g>
	<g>
		<path fill="#E9E9EA" d="M237.012,100.8h1.994c4.857,0,8.832,3.975,8.832,8.833v26.773c0,4.857-3.975,8.833-8.832,8.833h-1.994
			V100.8z"/>
		<path fill="#E9E9EA" d="M172.472,100.8h-1.995c-4.857,0-8.834,3.975-8.834,8.833v26.773c0,4.857,3.976,8.833,8.834,8.833h1.995
			V100.8z"/>
		<path fill="#333333" d="M239.006,100.8h-1.994h-64.54h-1.994c-4.858,0-8.834,3.975-8.834,8.833v4.661h10.828v44.577h64.539
			v-44.577h10.826v-4.661C247.838,104.775,243.863,100.8,239.006,100.8z"/>
		<polygon fill="#B69FCC" points="172.472,158.872 172.472,172.503 172.472,204.949 196.019,204.949 196.019,172.503 
			213.463,172.503 213.463,204.949 237.012,204.949 237.012,172.503 237.012,158.872 		"/>
		<path d="M184.245,216.722c6.502,0,11.773-5.271,11.773-11.773h-23.546C172.472,211.451,177.744,216.722,184.245,216.722z"/>
		<path d="M225.236,216.722c6.504,0,11.775-5.271,11.775-11.773h-23.549C213.463,211.451,218.735,216.722,225.236,216.722z"/>
		<path fill="#B69FCC" d="M184.245,193.175c-6.501,0-11.774,5.27-11.774,11.773h23.547
			C196.019,198.445,190.747,193.175,184.245,193.175z"/>
		<path fill="#B69FCC" d="M225.236,193.175c-6.501,0-11.773,5.27-11.773,11.773h23.549
			C237.012,198.445,231.74,193.175,225.236,193.175z"/>
		<g>
			<g>
				<path fill="#604E75" d="M189.235,116.227c0.565-0.174,0.909-0.057,1.025,0.342c1.476,5.095,2.211,7.642,3.688,12.737
					c0.109,0.377-0.029,0.655-0.441,0.782c-0.905,0.279-1.355,0.433-2.246,0.768c-0.385,0.145-0.692,0.021-0.837-0.343
					c-1.952-4.933-2.93-7.397-4.882-12.33c-0.153-0.386,0.077-0.699,0.606-0.899C187.373,116.822,187.99,116.611,189.235,116.227z"
					/>
				<path fill="#604E75" d="M196.875,114.48c0.581-0.088,0.899,0.079,0.955,0.491c0.437,3.218,0.653,4.827,1.09,8.046
					c0.214,1.582,0.458,2.496,2.159,2.342c1.7-0.155,1.769-1.099,1.693-2.693c-0.154-3.245-0.232-4.867-0.387-8.111
					c-0.02-0.415,0.294-0.638,0.851-0.655c1.313-0.041,1.969-0.04,3.281,0c0.585,0.018,0.869,0.241,0.85,0.656
					c-0.176,3.684-0.265,5.525-0.438,9.209c-0.064,1.366-0.546,4.689-5.528,5.143c-4.982,0.453-6.075-2.722-6.387-4.054
					c-0.84-3.592-1.259-5.387-2.099-8.979c-0.095-0.405,0.175-0.68,0.722-0.798C194.926,114.797,195.573,114.678,196.875,114.48z"/>
				<path fill="#604E75" d="M217.384,115.366c5.102,1.236,6.478,3.704,5.228,6.863c-1.251,3.16-3.42,3.807-7.567,2.803
					c-0.447-0.108-0.671-0.16-1.121-0.257c-0.443-0.095-0.742,0.058-0.822,0.465c-0.256,1.302-0.385,1.954-0.641,3.254
					c-0.08,0.407-0.331,0.567-0.752,0.492c-0.943-0.169-1.417-0.239-2.366-0.35c-0.402-0.047-0.61-0.296-0.571-0.688
					c0.524-5.27,0.783-7.904,1.31-13.174c0.041-0.413,0.353-0.592,0.938-0.546C213.582,114.527,214.861,114.755,217.384,115.366z
					 M216.033,121.605c1.21,0.296,1.844,0.363,2.2-0.871c0.355-1.234-0.243-1.551-1.525-1.867c-0.578-0.142-0.869-0.208-1.449-0.333
					c-0.51-0.11-0.849,0.038-0.928,0.444c-0.122,0.618-0.183,0.927-0.304,1.546c-0.076,0.386,0.16,0.664,0.642,0.767
					C215.216,121.408,215.489,121.471,216.033,121.605z"/>
			</g>
		</g>
	</g>
	<path fill="#E9E9EA" d="M143.352,49.016c-0.679-0.165-1.385-0.26-2.116-0.26c-4.968,0-8.997,4.028-8.997,8.997
		c0,4.968,4.029,8.997,8.997,8.997c0.056,0,0.109-0.008,0.163-0.009c2.22,27.669,29.609,40.419,63.094,40.419
		c33.484,0,60.873-12.75,63.094-40.419c0.054,0.001,0.107,0.009,0.162,0.009c4.969,0,8.997-4.029,8.997-8.997
		c0-4.969-4.028-8.997-8.997-8.997c-0.73,0-1.437,0.096-2.115,0.26C260,30.624,243.576,16.035,222.58,10.621h-36.175
		C165.409,16.034,148.985,30.624,143.352,49.016z"/>
	<path fill="none" stroke="#000000" stroke-width="3" stroke-linecap="round" stroke-miterlimit="10" d="M159.129,52.832
		c0,1.697,1.277,4.294,4.095,4.294c2.817,0,4.265-2.156,4.265-4.264"/>
	<path fill="none" stroke="#000000" stroke-width="3" stroke-linecap="round" stroke-miterlimit="10" d="M163.309,48.914
		c0,1.697,1.276,4.294,4.094,4.294c1.26,0,2.245-0.43,2.949-1.094"/>
	<path fill="none" stroke="#000000" stroke-width="3" stroke-linecap="round" stroke-miterlimit="10" d="M245.031,48.914
		c0,1.697-1.276,4.294-4.095,4.294c-1.259,0-2.244-0.43-2.948-1.094"/>
	<path fill="none" stroke="#000000" stroke-width="3" stroke-linecap="round" stroke-miterlimit="10" d="M240.788,52.832
		c0,1.697,1.277,4.294,4.095,4.294s4.266-2.156,4.266-4.264"/>
	<g>
		<circle cx="171.169" cy="55.059" r="6.135"/>
		<circle fill="#FFFFFF" cx="169.128" cy="53.388" r="2.478"/>
	</g>
	<g>
		<circle cx="237.012" cy="55.059" r="6.135"/>
		<circle fill="#FFFFFF" cx="234.97" cy="53.388" r="2.478"/>
	</g>
	<path fill="none" stroke="#000000" stroke-width="3" stroke-linecap="round" stroke-miterlimit="10" d="M204.493,50.91
		c0,0,0.664,6.762,3.526,10.284l-3.526,2.907"/>
	<path fill="none" stroke="#000000" stroke-width="3" stroke-linecap="round" stroke-miterlimit="10" d="M194.458,69.588
		c0,4.176,3.143,10.565,10.075,10.565s10.492-5.302,10.492-10.492"/>
	<path fill="#4E4060" d="M184.55,17.942c6.529,10.087,18.765-1.364,36.247,0c10.247,0.799,37.583,8.885,45.142,31.073
		c6.832,20.047-5.572,40.192-12.655,44.774c-7.083,4.584-18.441,25.97-13.404,37.336c5.04,11.367,23.449,23.681,42.806,16.592
		c19.357-7.089,15.268-19.084,15.268-19.084s-3.271,7.361-13.087,7.361c-9.814,0-25.627-13.632-13.631-42.804
		c11.995-29.172,10.221-61.576-11.756-80.156c-0.969-0.818-1.97-1.623-3.002-2.414h-72.47
		C182.975,12.906,182.897,15.389,184.55,17.942z"/>
	<path fill="#E9E9EA" d="M267.586,66.74c0.054,0.001,0.107,0.008,0.162,0.008c4.969,0,8.997-4.028,8.997-8.997
		s-4.028-8.997-8.997-8.997c-0.729,0-1.436,0.097-2.115,0.26l-4.519,10.184L267.586,66.74z"/>
	<path fill="#4E4060" d="M141.154,22.577c-18.177,17.298-19.903,57.526-4.907,74.976c14.996,17.448,1.909,29.717-6.543,31.081
		C121.253,129.997,113.89,121,113.89,121c2.727,23.719,37.079,22.629,49.227,12.814c12.147-9.815,8.043-31.871-1.474-36.246
		c-9.516-4.377-27.168-25.28-18.292-48.552c8.153-21.377,25.432-20.334,33.953-24.257c7.454-3.431,13.272-12.367,14.371-14.138
		h-34.85C151.602,13.653,146.295,17.685,141.154,22.577z"/>
	<path fill="#E9E9EA" d="M141.4,66.74c-0.054,0.001-0.107,0.008-0.163,0.008c-4.968,0-8.997-4.028-8.997-8.997
		s4.029-8.997,8.997-8.997c0.73,0,1.437,0.097,2.116,0.26l4.519,10.184L141.4,66.74z"/>
	<circle fill="#C4C4C3" cx="166.977" cy="76.864" r="7.848"/>
	<circle fill="#C4C4C3" cx="242.426" cy="76.864" r="7.848"/>
	<g>
		<path fill="#604E75" d="M366.436,149.315c-0.975-11.925-13.653-39.488-29.259-39.488c-5.733,0-10.81,0.959-14.943,2.173
			l-36.256-79.038c-5.637-12.288-21.309-22.341-34.827-22.341H122.797c-13.519,0-29.19,10.053-34.827,22.341L51.714,112
			c-4.134-1.214-9.21-2.173-14.943-2.173c-15.605,0-28.285,27.563-29.26,39.488c-0.975,11.927,0,58.733,0,58.733
			c0,9.764,2.926,20.492,18.531,32.195c15.606,11.705,95.583,25.828,160.931,25.828v0.002c65.349,0,145.326-14.125,160.931-25.83
			c15.605-11.703,18.531-22.432,18.531-32.193C366.436,208.048,367.411,161.242,366.436,149.315z M186.974,102.721
			c-44.863,0-123.813,14.209-123.823,14.211l33.661-73.38c5.637-12.287,21.309-22.34,34.826-22.34H242.31
			c13.518,0,29.188,10.053,34.825,22.34l33.662,73.381C310.797,116.933,231.839,102.722,186.974,102.721z"/>
		<g>
			<circle fill="#E9E9EA" cx="38.722" cy="143.87" r="18.369"/>
			<circle fill="#E9E9EA" cx="335.226" cy="143.87" r="18.37"/>
			<circle fill="#E9E9EA" cx="38.723" cy="189.68" r="8.739"/>
			<circle fill="#E9E9EA" cx="335.226" cy="189.68" r="8.739"/>
			<path fill="#E9E9EA" d="M240.292,237.968c0-4.893-3.967-8.859-8.859-8.859h-88.918c-4.893,0-8.859,3.967-8.859,8.859l0,0
				c0,4.893,3.967,8.859,8.859,8.859h88.918C236.326,246.828,240.292,242.861,240.292,237.968L240.292,237.968z"/>
			<path fill="#E9E9EA" d="M188.682,137.832c0-2.872-1.603-5.201-3.578-5.201l0,0c-1.975,0-3.577,2.329-3.577,5.201v44.584
				c0,2.875,1.602,5.201,3.577,5.201l0,0c1.975,0,3.578-2.328,3.578-5.201V137.832z"/>
			<path fill="#E9E9EA" d="M203.484,138.887c0-2.737-1.601-4.955-3.576-4.955l0,0c-1.975,0-3.576,2.218-3.576,4.955v42.475
				c0,2.736,1.602,4.955,3.576,4.955l0,0c1.976,0,3.576-2.219,3.576-4.955V138.887z"/>
			<path fill="#E9E9EA" d="M218.289,139.81c0-2.617-1.602-4.74-3.577-4.74l0,0c-1.974,0-3.574,2.123-3.574,4.74v40.628
				c0,2.617,1.601,4.739,3.574,4.739l0,0c1.976,0,3.577-2.122,3.577-4.739V139.81z"/>
			<path fill="#E9E9EA" d="M233.093,141.128c0-2.447-1.601-4.433-3.576-4.433l0,0c-1.975,0-3.577,1.986-3.577,4.433v37.992
				c0,2.449,1.603,4.432,3.577,4.432l0,0c1.976,0,3.576-1.983,3.576-4.432V141.128z"/>
			<path fill="#E9E9EA" d="M247.897,142.731c0-2.241-1.602-4.06-3.577-4.06l0,0c-1.976,0-3.577,1.818-3.577,4.06v34.787
				c0,2.243,1.602,4.058,3.577,4.058l0,0c1.976,0,3.577-1.814,3.577-4.058V142.731z"/>
			<path fill="#E9E9EA" d="M262.701,144.576c0-2.003-1.601-3.628-3.576-3.628l0,0c-1.976,0-3.577,1.624-3.577,3.628v31.097
				c0,2.005,1.602,3.629,3.577,3.629l0,0c1.976,0,3.576-1.623,3.576-3.629V144.576z"/>
			<path fill="#E9E9EA" d="M277.506,147.343c0-1.646-1.602-2.982-3.577-2.982l0,0c-1.975,0-3.576,1.336-3.576,2.982v25.562
				c0,1.647,1.602,2.982,3.576,2.982l0,0c1.976,0,3.577-1.335,3.577-2.982V147.343z"/>
			<path fill="#E9E9EA" d="M292.311,150.507c0-1.239-1.602-2.244-3.577-2.244l0,0c-1.975,0-3.576,1.005-3.576,2.244v19.236
				c0,1.238,1.602,2.242,3.576,2.242l0,0c1.976,0,3.577-1.005,3.577-2.242V150.507z"/>
			<path fill="#E9E9EA" d="M173.876,138.887c0-2.737-1.601-4.955-3.576-4.955l0,0c-1.976,0-3.577,2.218-3.577,4.955v42.475
				c0,2.736,1.601,4.955,3.577,4.955l0,0c1.975,0,3.576-2.219,3.576-4.955V138.887z"/>
			<path fill="#E9E9EA" d="M159.071,139.81c0-2.617-1.602-4.74-3.577-4.74l0,0c-1.975,0-3.577,2.123-3.577,4.74v40.628
				c0,2.617,1.602,4.739,3.577,4.739l0,0c1.975,0,3.577-2.122,3.577-4.739V139.81z"/>
			<path fill="#E9E9EA" d="M144.267,141.128c0-2.447-1.601-4.433-3.576-4.433l0,0c-1.976,0-3.576,1.986-3.576,4.433v37.992
				c0,2.449,1.6,4.432,3.576,4.432l0,0c1.976,0,3.576-1.983,3.576-4.432V141.128z"/>
			<path fill="#E9E9EA" d="M129.464,142.731c0-2.241-1.602-4.06-3.577-4.06l0,0c-1.975,0-3.577,1.818-3.577,4.06v34.787
				c0,2.243,1.602,4.058,3.577,4.058l0,0c1.975,0,3.577-1.814,3.577-4.058V142.731z"/>
			<path fill="#E9E9EA" d="M114.66,144.576c0-2.003-1.601-3.628-3.576-3.628l0,0c-1.976,0-3.577,1.624-3.577,3.628v31.097
				c0,2.005,1.601,3.629,3.577,3.629l0,0c1.976,0,3.576-1.623,3.576-3.629V144.576z"/>
			<path fill="#E9E9EA" d="M99.855,147.343c0-1.646-1.602-2.982-3.577-2.982l0,0c-1.975,0-3.577,1.336-3.577,2.982v25.562
				c0,1.647,1.602,2.982,3.577,2.982l0,0c1.976,0,3.577-1.335,3.577-2.982V147.343z"/>
			<path fill="#E9E9EA" d="M85.05,150.507c0-1.239-1.601-2.244-3.577-2.244l0,0c-1.975,0-3.576,1.005-3.576,2.244v19.236
				c0,1.238,1.601,2.242,3.576,2.242l0,0c1.977,0,3.577-1.005,3.577-2.242V150.507z"/>
		</g>
		<path fill="#604E75" d="M71.395,285.597c0,6.016-4.876,10.893-10.891,10.893H40.997c-6.015,0-10.891-4.877-10.891-10.893v-42.914
			c0-6.016,4.876-10.891,10.891-10.891h19.507c6.015,0,10.891,4.875,10.891,10.891V285.597z"/>
		<path fill="#604E75" d="M343.842,285.597c0,6.016-4.877,10.893-10.892,10.893h-19.508c-6.014,0-10.89-4.877-10.89-10.893v-42.914
			c0-6.016,4.876-10.891,10.89-10.891h19.508c6.015,0,10.892,4.875,10.892,10.891V285.597z"/>
	</g>
</g>
<g>
	<path fill="#E9E9EA" d="M430.448,178.466h2.438c5.939,0,10.799,4.859,10.799,10.799v32.732c0,5.939-4.859,10.799-10.799,10.799
		h-2.438V178.466z"/>
	<path fill="#E9E9EA" d="M351.539,178.466h-2.438c-5.938,0-10.8,4.859-10.8,10.799v32.732c0,5.939,4.86,10.799,10.8,10.799h2.438
		V178.466z"/>
	<path fill="#5B5C5C" d="M432.885,178.466h-2.438h-78.907h-2.438c-5.938,0-10.8,4.859-10.8,10.799v5.699h13.237v54.498h78.907
		v-54.498h13.236v-5.699C443.684,183.326,438.825,178.466,432.885,178.466z"/>
	<polygon fill="#B69FCC" points="351.539,249.462 351.539,266.13 351.539,305.796 380.328,305.796 380.328,266.13 401.657,266.13 
		401.657,305.796 430.448,305.796 430.448,266.13 430.448,249.462 	"/>
	<path d="M365.934,320.193c7.95,0,14.396-6.443,14.396-14.396h-28.79C351.539,313.748,357.984,320.193,365.934,320.193z"/>
	<path d="M416.052,320.193c7.95,0,14.396-6.443,14.396-14.396h-28.791C401.657,313.748,408.102,320.193,416.052,320.193z"/>
	<path fill="#B69FCC" d="M365.934,291.404c-7.949,0-14.395,6.445-14.395,14.395h28.789
		C380.328,297.849,373.884,291.404,365.934,291.404z"/>
	<path fill="#B69FCC" d="M416.052,291.404c-7.95,0-14.395,6.445-14.395,14.395h28.789
		C430.448,297.849,424.002,291.404,416.052,291.404z"/>
	<text transform="matrix(1 0 0 1 372.6689 210.4644)" fill="#FFFFFF" font-family="'Cubano-Regular'" font-size="25.3327">IUP</text>
	<g>
		<path fill="#E9E9EA" d="M468.027,115.083c-0.893,0-1.755,0.118-2.586,0.318c-8.769-28.624-38.907-49.725-74.752-49.725
			c-35.846,0-65.983,21.101-74.753,49.725c-0.831-0.201-1.692-0.318-2.586-0.318c-6.075,0-11,4.925-11,11c0,6.075,4.925,11,11,11
			c0.067,0,0.132-0.009,0.199-0.01c2.714,33.828,36.201,49.417,77.14,49.417s74.425-15.588,77.14-49.417
			c0.066,0.001,0.132,0.01,0.198,0.01c6.075,0,11-4.925,11-11C479.027,120.008,474.103,115.083,468.027,115.083z"/>
		<g>
			<circle cx="349.947" cy="122.791" r="7.5"/>
			<circle fill="#FFFFFF" cx="347.453" cy="120.748" r="3.03"/>
		</g>
		<g>
			<circle cx="430.448" cy="122.791" r="7.5"/>
			<circle fill="#FFFFFF" cx="427.953" cy="120.748" r="3.03"/>
		</g>
		<path fill="none" stroke="#000000" stroke-width="3" stroke-linecap="round" stroke-miterlimit="10" d="M390.689,117.719
			c0,0,0.812,8.268,4.312,12.573l-4.312,3.555"/>
		<polyline fill="none" stroke="#000000" stroke-width="3" stroke-linecap="round" stroke-miterlimit="10" points="360.22,157.634 
			379.72,149.633 389.22,159.134 405.47,156.384 425.47,160.384 		"/>
		<path fill="#B69FCC" d="M447.48,81.272c4.996-0.186,8.113,0.749,8.113,0.749l-15.553-7.126c2.649-2.747,5.841-3.124,5.841-3.124
			h-11.794c-8.636-4.534-22.997-9.039-39.662-9.562c-11.713-0.368-24.909,1.739-36.254,5.403c-9.66-1.631-13.749-7.341-13.749-7.341
			c0.601,4.374,0.153,7.658-0.63,10.056c-1.81,0.167-4.194,0.563-6.949,1.444c0,0,2.784,0.495,5.567,1.577
			c-1.05,1.701-2.063,2.43-2.063,2.43h0.001c-2.268,1.502-4.22,3.087-5.766,4.734c-10.324,11.001-19.127,25.778-18.647,34.889
			c0,0,2.813,3.335,2.813,7.39h5.5c0,0,0.5-26.445,16-36.445c0,0,7.5-0.833,10.166,4.833c0,0,4.228-3.333,2.031-6.5
			c0,0,24.428-4.833,39.928,10.792c0,0,3.125-5.542,0.875-7.542c0,0,16.125,0.667,22.375,7.917c0,0,0.875-2.417,0-5
			c-0.445-1.313,23.625-1.875,29.75,7.25c0,0,0.667-8.583-5.791-12.917c19.666,12.667,17.666,37.612,17.666,37.612h5.333
			c0.166-4.055,2.857-7.39,2.857-7.39C463.982,98.185,455.116,87.789,447.48,81.272z"/>
		<path fill="none" stroke="#000000" stroke-width="2" stroke-linecap="round" stroke-miterlimit="10" d="M339.344,128.016
			c0,0-0.194,7.785,10.109,7.266"/>
		<path fill="none" stroke="#000000" stroke-width="2" stroke-linecap="round" stroke-miterlimit="10" d="M430.763,134.334
			c0,0,6.939,3.533,10.915-5.987"/>
	</g>
</g>
<g>
	<g>
		<rect x="444.809" y="293.881" fill="#564868" width="101.667" height="21.592"/>
		<polygon fill="#443756" points="581.447,333.467 546.476,315.473 546.476,293.881 581.447,311.875 		"/>
	</g>
	<g>
		<g>
			<polygon fill="#9F8BB7" points="569.376,321.338 485.764,321.338 451.142,303.448 534.754,303.448 			"/>
			<polygon fill="#E9E9EA" points="488.764,321.338 455.767,304.245 455.767,288.913 488.764,306.004 			"/>
			<polygon fill="#9F8BB7" points="569.376,306.004 485.764,306.004 451.142,288.115 534.754,288.115 			"/>
			<rect x="485.764" y="306.004" fill="#B69FCC" width="83.611" height="15.334"/>
		</g>
		<polygon fill="#E9E9EA" points="578.111,308.258 488.02,306.051 451.188,285.861 541.279,288.068 		"/>
		<g>
			<polygon fill="#4A494A" points="560.207,302.756 486.498,302.756 455.976,286.984 529.687,286.984 			"/>
			<polygon fill="#E9E9EA" points="489.143,302.756 460.053,287.687 460.053,274.168 489.143,289.24 			"/>
			<polygon fill="#4A494A" points="560.207,289.24 486.498,289.24 455.976,273.467 529.687,273.467 			"/>
			<rect x="486.498" y="289.24" fill="#5B5C5C" width="73.711" height="13.519"/>
		</g>
		<g>
			<polygon fill="#D6D6D6" points="572.376,289.224 488.764,289.224 454.142,271.334 537.754,271.334 			"/>
			<polygon fill="#E0E0E0" points="572.376,275.724 488.764,275.724 454.142,257.834 537.754,257.834 			"/>
			<rect x="488.764" y="275.724" fill="#E9E9EA" width="83.611" height="13.5"/>
			<polygon fill="#E9E9EA" points="488.764,289.224 454.142,271.334 454.142,257.834 488.764,275.724 			"/>
			<polygon fill="#C1C1C0" points="488.764,281.411 563.764,281.648 488.764,281.885 			"/>
			<polygon fill="#C1C1C0" points="488.764,281.885 469.447,272.565 488.764,281.411 			"/>
			<polygon fill="#C1C1C0" points="572.365,279.849 497.365,279.611 572.365,279.374 			"/>
			<polygon fill="#C1C1C0" points="488.764,285.042 528.842,285.279 488.764,285.517 			"/>
			<polygon fill="#C1C1C0" points="488.764,285.517 461.092,271.815 488.764,285.042 			"/>
			<polygon fill="#C1C1C0" points="572.365,286.586 522.092,286.349 572.365,286.111 			"/>
			<polygon fill="#C1C1C0" points="488.764,276.631 543.842,276.87 488.764,277.108 			"/>
			<polygon fill="#C1C1C0" points="488.764,277.108 456.342,261.44 488.764,276.631 			"/>
		</g>
		<g>
			<polygon fill="#403254" points="573.767,271.208 490.154,271.208 455.532,253.316 539.145,253.316 			"/>
			<polygon fill="#E9E9EA" points="493.154,271.208 460.157,254.113 460.157,238.78 493.154,255.874 			"/>
			<polygon fill="#403254" points="573.767,255.874 490.154,255.874 455.532,237.983 539.145,237.983 			"/>
			<rect x="490.154" y="255.874" fill="#604E75" width="83.612" height="15.334"/>
		</g>
		<g>
			<polygon fill="#9F8BB7" points="571.052,252.596 487.439,252.596 452.817,234.706 536.43,234.706 			"/>
			<polygon fill="#E9E9EA" points="490.439,252.596 457.442,235.502 457.442,220.169 490.439,237.262 			"/>
			<polygon fill="#9F8BB7" points="571.052,237.262 487.439,237.262 452.817,219.373 536.43,219.373 			"/>
			<rect x="487.439" y="237.262" fill="#B69FCC" width="83.612" height="15.334"/>
		</g>
		<polygon fill="#E9E9EA" points="579.787,239.516 489.695,237.309 452.863,217.119 542.955,219.326 		"/>
		<g>
			<polygon fill="#4A494A" points="561.884,234.014 488.173,234.014 457.651,218.242 531.362,218.242 			"/>
			<polygon fill="#E9E9EA" points="490.818,234.014 461.729,218.944 461.729,205.427 490.818,220.498 			"/>
			<polygon fill="#4A494A" points="561.884,220.498 488.173,220.498 457.651,204.724 531.362,204.724 			"/>
			<rect x="488.173" y="220.498" fill="#5B5C5C" width="73.711" height="13.517"/>
		</g>
		<g>
			<polygon fill="#D6D6D6" points="574.052,220.482 490.439,220.482 455.817,202.589 539.43,202.589 			"/>
			<polygon fill="#E0E0E0" points="574.052,206.982 490.439,206.982 455.817,189.089 539.43,189.089 			"/>
			<rect x="490.439" y="206.982" fill="#E9E9EA" width="83.612" height="13.5"/>
			<polygon fill="#E9E9EA" points="490.439,220.482 455.817,202.589 455.817,189.089 490.439,206.982 			"/>
			<polygon fill="#C1C1C0" points="490.439,212.667 565.439,212.905 490.439,213.144 			"/>
			<polygon fill="#C1C1C0" points="490.439,213.144 471.123,203.822 490.439,212.667 			"/>
			<polygon fill="#C1C1C0" points="574.041,211.107 499.041,210.869 574.041,210.63 			"/>
			<polygon fill="#C1C1C0" points="490.439,216.296 530.518,216.537 490.439,216.774 			"/>
			<polygon fill="#C1C1C0" points="490.439,216.774 462.768,203.072 490.439,216.296 			"/>
			<polygon fill="#C1C1C0" points="574.041,217.843 523.768,217.606 574.041,217.369 			"/>
			<polygon fill="#C1C1C0" points="490.439,207.888 545.518,208.126 490.439,208.365 			"/>
			<polygon fill="#C1C1C0" points="490.439,208.365 458.018,192.697 490.439,207.888 			"/>
		</g>
		<g>
			<polygon fill="#403254" points="575.442,202.464 491.83,202.464 457.207,184.573 540.82,184.573 			"/>
			<polygon fill="#E9E9EA" points="494.83,202.464 461.832,185.371 461.832,170.037 494.83,187.13 			"/>
			<polygon fill="#403254" points="575.442,187.13 491.83,187.13 457.207,169.24 540.82,169.24 			"/>
			<rect x="491.83" y="187.13" fill="#604E75" width="83.612" height="15.334"/>
		</g>
		<g>
			<polygon fill="#D6D6D6" points="575.442,184.935 491.83,184.935 457.207,167.044 540.82,167.044 			"/>
			<polygon fill="#E0E0E0" points="575.442,171.435 491.83,171.435 457.207,153.544 540.82,153.544 			"/>
			<rect x="491.83" y="171.435" fill="#E9E9EA" width="83.612" height="13.5"/>
			<polygon fill="#E9E9EA" points="491.83,184.935 457.207,167.044 457.207,153.544 491.83,171.435 			"/>
			<polygon fill="#C1C1C0" points="491.83,177.121 566.83,177.359 491.83,177.597 			"/>
			<polygon fill="#C1C1C0" points="491.83,177.597 472.514,168.275 491.83,177.121 			"/>
			<polygon fill="#C1C1C0" points="575.432,175.56 500.432,175.322 575.432,175.084 			"/>
			<polygon fill="#C1C1C0" points="491.83,180.751 531.908,180.989 491.83,181.228 			"/>
			<polygon fill="#C1C1C0" points="491.83,181.228 464.158,167.525 491.83,180.751 			"/>
			<polygon fill="#C1C1C0" points="575.432,182.298 525.158,182.06 575.432,181.821 			"/>
			<polygon fill="#C1C1C0" points="491.83,172.342 546.908,172.58 491.83,172.818 			"/>
			<polygon fill="#C1C1C0" points="491.83,172.818 459.408,157.15 491.83,172.342 			"/>
		</g>
	</g>
	<g>
		<polygon fill="#443756" points="479.78,333.467 444.809,315.473 444.809,293.881 479.78,311.875 		"/>
		<g>
			<rect x="479.475" y="311.875" fill="#6A5B7C" width="101.667" height="21.592"/>
			<g>
				<path fill="#B69FCC" d="M485.103,318.299c2.468,0,3.281,0.998,3.281,3.149v2.873c0,2.151-0.813,3.164-3.281,3.164h-2.927
					c-0.249,0-0.395-0.146-0.395-0.396v-8.385c0-0.264,0.132-0.395,0.395-0.408h2.927V318.299z M485.142,325.229
					c0.631,0,0.945-0.105,0.945-0.893c0-0.015,0-2.873,0-2.888c0-0.813-0.314-0.894-0.945-0.894h-0.708
					c-0.249,0-0.395,0.132-0.395,0.396v3.884c0,0.25,0.146,0.395,0.395,0.395H485.142L485.142,325.229z"/>
				<path fill="#B69FCC" d="M496.025,324.533c0,0.865-0.183,3.188-3.293,3.188c-3.109,0-3.295-2.323-3.295-3.188v-3.28
					c0-0.865,0.186-3.189,3.295-3.189c3.11,0,3.293,2.324,3.293,3.189V324.533z M493.769,321.947c0-1.01-0.063-1.627-1.036-1.627
					c-0.972,0-1.037,0.617-1.037,1.627v1.892c0,1.01,0.065,1.627,1.037,1.627c0.973,0,1.036-0.617,1.036-1.627V321.947z"/>
				<path fill="#B69FCC" d="M497.08,321.252c0-0.865,0.185-3.189,3.295-3.189c2.796,0,3.229,1.877,3.279,2.889
					c0.014,0.184-0.104,0.328-0.287,0.367l-1.457,0.328c-0.275,0.053-0.486-0.133-0.524-0.408c-0.066-0.576-0.303-0.918-1.011-0.918
					c-0.973,0-1.037,0.617-1.037,1.627v1.891c0,1.011,0.064,1.627,1.037,1.627c0.722,0,0.919-0.342,0.996-0.944
					c0.039-0.274,0.25-0.444,0.513-0.381l1.482,0.327c0.185,0.039,0.302,0.185,0.288,0.382c-0.052,0.997-0.483,2.875-3.279,2.875
					c-3.11,0-3.296-2.324-3.296-3.188L497.08,321.252L497.08,321.252z"/>
				<path fill="#B69FCC" d="M506.664,320.951c0-0.264-0.132-0.396-0.394-0.396h-1.838c-0.249,0-0.395-0.145-0.395-0.395v-1.469
					c0-0.264,0.146-0.395,0.395-0.395h6.72c0.263,0,0.395,0.131,0.395,0.395v1.469c0,0.25-0.131,0.395-0.395,0.395h-1.837
					c-0.249,0-0.396,0.132-0.396,0.396v6.142c0,0.25-0.131,0.395-0.394,0.395h-1.471c-0.249,0-0.394-0.145-0.394-0.395v-6.142
					H506.664z"/>
				<path fill="#B69FCC" d="M518.664,324.533c0,0.865-0.184,3.188-3.293,3.188c-3.111,0-3.296-2.323-3.296-3.188v-3.28
					c0-0.865,0.185-3.189,3.296-3.189c3.109,0,3.293,2.324,3.293,3.189V324.533z M516.406,321.947c0-1.01-0.064-1.627-1.035-1.627
					c-0.973,0-1.037,0.617-1.037,1.627v1.892c0,1.01,0.064,1.627,1.037,1.627c0.971,0,1.035-0.617,1.035-1.627V321.947z"/>
				<path fill="#B69FCC" d="M526.765,326.777c0.184,0.343-0.025,0.709-0.433,0.709h-1.496c-0.133,0-0.249-0.065-0.304-0.185
					l-1.363-2.639c-0.026-0.039-0.065-0.066-0.105-0.066h-0.524c-0.235,0-0.406,0.173-0.406,0.408v2.072
					c0,0.236-0.171,0.408-0.407,0.408h-1.469c-0.236,0-0.407-0.172-0.407-0.408v-8.371c0-0.236,0.171-0.408,0.407-0.408h2.873
					c2.336,0,3.282,0.998,3.282,3.15c0,1.221-0.304,2.074-0.998,2.572c-0.054,0.039-0.065,0.105-0.041,0.17L526.765,326.777z
					 M522.539,320.557c-0.235,0-0.406,0.17-0.406,0.406v0.971c0,0.236,0.171,0.408,0.406,0.408h0.67c0.631,0,0.943-0.08,0.943-0.894
					s-0.313-0.894-0.943-0.894h-0.67V320.557z"/>
				<path fill="#B69FCC" d="M534,327.04c0,0.289-0.131,0.446-0.395,0.446h-1.469c-0.25,0-0.396-0.131-0.396-0.396v-1.141
					c0-0.264-0.132-0.395-0.394-0.395h-1.129c-0.249,0-0.395,0.131-0.395,0.395v1.141c0,0.265-0.132,0.396-0.394,0.396h-1.471
					c-0.249,0-0.394-0.157-0.394-0.446v-5.564c0-1.652,0.262-3.412,3.216-3.412c2.952,0,3.214,1.76,3.214,3.412v5.564H534z
					 M531.743,321.475c0-0.629-0.092-0.943-0.957-0.943c-0.866,0-0.959,0.314-0.959,0.943v1.432c0,0.248,0.146,0.393,0.395,0.393
					h1.129c0.262-0.012,0.394-0.145,0.394-0.405L531.743,321.475L531.743,321.475z"/>
				<path fill="#B69FCC" d="M537.115,318.299c0.264,0,0.394,0.131,0.394,0.395v6.141c0,0.25,0.146,0.396,0.395,0.396h2.927
					c0.263,0,0.395,0.131,0.395,0.396v1.469c0,0.264-0.132,0.395-0.395,0.395h-5.185c-0.249,0-0.394-0.145-0.394-0.395v-8.398
					c0-0.264,0.145-0.395,0.394-0.395h1.47V318.299z"/>
				<path fill="#B69FCC" d="M545.507,318.733c-0.054-0.275,0.079-0.434,0.354-0.434h1.563c0.235,0,0.407,0.119,0.433,0.342
					l0.748,5.473c0.026,0.131,0.132,0.131,0.158,0l0.88-5.473c0.038-0.223,0.196-0.342,0.433-0.342h1.129
					c0.235,0,0.394,0.119,0.434,0.342l0.879,5.473c0.027,0.131,0.132,0.131,0.157,0l0.749-5.473
					c0.024-0.223,0.195-0.342,0.433-0.342h1.563c0.274,0,0.406,0.158,0.354,0.434l-1.614,8.412c-0.04,0.223-0.196,0.342-0.433,0.342
					h-1.853c-0.234,0-0.38-0.119-0.433-0.342l-0.721-3.229c-0.027-0.132-0.132-0.132-0.158,0l-0.722,3.229
					c-0.053,0.223-0.196,0.342-0.435,0.342h-1.85c-0.236,0-0.396-0.119-0.434-0.342L545.507,318.733z"/>
				<path fill="#B69FCC" d="M563.071,324.533c0,0.865-0.184,3.188-3.293,3.188c-3.11,0-3.295-2.323-3.295-3.188v-3.28
					c0-0.865,0.185-3.189,3.295-3.189c3.109,0,3.293,2.324,3.293,3.189V324.533z M560.814,321.947c0-1.01-0.064-1.627-1.036-1.627
					s-1.037,0.617-1.037,1.627v1.892c0,1.01,0.065,1.627,1.037,1.627s1.036-0.617,1.036-1.627V321.947z"/>
				<path fill="#B69FCC" d="M571.174,326.777c0.184,0.343-0.025,0.709-0.434,0.709h-1.496c-0.132,0-0.248-0.065-0.303-0.185
					l-1.363-2.639c-0.025-0.039-0.065-0.066-0.104-0.066h-0.525c-0.235,0-0.406,0.173-0.406,0.408v2.072
					c0,0.236-0.171,0.408-0.407,0.408h-1.469c-0.236,0-0.407-0.172-0.407-0.408v-8.371c0-0.236,0.171-0.408,0.407-0.408h2.873
					c2.336,0,3.281,0.998,3.281,3.15c0,1.221-0.303,2.074-0.998,2.572c-0.053,0.039-0.064,0.105-0.04,0.17L571.174,326.777z
					 M566.948,320.557c-0.235,0-0.406,0.17-0.406,0.406v0.971c0,0.236,0.171,0.408,0.406,0.408h0.669
					c0.631,0,0.945-0.08,0.945-0.894s-0.314-0.894-0.945-0.894h-0.669V320.557z"/>
				<path fill="#B69FCC" d="M579.419,327.014c0.185,0.264,0.065,0.473-0.249,0.473h-1.969c-0.211,0-0.354-0.08-0.474-0.264
					l-1.626-2.492c-0.054-0.08-0.132-0.08-0.186,0l-0.537,0.734c-0.04,0.053-0.054,0.104-0.054,0.17v1.457
					c0,0.25-0.131,0.395-0.393,0.395h-1.498c-0.248,0-0.393-0.145-0.393-0.395v-8.398c0-0.264,0.145-0.395,0.393-0.395h1.498
					c0.262,0,0.393,0.131,0.393,0.395v2.637c0,0.133,0.093,0.158,0.157,0.053l2.063-2.834c0.116-0.17,0.262-0.25,0.473-0.25h1.941
					c0.328,0,0.434,0.211,0.25,0.486l-2.651,3.648c-0.04,0.064-0.053,0.117,0,0.184L579.419,327.014z"/>
			</g>
		</g>
	</g>
</g>
</svg>
