<?xml version="1.0" encoding="utf-8"?>
<!-- Generator: Adobe Illustrator 16.0.0, SVG Export Plug-In . SVG Version: 6.00 Build 0)  -->
<!DOCTYPE svg PUBLIC "-//W3C//DTD SVG 1.1//EN" "http://www.w3.org/Graphics/SVG/1.1/DTD/svg11.dtd">
<svg version="1.1" id="Layer_1" xmlns="http://www.w3.org/2000/svg" xmlns:xlink="http://www.w3.org/1999/xlink" x="0px" y="0px"
	 width="266.487px" height="227px" viewBox="0 -13.118 266.487 227" enable-background="new 0 -13.118 266.487 227"
	 xml:space="preserve">
<path fill="#604E75" d="M194.589,141.725c0,0-2.516,5.66-10.063,5.66s-19.707-10.482-10.482-32.915
	c1.104-2.685,2.052-5.405,2.844-8.139c-2.879-0.557-5.735-1.262-8.585-2.216c-2.382,5.276-5.629,9.241-8.062,10.815
	c-5.446,3.525-14.183,19.97-10.307,28.711c3.874,8.739,18.031,18.21,32.916,12.759C197.733,150.95,194.589,141.725,194.589,141.725z
	"/>
<path fill="#E9E9EA" d="M156.28,129.304c-0.681-5.379-4.731-9.34-9.005-8.799l-1.754,0.222l2.353,18.593
	c3.094-0.392,6.335-0.802,9.521-1.205L156.28,129.304z"/>
<path fill="#E9E9EA" d="M98.096,120.322h-1.533c-3.737,0-6.793,3.058-6.793,6.793v20.587c0,3.735,3.056,6.794,6.793,6.794h1.533
	V120.322z"/>
<path fill="#333333" d="M146.457,130.915l9.648-1.22l-0.451-3.556c-0.468-3.707-4.393-6.292-8.723-5.744l-1.777,0.225
	L146.457,130.915z"/>
<path fill="#333333" d="M147.725,130.699v34.278H98.096v-34.278H89.77v-3.585c0-3.735,3.056-6.793,6.793-6.793h1.533h49.628V130.699
	z"/>
<polygon fill="#B69FCC" points="98.096,164.977 98.096,175.46 98.096,200.41 116.204,200.41 116.204,175.46 129.618,175.46 
	129.618,200.41 147.725,200.41 147.725,175.46 147.725,164.977 "/>
<path d="M107.149,209.463c5,0,9.054-4.054,9.054-9.054H98.096C98.096,205.409,102.148,209.463,107.149,209.463z"/>
<path d="M138.672,209.463c5.001,0,9.053-4.054,9.053-9.054h-18.106C129.618,205.409,133.672,209.463,138.672,209.463z"/>
<path fill="#B69FCC" d="M107.149,191.355c-5.001,0-9.054,4.053-9.054,9.055h18.107C116.204,195.409,112.149,191.355,107.149,191.355
	z"/>
<path fill="#B69FCC" d="M138.672,191.355c-5,0-9.055,4.053-9.055,9.055h18.107C147.725,195.409,143.673,191.355,138.672,191.355z"/>
<path fill="#E9E9EA" d="M171.362,80.3c-0.561,0-1.104,0.074-1.626,0.199c-5.516-18.003-24.472-31.275-47.018-31.275
	c-22.544,0-41.5,13.271-47.016,31.275c-0.522-0.126-1.065-0.199-1.626-0.199c-3.821,0-6.918,3.097-6.918,6.918
	c0,3.821,3.098,6.918,6.918,6.918c0.043,0,0.083-0.005,0.125-0.007c1.708,21.277,22.77,31.082,48.518,31.082
	s46.812-9.804,48.519-31.082c0.042,0.001,0.082,0.007,0.125,0.007c3.821,0,6.919-3.098,6.919-6.918
	C178.281,83.397,175.184,80.3,171.362,80.3z"/>
<path fill="none" stroke="#000000" stroke-width="3" stroke-linecap="round" stroke-miterlimit="10" d="M87.836,83.434
	c0,1.305,0.982,3.302,3.148,3.302c2.167,0,3.279-1.657,3.279-3.278"/>
<path fill="none" stroke="#000000" stroke-width="3" stroke-linecap="round" stroke-miterlimit="10" d="M91.05,80.421
	c0,1.305,0.982,3.302,3.148,3.302c0.968,0,1.726-0.331,2.268-0.841"/>
<path fill="none" stroke="#000000" stroke-width="3" stroke-linecap="round" stroke-miterlimit="10" d="M153.893,80.421
	c0,1.305-0.981,3.302-3.148,3.302c-0.968,0-1.726-0.331-2.267-0.841"/>
<path fill="none" stroke="#000000" stroke-width="3" stroke-linecap="round" stroke-miterlimit="10" d="M150.63,83.434
	c0,1.305,0.982,3.302,3.149,3.302c2.166,0,3.278-1.657,3.278-3.278"/>
<g>
	<circle cx="97.094" cy="85.147" r="4.717"/>
	<circle fill="#FFFFFF" cx="95.525" cy="83.863" r="1.906"/>
</g>
<g>
	<circle cx="147.725" cy="85.147" r="4.717"/>
	<circle fill="#FFFFFF" cx="146.157" cy="83.863" r="1.906"/>
</g>
<path fill="none" stroke="#000000" stroke-width="3" stroke-linecap="round" stroke-miterlimit="10" d="M122.719,81.957
	c0,0,0.512,5.2,2.713,7.908l-2.713,2.236"/>
<path fill="none" stroke="#000000" stroke-width="3" stroke-linecap="round" stroke-miterlimit="10" d="M115.003,96.32
	c0,3.211,2.417,8.124,7.748,8.124s8.067-4.077,8.067-8.068"/>
<path fill="#604E75" d="M165.003,52.832c-11.159-9.434-28.068-16.982-46.937-10.901c0,0-15.702,6.918-10.681,14.675
	s14.431-1.048,27.872,0c7.879,0.614,28.899,6.832,34.714,23.894c2.906,8.53,1.633,17.194-1.319,23.731
	c2.851,0.955,5.356,1.545,8.235,2.101C182.714,86.225,179.88,65.409,165.003,52.832z"/>
<path fill="#E9E9EA" d="M171.237,94.13c0.042,0.001,0.082,0.007,0.125,0.007c3.821,0,6.919-3.098,6.919-6.918
	c0-3.821-3.098-6.918-6.919-6.918c-0.561,0-1.104,0.074-1.626,0.199l-3.476,7.832L171.237,94.13z"/>
<path fill="#604E75" d="M113.01,50.736c0,0-4.823,8.177-11.199,11.112c-6.553,3.017-19.838,2.214-26.108,18.653
	c-6.826,17.896,6.749,33.971,14.067,37.336c7.318,3.365,10.473,20.325,1.133,27.872c-9.341,7.548-35.758,8.386-37.855-9.854
	c0,0,5.662,6.918,12.161,5.87c6.499-1.049,16.563-10.483,5.032-23.9c-11.532-13.418-10.204-44.354,3.773-57.655
	C88.378,46.499,104.413,41.51,113.01,50.736z"/>
<path fill="#E9E9EA" d="M74.201,94.13c-0.042,0.001-0.082,0.007-0.125,0.007c-3.82,0-6.918-3.098-6.918-6.918
	c0-3.821,3.098-6.918,6.918-6.918c0.562,0,1.104,0.074,1.626,0.199l3.475,7.832L74.201,94.13z"/>
<circle fill="#C4C4C3" cx="93.871" cy="101.915" r="6.035"/>
<circle fill="#C4C4C3" cx="151.889" cy="101.915" r="6.035"/>
<g>
	<path fill="#5B5C5C" d="M158.01,117.705c-0.483,0.908-1.681,1.216-2.676,0.688l0,0c-0.996-0.529-1.411-1.693-0.93-2.603
		l12.912-24.319c0.483-0.908,1.681-1.216,2.676-0.687l0,0c0.996,0.528,1.412,1.693,0.93,2.602L158.01,117.705z"/>
	<path fill="#B69FCC" d="M165.112,102.216c-0.254,0.48-0.89,0.645-1.419,0.364l0,0c-0.526-0.28-0.748-0.898-0.492-1.38l4.821-9.08
		c0.256-0.482,0.89-0.645,1.419-0.364l0,0c0.527,0.281,0.748,0.898,0.492,1.38L165.112,102.216z"/>
</g>
<path fill="#E9E9EA" d="M162.693,112.808l-3.387-1.745l-11.582,28.699c-1.125,7.865,6.314,6.052,7.472,3.675l9.249-18.802
	C166.834,119.781,166.047,114.459,162.693,112.808z"/>
<g>
	<path fill="#B69FCC" d="M217.871,29.463c0-20.971-20.416-37.972-45.6-37.972c-25.185,0-45.6,17.001-45.6,37.972
		c0,20.972,20.415,37.973,45.6,37.973c0.952,0,1.896-0.032,2.832-0.08c0.896,4.679-1.739,9.401-14.468,10.933
		c0,0,28.303,4.68,39.715-18.917C211.01,52.421,217.871,41.613,217.871,29.463z"/>
	
		<text transform="matrix(1 0 0 1 137.4824 42.0706)" fill="#614F76" font-family="'Cubano-Regular'" font-size="35.0616" letter-spacing="6">!!!!</text>
</g>
</svg>
