<?xml version="1.0" encoding="utf-8"?>
<!-- Generator: Adobe Illustrator 16.0.0, SVG Export Plug-In . SVG Version: 6.00 Build 0)  -->
<!DOCTYPE svg PUBLIC "-//W3C//DTD SVG 1.1//EN" "http://www.w3.org/Graphics/SVG/1.1/DTD/svg11.dtd">
<svg version="1.1" id="Layer_1" xmlns="http://www.w3.org/2000/svg" xmlns:xlink="http://www.w3.org/1999/xlink" x="0px" y="0px"
	 width="448.5px" height="324.156px" viewBox="0 0 448.5 324.156" enable-background="new 0 0 448.5 324.156" xml:space="preserve">
<g>
	
		<rect x="8.59" y="10.689" transform="matrix(-0.9999 0.0109 -0.0109 -0.9999 292.9091 166.4412)" fill="#333333" width="274.821" height="146.66"/>
	
		<rect x="13.913" y="15.198" transform="matrix(-0.9999 0.0109 -0.0109 -0.9999 292.9087 166.4415)" fill="#5B5C5C" width="264.176" height="137.643"/>
	<g opacity="0.67">
		<line fill="none" stroke="#FFFFFF" stroke-miterlimit="10" x1="18.013" y1="24.59" x2="268.332" y2="21.868"/>
		<line fill="none" stroke="#FFFFFF" stroke-miterlimit="10" x1="18.387" y1="58.921" x2="268.705" y2="56.199"/>
		<g>
			<g>
				<line fill="none" stroke="#FFFFFF" stroke-miterlimit="10" x1="18.2" y1="41.756" x2="19.2" y2="41.745"/>
				
					<line fill="none" stroke="#FFFFFF" stroke-miterlimit="10" stroke-dasharray="1.9867,1.9867" x1="21.186" y1="41.723" x2="266.525" y2="39.055"/>
				<line fill="none" stroke="#FFFFFF" stroke-miterlimit="10" x1="267.518" y1="39.044" x2="268.518" y2="39.034"/>
			</g>
		</g>
	</g>
	<g>
		<path fill="#FFFFFF" d="M26.239,49.691c2.371-4.57,5.486-11.059,8.286-19.116l0.315-2.254c0.158-1.106,1.086-1.668,2.021-1.679
			c0.807-0.009,1.576,0.45,1.587,1.427c0.018,1.656-1.333,14.114-1.37,22.48c-0.016,2.421,0.256,3.989,0.808,3.983
			c1.062-0.011,2.179-2.741,3.756-6.114c0.249-0.512,0.543-0.77,0.755-0.772c0.17-0.002,0.256,0.125,0.259,0.422
			c0.002,0.169-0.037,0.467-0.162,0.766c-1.239,3.157-2.794,8.609-6.233,8.646c-1.741,0.019-2.576-2.647-2.83-6.467
			c-1.401,0.1-3.183,0.247-5.137,0.268c-1.901,4.777-2.394,6.354-3.455,6.366c-0.849,0.009-1.876-0.66-1.884-1.424
			c-0.007-0.637,1.245-2.646,2.41-4.91l-1.53-0.068c-0.765-0.034-1.151-0.454-1.155-0.836c-0.004-0.382,0.373-0.769,1.053-0.776
			C24.37,49.626,25.263,49.659,26.239,49.691z M33.273,48.171c-0.042-3.822,0.25-8.242,0.672-12.323
			c-1.975,5.754-3.708,10.402-5.03,13.898l4.418,0.122C33.286,49.317,33.279,48.765,33.273,48.171z"/>
		<path fill="#FFFFFF" d="M52.821,53.606c0.007,0.637,0.224,1.059,0.606,1.055c0.892-0.01,2.184-2.274,4.135-6.415
			c0.207-0.469,0.544-0.728,0.757-0.73c0.127-0.001,0.256,0.125,0.259,0.422c0.002,0.169-0.038,0.425-0.162,0.724
			c-0.579,1.493-3.178,8.486-6.448,8.521c-1.316,0.015-2.895-0.69-2.929-3.875c-0.002-0.212-0.005-0.51,0.034-0.808
			c-1.37,2.902-2.964,4.746-4.323,4.761c-2.293,0.025-3.296-2.427-3.332-5.739c-0.07-6.454,3.562-16.091,8.445-16.145
			c1.698-0.019,2.78,1.796,2.879,3.111l0.255-0.003c1.062-0.012,2.345,0.866,2.362,2.438c0.002,0.212,0.005,0.424-0.036,0.637
			C54.235,46.965,52.799,51.568,52.821,53.606z M50.398,45.564l1.292-6.13c-0.008-0.722-0.145-1.612-1.165-1.601
			c-2.845,0.031-5.327,9.995-5.278,14.454c0.014,1.274,0.235,2.079,0.745,2.073C47.563,54.343,49.388,50.289,50.398,45.564z"/>
		<path fill="#FFFFFF" d="M68.759,35.639c-1.019,0.011-2.395-1.545-2.41-2.989c-0.004-0.382,0.077-0.723,0.286-1.064
			c1.75-2.992,5.51-4.859,9.289-4.9c5.223-0.057,10.445,3.75,10.51,9.653c0.037,3.439-1.667,6.813-4.835,8.334
			c1.836,0.957,2.705,2.688,2.725,4.556c0.04,3.61-3.313,7.766-8.664,7.824c-7.049,0.077-11.104-1.875-11.12-3.319
			c-0.01-0.934,0.956-1.921,1.975-1.933c0.891-0.01,1.369,0.919,2.483,1.884c2.911-1.772,2.943-14.429,5.242-21.716
			c0.205-0.724,0.838-1.028,1.56-1.036c1.146-0.012,2.472,0.78,2.483,1.842c0.001,0.127,0.003,0.254-0.038,0.382
			c-1.762,5.964-2.336,19.518-8.048,21.449c1.199,0.878,2.863,1.583,4.562,1.564c3.481-0.038,5.648-3.883,5.613-7.153
			c-0.016-1.444-0.455-2.756-1.399-3.637c-0.339,0.046-0.679,0.092-1.019,0.096c-0.934,0.01-1.785-0.15-1.791-0.702
			c-0.007-0.637,0.797-0.901,1.646-0.91c0.424-0.005,0.765,0.034,1.147,0.072c2.064-1.509,3.635-5.518,3.593-9.382
			c-0.02-1.783-0.379-3.605-1.16-5.083l-0.042-0.042c-1.025-0.499-2.132-0.698-3.193-0.687c-3.354,0.037-6.811,2.367-8.51,6.25
			C69.437,35.462,69.141,35.635,68.759,35.639z"/>
		<path fill="#FFFFFF" d="M93.493,25.942c0.935-0.01,1.79,0.533,1.801,1.552c0.002,0.17-0.039,0.34-1.951,8.09
			c0.717-0.475,1.563-0.781,2.455-0.791c3.312-0.036,4.747,3.048,4.789,6.913c0.069,6.412-3.701,15.031-9.094,15.09
			c-2.59,0.028-4.185-2.078-4.234-6.664c-0.021-1.996,0.249-4.504,0.853-7.484c2.177-10.726,2.662-12.981,3.192-15.026
			C91.587,26.473,92.559,25.952,93.493,25.942z M92.368,39.714c-0.93,4.214-1.692,8.342-1.661,11.187
			c0.025,2.335,0.593,3.815,1.994,3.8c2.25-0.024,3.992-7.857,3.933-13.25c-0.03-2.718-0.521-4.878-1.667-4.865
			C93.438,36.603,92.692,38.266,92.368,39.714z"/>
		<path fill="#FFFFFF" d="M122.928,26.854c1.494,0.706,1.977,2.187,1.996,3.97c0.036,3.27-1.573,7.533-1.592,9.742
			c-0.031,1.063-1.087,1.583-2.149,1.595c-1.062,0.011-2.086-0.444-2.095-1.294c-0.035-3.185,3.604-8.405,3.567-11.76
			c-0.005-0.509-0.096-1.018-0.313-1.44c-4.458,0.134-9.465,12.206-9.381,19.892c0.039,3.61,1.215,6.272,4.145,6.24
			c3.44-0.037,5.697-3.374,7.364-6.28c0.25-0.427,0.501-0.728,0.798-0.73c0.127-0.001,0.213,0.083,0.216,0.337
			c0.002,0.169-0.038,0.382-0.162,0.724c-1.113,3.027-4.279,8.752-9.544,8.81c-4.628,0.051-6.584-4.09-6.642-9.355
			c-0.097-8.917,5.25-21.079,11.789-21.15C121.774,26.145,122.584,26.433,122.928,26.854z"/>
		<path fill="#FFFFFF" d="M133.982,36.162c-2.377,0.026-5.475,8.086-5.418,13.351c0.031,2.845,0.899,4.576,3.15,4.552
			c3.354-0.037,6.366-4.273,7.529-6.707c0.207-0.469,0.46-0.642,0.673-0.644c0.169-0.002,0.298,0.124,0.301,0.421
			c0.002,0.17-0.038,0.383-0.121,0.639c-1.446,3.668-4.832,8.673-9.715,8.727c-4.247,0.046-5.94-3.417-5.987-7.749
			c-0.069-6.327,3.497-14.222,8.041-14.271c0.934-0.01,1.788,0.363,2.301,0.782c1.915,0.319,2.661,2.519,2.686,4.812
			c0.033,3.057-0.787,5.699-3.08,5.724c-0.977,0.011-1.917-0.531-1.925-1.295c-0.019-1.698,2.641-3.171,2.602-6.696
			C135.01,36.915,134.407,36.157,133.982,36.162z"/>
	</g>
</g>
<g>
	<g>
		<path fill="#E9E9EA" d="M251.119,132.663h2.438c5.94,0,10.8,4.86,10.8,10.8v32.733c0,5.938-4.858,10.8-10.8,10.8h-2.438V132.663z"
			/>
		<path fill="#E9E9EA" d="M172.212,132.663h-2.438c-5.939,0-10.801,4.86-10.801,10.8v32.733c0,5.938,4.86,10.8,10.801,10.8h2.438
			V132.663z"/>
		<polygon fill="#E9E9EA" points="172.212,203.662 172.212,220.329 172.212,259.996 201.001,259.996 201.001,220.329 
			222.329,220.329 222.329,259.996 251.119,259.996 251.119,220.329 251.119,203.662 		"/>
		<path d="M186.606,274.391c7.949,0,14.396-6.443,14.396-14.395h-28.789C172.212,267.947,178.656,274.391,186.606,274.391z"/>
		<path d="M236.724,274.391c7.951,0,14.396-6.443,14.396-14.395h-28.79C222.329,267.947,228.774,274.391,236.724,274.391z"/>
		<path fill="#E9E9EA" d="M186.606,245.602c-7.95,0-14.395,6.445-14.395,14.396h28.789
			C201.001,252.047,194.556,245.602,186.606,245.602z"/>
		<path fill="#E9E9EA" d="M236.724,245.602c-7.949,0-14.395,6.445-14.395,14.396h28.79
			C251.119,252.047,244.675,245.602,236.724,245.602z"/>
		<path fill="#B69FCC" d="M211.666,230.5h48.546c-6.617-9.619-9.093-26.838-9.093-26.838v-54.5h13.236v-5.699
			c0-5.938-4.858-10.8-10.8-10.8h-2.438h-78.907h-2.438c-5.939,0-10.801,4.86-10.801,10.8v5.699h13.238v54.5
			c0,0-2.477,17.219-9.093,26.838H211.666L211.666,230.5z"/>
	</g>
	<g>
		<path fill="#E9E9EA" d="M288.699,69.031c-0.893,0-1.756,0.118-2.586,0.318c-8.77-28.624-38.907-49.725-74.753-49.725
			c-35.845,0-65.982,21.102-74.752,49.726c-0.83-0.2-1.692-0.318-2.586-0.318c-6.073,0-11,4.925-11,11s4.927,11,11,11
			c0.068,0,0.134-0.009,0.199-0.011c2.715,33.828,36.201,49.417,77.14,49.417s74.426-15.589,77.141-49.417
			c0.065,0.002,0.13,0.01,0.197,0.01c6.074,0,11-4.925,11-11S294.774,69.031,288.699,69.031z"/>
		<path fill="none" stroke="#000000" stroke-width="3" stroke-linecap="round" stroke-miterlimit="10" d="M155.899,74.015
			c0,2.075,1.562,5.25,5.006,5.25c3.445,0,5.215-2.635,5.215-5.213"/>
		<path fill="none" stroke="#000000" stroke-width="3" stroke-linecap="round" stroke-miterlimit="10" d="M161.01,69.225
			c0,2.075,1.561,5.25,5.006,5.25c1.539,0,2.744-0.526,3.605-1.338"/>
		<path fill="none" stroke="#000000" stroke-width="3" stroke-linecap="round" stroke-miterlimit="10" d="M260.925,69.225
			c0,2.075-1.562,5.25-5.006,5.25c-1.539,0-2.744-0.526-3.605-1.338"/>
		<path fill="none" stroke="#000000" stroke-width="3" stroke-linecap="round" stroke-miterlimit="10" d="M255.737,74.015
			c0,2.075,1.562,5.25,5.007,5.25c3.444,0,5.214-2.635,5.214-5.213"/>
		<g>
			<circle cx="170.619" cy="76.739" r="7.5"/>
			<circle fill="#FFFFFF" cx="168.125" cy="74.697" r="3.03"/>
		</g>
		<g>
			<circle cx="251.119" cy="76.739" r="7.5"/>
			<circle fill="#FFFFFF" cx="248.625" cy="74.697" r="3.03"/>
		</g>
		<path fill="none" stroke="#000000" stroke-width="3" stroke-linecap="round" stroke-miterlimit="10" d="M211.361,71.667
			c0,0,0.813,8.268,4.313,12.572l-4.313,3.556"/>
		<path fill="none" stroke="#000000" stroke-width="3" stroke-linecap="round" stroke-miterlimit="10" d="M199.093,94.502
			c0,5.106,3.842,12.918,12.318,12.918c8.476,0,12.826-6.482,12.826-12.828"/>
		<path fill="#604E75" d="M203.962,8.026c0,0-24.965,11-16.982,23.333c7.983,12.333,22.943-1.667,44.315,0
			c12.526,0.977,45.949,10.863,55.191,37.99c8.353,24.51-6.813,49.14-15.473,54.743c-8.66,5.604-22.548,31.75-16.387,45.647
			s28.668,28.953,52.334,20.286s18.666-23.333,18.666-23.333s-4,8.999-16,8.999s-31.332-16.667-16.666-52.333
			c14.666-35.667,12.495-75.284-14.373-98C260.847,10.36,233.962-1.641,203.962,8.026z"/>
		<path fill="#E9E9EA" d="M288.501,91.021c0.066,0.002,0.131,0.01,0.198,0.01c6.074,0,11-4.925,11-11c0-6.074-4.926-11-11-11
			c-0.893,0-1.756,0.118-2.586,0.318L280.589,81.8L288.501,91.021z"/>
		<path fill="#604E75" d="M195.923,22.027c0,0-7.667,13-17.804,17.667c-10.418,4.796-31.542,3.521-41.512,29.657
			c-10.853,28.454,10.73,54.01,22.365,59.362c11.635,5.35,16.652,32.314,1.801,44.314c-14.851,12-56.853,13.333-60.186-15.667
			c0,0,9.001,11,19.334,9.334c10.333-1.667,26.334-16.667,8-38c-18.334-21.334-16.223-70.519,6-91.667
			C156.762,15.292,182.256,7.36,195.923,22.027z"/>
		<path fill="#E9E9EA" d="M134.223,91.021c-0.066,0.002-0.131,0.01-0.199,0.01c-6.073,0-11-4.925-11-11c0-6.074,4.927-11,11-11
			c0.894,0,1.756,0.118,2.586,0.318l5.525,12.451L134.223,91.021z"/>
		<circle fill="#C4C4C3" cx="165.494" cy="103.398" r="9.595"/>
		<circle fill="#C4C4C3" cx="257.738" cy="103.398" r="9.595"/>
	</g>
</g>
<g>
	<path fill="#E9E9EA" d="M396.114,127.724h2.438c5.94,0,10.801,4.86,10.801,10.8v32.732c0,5.939-4.859,10.801-10.801,10.801h-2.438
		V127.724z"/>
	<path fill="#E9E9EA" d="M317.207,127.724h-2.438c-5.94,0-10.802,4.86-10.802,10.8v32.732c0,5.939,4.86,10.801,10.802,10.801h2.438
		V127.724z"/>
	<path fill="#604E75" d="M398.552,127.724h-2.438h-78.907h-2.438c-5.94,0-10.802,4.86-10.802,10.8v5.699h13.238v54.5h78.907v-54.5
		h13.236v-5.699C409.352,132.584,404.492,127.724,398.552,127.724z"/>
	<polygon fill="#333333" points="317.207,198.723 317.207,215.39 317.207,255.057 345.996,255.057 345.996,215.39 367.324,215.39 
		367.324,255.057 396.114,255.057 396.114,215.39 396.114,198.723 	"/>
	<path d="M331.602,269.45c7.948,0,14.395-6.443,14.395-14.395h-28.789C317.207,263.007,323.651,269.45,331.602,269.45z"/>
	<path d="M381.719,269.45c7.951,0,14.396-6.443,14.396-14.395h-28.79C367.324,263.007,373.77,269.45,381.719,269.45z"/>
	<path fill="#333333" d="M331.602,240.661c-7.95,0-14.396,6.444-14.396,14.396h28.789
		C345.996,247.105,339.551,240.661,331.602,240.661z"/>
	<path fill="#333333" d="M381.719,240.661c-7.948,0-14.395,6.444-14.395,14.396h28.79
		C396.114,247.105,389.67,240.661,381.719,240.661z"/>
	<g>
		<path fill="#E9E9EA" d="M433.695,64.342c-0.894,0-1.756,0.117-2.586,0.318c-8.771-28.625-38.908-49.726-74.753-49.726
			c-35.846,0-65.983,21.101-74.753,49.726c-0.83-0.201-1.693-0.318-2.586-0.318c-6.074,0-11,4.925-11,11c0,6.074,4.926,11,11,11
			c0.067,0,0.133-0.01,0.198-0.01c2.716,33.828,36.201,49.416,77.141,49.416c40.938,0,74.425-15.588,77.14-49.416
			c0.066,0,0.131,0.01,0.199,0.01c6.074,0,11-4.926,11-11C444.695,69.267,439.77,64.342,433.695,64.342z"/>
		<g>
			<circle cx="315.614" cy="72.049" r="7.5"/>
			<circle fill="#FFFFFF" cx="313.12" cy="70.007" r="3.03"/>
		</g>
		<g>
			<circle cx="396.114" cy="72.049" r="7.5"/>
			<circle fill="#FFFFFF" cx="393.62" cy="70.007" r="3.03"/>
		</g>
		<path fill="#B69FCC" d="M404.751,24.104c-7.167-5.333-24.171-11.994-44.657-12.637c-22.176-0.696-49.676,7.471-59.843,18.304
			c-10.324,11.001-19.127,25.777-18.646,34.889c0,0,2.813,3.336,2.813,7.391h5.5c0,0,0.5-26.445,16-36.445
			c0,0,7.499-0.833,10.166,4.833c0,0,4.228-3.333,2.03-6.5c0,0,24.429-4.833,39.929,10.792c0,0,3.125-5.542,0.875-7.542
			c0,0,16.125,0.667,22.375,7.917c0,0,0.875-2.417,0-5c-0.444-1.313,23.625-1.875,29.75,7.25c0,0,0.666-8.583-5.792-12.917
			c19.667,12.667,17.667,37.612,17.667,37.612h5.332c0.166-4.055,2.859-7.391,2.859-7.391
			C429.031,40.136,411.918,29.438,404.751,24.104z"/>
		<path fill="none" stroke="#000000" stroke-width="3" stroke-linecap="round" stroke-miterlimit="10" d="M356.356,66.977
			c0,0,0.812,8.27,4.312,12.572l-4.312,3.556"/>
		<path fill="none" stroke="#000000" stroke-width="3" stroke-linecap="round" stroke-miterlimit="10" d="M369.232,102.729
			c0-5.104-3.842-12.917-12.318-12.917c-8.476,0-12.826,6.48-12.826,12.827"/>
	</g>
</g>
<g>
	<path fill="#3A2E4C" d="M281.433,216.79c0,0,2.671,1.458,3.317,4.372c0.648,2.914,5.021,2.555,5.021,2.555l-2.105,13.485
		l7.124,7.482v2.866l1.781,24.123c0,0,12.304,3.238,15.219,1.296c2.914-1.942,4.048,9.391,4.048,9.391s-8.742,9.898-9.066,14.179
		c-0.323,4.278-37.563-39.874-37.563-39.874L281.433,216.79z"/>
	<path fill="#6C5E7F" d="M281.433,216.79c-14.214,4.986-32.543,18.7-37.399,35.457s-4.372,35.456,11.899,47.601
		c16.271,12.143,32.785,13.355,57.557,6.313c0,0,0-4.979,0-11.23c0,0-8.986,2.975-17-1.396c0,0,1.942-12.629-3.157-21.371
		l8.015-3.623l-4.128-17.505l-13.357-5.101c0,0,2.914-6.188,2.914-10.379c0-4.192,0-6.021-2.914-8.628
		C280.946,224.32,280.704,219.705,281.433,216.79z"/>
	<path fill="#4E4063" d="M381.005,243.359l3.903-7.805c0,0-3.306-7.638-8.764-7.176l-8.014,5.169L381.005,243.359z"/>
	<polygon fill="#3A2E4C" points="344.439,246.095 332.998,255.486 336.074,264.428 331.38,270.867 343.036,274.565 	"/>
	<path fill="#6C5E7F" d="M318.346,304.46l6.313-12.385c0,0-7.527-6.8-8.015-8.5l13.356-15.037l5.586,2.408
		c0,0,4.613-12.628,8.015-17.485l-3.644-9.714l6.801-8.192c0,0-6.801-7.351-5.102-17.307c0,0,20.644,5.828,31.328,15.542
		s11.657,18.7,11.657,18.7s2.672,29.749-8.985,42.438s-24.771,16.466-36.428,15.55C327.574,309.562,318.346,304.46,318.346,304.46z"
		/>
	<path fill="#4E4063" d="M250.833,225.935c0,0,0.242,10.13,1.942,12.757c1.7,2.628,1.457,7,9.229,5.785
		c7.771-1.215,13.338-5.344,15.411-10.199c2.073-4.857,0-8.343,0-8.343l-6.911-9.145c0,0-2.914-4.855-9.229-1.941
		C254.96,217.762,250.589,221.575,250.833,225.935z"/>
	<path fill="#4E4063" d="M351.859,212.204l-6.557,9.929c0,0-1.943,2.773,0,5.273c1.941,2.498,4.613,6.269,10.928,8.146
		c6.313,1.88,11.899,3.095,13.356-1.764c1.457-4.855,2.187-13.355,2.187-13.355s0.729-6.559-8.015-9.229
		C355.017,208.534,351.859,212.204,351.859,212.204z"/>
	<path fill="#4E4063" d="M370.802,273.133c0,0,2.914-17,13.843-20.643c0,0,14.813,7.23,16.757,11.144c0,0,6.071,5.816,2.186,18.101
		s-8.014,14.713-12.87,14.713c0,0-7.609,0.81-13.356-0.891c-5.747-1.701-5.991-4.452-6.558-6.639
		C370.235,286.732,369.183,279.052,370.802,273.133z"/>
	
		<ellipse transform="matrix(0.4131 -0.9107 0.9107 0.4131 -24.1065 522.4487)" fill="#3A2E4C" cx="393.296" cy="279.928" rx="5.829" ry="1.862"/>
	
		<ellipse transform="matrix(0.4129 -0.9108 0.9108 0.4129 -24.4946 529.3312)" fill="#3A2E4C" cx="398.333" cy="283.665" rx="5.39" ry="1.722"/>
	<circle cx="352.184" cy="298.147" r="4.291"/>
	<circle cx="368.13" cy="302.761" r="3.076"/>
	<ellipse fill="#FFFFFF" cx="350.766" cy="296.54" rx="1.417" ry="1.607"/>
	<circle fill="#FFFFFF" cx="366.518" cy="301.993" r="0.768"/>
	<path fill="#604E75" d="M292.522,316.037c0,0,11.98-1.405,18.619-5.56l5.504,4.75c0,0,9.714,2.96,9.876,3.584
		c0.162,0.625-5.989,6.453-17.81,5.157C296.893,322.674,292.522,316.037,292.522,316.037z"/>
	<polygon fill="#604E75" points="323.284,312.637 324.093,315.713 329.921,315.713 326.603,312.637 	"/>
</g>
</svg>
