<?xml version="1.0" encoding="utf-8"?>
<!-- Generator: Adobe Illustrator 16.0.0, SVG Export Plug-In . SVG Version: 6.00 Build 0)  -->
<!DOCTYPE svg PUBLIC "-//W3C//DTD SVG 1.1//EN" "http://www.w3.org/Graphics/SVG/1.1/DTD/svg11.dtd">
<svg version="1.1" id="Layer_1" xmlns="http://www.w3.org/2000/svg" xmlns:xlink="http://www.w3.org/1999/xlink" x="0px" y="0px"
	 width="407.5px" height="292.91px" viewBox="0 -13.143 407.5 292.91" enable-background="new 0 -13.143 407.5 292.91"
	 xml:space="preserve">
<g>
	<g>
		<path fill="#E9E9EA" d="M158.55,136.811h2.438c5.938,0,10.799,4.86,10.799,10.8v32.732c0,5.939-4.859,10.801-10.799,10.801h-2.438
			V136.811z"/>
		<path fill="#E9E9EA" d="M79.642,136.811h-2.438c-5.939,0-10.801,4.86-10.801,10.8v32.732c0,5.939,4.861,10.801,10.801,10.801
			h2.438V136.811z"/>
		<path fill="#333333" d="M160.988,136.811h-2.438H79.642h-2.438c-5.939,0-10.801,4.86-10.801,10.8v5.699h13.238v54.5h78.908v-54.5
			h13.236v-5.699C171.787,141.671,166.927,136.811,160.988,136.811z"/>
		<polygon fill="#C4C4C3" points="79.642,188.81 79.642,205.477 79.642,245.144 108.431,245.144 108.431,205.477 129.759,205.477 
			129.759,245.144 158.55,245.144 158.55,205.477 158.55,188.81 		"/>
		<path d="M94.037,259.539c7.949,0,14.395-6.443,14.395-14.395h-28.79C79.642,253.093,86.087,259.539,94.037,259.539z"/>
		<path d="M144.154,259.539c7.951,0,14.396-6.443,14.396-14.395h-28.791C129.759,253.093,136.205,259.539,144.154,259.539z"/>
		<path fill="#C4C4C3" d="M94.037,230.75c-7.949,0-14.395,6.444-14.395,14.396h28.789C108.431,237.194,101.986,230.75,94.037,230.75
			z"/>
		<path fill="#C4C4C3" d="M144.154,230.75c-7.949,0-14.396,6.444-14.396,14.396h28.791
			C158.55,237.194,152.105,230.75,144.154,230.75z"/>
		<g>
			<g>
				<path fill="#604E75" d="M100.14,155.671c0.692-0.213,1.111-0.068,1.253,0.42c1.804,6.229,2.705,9.341,4.51,15.568
					c0.134,0.463-0.039,0.805-0.543,0.961c-1.107,0.34-1.658,0.525-2.748,0.937c-0.471,0.177-0.846,0.026-1.022-0.421
					c-2.388-6.029-3.58-9.043-5.967-15.072c-0.187-0.473,0.092-0.855,0.739-1.1C97.86,156.4,98.618,156.141,100.14,155.671z"/>
				<path fill="#604E75" d="M109.478,153.537c0.71-0.109,1.1,0.096,1.168,0.6c0.533,3.934,0.799,5.902,1.332,9.838
					c0.262,1.934,0.561,3.053,2.639,2.863c2.078-0.19,2.166-1.346,2.073-3.295c-0.188-3.967-0.283-5.949-0.471-9.916
					c-0.024-0.508,0.356-0.78,1.037-0.801c1.604-0.051,2.407-0.05,4.012,0c0.715,0.021,1.061,0.291,1.035,0.799
					c-0.215,4.504-0.32,6.756-0.533,11.26c-0.078,1.671-0.668,5.734-6.757,6.289c-6.09,0.555-7.429-3.327-7.81-4.955
					c-1.026-4.391-1.542-6.588-2.568-10.979c-0.115-0.494,0.215-0.83,0.884-0.976C107.095,153.923,107.887,153.778,109.478,153.537z
					"/>
				<path fill="#604E75" d="M134.553,154.619c6.238,1.512,7.922,4.527,6.393,8.391c-1.529,3.865-4.182,4.654-9.254,3.427
					c-0.547-0.134-0.82-0.192-1.371-0.312c-0.543-0.115-0.908,0.07-1.006,0.568c-0.313,1.592-0.467,2.387-0.78,3.977
					c-0.099,0.496-0.406,0.692-0.921,0.601c-1.153-0.207-1.73-0.291-2.891-0.427c-0.492-0.057-0.75-0.361-0.703-0.84
					c0.643-6.442,0.963-9.664,1.604-16.107c0.051-0.505,0.431-0.725,1.146-0.666C129.906,153.593,131.469,153.873,134.553,154.619z
					 M132.902,162.248c1.479,0.362,2.252,0.442,2.688-1.065c0.437-1.509-0.298-1.894-1.866-2.279
					c-0.705-0.174-1.059-0.256-1.769-0.407c-0.624-0.135-1.038,0.047-1.136,0.543c-0.148,0.756-0.223,1.133-0.37,1.889
					c-0.093,0.473,0.196,0.813,0.784,0.939C131.904,162.007,132.236,162.083,132.902,162.248z"/>
			</g>
		</g>
	</g>
	<g>
		<path fill="#E9E9EA" d="M196.13,73.179c-0.894,0-1.756,0.118-2.586,0.318c-8.771-28.624-38.907-49.725-74.752-49.725
			c-35.846,0-65.984,21.101-74.754,49.725c-0.83-0.201-1.693-0.318-2.586-0.318c-6.074,0-11,4.925-11,11c0,6.075,4.926,11,11,11
			c0.068,0,0.133-0.009,0.199-0.01c2.715,33.829,36.201,49.417,77.141,49.417c40.938,0,74.424-15.587,77.14-49.417
			c0.065,0.001,0.131,0.01,0.198,0.01c6.074,0,11-4.925,11-11C207.13,78.104,202.205,73.179,196.13,73.179z"/>
		<path fill="none" stroke="#000000" stroke-width="3" stroke-linecap="round" stroke-miterlimit="10" d="M63.33,78.163
			c0,2.075,1.561,5.25,5.006,5.25s5.215-2.635,5.215-5.213"/>
		<path fill="none" stroke="#000000" stroke-width="3" stroke-linecap="round" stroke-miterlimit="10" d="M68.44,73.373
			c0,2.075,1.561,5.25,5.006,5.25c1.54,0,2.744-0.526,3.605-1.338"/>
		<path fill="none" stroke="#000000" stroke-width="3" stroke-linecap="round" stroke-miterlimit="10" d="M168.355,73.373
			c0,2.075-1.562,5.25-5.006,5.25c-1.539,0-2.744-0.526-3.605-1.338"/>
		<path fill="none" stroke="#000000" stroke-width="3" stroke-linecap="round" stroke-miterlimit="10" d="M163.167,78.163
			c0,2.075,1.562,5.25,5.006,5.25c3.445,0,5.216-2.635,5.216-5.213"/>
		<g>
			<circle cx="78.05" cy="80.887" r="7.5"/>
			<circle fill="#FFFFFF" cx="75.555" cy="78.844" r="3.03"/>
		</g>
		<g>
			<circle cx="158.55" cy="80.887" r="7.5"/>
			<circle fill="#FFFFFF" cx="156.055" cy="78.844" r="3.03"/>
		</g>
		<path fill="none" stroke="#000000" stroke-width="3" stroke-linecap="round" stroke-miterlimit="10" d="M118.792,75.814
			c0,0,0.812,8.268,4.312,12.573l-4.312,3.555"/>
		<path fill="none" stroke="#000000" stroke-width="3" stroke-linecap="round" stroke-miterlimit="10" d="M106.523,98.65
			c0,5.106,3.842,12.917,12.318,12.917s12.828-6.482,12.828-12.827"/>
		<path fill="#604E75" d="M111.392,12.174c0,0-24.965,11-16.982,23.333c7.983,12.333,22.943-1.667,44.316,0
			c12.526,0.977,45.948,10.863,55.19,37.99c8.353,24.51-6.813,49.14-15.474,54.742c-8.659,5.604-22.547,31.75-16.387,45.647
			c6.162,13.898,28.668,28.953,52.334,20.287c23.666-8.668,18.666-23.334,18.666-23.334s-4,9-16,9s-31.332-16.668-16.666-52.333
			c14.666-35.667,12.496-75.284-14.373-98C168.277,14.507,141.393,2.507,111.392,12.174z"/>
		<path fill="#E9E9EA" d="M195.932,95.168c0.065,0.001,0.131,0.01,0.198,0.01c6.074,0,11-4.925,11-11c0-6.075-4.926-11-11-11
			c-0.894,0-1.756,0.118-2.586,0.318l-5.524,12.451L195.932,95.168z"/>
		<path fill="#604E75" d="M103.353,26.174c0,0-7.666,13-17.803,17.667c-10.418,4.796-31.543,3.521-41.512,29.657
			c-10.852,28.453,10.73,54.01,22.365,59.361c11.635,5.35,16.652,32.314,1.801,44.314s-56.852,13.334-60.186-15.666
			c0,0,9.002,11,19.334,9.334c10.334-1.668,26.334-16.668,8-38c-18.334-21.334-16.223-70.518,6-91.667
			C64.193,19.439,89.687,11.508,103.353,26.174z"/>
		<path fill="#E9E9EA" d="M41.654,95.168c-0.066,0.001-0.131,0.01-0.199,0.01c-6.074,0-11-4.925-11-11c0-6.075,4.926-11,11-11
			c0.893,0,1.756,0.118,2.586,0.318l5.525,12.451L41.654,95.168z"/>
		<circle fill="#C4C4C3" cx="72.924" cy="107.545" r="9.595"/>
		<circle fill="#C4C4C3" cx="165.168" cy="107.545" r="9.595"/>
	</g>
</g>
<g>
	<path fill="#E9E9EA" d="M327.491,151.804l-0.637-2.354c-1.548-5.735,1.878-11.692,7.612-13.24l31.602-8.532
		c5.734-1.548,11.693,1.876,13.242,7.612l0.635,2.354L327.491,151.804z"/>
	<path fill="#E9E9EA" d="M251.688,137.771h-2.438c-5.94,0-10.801,4.86-10.801,10.8v32.732c0,5.939,4.859,10.801,10.801,10.801h2.438
		V137.771z"/>
	<polygon fill="#B69FCC" points="251.688,208.771 251.688,225.437 251.688,265.105 280.478,265.105 280.478,225.437 
		301.806,225.437 301.806,265.105 330.596,265.105 330.596,225.437 330.596,208.771 	"/>
	<path d="M266.084,279.499c7.948,0,14.395-6.443,14.395-14.394h-28.79C251.688,273.054,258.134,279.499,266.084,279.499z"/>
	<path d="M316.2,279.499c7.951,0,14.396-6.443,14.396-14.394h-28.79C301.806,273.054,308.252,279.499,316.2,279.499z"/>
	<path fill="#B69FCC" d="M266.084,250.71c-7.95,0-14.396,6.443-14.396,14.395h28.789C280.478,257.154,274.032,250.71,266.084,250.71
		z"/>
	<path fill="#B69FCC" d="M316.2,250.71c-7.948,0-14.395,6.443-14.395,14.395h28.79C330.596,257.154,324.151,250.71,316.2,250.71z"/>
	<path d="M367.596,150.486l-7.763-21.124l-19.863,5.363l-5.502,1.486c-5.734,1.547-9.16,7.505-7.612,13.241l0.636,2.353l2.759-0.745
		C343.442,154.062,367.596,150.486,367.596,150.486z"/>
	<polygon fill="#FFFFFF" points="280.478,137.771 264.596,137.771 291.142,180.154 313.596,137.771 	"/>
	<polygon fill="#B69FCC" points="307.119,180.154 295.149,145.82 299.263,137.486 282.929,137.486 287.596,145.82 278.569,180.154 	
		"/>
	<path d="M330.596,208.771v-54.5v-16.5h-23.477l-16.29,36.382l-19.574-36.382h-19.566h-2.438c-5.94,0-10.801,4.86-10.801,10.8v5.699
		l-2.188,28.215c0,0,6.834,2.021,15.427,0.779v25.506l-4.087,43.715c0,0,34.993,13.334,86.327,0L330.596,208.771z"/>
	<polygon fill="#FFFFFF" points="271.255,137.771 277.263,127.306 290.829,135.82 299.263,127.306 307.119,137.771 299.929,143.486 
		291.142,137.771 280.478,143.486 	"/>
	<path fill="#C4C4C3" d="M402.529,109.405c-9.362-9.008-18.099-5.892-18.099-5.892l-5.39,23.366
		c7.291,7.012,14.09,4.586,14.09,4.586L402.529,109.405z"/>
	<path fill="#C4C4C3" d="M390.579,139.31c0,0-6.801,2.424-14.092-4.587l-10.896,26.666c9.362,9.008,18.099,5.891,18.099,5.891
		L390.579,139.31z"/>
	<path fill="#604E75" d="M393.352,131.54c0,0-7.015,2.501-14.532-4.729l-2.633,8.089c7.519,7.231,14.531,4.73,14.531,4.73
		L393.352,131.54z"/>
</g>
<g>
	<g>
		<path fill="#E9E9EA" d="M368.178,71.389c-0.893,0-1.756,0.118-2.586,0.318c-8.771-28.624-38.908-49.725-74.753-49.725
			s-65.983,21.101-74.753,49.725c-0.83-0.201-1.693-0.318-2.586-0.318c-6.074,0-11,4.925-11,11c0,6.075,4.926,11,11,11
			c0.067,0,0.133-0.009,0.198-0.01c2.716,33.829,36.201,49.417,77.141,49.417c40.938,0,74.425-15.588,77.14-49.417
			c0.066,0.001,0.131,0.01,0.199,0.01c6.074,0,11-4.925,11-11C379.178,76.314,374.252,71.389,368.178,71.389z"/>
		<g>
			<circle cx="250.096" cy="79.097" r="7.5"/>
			<circle fill="#FFFFFF" cx="247.602" cy="77.054" r="3.03"/>
		</g>
		<g>
			<circle cx="330.596" cy="79.097" r="7.5"/>
			<circle fill="#FFFFFF" cx="328.102" cy="77.054" r="3.03"/>
		</g>
		<path fill="#B69FCC" d="M339.232,31.152c-7.167-5.333-24.171-11.994-44.656-12.637c-22.177-0.696-49.677,7.471-59.844,18.304
			c-10.323,11.001-19.127,25.778-18.646,34.889c0,0,2.813,3.335,2.813,7.39h5.5c0,0,0.5-26.445,16-36.445
			c0,0,7.499-0.833,10.166,4.833c0,0,4.228-3.333,2.03-6.5c0,0,24.429-4.833,39.929,10.792c0,0,3.125-5.542,0.875-7.542
			c0,0,16.125,0.667,22.375,7.917c0,0,0.875-2.417,0-5c-0.444-1.313,23.625-1.875,29.75,7.25c0,0,0.666-8.583-5.792-12.917
			c19.667,12.667,17.667,37.612,17.667,37.612h5.332c0.166-4.055,2.859-7.39,2.859-7.39
			C363.513,47.183,346.399,36.486,339.232,31.152z"/>
		<path fill="none" stroke="#000000" stroke-width="3" stroke-linecap="round" stroke-miterlimit="10" d="M290.839,74.025
			c0,0,0.812,8.268,4.312,12.573l-4.312,3.555"/>
		<path fill="none" stroke="#000000" stroke-width="3" stroke-linecap="round" stroke-miterlimit="10" d="M278.569,96.86
			c0,5.106,3.843,12.917,12.318,12.917s12.827-6.482,12.827-12.827"/>
	</g>
	<path fill="#564968" d="M251.688,26.33c0,0,28.171-0.738,39.141,9.156c0,0,6.632-9.201,30.448-12.601V4.986
		c0,0-14.154-4.5-34.794-4.5c-20.639,0-34.795,4.5-34.795,4.5V26.33z"/>
	<polygon fill="#372D47" points="286.483,25.736 229.596,9.736 286.483,-8.014 344.846,10.986 	"/>
	<path fill="#191422" d="M243.47,34.795c0.44-0.188,0.75-0.624,0.75-1.133c0-0.68-0.551-1.23-1.23-1.23
		c-0.679,0-1.229,0.551-1.229,1.23c0,0.536,0.347,0.98,0.824,1.149c-4.138,3.006-4.689,14.329-4.689,14.329l1.978-2.737l1.509,2.737
		l1.428-2.672l1.185,2.672l1.43-2.347l1.863,2.347C247.518,42.865,245.302,35.837,243.47,34.795z"/>
	<polygon fill="#191422" points="243.41,32.986 242.493,32.986 242.493,13.363 243.41,13.546 	"/>
	<polygon fill="#191422" points="284.153,3.307 284.359,4.2 243.41,13.635 242.493,13.363 	"/>
</g>
<g>
	<g>
		<rect x="25.352" y="192.837" fill="#B69FCC" width="7.478" height="50.387"/>
		<polygon fill="#8475A0" points="63.452,186.859 19.891,159.416 19.891,193.472 63.452,220.916 214.607,220.916 214.607,186.859 		
			"/>
		<polygon fill="#8475A0" points="205.23,271.302 199.77,266.824 199.77,214.884 205.23,214.884 		"/>
		<rect x="171.352" y="192.837" fill="#AA97C0" width="7.479" height="50.387"/>
		<polygon fill="#8475A0" points="171.352,243.224 165.891,239.224 165.891,192.837 171.352,192.837 		"/>
		<rect x="63.452" y="186.859" fill="#B69FCC" width="151.155" height="34.057"/>
		<polygon fill="#B69FCC" points="229,186.416 55.5,186.416 5.5,154.916 179,154.916 		"/>
		<polygon fill="#9883B2" points="222.253,186.416 55.5,186.416 12.246,159.166 5.5,154.916 5.5,159.166 55.5,190.666 229,190.666 
			229,186.416 		"/>
		<rect x="63.452" y="220.916" fill="#B69FCC" width="9.378" height="50.387"/>
		<rect x="205.23" y="220.916" fill="#B69FCC" width="9.377" height="50.387"/>
		<polygon fill="#8475A0" points="25.352,243.224 19.891,239.224 19.891,192.837 25.352,192.837 		"/>
		<polygon fill="#8475A0" points="63.452,271.302 57.991,266.824 57.991,214.884 63.452,214.884 		"/>
	</g>
	<polygon fill="#F2F2F2" points="135.917,181.822 91.25,181.822 54.25,158.115 98.917,158.115 	"/>
	<polygon fill="#FFFFFF" points="143.477,177.417 99.146,182.9 59.516,163.914 103.846,158.431 	"/>
</g>
</svg>
